<svg xmlns="http://www.w3.org/2000/svg" xmlns:xlink="http://www.w3.org/1999/xlink" width="268.201" height="268.201" viewBox="0 0 268.201 268.201">
  <defs>
    <clipPath id="clip-path">
      <circle id="Ellipse_47-2" data-name="Ellipse 47-2" cx="134.1" cy="134.1" r="134.1" transform="translate(250 183.999)" fill="#e0ded9"/>
    </clipPath>
    <clipPath id="clip-path-2">
      <rect id="Rectangle_1513" data-name="Rectangle 1513" width="268.2" height="321.79" fill="none"/>
    </clipPath>
    <clipPath id="clip-path-3">
      <path id="Path_5844" data-name="Path 5844" d="M29.4,82.1V249.684a134.11,134.11,0,0,0,192.418,17.644V64.454A134.111,134.111,0,0,0,29.4,82.1" fill="none"/>
    </clipPath>
    <clipPath id="clip-path-4">
      <rect id="Rectangle_1506" data-name="Rectangle 1506" width="26.653" height="15.424" transform="translate(139.585 93.857)" fill="none"/>
    </clipPath>
    <clipPath id="clip-path-5">
      <rect id="Rectangle_1505" data-name="Rectangle 1505" width="26.65" height="15.422" transform="translate(139.585 93.858)" fill="none"/>
    </clipPath>
    <clipPath id="clip-path-6">
      <path id="Path_5845" data-name="Path 5845" d="M69.006,142.947V128.038a18.2,18.2,0,0,1,18.188-18.2c7.9-.007,14-.029,21.311-.029,2.961,0,4.017,1.616,5.658,4.806,2.57,5-.188,6.038-2.343,6.954-11.086,4.716-24.781,12.275-36.645,23.94a3.544,3.544,0,0,1-2.511,1.045h-.026a3.632,3.632,0,0,1-3.631-3.607M87.417,95.214A32.276,32.276,0,0,0,55.141,127.49v47.346s-1.693,2.788-1.693,11.951v86.248a133.4,133.4,0,0,0,65.331,26.09H149.42a133.237,133.237,0,0,0,30.889-7.309c.011-.165.016-.331.016-.5V138.757a19.3,19.3,0,0,0-.668-5.037l-4.573-16.927a2.924,2.924,0,0,0-2.822-2.16H133.023a3.328,3.328,0,0,1-2.822-1.567l-7.685-12.334a11.714,11.714,0,0,0-9.942-5.519Z" fill="none"/>
    </clipPath>
    <clipPath id="clip-path-8">
      <rect id="Rectangle_1510" data-name="Rectangle 1510" width="37" height="172.695" transform="translate(133.278 114.401)" fill="none"/>
    </clipPath>
    <clipPath id="clip-path-9">
      <rect id="Rectangle_1509" data-name="Rectangle 1509" width="11.84" height="172.695" transform="translate(145.858 114.401)" fill="none"/>
    </clipPath>
    <clipPath id="clip-path-10">
      <path id="Path_5848" data-name="Path 5848" d="M58.023,99.125V276.336a133.537,133.537,0,0,0,38.558,18.335h75.037q1.872-.544,3.723-1.142V99.125Z" fill="none"/>
    </clipPath>
    <clipPath id="clip-path-11">
      <rect id="Rectangle_1512" data-name="Rectangle 1512" width="117.318" height="195.547" transform="translate(58.023 99.125)" fill="none"/>
    </clipPath>
    <clipPath id="clip-path-12">
      <rect id="Rectangle_1511" data-name="Rectangle 1511" width="117.318" height="195.546" transform="translate(58.023 99.125)" fill="none"/>
    </clipPath>
  </defs>
  <g id="Mask_Group_25" data-name="Mask Group 25" transform="translate(-250 -183.999)" clip-path="url(#clip-path)">
    <g id="Group_514" data-name="Group 514" transform="translate(-2115.266 -7608.631)">
      <circle id="Ellipse_44" data-name="Ellipse 44" cx="134.1" cy="134.1" r="134.1" transform="translate(2365.266 7792.63)" fill="#e0ded9"/>
      <circle id="Ellipse_47-2-2" data-name="Ellipse 47-2" cx="134.1" cy="134.1" r="134.1" transform="translate(2365.266 7792.63)" fill="#e0ded9"/>
    </g>
    <g id="Group_6288" data-name="Group 6288" transform="translate(250 152)">
      <g id="Group_6287" data-name="Group 6287" clip-path="url(#clip-path-2)">
        <g id="Group_6270" data-name="Group 6270">
          <g id="Group_6269" data-name="Group 6269" clip-path="url(#clip-path-3)">
            <path id="Path_5834" data-name="Path 5834" d="M153.528,116.634C148.6,59.055,178.917,9.528,221.31,5.9" fill="none" stroke="#50a7be" stroke-miterlimit="10" stroke-width="10"/>
            <path id="Path_5835" data-name="Path 5835" d="M165.431,91.715H140.787a2.761,2.761,0,0,0-2.615,2.886v14.61a2.759,2.759,0,0,0,2.614,2.885h24.642a2.761,2.761,0,0,0,2.615-2.886V94.6a2.756,2.756,0,0,0-2.612-2.885" fill="#fff"/>
            <g id="Group_6268" data-name="Group 6268" opacity="0.198">
              <g id="Group_6267" data-name="Group 6267">
                <g id="Group_6266" data-name="Group 6266" clip-path="url(#clip-path-4)">
                  <g id="Group_6265" data-name="Group 6265">
                    <g id="Group_6264" data-name="Group 6264" clip-path="url(#clip-path-5)">
                      <path id="Path_5836" data-name="Path 5836" d="M165.775,93.858h-.668a.428.428,0,0,0-.46.388v14.646a.428.428,0,0,0,.46.388h.671a.429.429,0,0,0,.46-.388V94.246a.428.428,0,0,0-.46-.388" fill="#a79d96"/>
                      <path id="Path_5837" data-name="Path 5837" d="M140.716,93.858h-.671a.429.429,0,0,0-.46.388v14.646a.429.429,0,0,0,.46.388h.671a.428.428,0,0,0,.46-.388V94.246a.428.428,0,0,0-.46-.388" fill="#a79d96"/>
                      <path id="Path_5838" data-name="Path 5838" d="M144.694,93.858h-.671a.429.429,0,0,0-.46.388v14.646a.429.429,0,0,0,.46.388h.671a.429.429,0,0,0,.46-.388V94.246a.429.429,0,0,0-.46-.388" fill="#a79d96"/>
                      <path id="Path_5839" data-name="Path 5839" d="M149.069,93.858H148.4a.429.429,0,0,0-.46.388v14.646a.429.429,0,0,0,.46.388h.671a.429.429,0,0,0,.46-.388V94.246a.429.429,0,0,0-.46-.388" fill="#a79d96"/>
                      <path id="Path_5840" data-name="Path 5840" d="M153.047,93.858h-.671a.429.429,0,0,0-.46.388v14.646a.429.429,0,0,0,.46.388h.671a.428.428,0,0,0,.46-.388V94.246a.428.428,0,0,0-.46-.388" fill="#a79d96"/>
                      <path id="Path_5841" data-name="Path 5841" d="M157.422,93.858h-.671a.429.429,0,0,0-.46.388v14.646a.429.429,0,0,0,.46.388h.671a.428.428,0,0,0,.46-.388V94.246a.428.428,0,0,0-.46-.388" fill="#a79d96"/>
                      <path id="Path_5842" data-name="Path 5842" d="M161.4,93.858h-.671a.429.429,0,0,0-.46.388v14.646a.429.429,0,0,0,.46.388h.671a.429.429,0,0,0,.46-.388V94.246a.429.429,0,0,0-.46-.388" fill="#a79d96"/>
                    </g>
                  </g>
                </g>
              </g>
            </g>
            <rect id="Rectangle_1507" data-name="Rectangle 1507" width="32.432" height="8.177" transform="translate(137.291 106.792)" fill="#819c35"/>
            <path id="Path_5843" data-name="Path 5843" d="M55.14,174.835V127.489A32.275,32.275,0,0,1,87.416,95.213h25.158a11.714,11.714,0,0,1,9.942,5.52l7.685,12.334a3.326,3.326,0,0,0,2.822,1.567H172.26a2.924,2.924,0,0,1,2.822,2.161l4.573,16.927a19.29,19.29,0,0,1,.668,5.036v152.56a7.808,7.808,0,0,1-7.808,7.808H61.256a7.809,7.809,0,0,1-7.809-7.807h0V186.787c0-9.163,1.693-11.951,1.693-11.951M69,142.911a3.629,3.629,0,0,0,6.168,2.6c11.864-11.665,25.558-19.223,36.645-23.94,2.155-.917,4.913-1.957,2.343-6.954-1.641-3.19-2.7-4.806-5.657-4.806-7.31,0-13.412.022-21.311.029A18.2,18.2,0,0,0,69,128.035Z" fill="#f4f4f4"/>
          </g>
        </g>
        <g id="Group_6272" data-name="Group 6272">
          <g id="Group_6271" data-name="Group 6271" clip-path="url(#clip-path-6)">
            <rect id="Rectangle_1508" data-name="Rectangle 1508" width="181.042" height="124.941" transform="translate(29.397 196.849)" fill="#c7ceae"/>
          </g>
        </g>
        <g id="Group_6279" data-name="Group 6279">
          <g id="Group_6278" data-name="Group 6278" clip-path="url(#clip-path-3)">
            <g id="Group_6277" data-name="Group 6277" opacity="0.2">
              <g id="Group_6276" data-name="Group 6276">
                <g id="Group_6275" data-name="Group 6275" clip-path="url(#clip-path-8)">
                  <g id="Group_6274" data-name="Group 6274">
                    <g id="Group_6273" data-name="Group 6273" clip-path="url(#clip-path-9)">
                      <line id="Line_170" data-name="Line 170" y2="172.695" transform="translate(151.778 114.401)" fill="none" stroke="#50a7be" stroke-miterlimit="10" stroke-width="37"/>
                    </g>
                  </g>
                </g>
              </g>
            </g>
          </g>
        </g>
        <g id="Group_6286" data-name="Group 6286">
          <g id="Group_6285" data-name="Group 6285" clip-path="url(#clip-path-10)">
            <g id="Group_6284" data-name="Group 6284" opacity="0.3">
              <g id="Group_6283" data-name="Group 6283">
                <g id="Group_6282" data-name="Group 6282" clip-path="url(#clip-path-11)">
                  <g id="Group_6281" data-name="Group 6281">
                    <g id="Group_6280" data-name="Group 6280" clip-path="url(#clip-path-12)">
                      <path id="Path_5847" data-name="Path 5847" d="M68.8,143.237a3.628,3.628,0,0,0,6.168,2.6c11.864-11.665,25.558-19.223,36.645-23.939,2.155-.917,4.913-1.957,2.343-6.954-1.641-3.19-2.7-4.807-5.658-4.807-7.31,0-13.411.022-21.311.029a18.2,18.2,0,0,0-18.187,18.2Zm-9.085,31.925V127.82c0-17.825,9.671-28.691,27.5-28.691h25.153c4.045,0,4.218.892,6.357,4.324l7.685,12.334a3.325,3.325,0,0,0,2.823,1.567l39.121.031a2.923,2.923,0,0,1,2.822,2.161l3.494,14.5a19.291,19.291,0,0,1,.669,5.036V288.058c0,4.313-3.5,6.614-7.808,6.614H65.832c-4.312,0-7.809-2.3-7.809-6.614V187.114c0-9.163,1.693-11.951,1.693-11.951" fill="#e5e5e5"/>
                    </g>
                  </g>
                </g>
              </g>
            </g>
          </g>
        </g>
      </g>
    </g>
  </g>
</svg>
