<svg xmlns="http://www.w3.org/2000/svg" xmlns:xlink="http://www.w3.org/1999/xlink" width="270.461" height="270.663" viewBox="0 0 270.461 270.663">
  <defs>
    <clipPath id="clip-path">
      <rect id="Rectangle_1344" data-name="Rectangle 1344" width="270.461" height="270.663" transform="translate(30)" fill="none"/>
    </clipPath>
    <clipPath id="clip-path-2">
      <path id="Path_5598" data-name="Path 5598" d="M32.261,134.1A134.1,134.1,0,1,0,166.361,0a134.1,134.1,0,0,0-134.1,134.1" fill="none"/>
    </clipPath>
    <clipPath id="clip-path-3">
      <path id="Path_5599" data-name="Path 5599" d="M100.834,17.073a134.118,134.118,0,1,0,182.418,182.8V68.329a134.726,134.726,0,0,0-51.363-51.256Z" fill="none"/>
    </clipPath>
    <clipPath id="clip-path-4">
      <path id="Path_5600" data-name="Path 5600" d="M100.834,17.073A134.144,134.144,0,0,0,203.967,262.856V17.073Z" fill="none"/>
    </clipPath>
    <clipPath id="clip-path-6">
      <path id="Path_5602" data-name="Path 5602" d="M100.834,17.073a134.118,134.118,0,1,0,182.418,182.8V68.328a134.731,134.731,0,0,0-51.363-51.255Z" fill="none"/>
    </clipPath>
    <clipPath id="clip-path-8">
      <path id="Path_5605" data-name="Path 5605" d="M89.395,24.273q-3.993,2.8-7.769,5.886v7.293h114.31V24.273Z" fill="none"/>
    </clipPath>
    <clipPath id="clip-path-10">
      <rect id="Rectangle_1316" data-name="Rectangle 1316" width="20.422" height="8.99" transform="translate(111.361 26.296)" fill="none"/>
    </clipPath>
    <clipPath id="clip-path-11">
      <rect id="Rectangle_1315" data-name="Rectangle 1315" width="20.421" height="8.991" transform="translate(111.361 26.296)" fill="none"/>
    </clipPath>
    <clipPath id="clip-path-12">
      <rect id="Rectangle_1318" data-name="Rectangle 1318" width="52.767" height="9.089" transform="translate(136.36 26.203)" fill="none"/>
    </clipPath>
    <clipPath id="clip-path-13">
      <rect id="Rectangle_1317" data-name="Rectangle 1317" width="52.766" height="9.083" transform="translate(136.361 26.205)" fill="none"/>
    </clipPath>
    <clipPath id="clip-path-14">
      <rect id="Rectangle_1320" data-name="Rectangle 1320" width="20.421" height="8.997" transform="translate(87.139 26.293)" fill="none"/>
    </clipPath>
    <clipPath id="clip-path-15">
      <rect id="Rectangle_1319" data-name="Rectangle 1319" width="20.421" height="8.99" transform="translate(87.139 26.296)" fill="none"/>
    </clipPath>
    <clipPath id="clip-path-17">
      <rect id="Rectangle_1323" data-name="Rectangle 1323" width="19.618" height="7.871" transform="translate(207.895 180.699)" fill="none"/>
    </clipPath>
    <clipPath id="clip-path-19">
      <rect id="Rectangle_1327" data-name="Rectangle 1327" width="14.593" height="23.383" transform="translate(161.775 135.919) rotate(-10.581)" fill="none"/>
    </clipPath>
    <clipPath id="clip-path-20">
      <rect id="Rectangle_1328" data-name="Rectangle 1328" width="23.382" height="14.592" transform="matrix(0.162, -0.987, 0.987, 0.162, 179.165, 163.482)" fill="none"/>
    </clipPath>
    <clipPath id="clip-path-21">
      <path id="Path_5621" data-name="Path 5621" d="M170.091,155.83l14.4,2.364,3.786-24.3-14.4-1.14Z" fill="none"/>
    </clipPath>
    <clipPath id="clip-path-23">
      <rect id="Rectangle_1343" data-name="Rectangle 1343" width="115.416" height="125.618" transform="translate(79.762 52.082)" fill="none"/>
    </clipPath>
    <clipPath id="clip-path-24">
      <rect id="Rectangle_1332" data-name="Rectangle 1332" width="87.113" height="69.025" transform="translate(39.469 106.623)" fill="none"/>
    </clipPath>
    <clipPath id="clip-path-25">
      <rect id="Rectangle_1331" data-name="Rectangle 1331" width="87.113" height="69.024" transform="translate(39.469 106.624)" fill="none"/>
    </clipPath>
    <clipPath id="clip-path-26">
      <rect id="Rectangle_1334" data-name="Rectangle 1334" width="74.11" height="61.561" transform="translate(47.726 108.425)" fill="none"/>
    </clipPath>
    <clipPath id="clip-path-28">
      <rect id="Rectangle_1336" data-name="Rectangle 1336" width="87.113" height="69.025" transform="translate(67.547 106.623)" fill="none"/>
    </clipPath>
    <clipPath id="clip-path-29">
      <rect id="Rectangle_1335" data-name="Rectangle 1335" width="87.113" height="69.024" transform="translate(67.547 106.624)" fill="none"/>
    </clipPath>
    <clipPath id="clip-path-30">
      <rect id="Rectangle_1338" data-name="Rectangle 1338" width="74.111" height="61.561" transform="translate(75.804 108.425)" fill="none"/>
    </clipPath>
    <clipPath id="clip-path-32">
      <rect id="Rectangle_1340" data-name="Rectangle 1340" width="87.112" height="69.025" transform="translate(99.405 106.623)" fill="none"/>
    </clipPath>
    <clipPath id="clip-path-33">
      <rect id="Rectangle_1339" data-name="Rectangle 1339" width="87.113" height="69.024" transform="translate(99.405 106.624)" fill="none"/>
    </clipPath>
    <clipPath id="clip-path-34">
      <rect id="Rectangle_1342" data-name="Rectangle 1342" width="74.11" height="61.561" transform="translate(107.662 108.425)" fill="none"/>
    </clipPath>
    <clipPath id="clip-path-37">
      <rect id="Rectangle_1558" data-name="Rectangle 1558" width="104.405" height="96.597" transform="translate(0 0)" fill="none"/>
    </clipPath>
    <clipPath id="clip-path-38">
      <path id="Path_5967" data-name="Path 5967" d="M46.34,0A46.34,46.34,0,1,0,92.68,46.341,46.341,46.341,0,0,0,46.34,0Z" fill="none"/>
    </clipPath>
  </defs>
  <g id="Group_6838" data-name="Group 6838" transform="translate(-248 -184)">
    <g id="Group_6090" data-name="Group 6090" transform="translate(218 184)">
      <g id="Group_6089" data-name="Group 6089" clip-path="url(#clip-path)">
        <g id="Group_6011" data-name="Group 6011">
          <g id="Group_6010" data-name="Group 6010" clip-path="url(#clip-path-2)">
            <path id="Path_5596" data-name="Path 5596" d="M166.361,0a134.1,134.1,0,1,1-134.1,134.1A134.1,134.1,0,0,1,166.361,0" fill="#e0ded9"/>
            <path id="Path_5597" data-name="Path 5597" d="M166.361,0a134.1,134.1,0,1,1-134.1,134.1A134.1,134.1,0,0,1,166.361,0" fill="#e0ded9"/>
          </g>
        </g>
        <g id="Group_6013" data-name="Group 6013">
          <g id="Group_6012" data-name="Group 6012" clip-path="url(#clip-path-3)">
            <rect id="Rectangle_1309" data-name="Rectangle 1309" width="72.348" height="59.658" transform="translate(0 228.005)" fill="#e7e7e7"/>
            <rect id="Rectangle_1310" data-name="Rectangle 1310" width="72.348" height="211.284" transform="translate(0 17.072)" fill="#e7e7e7"/>
          </g>
        </g>
        <g id="Group_6015" data-name="Group 6015">
          <g id="Group_6014" data-name="Group 6014" clip-path="url(#clip-path-4)">
            <line id="Line_124" data-name="Line 124" x1="73.727" transform="translate(0 228.343)" fill="none" stroke="#c0c2bd" stroke-miterlimit="10" stroke-width="1"/>
          </g>
        </g>
        <g id="Group_6017" data-name="Group 6017">
          <g id="Group_6016" data-name="Group 6016" clip-path="url(#clip-path-3)">
            <rect id="Rectangle_1311" data-name="Rectangle 1311" width="133.378" height="59.658" transform="translate(70.589 228.005)" fill="#c3d1d4"/>
            <rect id="Rectangle_1312" data-name="Rectangle 1312" width="133.378" height="168.023" transform="translate(70.589 17.072)" fill="#c3d1d4"/>
            <rect id="Rectangle_1313" data-name="Rectangle 1313" width="133.378" height="42.633" transform="translate(70.589 185.723)" fill="#3175ae"/>
          </g>
        </g>
        <g id="Group_6019" data-name="Group 6019">
          <g id="Group_6018" data-name="Group 6018" clip-path="url(#clip-path-6)">
            <line id="Line_125" data-name="Line 125" x1="73.727" transform="translate(0 45.48)" fill="none" stroke="#c0c2bd" stroke-miterlimit="10" stroke-width="1"/>
          </g>
        </g>
        <g id="Group_6021" data-name="Group 6021">
          <g id="Group_6020" data-name="Group 6020" clip-path="url(#clip-path-3)">
            <line id="Line_126" data-name="Line 126" x1="133.262" transform="translate(70.636 45.48)" fill="none" stroke="#9f9f9f" stroke-miterlimit="10" stroke-width="1"/>
          </g>
        </g>
        <g id="Group_6023" data-name="Group 6023">
          <g id="Group_6022" data-name="Group 6022" clip-path="url(#clip-path-8)">
            <path id="Path_5604" data-name="Path 5604" d="M193.891,37.452H83.672a1.958,1.958,0,0,1-2.05-1.857V26.13a1.959,1.959,0,0,1,2.045-1.857H193.888a1.959,1.959,0,0,1,2.045,1.857v9.464a1.959,1.959,0,0,1-2.045,1.857" fill="#3175ae"/>
          </g>
        </g>
        <g id="Group_6040" data-name="Group 6040">
          <g id="Group_6039" data-name="Group 6039" clip-path="url(#clip-path-6)">
            <g id="Group_6028" data-name="Group 6028" opacity="0.78">
              <g id="Group_6027" data-name="Group 6027">
                <g id="Group_6026" data-name="Group 6026" clip-path="url(#clip-path-10)">
                  <g id="Group_6025" data-name="Group 6025">
                    <g id="Group_6024" data-name="Group 6024" clip-path="url(#clip-path-11)">
                      <rect id="Rectangle_1314" data-name="Rectangle 1314" width="20.421" height="8.991" transform="translate(111.361 26.296)" fill="#fff"/>
                    </g>
                  </g>
                </g>
              </g>
            </g>
            <g id="Group_6033" data-name="Group 6033" opacity="0.78">
              <g id="Group_6032" data-name="Group 6032">
                <g id="Group_6031" data-name="Group 6031" clip-path="url(#clip-path-12)">
                  <g id="Group_6030" data-name="Group 6030">
                    <g id="Group_6029" data-name="Group 6029" clip-path="url(#clip-path-13)">
                      <path id="Path_5606" data-name="Path 5606" d="M187.081,35.287H138.406a1.96,1.96,0,0,1-2.046-1.857V28.065a1.96,1.96,0,0,1,2.046-1.857H187.08a1.959,1.959,0,0,1,2.047,1.857v5.368a1.961,1.961,0,0,1-2.046,1.857" fill="#fff"/>
                    </g>
                  </g>
                </g>
              </g>
            </g>
            <g id="Group_6038" data-name="Group 6038" opacity="0.78">
              <g id="Group_6037" data-name="Group 6037">
                <g id="Group_6036" data-name="Group 6036" clip-path="url(#clip-path-14)">
                  <g id="Group_6035" data-name="Group 6035">
                    <g id="Group_6034" data-name="Group 6034" clip-path="url(#clip-path-15)">
                      <path id="Path_5607" data-name="Path 5607" d="M105.514,33.429H89.185V28.153h16.329Zm0-7.134H89.185a1.959,1.959,0,0,0-2.045,1.858V33.43a1.959,1.959,0,0,0,2.046,1.857h16.328a1.961,1.961,0,0,0,2.046-1.857V28.153a1.961,1.961,0,0,0-2.046-1.857" fill="#fff"/>
                    </g>
                  </g>
                </g>
              </g>
            </g>
          </g>
        </g>
        <g id="Group_6042" data-name="Group 6042">
          <g id="Group_6041" data-name="Group 6041" clip-path="url(#clip-path-3)">
            <rect id="Rectangle_1321" data-name="Rectangle 1321" width="20.423" height="4.844" transform="translate(141.186 28.7)" fill="#819c35"/>
            <rect id="Rectangle_1322" data-name="Rectangle 1322" width="115.416" height="125.331" transform="translate(79.4 51.506)" fill="#9ba4a5"/>
          </g>
        </g>
        <g id="Group_6044" data-name="Group 6044">
          <g id="Group_6043" data-name="Group 6043" clip-path="url(#clip-path-17)">
            <path id="Path_5610" data-name="Path 5610" d="M225.7,182.838c2.742,1.426,2.311,3.551-.962,4.746-.271.1-.555.189-.854.27-4.041,1.188-9.472.88-12.688-.718-6.442-3.4-2.179-3.831,1.818-5.018s6.023-2.8,12.688.719" fill="#255e84"/>
          </g>
        </g>
        <g id="Group_6046" data-name="Group 6046">
          <g id="Group_6045" data-name="Group 6045" clip-path="url(#clip-path-3)">
            <rect id="Rectangle_1324" data-name="Rectangle 1324" width="133.378" height="10.146" transform="translate(70.589 174.949)" fill="#bdc7c9"/>
            <rect id="Rectangle_1325" data-name="Rectangle 1325" width="133.378" height="10.146" transform="translate(149.873 174.949)" fill="#e7e7e7"/>
            <rect id="Rectangle_1326" data-name="Rectangle 1326" width="114.896" height="4.82" transform="translate(79.642 70.688)" fill="#e7e7e7"/>
          </g>
        </g>
        <g id="Group_6048" data-name="Group 6048">
          <g id="Group_6047" data-name="Group 6047" clip-path="url(#clip-path-19)">
            <path id="Path_5612" data-name="Path 5612" d="M173.484,148.828c1.843,6.074,1.68,8.389,1.428,8.409l-.006-.012a.075.075,0,0,1-.049.038s-.939-1.829-2.066-4.322c.081-1.994.123-4.345.026-6.537.22.719.4,1.523.668,2.425" fill="#c0c2bd"/>
            <path id="Path_5613" data-name="Path 5613" d="M169.866,146.689a4.736,4.736,0,0,1,.691-3.2c-.093-.066-.189-.134-.293-.2a3.036,3.036,0,0,1-1.431-2.117c-.174-1.143-.092-1.213-.18-2.127a3.516,3.516,0,0,0-.853-2.389,3.364,3.364,0,0,0-3.449-1.14,2.8,2.8,0,0,0-1.052.563,3.22,3.22,0,0,0-.158,4.537,3.454,3.454,0,0,0,2.736,1.253,6.5,6.5,0,0,1,1.853,1.071,6.959,6.959,0,0,1,1.7,2.449c.134.425.28.859.434,1.3m-2.9-6.425a2,2,0,0,1-2.667-.191,2.1,2.1,0,0,1-.143-.155,2.024,2.024,0,0,1,.1-2.853,2,2,0,0,1,2.668.191c.049.05.1.1.143.155a2.024,2.024,0,0,1-.1,2.854" fill="#c0c2bd"/>
            <path id="Path_5614" data-name="Path 5614" d="M174.707,133.863a2.791,2.791,0,0,0-1.186-.129,3.368,3.368,0,0,0-2.775,2.346,3.516,3.516,0,0,0,.1,2.535,21.347,21.347,0,0,1,.629,2.042,3.041,3.041,0,0,1-.538,2.5c-.06.087-.115.168-.168.25a4.726,4.726,0,0,0-.695,3.2c.063.763.2,1.586.29,2.544.56,6.323,1.577,8.41,1.817,8.335v-.011a.073.073,0,0,0,.06.016s.19-2.067.3-4.821c.081-2,.123-4.345.024-6.537-.02-.453-.047-.9-.08-1.335a6.982,6.982,0,0,1,.664-2.905,6.513,6.513,0,0,1,1.32-1.687,3.453,3.453,0,0,0,2.068-2.185,3.223,3.223,0,0,0-1.84-4.15m-2.945,11.271a.634.634,0,1,1-.786-.433h0a.635.635,0,0,1,.782.434m3.586-7.394a2.034,2.034,0,0,1-.076.2,2,2,0,0,1-2.4,1.175,2.022,2.022,0,0,1-1.154-2.607c.021-.066.047-.132.074-.195a2,2,0,0,1,2.4-1.176,2.023,2.023,0,0,1,1.155,2.607" fill="#a9acaa"/>
          </g>
        </g>
        <g id="Group_6050" data-name="Group 6050">
          <g id="Group_6049" data-name="Group 6049" clip-path="url(#clip-path-20)">
            <path id="Path_5615" data-name="Path 5615" d="M189.566,156.532c-.335,6.338-1.277,8.461-1.521,8.393v-.013a.074.074,0,0,1-.059.018s-.261-2.04-.473-4.768c.756-1.847,1.6-4.045,2.249-6.138-.036.753-.146,1.564-.195,2.509" fill="#c0c2bd"/>
            <path id="Path_5616" data-name="Path 5616" d="M186.893,153.289a4.734,4.734,0,0,1,1.738-2.772c-.063-.1-.132-.191-.207-.288a3.031,3.031,0,0,1-.624-2.478,21.319,21.319,0,0,1,.554-2.062,3.516,3.516,0,0,0,.012-2.536,3.365,3.365,0,0,0-2.856-2.245,2.8,2.8,0,0,0-1.182.174,3.222,3.222,0,0,0-1.692,4.212,3.453,3.453,0,0,0,2.146,2.109,6.53,6.53,0,0,1,1.38,1.637,6.993,6.993,0,0,1,.767,2.881c-.018.445-.03.9-.033,1.37m-.545-7.032a2,2,0,0,1-2.443-1.087c-.03-.064-.057-.128-.081-.194a2.023,2.023,0,0,1,1.061-2.65,2,2,0,0,1,2.443,1.089,1.921,1.921,0,0,1,.082.193,2.023,2.023,0,0,1-1.062,2.65" fill="#c0c2bd"/>
            <path id="Path_5617" data-name="Path 5617" d="M195.812,142.877a2.816,2.816,0,0,0-1.071-.522,3.367,3.367,0,0,0-3.408,1.261,3.517,3.517,0,0,0-.767,2.419c0,.711-.033,1.423-.1,2.131a3.042,3.042,0,0,1-1.356,2.167c-.087.058-.165.118-.243.174a4.727,4.727,0,0,0-1.738,2.771c-.2.739-.348,1.565-.594,2.491-1.625,6.135-1.381,8.445-1.13,8.455l.006-.013a.068.068,0,0,0,.051.036s.883-1.878,1.927-4.432c.757-1.845,1.6-4.044,2.249-6.137.136-.434.261-.862.38-1.282a6.947,6.947,0,0,1,1.614-2.506,6.485,6.485,0,0,1,1.814-1.137,3.456,3.456,0,0,0,2.688-1.35,3.22,3.22,0,0,0-.317-4.527m-6.607,9.6a.635.635,0,1,1-.589-.677.635.635,0,0,1,.589.677m5.889-5.735a2.055,2.055,0,0,1-.137.159,2,2,0,0,1-2.659.287,2.024,2.024,0,0,1-.2-2.848,1.725,1.725,0,0,1,.139-.158,2,2,0,0,1,2.659-.287,2.022,2.022,0,0,1,.2,2.847" fill="#a9acaa"/>
          </g>
        </g>
        <g id="Group_6052" data-name="Group 6052">
          <g id="Group_6051" data-name="Group 6051" clip-path="url(#clip-path-21)">
            <path id="Path_5618" data-name="Path 5618" d="M180.492,148.882c-.335,6.338-1.277,8.461-1.521,8.394v-.014a.074.074,0,0,1-.059.018s-.261-2.04-.473-4.768c.756-1.847,1.6-4.045,2.249-6.138-.036.753-.146,1.564-.2,2.509" fill="#c0c2bd"/>
            <path id="Path_5619" data-name="Path 5619" d="M177.819,145.637a4.729,4.729,0,0,1,1.738-2.772c-.063-.1-.132-.191-.207-.287a3.039,3.039,0,0,1-.625-2.479,21.042,21.042,0,0,1,.555-2.062,3.521,3.521,0,0,0,.012-2.536,3.365,3.365,0,0,0-2.856-2.245,2.817,2.817,0,0,0-1.182.174,3.222,3.222,0,0,0-1.692,4.213,3.454,3.454,0,0,0,2.145,2.108,6.51,6.51,0,0,1,1.379,1.638,6.992,6.992,0,0,1,.767,2.881c-.018.445-.03.9-.033,1.37m-.545-7.032a2,2,0,0,1-2.443-1.087c-.03-.064-.057-.128-.081-.194a2.023,2.023,0,0,1,1.061-2.65,2,2,0,0,1,2.443,1.089,1.928,1.928,0,0,1,.082.193,2.023,2.023,0,0,1-1.062,2.65" fill="#c0c2bd"/>
            <path id="Path_5620" data-name="Path 5620" d="M184.708,134.173a2.84,2.84,0,0,0-1.153-.305,3.371,3.371,0,0,0-3.1,1.9,3.515,3.515,0,0,0-.278,2.52,21.137,21.137,0,0,1,.315,2.112,3.034,3.034,0,0,1-.9,2.39c-.071.074-.138.147-.2.221a4.726,4.726,0,0,0-1.164,3.058c-.053.763-.035,1.6-.1,2.557-.393,6.335.3,8.551.548,8.516v-.014a.069.069,0,0,0,.057.025s.5-2.016,1.022-4.722c.38-1.957.775-4.278,1.005-6.458.048-.45.087-.9.12-1.331a6.973,6.973,0,0,1,1.092-2.775,6.513,6.513,0,0,1,1.558-1.469,3.46,3.46,0,0,0,2.371-1.85,3.222,3.222,0,0,0-1.2-4.379m-4.6,10.7a.635.635,0,1,1-.711-.548h0a.635.635,0,0,1,.71.548m4.653-6.773c-.032.063-.067.123-.1.182a2,2,0,0,1-2.552.8,2.023,2.023,0,0,1-.75-2.754c.032-.063.067-.124.1-.183a2,2,0,0,1,2.551-.8,2.022,2.022,0,0,1,.751,2.754" fill="#a9acaa"/>
          </g>
        </g>
        <g id="Group_6054" data-name="Group 6054">
          <g id="Group_6053" data-name="Group 6053" clip-path="url(#clip-path-6)">
            <path id="Path_5622" data-name="Path 5622" d="M152.454,173.32H196.4l-8.209-18.4c-.589-1.318-2.375-2.219-4.4-2.219H162.631c-2.173,0-4.045,1.033-4.5,2.476Z" fill="#ededed"/>
            <rect id="Rectangle_1329" data-name="Rectangle 1329" width="48.045" height="1.586" transform="translate(149.871 173.32)" fill="#e2e2e2"/>
            <path id="Path_5623" data-name="Path 5623" d="M148.551,142.826h97.076a7.386,7.386,0,0,1,7.116,5.4l7.662,27.423" fill="none" stroke="#e7e7e7" stroke-miterlimit="10" stroke-width="1"/>
            <path id="Path_5624" data-name="Path 5624" d="M201.206,173.32H245.15l-8.206-18.4c-.591-1.318-2.377-2.219-4.4-2.219h-21.16c-2.173,0-4.045,1.033-4.5,2.476Z" fill="#ededed"/>
            <rect id="Rectangle_1330" data-name="Rectangle 1330" width="48.045" height="1.586" transform="translate(198.622 173.32)" fill="#e2e2e2"/>
          </g>
        </g>
        <g id="Group_6086" data-name="Group 6086">
          <g id="Group_6085" data-name="Group 6085" clip-path="url(#clip-path-23)">
            <g id="Group_6059" data-name="Group 6059" opacity="0.3">
              <g id="Group_6058" data-name="Group 6058">
                <g id="Group_6057" data-name="Group 6057" clip-path="url(#clip-path-24)">
                  <g id="Group_6056" data-name="Group 6056">
                    <g id="Group_6055" data-name="Group 6055" clip-path="url(#clip-path-25)">
                      <path id="Path_5626" data-name="Path 5626" d="M126.582,175.648H79.5a11.62,11.62,0,0,1-10.254-6.161L40.133,114.775a5.545,5.545,0,0,1,4.9-8.151H85a8.072,8.072,0,0,1,7.126,4.28Z" fill="#3175ae"/>
                    </g>
                  </g>
                </g>
              </g>
            </g>
            <g id="Group_6064" data-name="Group 6064" opacity="0.4">
              <g id="Group_6063" data-name="Group 6063">
                <g id="Group_6062" data-name="Group 6062" clip-path="url(#clip-path-26)">
                  <g id="Group_6061" data-name="Group 6061">
                    <g id="Group_6060" data-name="Group 6060" clip-path="url(#clip-path-26)">
                      <path id="Path_5627" data-name="Path 5627" d="M48.338,109.037l31.268,56.192a7.228,7.228,0,0,0,6.227,3.712l35.39.435" fill="none" stroke="#3175ae" stroke-linecap="round" stroke-linejoin="round" stroke-width="1"/>
                    </g>
                  </g>
                </g>
              </g>
            </g>
            <g id="Group_6069" data-name="Group 6069" opacity="0.3">
              <g id="Group_6068" data-name="Group 6068">
                <g id="Group_6067" data-name="Group 6067" clip-path="url(#clip-path-28)">
                  <g id="Group_6066" data-name="Group 6066">
                    <g id="Group_6065" data-name="Group 6065" clip-path="url(#clip-path-29)">
                      <path id="Path_5628" data-name="Path 5628" d="M154.66,175.648H107.578a11.62,11.62,0,0,1-10.254-6.161L68.212,114.775a5.545,5.545,0,0,1,4.9-8.151h39.974a8.072,8.072,0,0,1,7.126,4.28Z" fill="#3175ae"/>
                    </g>
                  </g>
                </g>
              </g>
            </g>
            <g id="Group_6074" data-name="Group 6074" opacity="0.4">
              <g id="Group_6073" data-name="Group 6073">
                <g id="Group_6072" data-name="Group 6072" clip-path="url(#clip-path-30)">
                  <g id="Group_6071" data-name="Group 6071">
                    <g id="Group_6070" data-name="Group 6070" clip-path="url(#clip-path-30)">
                      <path id="Path_5629" data-name="Path 5629" d="M76.416,109.037l31.268,56.192a7.228,7.228,0,0,0,6.227,3.712l35.39.435" fill="none" stroke="#3175ae" stroke-linecap="round" stroke-linejoin="round" stroke-width="1"/>
                    </g>
                  </g>
                </g>
              </g>
            </g>
            <g id="Group_6079" data-name="Group 6079" opacity="0.3">
              <g id="Group_6078" data-name="Group 6078">
                <g id="Group_6077" data-name="Group 6077" clip-path="url(#clip-path-32)">
                  <g id="Group_6076" data-name="Group 6076">
                    <g id="Group_6075" data-name="Group 6075" clip-path="url(#clip-path-33)">
                      <path id="Path_5630" data-name="Path 5630" d="M186.517,175.648H139.435a11.62,11.62,0,0,1-10.254-6.161l-29.112-54.712a5.545,5.545,0,0,1,4.895-8.151h39.974a8.072,8.072,0,0,1,7.126,4.28Z" fill="#3175ae"/>
                    </g>
                  </g>
                </g>
              </g>
            </g>
            <g id="Group_6084" data-name="Group 6084" opacity="0.4">
              <g id="Group_6083" data-name="Group 6083">
                <g id="Group_6082" data-name="Group 6082" clip-path="url(#clip-path-34)">
                  <g id="Group_6081" data-name="Group 6081">
                    <g id="Group_6080" data-name="Group 6080" clip-path="url(#clip-path-34)">
                      <path id="Path_5631" data-name="Path 5631" d="M108.273,109.037l31.268,56.192a7.228,7.228,0,0,0,6.227,3.712l35.39.435" fill="none" stroke="#3175ae" stroke-linecap="round" stroke-linejoin="round" stroke-width="1"/>
                    </g>
                  </g>
                </g>
              </g>
            </g>
          </g>
        </g>
        <g id="Group_6088" data-name="Group 6088">
          <g id="Group_6087" data-name="Group 6087" clip-path="url(#clip-path-6)">
            <path id="Path_5632" data-name="Path 5632" d="M78.915,142.826H151.5a7.386,7.386,0,0,1,7.116,5.4l7.662,27.423" fill="none" stroke="#e7e7e7" stroke-miterlimit="10" stroke-width="1"/>
            <line id="Line_127" data-name="Line 127" x2="174.733" transform="translate(79.658 155.117)" fill="none" stroke="#e7e7e7" stroke-miterlimit="10" stroke-width="1"/>
            <line id="Line_128" data-name="Line 128" x2="177.181" transform="translate(79.658 161.874)" fill="none" stroke="#e7e7e7" stroke-miterlimit="10" stroke-width="1"/>
            <path id="Path_5633" data-name="Path 5633" d="M79.243,65.22H179.375c4.236,0,6.73.382,7.87.935l3.673,4.749" fill="none" stroke="#e7e7e7" stroke-miterlimit="10" stroke-width="1"/>
          </g>
        </g>
      </g>
    </g>
    <g id="Group_6387" data-name="Group 6387" transform="translate(399.906 222.735)">
      <g id="Group_6384" data-name="Group 6384">
        <g id="Group_6383" data-name="Group 6383" clip-path="url(#clip-path-37)">
          <path id="Path_5955" data-name="Path 5955" d="M46.34,0A46.34,46.34,0,1,1,0,46.34,46.34,46.34,0,0,1,46.34,0" fill="#f2f2f2"/>
        </g>
      </g>
      <g id="Group_6386" data-name="Group 6386">
        <g id="Group_6385" data-name="Group 6385" clip-path="url(#clip-path-38)">
          <rect id="Rectangle_1559" data-name="Rectangle 1559" width="1.787" height="9.452" transform="translate(26.597 14.643)" fill="#ebc9ce"/>
          <rect id="Rectangle_1560" data-name="Rectangle 1560" width="2.414" height="9.452" transform="translate(28.384 14.643)" fill="#fff"/>
          <path id="Path_5956" data-name="Path 5956" d="M23.291,18.563a.459.459,0,0,0-.459.458v6.334a.459.459,0,0,0,.459.458h1.245v-7.25Z" fill="#ebc9ce"/>
          <path id="Path_5957" data-name="Path 5957" d="M34.1,18.563H24.535v7.251H34.1a.459.459,0,0,0,.459-.458V19.021a.459.459,0,0,0-.459-.458" fill="#fff"/>
          <path id="Path_5958" data-name="Path 5958" d="M46.2,46.219A17.5,17.5,0,0,0,28.611,28.8h0A17.5,17.5,0,0,0,11.193,46.219V94.51A2.086,2.086,0,0,0,13.279,96.6H44.113A2.086,2.086,0,0,0,46.2,94.51Z" fill="#fff"/>
          <path id="Path_5959" data-name="Path 5959" d="M22.536,21.2H34.855A1.307,1.307,0,0,1,36.162,22.5V29.12a1.305,1.305,0,0,1-1.306,1.307H22.536a1.307,1.307,0,0,1-1.307-1.307V22.5A1.307,1.307,0,0,1,22.536,21.2" fill="#cd352f"/>
          <path id="Path_5960" data-name="Path 5960" d="M50.116,12.377a16.573,16.573,0,0,0-3.181-2.5C41.847,7.314,32.016,9.465,30.213,9.5a36.52,36.52,0,0,1-5.684-.8s-1.559-.069-1.559.9a.809.809,0,0,0,.706.9h0a.856.856,0,0,0,.16,0,1.393,1.393,0,0,1,1.318,1.352,1.988,1.988,0,0,0,1.527,1.63V14.8h4.544V13.511a9.722,9.722,0,0,1,8.388-3.739c5.211.382,5.218.168,9.592,3.411a1.66,1.66,0,0,0,.91-.806" fill="#cd352f"/>
          <path id="Path_5961" data-name="Path 5961" d="M82.268,17.874a35.745,35.745,0,0,0-6.364-.583,21.81,21.81,0,0,0-5.1.995c-2.787.892-4.208,1.8-7.246,2.068s-4.629.323-6.265.88-3.52.857-3.359,2.618a3.061,3.061,0,0,0,3.192,2.842,23.048,23.048,0,0,0,5.581-.812c.914-.293,2.475-.456,2.8-.057s.8,1.122.8,1.122,4.717-2.047,5.592-2.461a63.36,63.36,0,0,0,6.866-4.144c1.387-1.116,3.509-2.468,3.509-2.468" fill="#d19e81"/>
          <path id="Path_5962" data-name="Path 5962" d="M104.4,28.088l-18.032.935S76.391,34.97,71.834,37.1s-6.922,3.557-9.308,3.65c0,0-9.787-1-12.179-3.019-2.453-2.068-6.632-6.876-7.221-8.3s-2.371-6.359-2.371-6.359-.34-.747,1.2-1.165c0,0,.435-1.171,2.12-.838s2.667,1.095,3.25,4.7l.95-4.064a2.144,2.144,0,0,1,2.115-.206c1.269.5,1.432,2.06,1.443,2.829A13.077,13.077,0,0,1,51.4,26.75a16.041,16.041,0,0,1,3.884,3.324,9.669,9.669,0,0,1,4.8-.225,8.022,8.022,0,0,1,5.2-2.435,46.513,46.513,0,0,1,6.009-3.568c2.134-.884,3.859-3.048,6.769-4.449s6.32-2.492,8.6-1.879S104.342,13.2,104.342,13.2Z" fill="#e5af90"/>
          <path id="Path_5963" data-name="Path 5963" d="M48.139,21.956c.075-.362.362-.578.637-.329l.009.009c.236.224-.18,1.985-.377,2.756a.642.642,0,0,1-.122.216.5.5,0,0,1-.675.209.377.377,0,0,1-.054-.034Z" fill="#d9bdb0"/>
          <path id="Path_5964" data-name="Path 5964" d="M41.765,21.963s.62,2.828.716,3.243.916,4.758.916,4.758l-.589-1.332-1.532-4.121-.522-1.44a.51.51,0,0,1,.012-.4,1.329,1.329,0,0,1,.482-.5,4,4,0,0,1,.517-.21" fill="#d19e81"/>
          <path id="Path_5965" data-name="Path 5965" d="M41.748,22.037l.695,2.772s.112.285.263-.29a18.183,18.183,0,0,0-.536-2.713.275.275,0,0,0-.379.085.289.289,0,0,0-.043.146" fill="#d9bdb0"/>
          <path id="Path_5966" data-name="Path 5966" d="M47.326,25.77s-.47,2.756-.47,3.2,6.194,6.387,6.194,6.387-4.981-3.641-6.194-4.79-1.149-.958-1.277-3.257,1.006-7.009,1.747-1.544" fill="#d19e81"/>
        </g>
      </g>
    </g>
  </g>
</svg>
