<svg xmlns="http://www.w3.org/2000/svg" xmlns:xlink="http://www.w3.org/1999/xlink" width="269" height="269" viewBox="0 0 269 269">
  <defs>
    <clipPath id="clip-path">
      <circle id="Ellipse_46" data-name="Ellipse 46" cx="134.5" cy="134.5" r="134.5" fill="none"/>
    </clipPath>
    <clipPath id="clip-path-2">
      <rect id="Rectangle_1504" data-name="Rectangle 1504" width="245.23" height="189.962" fill="none"/>
    </clipPath>
  </defs>
  <g id="Group_6261" data-name="Group 6261" transform="translate(-214 -150)">
    <g id="Group_1824" data-name="Group 1824" transform="translate(214 150)">
      <circle id="Ellipse_46-2" data-name="Ellipse 46" cx="134.5" cy="134.5" r="134.5" fill="#e0ded9"/>
      <g id="Group_484" data-name="Group 484">
        <g id="Group_483" data-name="Group 483" transform="translate(0 0)" clip-path="url(#clip-path)">
          <g id="Group_6263" data-name="Group 6263" transform="translate(2.448 21.158) rotate(1)">
            <g id="Group_6262" data-name="Group 6262" clip-path="url(#clip-path-2)">
              <path id="Path_5809" data-name="Path 5809" d="M905.18,722.247c-.707.842-1.735,2.181-2.729,3.525h0c-1.051,1.421-2.58,3.759-2.558,3.789-1.177,1.718-2.43,3.5-2.964,4.108-1.135,1.292-11.744,10.138-15.482,11.413s-11.036,3.757-26.2,7.722L872.46,765.69s11.818-6.591,13.477-8.092,14.5-12.493,16.263-14.247,3.532-5.19,6.181-12.679h0c1.932-3.831,4.133-7.978,4.494-8.674,1.28-2.474-4.252-3.847-7.694.25" transform="translate(-686.973 -578.049)" fill="#62c0d8"/>
              <path id="Path_5810" data-name="Path 5810" d="M1045.221,719.744a1.134,1.134,0,0,1,1.4,1.275c0,1.574-2.755,4.722-5.312,7.083s-3.738.393-3.738.393a1.873,1.873,0,0,0,.394,1.377c.345.518,0,.984-.394,1.377-.451.451-1.427,1.224-2.951,2.558a48.925,48.925,0,0,1-10.231,6.69l5.116,1.574s11.805-6.1,12.789-8.264,5.944-13.544,5.979-13.624a4.211,4.211,0,0,0-3.047-.441" transform="translate(-822.833 -578.057)" fill="#50a7be"/>
              <path id="Path_5811" data-name="Path 5811" d="M951.716,699.247c-.708.842-1.735,2.181-2.729,3.525h0c-1.049,1.418-2.06,2.841-2.62,3.695a.076.076,0,0,0-.005.012c-.075.17-2.374,3.6-2.9,4.19-1.134,1.292-11.744,10.138-15.482,11.413s-11.036,3.757-26.2,7.722L919,742.69s11.818-6.591,13.477-8.092,14.5-12.493,16.263-14.247,3.532-5.19,6.181-12.679h0c1.932-3.831,4.133-7.978,4.494-8.674,1.28-2.474-4.252-3.847-7.694.25" transform="translate(-724.353 -559.574)" fill="#62c0d8"/>
              <path id="Path_5812" data-name="Path 5812" d="M866.625,742.021c-.561.763-1.369,1.97-2.149,3.18h0c-.824,1.279-1.616,2.561-2.049,3.324l.061.072c-.917,1.541-1.894,3.141-2.319,3.693-.9,1.174-9.517,9.377-12.649,10.691s-9.251,3.871-22.027,8.165l15.431,10.017s9.769-6.345,11.109-7.729,11.746-11.558,13.167-13.165,2.747-4.654,4.616-11.224h0c1.45-3.4,3.114-7.077,3.385-7.694.964-2.195-3.847-3.043-6.576.67" transform="translate(-663.074 -593.977)" fill="#62c0d8"/>
              <path id="Path_5813" data-name="Path 5813" d="M1128.35,697.049c2.593-.4,2.4,1.758,1.609,4.316-.7,2.264-1.574,4.919-4.132,6.493s-3.148.393-3.148.393,0,1.574,1.967,1.771-.979,5.621-5.212,8.516,1.277,1.912,2.064,1.518a27.47,27.47,0,0,0,2.744-2.357,63.936,63.936,0,0,0,4.231-10.017h0c1.932-3.831,4.133-7.978,4.494-8.674.934-1.8-1.758-3.021-4.618-1.958" transform="translate(-897.911 -559.584)" fill="#50a7be"/>
              <path id="Path_5814" data-name="Path 5814" d="M1027.36,739.647c3.862-.732-1.057,7.532-2.238,8.122a8.679,8.679,0,0,1-3.148.59s.2.984,2.558,1.377-3.148,6.493-3.148,6.493l4.4-2.663c.43-1.284.887-2.773,1.38-4.511h0c1.45-3.4,3.114-7.077,3.385-7.695.617-1.405-1.134-2.256-3.19-1.713" transform="translate(-820.423 -593.986)" fill="#50a7be"/>
              <path id="Path_5815" data-name="Path 5815" d="M1011.413,830.065s7.57-3.365,0,5.6-13.525,13.906-17.52,16.242c-3.028,1.771-7.273.543-8.738,1.577s26.258-23.416,26.258-23.416" transform="translate(-791.277 -666.25)" fill="#50a7be"/>
              <path id="Path_5816" data-name="Path 5816" d="M661.26,539.733s-9.972,9.815-14.267,9.4-12.612-3.321-12.612-3.321-1.138-3.977,5.172-4.547,7.739,1.056,9.235-.521,10.492-9.224,10.492-9.224Z" transform="translate(-509.499 -426.942)" fill="#62c0d8"/>
              <path id="Path_5817" data-name="Path 5817" d="M656.849,518.8s-12.96,5.273-16.773,3.251-10.395-7.877-10.395-7.877.464-4.11,6.515-2.232,6.753,3.926,8.736,3.038,13.215-4.528,13.215-4.528Z" transform="translate(-505.79 -410.021)" fill="#62c0d8"/>
              <path id="Path_5818" data-name="Path 5818" d="M706.988,426.334c5.234,5.956,10.863,15.088,12.908,20.712,1.574,4.329,3.148,5.706,0,10.034-2.7,3.715-11.412,6.3-11.412,6.3l-6.1-29.316Z" transform="translate(-564.188 -342.451)" fill="#62c0d8"/>
              <path id="Path_5819" data-name="Path 5819" d="M694.687,382.6c4.722,2.558,11.524,10.571,14.227,14.99,2.08,3.4,3.653,4.3,1.726,8.514-1.653,3.617-4.334,3.486-4.334,3.486l-14.485-20.005Z" transform="translate(-555.704 -307.325)" fill="#62c0d8"/>
              <path id="Path_5820" data-name="Path 5820" d="M77.99,75.672s2.361,7.083,10.231,17.511,10.625,12.4,14.757,17.511,11.215,21.643,14.363,23.217,4.722-9.641,1.377-14.953-7.28-16.134-5.706-18.888,14.757,2.951,17.9,6.493,3.738,5.9,3.738,8.657c0,1.52-2.164,7.28-3.542,8.067-1.528.873-5.931,3.814-7.87,5.312-4.329,3.345-3.345,9.247-.787,8.067,1.274-.588,13.747-6.524,15.74-6.886,2.164-.394,8.14-10.123,8.854-14.166.59-3.345,1.377-10.231,0-15.937-1.426-5.908-2.361-19.085-5.9-22.823s-35.219-17.314-39.941-21.84S25.85,0,25.85,0,3.345,23.917,0,43.986Z" fill="#7f6560"/>
              <path id="Path_5821" data-name="Path 5821" d="M377.7,231.517c-1.426-5.908-2.361-19.085-5.9-22.823s-35.219-17.314-39.941-21.84c-1.553-1.488-7.955-6.209-15.849-11.876,0,0-4.81-3.471-5.99-5.242a6.376,6.376,0,0,0-3.542-2.558c-.984-.393-2.361-5.116-4.329-1.968-.09.144-.193.314-.309.508a79.566,79.566,0,0,0-12.759,25.792c-2.837,7.609-2.082,10.3-.7,10.886s1.771-2.755,2.558-.787-.787,0,8.918,2.2l8.79,3.7S311,214.6,318.868,225.024s10.625,12.4,14.757,17.511,11.215,21.643,14.363,23.217,4.722-9.641,1.377-14.953-7.28-16.134-5.706-18.888,14.756,2.951,17.9,6.493,3.738,5.9,3.738,8.657c0,1.52-2.164,7.28-3.542,8.067-1.528.873-5.931,3.814-7.87,5.312-4.329,3.345-3.345,9.247-.787,8.067,1.274-.588,13.747-6.524,15.74-6.886,2.164-.393,8.14-10.123,8.854-14.166.59-3.345,1.377-10.231,0-15.937" transform="translate(-230.647 -131.841)" fill="#62c0d8"/>
              <path id="Path_5822" data-name="Path 5822" d="M572.634,537.65c3.148,1.574,4.722-9.641,1.377-14.953s-7.28-16.134-5.706-18.888c.508-.888,2.224-.9,4.42-.381-3.057-.971-6.584-2.374-5.8,4.906a44.26,44.26,0,0,0,4.329,13.969c-1.968,0-3.935,1.968-3.935,1.968a6.231,6.231,0,0,1,6.886,3.738c1.967,4.722.393,10.034-1.574,9.641" transform="translate(-455.294 -403.739)" fill="#50a7be"/>
              <path id="Path_5823" data-name="Path 5823" d="M637.3,493.359c-1.18-2.361-5.116-2.755-5.116-2.755,2.558,2.164,2.755,2.361,3.148,5.9s1.771,11.805,1.377,13.379-5.116,12.4-7.083,10.034-3.542-2.755-3.542-2.755a6.088,6.088,0,0,1,2.164,4.132,3.365,3.365,0,0,0-1.574-1.574s2.361,1.968-2.361,3.935-11.407,8.848-12.509,5.686c.274,1.2,1.049,1.873,2.081,1.4,1.274-.588,13.747-6.524,15.74-6.886,2.164-.394,8.14-10.123,8.854-14.166.394-2.558,0-13.97-1.181-16.331" transform="translate(-491.433 -394.076)" fill="#50a7be"/>
              <path id="Path_5824" data-name="Path 5824" d="M736.9,447.088c.882,4.627,2.363,3.412,4.18,4.9a4.378,4.378,0,0,1,1.423,3.854s-.393-1.574-2.755-2.164-1.239,1.712-.62,5.873S737,452.109,737,452.109Z" transform="translate(-591.915 -359.122)" fill="#50a7be"/>
              <path id="Path_5825" data-name="Path 5825" d="M706.2,388.065c-.69-2.391.589-3.777,3.2-.92,0,0-1.328-3.439-2.705-4.816s-3.738-1.392-6.3-2.86,5.806,8.6,5.806,8.6" transform="translate(-562.202 -304.689)" fill="#50a7be"/>
              <path id="Path_5826" data-name="Path 5826" d="M318.3,676.99c-.944.525-2.354,1.395-3.735,2.283-1.46.938-2.886,1.9-3.7,2.486.011.036.021.072.032.107-1.678,1.169-3.448,2.371-4.151,2.741-1.495.787-15.136,4.132-19.06,3.935-2.707-.136-6.836.1-14.228-.37-.84-.121-1.73-.237-2.676-.346-5.247-.724-11.154-2.667-10.984-4.777.255-3.161,9.166-9.835,14.646-12.309s10.3-12.6,6.986-13.092-17.759,9.092-23.748,10.958-9.2,1.921-20.979,6.037-17.441,8.606-17.441,8.606l-149.5-31.732c-8.206,18.42-56.731,39.969-18.134,55.522s166.39,7.732,172.522,6.688,38.493,7.28,47.463,3.148c13.866-6.387,12.517-9.916,16.817-13.969,2.055-.787,17.752-6.3,19.994-7.28s5.045-3.542,10.036-9.562h0c3.093-2.866,6.543-5.926,7.114-6.443,2.027-1.838-2.687-5.18-7.282-2.628" transform="translate(-80.836 -528.07)" fill="#7f6560"/>
              <path id="Path_5827" data-name="Path 5827" d="M184.145,791.836c-20.972-3.2-59.928-15.112-71.282-19.971a186.809,186.809,0,0,0-.134,32.411s49.124,3.311,77.292,2.75Z" transform="translate(-90.027 -619.998)" fill="#846a66"/>
              <path id="Path_5828" data-name="Path 5828" d="M616.1,677.841c-.944.525-2.354,1.395-3.735,2.283-1.46.938-2.886,1.9-3.7,2.486.011.036.021.072.032.107-1.678,1.169-3.448,2.371-4.151,2.741-1.495.787-15.136,4.132-19.06,3.935-2.707-.136-6.836.1-14.228-.37-.84-.121-1.73-.237-2.676-.346-5.247-.724-11.154-2.667-10.984-4.777.255-3.161,9.166-9.835,14.646-12.309s10.3-12.6,6.986-13.092-17.759,9.092-23.748,10.958-9.2,1.921-20.979,6.037-19.052,6.228-19.052,6.228l-2.951-.2c-2.926-1.443-.669-1.346-3.345-.2-1.716.735-.984-1.377-2.361-2.558s-3.148,1.574-4.27.578c-2.614-2.417-3.872-14.349-3.6-16.512.415-3.3,0-3.935-.787-1.377-.692,2.249-4.464,17.435-8.829,16.573l-6.517-1.423c-.59,2.164-.591,5.9-1.968,8.264-8.264,14.166-12.789,23.214-6.493,31.087h0c2.163,3.145,2.556,3.145,4.13,1.571s2.361,2.361,4.722.984,1.968-1.574,4.329-1.18,9.219-1.617,16.12-1.792h0c10.533-.317,16.494-.651,18.322-.962,6.132-1.044,38.493,7.28,47.463,3.148,13.866-6.387,12.517-9.916,16.817-13.969,2.055-.787,17.752-6.3,19.994-7.28s5.045-3.542,10.036-9.562h0c3.093-2.866,6.543-5.926,7.114-6.443,2.027-1.838-2.687-5.18-7.282-2.628" transform="translate(-378.631 -528.922)" fill="#62c0d8"/>
              <path id="Path_5829" data-name="Path 5829" d="M555.1,886.983c-18.692-4.722-12.592-6.493-39.547-6.1s-26.758-7.28-26.758-7.28c-2.558,6.886.393,11.608,1.18,13.773s-.783,4.91-3.53,1.392c2.154,3.131,2.549,3.128,4.12,1.557s2.361,2.361,4.722.984,1.968-1.574,4.329-1.18,9.219-1.617,16.12-1.792h0c10.533-.317,16.494-.651,18.322-.963,6.132-1.044,38.493,7.28,47.463,3.148l.084-.039a.827.827,0,0,0-.14.042c-3.345,1.377-7.673,1.181-26.365-3.542" transform="translate(-390.734 -701.719)" fill="#50a7be"/>
              <path id="Path_5830" data-name="Path 5830" d="M906.755,688.677c-5.247-.724-11.154-2.667-10.984-4.777.255-3.161,9.166-9.835,14.646-12.309s10.3-12.6,6.986-13.092a7.524,7.524,0,0,0-3.26.81c3.426-.8,3.229-1.2,3.032,2.147s-5.706,9.248-9.444,8.067-3.738-.984-3.738-.984,2.361,1.377,2.361,2.164-13.969,5.9-13.969,11.412c0,4.539,9.892,6.292,16.784,6.871-.763-.107-1.564-.211-2.413-.309" transform="translate(-716.804 -528.923)" fill="#50a7be"/>
              <path id="Path_5831" data-name="Path 5831" d="M984.969,814.07c.908.059,1.737.1,2.45.119q-1.157-.047-2.45-.119" transform="translate(-791.173 -653.899)" fill="#50a7be"/>
              <path id="Path_5832" data-name="Path 5832" d="M1064.337,752.2c2.731.283,3.706,2.247.76,4.211s-4.526,4.525-7.28,4.329-2.951-1.574-2.951-1.574a5.235,5.235,0,0,0,2.361,3.148h-1.574s-1.574,6.493-5.116,7.477-4.919-2.951-4.919-2.951a5.137,5.137,0,0,0,1.181,3.935,53.615,53.615,0,0,1-9.444,4.722c-4.525,1.574-6.493,1.377-8.657,2.951a2.621,2.621,0,0,1-3.738-.59s-.787,2.951,1.968,3.542,2.361-2.558,4.525-3.345c1.425-.518,8.221-2.4,13.429-4.076,2.554-.925,4.707-1.719,5.662-2.112.069-.037.133-.074.19-.109a10.243,10.243,0,0,1,1.2-.607c2.069-1.291,4.716-3.9,8.905-8.958h0c3.093-2.865,6.543-5.926,7.114-6.443,1.472-1.335-.611-3.461-3.622-3.548" transform="translate(-823.211 -604.203)" fill="#50a7be"/>
              <path id="Path_5833" data-name="Path 5833" d="M958.384,908.911c.787,0,4.78,3.345,8.264,1.377s5.509-1.771,5.9-3.148a17.7,17.7,0,0,1,2.611-5.013l-3.988,1.274Z" transform="translate(-769.819 -724.63)" fill="#50a7be"/>
            </g>
          </g>
        </g>
      </g>
    </g>
  </g>
</svg>
