<svg xmlns="http://www.w3.org/2000/svg" xmlns:xlink="http://www.w3.org/1999/xlink" width="268.2" height="268.2" viewBox="0 0 268.2 268.2">
  <defs>
    <clipPath id="clip-path">
      <circle id="Ellipse_53" data-name="Ellipse 53" cx="134.1" cy="134.1" r="134.1" fill="none"/>
    </clipPath>
  </defs>
  <g id="Group_7641" data-name="Group 7641" transform="translate(-250 -184)">
    <g id="Group_6138" data-name="Group 6138" transform="translate(-284 -1183)">
      <circle id="Ellipse_53-2" data-name="Ellipse 53" cx="134.1" cy="134.1" r="134.1" transform="translate(534 1367)" fill="#e0ded9"/>
      <g id="Group_509" data-name="Group 509" transform="translate(534 1367)">
        <g id="Group_508" data-name="Group 508" transform="translate(0 0)" clip-path="url(#clip-path)">
          <g id="Group_114" data-name="Group 114" transform="translate(108.414 34.243)">
            <path id="Path_356" data-name="Path 356" d="M1551.97-125.635h-24.284c-.507,45.541-15.958,62.874-33.042,74.513a5.857,5.857,0,0,0-2.537,4.848V43.593a9.852,9.852,0,0,0,9.858,9.844h.022l100.043-.363a9.843,9.843,0,0,0,9.8-9.843V-49.444c-18.05-11.682-35.04-28.41-35.578-76.195Z" transform="translate(-1492.108 163.184)" fill="#fff"/>
            <path id="Path_357" data-name="Path 357" d="M1561.817-147.706l-1.565-1.8a98.994,98.994,0,0,0-18.98-2.392,102.347,102.347,0,0,0-18.982,2.392l-2.582,2.97-2.723,3.127,3.319,38.73h5.973l-3.542-39.873,1.46-.265a108.485,108.485,0,0,1,17.078-1.772,119.916,119.916,0,0,1,17.138,1.876c.481.077.94.157,1.379.236h0l-3.522,39.794h5.972l3.32-38.729Z" transform="translate(-1481.411 151.894)" fill="#515e71"/>
            <path id="Path_358" data-name="Path 358" d="M1609.595-44.909c-.023-.082-.044-.156-.072-.236a7.366,7.366,0,0,0-3.336-4.183,4.532,4.532,0,0,0-1.6-.591,2.3,2.3,0,0,0-.329-.024v.024h-11.516V-65.273a6.731,6.731,0,0,0-5.04-5.337c-.072-.026-.145-.047-.217-.066h-15.716v4.78H1587.7v15.354a6.744,6.744,0,0,0,5.04,5.332,1.174,1.174,0,0,0,.207.067h11.916v33.688h4.776V-44.7A.829.829,0,0,0,1609.595-44.909Z" transform="translate(-1457.854 186.818)" fill="#515e71"/>
          </g>
        </g>
      </g>
    </g>
    <g id="Group_7640" data-name="Group 7640" transform="translate(131.056 27.807)">
      <g id="Group_113" data-name="Group 113" transform="translate(165.341 192.69)">
        <g id="Group_107" data-name="Group 107" transform="translate(3.525 10.334)">
          <path id="Path_349" data-name="Path 349" d="M-6982.369,310.158v46.861c.009,3.99,2.675,8.544,6.329,10.244a49.883,49.883,0,0,0,20.721,4.469V310.157Z" transform="translate(6982.369 -310.157)" fill="#d9eaed"/>
          <path id="Path_350" data-name="Path 350" d="M-6924.029,310.158v61.574a49.882,49.882,0,0,0,20.527-4.469c3.655-1.7,6.321-6.253,6.328-10.244V310.158Z" transform="translate(6951.079 -310.158)" fill="#bbdde5"/>
        </g>
        <g id="Group_108" data-name="Group 108" transform="translate(5.255 7.751)" opacity="0.5">
          <path id="Path_351" data-name="Path 351" d="M-6933.256,304.588l4.868,4.229a34.716,34.716,0,0,1-12.287,13.463,25.388,25.388,0,0,1-8.422,3.267,23.6,23.6,0,0,1-8.8.017,27.719,27.719,0,0,1-15.119-8.769,38.6,38.6,0,0,1-5.618-7.947l4.869-4.235a31.4,31.4,0,0,0,4.568,6.463,22.311,22.311,0,0,0,12.162,7.064,19.688,19.688,0,0,0,13.831-2.636A28.154,28.154,0,0,0-6933.256,304.588Z" transform="translate(6978.638 -304.588)" fill="#060f1c"/>
        </g>
        <g id="Group_109" data-name="Group 109" transform="translate(3.428)">
          <path id="Path_352" data-name="Path 352" d="M-6955.626,287.87c-14.883,0-26.952,4.653-26.952,10.392,0,.057,0,.113,0,.17,0,.016,0,.031,0,.046a3.932,3.932,0,0,0,3.932,3.931h23.118V287.87Z" transform="translate(6982.578 -287.87)" fill="#0a2f4c"/>
          <path id="Path_353" data-name="Path 353" d="M-6898.751,298.432c0-.056,0-.113,0-.17,0-5.727-12.015-10.371-26.856-10.391v14.539h22.925a3.931,3.931,0,0,0,3.932-3.931h0C-6898.747,298.463-6898.751,298.448-6898.751,298.432Z" transform="translate(6952.021 -287.871)" fill="#0a2f4c"/>
        </g>
        <g id="Group_110" data-name="Group 110" transform="translate(0 9.524)">
          <rect id="Rectangle_171" data-name="Rectangle 171" width="2.95" height="3.089" transform="translate(2.348 1.409)" fill="#060f1c"/>
          <rect id="Rectangle_172" data-name="Rectangle 172" width="2.95" height="5.908" fill="#263248"/>
        </g>
        <g id="Group_111" data-name="Group 111" transform="translate(55.658 9.524)">
          <rect id="Rectangle_173" data-name="Rectangle 173" width="2.95" height="3.089" transform="translate(0 1.409)" fill="#060f1c"/>
          <rect id="Rectangle_174" data-name="Rectangle 174" width="2.95" height="5.908" transform="translate(2.348)" fill="#263248"/>
        </g>
        <g id="Group_112" data-name="Group 112" transform="translate(3.431 10.334)">
          <path id="Path_354" data-name="Path 354" d="M-6982.572,310.158v4.286h27.05v-4.286Z" transform="translate(6982.572 -310.158)" fill="#515e71"/>
          <path id="Path_355" data-name="Path 355" d="M-6897.382,310.158h-26.856v4.286h26.856Z" transform="translate(6951.286 -310.158)" fill="#515e71"/>
        </g>
      </g>
      <g id="Group_106" data-name="Group 106" transform="translate(189.525 237.959)">
        <g id="Group_104" data-name="Group 104">
          <path id="Path_345" data-name="Path 345" d="M-6923.359,385.5c-7.1,0-14.293,2.985-14.451,10.082-.16,7.261,7.354,16.565,14.451,16.652,6.221.076,9.125-2.337,11.013-5.567,1.392-2.378,2.232-4.986,4.987-4.986V385.5Z" transform="translate(6937.813 -385.503)" fill="#133054"/>
          <path id="Path_346" data-name="Path 346" d="M-6857.062,385.505h-16v16.182c2.754,0,3.6,2.609,4.986,4.986,1.888,3.23,4.792,5.643,11.013,5.567,7.1-.087,14.612-9.391,14.451-16.652C-6842.769,388.49-6849.965,385.505-6857.062,385.505Z" transform="translate(6903.084 -385.504)" fill="#1a2230"/>
        </g>
        <g id="Group_105" data-name="Group 105" transform="translate(2.643 2.641)">
          <path id="Path_347" data-name="Path 347" d="M-6848.6,393.2a16.7,16.7,0,0,0-8.464-2h-16v10.9h0c3.869,0,5.474,2.988,6.646,5.17.211.394.41.765.62,1.124,1.293,2.213,3.212,4.26,8.45,4.26h.251c2.236-.028,4.845-1.416,7.156-3.808a16.856,16.856,0,0,0,4.557-8.454,9.083,9.083,0,0,0,.131-1.691A6.255,6.255,0,0,0-6848.6,393.2Z" transform="translate(6900.442 -391.2)" fill="#bbdde5"/>
          <path id="Path_348" data-name="Path 348" d="M-6920.3,391.2a16.707,16.707,0,0,0-8.463,2,6.253,6.253,0,0,0-3.347,5.5,9.137,9.137,0,0,0,.13,1.692,16.866,16.866,0,0,0,4.557,8.453c2.311,2.392,4.919,3.781,7.156,3.808h.252c5.237,0,7.156-2.047,8.448-4.26.209-.359.41-.731.621-1.124,1.171-2.182,2.776-5.17,6.646-5.17V391.2Z" transform="translate(6932.114 -391.198)" fill="#d9eaed"/>
        </g>
      </g>
    </g>
    <g id="Group_7639" data-name="Group 7639" transform="translate(-9.444 80.935)">
      <path id="Path_333" data-name="Path 333" d="M-6207.8,938.669l-.342.48-3.651,4.641,21.647,15.473,6.7-9.566,23.829-10.833h0a3.818,3.818,0,0,0,2.3-4.625c-.577-2.126-2.8-3.505-4.451-3.058-.035.009-13.669,5.119-13.669,5.119,1.206-1.568,19.017-26.527,19.017-26.527h0a2.645,2.645,0,0,0-1-3.558,2.645,2.645,0,0,0-3.689.208h0L-6176.22,926.6l-.2-.14,15.847-22.7a2.644,2.644,0,0,0-1-3.559,2.646,2.646,0,0,0-3.691.209l-16.394,22.312-.3-.214,13.473-19.5h0v0a2.64,2.64,0,0,0-.991-3.555,2.64,2.64,0,0,0-3.684.214v0l-.011-.008-14.171,19-.32-.231,9.633-14.318h0l0,0a2.4,2.4,0,0,0-.674-3.329,2.406,2.406,0,0,0-3.369.439l0,0h0l-10.234,13.888h0c-1.355,1.636-5.392,7.31-6.128,8.477C-6200.165,926.335-6207.8,938.669-6207.8,938.669Z" transform="translate(6503.621 -661.745)" fill="#bbdde5"/>
      <path id="Path_334" data-name="Path 334" d="M-6205.678,935.59v.644l.134,3.248a3.75,3.75,0,0,1-3.593,3.9c-.051,0-.1,0-.154,0h-19.665a5.471,5.471,0,0,1-5.47-5.47c0-.017,0-.033,0-.049l.071-7.954-14.31-24.787h0a4.178,4.178,0,0,1,.891-5.58c1.864-1.526,4.717-1.34,5.9.11.025.031,8.9,13.244,8.9,13.244-.077-2.162-.051-35.688-.051-35.688h0c0-1.4,1.41-2.531,3.149-2.531s3.148,1.133,3.149,2.531h0l.623,27.561h.263l.34-30.271c0-1.4,1.41-2.532,3.15-2.532s3.148,1.134,3.148,2.532l.4,30.271h.4l.415-25.914h0v0c0-1.4,1.407-2.532,3.142-2.532s3.142,1.134,3.142,2.532v0h.017l.522,25.914h.431l.534-18.861h0v-.005a2.631,2.631,0,0,1,2.718-2.532,2.631,2.631,0,0,1,2.717,2.532v.005h0l.273,18.861h0c.165,2.317.148,9.931.062,11.436C-6204.626,919.765-6205.678,935.59-6205.678,935.59Z" transform="translate(6526.748 -645.227)" fill="#62c0d8"/>
    </g>
  </g>
</svg>
