<svg xmlns="http://www.w3.org/2000/svg" xmlns:xlink="http://www.w3.org/1999/xlink" width="281" height="246" viewBox="0 0 281 246">
  <defs>
    <clipPath id="clip-path">
      <rect id="Rectangle_798" data-name="Rectangle 798" width="281" height="246" transform="translate(22 1273)" fill="#fff"/>
    </clipPath>
    <clipPath id="clip-path-2">
      <rect id="Rectangle_811" data-name="Rectangle 811" width="192.417" height="201.89" fill="none"/>
    </clipPath>
    <clipPath id="clip-path-4">
      <rect id="Rectangle_799" data-name="Rectangle 799" width="185.124" height="47.744" fill="none"/>
    </clipPath>
    <clipPath id="clip-path-5">
      <rect id="Rectangle_800" data-name="Rectangle 800" width="81.662" height="41.882" fill="none"/>
    </clipPath>
    <clipPath id="clip-path-9">
      <rect id="Rectangle_806" data-name="Rectangle 806" width="125.981" height="18.234" fill="none"/>
    </clipPath>
    <clipPath id="clip-path-11">
      <rect id="Rectangle_808" data-name="Rectangle 808" width="73.277" height="10.606" fill="none"/>
    </clipPath>
    <clipPath id="clip-path-12">
      <rect id="Rectangle_809" data-name="Rectangle 809" width="23.639" height="5.315" fill="none"/>
    </clipPath>
    <clipPath id="clip-path-13">
      <rect id="Rectangle_2941" data-name="Rectangle 2941" width="106.7" height="337.131" fill="none"/>
    </clipPath>
    <clipPath id="clip-path-15">
      <rect id="Rectangle_2939" data-name="Rectangle 2939" width="56.352" height="212.432" transform="translate(38.281 49.478)" fill="none"/>
    </clipPath>
  </defs>
  <g id="Group_5" data-name="Group 5" transform="translate(-22 -1273)" clip-path="url(#clip-path)">
    <g id="Group_5154" data-name="Group 5154" transform="translate(2.23 1383.519)">
      <g id="Group_5156" data-name="Group 5156" transform="translate(114.586 50.863)">
        <g id="Group_307" data-name="Group 307" transform="translate(0 0)">
          <g id="Group_305" data-name="Group 305" transform="translate(13.305 7.854)">
            <g id="Group_302" data-name="Group 302" transform="translate(0)">
              <rect id="Rectangle_312" data-name="Rectangle 312" width="9.535" height="131.194" transform="translate(5.398)" fill="#c3d1d4"/>
              <rect id="Rectangle_313" data-name="Rectangle 313" width="9.535" height="131.194" transform="translate(0)" fill="#e7e7e7"/>
            </g>
            <g id="Group_303" data-name="Group 303" transform="translate(225.618)">
              <rect id="Rectangle_314" data-name="Rectangle 314" width="9.535" height="131.194" transform="translate(5.398)" fill="#c3d1d4"/>
              <rect id="Rectangle_315" data-name="Rectangle 315" width="9.535" height="131.194" transform="translate(0)" fill="#e7e7e7"/>
            </g>
            <g id="Group_304" data-name="Group 304" transform="translate(147.93)">
              <rect id="Rectangle_316" data-name="Rectangle 316" width="9.535" height="131.194" transform="translate(5.398)" fill="#c3d1d4"/>
              <rect id="Rectangle_317" data-name="Rectangle 317" width="9.535" height="131.194" transform="translate(0)" fill="#e7e7e7"/>
            </g>
          </g>
          <g id="Group_5086" data-name="Group 5086" transform="translate(90.992 7.854)">
            <rect id="Rectangle_310" data-name="Rectangle 310" width="9.535" height="131.194" transform="translate(5.398)" fill="#c3d1d4"/>
            <rect id="Rectangle_311" data-name="Rectangle 311" width="9.535" height="131.194" transform="translate(0)" fill="#e7e7e7"/>
          </g>
          <g id="Group_306" data-name="Group 306">
            <rect id="Rectangle_318" data-name="Rectangle 318" width="109.592" height="13.457" fill="#9f9f9f"/>
            <rect id="Rectangle_319" data-name="Rectangle 319" width="158.272" height="13.457" transform="translate(108.888)" fill="#c0c2bd"/>
          </g>
        </g>
      </g>
      <g id="Group_5185" data-name="Group 5185" transform="translate(0 0)">
        <g id="Group_5184" data-name="Group 5184" clip-path="url(#clip-path-2)">
          <g id="Group_5168" data-name="Group 5168" transform="translate(0 0)">
            <g id="Group_5167" data-name="Group 5167" clip-path="url(#clip-path-2)">
              <g id="Group_5160" data-name="Group 5160" transform="translate(1.787)" style="isolation: isolate">
                <g id="Group_5159" data-name="Group 5159">
                  <g id="Group_5158" data-name="Group 5158" clip-path="url(#clip-path-4)">
                    <path id="Path_4805" data-name="Path 4805" d="M186.081,39.7S146.193,1.222,101.251.486c0,0-96.61-5.027-100.3,17.26L13.113,44.8l169.449,2.947Z" transform="translate(-0.956 0)" fill="#fff"/>
                  </g>
                </g>
              </g>
              <g id="Group_5163" data-name="Group 5163" transform="translate(1.787 3.283)" opacity="0.12" style="isolation: isolate">
                <g id="Group_5162" data-name="Group 5162">
                  <g id="Group_5161" data-name="Group 5161" clip-path="url(#clip-path-5)">
                    <path id="Path_4806" data-name="Path 4806" d="M65.972,38.942S55.856-3.321,26.12,2.267C12.6,4.806,2.107,9.323.956,16.288L13.111,43.27l69.507.368Z" transform="translate(-0.956 -1.756)" fill="#3175ae"/>
                  </g>
                </g>
              </g>
              <g id="Group_5166" data-name="Group 5166" transform="translate(1.787)" opacity="0.4" style="isolation: isolate">
                <g id="Group_5165" data-name="Group 5165">
                  <g id="Group_5164" data-name="Group 5164" clip-path="url(#clip-path-4)">
                    <path id="Path_4807" data-name="Path 4807" d="M186.081,39.7S146.193,1.222,101.251.486c0,0-96.61-5.027-100.3,17.26L13.113,44.8l169.449,2.947Z" transform="translate(-0.956 0)" fill="#3175ae"/>
                  </g>
                </g>
              </g>
            </g>
          </g>
          <rect id="Rectangle_803" data-name="Rectangle 803" width="121.852" height="136.423" transform="translate(65.01 65.466)" fill="#c0c2bd"/>
          <rect id="Rectangle_804" data-name="Rectangle 804" width="66.096" height="136.423" transform="translate(0.31 65.466)" fill="#e7e7e7"/>
          <line id="Line_77" data-name="Line 77" x1="120.456" transform="translate(66.251 84.397)" fill="none" stroke="#9f9f9f" stroke-miterlimit="10" stroke-width="1"/>
          <g id="Group_5170" data-name="Group 5170" transform="translate(0 0)">
            <g id="Group_5169" data-name="Group 5169" clip-path="url(#clip-path-2)">
              <line id="Line_78" data-name="Line 78" x1="67.356" transform="translate(0 84.397)" fill="none" stroke="#c0c2bd" stroke-miterlimit="10" stroke-width="1"/>
            </g>
          </g>
          <path id="Path_4808" data-name="Path 4808" d="M.166,57.228h91.26L66.29,32.012,1.642,9.483Z" transform="translate(0.144 8.239)" fill="#a9acaa"/>
          <g id="Group_5175" data-name="Group 5175" transform="translate(0 0)">
            <g id="Group_5174" data-name="Group 5174" clip-path="url(#clip-path-2)">
              <g id="Group_5173" data-name="Group 5173" transform="translate(66.435 40.251)" style="isolation: isolate">
                <g id="Group_5172" data-name="Group 5172">
                  <g id="Group_5171" data-name="Group 5171" clip-path="url(#clip-path-9)">
                    <path id="Path_4809" data-name="Path 4809" d="M41.055,39.772H161.53l-5.506-18.234H35.55Z" transform="translate(-35.549 -21.538)" fill="#3175ae"/>
                  </g>
                </g>
              </g>
            </g>
          </g>
          <path id="Path_4810" data-name="Path 4810" d="M41.056,31.337l-5.507,6.956H156.025l5.506-6.956Z" transform="translate(30.885 27.226)" fill="#c0c2bd"/>
          <g id="Group_5183" data-name="Group 5183" transform="translate(0 0)">
            <g id="Group_5182" data-name="Group 5182" clip-path="url(#clip-path-2)">
              <g id="Group_5178" data-name="Group 5178" transform="translate(92.432 40.31)" opacity="0.78" style="isolation: isolate">
                <g id="Group_5177" data-name="Group 5177">
                  <g id="Group_5176" data-name="Group 5176" clip-path="url(#clip-path-11)">
                    <path id="Path_4811" data-name="Path 4811" d="M52.663,32.175h70.075l-3.2-10.606H49.46Z" transform="translate(-49.46 -21.57)" fill="#fff"/>
                  </g>
                </g>
              </g>
              <g id="Group_5181" data-name="Group 5181" transform="translate(133.136 42.955)" style="isolation: isolate">
                <g id="Group_5180" data-name="Group 5180">
                  <g id="Group_5179" data-name="Group 5179" clip-path="url(#clip-path-12)">
                    <path id="Path_4812" data-name="Path 4812" d="M72.846,28.3H94.879l-1.605-5.315H71.241Z" transform="translate(-71.241 -22.985)" fill="#819c35"/>
                  </g>
                </g>
              </g>
            </g>
          </g>
        </g>
      </g>
    </g>
    <g id="Group_5155" data-name="Group 5155" transform="translate(926.49 985.656)">
      <g id="Group_5110" data-name="Group 5110" transform="translate(0 0)">
        <rect id="Rectangle_762" data-name="Rectangle 762" width="42" height="77" transform="translate(16.51 0.344)" fill="#fff"/>
        <rect id="Rectangle_763" data-name="Rectangle 763" width="17" height="77" transform="translate(-0.49 0.344)" fill="#f4f4f4"/>
        <rect id="Rectangle_765" data-name="Rectangle 765" width="16" height="77" transform="translate(58.51 0.344)" fill="#f4f4f4"/>
        <rect id="Rectangle_764" data-name="Rectangle 764" width="43" height="77" transform="translate(60.51 0.344)" fill="#fff"/>
        <rect id="Rectangle_766" data-name="Rectangle 766" width="2" height="15" transform="translate(52.51 48.344)" fill="#f4f4f4"/>
        <rect id="Rectangle_767" data-name="Rectangle 767" width="3" height="15" transform="translate(64.51 48.344)" fill="#f4f4f4"/>
      </g>
      <rect id="Rectangle_768" data-name="Rectangle 768" width="42" height="77" transform="translate(16.51 0.344)" fill="#fff"/>
      <rect id="Rectangle_769" data-name="Rectangle 769" width="17" height="77" transform="translate(-0.49 0.344)" fill="#f4f4f4"/>
      <rect id="Rectangle_770" data-name="Rectangle 770" width="2" height="15" transform="translate(52.51 48.344)" fill="#f4f4f4"/>
    </g>
    <g id="Group_8654" data-name="Group 8654" transform="translate(159.188 1267.103)">
      <g id="Group_8653" data-name="Group 8653" clip-path="url(#clip-path-13)">
        <g id="Group_8652" data-name="Group 8652">
          <g id="Group_8651" data-name="Group 8651" clip-path="url(#clip-path-13)">
            <path id="Path_8805" data-name="Path 8805" d="M36.478,107.748c-.7-14.371,2.755-31.078,9.8-39.552a7.372,7.372,0,0,0-2.131,7.173h4.13c9.651,19.86.348,57.135-25.924,76.43-3.448,2.532-4.18-.043-10.063,1.458,0,0,24.882-31.137,24.188-45.509" fill="#f18a71"/>
            <path id="Path_8806" data-name="Path 8806" d="M71.5,317.813H61.015c.353,9.777,1.114,6.138,0,7.787,6.774-.05,3.5,3.08,12.312,3.782C72.139,326.6,71.5,317.813,71.5,317.813" fill="#5d7a7f"/>
            <path id="Path_8807" data-name="Path 8807" d="M73.325,329.382c-8.812-.7-5.537-3.832-12.312-3.782-1.115,1.649-16.826,5.8-14.875,11.531H76.665s.859-3.588-3.34-7.749" fill="#5b515b"/>
            <path id="Path_8808" data-name="Path 8808" d="M47.884,132.475v17.318c-1.344,23.164-1.535,53.536.333,76.025.714,8.591.026,18.2,2.2,22.624,7.734,15.767,9.222,69.37,9.222,69.37h8.374l.215-185.337Z" fill="#005563"/>
            <path id="Path_8809" data-name="Path 8809" d="M94.374,144.867s5.346,5.261-.6,25.231-10.783,67.176-11.3,69.76-.47,4.667,1.647,21.791c1.773,14.345-.913,39.884-.913,56.164H65.256s-2.119-48.586-4.959-69,.224-84.312.829-92.764c0,0,3.533,5.919,3.789-8.425Z" fill="#02979b"/>
            <path id="Path_8810" data-name="Path 8810" d="M79.3,328.353c.887,4.323,3.274,3.406,4.64,1.2-.1-.267-.219-.534-.345-.805-2.082-4.425-4.517,1.192-4.517-10.929H69.386a44.182,44.182,0,0,1,1.454,6.218c.916-2.871,7.018-2.713,8.459,4.316" fill="#9eafb2"/>
            <path id="Path_8811" data-name="Path 8811" d="M79.3,328.353c-1.443-7.029-7.4-7.187-8.461-4.322-1.454,3.508-10.349,5.623-13.665,8.616s-2.821,4.484-2.821,4.484H84.592a13.1,13.1,0,0,0-.651-7.584c-1.366,2.212-3.753,3.129-4.64-1.194" fill="#514450"/>
            <path id="Path_8812" data-name="Path 8812" d="M41.143,71.143c2.408-8.433,17.592-17.654,25.149-22.1,0,0,18.652,1.448,25.448,11.174s-7.628,49.913-7.351,63.672,17.335,29.832,9.982,42.316c-21.224,3.091-19.126,1.83-34.233,3.573-6,.691-11.184,5.184-13.73-.8a20.043,20.043,0,0,1-.761-12.394c1.474-5.962,3.492-20.121-3.487-39.225-5.332-14.594-8.98-18.34-1.017-46.216" fill="#fff"/>
            <path id="Path_8813" data-name="Path 8813" d="M82.388,66.485c1.6,18.692-6,30.8-5.18,39.525s9.84,21.731.423,31.992l-6.5,30.757s13.687-.6,24.628-1.863c6.774-22.029-11.082-49.971-11.359-60.511-.2-7.431,6.906-24.917,8.739-37.2Z" fill="#e4e8ef"/>
            <path id="Path_8814" data-name="Path 8814" d="M45.869,64.024c-7.852,7.731-8.839,24.421-9.58,38.791l-.408,3.178,5.633,2.13s7.366,9.174,9.588,2.945-5.233-47.044-5.233-47.044" fill="#fff"/>
            <path id="Path_8815" data-name="Path 8815" d="M42.214,104.967s6.667,12.328,8.889,6.1c1.627-4.561-1.934-27.662-3.958-39.707-2.412,7.994-2.676,20.238-4.931,33.607" fill="#e4e8ef"/>
            <path id="Path_8816" data-name="Path 8816" d="M7.034,153.89c-3.349,3.024-7.919,8.794-6.885,9.726s2.027-.877,2.952-1.908,2.378-2.421,3-3.112.933-4.706.933-4.706" fill="#d6684b"/>
            <path id="Path_8817" data-name="Path 8817" d="M5.384,163.159a7.048,7.048,0,0,1,.061-2.82c-1.3-.266-2.312-.617-2.46-1.144C2.576,157.73,7.4,153.7,8.9,152.018s7.238-3.449,8.532-3.665,4.914,3.446,4.914,3.446a48.9,48.9,0,0,0-4.243,4.885c-1.384,1.972-4.868,5.43-6.639,4.944a17.907,17.907,0,0,0-3.552-.906,6.816,6.816,0,0,1-2.533,2.437" fill="#d6684b"/>
            <path id="Path_8818" data-name="Path 8818" d="M16.622,146.2c-1.124.789-6.484,3.793-7.341,4.729s-1.813,8.187-.717,8.022c1.019-.15,1.351-1.2,1.663-2.429s.822-4.11,2.052-3.793,6.844.3,8.891-2.73,1.1-4.31,1.1-4.31l-2.516-2.321Z" fill="#f18a71"/>
            <path id="Path_8819" data-name="Path 8819" d="M12.713,161.5c.245-.881,2.1-5.6.751-6.256s-3.37,5.567-2.741,6.4,1.99-.144,1.99-.144" fill="#f18a71"/>
            <path id="Path_8820" data-name="Path 8820" d="M10.372,161.992a18.208,18.208,0,0,0,1.291-6.12c0-1.963-1.462-2.14-2.725,1.42s-1.57,4.647-.48,5.156c1.451.683,1.914-.456,1.914-.456" fill="#f18a71"/>
            <path id="Path_8821" data-name="Path 8821" d="M3.686,163.037c.238-1.656,1.521-5.6,2.174-6.007S7.217,156.665,7,158s-.477,4.3-1.507,5.1-1.887.512-1.8-.065" fill="#f18a71"/>
            <path id="Path_8822" data-name="Path 8822" d="M17.257,35.848a4.534,4.534,0,0,1-.478-5.651,16.811,16.811,0,0,0,1.93-2.415c.939-2.033-.527-4.921,1.114-6.446.772-.719,1.932-.775,2.9-1.181,1.6-.664,2.6-2.213,3.744-3.512a13.916,13.916,0,0,1,6.55-4.267,11.1,11.1,0,0,1,7.734.542,41.131,41.131,0,0,0,4.356,2.3c2.663.889,5.7.058,8.308,1.11a6.248,6.248,0,0,1,3.8,5.8c-.064,2.448-1.592,4.713-1.488,7.16.167,3.939,4.429,6.861,4.4,10.8-.01,1.459-.907,3.083-2.36,3.212-1.162.1-2.162-.75-3.252-1.165-2.054-.781-4.38.051-6.232,1.236s-3.486,2.736-5.5,3.609a9.425,9.425,0,0,1-7.242.061c-3.789-1.563-6.029-5.249-9-7.869a6.84,6.84,0,0,0-3.958-2.036c-1.9-.175-3.819.214-5.326-1.288" fill="#382632"/>
            <path id="Path_8823" data-name="Path 8823" d="M44.706,55.288c2.255-1.933,9.643,14.936,9.643,14.936a52.615,52.615,0,0,1,6.773-13.912c4.68-6.651,5.171-7.267,5.171-7.267s-10.343-6.4-13.914-16.5c0,0-2.458-3.818-5.662,1.908Z" fill="#f18a71"/>
            <path id="Path_8824" data-name="Path 8824" d="M66.294,49.045s-10.343-6.4-13.914-16.5c0,0-2.458-3.818-5.662,1.908L44.707,55.287c1.147-.983,3.623,2.9,5.777,6.952,1.666-6.946.021-15.7,1.032-17.381.783-1.3,6.6,6.351,9.949,10.966,4.349-6.178,4.829-6.779,4.829-6.779" fill="#d6684b"/>
            <path id="Path_8825" data-name="Path 8825" d="M22.826,37.717c4.86,9.971,15.762,19.825,20.44,18.47s4.926-14.407,4.187-16.254,1.477.862,3.078-.37,1.231-5.418-.986-7.88c0,0-1.6-.247-3.447,4.063s-5.049,5.049-5.787,2.832-1.355-3.941-4.433-3.941-4.8-3.817-4.8-3.817-3.2,3.57-5.54,1.846-4.1,2.209-2.712,5.051" fill="#f18a71"/>
            <path id="Path_8826" data-name="Path 8826" d="M55.655,12.834c-1.147,4.619-6.488,5.532-12.032,4.155s-9.192-4.522-8.045-9.141,6.656-8.966,12.2-7.589S56.8,8.211,55.655,12.834" fill="#382632"/>
            <g id="Group_8650" data-name="Group 8650" opacity="0.8">
              <g id="Group_8649" data-name="Group 8649">
                <g id="Group_8648" data-name="Group 8648" clip-path="url(#clip-path-15)">
                  <path id="Path_8827" data-name="Path 8827" d="M47.441,62.009s5.322,37.733,24.245-12.531c0,0,5.618,1,7.687,2.478,0,0-25.906,39.916,9.575,48.786l-3.07,11.826s11.685,22.176-1.4,66.526c-1.963,8.01-5.515,57.328-5.107,64.047s-25.762,3.834-31.156,4.677c-3.733.583-3.141-1.782-3.141-1.782s-3.548-52.75-2.661-66.942c.54-8.652-2.047-15.17-.887-32.819.2-3.036-.984-15.972-.887-18.627.264-7.231-.79-17.43-1.774-19.219-3.253-5.913,8.278-26.314,4.73-42.576Z" fill="#b3e1ed"/>
                </g>
              </g>
            </g>
            <path id="Path_8828" data-name="Path 8828" d="M86.341,55.887C93.987,59.865,97.294,66.412,102,83.274s4.7,16.552,4.7,18.317c0,8.9-19.08,35.906-19.08,35.906H81.3s3.117-8.893,6.321-18.908c4.1-12.82,7.315-11.7,7.12-14.016S82.307,87.9,80.963,76.722c-1.41-11.723.876-23.178,5.378-20.835" fill="#f18a71"/>
            <path id="Path_8829" data-name="Path 8829" d="M86.426,54.51C94.761,58.488,98.285,66.1,102,83.274c.226,1.045-9.009-3.792-14.79,10.091-4.18-6.6-8.863-14.747-9.653-20.772-1.537-11.725,3.961-20.427,8.87-18.083" fill="#fff"/>
            <path id="Path_8830" data-name="Path 8830" d="M80.312,141.9a19.007,19.007,0,1,1-18.5,19,18.755,18.755,0,0,1,18.5-19" fill="#c0c2bd"/>
            <path id="Path_8831" data-name="Path 8831" d="M80.312,147.9a13.009,13.009,0,1,1-13.5,13,13.257,13.257,0,0,1,13.5-13" fill="#a9acaa"/>
            <path id="Path_8832" data-name="Path 8832" d="M81.3,136.313c-.61,1.5-3.3,1.314-3.891,2.756-1.444,3.5-4.626,3.141-4.23,4.8a.351.351,0,0,0,.411.278.372.372,0,0,0,.065-.019,14.721,14.721,0,0,1,5.856-1.086,1.177,1.177,0,0,1,1.2,1.154v12.863a2.366,2.366,0,0,0,1.84-1.5c1.195-2.879,1.361-5.547,3.285-8.28,1.466-2.082,1.784-10.958,1.784-10.958Z" fill="#f18a71"/>
          </g>
        </g>
      </g>
    </g>
  </g>
</svg>
