<svg xmlns="http://www.w3.org/2000/svg" xmlns:xlink="http://www.w3.org/1999/xlink" width="199.595" height="213.968" viewBox="0 0 199.595 213.968">
  <defs>
    <clipPath id="clip-path">
      <circle id="Ellipse_285" data-name="Ellipse 285" cx="99.798" cy="99.798" r="99.798" transform="translate(0 0)" fill="#fff"/>
    </clipPath>
  </defs>
  <g id="Group_1823" data-name="Group 1823" transform="translate(0)">
    <g id="Mask_Group_1" data-name="Mask Group 1" transform="translate(0 14.373)" clip-path="url(#clip-path)">
      <rect id="Rectangle_730" data-name="Rectangle 730" width="199.595" height="199.595" transform="translate(0 0)" fill="#fff"/>
      <g id="Group_1816" data-name="Group 1816" transform="translate(82.532 57.351)">
        <g id="Group_1573" data-name="Group 1573" transform="translate(0 0)">
          <path id="Path_1831" data-name="Path 1831" d="M264.042,542.2H345.4a5.086,5.086,0,0,0,4.984-4.543l5.469-61.675a4.107,4.107,0,0,0-4.177-4.543H270.318a5.086,5.086,0,0,0-4.984,4.543l-5.47,61.675A4.108,4.108,0,0,0,264.042,542.2Z" transform="translate(-256.707 -471.442)" fill="#716558"/>
          <path id="Path_1832" data-name="Path 1832" d="M269.236,542.2H350.6a5.085,5.085,0,0,0,4.983-4.543l5.47-61.675a4.107,4.107,0,0,0-4.178-4.543H275.512a5.086,5.086,0,0,0-4.984,4.543l-5.469,61.675A4.107,4.107,0,0,0,269.236,542.2Z" transform="translate(-265.041 -471.442)" fill="#4f443a"/>
          <path id="Path_1833" data-name="Path 1833" d="M354.568,541.1H268.616l5.753-64.371H360.32Z" transform="translate(-266.455 -473.533)" fill="#bbdde5"/>
          <g id="Group_1525" data-name="Group 1525" transform="translate(6.35 7.132)" opacity="0.468">
            <path id="Path_1888" data-name="Path 1888" d="M6147,6850.43h25.405l.312-3.557h-25.405Z" transform="translate(-6090.687 -6828.391)" fill="#fff"/>
            <path id="Path_1890" data-name="Path 1890" d="M6145.591,6839.574h79.986l.771-8.829h-79.985Z" transform="translate(-6142.701 -6830.745)" fill="#fff"/>
            <path id="Path_1891" data-name="Path 1891" d="M6147.507,6856.193h25.405l.312-3.556h-25.406Z" transform="translate(-6091.771 -6827.55)" fill="#fff"/>
            <path id="Path_1892" data-name="Path 1892" d="M6213.954,6867.892h4.881l.427-4.881h-4.881Z" transform="translate(-6213.954 -6826.036)" fill="#fff"/>
            <path id="Path_1893" data-name="Path 1893" d="M6207.694,6867.892h4.881l.427-4.881h-4.882Z" transform="translate(-6200.522 -6826.036)" fill="#fff"/>
            <path id="Path_1894" data-name="Path 1894" d="M6148.012,6861.958h25.406l.311-3.557h-25.406Z" transform="translate(-6092.853 -6826.708)" fill="#fff"/>
            <path id="Path_1895" data-name="Path 1895" d="M6148.516,6867.724h25.405l.311-3.558h-25.406Z" transform="translate(-6093.936 -6825.868)" fill="#fff"/>
            <path id="Path_1896" data-name="Path 1896" d="M6200.694,6867.892h4.88l.427-4.881h-4.881Z" transform="translate(-6185.5 -6826.036)" fill="#fff"/>
          </g>
        </g>
      </g>
      <rect id="Rectangle_729" data-name="Rectangle 729" width="136.467" height="12.069" transform="translate(53.844 149.464)" fill="#2d3743"/>
      <g id="Group_1817" data-name="Group 1817" transform="translate(82.532 142.002)">
        <path id="Path_1834" data-name="Path 1834" d="M510.225,629.523V634.5H413.245v-1.68a2.461,2.461,0,0,1,2.2-2.461l34.588-3.321h57.752A2.459,2.459,0,0,1,510.225,629.523Z" transform="translate(-413.245 -627.042)" fill="#4f443a"/>
        <path id="Path_1835" data-name="Path 1835" d="M448.81,629.523V634.5H413.245v-1.68a2.336,2.336,0,0,1,1.87-2.461l29.37-3.321h2.255A2.3,2.3,0,0,1,448.81,629.523Z" transform="translate(-351.83 -627.042)" fill="#716558"/>
      </g>
      <g id="Group_1814" data-name="Group 1814" transform="translate(-5.647 -14.373)">
        <g id="Group_179" data-name="Group 179" transform="translate(33.266 187.944)">
          <g id="Group_178" data-name="Group 178" transform="translate(40.182 141.53)">
            <path id="Path_535" data-name="Path 535" d="M502.069,533.015a60.435,60.435,0,0,1-5.177,9.752l15.383,2.434s4.673-11.559,4.772-10.857S502.069,533.015,502.069,533.015Z" transform="translate(-491.992 -533.015)" fill="#a5a7aa"/>
            <path id="Path_536" data-name="Path 536" d="M510.73,540.116c-4.86-3.178-9.736-5.982-14.324,1.331-4.894,7.8-.9,14.312,2.395,17.456h18.891Z" transform="translate(-494.12 -530.089)" fill="#2d1f29"/>
            <path id="Path_537" data-name="Path 537" d="M496.768,549.318l1.071,1.949a1.977,1.977,0,0,0,1.73,1.023h17.575l-1.485-2.973Z" transform="translate(-492.087 -520.505)" fill="#2d1f29"/>
          </g>
          <path id="Path_538" data-name="Path 538" d="M500.726,452.935c20.92.014,61.25,10.956,68.733,12.384s18.66,14.27,6.149,36.745S538.44,598.7,538.44,598.7l-16.8-4.238s8.365-17.175,8.476-49.949c.069-20.035,2.444-28.872,16.6-45.663l-75.332,3.065Z" transform="translate(-471.384 -452.935)" fill="#2a2b4e"/>
        </g>
        <g id="Group_185" data-name="Group 185">
          <g id="Group_181" data-name="Group 181" transform="translate(39.656)">
            <g id="Group_180" data-name="Group 180" transform="translate(0 18.268)">
              <path id="Path_539" data-name="Path 539" d="M512.552,408.463c-1.516-.488-5.763-3.841-5.763-3.841l-3.731,3.287s-8.8-1.529-23.66-11.373l24.167-39.607,24.665,9.844Z" transform="translate(-471.625 -356.93)" fill="#f18a71"/>
              <path id="Path_540" data-name="Path 540" d="M511.708,408.463c-1.516-.488-5.763-3.841-5.763-3.841L494.1,415.971s1.256-1.817-13.6-11.661l22.223-47.379,24.666,9.844Z" transform="translate(-470.781 -356.93)" fill="#f18a71"/>
              <path id="Path_541" data-name="Path 541" d="M504.948,386.346c-2.321-1.622-12.458.474-14.4,16.021-3.091-2.649-11.451.769-15.547-1.944l31.94-43.493,24.665,9.844-15.678,41.689c-1.516-.488-5.763-3.841-5.763-3.841C507.311,402.578,509.485,389.515,504.948,386.346Z" transform="translate(-475 -356.93)" fill="#d6684b"/>
            </g>
            <path id="Path_542" data-name="Path 542" d="M536.7,384.137c10.468-8.117,6.917-19.068-3.107-23.011s-12.531-17.3-22.972-14.017-18.168,1.532-19.84,15.113-8.771,20.588-6.474,23.654,9.174,3.192,13.992-3.111c6.265-8.2,12.739-4.228,12.948,5.793s9.607,12.868,11.9,10.019S536.7,384.137,536.7,384.137Z" transform="translate(-468.206 -346.594)" fill="#9b5221"/>
            <path id="Path_543" data-name="Path 543" d="M528.763,371.115c-3.567,23.382-21.8,36.261-28.336,31.7s.6-24.176-3.962-23.978-2.437-7.183.173-11.709c2.559-4.436,8.743-5.926,7.356,2.594s1.585,10.5,2.775,10.3,6.539-4.756,11.493-5.944,3.963-10.3,6.737-8.918S528.763,371.115,528.763,371.115Z" transform="translate(-460.576 -333.572)" fill="#f18a71"/>
          </g>
          <path id="Path_544" data-name="Path 544" d="M510.219,534.744c-5.684,6.97-9.275,8.612-7.621,19.89l26.36-15.054Z" transform="translate(-414.477 -202.214)" fill="#b6babf"/>
          <path id="Path_545" data-name="Path 545" d="M612.664,471.326c-11.928-8.271-77.937-7.317-85.73-10.5S516.1,460.1,516.1,460.1l-1.836-7.165-60.52,14.443L455.2,475.3c-.636,34.038,24.812,29.425,36.9,29.425h92.253c-7,5.09-9.238,8.4-14.892,33.594s-22.064,59.2-22.064,59.2l18.739,4.836s47-84.427,52.254-93.653S624.594,479.6,612.664,471.326Z" transform="translate(-451.655 -264.991)" fill="#40436f"/>
          <g id="Group_182" data-name="Group 182" transform="translate(87.495 336.903)">
            <path id="Path_546" data-name="Path 546" d="M529.054,537.681s10.019,5.551,15.427,9.535,19.012,2.563,20.323,11.387H504.631s-5.733-11.85-.049-18.819c0,0,7.58,5.724,13.351,3.163S521.523,535.739,529.054,537.681Z" transform="translate(-502.068 -537.219)" fill="#382632"/>
            <path id="Path_547" data-name="Path 547" d="M503.518,549.318l.969,1.9a1.976,1.976,0,0,0,1.76,1.076h55.469a1.976,1.976,0,0,0,1.976-1.976v-1Z" transform="translate(-500.955 -527.934)" fill="#382632"/>
          </g>
          <g id="Group_184" data-name="Group 184" transform="translate(0 59.715)">
            <path id="Path_549" data-name="Path 549" d="M530.927,402.911c19.324,35.777-22.882,99.207-18.412,124.309-10.58,5.569-15.779-8.729-41.959,31.18,0,0-27.942-85.676-14.187-132.786s42.675-45.223,42.675-45.223A44.113,44.113,0,0,1,530.927,402.911Z" transform="translate(-452.562 -380.381)" fill="#02979b"/>
            <path id="Path_550" data-name="Path 550" d="M493.762,524.117c-4.065-14.1.078-32.645-2.4-46.837C488.331,459.959,477,423.015,477,423.015c5.028-10.45,29.686-27.12,21.305-38.59a43.974,43.974,0,0,1,13.869,15.383c13.736,24.92-15.524,92.871-13.633,120.211a3.5,3.5,0,0,1-2.709,3.606Z" transform="translate(-433.809 -377.278)" fill="#056f7a"/>
            <g id="Group_183" data-name="Group 183" transform="translate(42.231 14.564)">
              <path id="Path_551" data-name="Path 551" d="M530.869,432.576c5.6-5.042,41.589,6.812,21.733,14.582h-27.72Z" transform="translate(-437.937 -355.525)" fill="#f18a71"/>
              <path id="Path_1907" data-name="Path 1907" d="M87.727,68.043S58.278,65.2,54.116,66.667,46.453,32.83,42.622,28.055c-1.24-1.545-23.948,7.536-24.711,8.075L32.777,73.173s2.489,9.1,8.282,9.531,41.1,0,41.1,0Z" transform="translate(5.793 9.018)" fill="#f18a71"/>
              <path id="Path_552" data-name="Path 552" d="M477.548,418.038c-4.941-11.251,7.61-32.049,23.472-29.14s24.748,38.328,25.474,38.287c0,0-25.036,12.212-24.864,12.56S494.509,421.552,477.548,418.038Z" transform="translate(-476.457 -388.622)" fill="#02979b"/>
            </g>
          </g>
        </g>
      </g>
      <g id="Group_1815" data-name="Group 1815" transform="translate(-92.747 98.325)">
        <g id="Group_187" data-name="Group 187" transform="translate(68.049 144.316)">
          <rect id="Rectangle_213" data-name="Rectangle 213" width="87.166" height="16.491" transform="translate(13.546)" fill="#515e71"/>
          <path id="Path_553" data-name="Path 553" d="M513.638,589.1h4.123l-14.135-87.755H492.435Z" transform="translate(-402.914 -484.856)" fill="#515e71"/>
          <path id="Path_554" data-name="Path 554" d="M441.783,589.1h4.123l21.2-87.755h-11.19Z" transform="translate(-441.783 -484.856)" fill="#515e71"/>
        </g>
        <g id="Group_188" data-name="Group 188" transform="translate(25.644 144.316)">
          <rect id="Rectangle_214" data-name="Rectangle 214" width="87.166" height="16.491" transform="translate(13.546)" fill="#0a2f4c"/>
          <path id="Path_555" data-name="Path 555" d="M489.644,589.1h4.123l-14.135-87.755h-11.19Z" transform="translate(-378.92 -484.856)" fill="#0a2f4c"/>
          <path id="Path_556" data-name="Path 556" d="M417.789,589.1h4.123l21.2-87.755h-11.19Z" transform="translate(-417.789 -484.856)" fill="#0a2f4c"/>
        </g>
        <path id="Path_557" data-name="Path 557" d="M446.781,481.9v17.877H552.254" transform="translate(-369.898 -355.462)" fill="#fffad2"/>
        <path id="Path_558" data-name="Path 558" d="M440.827,547.61l82.454-3.535L489.721,428.4a23.043,23.043,0,0,0-23.181-18.034l-32.617.974A23.044,23.044,0,0,0,412.016,438.9Z" transform="translate(-396.925 -410.36)" fill="#fffad2"/>
        <path id="Path_559" data-name="Path 559" d="M432.546,547.61,515,544.075,481.44,428.4a23.043,23.043,0,0,0-23.181-18.034l-32.617.974A23.044,23.044,0,0,0,403.735,438.9Z" transform="translate(-403.28 -410.36)" fill="#d6ce95"/>
        <path id="Path_560" data-name="Path 560" d="M418.789,499.778l154.523-.173a3.5,3.5,0,0,0,3.46-4.243,17.707,17.707,0,0,0-17.189-13.46H418.789Z" transform="translate(-391.378 -355.462)" fill="#d6ce95"/>
      </g>
    </g>
    <path id="Path_2812" data-name="Path 2812" d="M536.7,384.137c10.468-8.117,6.917-19.068-3.107-23.011s-12.531-17.3-22.972-14.017-18.168,1.532-19.84,15.113-8.771,20.588-6.474,23.654,9.174,3.192,13.992-3.111c6.265-8.2,12.739-4.228,12.948,5.793s9.607,12.868,11.9,10.019S536.7,384.137,536.7,384.137Z" transform="translate(-434.197 -346.594)" fill="#9b5221"/>
    <path id="Path_2813" data-name="Path 2813" d="M528.763,371.115c-3.567,23.382-21.8,36.261-28.336,31.7s.6-24.176-3.962-23.978-2.437-7.183.173-11.709c2.559-4.436,8.743-5.926,7.356,2.594s1.585,10.5,2.775,10.3,6.539-4.756,11.493-5.944,3.963-10.3,6.737-8.918S528.763,371.115,528.763,371.115Z" transform="translate(-426.567 -333.573)" fill="#f18a71"/>
  </g>
</svg>
