<svg xmlns="http://www.w3.org/2000/svg" xmlns:xlink="http://www.w3.org/1999/xlink" width="412.064" height="389.052" viewBox="0 0 412.064 389.052">
  <defs>
    <clipPath id="clip-path">
      <circle id="Ellipse_46" data-name="Ellipse 46" cx="93" cy="93" r="93" transform="translate(-0.488 -0.488)" fill="none"/>
    </clipPath>
    <clipPath id="clip-path-2">
      <path id="Path_4912" data-name="Path 4912" d="M0,97.088c0,53.62,43.6,97.088,97.377,97.088s97.377-43.468,97.377-97.088S151.157,0,97.377,0,0,43.468,0,97.088" transform="translate(27.024 0) rotate(8)" fill="none"/>
    </clipPath>
    <clipPath id="clip-path-3">
      <rect id="Rectangle_1939" data-name="Rectangle 1939" width="65.085" height="70.109" fill="none"/>
    </clipPath>
    <clipPath id="clip-path-5">
      <rect id="Rectangle_1936" data-name="Rectangle 1936" width="23.983" height="33.639" fill="none"/>
    </clipPath>
    <clipPath id="clip-path-6">
      <rect id="Rectangle_1937" data-name="Rectangle 1937" width="10.567" height="20.212" fill="none"/>
    </clipPath>
    <clipPath id="clip-path-7">
      <rect id="Rectangle_1813" data-name="Rectangle 1813" width="37.411" height="93.492" transform="translate(0 0)" fill="none"/>
    </clipPath>
    <clipPath id="clip-path-8">
      <path id="Path_5652" data-name="Path 5652" d="M1.056,86.542A86.542,86.542,0,1,0,87.6,0,86.541,86.541,0,0,0,1.056,86.542" transform="translate(-1.056)" fill="none"/>
    </clipPath>
    <clipPath id="clip-path-9">
      <rect id="Rectangle_1345" data-name="Rectangle 1345" width="200.341" height="84.679" fill="none"/>
    </clipPath>
  </defs>
  <g id="Group_8311" data-name="Group 8311" transform="translate(-125 -205.474)">
    <g id="Group_7619" data-name="Group 7619" transform="translate(125 205.385)">
      <g id="Group_6466" data-name="Group 6466" transform="translate(-171.211 -130.211)">
        <g id="Group_1824" data-name="Group 1824" transform="translate(213.699 149.699)">
          <circle id="Ellipse_46-2" data-name="Ellipse 46" cx="93" cy="93" r="93" transform="translate(-0.488 -0.488)" fill="#f5f2ed"/>
          <g id="Group_484" data-name="Group 484" transform="translate(0 0)">
            <g id="Group_483" data-name="Group 483" clip-path="url(#clip-path)">
              <g id="Group_480" data-name="Group 480" transform="translate(22.655 17.528)">
                <rect id="Rectangle_453" data-name="Rectangle 453" width="3.564" height="18.852" transform="translate(30.722 12.007)" fill="#f3c8cf"/>
                <rect id="Rectangle_454" data-name="Rectangle 454" width="4.814" height="18.852" transform="translate(34.287 12.007)" fill="#fff"/>
                <path id="Path_1101" data-name="Path 1101" d="M-1680.881,896.737a.914.914,0,0,0-.914.914v12.633a.915.915,0,0,0,.914.914h2.483V896.737Z" transform="translate(1705.009 -876.911)" fill="#f3c8cf"/>
                <path id="Path_1102" data-name="Path 1102" d="M-1659,896.737h-19.083V911.2H-1659a.915.915,0,0,0,.914-.914V897.651A.914.914,0,0,0-1659,896.737Z" transform="translate(1704.69 -876.911)" fill="#fff"/>
                <path id="Path_1103" data-name="Path 1103" d="M-1637.365,953.814a34.91,34.91,0,0,0-35.089-34.734,34.911,34.911,0,0,0-34.735,34.734v96.316a4.161,4.161,0,0,0,4.161,4.161h61.5a4.162,4.162,0,0,0,4.161-4.161h0Z" transform="translate(1707.188 -878.828)" fill="#fff"/>
                <path id="Rectangle_455" data-name="Rectangle 455" d="M-1682.683,902.486h24.571a2.607,2.607,0,0,1,2.607,2.607h0v13.2a2.606,2.606,0,0,1-2.606,2.606h-24.571a2.607,2.607,0,0,1-2.607-2.607v-13.2A2.606,2.606,0,0,1-1682.683,902.486Z" transform="translate(1705.309 -877.404)" fill="#e01d23"/>
                <path id="Path_1104" data-name="Path 1104" d="M-1627.355,882.537c-1.453-1.936-6.344-4.979-6.344-4.979-10.148-5.119-29.754-.83-33.351-.76s-11.341-1.591-11.341-1.591-3.108-.138-3.108,1.8a1.611,1.611,0,0,0,1.409,1.792,1.629,1.629,0,0,0,.32.006,2.778,2.778,0,0,1,2.628,2.7,3.966,3.966,0,0,0,3.045,3.251v2.619h9.063V884.8a19.394,19.394,0,0,1,16.73-7.458c10.393.762,10.408.335,19.131,6.8A3.3,3.3,0,0,0-1627.355,882.537Z" transform="translate(1704.985 -875.05)" fill="#e01d23"/>
              </g>
              <g id="Group_485" data-name="Group 485" transform="translate(81.544 26.66)">
                <g id="Group_484-2" data-name="Group 484" transform="translate(0 0)">
                  <g id="Group_483-2" data-name="Group 483" transform="translate(0.009)">
                    <path id="Path_1105" data-name="Path 1105" d="M-1557.431,895.123a71.2,71.2,0,0,0-12.693-1.162,43.507,43.507,0,0,0-10.179,1.985c-5.558,1.778-8.393,3.59-14.451,4.121s-9.233.644-12.5,1.755-7.02,1.71-6.7,5.224,2.918,5.562,6.365,5.668a45.927,45.927,0,0,0,11.133-1.62c1.823-.583,4.937-.909,5.588-.114s1.586,2.238,1.586,2.238,9.408-4.082,11.153-4.907,10.925-6.04,13.694-8.266S-1557.431,895.123-1557.431,895.123Z" transform="translate(1640.29 -885.804)" fill="#db9d7d"/>
                    <path id="Path_1106" data-name="Path 1106" d="M-1515.75,914.731l-35.964,1.865s-19.91,11.861-29,16.108-13.8,7.094-18.564,7.279c0,0-19.521-2-24.292-6.022-4.892-4.123-13.228-13.713-14.4-16.551s-4.727-12.684-4.727-12.684-.678-1.49,2.4-2.323c0,0,.868-2.337,4.228-1.671s5.319,2.182,6.483,9.376L-1627.7,902a4.278,4.278,0,0,1,4.22-.413c2.53,1,2.855,4.109,2.877,5.642a26.084,26.084,0,0,1-.866,4.831s5.146,3.108,7.746,6.628c0,0,5.608-1.727,9.566-.449a16,16,0,0,1,10.365-4.856s7.729-5.353,11.986-7.116,7.7-6.08,13.5-8.873,12.606-4.971,17.149-3.748,35.28-8.61,35.28-8.61Z" transform="translate(1642.761 -885.038)" fill="#f0ae8c"/>
                  </g>
                  <path id="Path_1107" data-name="Path 1107" d="M-1626.692,904.057c.15-.723.723-1.153,1.27-.656l.018.017c.471.446-.358,3.959-.75,5.5a1.307,1.307,0,0,1-.244.431,1,1,0,0,1-1.346.417.975.975,0,0,1-.108-.067h0Z" transform="translate(1641.491 -886.595)" fill="#e0bdaf"/>
                  <path id="Path_1108" data-name="Path 1108" d="M-1640.685,904.154s1.236,5.641,1.427,6.468,1.829,9.489,1.829,9.489l-1.176-2.656-3.054-8.218-1.042-2.871a1.014,1.014,0,0,1,.024-.794,2.641,2.641,0,0,1,.962-1A7.967,7.967,0,0,1-1640.685,904.154Z" transform="translate(1642.771 -886.678)" fill="#db9d7d"/>
                  <path id="Path_1109" data-name="Path 1109" d="M-1640.526,904.264l1.385,5.529s.223.569.526-.578c.162-.615-1.069-5.412-1.069-5.412a.549.549,0,0,0-.757.17A.55.55,0,0,0-1640.526,904.264Z" transform="translate(1642.578 -886.641)" fill="#e0bdaf"/>
                  <path id="Path_1110" data-name="Path 1110" d="M-1628.685,911.986s-.937,5.5-.937,6.389,12.355,12.737,12.355,12.737-9.936-7.26-12.355-9.552-2.293-1.911-2.548-6.5S-1630.163,901.086-1628.685,911.986Z" transform="translate(1641.863 -886.916)" fill="#db9d7d"/>
                </g>
              </g>
            </g>
          </g>
        </g>
      </g>
      <g id="Group_6473" data-name="Group 6473" transform="translate(3261 15040.22)">
        <g id="Group_6467" data-name="Group 6467" transform="translate(-3261 -14838)">
          <g id="Group_1824-2" data-name="Group 1824" transform="translate(0 0)">
            <circle id="Ellipse_46-3" data-name="Ellipse 46" cx="71.5" cy="71.5" r="71.5" transform="translate(0 -0.22)" fill="#f5f2ed"/>
          </g>
        </g>
      </g>
      <g id="Group_6472" data-name="Group 6472" transform="translate(3042.126 14978.791)">
        <g id="Group_6468" data-name="Group 6468" transform="translate(-2887.248 -14806.835)">
          <g id="Group_1824-3" data-name="Group 1824" transform="translate(0 0)">
            <circle id="Ellipse_46-4" data-name="Ellipse 46" cx="108.593" cy="108.593" r="108.593" transform="translate(0 0)" fill="#f5f2ed"/>
          </g>
        </g>
        <g id="Group_6471" data-name="Group 6471" transform="translate(-2880.887 -14815.791)">
          <ellipse id="Ellipse_493" data-name="Ellipse 493" cx="47.784" cy="18.15" rx="47.784" ry="18.15" transform="translate(43.637 153.613) rotate(1)" fill="#d1cfcb" opacity="0.791"/>
          <g id="Group_6449" data-name="Group 6449" transform="translate(0 0)">
            <g id="Group_5397" data-name="Group 5397" transform="translate(0 0)" clip-path="url(#clip-path-2)">
              <path id="Path_4913" data-name="Path 4913" d="M18.7.149c9.57-1.311,25.936,6.465,25.936,6.465,4.245,0-8.764.221-8.764,4.466a7.686,7.686,0,0,1-7.686,7.686H7.363A7.56,7.56,0,0,1,0,10.915C0,6.67,9.135,1.46,18.7.149Z" transform="translate(62.318 127.896) rotate(-63)" fill="#50a7be"/>
              <path id="Path_4901" data-name="Path 4901" d="M13.425,0C12.971.409,0,.473,0,.473l7.869,10.9,10.8,5.552a40.434,40.434,0,0,0,2.074-4.747,30.579,30.579,0,0,1,1.176-3.662Z" transform="translate(41.942 133.748) rotate(8)" fill="#c8d5de"/>
              <path id="Path_4902" data-name="Path 4902" d="M0,38.466s10.989,4.9,21.219,2.26S38.162,25.464,38.162,25.464L77.18,0l7.492,7-.465,2.064,6.2,9.056-2.048,15.1L82.88,52.593l-2.5,14.861,1.045,7.432-4.429,7.677s-9.674,9.094-15.711,8.78c-2-.133-5.184.9-7.155.538-4.224-.723-7.376.334-9.473-.279l-.114-.029S30.8,85.275,30.584,85.32l-.006.006c-4.117.943-3.085,3-9.192-2.734-1.39-1.313-2.829-2.715-4.269-4.168C11.229,72.459,5.36,65.481,2.944,59.38c-5.607-14.134-.857-10.893-.857-10.893S16.934,67.605,20.441,61.158,0,38.466,0,38.466" transform="translate(47.651 86.362) rotate(8)" fill="#fffdfd"/>
              <path id="Path_4903" data-name="Path 4903" d="M10.785,0s.933,25.2.732,29.068-.7,9.367-.7,9.367c-3.139-.508-7.91.231-10.707-.473L0,37.933s7.817-1.071,6.455-2.583Z" transform="translate(84.291 145.681) rotate(8)" fill="#d8e6ef"/>
              <path id="Path_4904" data-name="Path 4904" d="M8.185,33.672c-4.114.944-1.894,8.287-1.894,8.287S6.108,43.839,0,38.106L29.647,0,8.188,33.668Z" transform="translate(62.637 133.391) rotate(8)" fill="#d8e6ef"/>
              <path id="Path_4905" data-name="Path 4905" d="M1.876,16.6s14.848,19.12,18.355,12.673L45.8,0,16.908,46.536C11.02,40.572,5.15,33.594,2.736,27.494-2.87,13.36,1.876,16.6,1.876,16.6" transform="translate(43.42 117.968) rotate(8)" fill="#d8e6ef"/>
              <path id="Path_4906" data-name="Path 4906" d="M0,21.517,26.671,0l-.286,1.372Z" transform="translate(106.136 108.901) rotate(8)" fill="#d8e6ef"/>
              <path id="Path_4907" data-name="Path 4907" d="M110.943,22.28c-7.958,3.529-76.038,60.53-76.5,69.444s-41.3-9.3-33.434-16.39C8.8,68.318,71.248,1.97,71.3,1.908c5.177-9.049,47.6,16.838,39.64,20.372" transform="translate(104.476 10.17) rotate(8)" fill="#db8f6d"/>
              <path id="Path_4908" data-name="Path 4908" d="M84.646,21.551c-7.957,3.529-34.123,26.789-34.588,35.7s-3.726,32.767-4.334,33.315-3.476,11.352-3.476,11.352-2.441,6.222-3.65,7.311c-1.04.938-2.279,1.79-3.644.859-.6-.377-1.9-1.852-1.706-2.551-.019.028-.043.05-.062.077a28.687,28.687,0,0,0-4.5,9.264c-1.342,5.154-3.116,5.217-5.738,5.081-1.783-.18-2-2.837-2.031-3.435v-.012a1.122,1.122,0,0,0,0-.121s-2.123,7.583-4.228,7.474a5.945,5.945,0,0,1-5.135-3.6c-.948-2.16.055-6.923.12-7.225-.416.78-1.335,2.035-2.22,1.989-1.15-.06-3.983.848-5.773-5.4s-.475-9.251-.475-9.251,1.586-12.028.675-13.038C2.139,87.415.569,78.457.163,75.888c-1.455-8.916,7.132-29.805,15-36.892C22.951,31.98,46.249,2.792,54.427.223S92.61,18.015,84.646,21.551" transform="translate(85.086 43.65) rotate(8)" fill="#62c0d8"/>
              <path id="Path_4909" data-name="Path 4909" d="M5.367.045c.309-.278.549.755.725,2.558v.011c.668,6.656.565,23.726.565,23.726s-5.691,19.1-4.7,27.153A5.965,5.965,0,0,1,.405,51.365c-.948-2.16.056-6.923.121-7.225-.058.106,2.292-8.225,2.346-9.37S5.726,21.511,5.726,21.511,3.191,8.668,3.274,7.092c.021-.409.081-1,.172-1.669C3.714,3.54,4.291,1.015,5.367.045" transform="translate(86.257 115.421) rotate(8)" fill="#50a7be"/>
              <path id="Path_4910" data-name="Path 4910" d="M9.02,0C10.48.075,7.008,36.342,5.13,41.509c-1.1,3.044-2.307,7.065-3.1,9.849-1.784-.18-2-2.837-2.032-3.435v-.012a34.974,34.974,0,0,0,1.811-8.5c.221-4.331,2.265-13.513,3.38-15.921S7.81,8.862,7.886,7.423,7.558-.075,9.02,0" transform="translate(95.968 116.48) rotate(8)" fill="#50a7be"/>
              <path id="Path_4911" data-name="Path 4911" d="M6.574,15.609C6.44,18.064,2.358,26.433,1.768,32.884c-.6-.382-1.9-1.856-1.706-2.551-.019.028-.043.049-.062.077L4.313,17.821S2.88,3.4,4.19.393s2.538,12.15,2.383,15.215" transform="translate(107.197 124.737) rotate(8)" fill="#50a7be"/>
            </g>
          </g>
        </g>
      </g>
      <g id="Group_7025" data-name="Group 7025" transform="translate(19 242.052)">
        <g id="Group_7023" data-name="Group 7023" clip-path="url(#clip-path-3)">
          <g id="Group_7022" data-name="Group 7022" transform="translate(0 0)">
            <g id="Group_7021" data-name="Group 7021" clip-path="url(#clip-path-3)">
              <path id="Path_7248" data-name="Path 7248" d="M36.953,30.6c-3.909-3.685-5.3-10.225-10.657-10.225S19.548,26.915,15.639,30.6c-3.964,3.737-4.378,12.748-2.574,17.958,1.9,5.5,7.362,10.069,13.231,10.069S37.622,54.06,39.523,48.559c1.807-5.21,1.39-14.221-2.574-17.958" transform="translate(-2.975 -4.909)" fill="#3175ae"/>
              <path id="Path_7249" data-name="Path 7249" d="M45.538,87.526A16.131,16.131,0,0,1,34.1,83.318c-2.691-2.634-4.056-6.229-4.056-10.685v-.228h1.587v.228c0,4.006,1.2,7.211,3.574,9.536a14.577,14.577,0,0,0,10.336,3.755q.295,0,.594-.009c.226-.007.452-.02.683-.038,7.291-.6,13.987-6.818,14.621-13.587l1.581.152c-.7,7.493-8.063,14.376-16.074,15.03-.256.02-.514.035-.764.042-.217.006-.433.01-.648.01" transform="translate(-7.423 -17.417)" fill="#3175ae"/>
              <path id="Path_7250" data-name="Path 7250" d="M61.793,80.95a14.682,14.682,0,0,1-4.668-.8,15.712,15.712,0,0,1-9.788-9.093,12.719,12.719,0,0,1,2.375-12.9l.323-.327a10.558,10.558,0,0,1,7.251-2.836,9.279,9.279,0,0,1,5.551,1.734c3.049,2.244,4.681,6.437,4.259,10.944l-1.581-.152c.29-3.094-.507-7.211-3.614-9.5a7.727,7.727,0,0,0-4.624-1.438,8.922,8.922,0,0,0-6.286,2.545A11.017,11.017,0,0,0,48.821,70.49a14.1,14.1,0,0,0,8.8,8.139,13.1,13.1,0,0,0,4.165.718,9.2,9.2,0,0,0,4.095-.9,10.817,10.817,0,0,0,5.779-7.823c.427-3.346.171-8.072-1.363-11.086a10.224,10.224,0,0,0-8.576-5.461,7.04,7.04,0,0,0-2.184.342L59.053,52.9a8.633,8.633,0,0,1,2.679-.417,10.555,10.555,0,0,1,4.7,1.168,12.106,12.106,0,0,1,5.285,5.162C73.4,62.132,73.7,67.239,73.24,70.833a12.328,12.328,0,0,1-6.658,9.058,10.767,10.767,0,0,1-4.79,1.057" transform="translate(-11.497 -12.645)" fill="#3175ae"/>
              <path id="Path_7251" data-name="Path 7251" d="M64.481,75.589c-.109,0-.218,0-.328,0a10.327,10.327,0,0,1-6.9-2.576,13.129,13.129,0,0,1-3.012-12.952,10.505,10.505,0,0,1,6.569-7.022l.488,1.523a8.893,8.893,0,0,0-5.536,5.96,11.481,11.481,0,0,0,2.586,11.336,8.747,8.747,0,0,0,5.836,2.131c.1,0,.2,0,.3,0a9.264,9.264,0,0,0,5.741-1.794l.178-.144L71.4,73.3l-.178.144a10.876,10.876,0,0,1-6.744,2.145" transform="translate(-13.261 -12.778)" fill="#3175ae"/>
              <path id="Path_7252" data-name="Path 7252" d="M76.525,77.862l-.657-.854a.618.618,0,0,1,.063-.824l4.229-4.019,2.083,2.7L77.333,78a.606.606,0,0,1-.807-.142" transform="translate(-18.712 -17.387)" fill="#256a99"/>
              <path id="Path_7253" data-name="Path 7253" d="M85.09,73.784,82.5,70.415a.261.261,0,0,0-.368-.047l-.828.648a.266.266,0,0,0-.047.37h0l2.594,3.369a.261.261,0,0,0,.367.048h0l.828-.649a.266.266,0,0,0,.047-.37h0" transform="translate(-20.06 -16.941)" fill="#3175ae"/>
              <path id="Path_7254" data-name="Path 7254" d="M35.072,52.4l.111,2.02L50.3,50.223l.36-4.785Z" transform="translate(-8.665 -10.948)" fill="#606060"/>
              <path id="Path_7255" data-name="Path 7255" d="M23.418,53.636l-.111,2.02L4.429,52.223l-.36-4.785Z" transform="translate(-1.005 -11.429)" fill="#606060"/>
              <path id="Path_7256" data-name="Path 7256" d="M26.793,1.571H35.92L46.384,8.977l1.559,9.875L45.048,39.5l3.339-2.468,1.781-19.3-3.784-11L38.369.9,27.906,0Z" transform="translate(-6.619 0)" fill="#606060"/>
              <path id="Path_7257" data-name="Path 7257" d="M22.623,1.571l-10.633,3.8L1.526,12.773l.7,9.875,4.4,18.37L3.287,38.55,0,21.525l1.525-11L9.54,4.693,21.51,0Z" transform="translate(0 0)" fill="#606060"/>
              <g id="Group_7017" data-name="Group 7017" transform="translate(11.332 17.777)" opacity="0.51">
                <g id="Group_7016" data-name="Group 7016">
                  <g id="Group_7015" data-name="Group 7015" clip-path="url(#clip-path-5)">
                    <path id="Path_7258" data-name="Path 7258" d="M27.041,57.054c-4.629,0-9.388-3.664-11.068-8.523-1.648-4.759-1.143-12.572,1.976-15.513a25.647,25.647,0,0,0,3.787-4.9c1.888-2.914,3.156-4.7,5.305-4.7s3.416,1.786,5.308,4.7a25.647,25.647,0,0,0,3.787,4.9c3.12,2.941,3.625,10.754,1.976,15.513-1.682,4.858-6.441,8.523-11.068,8.523" transform="translate(-15.05 -23.42)" fill="#fff"/>
                  </g>
                </g>
              </g>
              <g id="Group_7020" data-name="Group 7020" transform="translate(18.037 19.721)" opacity="0.31">
                <g id="Group_7019" data-name="Group 7019">
                  <g id="Group_7018" data-name="Group 7018" clip-path="url(#clip-path-6)">
                    <path id="Path_7259" data-name="Path 7259" d="M32.169,46.193H26.31c-.667,0-1.593-.047-1.923-.451-.64-.784-.436-2.331-.22-3.968.022-.165.043-.332.065-.5a74.516,74.516,0,0,1,1.862-9.125c1.587-5.726,2.809-6.17,3.146-6.17s1.559.445,3.146,6.17a74.5,74.5,0,0,1,1.862,9.124q.032.249.065.5c.216,1.638.42,3.188-.221,3.968-.331.4-1.256.451-1.923.451" transform="translate(-23.955 -25.981)" fill="#fff"/>
                  </g>
                </g>
              </g>
              <path id="Path_7260" data-name="Path 7260" d="M31.08,71.019H30.008a.611.611,0,0,1-.606-.556l-.556-5.831h3.4l-.556,5.831a.611.611,0,0,1-.606.556" transform="translate(-7.127 -15.572)" fill="#256a99"/>
              <path id="Path_7261" data-name="Path 7261" d="M31.867,62.1h-3.75A1.523,1.523,0,0,1,26.6,60.574V54.133h6.783v6.441A1.523,1.523,0,0,1,31.867,62.1Z" transform="translate(-6.572 -13.043)" fill="#3175ae"/>
              <path id="Path_7262" data-name="Path 7262" d="M26.106,52.109H33.2a.884.884,0,0,1,0,1.767H26.106a.884.884,0,0,1,0-1.767" transform="translate(-6.233 -12.555)" fill="#256a99"/>
            </g>
          </g>
        </g>
      </g>
      <g id="Group_6879" data-name="Group 6879" transform="translate(113.333 319.854) rotate(180)">
        <g id="Group_6878" data-name="Group 6878" transform="translate(0 0.001)" clip-path="url(#clip-path-7)">
          <path id="Path_6973" data-name="Path 6973" d="M9.036,1520.621c1.753,0,2.244.276,2.374.4a2.014,2.014,0,0,1,.426,1.176,15.786,15.786,0,0,1,.033,2.438c-.015.417-.029.812-.029,1.2a5.156,5.156,0,1,1-5.156-5.156c.343,0,.708-.012,1.1-.024.411-.013.836-.027,1.256-.027Zm0-1.529c-.842,0-1.679.052-2.352.052a6.684,6.684,0,1,0,6.684,6.684c0-1.953.409-4.717-.926-5.94a5.286,5.286,0,0,0-3.406-.8" transform="translate(0 -1439.02)" fill="#cedeec"/>
          <path id="Path_6974" data-name="Path 6974" d="M459.39,1520.237c.419,0,.845.014,1.256.027.387.012.753.024,1.1.024a5.156,5.156,0,1,1-5.156,5.156c0-.386-.014-.78-.029-1.2a15.78,15.78,0,0,1,.033-2.438,2.014,2.014,0,0,1,.426-1.176c.13-.119.621-.4,2.374-.4m0-1.529a5.288,5.288,0,0,0-3.406.8c-1.335,1.222-.926,3.987-.926,5.94a6.684,6.684,0,1,0,6.684-6.685c-.673,0-1.51-.052-2.352-.052" transform="translate(-431.015 -1438.656)" fill="#a8c5dd"/>
          <path id="Path_6975" data-name="Path 6975" d="M321.968,83.038c-.249-.748-5.611-48.376-5.611-48.376l-1.87-1L316.7,0h.888l5.878,82.943Z" transform="translate(-297.91 -0.002)" fill="#a8c5dd"/>
          <path id="Path_6976" data-name="Path 6976" d="M227.282,83.038c.249-.748,5.611-48.376,5.611-48.376l-1.746-1.247L232.71,0h-1.046l-5.878,82.943Z" transform="translate(-213.885 -0.002)" fill="#cedeec"/>
          <rect id="Rectangle_1811" data-name="Rectangle 1811" width="12.343" height="2.618" transform="translate(12.462 79.67)" fill="#cedeec"/>
          <rect id="Rectangle_1812" data-name="Rectangle 1812" width="5.161" height="2.618" transform="translate(19.644 79.67)" fill="#a8c5dd"/>
        </g>
      </g>
    </g>
    <g id="Group_7658" data-name="Group 7658" transform="translate(-197)">
      <g id="Group_514" data-name="Group 514" transform="translate(560.98 205.475)">
        <ellipse id="Ellipse_44" data-name="Ellipse 44" cx="86.542" cy="86.542" rx="86.542" ry="86.542" transform="translate(0 0)" fill="#e0ded9"/>
        <ellipse id="Ellipse_47-2" data-name="Ellipse 47-2" cx="86.542" cy="86.542" rx="86.542" ry="86.542" transform="translate(0 0)" fill="#f5f2ed"/>
      </g>
      <g id="Group_6092" data-name="Group 6092" transform="translate(560.722 205.676)">
        <g id="Group_6091" data-name="Group 6091" transform="translate(0 0)" clip-path="url(#clip-path-8)">
          <g id="Group_6093" data-name="Group 6093" transform="translate(-9.816 120.816) rotate(-31)">
            <g id="Group_6093-2" data-name="Group 6093" clip-path="url(#clip-path-9)">
              <path id="Path_5653" data-name="Path 5653" d="M7.284,33.389S2.008,25.924,1.208,22.994A62.912,62.912,0,0,1,0,13.157c-.061-1.1,1.487-4.851,1.778-6.614s.273-5.17,2.205-5A4.769,4.769,0,0,1,7.205,7.469S6.991,11.061,6.04,12.8a26.218,26.218,0,0,1,1.82,6.24,2.834,2.834,0,0,0,.531,1.274c.979,1.333,3.283,4.47,4.234,5.72L8.834,19.767a4.143,4.143,0,0,1-.55-1.515,27.6,27.6,0,0,1-.449-5.947,14.322,14.322,0,0,1,1.2-4.553c.722-1.375,2.626-6.512,3.653-7.406s3.5.008,3.686,1.937.071,4.262-2.487,7.462a10.227,10.227,0,0,1,.558,5.156c-.5,2.609,2.107-1.6,2.107-1.6l-.628-2.728S15.29,5.86,17.074,5.045s3.819,1.529,3.972,4.877,3.285,10.431,3.285,10.431L25.938,27,29.48,37.855a54.007,54.007,0,0,1-4.343,3.233c-.178-.093-17.853-7.7-17.853-7.7" transform="translate(19.671 0)" fill="#cc8366"/>
              <path id="Path_5654" data-name="Path 5654" d="M210.312,48.14s-55.925,26.882-78.035,21.969c-16.121-3.582-64.962-21.977-68.934-24.064-6.183-3.251-14.669-8.166-21.516-9.608A28.411,28.411,0,0,1,33.053,32.9c-1.511-.912-3.256-1.96-5.094-3.061-4.657-2.787-10.347-4.967-12.034-5.854S6.7,15.611,5.046,14.355-.054,8.891,0,7.727,2.244,4.521,5.958,6.554a16.083,16.083,0,0,1,5.369,4.5s6.278,3.22,8.882,5.546c0,0,7.195,3.145,9.053,3.4s8.137,4.437,11.111,3.024-.055-5.557-1.817-7.864A38.831,38.831,0,0,1,34.2,8.085C33.271,6,32.1,3.792,32.713,2.416S37-1.494,39.639,1.167s5.859,9.882,11.03,12.175S65.777,21.6,69.688,27.91c2.052,3.308,61.693,10.968,70.649,8.281,22.106-6.631,50.152-26.085,50.152-26.085Z" transform="translate(0 13.241)" fill="#db8f6d"/>
              <path id="Path_5655" data-name="Path 5655" d="M5.376.208,7.8,5.024S6.242,8.4,3.2,8.129c0,0-2.972-3.384-3.184-5.084S2.428.482,3.674.137s1.7.071,1.7.071" transform="translate(32.547 13.164)" fill="#d89c84"/>
              <path id="Path_5656" data-name="Path 5656" d="M0,.185A.794.794,0,0,1,.951.134a38.822,38.822,0,0,1,3.2,3.552.586.586,0,0,1-.075.825c-.016.011-.031.025-.048.036l-.781.53S.225,2.172,0,.185" transform="translate(0 20.779)" fill="#d89c84"/>
              <path id="Path_5657" data-name="Path 5657" d="M1.409,0A.848.848,0,0,0,1.3.892c.22.541-.841,2.56-.881,2.992a.277.277,0,0,1-.257.294A.283.283,0,0,1,0,4.139,10.265,10.265,0,0,1,.591,1.028C1.095.015,1.409,0,1.409,0" transform="translate(21.549 1.664)" fill="#d89c84"/>
              <path id="Path_5658" data-name="Path 5658" d="M2.441,0a1.632,1.632,0,0,0-.923,1.345A3.633,3.633,0,0,1,0,4.083S1.178.641,2.441,0" transform="translate(30.262 0.141)" fill="#d89c84"/>
            </g>
          </g>
          <g id="Group_6094" data-name="Group 6094" transform="translate(122.228 53.022) rotate(7)">
            <path id="Path_5643" data-name="Path 5643" d="M16.287,11.231S5.341,11.712,0,7.788C0,7.788,5.945.432,4.077,1.9S10.961,0,10.961,0Z" transform="translate(0 42.805)" fill="#ededed"/>
            <path id="Path_5644" data-name="Path 5644" d="M7.394.462,0,7.857s2.107,8.226,6.526,10.076a33.89,33.89,0,0,0,7.992,2.3l5.3-5.387-.589-2.869,2.493-2.1-.5-3.092s-10.794-3.732-10.5-5.708S7.394.462,7.394.462" transform="translate(2.96 34.382)" fill="#fff"/>
            <path id="Path_5646" data-name="Path 5646" d="M.227.056A127.993,127.993,0,0,1,8.645,17.31c.095.234-.472.236-.561.051C5.387,11.616,2.587,5.892.008.1-.045-.024.179-.025.227.056" transform="translate(8.266 0)" fill="#bc7661"/>
            <path id="Path_5651" data-name="Path 5651" d="M.043,0S2.49,1.187,1.8,3.433a9.837,9.837,0,0,0-.349,3.253C1.044,3.917-.25.511.043,0" transform="translate(9.232 39.737)" fill="#fff"/>
          </g>
          <g id="Group_7650" data-name="Group 7650" transform="matrix(0.956, 0.292, -0.292, 0.956, 11.628, 6.252)">
            <path id="Path_5978" data-name="Path 5978" d="M87.9,21.42c-.289.019-15.476,2.057-28.486,7.289C35.2,38.335,4.069,43.053,4.069,43.053s-8.811-15.974-.5-30.43c0,0,83.951-12.483,85.367-12.622" transform="translate(0 9.37)" fill="#db8f6d"/>
            <path id="Path_8053" data-name="Path 8053" d="M66.337,56.326c-2.177,1.2-5.586-.234-8.655-2.716s-8.022-7.505-11.026-8.9-11.526-3.338-14.112-4.651S18.451,31,17.707,31.047c-.289.019-15.239,4.871-15.239,4.871S-4.106,24.083,4.2,9.627c0,0,13.764-.506,15.18-.645S47.156-.035,48.5,0,53.6.24,55.836,3.485,72.609,21.177,73.706,24.02s1.462,25.782.483,28.046-1.715,1.819-1.715,1.819a2.114,2.114,0,0,1-1.5,1.564c-1.32.413-2.946-.843-3.87-2.722-2.929-5.957-4.018-18.192-4.3-18.6s-9.83-8.765-9.83-8.765-3.659,3.542-3.453,4.9,4.654,7.809,6.354,9.9,6.012,5.467,9.023,10.127c1.128,1.755,2.745,5.018.8,6.086" transform="translate(70.196 0)" fill="#62c0d8"/>
            <path id="Path_5979" data-name="Path 5979" d="M.223.035a128,128,0,0,1,11.36,15.477c.135.213-.422.316-.543.15C7.361,10.492,3.585,5.357.015.114-.059.006.161-.036.223.035" transform="translate(127.991 10.637)" fill="#50a7be"/>
            <path id="Path_5980" data-name="Path 5980" d="M2.05,14.7A56.484,56.484,0,0,0,0,.092c-.03-.1.161-.121.2-.056,2.326,3.389,2.278,7.74,2.472,11.685.254,5.143,1.275,10.743.574,15.864-.017.122-.292.156-.322.03-.983-4.117-.7-8.694-.88-12.914" transform="translate(139.267 25.82)" fill="#50a7be"/>
          </g>
        </g>
      </g>
    </g>
  </g>
</svg>