<svg xmlns="http://www.w3.org/2000/svg" width="442.477" height="274.55" viewBox="0 0 442.477 274.55">
  <g id="Group_8310" data-name="Group 8310" transform="translate(-120.45 -258)">
    <g id="Group_7063" data-name="Group 7063" transform="translate(68.45 -19.165)">
      <g id="Group_5372" data-name="Group 5372" transform="translate(52 209)">
        <circle id="Ellipse_304" data-name="Ellipse 304" cx="92.55" cy="92.55" r="92.55" transform="translate(0 117.615)" fill="#f5f2ed"/>
      </g>
    </g>
    <g id="Group_8307" data-name="Group 8307" transform="translate(158.169 -50.896)">
      <g id="Group_5372-2" data-name="Group 5372" transform="translate(52 326.615)">
        <circle id="Ellipse_304-2" data-name="Ellipse 304" cx="128.415" cy="128.415" r="128.415" transform="translate(0 0)" fill="#f5f2ed"/>
      </g>
    </g>
    <g id="Group_8308" data-name="Group 8308" transform="translate(291.902 -41.993)">
      <g id="Group_5372-3" data-name="Group 5372" transform="translate(52 326.615)">
        <circle id="Ellipse_304-3" data-name="Ellipse 304" cx="109.513" cy="109.513" r="109.513" transform="translate(0 0)" fill="#f5f2ed"/>
      </g>
    </g>
    <path id="Rectangle_2349" data-name="Rectangle 2349" d="M5,0H87a5,5,0,0,1,5,5V43a0,0,0,0,1,0,0H0a0,0,0,0,1,0,0V5A5,5,0,0,1,5,0Z" transform="translate(167 403)" fill="#bbe5da"/>
    <path id="Rectangle_2382" data-name="Rectangle 2382" d="M5,0H87a5,5,0,0,1,5,5V106a0,0,0,0,1,0,0H0a0,0,0,0,1,0,0V5A5,5,0,0,1,5,0Z" transform="translate(282 340)" fill="#bbe5e5"/>
    <path id="Rectangle_2383" data-name="Rectangle 2383" d="M5,0H87a5,5,0,0,1,5,5V188a0,0,0,0,1,0,0H0a0,0,0,0,1,0,0V5A5,5,0,0,1,5,0Z" transform="translate(397 258)" fill="#bbdbe5"/>
    <path id="Path_8361" data-name="Path 8361" d="M26.1,16.133a.718.718,0,0,1,.119.391.516.516,0,0,1-.2.417.716.716,0,0,1-1.062-.179l-2.278-3.6a2.732,2.732,0,0,0-.918-.96,2.677,2.677,0,0,0-1.292-.264H18.327v4.437a.719.719,0,0,1-.187.518.651.651,0,0,1-.493.2.672.672,0,0,1-.51-.2.719.719,0,0,1-.187-.518V5.695a.651.651,0,0,1,.2-.493.719.719,0,0,1,.519-.187H21.88a4.515,4.515,0,0,1,2.983.867,3.147,3.147,0,0,1,1.028,2.55,3.193,3.193,0,0,1-.824,2.295,3.757,3.757,0,0,1-2.354,1.054,2.081,2.081,0,0,1,.765.442,3.975,3.975,0,0,1,.68.85Zm-4.335-5.355a3.182,3.182,0,0,0,2.083-.578,2.157,2.157,0,0,0,.689-1.751,2.1,2.1,0,0,0-.68-1.717,3.245,3.245,0,0,0-2.091-.561H18.327v4.607Zm13.056,4.3a.419.419,0,0,1,.323.153.567.567,0,0,1,.136.391q0,.425-.6.782a5.146,5.146,0,0,1-1.292.535,5.212,5.212,0,0,1-1.326.178,4.049,4.049,0,0,1-3.035-1.139,4.307,4.307,0,0,1-1.114-3.145,4.936,4.936,0,0,1,.493-2.253,3.678,3.678,0,0,1,1.385-1.521,3.825,3.825,0,0,1,2.032-.544,3.287,3.287,0,0,1,2.567,1.054,4.1,4.1,0,0,1,.952,2.856.732.732,0,0,1-.136.493.564.564,0,0,1-.442.153H29.292Q29.445,16,32.063,16a3.248,3.248,0,0,0,1.139-.179,7.406,7.406,0,0,0,1.02-.484A1.617,1.617,0,0,1,34.818,15.079ZM31.842,9.588a2.307,2.307,0,0,0-1.743.68,3.107,3.107,0,0,0-.773,1.921h4.811a2.945,2.945,0,0,0-.629-1.929A2.11,2.11,0,0,0,31.842,9.588Zm9.69-1.071q2.975,0,2.975,3.281v4.607a.62.62,0,0,1-.68.68.708.708,0,0,1-.51-.178.66.66,0,0,1-.187-.5V11.883A2.566,2.566,0,0,0,42.68,10.2a1.791,1.791,0,0,0-1.437-.527,2.425,2.425,0,0,0-1.819.7,2.586,2.586,0,0,0-.68,1.887v4.148a.62.62,0,0,1-.68.68.708.708,0,0,1-.51-.178.66.66,0,0,1-.187-.5V9.231a.667.667,0,0,1,.187-.493.689.689,0,0,1,.51-.187.638.638,0,0,1,.485.187.661.661,0,0,1,.178.476v.867a2.788,2.788,0,0,1,1.139-1.164A3.417,3.417,0,0,1,41.533,8.517ZM50.849,16q.595.051.595.544a.489.489,0,0,1-.212.434,1,1,0,0,1-.638.11l-.459-.034a2.884,2.884,0,0,1-2.006-.816,3.131,3.131,0,0,1-.646-2.159V9.809H46.344a.652.652,0,0,1-.451-.145.488.488,0,0,1-.161-.382.536.536,0,0,1,.161-.408.629.629,0,0,1,.451-.153h1.139V6.8a.66.66,0,0,1,.187-.5.708.708,0,0,1,.51-.179.684.684,0,0,1,.493.179.66.66,0,0,1,.187.5V8.721h1.887a.6.6,0,0,1,.433.153.536.536,0,0,1,.161.408.488.488,0,0,1-.161.382.626.626,0,0,1-.433.145H48.86v4.335a1.965,1.965,0,0,0,.382,1.351,1.639,1.639,0,0,0,1.147.468Z" transform="translate(179.5 451.059)"/>
    <path id="Path_8360" data-name="Path 8360" d="M16.381,17.136a7.767,7.767,0,0,1-2.44-.382,4.987,4.987,0,0,1-1.861-1.028.78.78,0,0,1-.255-.6.668.668,0,0,1,.136-.417.4.4,0,0,1,.323-.179.822.822,0,0,1,.476.187,5.73,5.73,0,0,0,3.6,1.224,3.815,3.815,0,0,0,2.244-.561,1.849,1.849,0,0,0,.782-1.6,1.283,1.283,0,0,0-.374-.96,2.7,2.7,0,0,0-.986-.587,14.8,14.8,0,0,0-1.649-.459,16.072,16.072,0,0,1-2.287-.68,3.56,3.56,0,0,1-1.445-1.02A2.619,2.619,0,0,1,12.1,8.347a3.083,3.083,0,0,1,.552-1.811A3.577,3.577,0,0,1,14.2,5.312a5.629,5.629,0,0,1,2.269-.434,6.578,6.578,0,0,1,2.219.366A4.669,4.669,0,0,1,20.41,6.29a.828.828,0,0,1,.272.6.668.668,0,0,1-.136.417.4.4,0,0,1-.323.179,1.036,1.036,0,0,1-.493-.187,5.779,5.779,0,0,0-1.547-.952,4.83,4.83,0,0,0-1.717-.272,3.591,3.591,0,0,0-2.193.587,1.933,1.933,0,0,0-.782,1.64,1.507,1.507,0,0,0,.689,1.351,6.945,6.945,0,0,0,2.116.791q1.547.374,2.431.688a3.64,3.64,0,0,1,1.471.944,2.369,2.369,0,0,1,.587,1.683,2.941,2.941,0,0,1-.553,1.768,3.59,3.59,0,0,1-1.555,1.19A5.837,5.837,0,0,1,16.381,17.136ZM26.615,16q.595.051.595.544a.489.489,0,0,1-.212.434,1,1,0,0,1-.637.11l-.459-.034a2.884,2.884,0,0,1-2.006-.816,3.131,3.131,0,0,1-.646-2.159V9.809H22.11a.652.652,0,0,1-.45-.145.488.488,0,0,1-.162-.382.536.536,0,0,1,.162-.408.629.629,0,0,1,.45-.153h1.139V6.8a.66.66,0,0,1,.187-.5.708.708,0,0,1,.51-.179.684.684,0,0,1,.493.179.66.66,0,0,1,.187.5V8.721h1.887a.6.6,0,0,1,.433.153.536.536,0,0,1,.162.408.488.488,0,0,1-.162.382.626.626,0,0,1-.433.145H24.626v4.335a1.965,1.965,0,0,0,.382,1.351,1.639,1.639,0,0,0,1.147.468Zm8.364-.918a.419.419,0,0,1,.323.153.567.567,0,0,1,.136.391q0,.425-.595.782a5.146,5.146,0,0,1-1.292.535,5.212,5.212,0,0,1-1.326.178,4.049,4.049,0,0,1-3.034-1.139,4.307,4.307,0,0,1-1.114-3.145,4.936,4.936,0,0,1,.493-2.253,3.678,3.678,0,0,1,1.385-1.521,3.825,3.825,0,0,1,2.031-.544,3.287,3.287,0,0,1,2.567,1.054,4.1,4.1,0,0,1,.952,2.856.732.732,0,0,1-.136.493.564.564,0,0,1-.442.153H29.454Q29.607,16,32.225,16a3.248,3.248,0,0,0,1.139-.179,7.406,7.406,0,0,0,1.02-.484A1.617,1.617,0,0,1,34.979,15.079ZM32,9.588a2.307,2.307,0,0,0-1.743.68,3.107,3.107,0,0,0-.773,1.921H34.3a2.945,2.945,0,0,0-.629-1.929A2.11,2.11,0,0,0,32,9.588Zm9.622-1.037q.714-.051.714.578a.6.6,0,0,1-.153.434.813.813,0,0,1-.527.2l-.51.051a2.293,2.293,0,0,0-1.692.807,2.61,2.61,0,0,0-.552,1.658v4.131a.655.655,0,0,1-.187.51.7.7,0,0,1-.493.17.715.715,0,0,1-.5-.178.645.645,0,0,1-.2-.5V9.231a.631.631,0,0,1,.2-.5.723.723,0,0,1,.493-.179.626.626,0,0,1,.646.663v.952a2.581,2.581,0,0,1,1.012-1.139,3.423,3.423,0,0,1,1.5-.459Zm2.6,8.534a.715.715,0,0,1-.5-.178.645.645,0,0,1-.2-.5V9.231a.645.645,0,0,1,.2-.5.715.715,0,0,1,.5-.179.684.684,0,0,1,.493.179.66.66,0,0,1,.187.5v7.174a.655.655,0,0,1-.187.51A.7.7,0,0,1,44.227,17.085Zm0-10.319a.933.933,0,0,1-.663-.238.82.82,0,0,1-.255-.629.8.8,0,0,1,.255-.612,1.042,1.042,0,0,1,1.326,0,.8.8,0,0,1,.255.612.82.82,0,0,1-.255.629A.933.933,0,0,1,44.227,6.766Zm3.944,10.319a.715.715,0,0,1-.5-.178.645.645,0,0,1-.2-.5V5.61a.645.645,0,0,1,.2-.5.715.715,0,0,1,.5-.179.692.692,0,0,1,.485.179.645.645,0,0,1,.2.5v10.8a.645.645,0,0,1-.2.5A.692.692,0,0,1,48.171,17.085ZM55.243,16q.595.051.595.544a.489.489,0,0,1-.212.434,1,1,0,0,1-.638.11l-.459-.034a2.884,2.884,0,0,1-2.006-.816,3.131,3.131,0,0,1-.646-2.159V9.809H50.738a.652.652,0,0,1-.451-.145.488.488,0,0,1-.161-.382.536.536,0,0,1,.161-.408.629.629,0,0,1,.451-.153h1.139V6.8a.66.66,0,0,1,.187-.5.708.708,0,0,1,.51-.179.684.684,0,0,1,.493.179.66.66,0,0,1,.187.5V8.721h1.887a.6.6,0,0,1,.433.153.536.536,0,0,1,.161.408.488.488,0,0,1-.161.382.626.626,0,0,1-.433.145H53.254v4.335a1.965,1.965,0,0,0,.382,1.351,1.639,1.639,0,0,0,1.147.468Z" transform="translate(412.5 451.059)"/>
    <path id="Path_8359" data-name="Path 8359" d="M14.343,4.93a.645.645,0,0,1,.5.2.739.739,0,0,1,.178.518V16.371a.739.739,0,0,1-.178.518.645.645,0,0,1-.5.2.672.672,0,0,1-.51-.2.719.719,0,0,1-.187-.518V11.509H6.472v4.862a.719.719,0,0,1-.187.518.672.672,0,0,1-.51.2.645.645,0,0,1-.5-.2.739.739,0,0,1-.179-.518V5.644a.739.739,0,0,1,.179-.518.645.645,0,0,1,.5-.2.672.672,0,0,1,.51.2.719.719,0,0,1,.187.518v4.675h7.174V5.644a.719.719,0,0,1,.187-.518A.672.672,0,0,1,14.343,4.93Zm6.868,12.189a3.986,3.986,0,0,1-2.066-.527,3.512,3.512,0,0,1-1.377-1.5,5.049,5.049,0,0,1-.485-2.269,5.049,5.049,0,0,1,.485-2.269,3.512,3.512,0,0,1,1.377-1.5,3.986,3.986,0,0,1,2.066-.527,4.031,4.031,0,0,1,2.074.527,3.5,3.5,0,0,1,1.385,1.5,5.049,5.049,0,0,1,.485,2.269,5.049,5.049,0,0,1-.485,2.269,3.5,3.5,0,0,1-1.385,1.5A4.031,4.031,0,0,1,21.211,17.119Zm0-1.139a2.278,2.278,0,0,0,1.878-.807,3.666,3.666,0,0,0,.655-2.354,3.645,3.645,0,0,0-.663-2.338,2.263,2.263,0,0,0-1.87-.824,2.263,2.263,0,0,0-1.87.824,3.645,3.645,0,0,0-.663,2.338,3.672,3.672,0,0,0,.654,2.346A2.268,2.268,0,0,0,21.211,15.98ZM19.749,6.715a.823.823,0,0,1-.595-.23.779.779,0,0,1-.238-.587.752.752,0,0,1,.238-.578.841.841,0,0,1,.595-.221.872.872,0,0,1,.6.221A.74.74,0,0,1,20.6,5.9a.773.773,0,0,1-.238.6A.864.864,0,0,1,19.749,6.715Zm2.924,0a.853.853,0,0,1-.6-.23.766.766,0,0,1-.247-.587.74.74,0,0,1,.247-.578.872.872,0,0,1,.6-.221.841.841,0,0,1,.6.221.752.752,0,0,1,.238.578.779.779,0,0,1-.238.587A.823.823,0,0,1,22.673,6.715ZM33.927,8.551a.689.689,0,0,1,.51.187.667.667,0,0,1,.187.493v7.208a3.773,3.773,0,0,1-.952,2.8,3.849,3.849,0,0,1-2.822.944,5.863,5.863,0,0,1-3.026-.714q-.612-.34-.612-.782a.59.59,0,0,1,.128-.391.411.411,0,0,1,.331-.153,1.65,1.65,0,0,1,.612.238,7.858,7.858,0,0,0,1.173.493,4.5,4.5,0,0,0,1.377.187,2.409,2.409,0,0,0,1.819-.637,2.586,2.586,0,0,0,.612-1.861V15.1a2.593,2.593,0,0,1-1.1,1.224,3.437,3.437,0,0,1-1.743.425,3.649,3.649,0,0,1-1.93-.51,3.448,3.448,0,0,1-1.309-1.445,4.766,4.766,0,0,1-.468-2.159,4.766,4.766,0,0,1,.468-2.159A3.448,3.448,0,0,1,28.5,9.027a3.649,3.649,0,0,1,1.93-.51,3.355,3.355,0,0,1,1.717.425,2.718,2.718,0,0,1,1.1,1.207V9.231a.684.684,0,0,1,.179-.493A.66.66,0,0,1,33.927,8.551ZM30.7,15.606a2.337,2.337,0,0,0,1.87-.79,3.242,3.242,0,0,0,.68-2.184,3.242,3.242,0,0,0-.672-2.168,2.331,2.331,0,0,0-1.878-.79,2.382,2.382,0,0,0-1.9.79,3.189,3.189,0,0,0-.688,2.168,3.216,3.216,0,0,0,.688,2.184A2.382,2.382,0,0,0,30.7,15.606ZM43.889,8.551a.689.689,0,0,1,.51.187.667.667,0,0,1,.187.493v7.208a3.773,3.773,0,0,1-.952,2.8,3.849,3.849,0,0,1-2.822.944,5.863,5.863,0,0,1-3.026-.714q-.612-.34-.612-.782a.59.59,0,0,1,.127-.391.411.411,0,0,1,.332-.153,1.65,1.65,0,0,1,.612.238,7.858,7.858,0,0,0,1.173.493,4.5,4.5,0,0,0,1.377.187,2.409,2.409,0,0,0,1.819-.637,2.586,2.586,0,0,0,.612-1.861V15.1a2.593,2.593,0,0,1-1.1,1.224,3.437,3.437,0,0,1-1.743.425,3.649,3.649,0,0,1-1.929-.51,3.448,3.448,0,0,1-1.309-1.445,4.766,4.766,0,0,1-.467-2.159,4.766,4.766,0,0,1,.467-2.159,3.448,3.448,0,0,1,1.309-1.445,3.649,3.649,0,0,1,1.929-.51,3.355,3.355,0,0,1,1.717.425,2.718,2.718,0,0,1,1.1,1.207V9.231a.684.684,0,0,1,.179-.493A.66.66,0,0,1,43.889,8.551Zm-3.23,7.055a2.337,2.337,0,0,0,1.87-.79,3.242,3.242,0,0,0,.68-2.184,3.242,3.242,0,0,0-.672-2.168,2.331,2.331,0,0,0-1.878-.79,2.382,2.382,0,0,0-1.9.79,3.189,3.189,0,0,0-.689,2.168,3.216,3.216,0,0,0,.689,2.184A2.382,2.382,0,0,0,40.659,15.606ZM51.233,8.551q.714-.051.714.578a.6.6,0,0,1-.153.434.813.813,0,0,1-.527.2l-.51.051a2.293,2.293,0,0,0-1.692.807,2.61,2.61,0,0,0-.552,1.658v4.131a.655.655,0,0,1-.187.51.7.7,0,0,1-.493.17.715.715,0,0,1-.5-.178.645.645,0,0,1-.2-.5V9.231a.631.631,0,0,1,.2-.5.723.723,0,0,1,.493-.179.626.626,0,0,1,.646.663v.952a2.581,2.581,0,0,1,1.012-1.139A3.423,3.423,0,0,1,51,8.568Zm5.219-.034q3.111,0,3.111,3.264v4.624a.684.684,0,0,1-.179.493.638.638,0,0,1-.485.187.642.642,0,0,1-.68-.68v-.816a2.432,2.432,0,0,1-.986,1.13,2.906,2.906,0,0,1-1.53.4,3.348,3.348,0,0,1-1.471-.323,2.628,2.628,0,0,1-1.062-.9,2.227,2.227,0,0,1-.391-1.275,2.07,2.07,0,0,1,.476-1.453,2.888,2.888,0,0,1,1.564-.748,15.453,15.453,0,0,1,3.026-.23h.374v-.561a2.236,2.236,0,0,0-.417-1.5,1.71,1.71,0,0,0-1.351-.476,4.994,4.994,0,0,0-2.346.629,1.552,1.552,0,0,1-.646.289.436.436,0,0,1-.34-.153.567.567,0,0,1-.136-.391.642.642,0,0,1,.145-.417,1.693,1.693,0,0,1,.467-.366,5.47,5.47,0,0,1,1.352-.535A5.993,5.993,0,0,1,56.452,8.517Zm-.561,7.514a2.209,2.209,0,0,0,1.674-.689,2.473,2.473,0,0,0,.654-1.776v-.493h-.306a15.216,15.216,0,0,0-2.278.127,2.214,2.214,0,0,0-1.113.425,1.116,1.116,0,0,0-.332.875,1.408,1.408,0,0,0,.485,1.1A1.755,1.755,0,0,0,55.891,16.031ZM68.726,4.93a.689.689,0,0,1,.51.187.645.645,0,0,1,.187.476V16.405a.667.667,0,0,1-.187.493.689.689,0,0,1-.51.187.66.66,0,0,1-.5-.187.684.684,0,0,1-.178-.493v-.918a2.732,2.732,0,0,1-1.1,1.207,3.275,3.275,0,0,1-1.692.425,3.434,3.434,0,0,1-1.921-.544,3.591,3.591,0,0,1-1.292-1.522,5.286,5.286,0,0,1-.459-2.269,5.187,5.187,0,0,1,.459-2.244,3.409,3.409,0,0,1,3.213-2.023,3.275,3.275,0,0,1,1.692.425,2.732,2.732,0,0,1,1.1,1.207V5.593a.655.655,0,0,1,.178-.485A.678.678,0,0,1,68.726,4.93Zm-3.2,11.05a2.239,2.239,0,0,0,1.861-.824,3.679,3.679,0,0,0,.655-2.338,3.642,3.642,0,0,0-.655-2.329,2.249,2.249,0,0,0-1.861-.816,2.3,2.3,0,0,0-1.879.816,3.517,3.517,0,0,0-.672,2.3,3.685,3.685,0,0,0,.672,2.354A2.268,2.268,0,0,0,65.53,15.98Zm7.14,1.1a.715.715,0,0,1-.5-.178.645.645,0,0,1-.2-.5V9.231a.645.645,0,0,1,.2-.5.715.715,0,0,1,.5-.179.684.684,0,0,1,.493.179.66.66,0,0,1,.187.5v7.174a.655.655,0,0,1-.187.51A.7.7,0,0,1,72.67,17.085Zm0-10.319a.933.933,0,0,1-.663-.238.82.82,0,0,1-.255-.629.8.8,0,0,1,.255-.612,1.042,1.042,0,0,1,1.326,0,.8.8,0,0,1,.255.612.82.82,0,0,1-.255.629A.933.933,0,0,1,72.67,6.766Zm9.962,1.785a.689.689,0,0,1,.51.187.667.667,0,0,1,.187.493v7.208a3.773,3.773,0,0,1-.952,2.8,3.849,3.849,0,0,1-2.822.944,5.863,5.863,0,0,1-3.026-.714q-.612-.34-.612-.782a.59.59,0,0,1,.127-.391.411.411,0,0,1,.332-.153,1.65,1.65,0,0,1,.612.238,7.858,7.858,0,0,0,1.173.493,4.5,4.5,0,0,0,1.377.187,2.409,2.409,0,0,0,1.819-.637,2.586,2.586,0,0,0,.612-1.861V15.1a2.593,2.593,0,0,1-1.1,1.224,3.437,3.437,0,0,1-1.743.425,3.648,3.648,0,0,1-1.929-.51,3.449,3.449,0,0,1-1.309-1.445,4.766,4.766,0,0,1-.467-2.159,4.766,4.766,0,0,1,.467-2.159A3.449,3.449,0,0,1,77.2,9.027a3.648,3.648,0,0,1,1.929-.51,3.355,3.355,0,0,1,1.717.425,2.718,2.718,0,0,1,1.1,1.207V9.231a.684.684,0,0,1,.179-.493A.66.66,0,0,1,82.632,8.551ZM79.4,15.606a2.337,2.337,0,0,0,1.87-.79,3.242,3.242,0,0,0,.68-2.184,3.242,3.242,0,0,0-.671-2.168,2.331,2.331,0,0,0-1.879-.79,2.382,2.382,0,0,0-1.9.79,3.189,3.189,0,0,0-.688,2.168,3.216,3.216,0,0,0,.688,2.184A2.382,2.382,0,0,0,79.4,15.606ZM89.7,16q.6.051.6.544a.489.489,0,0,1-.213.434,1,1,0,0,1-.637.11l-.459-.034a2.884,2.884,0,0,1-2.006-.816,3.131,3.131,0,0,1-.646-2.159V9.809H85.2a.652.652,0,0,1-.451-.145.488.488,0,0,1-.161-.382.536.536,0,0,1,.161-.408.629.629,0,0,1,.451-.153h1.139V6.8a.66.66,0,0,1,.187-.5.708.708,0,0,1,.51-.179.684.684,0,0,1,.493.179.66.66,0,0,1,.187.5V8.721H89.6a.6.6,0,0,1,.434.153.536.536,0,0,1,.161.408.488.488,0,0,1-.161.382.626.626,0,0,1-.434.145H87.715v4.335A1.965,1.965,0,0,0,88.1,15.5a1.639,1.639,0,0,0,1.147.468ZM37.259,25.551q.714-.051.714.578a.6.6,0,0,1-.153.434.813.813,0,0,1-.527.2l-.51.051a2.292,2.292,0,0,0-1.692.807,2.61,2.61,0,0,0-.553,1.658V33.4a.655.655,0,0,1-.187.51.7.7,0,0,1-.493.17.715.715,0,0,1-.5-.178.645.645,0,0,1-.2-.5V26.231a.631.631,0,0,1,.2-.5.723.723,0,0,1,.493-.179.626.626,0,0,1,.646.663v.952a2.581,2.581,0,0,1,1.011-1.139,3.423,3.423,0,0,1,1.5-.459ZM45.4,32.079a.419.419,0,0,1,.323.153.567.567,0,0,1,.136.391q0,.425-.6.782a5.146,5.146,0,0,1-1.292.535,5.212,5.212,0,0,1-1.326.179,4.049,4.049,0,0,1-3.035-1.139A4.307,4.307,0,0,1,38.5,29.835a4.936,4.936,0,0,1,.493-2.252,3.678,3.678,0,0,1,1.385-1.521,3.825,3.825,0,0,1,2.032-.544,3.287,3.287,0,0,1,2.567,1.054,4.1,4.1,0,0,1,.952,2.856.732.732,0,0,1-.136.493.564.564,0,0,1-.442.153H39.877Q40.03,33,42.648,33a3.248,3.248,0,0,0,1.139-.179,7.406,7.406,0,0,0,1.02-.485A1.617,1.617,0,0,1,45.4,32.079Zm-2.975-5.491a2.307,2.307,0,0,0-1.743.68,3.107,3.107,0,0,0-.773,1.921h4.811a2.945,2.945,0,0,0-.629-1.93A2.11,2.11,0,0,0,42.427,26.588Zm9.69-1.071q2.975,0,2.975,3.281V33.4a.62.62,0,0,1-.68.68.708.708,0,0,1-.51-.178.66.66,0,0,1-.187-.5V28.883a2.566,2.566,0,0,0-.451-1.683,1.791,1.791,0,0,0-1.437-.527,2.425,2.425,0,0,0-1.819.7,2.586,2.586,0,0,0-.68,1.887V33.4a.62.62,0,0,1-.68.68.708.708,0,0,1-.51-.178.66.66,0,0,1-.187-.5V26.231a.667.667,0,0,1,.187-.493.689.689,0,0,1,.51-.187.638.638,0,0,1,.485.187.661.661,0,0,1,.178.476v.867a2.788,2.788,0,0,1,1.139-1.164A3.417,3.417,0,0,1,52.117,25.517ZM61.433,33q.6.051.6.544a.489.489,0,0,1-.212.433,1,1,0,0,1-.638.111l-.459-.034a2.884,2.884,0,0,1-2.006-.816,3.131,3.131,0,0,1-.646-2.159V26.809H56.928a.652.652,0,0,1-.451-.145.488.488,0,0,1-.161-.382.536.536,0,0,1,.161-.408.629.629,0,0,1,.451-.153h1.139V23.8a.66.66,0,0,1,.187-.5.708.708,0,0,1,.51-.179.684.684,0,0,1,.493.179.66.66,0,0,1,.187.5v1.921h1.887a.6.6,0,0,1,.433.153.536.536,0,0,1,.162.408.488.488,0,0,1-.162.382.626.626,0,0,1-.433.145H59.444v4.335a1.965,1.965,0,0,0,.382,1.351,1.639,1.639,0,0,0,1.147.468Z" transform="translate(282 451.059)"/>
    <g id="Group_8304" data-name="Group 8304" transform="translate(3 4.32)">
      <path id="Path_8357" data-name="Path 8357" d="M371,132.049l-4.9-9.447-4.87,9.447c-.974,3.3,2.185,5.913,4.884,5.913s6.01-2.574,4.883-5.913Z" transform="translate(67.951 217.398)" fill="#fff" fill-rule="evenodd"/>
      <path id="Path_8356" data-name="Path 8356" d="M371,132.049l-4.9-9.447-4.87,9.447c-.974,3.3,2.185,5.913,4.884,5.913s6.01-2.574,4.883-5.913Z" transform="translate(85.615 217.398)" fill="#fff" fill-rule="evenodd"/>
      <path id="Path_8358" data-name="Path 8358" d="M371,132.049l-4.9-9.447-4.87,9.447c-.974,3.3,2.185,5.913,4.884,5.913s6.01-2.574,4.883-5.913Z" transform="translate(103.278 217.398)" fill="#fff" fill-rule="evenodd"/>
    </g>
    <g id="Group_8305" data-name="Group 8305" transform="translate(-116 4.32)">
      <path id="Path_8357-2" data-name="Path 8357" d="M371,132.049l-4.9-9.447-4.87,9.447c-.974,3.3,2.185,5.913,4.884,5.913s6.01-2.574,4.883-5.913Z" transform="translate(79.951 257.398)" fill="#fff" fill-rule="evenodd"/>
      <path id="Path_8356-2" data-name="Path 8356" d="M371,132.049l-4.9-9.447-4.87,9.447c-.974,3.3,2.185,5.913,4.884,5.913s6.01-2.574,4.883-5.913Z" transform="translate(97.615 257.398)" fill="#fff" fill-rule="evenodd"/>
    </g>
    <g id="Group_8306" data-name="Group 8306" transform="translate(-232 36.819)">
      <path id="Path_8357-3" data-name="Path 8357" d="M371,132.049l-4.9-9.447-4.87,9.447c-.974,3.3,2.185,5.913,4.884,5.913s6.01-2.574,4.883-5.913Z" transform="translate(86.951 256.398)" fill="#fff" fill-rule="evenodd"/>
    </g>
    <path id="Rectangle_2743" data-name="Rectangle 2743" d="M5,0H23a0,0,0,0,1,0,0V188a0,0,0,0,1,0,0H0a0,0,0,0,1,0,0V5A5,5,0,0,1,5,0Z" transform="translate(397 258)" fill="#b4d0d9"/>
    <path id="Rectangle_2744" data-name="Rectangle 2744" d="M5,0H23a0,0,0,0,1,0,0V106a0,0,0,0,1,0,0H0a0,0,0,0,1,0,0V5A5,5,0,0,1,5,0Z" transform="translate(282 340)" fill="#b4d6d6"/>
    <path id="Rectangle_2745" data-name="Rectangle 2745" d="M5,0H23a0,0,0,0,1,0,0V43a0,0,0,0,1,0,0H0a0,0,0,0,1,0,0V5A5,5,0,0,1,5,0Z" transform="translate(167 403)" fill="#b8dbd2"/>
    <line id="Line_460" data-name="Line 460" x2="342" transform="translate(157 446.5)" fill="none" stroke="#e0ded9" stroke-linecap="round" stroke-width="3"/>
  </g>
</svg>