<svg id="internet" xmlns="http://www.w3.org/2000/svg" width="37.752" height="37.752" viewBox="0 0 37.752 37.752">
  <g id="Group_1739" data-name="Group 1739">
    <g id="Group_1738" data-name="Group 1738">
      <path id="Path_2569" data-name="Path 2569" d="M18.8,0a18.876,18.876,0,0,0,0,37.752A19.052,19.052,0,0,0,37.752,18.8,18.919,18.919,0,0,0,18.8,0Zm0,35.555A16.679,16.679,0,1,1,35.555,18.8,16.709,16.709,0,0,1,18.8,35.555Z" fill="#606060"/>
    </g>
  </g>
  <g id="Group_1741" data-name="Group 1741" transform="translate(6.636 6.636)">
    <g id="Group_1740" data-name="Group 1740">
      <path id="Path_2570" data-name="Path 2570" d="M102.166,90a12.24,12.24,0,0,0,0,24.48,12.613,12.613,0,0,0,7.546-2.507,1.106,1.106,0,1,0-1.347-1.755,10.371,10.371,0,0,1-6.2,2.065,10.043,10.043,0,1,1,10.1-10.116v1.106a2.212,2.212,0,0,1-4.424,0v-5.53a1.106,1.106,0,0,0-2.212,0v.07a5.7,5.7,0,0,0-3.466-1.176,5.53,5.53,0,1,0,0,11.06,5.727,5.727,0,0,0,4.257-1.9,4.422,4.422,0,0,0,8.057-2.521v-1.106A12.283,12.283,0,0,0,102.166,90Zm0,15.5a3.333,3.333,0,0,1,0-6.666,3.335,3.335,0,1,1,0,6.666Z" transform="translate(-90 -90)" fill="#606060"/>
    </g>
  </g>
</svg>
