<svg id="Group_7061" data-name="Group 7061" xmlns="http://www.w3.org/2000/svg" width="1280" height="755" viewBox="0 0 1280 755">
  <rect id="Rectangle_107" data-name="Rectangle 107" width="1280" height="755" fill="#f4edc9"/>
  <g id="Group_5413" data-name="Group 5413" transform="translate(16 -18.497)" opacity="0.263">
    <g id="Group_485" data-name="Group 485" transform="translate(471.687 302.304)">
      <g id="Group_484" data-name="Group 484">
        <g id="Group_483" data-name="Group 483" transform="translate(0.046)">
          <path id="Path_1105" data-name="Path 1105" d="M-1339.267,899.607a345.983,345.983,0,0,0-61.67-5.646A211.364,211.364,0,0,0-1450.4,903.6c-27.007,8.64-40.781,17.443-70.212,20.024s-44.864,3.131-60.716,8.528-34.109,8.311-32.55,25.38,14.178,27.024,30.928,27.54a223.147,223.147,0,0,0,54.093-7.871c8.857-2.833,23.986-4.415,27.153-.555s7.706,10.873,7.706,10.873,45.711-19.833,54.19-23.844,53.081-29.348,66.534-40.163S-1339.267,899.607-1339.267,899.607Z" transform="translate(1737.102 -791.361)" fill="#db9d7d"/>
          <path id="Path_1106" data-name="Path 1106" d="M-850.493,1016.343s-312.324,17.536-354.307,25.981-100.831,53.675-143.9,74.312-65.421,34.468-87.976,35.365c0,0-92.51-9.718-115.122-29.259-23.183-20.032-62.687-66.627-68.259-80.419s-22.4-61.626-22.4-61.626-3.215-7.24,11.35-11.286c0,0,4.113-11.354,20.039-8.12s25.206,10.6,30.722,45.556l8.972-39.381a19.855,19.855,0,0,1,20-2.008c11.989,4.855,13.53,19.966,13.634,27.415a129.629,129.629,0,0,1-4.1,23.47s24.389,15.1,36.71,32.2c0,0,26.576-8.391,45.335-2.181a75.068,75.068,0,0,1,49.122-23.595s36.63-26.007,56.8-34.575,36.479-29.539,63.978-43.113,75.4-38.009,130.4-45.708,308.411-77.3,308.411-77.3Z" transform="translate(1642.76 -822.073)" fill="#f0ae8c"/>
        </g>
        <path id="Path_1107" data-name="Path 1107" d="M-1622.213,907.414c.73-3.513,3.514-5.6,6.171-3.185l.088.084c2.288,2.168-1.742,19.234-3.646,26.705a6.358,6.358,0,0,1-1.187,2.092,4.845,4.845,0,0,1-6.543,2.025,4.949,4.949,0,0,1-.523-.324h0Z" transform="translate(1694.116 -759.605)" fill="#e0bdaf"/>
        <path id="Path_1108" data-name="Path 1108" d="M-1632.634,904.154s6.005,27.406,6.934,31.427,8.884,46.106,8.884,46.106l-5.712-12.908-14.84-39.928-5.064-13.952a4.921,4.921,0,0,1,.117-3.855,12.826,12.826,0,0,1,4.672-4.851A38.679,38.679,0,0,1-1632.634,904.154Z" transform="translate(1642.771 -756.278)" fill="#db9d7d"/>
        <path id="Path_1109" data-name="Path 1109" d="M-1640.526,906.37l6.729,26.864s1.084,2.762,2.555-2.807c.79-2.99-5.193-26.3-5.193-26.3a2.666,2.666,0,0,0-3.677.827A2.654,2.654,0,0,0-1640.526,906.37Z" transform="translate(1650.498 -757.779)" fill="#e0bdaf"/>
        <path id="Path_1110" data-name="Path 1110" d="M-1615.162,931.537s-4.553,26.709-4.553,31.044,60.031,61.888,60.031,61.888-48.274-35.277-60.031-46.412-11.14-9.284-12.379-31.564S-1622.344,878.58-1615.162,931.537Z" transform="translate(1679.19 -746.762)" fill="#db9d7d"/>
      </g>
    </g>
    <path id="Path_2817" data-name="Path 2817" d="M430.913,188.953,396.519,122.6l-34.2,66.351c-6.841,23.161,15.344,41.527,34.3,41.527s42.211-18.077,34.3-41.527Z" transform="translate(240.618 34.46)" fill="#00aeef" fill-rule="evenodd"/>
  </g>
</svg>