<svg id="Group_7064" data-name="Group 7064" xmlns="http://www.w3.org/2000/svg" xmlns:xlink="http://www.w3.org/1999/xlink" width="1280" height="755" viewBox="0 0 1280 755">
  <defs>
    <clipPath id="clip-path">
      <rect id="Rectangle_1952" data-name="Rectangle 1952" width="1280" height="755" transform="translate(-257.646 -206.608)" fill="#f4edc9"/>
    </clipPath>
    <clipPath id="clip-path-2">
      <rect id="Rectangle_1345" data-name="Rectangle 1345" width="1299.507" height="465.323" fill="none"/>
    </clipPath>
  </defs>
  <rect id="Rectangle_959" data-name="Rectangle 959" width="1280" height="755" fill="#f4edc9"/>
  <g id="Group_6845" data-name="Group 6845" transform="translate(257.646 206.608)" opacity="0.248">
    <g id="Mask_Group_25" data-name="Mask Group 25" clip-path="url(#clip-path)">
      <g id="Group_7063" data-name="Group 7063">
        <g id="Group_6843" data-name="Group 6843" transform="translate(-136.526 331.694) rotate(-31)">
          <g id="Group_6093" data-name="Group 6093" clip-path="url(#clip-path-2)">
            <path id="Path_5653" data-name="Path 5653" d="M40.029,183.478S11.034,142.457,6.637,126.356.345,78.32.01,72.3,8.182,45.641,9.777,35.952s1.5-28.412,12.117-27.5c0,0,23.935,6.96,17.7,32.59,0,0-1.176,19.738-6.4,29.267a144.071,144.071,0,0,1,10,34.288,15.578,15.578,0,0,0,2.915,7c5.379,7.326,18.042,24.565,23.269,31.433l-20.83-34.407a22.768,22.768,0,0,1-3.021-8.325c-1.271-8.247-3.645-25.45-2.466-32.682,1.584-9.682,2.61-17.463,6.58-25.017S64.066,6.818,69.714,1.905s19.249.044,20.254,10.644.388,23.422-13.668,41a56.2,56.2,0,0,1,3.065,28.332c-2.721,14.339,11.579-8.8,11.579-8.8L87.493,58.089S84.02,32.2,93.824,27.724s20.986,8.4,21.829,26.8,18.054,57.321,18.054,57.321l8.827,36.535L162,208.02s-22.889,18.281-23.865,17.768-98.1-42.31-98.1-42.31" transform="translate(108.094 0.001)" fill="#cc8366"/>
            <path id="Path_5654" data-name="Path 5654" d="M1100.9,376.107s-252.522,56.528-374.016,29.528C638.3,385.949,369.909,284.867,348.082,273.4c-33.974-17.862-80.607-44.871-118.232-52.8a156.124,156.124,0,0,1-48.222-19.416c-8.3-5.01-17.893-10.772-27.991-16.822-25.588-15.313-56.86-27.294-66.129-32.168S36.8,106.163,27.728,99.258-.3,69.237,0,62.837s12.325-17.616,32.734-6.444A88.378,88.378,0,0,1,62.24,81.1s34.5,17.693,48.81,30.476c0,0,39.536,17.283,49.745,18.7s44.715,24.384,61.058,16.62-.3-30.534-9.987-43.215a213.377,213.377,0,0,1-23.954-38.876c-5.085-11.435-11.543-23.594-8.15-31.153s23.563-21.485,38.058-6.866,32.193,54.3,60.611,66.906,83.023,45.4,104.516,80.055c11.274,18.179,339.013,60.27,388.225,45.5C892.646,182.811,1160.606,0,1160.606,0l130.718,78.543Z" transform="translate(-0.001 52.382)" fill="#db8f6d"/>
            <path id="Path_5655" data-name="Path 5655" d="M29.544,1.143,42.888,27.61S34.3,46.169,17.566,44.671c0,0-16.331-18.595-17.5-27.935S13.341,2.649,20.19.751s9.354.391,9.354.391" transform="translate(178.851 72.34)" fill="#d89c84"/>
            <path id="Path_5656" data-name="Path 5656" d="M0,1.018A4.363,4.363,0,0,1,5.224.735c2.322,1.39,12.858,13.893,17.568,19.519a3.22,3.22,0,0,1-.413,4.536c-.089.061-.172.136-.264.2L17.821,27.9S1.237,11.934,0,1.018" transform="translate(0 114.182)" fill="#d89c84"/>
            <path id="Path_5657" data-name="Path 5657" d="M7.743,0a4.659,4.659,0,0,0-.61,4.9c1.209,2.974-4.622,14.07-4.843,16.439A1.52,1.52,0,0,1,.874,22.953,1.554,1.554,0,0,1,0,22.745S.48,11.216,3.249,5.651,7.743,0,7.743,0" transform="translate(118.415 9.146)" fill="#d89c84"/>
            <path id="Path_5658" data-name="Path 5658" d="M13.416,0A8.969,8.969,0,0,0,8.342,7.393C7.706,13.047,4.849,19.887,0,22.437,0,22.44,6.472,3.52,13.416,0" transform="translate(166.296 0.774)" fill="#d89c84"/>
          </g>
        </g>
        <g id="Group_6844" data-name="Group 6844" transform="translate(-358.106 -450.367) rotate(18)">
          <path id="Path_5646" data-name="Path 5646" d="M1.247.307A703.346,703.346,0,0,1,47.508,95.121c.521,1.284-2.593,1.3-3.084.279C29.6,63.829,14.214,32.379.044.53c-.29-.66.939-.667,1.2-.224" transform="translate(1115.351 70.44)" fill="#bc7661"/>
          <g id="Group_6846" data-name="Group 6846" transform="translate(0 0)">
            <path id="Path_5643" data-name="Path 5643" d="M89.5,61.718S29.348,64.358,0,42.8c0,0,32.67-40.423,22.4-32.355S60.233,0,60.233,0Z" transform="translate(1069.929 305.658)" fill="#ededed"/>
            <path id="Path_5644" data-name="Path 5644" d="M40.632,2.541,0,43.176s11.581,45.2,35.861,55.366,43.918,12.622,43.918,12.622l29.121-29.6L105.661,65.8l13.7-11.563-2.725-16.993S57.321,16.736,58.916,5.874,40.632,2.541,40.632,2.541" transform="translate(1086.197 259.372)" fill="#fff"/>
            <path id="Path_5645" data-name="Path 5645" d="M1117.107,324.359c-12.941,4.335-29.971-6.751-44.138-23.165s-36.022-48.425-50.9-58.9-59.048-29.337-71.744-38.974-67.318-62.836-71.4-63.291c-1.582-.176-85.7-4.043-161.169,11.5C577.358,179.852,0,203.223,0,203.223S84.507,70.024,143.588,0c0,0,754.1,24.582,761.893,25.216S1068.6.819,1075.83,2.322s27.379,6.3,36.264,26.033,73.357,112.093,76.5,128.541-17.356,140.833-24.863,152.116-11.057,8.159-11.057,8.159a11.622,11.622,0,0,1-9.626,6.993c-7.54.939-15.1-7.455-18.259-18.512-10-35.08-3.9-102.3-5.053-104.77s-44.567-57.024-44.567-57.024-23.253,15.571-23.473,23.129,17.518,46.782,24.662,59.745,30.683,35.777,42.4,63.922c4.382,10.594,9.927,29.825-1.654,33.7" transform="translate(0 0)" fill="#c67f66"/>
            <path id="Path_5647" data-name="Path 5647" d="M8.071,81.42C11.819,53.953,14.661,28.071,11.32.4c-.066-.546.99-.491,1.151-.1,9.26,20.606,4.734,44.083,1.918,65.623-3.667,28.054-3.634,59.334-12.439,86.339-.213.642-1.731.561-1.775-.154-1.28-23.224,4.753-47.691,7.9-70.688" transform="translate(1150.145 163.574)" fill="#bc7661"/>
            <path id="Path_5648" data-name="Path 5648" d="M11.295,6.354c.4-4.3-2.083-7.686-5.985-5.838L5.182.582C1.786,2.277.425,23.344,0,32.626a7.618,7.618,0,0,0,.638,2.831c1.434,3.722,3.689,5.431,7.543,4.448Z" transform="translate(1141.013 274.596)" fill="#d89c84"/>
            <path id="Path_5649" data-name="Path 5649" d="M13.568,4.99C14.437,1.422,12.038-.8,8.525.27L8.408.307C5.339,1.312,1.565,18.87.043,26.626A6.492,6.492,0,0,0,.23,29.09C.967,32.4,1.338,34.151,4.7,33.8l1.03-.077c2.6-5.684,5.215-14.834,7.837-28.736" transform="translate(1158.352 274.681)" fill="#d89c84"/>
            <path id="Path_5650" data-name="Path 5650" d="M34.672,17.159,13.78,0S-1.005,1.445.054,14.423c0,0,14.621,17.28,22.021,20.675s11.276-6.175,12.831-10.807-.235-7.133-.235-7.133" transform="translate(1079.468 287.95)" fill="#d89c84"/>
            <path id="Path_5651" data-name="Path 5651" d="M.234,0S13.681,6.524,9.889,18.867A54.054,54.054,0,0,0,7.972,36.745C5.738,21.522-1.372,2.809.234,0" transform="translate(1120.657 288.799)" fill="#fff"/>
          </g>
        </g>
      </g>
    </g>
  </g>
</svg>