<svg xmlns="http://www.w3.org/2000/svg" width="183.653" height="32.602" viewBox="0 0 183.653 32.602">
  <g id="Group_119" data-name="Group 119" transform="translate(-885 -676.402)">
    <path id="Path_362" data-name="Path 362" d="M934.851,702.514h-6.4a7.625,7.625,0,0,1-7.62-7.64V676.4h-2.874c.027,6.168,0,11.994,0,18.473a10.486,10.486,0,0,0,10.494,10.489c2.111,0,4.533.025,6.4,0v-2.849" transform="translate(-14.3)" fill-rule="evenodd"/>
    <path id="Path_363" data-name="Path 363" d="M938.428,697.855H932a2.969,2.969,0,0,1-2.953-2.98V676.4H926.2v18.473a5.821,5.821,0,0,0,5.828,5.821h6.4v-2.841" transform="translate(-17.878)" fill-rule="evenodd"/>
    <path id="Path_364" data-name="Path 364" d="M885,702.514h6.405a7.625,7.625,0,0,0,7.62-7.64V676.4h2.841v18.473a10.481,10.481,0,0,1-10.487,10.489c-2.084,0-4.533.025-6.378,0v-2.849" transform="translate(0)" fill-rule="evenodd"/>
    <path id="Path_365" data-name="Path 365" d="M885,697.855h6.405a2.975,2.975,0,0,0,2.98-2.98V676.4h2.848c-.027,3.426,0,14.862,0,18.473a5.825,5.825,0,0,1-5.828,5.821H885v-2.841" transform="translate(0)" fill-rule="evenodd"/>
    <path id="Path_366" data-name="Path 366" d="M965.658,718.839l-.948-2.665c-.539-1.5-.85-1.945-1.912-1.945h-.687v4.61h-2.73V707.427h4.234c2.191,0,4.365.507,4.365,2.959a2.636,2.636,0,0,1-2.256,2.8v.033c.834.179,1.062.932,1.455,1.978l1.389,3.646h-2.91m-2.763-9.4h-.785v2.78h.785c1.047,0,2.3-.082,2.3-1.422C965.2,709.6,964.055,709.438,962.9,709.438Z" transform="translate(-32.279 -13.464)"/>
    <path id="Path_367" data-name="Path 367" d="M1012.307,706.272h2.649v2.142h-2.649Zm0,3.581h2.649v8.485h-2.649Z" transform="translate(-55.248 -12.963)"/>
    <path id="Path_368" data-name="Path 368" d="M1024.226,721.129c-2.8,0-4.725-1.766-4.725-4.414,0-2.812,2.043-4.463,4.725-4.463s4.741,1.651,4.741,4.463c0,2.648-1.929,4.414-4.741,4.414m0-6.949c-1.39,0-1.978,1.161-1.978,2.436,0,1.308.491,2.6,1.978,2.6s2.011-1.275,2.011-2.6C1026.237,715.341,1025.615,714.18,1024.226,714.18Z" transform="translate(-58.37 -15.558)"/>
    <path id="Path_369" data-name="Path 369" d="M1044.7,720.932v-4.267c0-1.374-.344-2.256-1.39-2.256-1.357,0-1.864,1.177-1.864,2.714v3.809H1038.8v-8.485h2.436v1.406h.032a3.182,3.182,0,0,1,2.976-1.6c2.191,0,3.09,1.553,3.09,3.368v5.313H1044.7" transform="translate(-66.745 -15.558)"/>
    <path id="Path_370" data-name="Path 370" d="M1067.082,718.885a11.207,11.207,0,0,1-3.221-.474l.245-2.338a6.178,6.178,0,0,0,2.91.735c.932,0,1.945-.294,1.945-1.258,0-2.142-5.231-.965-5.231-4.97,0-2.665,2.4-3.5,4.577-3.5a9.383,9.383,0,0,1,2.845.425l-.2,2.158a5.984,5.984,0,0,0-2.452-.507c-.769,0-1.945.179-1.945,1.275,0,1.9,5.248.817,5.248,4.823,0,2.779-2.288,3.629-4.725,3.629" transform="translate(-77.565 -13.314)"/>
    <path id="Path_371" data-name="Path 371" d="M1083.406,719.261c-2.272,0-3.024-1.128-3.024-3.008v-3.793h-1.651v-1.88h1.684v-1.815l2.616-.817v2.633h2.011v1.88h-2.011v3.45c0,.9.212,1.488,1.112,1.488a3.264,3.264,0,0,0,.932-.147l.1,1.831a9.048,9.048,0,0,1-1.766.18" transform="translate(-84.075 -13.69)"/>
    <path id="Path_372" data-name="Path 372" d="M1095.879,721.129c-2.8,0-4.725-1.766-4.725-4.414,0-2.812,2.043-4.463,4.725-4.463s4.74,1.651,4.74,4.463c0,2.648-1.928,4.414-4.74,4.414m0-6.949c-1.39,0-1.978,1.161-1.978,2.436,0,1.308.49,2.6,1.978,2.6s2.01-1.275,2.01-2.6C1097.89,715.341,1097.268,714.18,1095.879,714.18Z" transform="translate(-89.466 -15.558)"/>
    <path id="Path_373" data-name="Path 373" d="M1114.27,721.129c-2.8,0-4.627-1.733-4.627-4.447a4.267,4.267,0,0,1,4.594-4.431,5.85,5.85,0,0,1,2.255.409l-.2,1.978a3.272,3.272,0,0,0-1.668-.409,2.244,2.244,0,0,0-2.24,2.485,2.3,2.3,0,0,0,2.355,2.436,4.078,4.078,0,0,0,1.766-.393l.081,2.027a7.5,7.5,0,0,1-2.321.344" transform="translate(-97.489 -15.558)"/>
    <path id="Path_374" data-name="Path 374" d="M1129.361,718.187l-2.533-4.169h-.034v4.169h-2.648V705.925h2.648V713.2h.034l2.518-3.5h2.959l-3.024,3.858,3.335,4.627h-3.254" transform="translate(-103.783 -12.812)"/>
    <path id="Path_375" data-name="Path 375" d="M1146.6,718.187V713.92c0-1.374-.344-2.256-1.39-2.256-1.357,0-1.864,1.177-1.864,2.714v3.809H1140.7V705.925h2.648v5h.032a3.287,3.287,0,0,1,2.763-1.422c2.19,0,3.09,1.553,3.09,3.368v5.313H1146.6" transform="translate(-110.968 -12.812)"/>
    <path id="Path_376" data-name="Path 376" d="M1162.826,721.129c-2.8,0-4.725-1.766-4.725-4.414,0-2.812,2.043-4.463,4.725-4.463s4.74,1.651,4.74,4.463c0,2.648-1.929,4.414-4.74,4.414m0-6.949c-1.39,0-1.979,1.161-1.979,2.436,0,1.308.491,2.6,1.979,2.6s2.01-1.275,2.01-2.6C1164.837,715.341,1164.216,714.18,1162.826,714.18Z" transform="translate(-118.519 -15.558)"/>
    <rect id="Rectangle_175" data-name="Rectangle 175" width="2.648" height="12.262" transform="translate(1050.332 693.113)"/>
    <path id="Path_377" data-name="Path 377" d="M1196.332,720.932v-4.757c0-.9-.213-1.765-1.21-1.765-1.21,0-1.651,1.193-1.651,2.73v3.793h-2.648v-4.757c0-.9-.212-1.765-1.21-1.765-1.21,0-1.651,1.193-1.651,2.73v3.793h-2.648v-8.485h2.436v1.422h.033a3.122,3.122,0,0,1,2.861-1.619,2.615,2.615,0,0,1,2.6,1.586,3.17,3.17,0,0,1,2.86-1.586c2.3,0,2.878,1.406,2.878,3.548v5.133h-2.649" transform="translate(-130.328 -15.558)"/>
    <path id="Path_378" data-name="Path 378" d="M978.723,717.482c.131,1.243,1.063,1.832,2.469,1.832a5.57,5.57,0,0,0,2.681-.736v1.962a7.215,7.215,0,0,1-3.041.589c-2.8,0-4.725-1.635-4.725-4.43a4.109,4.109,0,0,1,4.3-4.447c3.073,0,4.185,2.109,4.185,4.692v.539h-5.869m1.749-3.465a1.762,1.762,0,0,0-1.765,1.863h3.449C982.124,714.867,981.666,714.017,980.472,714.017Z" transform="translate(-39.538 -15.558)"/>
    <path id="Path_379" data-name="Path 379" d="M996.939,724.562a8.645,8.645,0,0,1-3.106-.556l.164-2.141a5.867,5.867,0,0,0,2.7.719,2.3,2.3,0,0,0,2.583-2.6v-.458h-.032a3.215,3.215,0,0,1-2.763,1.406c-2.4,0-3.646-1.848-3.646-4.267,0-2.338,1.128-4.414,3.728-4.414a3.149,3.149,0,0,1,2.779,1.586h.033v-1.39h2.436V720c0,3.008-1.406,4.561-4.872,4.561m.425-10.267c-1.259,0-1.782,1.128-1.782,2.338,0,1.259.7,2.273,1.733,2.273,1.177,0,1.913-1.014,1.913-2.355C999.228,715.407,998.671,714.295,997.364,714.295Z" transform="translate(-46.798 -15.558)"/>
  </g>
</svg>
