<?xml version="1.0" encoding="utf-8"?>
<!-- Generator: Adobe Illustrator 26.3.1, SVG Export Plug-In . SVG Version: 6.00 Build 0)  -->
<svg version="1.1" id="Lager_1" xmlns="http://www.w3.org/2000/svg" xmlns:xlink="http://www.w3.org/1999/xlink" x="0px" y="0px"
	 viewBox="0 0 159 159" style="enable-background:new 0 0 159 159;" xml:space="preserve">
<style type="text/css">
	.st0{fill:#E0DED9;}
	.st1{fill:#FFFFFF;}
	.st2{clip-path:url(#SVGID_00000060750998953278646070000016005984529546645684_);}
	.st3{clip-path:url(#SVGID_00000054971215400467471800000006456137950808588984_);}
	.st4{fill:#DB8F6D;}
	.st5{clip-path:url(#SVGID_00000041998031257816277240000014067212281810299071_);}
	.st6{fill:#CE876B;}
	.st7{clip-path:url(#SVGID_00000164503654339149113770000001845052689707495604_);}
	.st8{fill:#D89C84;}
	.st9{clip-path:url(#SVGID_00000051384591927448391790000015816152512512570776_);}
	.st10{clip-path:url(#SVGID_00000158737071438724004000000006254691496527852191_);}
	.st11{clip-path:url(#SVGID_00000065755026604137089150000011792416514144704437_);}
	.st12{clip-path:url(#SVGID_00000082353103162805295450000005422673505294961542_);}
</style>
<g id="Group_514" transform="translate(-2365.266 -7792.584)">
	<circle id="Ellipse_44" class="st0" cx="2444.7" cy="7872.1" r="79.5"/>
	<circle id="Ellipse_47-2" class="st1" cx="2444.7" cy="7872.1" r="79.5"/>
	<g id="Group_493" transform="translate(2365.266 7792.584)">
		<g id="Group_1408" transform="translate(0 0)">
			<g>
				<defs>
					<circle id="SVGID_1_" cx="79.5" cy="79.5" r="79.5"/>
				</defs>
				<clipPath id="SVGID_00000120552355757033716890000001841568274722362021_">
					<use xlink:href="#SVGID_1_"  style="overflow:visible;"/>
				</clipPath>
				<g id="Group_1407" style="clip-path:url(#SVGID_00000120552355757033716890000001841568274722362021_);">
					<g id="Group_5888" transform="translate(-33.077 9.014)">
						<g id="Group_5889">
							<g>
								<defs>
									<rect id="SVGID_00000166648049625808021960000012911053816096554889_" x="0" y="0" width="170.2" height="128.1"/>
								</defs>
								<clipPath id="SVGID_00000076590711726648324410000001629992338712141187_">
									<use xlink:href="#SVGID_00000166648049625808021960000012911053816096554889_"  style="overflow:visible;"/>
								</clipPath>
								<g id="Group_5888-2" style="clip-path:url(#SVGID_00000076590711726648324410000001629992338712141187_);">
									<path id="Path_5528" class="st4" d="M64.7,69.6c0,0-36.3-1.6-62.5-10.3C1.5,59.1,0.7,59,0,58.8v64.5c2.4,0,4.7-0.1,7.1-0.1
										c24.6,0,55.7-3.7,55.7-3.7S61.6,84.7,64.7,69.6"/>
									<path id="Path_5529" class="st4" d="M64.7,69.6l23.5-0.5c0,0,12.5-13.4,15.8-17.3s9.6-16.8,12.5-19.2s11.5-15.8,12.5-18.7
										s2.7-12.6,4.2-13.6s7.3-1,9.7,7.3c1.7,6.1,2.4,18.2-9.1,29.7l1.4,12.9l8.1,4.3c0,0,19.6,2.9,21.6,3.4s5.8,3.4,5.3,7.7
										c-0.5,3.1-1.7,6-3.4,8.6c0,0,2.4,2.4,2.4,7.2s-3.4,9.6-3.4,9.6s2.4,1.9,1.9,6.7s-4.8,9.1-4.8,9.1c0.3,2.2,0.4,4.5,0.5,6.7
										c0,2.9-10.1,11-12,12c-3.4,1.3-6.9,2.1-10.5,2.4H116c-3.8,0-18.3-8.5-22.6-9s-45.8,1-45.8,1L64.7,69.6z"/>
								</g>
							</g>
						</g>
						<g id="Group_5891" transform="translate(120.279 0.583)">
							<g>
								<defs>
									<path id="SVGID_00000123404467956788508090000016064314106173845689_" d="M14.9,23.5C12.5,27.8,0,46.5,0,46.5
										c4.8-1,19.2,5.7,19.2,5.7s-4.8-5.7-4.8-7.6s3.8-9.2,5.6-12.6c4.6-9.1,5-15.3,3.5-22c-2.1-9.4-6.1-9.6-6.2-9.9
										C21.1,11.5,17.3,19.2,14.9,23.5"/>
								</defs>
								<clipPath id="SVGID_00000011734146516017961110000004938125140293037753_">
									<use xlink:href="#SVGID_00000123404467956788508090000016064314106173845689_"  style="overflow:visible;"/>
								</clipPath>
								<g id="Group_5890" style="clip-path:url(#SVGID_00000011734146516017961110000004938125140293037753_);">
									
										<rect id="Rectangle_1251" x="-16" y="0.8" transform="matrix(0.5778 -0.8162 0.8162 0.5778 -16.0188 21.1981)" class="st6" width="57" height="50.5"/>
								</g>
							</g>
						</g>
						<g id="Group_5893">
							<g>
								<defs>
									<rect id="SVGID_00000060740932798333026860000014435705921858000566_" x="0" y="0" width="170.2" height="128.1"/>
								</defs>
								<clipPath id="SVGID_00000058554429052296355280000009847660587759746189_">
									<use xlink:href="#SVGID_00000060740932798333026860000014435705921858000566_"  style="overflow:visible;"/>
								</clipPath>
								<g id="Group_5892" style="clip-path:url(#SVGID_00000058554429052296355280000009847660587759746189_);">
									<path id="Path_5531" class="st8" d="M132.9,0.3c-2.7,1.3-4,13.7-4,13.7s6.2,3,6.7-2.7S135.6-1,132.9,0.3"/>
								</g>
							</g>
						</g>
						<g id="Group_5895" transform="translate(140.614 71.515)">
							<g>
								<defs>
									<path id="SVGID_00000069357262510393290350000010468875056960636833_" d="M0,5c-0.6,1.4,25.4-2.2,25.4-2.2
										c1-0.7,1.8-1.7,2.2-2.9C26.1,0.2,0.6,3.6,0,5"/>
								</defs>
								<clipPath id="SVGID_00000008137139504382032030000009218184203402619315_">
									<use xlink:href="#SVGID_00000069357262510393290350000010468875056960636833_"  style="overflow:visible;"/>
								</clipPath>
								<g id="Group_5894" style="clip-path:url(#SVGID_00000008137139504382032030000009218184203402619315_);">
									<rect id="Rectangle_1253" x="-0.6" y="0" class="st6" width="28.3" height="6.5"/>
								</g>
							</g>
						</g>
						<g id="Group_5897" transform="translate(142.553 88.438)">
							<g>
								<defs>
									<path id="SVGID_00000129912729785225688730000003399039471792840092_" d="M0,7.5c0.3,1,23-4.8,23-4.8
										C23.7,1.9,24.2,1,24.6,0C24.6,0-0.3,6.5,0,7.5"/>
								</defs>
								<clipPath id="SVGID_00000140717082487856917950000012514414455098270081_">
									<use xlink:href="#SVGID_00000129912729785225688730000003399039471792840092_"  style="overflow:visible;"/>
								</clipPath>
								
									<g id="Group_5896" transform="translate(0)" style="clip-path:url(#SVGID_00000140717082487856917950000012514414455098270081_);">
									<rect id="Rectangle_1254" x="-0.3" y="0" class="st6" width="25" height="8.6"/>
								</g>
							</g>
						</g>
						<g id="Group_5899" transform="translate(143.267 103.761)">
							<g>
								<defs>
									<path id="SVGID_00000157282987840867048980000017853925441692286358_" d="M0,9.7c-0.2,0.9,19.2-6.5,19.2-6.5
										c1.1-0.9,2.1-2,2.8-3.2C22,0,0.2,8.8,0,9.7"/>
								</defs>
								<clipPath id="SVGID_00000163768494903010705690000017566504708508209592_">
									<use xlink:href="#SVGID_00000157282987840867048980000017853925441692286358_"  style="overflow:visible;"/>
								</clipPath>
								<g id="Group_5898" style="clip-path:url(#SVGID_00000163768494903010705690000017566504708508209592_);">
									<rect id="Rectangle_1255" x="-0.2" y="0" class="st6" width="22.2" height="10.6"/>
								</g>
							</g>
						</g>
						<g id="Group_5901" transform="translate(0 112.407)">
							<g>
								<defs>
									<path id="SVGID_00000044178887364174938290000015082011523500684430_" d="M0,2.6v10.1C30.2,11,92.1,7.5,92.1,7.5
										s1.5,0,1.8,0c3.4,0.5,15.5,7,21.6,8.1C113.9,14.2,94.4,1.3,93,0.3C91.2,0,89.5-0.1,87.8,0l0,0C87.8,0,41.9,1.5,0,2.6"/>
								</defs>
								<clipPath id="SVGID_00000002357287634103031920000016617524590166389392_">
									<use xlink:href="#SVGID_00000044178887364174938290000015082011523500684430_"  style="overflow:visible;"/>
								</clipPath>
								<g id="Group_5900" style="clip-path:url(#SVGID_00000002357287634103031920000016617524590166389392_);">
									
										<rect id="Rectangle_1256" x="-0.1" y="-0.7" transform="matrix(0.9999 -1.299890e-02 1.299890e-02 0.9999 -9.690129e-02 0.7513)" class="st6" width="115.7" height="17.2"/>
								</g>
							</g>
						</g>
					</g>
				</g>
			</g>
		</g>
	</g>
</g>
</svg>
