<svg xmlns="http://www.w3.org/2000/svg" width="11.947" height="20.31" viewBox="0 0 11.947 20.31">
  <g id="Group_24" data-name="Group 24" transform="translate(0 0)">
    <g id="Group_23" data-name="Group 23" transform="translate(0 0)">
      <path id="Path_55" data-name="Path 55" d="M102.323,1067.92a5.98,5.98,0,0,0-5.974,5.974v8.362a5.974,5.974,0,1,0,11.947,0v-8.362A5.98,5.98,0,0,0,102.323,1067.92Zm4.755,14.335a4.755,4.755,0,1,1-9.51,0v-8.362a4.755,4.755,0,0,1,9.51,0Z" transform="translate(-96.349 -1067.92)"/>
      <path id="Path_56" data-name="Path 56" d="M104.292,1073.444a.609.609,0,0,0-.609.609v2.8a.609.609,0,0,0,1.219,0v-2.8A.609.609,0,0,0,104.292,1073.444Z" transform="translate(-98.319 -1069.404)"/>
    </g>
  </g>
</svg>
