<svg width="176" height="18" viewBox="0 0 176 18" fill="none" xmlns="http://www.w3.org/2000/svg">
<path d="M11.571 1.961H9.021L5.961 10.869L2.952 1.961H0.283005L4.43101 13.3H7.33801L11.571 1.961Z" fill="black"/>
<path d="M16.8506 2.233C16.8506 1.298 16.0686 0.549999 15.1336 0.549999C14.1816 0.549999 13.3996 1.298 13.3996 2.233C13.3996 3.185 14.1986 3.933 15.1336 3.933C16.0686 3.933 16.8506 3.168 16.8506 2.233ZM18.9416 13.3C18.8736 12.722 18.8566 12.161 18.8566 11.294V7.911C18.8566 5.412 17.2076 4.596 14.9126 4.596C13.9776 4.596 12.8046 4.834 11.9206 5.14L12.0226 6.721C12.8216 6.245 13.7396 6.041 14.6066 6.041C15.8476 6.041 16.5956 6.551 16.5956 7.741V8.03C16.2726 8.013 15.8816 7.996 15.5756 7.996C13.1786 7.996 11.0026 8.761 11.0026 11.022C11.0026 12.722 12.3286 13.487 13.8926 13.487C14.9806 13.487 16.0346 12.892 16.6126 11.974L16.6636 13.3H18.9416ZM16.0346 2.233C16.0346 2.743 15.6436 3.151 15.1336 3.151C14.6406 3.151 14.2156 2.743 14.2156 2.233C14.2156 1.74 14.6236 1.332 15.1336 1.332C15.6436 1.332 16.0346 1.74 16.0346 2.233ZM16.5956 9.662C16.5956 10.92 16.0856 12.025 14.6576 12.025C13.9436 12.025 13.2466 11.685 13.2466 10.852C13.2466 9.373 15.0996 9.237 16.2896 9.237H16.5956V9.662Z" fill="black"/>
<path d="M26.164 4.664C25.943 4.596 25.722 4.579 25.484 4.579C24.328 4.579 23.478 5.497 23.087 6.432L23.036 4.783H20.826C20.894 5.412 20.911 6.041 20.911 6.67V13.3H23.257V9.492C23.257 8.166 23.784 6.653 25.365 6.653C25.603 6.653 25.858 6.687 26.096 6.772L26.164 4.664Z" fill="black"/>
<path d="M35.095 13.3C35.044 12.603 35.027 11.889 35.027 10.92V1.043H32.681V6.177C32.256 5.174 31.185 4.596 30.114 4.596C27.547 4.596 26.544 6.721 26.544 8.999C26.544 11.294 27.513 13.487 30.131 13.487C31.304 13.487 32.307 12.977 32.834 11.906L32.919 13.3H35.095ZM32.732 9.016C32.732 10.189 32.358 11.855 30.896 11.855C29.366 11.855 29.06 10.24 29.06 9.016C29.06 7.792 29.349 6.245 30.879 6.245C32.358 6.245 32.732 7.826 32.732 9.016Z" fill="black"/>
<path d="M44.9674 13.3V7.758C44.9674 5.82 44.1174 4.596 42.1114 4.596C40.9384 4.596 40.0034 5.123 39.4934 6.177V1.043H37.1474V13.3H39.4934V8.574C39.4934 7.469 39.8844 6.279 41.1934 6.279C42.4514 6.279 42.6214 7.282 42.6214 8.302V13.3H44.9674Z" fill="black"/>
<path d="M54.5037 4.766H52.1917L50.4407 11.345L48.6047 4.766H46.1227L49.1997 13.555L49.0467 14.031C48.8597 14.592 48.3497 15.51 47.5677 15.51C47.2447 15.51 46.9387 15.442 46.6327 15.34L46.5307 16.955C47.1257 17.074 47.5507 17.159 48.2137 17.159C50.3047 17.159 50.9847 15.459 51.3757 14.269L54.5037 4.766Z" fill="black"/>
<path d="M63.6315 12.756V4.766H61.3535V6.177C60.8265 5.106 59.8235 4.596 58.6505 4.596C56.1345 4.596 55.1485 6.721 55.1485 8.999C55.1485 11.158 56.1345 13.3 58.6165 13.3C59.7045 13.3 60.7075 12.756 61.2855 11.838V12.756C61.2855 14.473 60.4185 15.544 58.5485 15.544C57.6305 15.544 56.7295 15.323 55.9475 14.915L55.8455 16.7C56.8825 17.023 57.9705 17.159 59.0585 17.159C61.9315 17.159 63.6315 15.68 63.6315 12.756ZM61.3365 9.016C61.3365 10.172 60.9455 11.668 59.4835 11.668C57.9705 11.668 57.6645 10.172 57.6645 9.016C57.6645 7.792 57.9535 6.245 59.4835 6.245C60.9625 6.245 61.3365 7.826 61.3365 9.016Z" fill="black"/>
<path d="M68.0979 3.185V1.298H65.7519V3.185H68.0979ZM68.0979 13.3V4.766H65.7519V13.3H68.0979Z" fill="black"/>
<path d="M77.7147 9.628V9.101C77.7147 6.517 76.6267 4.596 73.8897 4.596C71.4247 4.596 69.7247 6.466 69.7247 8.999C69.7247 11.821 71.2717 13.487 74.1277 13.487C75.1477 13.487 76.3207 13.368 77.2727 13.028L77.1707 11.447C76.4567 11.838 75.4197 12.025 74.6037 12.025C73.1587 12.025 72.0707 11.107 72.0537 9.628H77.7147ZM75.5727 8.37H72.0537C72.0537 7.367 72.5977 6.007 73.9067 6.007C75.1987 6.007 75.5727 7.299 75.5727 8.37Z" fill="black"/>
<path d="M87.1353 13.3V7.775C87.1353 5.82 86.3023 4.596 84.2453 4.596C83.0553 4.596 82.0353 5.123 81.4743 6.194L81.4403 4.766H79.2303C79.2983 5.395 79.3153 6.041 79.3153 6.67V13.3H81.6613V8.591C81.6613 7.469 82.0353 6.279 83.3613 6.279C84.6193 6.279 84.7893 7.299 84.7893 8.319V13.3H87.1353Z" fill="black"/>
<path d="M101.924 10.036C101.924 8.268 100.819 7.469 99.3227 6.891L98.0987 6.415C97.3507 6.126 96.3647 5.701 96.3647 4.919C96.3647 3.797 97.6737 3.525 98.6087 3.525C99.4757 3.525 100.428 3.678 101.227 4.018L101.312 2.148C100.377 1.893 99.4247 1.791 98.4557 1.791C96.3817 1.791 93.8487 2.573 93.8487 5.038C93.8487 6.585 94.8687 7.367 96.1947 7.962L97.3507 8.472C98.1667 8.829 99.3737 9.288 99.3737 10.155C99.3737 11.362 98.2517 11.736 97.1977 11.736C96.0927 11.736 95.0047 11.566 94.0187 11.056L93.9337 12.994C95.0557 13.351 96.2457 13.487 97.4187 13.487C99.6457 13.487 101.924 12.518 101.924 10.036Z" fill="black"/>
<path d="M108.453 13.164L108.385 11.6C108.096 11.719 107.773 11.787 107.45 11.787C106.617 11.787 106.43 11.209 106.43 10.495V6.313H108.334V4.766H106.43V2.267L104.084 3.032V4.766H102.554V6.313H104.084V10.461C104.084 12.246 104.56 13.487 106.498 13.487C107.144 13.487 107.841 13.368 108.453 13.164Z" fill="black"/>
<path d="M118.311 8.999C118.311 6.177 116.594 4.596 113.84 4.596C111.222 4.596 109.369 6.211 109.369 8.999C109.369 11.736 111.018 13.487 113.84 13.487C116.611 13.487 118.311 11.753 118.311 8.999ZM115.795 8.999C115.795 10.427 115.319 11.889 113.84 11.889C112.378 11.889 111.885 10.41 111.885 8.999C111.885 7.707 112.361 6.194 113.84 6.194C115.37 6.194 115.795 7.69 115.795 8.999Z" fill="black"/>
<path d="M126.484 13.13L126.399 11.464C125.821 11.753 125.209 11.889 124.563 11.889C122.88 11.889 121.962 10.58 121.962 8.999C121.962 7.367 122.931 6.194 124.614 6.194C125.226 6.194 125.821 6.364 126.365 6.619L126.467 4.953C125.685 4.715 124.852 4.596 124.036 4.596C121.333 4.596 119.446 6.245 119.446 8.999C119.446 11.787 121.18 13.487 123.968 13.487C124.818 13.487 125.668 13.402 126.484 13.13Z" fill="black"/>
<path d="M136.541 13.3L132.733 8.574L136.201 4.766H133.464L130.37 8.268V1.043H128.024V13.3H130.37V8.965L133.685 13.3H136.541Z" fill="black"/>
<path d="M145.49 13.3V7.758C145.49 5.82 144.64 4.596 142.634 4.596C141.461 4.596 140.526 5.123 140.016 6.177V1.043H137.67V13.3H140.016V8.574C140.016 7.469 140.407 6.279 141.716 6.279C142.974 6.279 143.144 7.282 143.144 8.302V13.3H145.49Z" fill="black"/>
<path d="M156.063 8.999C156.063 6.177 154.346 4.596 151.592 4.596C148.974 4.596 147.121 6.211 147.121 8.999C147.121 11.736 148.77 13.487 151.592 13.487C154.363 13.487 156.063 11.753 156.063 8.999ZM153.547 8.999C153.547 10.427 153.071 11.889 151.592 11.889C150.13 11.889 149.637 10.41 149.637 8.999C149.637 7.707 150.113 6.194 151.592 6.194C153.122 6.194 153.547 7.69 153.547 8.999Z" fill="black"/>
<path d="M160.037 13.3V1.043H157.691V13.3H160.037Z" fill="black"/>
<path d="M174.941 13.3V7.775C174.941 5.905 174.193 4.596 172.17 4.596C171.082 4.596 169.96 5.225 169.535 6.279C169.229 5.293 168.294 4.596 167.002 4.596C165.795 4.596 164.843 5.14 164.316 6.194L164.282 4.766H162.072C162.14 5.395 162.157 6.041 162.157 6.67V13.3H164.503V8.574C164.503 7.486 164.894 6.279 166.084 6.279C167.138 6.279 167.376 7.078 167.376 7.979V13.3H169.705V8.574C169.705 7.486 170.096 6.279 171.286 6.279C172.34 6.279 172.595 7.078 172.595 7.979V13.3H174.941Z" fill="black"/>
<path d="M11.571 1.961H9.021L5.961 10.869L2.952 1.961H0.283005L4.43101 13.3H7.33801L11.571 1.961Z" stroke="black" stroke-width="0.3"/>
<path d="M16.8506 2.233C16.8506 1.298 16.0686 0.549999 15.1336 0.549999C14.1816 0.549999 13.3996 1.298 13.3996 2.233C13.3996 3.185 14.1986 3.933 15.1336 3.933C16.0686 3.933 16.8506 3.168 16.8506 2.233ZM18.9416 13.3C18.8736 12.722 18.8566 12.161 18.8566 11.294V7.911C18.8566 5.412 17.2076 4.596 14.9126 4.596C13.9776 4.596 12.8046 4.834 11.9206 5.14L12.0226 6.721C12.8216 6.245 13.7396 6.041 14.6066 6.041C15.8476 6.041 16.5956 6.551 16.5956 7.741V8.03C16.2726 8.013 15.8816 7.996 15.5756 7.996C13.1786 7.996 11.0026 8.761 11.0026 11.022C11.0026 12.722 12.3286 13.487 13.8926 13.487C14.9806 13.487 16.0346 12.892 16.6126 11.974L16.6636 13.3H18.9416ZM16.0346 2.233C16.0346 2.743 15.6436 3.151 15.1336 3.151C14.6406 3.151 14.2156 2.743 14.2156 2.233C14.2156 1.74 14.6236 1.332 15.1336 1.332C15.6436 1.332 16.0346 1.74 16.0346 2.233ZM16.5956 9.662C16.5956 10.92 16.0856 12.025 14.6576 12.025C13.9436 12.025 13.2466 11.685 13.2466 10.852C13.2466 9.373 15.0996 9.237 16.2896 9.237H16.5956V9.662Z" stroke="black" stroke-width="0.3"/>
<path d="M26.164 4.664C25.943 4.596 25.722 4.579 25.484 4.579C24.328 4.579 23.478 5.497 23.087 6.432L23.036 4.783H20.826C20.894 5.412 20.911 6.041 20.911 6.67V13.3H23.257V9.492C23.257 8.166 23.784 6.653 25.365 6.653C25.603 6.653 25.858 6.687 26.096 6.772L26.164 4.664Z" stroke="black" stroke-width="0.3"/>
<path d="M35.095 13.3C35.044 12.603 35.027 11.889 35.027 10.92V1.043H32.681V6.177C32.256 5.174 31.185 4.596 30.114 4.596C27.547 4.596 26.544 6.721 26.544 8.999C26.544 11.294 27.513 13.487 30.131 13.487C31.304 13.487 32.307 12.977 32.834 11.906L32.919 13.3H35.095ZM32.732 9.016C32.732 10.189 32.358 11.855 30.896 11.855C29.366 11.855 29.06 10.24 29.06 9.016C29.06 7.792 29.349 6.245 30.879 6.245C32.358 6.245 32.732 7.826 32.732 9.016Z" stroke="black" stroke-width="0.3"/>
<path d="M44.9674 13.3V7.758C44.9674 5.82 44.1174 4.596 42.1114 4.596C40.9384 4.596 40.0034 5.123 39.4934 6.177V1.043H37.1474V13.3H39.4934V8.574C39.4934 7.469 39.8844 6.279 41.1934 6.279C42.4514 6.279 42.6214 7.282 42.6214 8.302V13.3H44.9674Z" stroke="black" stroke-width="0.3"/>
<path d="M54.5037 4.766H52.1917L50.4407 11.345L48.6047 4.766H46.1227L49.1997 13.555L49.0467 14.031C48.8597 14.592 48.3497 15.51 47.5677 15.51C47.2447 15.51 46.9387 15.442 46.6327 15.34L46.5307 16.955C47.1257 17.074 47.5507 17.159 48.2137 17.159C50.3047 17.159 50.9847 15.459 51.3757 14.269L54.5037 4.766Z" stroke="black" stroke-width="0.3"/>
<path d="M63.6315 12.756V4.766H61.3535V6.177C60.8265 5.106 59.8235 4.596 58.6505 4.596C56.1345 4.596 55.1485 6.721 55.1485 8.999C55.1485 11.158 56.1345 13.3 58.6165 13.3C59.7045 13.3 60.7075 12.756 61.2855 11.838V12.756C61.2855 14.473 60.4185 15.544 58.5485 15.544C57.6305 15.544 56.7295 15.323 55.9475 14.915L55.8455 16.7C56.8825 17.023 57.9705 17.159 59.0585 17.159C61.9315 17.159 63.6315 15.68 63.6315 12.756ZM61.3365 9.016C61.3365 10.172 60.9455 11.668 59.4835 11.668C57.9705 11.668 57.6645 10.172 57.6645 9.016C57.6645 7.792 57.9535 6.245 59.4835 6.245C60.9625 6.245 61.3365 7.826 61.3365 9.016Z" stroke="black" stroke-width="0.3"/>
<path d="M68.0979 3.185V1.298H65.7519V3.185H68.0979ZM68.0979 13.3V4.766H65.7519V13.3H68.0979Z" stroke="black" stroke-width="0.3"/>
<path d="M77.7147 9.628V9.101C77.7147 6.517 76.6267 4.596 73.8897 4.596C71.4247 4.596 69.7247 6.466 69.7247 8.999C69.7247 11.821 71.2717 13.487 74.1277 13.487C75.1477 13.487 76.3207 13.368 77.2727 13.028L77.1707 11.447C76.4567 11.838 75.4197 12.025 74.6037 12.025C73.1587 12.025 72.0707 11.107 72.0537 9.628H77.7147ZM75.5727 8.37H72.0537C72.0537 7.367 72.5977 6.007 73.9067 6.007C75.1987 6.007 75.5727 7.299 75.5727 8.37Z" stroke="black" stroke-width="0.3"/>
<path d="M87.1353 13.3V7.775C87.1353 5.82 86.3023 4.596 84.2453 4.596C83.0553 4.596 82.0353 5.123 81.4743 6.194L81.4403 4.766H79.2303C79.2983 5.395 79.3153 6.041 79.3153 6.67V13.3H81.6613V8.591C81.6613 7.469 82.0353 6.279 83.3613 6.279C84.6193 6.279 84.7893 7.299 84.7893 8.319V13.3H87.1353Z" stroke="black" stroke-width="0.3"/>
<path d="M101.924 10.036C101.924 8.268 100.819 7.469 99.3227 6.891L98.0987 6.415C97.3507 6.126 96.3647 5.701 96.3647 4.919C96.3647 3.797 97.6737 3.525 98.6087 3.525C99.4757 3.525 100.428 3.678 101.227 4.018L101.312 2.148C100.377 1.893 99.4247 1.791 98.4557 1.791C96.3817 1.791 93.8487 2.573 93.8487 5.038C93.8487 6.585 94.8687 7.367 96.1947 7.962L97.3507 8.472C98.1667 8.829 99.3737 9.288 99.3737 10.155C99.3737 11.362 98.2517 11.736 97.1977 11.736C96.0927 11.736 95.0047 11.566 94.0187 11.056L93.9337 12.994C95.0557 13.351 96.2457 13.487 97.4187 13.487C99.6457 13.487 101.924 12.518 101.924 10.036Z" stroke="black" stroke-width="0.3"/>
<path d="M108.453 13.164L108.385 11.6C108.096 11.719 107.773 11.787 107.45 11.787C106.617 11.787 106.43 11.209 106.43 10.495V6.313H108.334V4.766H106.43V2.267L104.084 3.032V4.766H102.554V6.313H104.084V10.461C104.084 12.246 104.56 13.487 106.498 13.487C107.144 13.487 107.841 13.368 108.453 13.164Z" stroke="black" stroke-width="0.3"/>
<path d="M118.311 8.999C118.311 6.177 116.594 4.596 113.84 4.596C111.222 4.596 109.369 6.211 109.369 8.999C109.369 11.736 111.018 13.487 113.84 13.487C116.611 13.487 118.311 11.753 118.311 8.999ZM115.795 8.999C115.795 10.427 115.319 11.889 113.84 11.889C112.378 11.889 111.885 10.41 111.885 8.999C111.885 7.707 112.361 6.194 113.84 6.194C115.37 6.194 115.795 7.69 115.795 8.999Z" stroke="black" stroke-width="0.3"/>
<path d="M126.484 13.13L126.399 11.464C125.821 11.753 125.209 11.889 124.563 11.889C122.88 11.889 121.962 10.58 121.962 8.999C121.962 7.367 122.931 6.194 124.614 6.194C125.226 6.194 125.821 6.364 126.365 6.619L126.467 4.953C125.685 4.715 124.852 4.596 124.036 4.596C121.333 4.596 119.446 6.245 119.446 8.999C119.446 11.787 121.18 13.487 123.968 13.487C124.818 13.487 125.668 13.402 126.484 13.13Z" stroke="black" stroke-width="0.3"/>
<path d="M136.541 13.3L132.733 8.574L136.201 4.766H133.464L130.37 8.268V1.043H128.024V13.3H130.37V8.965L133.685 13.3H136.541Z" stroke="black" stroke-width="0.3"/>
<path d="M145.49 13.3V7.758C145.49 5.82 144.64 4.596 142.634 4.596C141.461 4.596 140.526 5.123 140.016 6.177V1.043H137.67V13.3H140.016V8.574C140.016 7.469 140.407 6.279 141.716 6.279C142.974 6.279 143.144 7.282 143.144 8.302V13.3H145.49Z" stroke="black" stroke-width="0.3"/>
<path d="M156.063 8.999C156.063 6.177 154.346 4.596 151.592 4.596C148.974 4.596 147.121 6.211 147.121 8.999C147.121 11.736 148.77 13.487 151.592 13.487C154.363 13.487 156.063 11.753 156.063 8.999ZM153.547 8.999C153.547 10.427 153.071 11.889 151.592 11.889C150.13 11.889 149.637 10.41 149.637 8.999C149.637 7.707 150.113 6.194 151.592 6.194C153.122 6.194 153.547 7.69 153.547 8.999Z" stroke="black" stroke-width="0.3"/>
<path d="M160.037 13.3V1.043H157.691V13.3H160.037Z" stroke="black" stroke-width="0.3"/>
<path d="M174.941 13.3V7.775C174.941 5.905 174.193 4.596 172.17 4.596C171.082 4.596 169.96 5.225 169.535 6.279C169.229 5.293 168.294 4.596 167.002 4.596C165.795 4.596 164.843 5.14 164.316 6.194L164.282 4.766H162.072C162.14 5.395 162.157 6.041 162.157 6.67V13.3H164.503V8.574C164.503 7.486 164.894 6.279 166.084 6.279C167.138 6.279 167.376 7.078 167.376 7.979V13.3H169.705V8.574C169.705 7.486 170.096 6.279 171.286 6.279C172.34 6.279 172.595 7.078 172.595 7.979V13.3H174.941Z" stroke="black" stroke-width="0.3"/>
</svg>
