<svg xmlns="http://www.w3.org/2000/svg" xmlns:xlink="http://www.w3.org/1999/xlink" width="269" height="269" viewBox="0 0 269 269">
  <defs>
    <clipPath id="clip-path">
      <circle id="Ellipse_46" data-name="Ellipse 46" cx="134.5" cy="134.5" r="134.5" fill="none"/>
    </clipPath>
  </defs>
  <g id="Group_5886" data-name="Group 5886" transform="translate(-214 -150)">
    <g id="Group_1824" data-name="Group 1824" transform="translate(214 150)">
      <circle id="Ellipse_46-2" data-name="Ellipse 46" cx="134.5" cy="134.5" r="134.5" fill="#e0ded9"/>
      <g id="Group_484" data-name="Group 484">
        <g id="Group_483" data-name="Group 483" transform="translate(0 0)" clip-path="url(#clip-path)">
          <g id="Group_480" data-name="Group 480" transform="translate(32.487 25.027)">
            <rect id="Rectangle_453" data-name="Rectangle 453" width="5.187" height="27.435" transform="translate(44.708 17.472)" fill="#f3c8cf"/>
            <rect id="Rectangle_454" data-name="Rectangle 454" width="7.006" height="27.435" transform="translate(49.895 17.472)" fill="#fff"/>
            <path id="Path_1101" data-name="Path 1101" d="M-1680.464,896.737a1.331,1.331,0,0,0-1.331,1.33v18.384a1.331,1.331,0,0,0,1.331,1.33h3.613V896.737Z" transform="translate(1715.577 -867.885)" fill="#f3c8cf"/>
            <path id="Path_1102" data-name="Path 1102" d="M-1650.308,896.737h-27.771v21.045h27.771a1.331,1.331,0,0,0,1.331-1.33V898.067A1.331,1.331,0,0,0-1650.308,896.737Z" transform="translate(1716.804 -867.885)" fill="#fff"/>
            <path id="Path_1103" data-name="Path 1103" d="M-1605.58,969.626a50.8,50.8,0,0,0-51.062-50.545,50.8,50.8,0,0,0-50.547,50.545v140.161a6.056,6.056,0,0,0,6.056,6.056h89.492a6.056,6.056,0,0,0,6.056-6.056h0Z" transform="translate(1707.188 -860.504)" fill="#fff"/>
            <path id="Rectangle_455" data-name="Rectangle 455" d="M-1681.5,902.486h35.756a3.794,3.794,0,0,1,3.794,3.794h0v19.2a3.792,3.792,0,0,1-3.793,3.793h-35.756a3.794,3.794,0,0,1-3.794-3.794v-19.2A3.793,3.793,0,0,1-1681.5,902.486Z" transform="translate(1714.422 -865.986)" fill="#e01d23"/>
            <path id="Path_1104" data-name="Path 1104" d="M-1602.7,885.946c-2.114-2.818-9.233-7.245-9.233-7.245-14.767-7.45-43.3-1.208-48.533-1.107s-16.5-2.315-16.5-2.315-4.523-.2-4.523,2.617a2.344,2.344,0,0,0,2.05,2.607,2.35,2.35,0,0,0,.466.009,4.043,4.043,0,0,1,3.825,3.925,5.771,5.771,0,0,0,4.432,4.731v3.811h13.189v-3.742a28.223,28.223,0,0,1,24.346-10.853c15.125,1.11,15.146.488,27.84,9.9A4.807,4.807,0,0,0-1602.7,885.946Z" transform="translate(1715.671 -875.05)" fill="#e01d23"/>
          </g>
          <g id="Group_485" data-name="Group 485" transform="translate(118.185 38.315)">
            <g id="Group_484-2" data-name="Group 484" transform="translate(0 0)">
              <g id="Group_483-2" data-name="Group 483" transform="translate(0.014)">
                <path id="Path_1105" data-name="Path 1105" d="M-1531.694,895.652a103.627,103.627,0,0,0-18.47-1.691,63.314,63.314,0,0,0-14.813,2.888c-8.089,2.588-12.214,5.224-21.029,6s-13.437.938-18.185,2.554-10.216,2.489-9.749,7.6,4.246,8.094,9.263,8.248a66.834,66.834,0,0,0,16.2-2.357c2.653-.849,7.184-1.322,8.133-.166s2.308,3.257,2.308,3.257,13.691-5.94,16.23-7.141,15.9-8.79,19.927-12.029S-1531.694,895.652-1531.694,895.652Z" transform="translate(1652.272 -882.09)" fill="#db9d7d"/>
                <path id="Path_1106" data-name="Path 1106" d="M-1457.931,928.248l-52.336,2.714s-28.973,17.26-42.2,23.441-20.089,10.323-27.014,10.592c0,0-28.407-2.911-35.35-8.763-7.119-6-19.249-19.955-20.96-24.086s-6.879-18.457-6.879-18.457-.987-2.169,3.485-3.38c0,0,1.263-3.4,6.153-2.432s7.74,3.176,9.434,13.644l2.755-11.795a6.226,6.226,0,0,1,6.141-.6c3.681,1.454,4.154,5.98,4.187,8.211a37.963,37.963,0,0,1-1.26,7.029s7.489,4.523,11.272,9.645c0,0,8.161-2.513,13.921-.653a23.287,23.287,0,0,1,15.084-7.067s11.248-7.789,17.442-10.355,11.2-8.847,19.646-12.913,18.344-7.233,24.956-5.454,51.339-12.529,51.339-12.529Z" transform="translate(1642.761 -885.038)" fill="#f0ae8c"/>
              </g>
              <path id="Path_1107" data-name="Path 1107" d="M-1626.164,904.453c.219-1.052,1.052-1.677,1.848-.954l.026.025c.685.649-.521,5.761-1.092,8a1.9,1.9,0,0,1-.355.627,1.451,1.451,0,0,1-1.96.607,1.469,1.469,0,0,1-.157-.1h0Z" transform="translate(1647.699 -879.042)" fill="#e0bdaf"/>
              <path id="Path_1108" data-name="Path 1108" d="M-1639.735,904.154s1.8,8.208,2.077,9.412,2.661,13.809,2.661,13.809l-1.711-3.866-4.445-11.959-1.517-4.179a1.475,1.475,0,0,1,.035-1.155,3.843,3.843,0,0,1,1.4-1.453A11.6,11.6,0,0,1-1639.735,904.154Z" transform="translate(1642.771 -878.723)" fill="#db9d7d"/>
              <path id="Path_1109" data-name="Path 1109" d="M-1640.526,904.512l2.016,8.046s.325.827.765-.841c.236-.9-1.555-7.876-1.555-7.876a.8.8,0,0,0-1.1.248A.8.8,0,0,0-1640.526,904.512Z" transform="translate(1643.513 -878.867)" fill="#e0bdaf"/>
              <path id="Path_1110" data-name="Path 1110" d="M-1627.09,914.292s-1.364,8-1.364,9.3,17.979,18.536,17.979,18.536-14.458-10.566-17.979-13.9-3.336-2.781-3.708-9.454S-1629.241,898.431-1627.09,914.292Z" transform="translate(1646.266 -877.81)" fill="#db9d7d"/>
            </g>
          </g>
        </g>
      </g>
    </g>
  </g>
</svg>
