<svg xmlns="http://www.w3.org/2000/svg" xmlns:xlink="http://www.w3.org/1999/xlink" width="268.201" height="268.201" viewBox="0 0 268.201 268.201">
  <defs>
    <clipPath id="clip-path">
      <circle id="Ellipse_47-2" data-name="Ellipse 47-2" cx="134.1" cy="134.1" r="134.1" transform="translate(250.4 183.688)" fill="#e0ded9"/>
    </clipPath>
    <clipPath id="clip-path-2">
      <rect id="Rectangle_1435" data-name="Rectangle 1435" width="423.059" height="268.2" fill="none"/>
    </clipPath>
    <clipPath id="clip-path-3">
      <path id="Path_5735" data-name="Path 5735" d="M95.381,134.1A134.1,134.1,0,1,0,229.481,0a134.1,134.1,0,0,0-134.1,134.1" fill="none"/>
    </clipPath>
    <clipPath id="clip-path-4">
      <rect id="Rectangle_1397" data-name="Rectangle 1397" width="100.665" height="133.546" transform="translate(213.498 72.812)" fill="none"/>
    </clipPath>
    <clipPath id="clip-path-5">
      <rect id="Rectangle_1399" data-name="Rectangle 1399" width="65.827" height="21.042" transform="translate(248.336 156.046)" fill="none"/>
    </clipPath>
    <clipPath id="clip-path-6">
      <rect id="Rectangle_1400" data-name="Rectangle 1400" width="55.531" height="57.28" transform="translate(253.484 92.816)" fill="none"/>
    </clipPath>
    <clipPath id="clip-path-8">
      <rect id="Rectangle_1402" data-name="Rectangle 1402" width="46.459" height="42.586" transform="translate(259.029 102.684)" fill="none"/>
    </clipPath>
    <clipPath id="clip-path-9">
      <rect id="Rectangle_1401" data-name="Rectangle 1401" width="46.458" height="42.578" transform="translate(259.03 102.688)" fill="none"/>
    </clipPath>
    <clipPath id="clip-path-10">
      <rect id="Rectangle_1404" data-name="Rectangle 1404" width="56.417" height="6.504" transform="translate(253.783 76.366)" fill="none"/>
    </clipPath>
    <clipPath id="clip-path-12">
      <rect id="Rectangle_1407" data-name="Rectangle 1407" width="10.079" height="4.437" transform="translate(268.459 77.364)" fill="none"/>
    </clipPath>
    <clipPath id="clip-path-14">
      <rect id="Rectangle_1409" data-name="Rectangle 1409" width="26.042" height="4.485" transform="translate(280.797 77.318)" fill="none"/>
    </clipPath>
    <clipPath id="clip-path-15">
      <rect id="Rectangle_1408" data-name="Rectangle 1408" width="26.042" height="4.482" transform="translate(280.797 77.319)" fill="none"/>
    </clipPath>
    <clipPath id="clip-path-16">
      <rect id="Rectangle_1411" data-name="Rectangle 1411" width="10.079" height="4.438" transform="translate(256.504 77.363)" fill="none"/>
    </clipPath>
    <clipPath id="clip-path-17">
      <rect id="Rectangle_1410" data-name="Rectangle 1410" width="10.079" height="4.437" transform="translate(256.504 77.364)" fill="none"/>
    </clipPath>
    <clipPath id="clip-path-18">
      <rect id="Rectangle_1414" data-name="Rectangle 1414" width="10.079" height="2.391" transform="translate(283.178 78.55)" fill="none"/>
    </clipPath>
    <clipPath id="clip-path-19">
      <rect id="Rectangle_1415" data-name="Rectangle 1415" width="5.982" height="5.506" transform="translate(278.209 95.106)" fill="none"/>
    </clipPath>
    <clipPath id="clip-path-21">
      <rect id="Rectangle_1417" data-name="Rectangle 1417" width="102.004" height="26.307" transform="translate(130.66 95.497)" fill="none"/>
    </clipPath>
    <clipPath id="clip-path-22">
      <rect id="Rectangle_1424" data-name="Rectangle 1424" width="106.023" height="111.242" transform="translate(129.675 95.497)" fill="none"/>
    </clipPath>
    <clipPath id="clip-path-23">
      <rect id="Rectangle_1419" data-name="Rectangle 1419" width="45" height="23.077" transform="translate(130.66 97.306)" fill="none"/>
    </clipPath>
    <clipPath id="clip-path-24">
      <rect id="Rectangle_1418" data-name="Rectangle 1418" width="44.996" height="23.077" transform="translate(130.66 97.306)" fill="none"/>
    </clipPath>
    <clipPath id="clip-path-25">
      <rect id="Rectangle_1421" data-name="Rectangle 1421" width="102.004" height="26.308" transform="translate(130.66 95.497)" fill="none"/>
    </clipPath>
    <clipPath id="clip-path-27">
      <rect id="Rectangle_1425" data-name="Rectangle 1425" width="69.416" height="10.047" transform="translate(166.281 117.675)" fill="none"/>
    </clipPath>
    <clipPath id="clip-path-28">
      <rect id="Rectangle_1428" data-name="Rectangle 1428" width="106.023" height="96.804" transform="translate(129.675 95.497)" fill="none"/>
    </clipPath>
    <clipPath id="clip-path-29">
      <rect id="Rectangle_1427" data-name="Rectangle 1427" width="40.377" height="5.844" transform="translate(180.605 119.777)" fill="none"/>
    </clipPath>
    <clipPath id="clip-path-30">
      <rect id="Rectangle_1426" data-name="Rectangle 1426" width="40.376" height="5.844" transform="translate(180.605 119.777)" fill="none"/>
    </clipPath>
    <clipPath id="clip-path-31">
      <rect id="Rectangle_1429" data-name="Rectangle 1429" width="13.025" height="2.928" transform="translate(203.033 121.235)" fill="none"/>
    </clipPath>
  </defs>
  <g id="Mask_Group_21" data-name="Mask Group 21" transform="translate(-250.4 -183.688)" clip-path="url(#clip-path)">
    <g id="Group_6834" data-name="Group 6834">
      <g id="Group_514" data-name="Group 514" transform="translate(-2114.866 -7608.941)">
        <circle id="Ellipse_44" data-name="Ellipse 44" cx="134.1" cy="134.1" r="134.1" transform="translate(2365.266 7792.63)" fill="#e0ded9"/>
        <circle id="Ellipse_47-2-2" data-name="Ellipse 47-2" cx="134.1" cy="134.1" r="134.1" transform="translate(2365.266 7792.63)" fill="#e0ded9"/>
      </g>
      <g id="Group_6207" data-name="Group 6207" transform="translate(155 183.688)">
        <g id="Group_6206" data-name="Group 6206" clip-path="url(#clip-path-2)">
          <g id="Group_6140" data-name="Group 6140">
            <g id="Group_6139" data-name="Group 6139" clip-path="url(#clip-path-3)">
              <rect id="Rectangle_1385" data-name="Rectangle 1385" width="5.683" height="78.192" transform="translate(274.977 128.655)" fill="#c3d1d4"/>
              <rect id="Rectangle_1386" data-name="Rectangle 1386" width="5.683" height="78.192" transform="translate(271.76 128.655)" fill="#e7e7e7"/>
              <rect id="Rectangle_1387" data-name="Rectangle 1387" width="5.683" height="78.192" transform="translate(363.145 128.655)" fill="#c3d1d4"/>
              <rect id="Rectangle_1388" data-name="Rectangle 1388" width="5.683" height="78.192" transform="translate(359.928 128.655)" fill="#e7e7e7"/>
              <rect id="Rectangle_1389" data-name="Rectangle 1389" width="5.683" height="78.192" transform="translate(321.279 128.655)" fill="#c3d1d4"/>
              <rect id="Rectangle_1390" data-name="Rectangle 1390" width="5.683" height="78.192" transform="translate(318.062 128.655)" fill="#e7e7e7"/>
              <rect id="Rectangle_1391" data-name="Rectangle 1391" width="65.318" height="8.021" transform="translate(263.83 123.974)" fill="#9f9f9f"/>
              <rect id="Rectangle_1392" data-name="Rectangle 1392" width="94.331" height="8.021" transform="translate(328.728 123.974)" fill="#c0c2bd"/>
            </g>
          </g>
          <g id="Group_6142" data-name="Group 6142">
            <g id="Group_6141" data-name="Group 6141" clip-path="url(#clip-path-4)">
              <rect id="Rectangle_1393" data-name="Rectangle 1393" width="35.706" height="29.443" transform="translate(213.498 176.915)" fill="#e7e7e7"/>
              <rect id="Rectangle_1394" data-name="Rectangle 1394" width="35.706" height="104.276" transform="translate(213.498 72.812)" fill="#e7e7e7"/>
              <line id="Line_129" data-name="Line 129" x1="36.387" transform="translate(213.498 177.082)" fill="none" stroke="#c0c2bd" stroke-miterlimit="10" stroke-width="1"/>
              <rect id="Rectangle_1395" data-name="Rectangle 1395" width="65.827" height="29.443" transform="translate(248.336 176.915)" fill="#c3d1d4"/>
              <rect id="Rectangle_1396" data-name="Rectangle 1396" width="65.827" height="82.925" transform="translate(248.336 72.812)" fill="#c3d1d4"/>
            </g>
          </g>
          <g id="Group_6144" data-name="Group 6144">
            <g id="Group_6143" data-name="Group 6143" clip-path="url(#clip-path-5)">
              <rect id="Rectangle_1398" data-name="Rectangle 1398" width="65.827" height="21.041" transform="translate(248.336 156.046)" fill="#3175ae"/>
            </g>
            <rect id="Rectangle_1436" data-name="Rectangle 1436" width="284" height="66" transform="translate(100 206.312)" fill="#fff" opacity="0.552"/>
          </g>
          <g id="Group_6146" data-name="Group 6146">
            <g id="Group_6145" data-name="Group 6145" clip-path="url(#clip-path-6)">
              <path id="Path_5736" data-name="Path 5736" d="M257.522,150.093h47.455a3.866,3.866,0,0,0,4.038-3.667V96.483a3.866,3.866,0,0,0-4.038-3.667H257.522a3.866,3.866,0,0,0-4.038,3.667v49.946a3.866,3.866,0,0,0,4.038,3.664" fill="#444"/>
            </g>
          </g>
          <g id="Group_6153" data-name="Group 6153">
            <g id="Group_6152" data-name="Group 6152" clip-path="url(#clip-path-4)">
              <g id="Group_6151" data-name="Group 6151" opacity="0.2">
                <g id="Group_6150" data-name="Group 6150">
                  <g id="Group_6149" data-name="Group 6149" clip-path="url(#clip-path-8)">
                    <g id="Group_6148" data-name="Group 6148">
                      <g id="Group_6147" data-name="Group 6147" clip-path="url(#clip-path-9)">
                        <path id="Path_5737" data-name="Path 5737" d="M263.068,145.266H301.45a3.865,3.865,0,0,0,4.038-3.671v-35.24a3.866,3.866,0,0,0-4.038-3.667H263.068a3.866,3.866,0,0,0-4.039,3.667V141.6a3.865,3.865,0,0,0,4.038,3.667" fill="#fff"/>
                      </g>
                    </g>
                  </g>
                </g>
              </g>
              <line id="Line_130" data-name="Line 130" x1="36.387" transform="translate(213.498 86.832)" fill="none" stroke="#c0c2bd" stroke-miterlimit="10" stroke-width="1"/>
              <line id="Line_131" data-name="Line 131" x1="65.769" transform="translate(248.36 86.832)" fill="none" stroke="#9f9f9f" stroke-miterlimit="10" stroke-width="1"/>
            </g>
          </g>
          <g id="Group_6155" data-name="Group 6155">
            <g id="Group_6154" data-name="Group 6154" clip-path="url(#clip-path-10)">
              <path id="Path_5738" data-name="Path 5738" d="M309.19,82.87h-54.4a.967.967,0,0,1-1.01-.917v-4.67a.967.967,0,0,1,1.01-.917h54.4a.967.967,0,0,1,1.01.917v4.671a.967.967,0,0,1-1.01.917" fill="#3175ae"/>
            </g>
          </g>
          <g id="Group_6172" data-name="Group 6172">
            <g id="Group_6171" data-name="Group 6171" clip-path="url(#clip-path-4)">
              <g id="Group_6160" data-name="Group 6160" opacity="0.78">
                <g id="Group_6159" data-name="Group 6159">
                  <g id="Group_6158" data-name="Group 6158" clip-path="url(#clip-path-12)">
                    <g id="Group_6157" data-name="Group 6157">
                      <g id="Group_6156" data-name="Group 6156" clip-path="url(#clip-path-12)">
                        <rect id="Rectangle_1405" data-name="Rectangle 1405" width="10.078" height="4.437" transform="translate(268.459 77.364)" fill="#fff"/>
                      </g>
                    </g>
                  </g>
                </g>
              </g>
              <g id="Group_6165" data-name="Group 6165" opacity="0.78">
                <g id="Group_6164" data-name="Group 6164">
                  <g id="Group_6163" data-name="Group 6163" clip-path="url(#clip-path-14)">
                    <g id="Group_6162" data-name="Group 6162">
                      <g id="Group_6161" data-name="Group 6161" clip-path="url(#clip-path-15)">
                        <path id="Path_5739" data-name="Path 5739" d="M305.829,81.8H281.807a.967.967,0,0,1-1.01-.917V78.236a.967.967,0,0,1,1.01-.917h24.022a.967.967,0,0,1,1.01.917v2.649a.967.967,0,0,1-1.01.917" fill="#fff"/>
                      </g>
                    </g>
                  </g>
                </g>
              </g>
              <g id="Group_6170" data-name="Group 6170" opacity="0.78">
                <g id="Group_6169" data-name="Group 6169">
                  <g id="Group_6168" data-name="Group 6168" clip-path="url(#clip-path-16)">
                    <g id="Group_6167" data-name="Group 6167">
                      <g id="Group_6166" data-name="Group 6166" clip-path="url(#clip-path-17)">
                        <path id="Path_5740" data-name="Path 5740" d="M265.573,80.885h-8.059v-2.6h8.059Zm0-3.521h-8.059a.965.965,0,0,0-1.01.917v2.6a.965.965,0,0,0,1.01.917h8.059a.967.967,0,0,0,1.01-.917v-2.6a.967.967,0,0,0-1.01-.917" fill="#fff"/>
                      </g>
                    </g>
                  </g>
                </g>
              </g>
            </g>
          </g>
          <g id="Group_6174" data-name="Group 6174">
            <g id="Group_6173" data-name="Group 6173" clip-path="url(#clip-path-18)">
              <rect id="Rectangle_1413" data-name="Rectangle 1413" width="10.078" height="2.392" transform="translate(283.178 78.55)" fill="#819c35"/>
            </g>
          </g>
          <g id="Group_6176" data-name="Group 6176">
            <g id="Group_6175" data-name="Group 6175" clip-path="url(#clip-path-19)">
              <path id="Path_5741" data-name="Path 5741" d="M283.639,96.6a2.359,2.359,0,0,1-.554,3.51,2.949,2.949,0,0,1-3.866-.5c-1.965-2.381-.666-2.68.554-3.511s1.836-1.955,3.866.5" fill="#255e84"/>
            </g>
          </g>
          <g id="Group_6178" data-name="Group 6178">
            <g id="Group_6177" data-name="Group 6177" clip-path="url(#clip-path-4)">
              <path id="Path_5742" data-name="Path 5742" d="M277.359,97.844s1.185-2.4,5.393-2.4h9.715" fill="none" stroke="#3175ae" stroke-linecap="round" stroke-linejoin="round" stroke-width="2"/>
            </g>
          </g>
          <g id="Group_6180" data-name="Group 6180">
            <g id="Group_6179" data-name="Group 6179" clip-path="url(#clip-path-21)">
              <path id="Path_5743" data-name="Path 5743" d="M232.664,117.371s-21.978-21.2-46.741-21.606c0,0-53.233-2.77-55.263,9.511l6.7,14.9,93.367,1.624Z" fill="#fff"/>
            </g>
          </g>
          <g id="Group_6192" data-name="Group 6192">
            <g id="Group_6191" data-name="Group 6191" clip-path="url(#clip-path-22)">
              <g id="Group_6185" data-name="Group 6185" opacity="0.12">
                <g id="Group_6184" data-name="Group 6184">
                  <g id="Group_6183" data-name="Group 6183" clip-path="url(#clip-path-23)">
                    <g id="Group_6182" data-name="Group 6182">
                      <g id="Group_6181" data-name="Group 6181" clip-path="url(#clip-path-24)">
                        <path id="Path_5744" data-name="Path 5744" d="M166.484,117.795s-5.574-23.287-21.959-20.208c-7.448,1.4-13.231,3.888-13.865,7.726l6.7,14.867,38.3.2Z" fill="#3175ae"/>
                      </g>
                    </g>
                  </g>
                </g>
              </g>
              <g id="Group_6190" data-name="Group 6190" opacity="0.4">
                <g id="Group_6189" data-name="Group 6189">
                  <g id="Group_6188" data-name="Group 6188" clip-path="url(#clip-path-25)">
                    <g id="Group_6187" data-name="Group 6187">
                      <g id="Group_6186" data-name="Group 6186" clip-path="url(#clip-path-21)">
                        <path id="Path_5745" data-name="Path 5745" d="M232.664,117.371s-21.978-21.2-46.741-21.606c0,0-53.233-2.77-55.263,9.511l6.7,14.9,93.367,1.624Z" fill="#3175ae"/>
                      </g>
                    </g>
                  </g>
                </g>
              </g>
              <rect id="Rectangle_1422" data-name="Rectangle 1422" width="67.141" height="75.17" transform="translate(165.496 131.569)" fill="#c0c2bd"/>
              <rect id="Rectangle_1423" data-name="Rectangle 1423" width="36.419" height="75.17" transform="translate(129.846 131.569)" fill="#e7e7e7"/>
              <line id="Line_132" data-name="Line 132" x1="66.372" transform="translate(166.179 142)" fill="none" stroke="#9f9f9f" stroke-miterlimit="10" stroke-width="1"/>
              <line id="Line_133" data-name="Line 133" x1="37.113" transform="translate(129.675 142)" fill="none" stroke="#c0c2bd" stroke-miterlimit="10" stroke-width="1"/>
              <path id="Path_5746" data-name="Path 5746" d="M129.846,131.569H180.13l-13.85-13.89-35.621-12.417Z" fill="#a9acaa"/>
              <path id="Path_5747" data-name="Path 5747" d="M170.759,125.6l-4.478,6h66.383l3.034-3.833Z" fill="#c0c2bd"/>
            </g>
          </g>
          <g id="Group_6194" data-name="Group 6194">
            <g id="Group_6193" data-name="Group 6193" clip-path="url(#clip-path-27)">
              <path id="Path_5748" data-name="Path 5748" d="M169.315,127.722H235.7l-3.034-10.047H166.282Z" fill="#3175ae"/>
            </g>
          </g>
          <g id="Group_6201" data-name="Group 6201">
            <g id="Group_6200" data-name="Group 6200" clip-path="url(#clip-path-28)">
              <g id="Group_6199" data-name="Group 6199" opacity="0.78">
                <g id="Group_6198" data-name="Group 6198">
                  <g id="Group_6197" data-name="Group 6197" clip-path="url(#clip-path-29)">
                    <g id="Group_6196" data-name="Group 6196">
                      <g id="Group_6195" data-name="Group 6195" clip-path="url(#clip-path-30)">
                        <path id="Path_5749" data-name="Path 5749" d="M182.37,125.621h38.612l-1.765-5.844H180.6Z" fill="#fff"/>
                      </g>
                    </g>
                  </g>
                </g>
              </g>
            </g>
          </g>
          <g id="Group_6203" data-name="Group 6203">
            <g id="Group_6202" data-name="Group 6202" clip-path="url(#clip-path-31)">
              <path id="Path_5750" data-name="Path 5750" d="M203.917,124.164h12.14l-.885-2.929H203.033Z" fill="#819c35"/>
            </g>
          </g>
          <g id="Group_6205" data-name="Group 6205">
            <g id="Group_6204" data-name="Group 6204" clip-path="url(#clip-path-3)">
              <rect id="Rectangle_1430" data-name="Rectangle 1430" width="5.683" height="78.192" transform="translate(145.617 128.655)" fill="#c3d1d4"/>
              <rect id="Rectangle_1431" data-name="Rectangle 1431" width="5.683" height="78.192" transform="translate(142.4 128.655)" fill="#e7e7e7"/>
              <rect id="Rectangle_1432" data-name="Rectangle 1432" width="5.683" height="78.192" transform="translate(99.315 128.655)" fill="#c3d1d4"/>
              <rect id="Rectangle_1433" data-name="Rectangle 1433" width="5.683" height="78.192" transform="translate(96.098 128.655)" fill="#e7e7e7"/>
              <rect id="Rectangle_1434" data-name="Rectangle 1434" width="94.331" height="8.021" transform="translate(64.898 123.974)" fill="#c0c2bd"/>
            </g>
          </g>
        </g>
      </g>
    </g>
  </g>
</svg>
