<svg xmlns="http://www.w3.org/2000/svg" xmlns:xlink="http://www.w3.org/1999/xlink" width="268.201" height="268.201" viewBox="0 0 268.201 268.201">
  <defs>
    <clipPath id="clip-path">
      <circle id="Ellipse_47-2" data-name="Ellipse 47-2" cx="134.1" cy="134.1" r="134.1" transform="translate(250.4 183.688)" fill="#e0ded9"/>
    </clipPath>
    <clipPath id="clip-path-2">
      <path id="Path_4912" data-name="Path 4912" d="M0,135.078c0,74.061,60.218,134.1,134.5,134.1S269,209.139,269,135.078,208.782.978,134.5.978,0,61.017,0,135.078" transform="translate(20.04 -17.409) rotate(8)" fill="none"/>
    </clipPath>
  </defs>
  <g id="Mask_Group_23" data-name="Mask Group 23" transform="translate(-250.4 -183.688)" clip-path="url(#clip-path)">
    <g id="Group_514" data-name="Group 514" transform="translate(-2115.266 -7608.629)">
      <circle id="Ellipse_44" data-name="Ellipse 44" cx="134.5" cy="134.5" r="134.5" transform="translate(2365.266 7792.63)" fill="#e0ded9"/>
      <circle id="Ellipse_47-2-2" data-name="Ellipse 47-2" cx="134.5" cy="134.5" r="134.5" transform="translate(2365.266 7792.63)" fill="#e0ded9"/>
    </g>
    <ellipse id="Ellipse_469" data-name="Ellipse 469" cx="66" cy="37.5" rx="66" ry="37.5" transform="translate(293.999 353.897) rotate(1)" fill="#d1cfcb"/>
    <g id="Group_5398" data-name="Group 5398" transform="translate(250.714 183.022)">
      <g id="Group_5397" data-name="Group 5397" clip-path="url(#clip-path-2)">
        <path id="Path_4913" data-name="Path 4913" d="M26.282-4.482C39.5-6.293,62.106,4.448,62.106,4.448,67.969,4.448,50,4.753,50,10.616A10.616,10.616,0,0,1,39.384,21.232H10.616C4.753,21.232.447,16.251.447,10.388S13.064-2.672,26.282-4.482Z" transform="translate(72.627 162.739) rotate(-63)" fill="#50a7be"/>
        <path id="Path_4901" data-name="Path 4901" d="M64.658,181.049c-.627.565-18.543.654-18.543.654l10.869,15.056L71.9,204.428s2.821-5.7,2.865-6.556a42.236,42.236,0,0,1,1.624-5.058Z" transform="translate(20.04 -17.409) rotate(8)" fill="#c8d5de"/>
        <path id="Path_4902" data-name="Path 4902" d="M44.814,168.269s15.178,6.765,29.308,3.121,23.4-21.081,23.4-21.081l53.892-35.171,10.349,9.669-.642,2.851,8.562,12.509-2.829,20.861-7.566,26.752-3.458,20.527,1.443,10.266-6.118,10.6s-13.362,12.561-21.7,12.128c-2.761-.184-7.161,1.238-9.883.744-5.834-1-10.188.461-13.084-.385l-.157-.04s-18.982-8.7-19.276-8.639l-.008.008c-5.687,1.3-4.261,4.142-12.7-3.777-1.92-1.813-3.908-3.75-5.9-5.757-8.133-8.238-16.24-17.876-19.576-26.3C41.137,177.633,47.7,182.11,47.7,182.11s20.506,26.406,25.35,17.5-28.233-31.342-28.233-31.342" transform="translate(20.04 -17.409) rotate(8)" fill="#fffdfd"/>
        <path id="Path_4903" data-name="Path 4903" d="M121.23,189.23s1.288,34.812,1.011,40.15-.964,12.938-.964,12.938c-4.335-.7-10.925.318-14.788-.654l-.156-.04s10.8-1.479,8.916-3.568Z" transform="translate(20.04 -17.409) rotate(8)" fill="#d8e6ef"/>
        <path id="Path_4904" data-name="Path 4904" d="M85.658,223.09c-5.683,1.3-2.616,11.447-2.616,11.447s-.253,2.6-8.689-5.322L115.3,176.582l-29.639,46.5Z" transform="translate(20.04 -17.409) rotate(8)" fill="#d8e6ef"/>
        <path id="Path_4905" data-name="Path 4905" d="M47.694,182.107s20.509,26.409,25.352,17.5l35.317-40.43L68.456,223.458c-8.133-8.238-16.24-17.876-19.575-26.3-7.743-19.522-1.187-15.049-1.187-15.049" transform="translate(20.04 -17.409) rotate(8)" fill="#d8e6ef"/>
        <path id="Path_4906" data-name="Path 4906" d="M129,148.483l36.839-29.721-.4,1.9Z" transform="translate(17.956 -1.583) rotate(8)" fill="#d8e6ef"/>
        <path id="Path_4907" data-name="Path 4907" d="M261.131,30.774c-10.992,4.875-105.025,83.606-105.668,95.918s-57.047-12.85-46.18-22.638C120.042,94.362,206.3,2.721,206.379,2.635c7.151-12.5,65.752,23.257,54.752,28.139" transform="translate(20.04 -17.409) rotate(8)" fill="#db8f6d"/>
        <path id="Path_4908" data-name="Path 4908" d="M204.723,79.287c-10.991,4.875-47.132,37-47.774,49.314s-5.147,45.259-5.986,46.015-4.8,15.679-4.8,15.679-3.372,8.594-5.042,10.1c-1.437,1.295-3.148,2.472-5.033,1.187-.834-.521-2.622-2.558-2.357-3.524-.026.039-.059.069-.085.107a39.624,39.624,0,0,0-6.221,12.8c-1.853,7.119-4.3,7.206-7.926,7.018-2.463-.249-2.758-3.919-2.805-4.744v-.017a1.551,1.551,0,0,0,0-.167s-2.933,10.474-5.84,10.323a8.212,8.212,0,0,1-7.092-4.966c-1.31-2.984.076-9.562.166-9.98-.574,1.078-1.844,2.811-3.067,2.747-1.588-.083-5.5,1.171-7.974-7.458s-.656-12.778-.656-12.778,2.19-16.613.932-18.009c-2.4-2.667-4.57-15.04-5.131-18.588-2.01-12.315,9.851-41.168,20.717-50.956,10.759-9.692,42.939-50.007,54.234-53.555s52.74,24.575,41.74,29.458" transform="translate(20.04 -17.409) rotate(8)" fill="#62c0d8"/>
        <path id="Path_4909" data-name="Path 4909" d="M110.619,147.524c.427-.384.758,1.043,1,3.533v.015c.922,9.193.781,32.771.781,32.771s-7.861,26.385-6.489,37.505a8.239,8.239,0,0,1-2.149-2.94c-1.309-2.984.077-9.562.167-9.98-.08.147,3.166-11.36,3.24-12.942s3.943-18.313,3.943-18.313-3.5-17.739-3.388-19.915c.029-.565.112-1.388.238-2.3.371-2.6,1.167-6.089,2.654-7.429" transform="translate(20.04 -17.409) rotate(8)" fill="#50a7be"/>
        <path id="Path_4910" data-name="Path 4910" d="M129.15,147.045c2.016.1-2.779,50.2-5.374,57.333-1.526,4.2-3.186,9.758-4.279,13.6-2.464-.249-2.759-3.919-2.806-4.744v-.017a48.307,48.307,0,0,0,2.5-11.745c.305-5.982,3.128-18.665,4.668-21.991s3.617-20.2,3.723-22.188-.453-10.356,1.566-10.252" transform="translate(20.04 -17.409) rotate(8)" fill="#50a7be"/>
        <path id="Path_4911" data-name="Path 4911" d="M142.718,177.739c-.185,3.391-5.823,14.951-6.638,23.861-.834-.527-2.621-2.564-2.357-3.524-.026.038-.059.068-.085.106l5.957-17.388s-1.979-19.913-.169-24.071,3.505,16.782,3.292,21.016" transform="translate(20.04 -17.409) rotate(8)" fill="#50a7be"/>
      </g>
    </g>
  </g>
</svg>
