<svg id="document" xmlns="http://www.w3.org/2000/svg" width="37.75" height="37.752" viewBox="0 0 37.75 37.752">
  <g id="Group_1727" data-name="Group 1727" transform="translate(0)">
    <g id="Group_1726" data-name="Group 1726">
      <path id="Path_2563" data-name="Path 2563" d="M36.8,11.881a3.322,3.322,0,0,0-4.693,0l-3.328,3.33V6.446A3.3,3.3,0,0,0,27.8,4.1L24.675.972A3.3,3.3,0,0,0,22.328,0H3.336A3.322,3.322,0,0,0,.018,3.318V34.434a3.322,3.322,0,0,0,3.318,3.318H25.457a3.322,3.322,0,0,0,3.318-3.318V24.6l8.02-8.027A3.316,3.316,0,0,0,36.8,11.881ZM22.139,2.212a1.207,1.207,0,0,1,.972.324l3.128,3.128a1.207,1.207,0,0,1,.324.972H22.139Zm4.424,32.222a1.107,1.107,0,0,1-1.106,1.106H3.336A1.107,1.107,0,0,1,2.23,34.434V3.318A1.107,1.107,0,0,1,3.336,2.212h16.59v5.53a1.106,1.106,0,0,0,1.106,1.106h5.53v8.577L23.3,20.691l-1.563,1.563a1.106,1.106,0,0,0-.267.432L19.9,27.38a1.106,1.106,0,0,0,1.4,1.4L26,27.214a1.105,1.105,0,0,0,.432-.267l.134-.134v7.621Zm-2.48-11.4L25.646,24.6l-.6.6L22.7,25.98l.782-2.346Zm3.128,0-1.564-1.564,5.317-5.321,1.564,1.564Zm8.02-8.027L34.09,16.15l-1.564-1.564,1.141-1.141a1.106,1.106,0,1,1,1.564,1.565Z" transform="translate(-0.018 0)" fill="#606060"/>
    </g>
  </g>
  <g id="Group_1729" data-name="Group 1729" transform="translate(4.424 11.06)">
    <g id="Group_1728" data-name="Group 1728">
      <path id="Path_2564" data-name="Path 2564" d="M76.608,150H61.124a1.106,1.106,0,1,0,0,2.212H76.608a1.106,1.106,0,1,0,0-2.212Z" transform="translate(-60.018 -150)" fill="#606060"/>
    </g>
  </g>
  <g id="Group_1731" data-name="Group 1731" transform="translate(4.424 15.484)">
    <g id="Group_1730" data-name="Group 1730">
      <path id="Path_2565" data-name="Path 2565" d="M72.184,210H61.124a1.106,1.106,0,0,0,0,2.212h11.06a1.106,1.106,0,0,0,0-2.212Z" transform="translate(-60.018 -210)" fill="#606060"/>
    </g>
  </g>
  <g id="Group_1733" data-name="Group 1733" transform="translate(4.424 19.908)">
    <g id="Group_1732" data-name="Group 1732">
      <path id="Path_2566" data-name="Path 2566" d="M72.184,270H61.124a1.106,1.106,0,1,0,0,2.212h11.06a1.106,1.106,0,1,0,0-2.212Z" transform="translate(-60.018 -270)" fill="#606060"/>
    </g>
  </g>
  <g id="Group_1735" data-name="Group 1735" transform="translate(4.424 24.333)">
    <g id="Group_1734" data-name="Group 1734">
      <path id="Path_2567" data-name="Path 2567" d="M72.184,330H61.124a1.106,1.106,0,1,0,0,2.212h11.06a1.106,1.106,0,1,0,0-2.212Z" transform="translate(-60.018 -330)" fill="#606060"/>
    </g>
  </g>
  <g id="Group_1737" data-name="Group 1737" transform="translate(13.272 31.116)">
    <g id="Group_1736" data-name="Group 1736">
      <path id="Path_2568" data-name="Path 2568" d="M187.76,422h-6.636a1.106,1.106,0,0,0,0,2.212h6.636a1.106,1.106,0,1,0,0-2.212Z" transform="translate(-180.018 -422)" fill="#606060"/>
    </g>
  </g>
</svg>
