<svg xmlns="http://www.w3.org/2000/svg" xmlns:xlink="http://www.w3.org/1999/xlink" width="101" height="101" viewBox="0 0 101 101">
  <defs>
    <clipPath id="clip-path">
      <rect id="Rectangle_1572" data-name="Rectangle 1572" width="55.289" height="76.201" fill="none"/>
    </clipPath>
  </defs>
  <g id="Group_8371" data-name="Group 8371" transform="translate(-355.5 -835.5)">
    <path id="Ellipse_44" data-name="Ellipse 44" d="M50,0A50,50,0,1,1,0,50,50,50,0,0,1,50,0Z" transform="translate(356 836)" fill="#e7e7e7" stroke="#707070" stroke-width="1"/>
    <g id="Group_8358" data-name="Group 8358" transform="translate(378.355 847.9)">
      <g id="Group_6418" data-name="Group 6418" clip-path="url(#clip-path)">
        <path id="Path_6011" data-name="Path 6011" d="M71.705,190.136l-1.177,7.33-6.4,39.894c0,.38-.522.742-1.463,1.068C60,239.353,53.974,240,46.972,240c-9.473,0-17.152-1.182-17.152-2.639l-7.581-47.224Z" transform="translate(-19.159 -163.799)" fill="#4e7eb7"/>
        <path id="Path_6012" data-name="Path 6012" d="M33.742,220.5l.6,3.917a16.3,16.3,0,0,0,14.3,13.722,58.136,58.136,0,0,0,14.341-.349l-.325.638C60,239.353,53.974,240,46.972,240c-9.473,0-17.152-1.182-17.152-2.639l-7.581-47.224H71.705l-1.177,7.33a173.893,173.893,0,0,1-19.5,1.961A18.3,18.3,0,0,0,33.742,220.5" transform="translate(-19.159 -163.799)" fill="#558dc4"/>
        <path id="Path_6013" data-name="Path 6013" d="M14.532,190.74v3.49c0,1.6,11.551,2.9,25.8,2.9s25.8-1.3,25.8-2.9v-3.49Z" transform="translate(-12.519 -164.319)" fill="#4e7eb7"/>
        <path id="Path_6014" data-name="Path 6014" d="M66.133,172.682c0,1.6-11.551,2.9-25.8,2.9s-25.8-1.3-25.8-2.9,11.551-2.9,25.8-2.9,25.8,1.3,25.8,2.9" transform="translate(-12.519 -146.261)" fill="#558dc4"/>
        <path id="Path_6015" data-name="Path 6015" d="M81.7,175.361c0,1.312-10.216,2.376-22.818,2.376s-22.818-1.064-22.818-2.376,10.216-2.376,22.818-2.376S81.7,174.049,81.7,175.361" transform="translate(-31.066 -149.023)" fill="#4e7eb7"/>
        <path id="Path_6016" data-name="Path 6016" d="M93.721,530.673c-9.182,0-16.687-1.1-17.216-2.5l.064.4c0,1.458,7.679,2.639,17.152,2.639s17.152-1.182,17.152-2.639l.064-.4c-.53,1.393-8.034,2.5-17.216,2.5" transform="translate(-65.908 -455.014)" fill="#4e7eb7"/>
        <path id="Path_6017" data-name="Path 6017" d="M55.289,32.587H53.614v-.633h1.04a27.011,27.011,0,0,0-54.019,0H2.013v.633H0V32.27A27.652,27.652,0,0,1,53.116,21.51a27.472,27.472,0,0,1,2.173,10.76Z" transform="translate(0 -3.985)" fill="#7f7f7f"/>
        <path id="Path_6018" data-name="Path 6018" d="M151.438,1.134a32.627,32.627,0,0,0-17-.013,1.127,1.127,0,1,0,.617,2.168,26.366,26.366,0,0,1,7.856-1.028,26.919,26.919,0,0,1,7.9,1.044,1.127,1.127,0,0,0,1.416-.824v0a1.127,1.127,0,0,0-.8-1.344" transform="translate(-115.105 -0.001)"/>
      </g>
    </g>
  </g>
</svg>
