<svg xmlns="http://www.w3.org/2000/svg" xmlns:xlink="http://www.w3.org/1999/xlink" width="101" height="101" viewBox="0 0 101 101">
  <defs>
    <clipPath id="clip-path">
      <rect id="Rectangle_1813" data-name="Rectangle 1813" width="28.248" height="70.594" transform="translate(0 0)" fill="none"/>
    </clipPath>
  </defs>
  <g id="Group_8375" data-name="Group 8375" transform="translate(-731.5 -948.5)">
    <circle id="Ellipse_44" data-name="Ellipse 44" cx="50" cy="50" r="50" transform="translate(732 949)" fill="#e7e7e7" stroke="#707070" stroke-width="1"/>
    <g id="Group_8370" data-name="Group 8370" transform="translate(1652.193 517.78) rotate(138)">
      <g id="Group_6878" data-name="Group 6878" transform="translate(949.784 185.065)" clip-path="url(#clip-path)">
        <path id="Path_6973" data-name="Path 6973" d="M6.823,1520.246c1.324,0,1.694.209,1.792.3a1.521,1.521,0,0,1,.321.888,11.92,11.92,0,0,1,.025,1.841c-.011.315-.022.613-.022.9a3.893,3.893,0,1,1-3.893-3.893c.259,0,.535-.009.827-.018.31-.01.632-.021.948-.021Zm0-1.154c-.636,0-1.267.039-1.776.039a5.047,5.047,0,1,0,5.047,5.047c0-1.474.309-3.562-.7-4.485a3.991,3.991,0,0,0-2.572-.6" transform="translate(0 -1458.631)" fill="#cedeec"/>
        <path id="Path_6974" data-name="Path 6974" d="M458.314,1519.862c.317,0,.638.01.948.021.292.009.569.018.827.018a3.893,3.893,0,1,1-3.893,3.893c0-.291-.011-.589-.022-.9a11.915,11.915,0,0,1,.025-1.841,1.52,1.52,0,0,1,.321-.888c.1-.09.469-.3,1.793-.3m0-1.154a3.992,3.992,0,0,0-2.572.6c-1.008.923-.7,3.01-.7,4.485a5.047,5.047,0,1,0,5.047-5.047c-.508,0-1.14-.039-1.776-.039" transform="translate(-436.889 -1458.262)" fill="#a8c5dd"/>
        <path id="Path_6975" data-name="Path 6975" d="M320.136,62.7c-.188-.565-4.236-36.527-4.236-36.527l-1.412-.753L316.156,0h.671l4.438,62.628Z" transform="translate(-301.97 -0.002)" fill="#a8c5dd"/>
        <path id="Path_6976" data-name="Path 6976" d="M226.916,62.7c.188-.565,4.236-36.527,4.236-36.527l-1.318-.941L231.014,0h-.79L225.786,62.63Z" transform="translate(-216.8 -0.002)" fill="#cedeec"/>
        <rect id="Rectangle_1811" data-name="Rectangle 1811" width="9.32" height="1.977" transform="translate(9.41 60.157)" fill="#cedeec"/>
        <rect id="Rectangle_1812" data-name="Rectangle 1812" width="3.897" height="1.977" transform="translate(14.833 60.157)" fill="#a8c5dd"/>
      </g>
    </g>
  </g>
</svg>
