<svg xmlns="http://www.w3.org/2000/svg" xmlns:xlink="http://www.w3.org/1999/xlink" width="468" height="445" viewBox="0 0 468 445">
  <defs>
    <clipPath id="clip-path">
      <rect id="Rectangle_2746" data-name="Rectangle 2746" width="468" height="445" transform="translate(104 181)" fill="#fff" stroke="#707070" stroke-width="1"/>
    </clipPath>
    <clipPath id="clip-path-2">
      <rect id="Rectangle_1465" data-name="Rectangle 1465" width="779.201" height="332.447" fill="none"/>
    </clipPath>
    <clipPath id="clip-path-3">
      <path id="Path_5769" data-name="Path 5769" d="M378.1,167.081l4.69,24.141,13.931-3.818-4.275-22.99Z" fill="none"/>
    </clipPath>
    <clipPath id="clip-path-4">
      <path id="Path_5773" data-name="Path 5773" d="M380.476,189.442l14.445-.01,1.935-23.3-14.542-1.21Z" fill="none"/>
    </clipPath>
    <clipPath id="clip-path-5">
      <path id="Path_5777" data-name="Path 5777" d="M384.862,185.069l14.032,3.432,7.434-22.17-13.834-4.64Z" fill="none"/>
    </clipPath>
    <clipPath id="clip-path-6">
      <path id="Path_5781" data-name="Path 5781" d="M383.041,184.428l14.365,1.525,4.4-22.965-14.332-2.749Z" fill="none"/>
    </clipPath>
    <clipPath id="clip-path-7">
      <path id="Path_5785" data-name="Path 5785" d="M381.325,184.825l14.4,1.134,3.779-23.076-14.4-2.358Z" fill="none"/>
    </clipPath>
    <clipPath id="clip-path-9">
      <path id="Path_5789" data-name="Path 5789" d="M413.412,184.4l14.4,2.364,3.787-24.3-14.4-1.14Z" fill="none"/>
    </clipPath>
    <clipPath id="clip-path-10">
      <path id="Path_5793" data-name="Path 5793" d="M409.152,160.982l2.459,23.253,14.512-1.534-2.784-24.434Z" fill="none"/>
    </clipPath>
    <clipPath id="clip-path-11">
      <path id="Path_5797" data-name="Path 5797" d="M406.49,165.416l2.46,23.254,14.512-1.533L420.679,162.7Z" fill="none"/>
    </clipPath>
    <clipPath id="clip-path-12">
      <rect id="Rectangle_1489" data-name="Rectangle 1489" width="25.815" height="10.964" transform="translate(478.783 135.431)" fill="none"/>
    </clipPath>
    <clipPath id="clip-path-13">
      <rect id="Rectangle_1490" data-name="Rectangle 1490" width="23.943" height="13.211" transform="translate(476.516 133.184)" fill="none"/>
    </clipPath>
    <clipPath id="clip-path-14">
      <rect id="Rectangle_1491" data-name="Rectangle 1491" width="23.943" height="13.21" transform="translate(471.081 135.55)" fill="none"/>
    </clipPath>
    <clipPath id="clip-path-15">
      <rect id="Rectangle_1492" data-name="Rectangle 1492" width="23.943" height="8.969" transform="translate(440.74 137.426)" fill="none"/>
    </clipPath>
    <clipPath id="clip-path-16">
      <rect id="Rectangle_1493" data-name="Rectangle 1493" width="27.527" height="13.21" transform="translate(432.721 134.55)" fill="none"/>
    </clipPath>
  </defs>
  <g id="Mask_Group_37" data-name="Mask Group 37" transform="translate(-104 -181)" clip-path="url(#clip-path)">
    <g id="Group_8309" data-name="Group 8309">
      <circle id="Ellipse_510" data-name="Ellipse 510" cx="140" cy="140" r="140" transform="translate(113.799 189)" fill="#f5f2ed"/>
      <circle id="Ellipse_511" data-name="Ellipse 511" cx="157" cy="157" r="157" transform="translate(253.799 278)" fill="#f5f2ed"/>
      <g id="Group_7029" data-name="Group 7029" transform="translate(190.638 102.632)">
        <g id="Group_114" data-name="Group 114" transform="translate(222.102 274.829)">
          <path id="Path_356" data-name="Path 356" d="M1534.156-125.636H1517.1c-.356,31.989-11.21,44.164-23.209,52.34a4.114,4.114,0,0,0-1.782,3.405V-6.767a6.92,6.92,0,0,0,6.925,6.915h.015l70.272-.255a6.914,6.914,0,0,0,6.887-6.914v-65.1c-12.679-8.205-24.613-19.956-24.991-53.521Z" transform="translate(-1492.108 152.011)" fill="#fff"/>
          <path id="Path_357" data-name="Path 357" d="M1548.476-148.952l-1.1-1.262a69.534,69.534,0,0,0-13.332-1.68,71.888,71.888,0,0,0-13.333,1.68l-1.814,2.086-1.913,2.2,2.331,27.2h4.2l-2.488-28.007,1.025-.186a76.2,76.2,0,0,1,12-1.245,84.236,84.236,0,0,1,12.038,1.318c.338.054.66.11.969.166h0l-2.474,27.952h4.195l2.332-27.2Z" transform="translate(-1491.997 151.894)" fill="#515e71"/>
          <path id="Path_358" data-name="Path 358" d="M1598.338-52.577c-.016-.057-.031-.109-.051-.166a5.173,5.173,0,0,0-2.343-2.938,3.185,3.185,0,0,0-1.125-.415,1.618,1.618,0,0,0-.231-.017v.017H1586.5V-66.881a4.729,4.729,0,0,0-3.541-3.749c-.05-.018-.1-.033-.153-.046h-11.039v3.358h11.192v10.785a4.737,4.737,0,0,0,3.541,3.746.825.825,0,0,0,.146.047h8.37v23.663h3.355V-52.429A.6.6,0,0,0,1598.338-52.577Z" transform="translate(-1491.752 152.257)" fill="#515e71"/>
        </g>
        <g id="Group_98" data-name="Group 98" transform="translate(292.963 285.09)">
          <path id="Path_333" data-name="Path 333" d="M-6209.018,926.506l-.237.333-2.537,3.225,15.042,10.751,4.657-6.647,16.556-7.527h0a2.654,2.654,0,0,0,1.6-3.214,2.816,2.816,0,0,0-3.092-2.125c-.025.006-9.5,3.557-9.5,3.557.839-1.089,13.215-18.432,13.215-18.432h0a1.84,1.84,0,0,0-.694-2.472,1.837,1.837,0,0,0-2.563.145h0l-10.506,14.019-.136-.1,11.012-15.776a1.838,1.838,0,0,0-.694-2.473,1.837,1.837,0,0,0-2.563.145l-11.392,15.5-.208-.149,9.361-13.551h0v0a1.833,1.833,0,0,0-.688-2.47,1.836,1.836,0,0,0-2.561.148v0l-.007-.006-9.847,13.2-.222-.16,6.694-9.948h0v0a1.669,1.669,0,0,0-.469-2.313,1.671,1.671,0,0,0-2.34.305l0,0h0l-7.112,9.65h0c-.94,1.137-3.746,5.079-4.258,5.89C-6203.714,917.936-6209.018,926.506-6209.018,926.506Z" transform="translate(6221.833 -891.639)" fill="#bbdde5"/>
          <path id="Path_334" data-name="Path 334" d="M-6219.011,916.177v.448l.093,2.257a2.606,2.606,0,0,1-2.5,2.712l-.107,0h-13.663a3.8,3.8,0,0,1-3.8-3.8c0-.012,0-.023,0-.034l.049-5.527-9.944-17.223h0a2.9,2.9,0,0,1,.62-3.877,3.08,3.08,0,0,1,4.1.076c.018.021,6.187,9.2,6.187,9.2-.053-1.5-.035-24.8-.035-24.8h0a2.009,2.009,0,0,1,2.188-1.759,2.011,2.011,0,0,1,2.188,1.759h0l.433,19.151h.183l.236-21.034a2.01,2.01,0,0,1,2.189-1.759,2.009,2.009,0,0,1,2.187,1.759l.276,21.034h.28l.287-18.006h0v0a2.007,2.007,0,0,1,2.185-1.759,2.006,2.006,0,0,1,2.182,1.759v0h.011l.364,18.006h.3l.37-13.106h0v0a1.828,1.828,0,0,1,1.888-1.759,1.826,1.826,0,0,1,1.887,1.759v0h0l.191,13.106h0c.114,1.61.1,6.9.043,7.947C-6218.279,905.18-6219.011,916.177-6219.011,916.177Z" transform="translate(6249.369 -871.972)" fill="#62c0d8"/>
        </g>
        <g id="Group_113" data-name="Group 113" transform="translate(160.011 294.611)">
          <g id="Group_107" data-name="Group 107" transform="translate(3.018 8.848)">
            <path id="Path_349" data-name="Path 349" d="M-6982.369,310.157v40.126a10.3,10.3,0,0,0,5.419,8.771,42.719,42.719,0,0,0,17.743,3.826V310.157Z" transform="translate(6982.369 -310.157)" fill="#d9eaed"/>
            <path id="Path_350" data-name="Path 350" d="M-6924.029,310.158v52.724a42.72,42.72,0,0,0,17.578-3.826,10.3,10.3,0,0,0,5.417-8.771V310.158Z" transform="translate(6947.191 -310.158)" fill="#bbdde5"/>
          </g>
          <g id="Group_108" data-name="Group 108" transform="translate(4.5 6.637)" opacity="0.5">
            <path id="Path_351" data-name="Path 351" d="M-6939.778,304.588l4.168,3.622a29.726,29.726,0,0,1-10.521,11.528,21.728,21.728,0,0,1-7.211,2.8,20.208,20.208,0,0,1-7.539.015,23.733,23.733,0,0,1-12.945-7.509,33.01,33.01,0,0,1-4.811-6.8l4.168-3.626a26.888,26.888,0,0,0,3.913,5.534,19.108,19.108,0,0,0,10.414,6.049,16.861,16.861,0,0,0,11.843-2.257A24.118,24.118,0,0,0-6939.778,304.588Z" transform="translate(6978.637 -304.588)" fill="#060f1c"/>
          </g>
          <g id="Group_109" data-name="Group 109" transform="translate(2.935)">
            <path id="Path_352" data-name="Path 352" d="M-6959.5,287.87c-12.744,0-23.079,3.984-23.079,8.9,0,.049,0,.1,0,.146,0,.014,0,.026,0,.04a3.367,3.367,0,0,0,3.367,3.366h19.794V287.87Z" transform="translate(6982.577 -287.87)" fill="#0a2f4c"/>
            <path id="Path_353" data-name="Path 353" d="M-6902.61,296.915c0-.048,0-.1,0-.145,0-4.9-10.287-8.88-23-8.9v12.449h19.631a3.366,3.366,0,0,0,3.366-3.366h0A.273.273,0,0,0-6902.61,296.915Z" transform="translate(6948.223 -287.871)" fill="#0a2f4c"/>
          </g>
          <g id="Group_110" data-name="Group 110" transform="translate(0 8.155)">
            <rect id="Rectangle_171" data-name="Rectangle 171" width="2.526" height="2.645" transform="translate(2.011 1.207)" fill="#060f1c"/>
            <rect id="Rectangle_172" data-name="Rectangle 172" width="2.526" height="5.058" fill="#263248"/>
          </g>
          <g id="Group_111" data-name="Group 111" transform="translate(47.658 8.155)">
            <rect id="Rectangle_173" data-name="Rectangle 173" width="2.526" height="2.645" transform="translate(0 1.207)" fill="#060f1c"/>
            <rect id="Rectangle_174" data-name="Rectangle 174" width="2.526" height="5.058" transform="translate(2.011)" fill="#263248"/>
          </g>
          <g id="Group_112" data-name="Group 112" transform="translate(2.938 8.849)">
            <path id="Path_354" data-name="Path 354" d="M-6982.572,310.158v3.67h23.162v-3.67Z" transform="translate(6982.572 -310.158)" fill="#515e71"/>
            <path id="Path_355" data-name="Path 355" d="M-6901.242,310.158h-23v3.67h23Z" transform="translate(6947.398 -310.158)" fill="#515e71"/>
          </g>
        </g>
        <g id="Group_1459" data-name="Group 1459" transform="translate(192.391 242.439)">
          <g id="Group_1476" data-name="Group 1476" transform="translate(0 11.176)">
            <path id="Path_1836" data-name="Path 1836" d="M334.038,344.527h15.275" transform="translate(-334.038 -344.527)" fill="none" stroke="#515e71" stroke-linecap="round" stroke-width="2"/>
            <path id="Path_1837" data-name="Path 1837" d="M334.038,344.527h12.07" transform="translate(-330.834 -335.575)" fill="none" stroke="#515e71" stroke-linecap="round" stroke-width="2"/>
          </g>
          <g id="Group_1477" data-name="Group 1477" transform="translate(44.149 11.176)">
            <path id="Path_1836-2" data-name="Path 1836" d="M349.313,344.527H334.038" transform="translate(-334.038 -344.527)" fill="none" stroke="#515e71" stroke-linecap="round" stroke-width="2"/>
            <path id="Path_1837-2" data-name="Path 1837" d="M346.109,344.527h-12.07" transform="translate(-334.038 -335.576)" fill="none" stroke="#515e71" stroke-linecap="round" stroke-width="2"/>
          </g>
          <g id="Group_1478" data-name="Group 1478" transform="translate(12.043)">
            <path id="Path_1796" data-name="Path 1796" d="M390.546,312.161c-1.913-2.375-8.668-3.012-8.668-3.012s-6.757.607-8.676,2.974c-2.548,3.142-9.076,10.061-9.081,12.581s1.138,19.574,17.695,19.574c16.724,0,17.76-16.974,17.765-19.495S393.056,315.283,390.546,312.161Z" transform="translate(-364.121 -309.149)" fill="#bbdde5"/>
            <path id="Path_1797" data-name="Path 1797" d="M392.032,316.8c-1.651-2.052-7.484-2.6-7.484-2.6s-5.835.525-7.493,2.568c-2.2,2.712-7.838,8.688-7.84,10.866s1.084,16.9,15.279,16.9,15.335-14.657,15.34-16.834S394.2,319.491,392.032,316.8Z" transform="translate(-366.794 -311.797)" fill="#d9eaed"/>
            <path id="Path_1798" data-name="Path 1798" d="M392.725,323.27s5.11.4,7.879,1.774c-.143-.174-.279-.337-.4-.489-1.65-2.052-7.482-2.6-7.482-2.6s-5.835.525-7.494,2.568c-.129.16-.27.331-.421.51C387.571,323.652,392.725,323.27,392.725,323.27Z" transform="translate(-374.974 -315.867)" fill="#62c0d8"/>
            <g id="Group_1441" data-name="Group 1441" transform="translate(7.291 16.364)">
              <path id="Path_1799" data-name="Path 1799" d="M392.684,345.351s-5.11-.4-7.879-1.772c.143.172.278.336.4.488,1.651,2.052,7.484,2.6,7.484,2.6s5.834-.523,7.493-2.568c.128-.16.27-.331.422-.511C397.837,344.969,392.684,345.351,392.684,345.351Z" transform="translate(-382.265 -343.579)" fill="#62c0d8"/>
              <path id="Path_1800" data-name="Path 1800" d="M392.684,363.977s-5.11-.4-7.879-1.773c.143.172.278.335.4.489,1.651,2.051,7.484,2.6,7.484,2.6s5.834-.523,7.493-2.567c.128-.16.27-.331.422-.511C397.837,363.595,392.684,363.977,392.684,363.977Z" transform="translate(-382.265 -353.352)" fill="#62c0d8"/>
              <path id="Path_1801" data-name="Path 1801" d="M389.874,354.664s-6.752-.4-10.413-1.772c.189.172.368.336.529.488,2.183,2.051,9.89,2.6,9.89,2.6s7.71-.526,9.9-2.57c.17-.158.358-.329.558-.51C396.683,354.282,389.874,354.664,389.874,354.664Z" transform="translate(-379.461 -348.466)" fill="#62c0d8"/>
            </g>
          </g>
        </g>
      </g>
      <g id="Group_7030" data-name="Group 7030" transform="translate(95.799 -211)">
        <rect id="Rectangle_1449" data-name="Rectangle 1449" width="154.197" height="135.519" transform="translate(74.501 457.095)" fill="#fff"/>
        <rect id="Rectangle_1450" data-name="Rectangle 1450" width="29.92" height="135.519" transform="translate(44.581 457.095)" fill="#d9d9d9"/>
        <rect id="Rectangle_1451" data-name="Rectangle 1451" width="140.739" height="37.055" transform="translate(82.046 461.826)" fill="#e5e5e5"/>
        <rect id="Rectangle_1452" data-name="Rectangle 1452" width="140.739" height="37.055" transform="translate(82.046 505.052)" fill="#e5e5e5"/>
        <rect id="Rectangle_1453" data-name="Rectangle 1453" width="140.739" height="37.055" transform="translate(82.046 548.279)" fill="#e5e5e5"/>
        <rect id="Rectangle_1454" data-name="Rectangle 1454" width="26.019" height="37.055" transform="translate(196.766 461.826)" fill="#f4f4f4"/>
        <rect id="Rectangle_1455" data-name="Rectangle 1455" width="26.019" height="37.055" transform="translate(196.766 505.052)" fill="#f4f4f4"/>
        <rect id="Rectangle_1456" data-name="Rectangle 1456" width="26.019" height="37.055" transform="translate(196.766 548.279)" fill="#f4f4f4"/>
        <g id="Group_6221" data-name="Group 6221" transform="translate(-291 392.041)">
          <g id="Group_6220" data-name="Group 6220" clip-path="url(#clip-path-2)">
            <path id="Path_5758" data-name="Path 5758" d="M472.815,168.371H442.423L448.1,181.1a3.281,3.281,0,0,0,3.044,1.534h14.634a3.143,3.143,0,0,0,3.112-1.712Z" fill="#c9c9c9"/>
            <rect id="Rectangle_1457" data-name="Rectangle 1457" width="33.228" height="1.097" transform="translate(441.373 167.274)" fill="#b7b7b7"/>
            <path id="Path_5759" data-name="Path 5759" d="M472.815,173.236H442.423l5.676,12.726a3.283,3.283,0,0,0,3.044,1.533h14.634a3.142,3.142,0,0,0,3.112-1.711Z" fill="#c9c9c9"/>
            <rect id="Rectangle_1458" data-name="Rectangle 1458" width="33.228" height="1.097" transform="translate(441.373 172.139)" fill="#b7b7b7"/>
            <path id="Path_5760" data-name="Path 5760" d="M472.815,178.476H442.423L448.1,191.2a3.281,3.281,0,0,0,3.044,1.534h14.634a3.143,3.143,0,0,0,3.112-1.712Z" fill="#c9c9c9"/>
            <rect id="Rectangle_1459" data-name="Rectangle 1459" width="33.228" height="1.097" transform="translate(441.373 177.379)" fill="#b7b7b7"/>
            <path id="Path_5761" data-name="Path 5761" d="M503.212,176.246H475.8l5.119,11.477a2.956,2.956,0,0,0,2.745,1.384h13.2a2.833,2.833,0,0,0,2.807-1.544Z" fill="#c9c9c9"/>
            <rect id="Rectangle_1460" data-name="Rectangle 1460" width="29.969" height="0.989" transform="translate(474.854 175.257)" fill="#b7b7b7"/>
            <path id="Path_5762" data-name="Path 5762" d="M503.212,180.635H475.8l5.119,11.477a2.958,2.958,0,0,0,2.745,1.384h13.2a2.834,2.834,0,0,0,2.807-1.544Z" fill="#c9c9c9"/>
            <rect id="Rectangle_1461" data-name="Rectangle 1461" width="29.969" height="0.989" transform="translate(474.854 179.646)" fill="#b7b7b7"/>
            <path id="Path_5763" data-name="Path 5763" d="M401.332,125.629H370.94l5.676,12.725a3.281,3.281,0,0,0,3.044,1.534h14.634a3.143,3.143,0,0,0,3.112-1.712Z" fill="#c9c9c9"/>
            <rect id="Rectangle_1462" data-name="Rectangle 1462" width="33.228" height="1.097" transform="translate(369.891 124.532)" fill="#b7b7b7"/>
            <path id="Path_5764" data-name="Path 5764" d="M401.037,130.2H370.645l5.676,12.725a3.281,3.281,0,0,0,3.044,1.534H394a3.143,3.143,0,0,0,3.112-1.712Z" fill="#c9c9c9"/>
            <rect id="Rectangle_1463" data-name="Rectangle 1463" width="33.228" height="1.097" transform="translate(369.595 129.102)" fill="#b7b7b7"/>
            <path id="Path_5765" data-name="Path 5765" d="M401.037,135.521H370.645l5.676,12.725a3.281,3.281,0,0,0,3.044,1.534H394a3.143,3.143,0,0,0,3.112-1.712Z" fill="#c9c9c9"/>
            <rect id="Rectangle_1464" data-name="Rectangle 1464" width="33.228" height="1.097" transform="translate(369.595 134.424)" fill="#b7b7b7"/>
          </g>
        </g>
        <g id="Group_6223" data-name="Group 6223" transform="translate(-291 392.041)">
          <g id="Group_6222" data-name="Group 6222" clip-path="url(#clip-path-3)">
            <path id="Path_5766" data-name="Path 5766" d="M385.027,174.482c-1.837-6.076-1.672-8.391-1.42-8.411l0,.013a.073.073,0,0,1,.05-.037s.938,1.829,2.064,4.324c-.083,1.993-.128,4.347-.031,6.537-.221-.721-.393-1.522-.668-2.427" fill="#c0c2bd"/>
            <path id="Path_5767" data-name="Path 5767" d="M388.643,176.625a4.73,4.73,0,0,1-.693,3.2c.092.068.189.135.292.2a3.036,3.036,0,0,1,1.429,2.119,21.057,21.057,0,0,1,.179,2.128,3.523,3.523,0,0,0,.85,2.389,3.365,3.365,0,0,0,3.449,1.142,2.817,2.817,0,0,0,1.053-.565,3.222,3.222,0,0,0,.16-4.537,3.449,3.449,0,0,0-2.734-1.254,6.543,6.543,0,0,1-1.853-1.073,6.973,6.973,0,0,1-1.7-2.449c-.135-.425-.28-.861-.435-1.3m2.9,6.429a2,2,0,0,1,2.667.193c.05.049.1.1.142.154a2.025,2.025,0,0,1-.1,2.854,2,2,0,0,1-2.668-.2,2.079,2.079,0,0,1-.142-.154,2.022,2.022,0,0,1,.1-2.853" fill="#c0c2bd"/>
            <path id="Path_5768" data-name="Path 5768" d="M386.057,189.748a2.83,2.83,0,0,0,1.189-.1,3.366,3.366,0,0,0,2.264-2.842,3.511,3.511,0,0,0-.594-2.465,21.052,21.052,0,0,1-1.013-1.879,3.035,3.035,0,0,1,.039-2.555c.042-.093.08-.185.116-.277a4.72,4.72,0,0,0,.056-3.271c-.209-.736-.509-1.516-.778-2.438-1.783-6.092-3.186-7.941-3.409-7.824l.005.014a.066.066,0,0,0-.061,0s.216,2.064.642,4.788c.307,1.97.724,4.287,1.248,6.416.108.439.222.872.339,1.292a6.972,6.972,0,0,1-.085,2.981,6.527,6.527,0,0,1-.965,1.911,3.459,3.459,0,0,0-1.6,2.545,3.224,3.224,0,0,0,2.614,3.713m.688-11.629a.634.634,0,1,1,.855.275h0a.635.635,0,0,1-.854-.275m-2.076,7.951c.009-.071.021-.139.036-.207a2,2,0,0,1,2.127-1.621,2.023,2.023,0,0,1,1.642,2.335c-.009.07-.022.139-.036.207a2,2,0,0,1-2.128,1.621,2.022,2.022,0,0,1-1.641-2.335" fill="#a9acaa"/>
          </g>
        </g>
        <g id="Group_6225" data-name="Group 6225" transform="translate(-291 392.041)">
          <g id="Group_6224" data-name="Group 6224" clip-path="url(#clip-path-4)">
            <path id="Path_5770" data-name="Path 5770" d="M387.042,173.884c-.171-6.345.6-8.535.847-8.488v.014a.073.073,0,0,1,.057-.023s.423,2.012.852,4.715c-.606,1.9-1.269,4.16-1.753,6.3-.024-.754.022-1.571-.005-2.517" fill="#c0c2bd"/>
            <path id="Path_5771" data-name="Path 5771" d="M389.965,176.9a4.723,4.723,0,0,1-1.511,2.9c.071.09.147.18.229.27a3.031,3.031,0,0,1,.82,2.421,21.07,21.07,0,0,1-.388,2.1,3.523,3.523,0,0,0,.19,2.529,3.367,3.367,0,0,0,3.026,2.01,2.828,2.828,0,0,0,1.165-.267,3.223,3.223,0,0,0,1.35-4.335,3.451,3.451,0,0,0-2.306-1.93,6.519,6.519,0,0,1-1.506-1.523,6.989,6.989,0,0,1-.993-2.81c-.018-.446-.043-.9-.077-1.369m1.1,6.966a2,2,0,0,1,2.522.889c.035.061.067.123.1.187a2.023,2.023,0,0,1-.848,2.726,2,2,0,0,1-2.521-.89,1.953,1.953,0,0,1-.1-.187,2.022,2.022,0,0,1,.847-2.726" fill="#c0c2bd"/>
            <path id="Path_5772" data-name="Path 5772" d="M384.013,188.881a2.828,2.828,0,0,0,1.174.212,3.368,3.368,0,0,0,2.934-2.145,3.512,3.512,0,0,0,.076-2.534,21.013,21.013,0,0,1-.482-2.08,3.036,3.036,0,0,1,.711-2.454c.065-.079.126-.157.185-.237a4.718,4.718,0,0,0,.916-3.14c-.008-.766-.092-1.6-.108-2.557-.114-6.346-.98-8.5-1.226-8.446v.014a.068.068,0,0,0-.058-.019s-.335,2.048-.642,4.787c-.223,1.982-.432,4.326-.487,6.518-.012.453-.016.9-.014,1.337a6.971,6.971,0,0,1-.868,2.853,6.5,6.5,0,0,1-1.435,1.589,3.455,3.455,0,0,0-2.216,2.032,3.222,3.222,0,0,0,1.543,4.27m3.729-11.035a.634.634,0,1,1,.751.49.634.634,0,0,1-.751-.49m-4.1,7.122c.027-.066.057-.128.089-.19a2,2,0,0,1,2.48-1,2.024,2.024,0,0,1,.968,2.685c-.027.065-.058.128-.09.19a2,2,0,0,1-2.479,1,2.022,2.022,0,0,1-.968-2.685" fill="#a9acaa"/>
          </g>
        </g>
        <g id="Group_6227" data-name="Group 6227" transform="translate(-291 392.041)">
          <g id="Group_6226" data-name="Group 6226" clip-path="url(#clip-path-5)">
            <path id="Path_5774" data-name="Path 5774" d="M394.949,171.524c1.346-6.2,2.616-8.147,2.846-8.042l0,.014a.072.072,0,0,1,.062-.008s-.07,2.054-.3,4.782c-1.042,1.7-2.224,3.737-3.2,5.7.157-.738.4-1.52.6-2.445" fill="#c0c2bd"/>
            <path id="Path_5775" data-name="Path 5775" d="M397.068,175.154a4.725,4.725,0,0,1-2.16,2.458c.048.1.1.21.159.317a3.038,3.038,0,0,1,.219,2.547,20.957,20.957,0,0,1-.877,1.946,3.518,3.518,0,0,0-.419,2.5,3.369,3.369,0,0,0,2.46,2.675,2.816,2.816,0,0,0,1.195.017,3.222,3.222,0,0,0,2.345-3.887,3.455,3.455,0,0,0-1.781-2.425,6.532,6.532,0,0,1-1.1-1.838,6.981,6.981,0,0,1-.295-2.966c.089-.437.174-.888.252-1.347m-.589,7.028a2,2,0,0,1,2.237,1.464c.02.068.036.136.05.205a2.024,2.024,0,0,1-1.473,2.446,2,2,0,0,1-2.237-1.466,2.146,2.146,0,0,1,1.423-2.65" fill="#c0c2bd"/>
            <path id="Path_5776" data-name="Path 5776" d="M388.432,185.366a2.826,2.826,0,0,0,1.089.486,3.368,3.368,0,0,0,3.361-1.383,3.515,3.515,0,0,0,.678-2.443,21,21,0,0,1,.028-2.135,3.032,3.032,0,0,1,1.275-2.214c.082-.062.16-.123.237-.186a4.733,4.733,0,0,0,1.638-2.832c.175-.745.291-1.572.5-2.509,1.4-6.19,1.075-8.488.823-8.494l0,.014a.072.072,0,0,0-.052-.033s-.815,1.909-1.765,4.5c-.69,1.871-1.451,4.1-2.027,6.213-.12.437-.23.871-.332,1.295a6.968,6.968,0,0,1-1.523,2.564,6.516,6.516,0,0,1-1.772,1.2,3.455,3.455,0,0,0-2.637,1.446,3.222,3.222,0,0,0,.48,4.515m6.252-9.829a.634.634,0,1,1,.613.655.635.635,0,0,1-.613-.655m-5.678,5.94c.042-.057.086-.111.132-.163a2,2,0,0,1,2.647-.383,2.023,2.023,0,0,1,.3,2.838c-.042.057-.087.111-.132.164a2,2,0,0,1-2.647.383,2.022,2.022,0,0,1-.3-2.839" fill="#a9acaa"/>
          </g>
        </g>
        <g id="Group_6229" data-name="Group 6229" transform="translate(-291 392.041)">
          <g id="Group_6228" data-name="Group 6228" clip-path="url(#clip-path-6)">
            <path id="Path_5778" data-name="Path 5778" d="M391.226,169.656c.5-6.327,1.5-8.423,1.745-8.35v.014a.078.078,0,0,1,.06-.017s.206,2.046.345,4.779c-.8,1.826-1.7,4-2.412,6.076.056-.752.188-1.56.262-2.5" fill="#c0c2bd"/>
            <path id="Path_5779" data-name="Path 5779" d="M393.811,172.97A4.732,4.732,0,0,1,392,175.694c.061.1.127.2.2.293a3.037,3.037,0,0,1,.558,2.495q-.253,1.038-.609,2.046a3.515,3.515,0,0,0-.08,2.535,3.367,3.367,0,0,0,2.8,2.321,2.827,2.827,0,0,0,1.186-.142,3.223,3.223,0,0,0,1.8-4.167,3.453,3.453,0,0,0-2.088-2.164,6.537,6.537,0,0,1-1.335-1.675,6.975,6.975,0,0,1-.689-2.9c.03-.445.054-.9.069-1.369m.357,7.044a2,2,0,0,1,2.413,1.152c.028.064.054.129.076.2a2.024,2.024,0,0,1-1.132,2.621,2,2,0,0,1-2.413-1.154,1.94,1.94,0,0,1-.076-.2,2.021,2.021,0,0,1,1.132-2.62" fill="#c0c2bd"/>
            <path id="Path_5780" data-name="Path 5780" d="M386.618,184.246a2.819,2.819,0,0,0,1.144.335,3.367,3.367,0,0,0,3.146-1.82,3.515,3.515,0,0,0,.345-2.512,21.243,21.243,0,0,1-.258-2.119,3.037,3.037,0,0,1,.968-2.365c.074-.072.142-.143.21-.216a4.725,4.725,0,0,0,1.244-3.025c.074-.762.079-1.6.164-2.554.563-6.322-.07-8.556-.32-8.528v.014a.071.071,0,0,0-.056-.026s-.552,2-1.148,4.693c-.433,1.947-.889,4.255-1.178,6.429-.06.449-.111.893-.155,1.327a6.982,6.982,0,0,1-1.166,2.745,6.541,6.541,0,0,1-1.6,1.427,3.459,3.459,0,0,0-2.421,1.785,3.224,3.224,0,0,0,1.08,4.411M391.5,173.67a.634.634,0,1,1,.7.567.634.634,0,0,1-.7-.567m-4.833,6.646c.034-.063.07-.122.109-.18a2,2,0,0,1,2.572-.733,2.023,2.023,0,0,1,.677,2.773c-.034.061-.071.121-.109.179a2,2,0,0,1-2.572.734,2.022,2.022,0,0,1-.677-2.773" fill="#a9acaa"/>
          </g>
        </g>
        <g id="Group_6231" data-name="Group 6231" transform="translate(-291 392.041)">
          <g id="Group_6230" data-name="Group 6230" clip-path="url(#clip-path-7)">
            <path id="Path_5782" data-name="Path 5782" d="M389.105,169.836c.333-6.339,1.274-8.461,1.517-8.394v.014a.078.078,0,0,1,.06-.019s.261,2.04.474,4.768c-.754,1.847-1.6,4.046-2.246,6.139.036-.753.146-1.564.194-2.509" fill="#c0c2bd"/>
            <path id="Path_5783" data-name="Path 5783" d="M391.779,173.079a4.728,4.728,0,0,1-1.737,2.773c.064.1.132.191.207.287a3.034,3.034,0,0,1,.626,2.478,20.989,20.989,0,0,1-.554,2.063,3.523,3.523,0,0,0-.011,2.535,3.369,3.369,0,0,0,2.858,2.245,2.815,2.815,0,0,0,1.181-.174,3.223,3.223,0,0,0,1.691-4.214,3.451,3.451,0,0,0-2.147-2.107,6.552,6.552,0,0,1-1.38-1.638,7.007,7.007,0,0,1-.767-2.88c.018-.446.029-.9.032-1.371m.548,7.032a2,2,0,0,1,2.443,1.086,2.059,2.059,0,0,1,.082.194,2.024,2.024,0,0,1-1.061,2.651,2,2,0,0,1-2.443-1.088,1.946,1.946,0,0,1-.082-.194,2.023,2.023,0,0,1,1.061-2.65" fill="#c0c2bd"/>
            <path id="Path_5784" data-name="Path 5784" d="M384.9,184.546a2.823,2.823,0,0,0,1.153.3,3.365,3.365,0,0,0,3.094-1.9,3.515,3.515,0,0,0,.278-2.52,21.118,21.118,0,0,1-.316-2.112,3.036,3.036,0,0,1,.9-2.39c.071-.074.138-.147.2-.222a4.723,4.723,0,0,0,1.162-3.057c.053-.764.035-1.6.1-2.558.39-6.335-.3-8.55-.552-8.516v.014a.071.071,0,0,0-.056-.024s-.5,2.015-1.02,4.722c-.38,1.958-.774,4.278-1,6.458-.048.451-.087.9-.119,1.332a6.979,6.979,0,0,1-1.092,2.775,6.529,6.529,0,0,1-1.556,1.47,3.455,3.455,0,0,0-2.371,1.85,3.222,3.222,0,0,0,1.2,4.379m4.593-10.705a.634.634,0,1,1,.71.548.634.634,0,0,1-.71-.548m-4.651,6.775c.032-.063.067-.123.1-.183a2,2,0,0,1,2.551-.8,2.024,2.024,0,0,1,.752,2.754c-.032.063-.068.123-.1.182a2,2,0,0,1-2.551.8,2.024,2.024,0,0,1-.752-2.754" fill="#a9acaa"/>
          </g>
        </g>
        <g id="Group_6233" data-name="Group 6233" transform="translate(-291 392.041)">
          <g id="Group_6232" data-name="Group 6232" clip-path="url(#clip-path-2)">
            <rect id="Rectangle_1466" data-name="Rectangle 1466" width="20.697" height="20.106" transform="translate(381.507 173.005)" fill="#c9c9c9"/>
          </g>
        </g>
        <g id="Group_6235" data-name="Group 6235" transform="translate(-291 392.041)">
          <g id="Group_6234" data-name="Group 6234" clip-path="url(#clip-path-9)">
            <path id="Path_5786" data-name="Path 5786" d="M423.813,177.456c-.335,6.338-1.277,8.461-1.521,8.394v-.014a.074.074,0,0,1-.059.018s-.261-2.04-.473-4.768c.756-1.847,1.6-4.045,2.249-6.138-.036.753-.147,1.564-.2,2.509" fill="#c0c2bd"/>
            <path id="Path_5787" data-name="Path 5787" d="M421.14,174.212a4.729,4.729,0,0,1,1.738-2.772c-.063-.1-.132-.191-.207-.287a3.039,3.039,0,0,1-.625-2.479,21.051,21.051,0,0,1,.555-2.062,3.521,3.521,0,0,0,.012-2.536,3.365,3.365,0,0,0-2.856-2.245,2.817,2.817,0,0,0-1.182.174,3.222,3.222,0,0,0-1.692,4.213,3.452,3.452,0,0,0,2.145,2.108,6.511,6.511,0,0,1,1.379,1.638,6.993,6.993,0,0,1,.767,2.881c-.018.445-.03.9-.033,1.37m-.545-7.032a2,2,0,0,1-2.443-1.087c-.03-.064-.057-.128-.081-.194a2.023,2.023,0,0,1,1.061-2.65,2,2,0,0,1,2.443,1.089,1.922,1.922,0,0,1,.082.193,2.023,2.023,0,0,1-1.062,2.65" fill="#c0c2bd"/>
            <path id="Path_5788" data-name="Path 5788" d="M428.029,162.748a2.84,2.84,0,0,0-1.153-.305,3.371,3.371,0,0,0-3.1,1.9,3.515,3.515,0,0,0-.278,2.52,21.146,21.146,0,0,1,.315,2.112,3.034,3.034,0,0,1-.9,2.39c-.071.074-.138.147-.2.221a4.726,4.726,0,0,0-1.164,3.058c-.053.763-.035,1.6-.1,2.557-.393,6.335.3,8.551.548,8.516v-.014a.069.069,0,0,0,.057.025s.5-2.016,1.022-4.722c.38-1.957.775-4.278,1.005-6.458.048-.45.087-.9.12-1.331a6.973,6.973,0,0,1,1.092-2.775,6.513,6.513,0,0,1,1.558-1.469,3.46,3.46,0,0,0,2.371-1.85,3.222,3.222,0,0,0-1.2-4.379m-4.6,10.7a.635.635,0,1,1-.711-.548h0a.635.635,0,0,1,.71.548m4.653-6.773c-.032.063-.067.123-.1.182a2,2,0,0,1-2.552.8,2.023,2.023,0,0,1-.75-2.754c.032-.063.067-.124.1-.183a2,2,0,0,1,2.551-.8,2.022,2.022,0,0,1,.751,2.754" fill="#a9acaa"/>
          </g>
        </g>
        <g id="Group_6237" data-name="Group 6237" transform="translate(-291 392.041)">
          <g id="Group_6236" data-name="Group 6236" clip-path="url(#clip-path-10)">
            <path id="Path_5790" data-name="Path 5790" d="M419.8,174.78c1.355,6.2,1.009,8.5.757,8.5l0-.014a.077.077,0,0,1-.052.034s-.792-1.9-1.719-4.473c.239-1.981.468-4.324.543-6.514.165.736.273,1.547.476,2.471" fill="#c0c2bd"/>
            <path id="Path_5791" data-name="Path 5791" d="M416.363,172.359a4.726,4.726,0,0,1,.942-3.133c-.087-.076-.178-.15-.276-.223a3.038,3.038,0,0,1-1.259-2.224c-.039-.711-.043-1.424-.011-2.135a3.518,3.518,0,0,0-.66-2.449,3.366,3.366,0,0,0-3.349-1.409,2.808,2.808,0,0,0-1.094.481,3.221,3.221,0,0,0-.515,4.51,3.449,3.449,0,0,0,2.627,1.465,6.543,6.543,0,0,1,1.764,1.214,7.016,7.016,0,0,1,1.5,2.575c.1.435.211.88.331,1.331m-2.388-6.637a2,2,0,0,1-2.643-.4,1.9,1.9,0,0,1-.131-.166,2.024,2.024,0,0,1,.323-2.837,2,2,0,0,1,2.643.4,1.907,1.907,0,0,1,.131.166,2.022,2.022,0,0,1-.323,2.836" fill="#c0c2bd"/>
            <path id="Path_5792" data-name="Path 5792" d="M419.97,159.481a2.839,2.839,0,0,0-1.193.011,3.367,3.367,0,0,0-2.48,2.656,3.516,3.516,0,0,0,.4,2.5c.362.846.47.862.863,1.952a3.038,3.038,0,0,1-.24,2.544c-.049.091-.094.179-.137.268a4.727,4.727,0,0,0-.313,3.256c.152.751.39,1.551.586,2.492,1.3,6.212,2.552,8.166,2.784,8.066l0-.013a.073.073,0,0,0,.061.009s-.054-2.076-.265-4.824c-.151-1.989-.386-4.33-.741-6.494-.073-.447-.153-.887-.237-1.315a6.967,6.967,0,0,1,.319-2.965,6.521,6.521,0,0,1,1.112-1.83,3.452,3.452,0,0,0,1.8-2.411,3.222,3.222,0,0,0-2.314-3.906m-1.6,11.539a.634.634,0,1,1-.83-.341h0a.633.633,0,0,1,.829.341m2.694-7.764c-.014.07-.032.137-.052.2a2,2,0,0,1-2.248,1.449,2.023,2.023,0,0,1-1.453-2.457c.014-.069.032-.137.052-.2a2,2,0,0,1,2.248-1.449,2.023,2.023,0,0,1,1.453,2.457" fill="#a9acaa"/>
          </g>
        </g>
        <g id="Group_6239" data-name="Group 6239" transform="translate(-291 392.041)">
          <g id="Group_6238" data-name="Group 6238" clip-path="url(#clip-path-11)">
            <path id="Path_5794" data-name="Path 5794" d="M417.139,179.215c1.355,6.2,1.009,8.5.757,8.5l0-.014a.077.077,0,0,1-.052.034s-.792-1.9-1.719-4.473c.239-1.981.468-4.324.543-6.514.165.736.273,1.547.476,2.471" fill="#c0c2bd"/>
            <path id="Path_5795" data-name="Path 5795" d="M413.7,176.794a4.726,4.726,0,0,1,.942-3.133c-.087-.076-.178-.15-.276-.223a3.038,3.038,0,0,1-1.259-2.224c-.039-.711-.043-1.424-.011-2.135a3.518,3.518,0,0,0-.66-2.449,3.366,3.366,0,0,0-3.349-1.409,2.808,2.808,0,0,0-1.094.481,3.221,3.221,0,0,0-.515,4.51,3.449,3.449,0,0,0,2.627,1.465,6.527,6.527,0,0,1,1.764,1.214,7.016,7.016,0,0,1,1.5,2.575c.1.435.211.88.331,1.331m-2.388-6.637a2,2,0,0,1-2.643-.4,1.916,1.916,0,0,1-.131-.166,2.024,2.024,0,0,1,.323-2.837,2,2,0,0,1,2.643.4,1.916,1.916,0,0,1,.131.166,2.022,2.022,0,0,1-.323,2.836" fill="#c0c2bd"/>
            <path id="Path_5796" data-name="Path 5796" d="M417.309,163.916a2.839,2.839,0,0,0-1.193.011,3.367,3.367,0,0,0-2.48,2.656,3.516,3.516,0,0,0,.4,2.5c.362.846.47.862.863,1.952a3.038,3.038,0,0,1-.24,2.544c-.049.091-.094.179-.137.268a4.727,4.727,0,0,0-.313,3.256c.152.751.39,1.551.586,2.492,1.3,6.212,2.552,8.166,2.784,8.066l0-.013a.073.073,0,0,0,.061.009s-.054-2.076-.265-4.824c-.151-1.989-.385-4.33-.741-6.494-.073-.447-.153-.887-.237-1.315a6.967,6.967,0,0,1,.319-2.965,6.521,6.521,0,0,1,1.112-1.83,3.452,3.452,0,0,0,1.8-2.411,3.222,3.222,0,0,0-2.314-3.906m-1.6,11.539a.634.634,0,1,1-.829-.341.633.633,0,0,1,.829.341m2.694-7.764c-.014.07-.032.137-.052.2a2,2,0,0,1-2.248,1.449,2.023,2.023,0,0,1-1.453-2.457c.014-.069.032-.137.052-.2a2,2,0,0,1,2.248-1.449,2.023,2.023,0,0,1,1.453,2.457" fill="#a9acaa"/>
          </g>
        </g>
        <g id="Group_7033" data-name="Group 7033" transform="translate(-291 392.041)">
          <rect id="Rectangle_1468" data-name="Rectangle 1468" width="20.697" height="20.106" transform="translate(408.117 173.005)" fill="#c9c9c9"/>
          <rect id="Rectangle_1469" data-name="Rectangle 1469" width="51.446" height="12.418" transform="translate(458.903 93.942)" fill="#fff"/>
          <rect id="Rectangle_1470" data-name="Rectangle 1470" width="17.644" height="12.418" transform="translate(459.008 93.942)" fill="#c3d1d4"/>
          <rect id="Rectangle_1471" data-name="Rectangle 1471" width="51.446" height="1.716" transform="translate(458.903 104.644)" fill="#3175ae"/>
          <rect id="Rectangle_1472" data-name="Rectangle 1472" width="20.207" height="1.659" transform="translate(485.284 98.087)" fill="#af0d11"/>
          <rect id="Rectangle_1473" data-name="Rectangle 1473" width="51.446" height="12.418" transform="translate(453.903 80.933)" fill="#fff"/>
          <rect id="Rectangle_1474" data-name="Rectangle 1474" width="17.644" height="12.418" transform="translate(454.008 80.933)" fill="#c3d1d4"/>
          <rect id="Rectangle_1475" data-name="Rectangle 1475" width="51.446" height="1.716" transform="translate(453.903 91.635)" fill="#3175ae"/>
          <rect id="Rectangle_1476" data-name="Rectangle 1476" width="20.207" height="1.659" transform="translate(480.284 85.078)" fill="#af0d11"/>
          <rect id="Rectangle_1477" data-name="Rectangle 1477" width="51.446" height="12.418" transform="translate(417.692 93.942)" fill="#fff"/>
          <rect id="Rectangle_1478" data-name="Rectangle 1478" width="17.644" height="12.418" transform="translate(417.797 93.942)" fill="#c3d1d4"/>
          <rect id="Rectangle_1479" data-name="Rectangle 1479" width="51.446" height="1.716" transform="translate(417.692 104.644)" fill="#3175ae"/>
          <rect id="Rectangle_1480" data-name="Rectangle 1480" width="20.207" height="1.659" transform="translate(444.073 98.087)" fill="#af0d11"/>
          <rect id="Rectangle_1481" data-name="Rectangle 1481" width="51.446" height="12.418" transform="translate(415.692 80.933)" fill="#fff"/>
          <rect id="Rectangle_1482" data-name="Rectangle 1482" width="17.644" height="12.418" transform="translate(415.797 80.933)" fill="#c3d1d4"/>
          <rect id="Rectangle_1483" data-name="Rectangle 1483" width="51.446" height="1.716" transform="translate(415.692 91.635)" fill="#3175ae"/>
          <rect id="Rectangle_1484" data-name="Rectangle 1484" width="20.207" height="1.659" transform="translate(442.073 85.078)" fill="#af0d11"/>
          <rect id="Rectangle_1485" data-name="Rectangle 1485" width="51.446" height="12.418" transform="translate(375.481 93.942)" fill="#fff"/>
          <rect id="Rectangle_1486" data-name="Rectangle 1486" width="17.644" height="12.418" transform="translate(375.586 93.942)" fill="#c3d1d4"/>
          <rect id="Rectangle_1487" data-name="Rectangle 1487" width="51.446" height="1.716" transform="translate(375.481 104.644)" fill="#3175ae"/>
          <rect id="Rectangle_1488" data-name="Rectangle 1488" width="20.207" height="1.659" transform="translate(401.862 98.087)" fill="#af0d11"/>
          <g id="Group_6242" data-name="Group 6242" opacity="0.34">
            <g id="Group_6241" data-name="Group 6241">
              <g id="Group_6240" data-name="Group 6240" clip-path="url(#clip-path-12)">
                <path id="Path_5798" data-name="Path 5798" d="M503.6,146.4H479.782a1,1,0,0,1-1-1v-8.964a1,1,0,0,1,1-1H503.6a1,1,0,0,1,1,1V145.4a1,1,0,0,1-1,1" fill="#1ba80c"/>
              </g>
            </g>
          </g>
          <g id="Group_6245" data-name="Group 6245" opacity="0.34">
            <g id="Group_6244" data-name="Group 6244">
              <g id="Group_6243" data-name="Group 6243" clip-path="url(#clip-path-13)">
                <path id="Path_5799" data-name="Path 5799" d="M499.459,146.4H477.516a1,1,0,0,1-1-1v-11.21a1,1,0,0,1,1-1h21.943a1,1,0,0,1,1,1V145.4a1,1,0,0,1-1,1" fill="#1ba80c"/>
              </g>
            </g>
          </g>
          <g id="Group_6248" data-name="Group 6248" opacity="0.34">
            <g id="Group_6247" data-name="Group 6247">
              <g id="Group_6246" data-name="Group 6246" clip-path="url(#clip-path-14)">
                <path id="Path_5800" data-name="Path 5800" d="M494.024,148.76H472.081a1,1,0,0,1-1-1V136.55a1,1,0,0,1,1-1h21.943a1,1,0,0,1,1,1v11.21a1,1,0,0,1-1,1" fill="#1ba80c"/>
              </g>
            </g>
          </g>
          <g id="Group_6251" data-name="Group 6251" opacity="0.34">
            <g id="Group_6250" data-name="Group 6250">
              <g id="Group_6249" data-name="Group 6249" clip-path="url(#clip-path-15)">
                <path id="Path_5801" data-name="Path 5801" d="M463.683,146.4H441.74a1,1,0,0,1-1-1v-6.969a1,1,0,0,1,1-1h21.943a1,1,0,0,1,1,1V145.4a1,1,0,0,1-1,1" fill="#1ba80c"/>
              </g>
            </g>
          </g>
          <g id="Group_6254" data-name="Group 6254" opacity="0.34">
            <g id="Group_6253" data-name="Group 6253">
              <g id="Group_6252" data-name="Group 6252" clip-path="url(#clip-path-16)">
                <path id="Path_5802" data-name="Path 5802" d="M459.248,147.76H433.721a1,1,0,0,1-1-1V135.55a1,1,0,0,1,1-1h25.527a1,1,0,0,1,1,1v11.21a1,1,0,0,1-1,1" fill="#1ba80c"/>
              </g>
            </g>
          </g>
          <path id="Path_5803" data-name="Path 5803" d="M488.766,149.83h-17.74v-13.6l17.74,4.929Z" fill="#2c6b96"/>
          <rect id="Rectangle_1494" data-name="Rectangle 1494" width="17.149" height="8.743" transform="translate(488.765 141.087)" fill="#3175ae"/>
          <rect id="Rectangle_1495" data-name="Rectangle 1495" width="13.009" height="1.183" transform="translate(490.905 144.325)" fill="#fff"/>
          <path id="Path_5804" data-name="Path 5804" d="M450.329,149.83h-17.74v-13.6l17.74,4.929Z" fill="#2c6b96"/>
          <rect id="Rectangle_1496" data-name="Rectangle 1496" width="17.149" height="8.743" transform="translate(450.328 141.087)" fill="#3175ae"/>
          <rect id="Rectangle_1497" data-name="Rectangle 1497" width="13.009" height="1.183" transform="translate(452.468 144.325)" fill="#fff"/>
          <rect id="Rectangle_1498" data-name="Rectangle 1498" width="6.209" height="116.198" transform="translate(366.837 75.617)" fill="#fff"/>
          <path id="Path_5805" data-name="Path 5805" d="M435.375,127.272H407.05l5.29,11.859a3.056,3.056,0,0,0,2.837,1.43h13.639a2.929,2.929,0,0,0,2.9-1.6Z" fill="#c9c9c9"/>
          <rect id="Rectangle_1499" data-name="Rectangle 1499" width="30.968" height="1.022" transform="translate(406.072 126.25)" fill="#b7b7b7"/>
          <path id="Path_5806" data-name="Path 5806" d="M435.1,131.53H406.775l5.29,11.859a3.056,3.056,0,0,0,2.837,1.43h13.639a2.929,2.929,0,0,0,2.9-1.6Z" fill="#c9c9c9"/>
          <rect id="Rectangle_1500" data-name="Rectangle 1500" width="30.968" height="1.022" transform="translate(405.797 130.509)" fill="#b7b7b7"/>
          <path id="Path_5807" data-name="Path 5807" d="M435.1,136.491H406.775l5.29,11.859a3.056,3.056,0,0,0,2.837,1.43h13.639a2.929,2.929,0,0,0,2.9-1.6Z" fill="#c9c9c9"/>
          <rect id="Rectangle_1501" data-name="Rectangle 1501" width="30.968" height="1.022" transform="translate(405.797 135.469)" fill="#b7b7b7"/>
        </g>
      </g>
      <g id="Group_5208" data-name="Group 5208" transform="translate(253.799 206.092)">
        <g id="Group_329" data-name="Group 329" transform="translate(0 340.011)">
          <path id="Path_794" data-name="Path 794" d="M905.671,533.389s3.293,9.526,4.487,15.314,10.933,12.859,6.6,19.4l-39.376-35.391s3.217-11.125,11.036-12.343c0,0,1.592,8.2,6.876,9.922S901.886,527.688,905.671,533.389Z" transform="translate(-876.845 -520.373)" fill="#2d1f29"/>
          <path id="Path_795" data-name="Path 795" d="M877.607,527.652l-.482,1.811a1.741,1.741,0,0,0,.517,1.74l36.3,32.623a1.74,1.74,0,0,0,2.456-.13l.587-.652Z" transform="translate(-877.066 -515.309)" fill="#2d1f29"/>
        </g>
        <g id="Group_330" data-name="Group 330" transform="translate(86.116 370.971)">
          <path id="Path_796" data-name="Path 796" d="M951.593,539.038s8.816,4.884,13.574,8.391,16.728,2.254,17.881,10.018H930.106s-5.043-10.427-.042-16.558c0,0,6.669,5.038,11.746,2.783S944.968,537.328,951.593,539.038Z" transform="translate(-927.852 -538.631)" fill="#382632"/>
          <path id="Path_797" data-name="Path 797" d="M929.181,549.727l.853,1.669a1.738,1.738,0,0,0,1.548.946h48.8a1.738,1.738,0,0,0,1.738-1.738v-.877Z" transform="translate(-926.927 -530.912)" fill="#382632"/>
        </g>
        <g id="Group_332" data-name="Group 332" transform="translate(7.744 211.787)">
          <path id="Path_798" data-name="Path 798" d="M968.778,474.836c2.685,25.325-20.769,45.5-24.771,50.806-13.4,17.752-27.845,52.838-29.751,62.137-2.472,12.068-24.727-.266-32.623-13.165,0,0,12.253-6.554,12.09-16.574s19.1-51.281,29.956-61.815c0,0,25.19-31.921,26.4-49.952C950.715,436.789,968.778,474.836,968.778,474.836Z" transform="translate(-881.633 -444.755)" fill="#a3a2a2"/>
          <g id="Group_331" data-name="Group 331" transform="translate(16.131 48.816)">
            <path id="Path_799" data-name="Path 799" d="M907.122,567.855c1.906-9.3,16.354-44.385,29.751-62.137,2.444-3.24,12.112-12.031,18.68-24.14-.99-5.316-2.217-8.382-3.61-8-7.665,2.089-13.571,2.2-28.754,25.746-19.365,30.015-21.233,60.331-21.233,60.331s-4.668-1.753-3.525,1.246,2.816,8.6.264,5.993-8.131-4.94-7.5.858C891.585,571.335,904.649,579.924,907.122,567.855Z" transform="translate(-891.146 -473.544)" fill="#c4c4c4"/>
          </g>
        </g>
        <g id="Group_334" data-name="Group 334" transform="translate(58.749 151.497)">
          <g id="Group_333" data-name="Group 333">
            <path id="Path_800" data-name="Path 800" d="M920.148,413.392s-12.8,30.577-6.864,44.378c7.229,16.837,14.359,69.442,13.732,75.665-.631,6.259-1.7,58.13,9.111,109.347,12.758-7.9,14.624-8.613,34.467-12.285-2.591-14.451-17.373-79.228-12.667-89.7,1.755-3.922,2.495-15.341,1.577-20.436-.912-5.077,2.376-87.947,5.547-104.324C967.69,402.39,920.148,413.392,920.148,413.392Z" transform="translate(-911.712 -409.201)" fill="#a3a2a2"/>
          </g>
          <path id="Path_801" data-name="Path 801" d="M947.007,434.8c0,9.509-1.98,65.367-.759,71.292s-3.168,22.978-3.168,27.736,12.908,74.363,12.908,77.532c0,0-14.259-1.585-22.451,4.887a19.654,19.654,0,0,1-1.585-7.333s7.727-8.514,13.075-7.924c-5.747-.192-8.719-.59-9.509,0s7.924-5.345,9.509-6.93-12.979-48.017-7.63-67.631c0,0,3.469-15.371,3.437-22.71C940.566,448.253,947.007,434.8,947.007,434.8Z" transform="translate(-897.632 -391.389)" fill="#c4c4c4"/>
        </g>
        <g id="Group_337" data-name="Group 337" transform="translate(82.402 0)">
          <path id="Path_802" data-name="Path 802" d="M926.72,373.806c.772-.6,6.271-8.522,6.881-9.52a27.61,27.61,0,0,0,3.2-9.1,110.457,110.457,0,0,1-3.142-19.056s4.77-8.741,10.391-9.464c2.195-6.474,12.431-3.853,20.206-2.574,9.691,1.574,12.082,7.458,11.721,22.193-.029.929-2.016,4.134-2.016,4.349.556,5.135,1.884,9.169,1.586,10.1-.254.734-1.952,1.7-3.7,1.624-.67,2.182-.559,8.5-1.141,10.086-1.49,4.1-2.923,4.665-4.217,4.685a17.812,17.812,0,0,1-7.217-1.869c-2.347,2.549-6.157,2.784-7.514,6.347-.719,1.9,4.111,8.245,4.111,8.245L938.44,381.4S921.3,378.074,926.72,373.806Z" transform="translate(-925.661 -318.041)" fill="#7f6560"/>
          <g id="Group_336" data-name="Group 336" transform="translate(4.025)">
            <g id="Group_335" data-name="Group 335">
              <path id="Path_803" data-name="Path 803" d="M969.993,337.2c2.172-1.579,4.48-4.449,4.875-6.342.85-4.078-4.195-6.12-5.423-7.936a1.65,1.65,0,0,0-1.272-.731c-1.86-.129-2.562-3.535-19.938-1.891a15.891,15.891,0,0,0-10.323,4.831s-16.209,2.845-7.1,34.443c.431,1.492,2.6,4.271,2.3,5.657,0,0,7.516-.6,8.3-3.18,2.474-8.171,4.577-14.495,7.125-14.167,1.536.205,3.5,4.455,3.964,3.766,2.547-3.741-.337-6.052.412-8.992.208-.814.2-8.429,5.641-7.8C960.333,335.058,969.993,337.2,969.993,337.2Z" transform="translate(-928.035 -319.858)" fill="#3a221a"/>
            </g>
            <path id="Path_804" data-name="Path 804" d="M943.92,337.71c-.373-3.8-5.433-4.319-6.083-1.026s.376,10.5,3.232,10.656C943.9,347.492,943.92,337.71,943.92,337.71Z" transform="translate(-921.348 -309.668)" fill="#7f6560"/>
          </g>
        </g>
        <g id="Group_342" data-name="Group 342" transform="translate(53.719 53.004)">
          <g id="Group_340" data-name="Group 340" transform="translate(0)">
            <g id="Group_339" data-name="Group 339">
              <path id="Path_812" data-name="Path 812" d="M968.49,371.229c-1.1-1.575-3.073-3.824-3.073-3.824-1.228,3.673-22.529-8.746-25.047-16.289l-3.666,4.853s-15.85,18.871-17.13,39.818c-3.569,58.239-8.848,98.581-10.829,116.409,0,0,13.311,8.557,28,9.771s34.6-1.317,34.6-1.317-2.2-61.37,1.205-101.486c.628-7.419,2.534-12.038,1.584-19.421C973.118,391.78,970.685,374.383,968.49,371.229Z" transform="translate(-908.746 -351.116)" fill="#014951"/>
            </g>
          </g>
          <g id="Group_341" data-name="Group 341" transform="translate(33.545 7.529)">
            <path id="Path_813" data-name="Path 813" d="M951.816,363.845a38.244,38.244,0,0,1-18.562-8.288c-1.782,3.961-4.726,9.63-4.726,9.63s14.257,24.189,14.784,36.866a165.563,165.563,0,0,1-.527,24.828c-.524,6.335-5.28,20.072-5.28,34.334,0,9.755.792,55.975,1.587,58,9.781-.424,18.488-1.652,18.488-1.652s-.5-65.36,2.9-105.468c.627-7.422,2.533-12.041,1.584-19.419-2.2-17.281-6.45-23.367-10.249-28.828" transform="translate(-928.528 -355.556)" fill="#02979b"/>
          </g>
        </g>
        <g id="Group_344" data-name="Group 344" transform="translate(44.338 65.451)">
          <g id="Group_343" data-name="Group 343" transform="translate(14.642 31.519) rotate(7)">
            <path id="Path_814" data-name="Path 814" d="M29.878,13.411c-3.127,5.362-4.1,28.464-7.927,41.6,2.716,4.253,8.007,37.651,8.517,38.331,2.776,3.661,3.273,4.16,4.066,5.248,1.357,1.865.692,2.5.894,4.467.112,1.124,2.708,6.681,1.347,6.635s-3.261-5.906-3.634-6.929a46.849,46.849,0,0,0,2.287,6.269c.682,1.224,3.815,8.862,2.852,9.216-1.768.646-5.207-8.178-5.226-7.366-.01.517,5.063,9.092,3.9,9.253-2.484.37-5-7.737-6.493-8.162a24.929,24.929,0,0,1,2.1,3.938c.768,1.872,2.1,3.171,1.711,3.736-1.238,1.877-7-9.4-7.234-7.726-.091.68,5.175,5.608,3.592,5.789-.775.1-7.137-5.894-7.137-5.894a58.855,58.855,0,0,1-3.825-8.329,106.808,106.808,0,0,0-6-14.515C7.319,76.35,2.378,66.961.692,62.008-2.689,52.163,7.419,0,7.419,0S33.01,8.041,29.878,13.411Z" transform="translate(0 0)" fill="#7f6560"/>
          </g>
          <path id="Path_816" data-name="Path 816" d="M15.152.817c-3.849.96-11.425,9.625-12.626,19.9S0,40.142,0,40.142s8.658,1.938,12.677,2.652,12.345,4.94,14.018,4.77,7.5-23.577,6.9-31.715C32.979,7.371,30.544-3.008,15.152.817Z" transform="translate(21.763 0) rotate(7)" fill="#02979b"/>
        </g>
      </g>
    </g>
  </g>
</svg>