<svg xmlns="http://www.w3.org/2000/svg" xmlns:xlink="http://www.w3.org/1999/xlink" width="378.521" height="417.562" viewBox="0 0 378.521 417.562">
  <defs>
    <clipPath id="clip-path">
      <circle id="Ellipse_46" data-name="Ellipse 46" cx="93" cy="93" r="93" transform="translate(-0.488 -0.488)" fill="none"/>
    </clipPath>
    <clipPath id="clip-path-3">
      <circle id="Ellipse_46-3" data-name="Ellipse 46" cx="111.734" cy="111.734" r="111.734" fill="none"/>
    </clipPath>
    <clipPath id="clip-path-4">
      <rect id="Rectangle_793" data-name="Rectangle 793" width="109.838" height="145.715" fill="none"/>
    </clipPath>
    <clipPath id="clip-path-5">
      <rect id="Rectangle_777" data-name="Rectangle 777" width="109.837" height="145.715" fill="none"/>
    </clipPath>
    <clipPath id="clip-path-7">
      <rect id="Rectangle_781" data-name="Rectangle 781" width="71.825" height="22.959" fill="none"/>
    </clipPath>
    <clipPath id="clip-path-8">
      <rect id="Rectangle_782" data-name="Rectangle 782" width="60.591" height="62.499" fill="none"/>
    </clipPath>
    <clipPath id="clip-path-9">
      <rect id="Rectangle_783" data-name="Rectangle 783" width="50.691" height="46.458" fill="none"/>
    </clipPath>
    <clipPath id="clip-path-10">
      <rect id="Rectangle_784" data-name="Rectangle 784" width="61.557" height="7.097" fill="none"/>
    </clipPath>
    <clipPath id="clip-path-11">
      <rect id="Rectangle_786" data-name="Rectangle 786" width="10.997" height="4.842" fill="none"/>
    </clipPath>
    <clipPath id="clip-path-12">
      <rect id="Rectangle_787" data-name="Rectangle 787" width="28.415" height="4.891" fill="none"/>
    </clipPath>
    <clipPath id="clip-path-14">
      <rect id="Rectangle_790" data-name="Rectangle 790" width="10.997" height="2.61" fill="none"/>
    </clipPath>
    <clipPath id="clip-path-15">
      <rect id="Rectangle_791" data-name="Rectangle 791" width="6.527" height="6.008" fill="none"/>
    </clipPath>
    <clipPath id="clip-path-16">
      <rect id="Rectangle_811" data-name="Rectangle 811" width="115.683" height="121.379" fill="none"/>
    </clipPath>
    <clipPath id="clip-path-18">
      <rect id="Rectangle_799" data-name="Rectangle 799" width="111.299" height="28.704" fill="none"/>
    </clipPath>
    <clipPath id="clip-path-19">
      <rect id="Rectangle_800" data-name="Rectangle 800" width="49.096" height="25.18" fill="none"/>
    </clipPath>
    <clipPath id="clip-path-24">
      <rect id="Rectangle_806" data-name="Rectangle 806" width="75.741" height="10.963" fill="none"/>
    </clipPath>
    <clipPath id="clip-path-25">
      <rect id="Rectangle_808" data-name="Rectangle 808" width="44.055" height="6.376" fill="none"/>
    </clipPath>
    <clipPath id="clip-path-26">
      <rect id="Rectangle_809" data-name="Rectangle 809" width="14.212" height="3.195" fill="none"/>
    </clipPath>
  </defs>
  <g id="Group_6474" data-name="Group 6474" transform="translate(-137 -208.407)">
    <g id="Group_6466" data-name="Group 6466" transform="translate(-76.211 100.789)">
      <g id="Group_1824" data-name="Group 1824" transform="translate(213.699 149.699)">
        <circle id="Ellipse_46-4" data-name="Ellipse 46" cx="93" cy="93" r="93" transform="translate(-0.488 -0.488)" fill="#f5f2ed"/>
        <g id="Group_484" data-name="Group 484" transform="translate(0 0)">
          <g id="Group_483" data-name="Group 483" clip-path="url(#clip-path)">
            <g id="Group_480" data-name="Group 480" transform="translate(22.697 26.528)">
              <rect id="Rectangle_453" data-name="Rectangle 453" width="3.564" height="18.852" transform="translate(30.722 12.007)" fill="#f3c8cf"/>
              <rect id="Rectangle_454" data-name="Rectangle 454" width="4.814" height="18.852" transform="translate(34.287 12.007)" fill="#fff"/>
              <path id="Path_1101" data-name="Path 1101" d="M-1680.881,896.737a.914.914,0,0,0-.914.914v12.633a.915.915,0,0,0,.914.914h2.483V896.737Z" transform="translate(1705.009 -876.911)" fill="#f3c8cf"/>
              <path id="Path_1102" data-name="Path 1102" d="M-1659,896.737h-19.083V911.2H-1659a.915.915,0,0,0,.914-.914V897.651A.914.914,0,0,0-1659,896.737Z" transform="translate(1704.69 -876.911)" fill="#fff"/>
              <path id="Path_1103" data-name="Path 1103" d="M-1637.365,953.814a34.91,34.91,0,0,0-35.089-34.734,34.911,34.911,0,0,0-34.735,34.734v96.316a4.161,4.161,0,0,0,4.161,4.161h61.5a4.162,4.162,0,0,0,4.161-4.161h0Z" transform="translate(1707.188 -878.828)" fill="#fff"/>
              <path id="Rectangle_455" data-name="Rectangle 455" d="M-1682.683,902.486h24.571a2.607,2.607,0,0,1,2.607,2.607h0v13.2a2.606,2.606,0,0,1-2.606,2.606h-24.571a2.607,2.607,0,0,1-2.607-2.607v-13.2A2.606,2.606,0,0,1-1682.683,902.486Z" transform="translate(1705.309 -877.404)" fill="#e01d23"/>
              <path id="Path_1104" data-name="Path 1104" d="M-1627.355,882.537c-1.453-1.936-6.344-4.979-6.344-4.979-10.148-5.119-29.754-.83-33.351-.76s-11.341-1.591-11.341-1.591-3.108-.138-3.108,1.8a1.611,1.611,0,0,0,1.409,1.792,1.629,1.629,0,0,0,.32.006,2.778,2.778,0,0,1,2.628,2.7,3.966,3.966,0,0,0,3.045,3.251v2.619h9.063V884.8a19.394,19.394,0,0,1,16.73-7.458c10.393.762,10.408.335,19.131,6.8A3.3,3.3,0,0,0-1627.355,882.537Z" transform="translate(1704.985 -875.05)" fill="#e01d23"/>
            </g>
            <g id="Group_7028" data-name="Group 7028" transform="translate(55.228 58.946)">
              <g id="Group_5927" data-name="Group 5927" transform="translate(52.968 13.718)">
                <g id="Group_480-2" data-name="Group 480" transform="translate(0)">
                  <path id="Path_1103-2" data-name="Path 1103" d="M-1654.058,945.51a26.564,26.564,0,0,0-26.7-26.43,26.565,26.565,0,0,0-26.431,26.43V1018.8a3.167,3.167,0,0,0,3.167,3.167h46.795a3.167,3.167,0,0,0,3.167-3.167h0Z" transform="translate(1707.188 -901.693)" fill="#fff"/>
                  <path id="Rectangle_455-2" data-name="Rectangle 455" d="M-1683.306,902.486h18.7c1.1,0,1.984,1.163,1.984,2.6h0v13.15c0,1.435-.888,2.6-1.983,2.6h-18.7c-1.1,0-1.984-1.163-1.984-2.6v-13.15C-1685.289,903.649-1684.4,902.486-1683.306,902.486Z" transform="translate(1700.523 -902.486)" fill="#fff"/>
                  <g id="Group_5925" data-name="Group 5925" transform="translate(16.607 1.93)" opacity="0.198">
                    <rect id="Rectangle_1259" data-name="Rectangle 1259" width="1.207" height="13.881" rx="0.604" fill="#a79d96"/>
                    <rect id="Rectangle_1260" data-name="Rectangle 1260" width="1.207" height="13.881" rx="0.604" transform="translate(19.011)" fill="#a79d96"/>
                    <rect id="Rectangle_1261" data-name="Rectangle 1261" width="1.207" height="13.881" rx="0.604" transform="translate(15.994)" fill="#a79d96"/>
                    <rect id="Rectangle_1262" data-name="Rectangle 1262" width="1.207" height="13.881" rx="0.604" transform="translate(12.674)" fill="#a79d96"/>
                    <rect id="Rectangle_1263" data-name="Rectangle 1263" width="1.207" height="13.881" rx="0.604" transform="translate(9.657)" fill="#a79d96"/>
                    <rect id="Rectangle_1264" data-name="Rectangle 1264" width="1.207" height="13.881" rx="0.604" transform="translate(6.337)" fill="#a79d96"/>
                    <rect id="Rectangle_1265" data-name="Rectangle 1265" width="1.207" height="13.881" rx="0.604" transform="translate(3.319)" fill="#a79d96"/>
                  </g>
                </g>
                <rect id="Rectangle_1266" data-name="Rectangle 1266" width="48.584" height="19.011" transform="translate(4.536 53.23)" fill="#034ea2"/>
                <rect id="Rectangle_1268" data-name="Rectangle 1268" width="48.584" height="35.005" transform="translate(4.536 74.052)" fill="#034ea2"/>
                <rect id="Rectangle_1267" data-name="Rectangle 1267" width="10.562" height="11.165" transform="translate(42.559 57.153)" fill="#fff"/>
              </g>
              <rect id="Rectangle_1269" data-name="Rectangle 1269" width="33.28" height="2.349" transform="translate(67.859 91.045)" fill="#fff"/>
              <rect id="Rectangle_1270" data-name="Rectangle 1270" width="23.1" height="2.349" transform="translate(67.859 95.352)" fill="#fff"/>
              <rect id="Rectangle_1271" data-name="Rectangle 1271" width="14.487" height="2.349" transform="translate(67.859 99.659)" fill="#fff"/>
              <rect id="Rectangle_1272" data-name="Rectangle 1272" width="14.487" height="2.349" transform="translate(83.911 99.659)" fill="#fff"/>
            </g>
          </g>
        </g>
      </g>
    </g>
    <g id="Group_6470" data-name="Group 6470" transform="translate(-6865.961 13243.089)">
      <g id="Group_514" data-name="Group 514" transform="translate(7200.482 -13011.999)">
        <ellipse id="Ellipse_44" data-name="Ellipse 44" cx="84.3" cy="84.317" rx="84.3" ry="84.317" transform="translate(0 0)" fill="#e0ded9"/>
        <path id="Ellipse_47-2" data-name="Ellipse 47-2" d="M84.3,0A84.317,84.317,0,1,1,0,84.317,84.309,84.309,0,0,1,84.3,0Z" transform="translate(0 0)" fill="#f5f2ed"/>
      </g>
    </g>
    <g id="Group_7020" data-name="Group 7020" transform="translate(116.31 59.196)">
      <g id="Group_1824-2" data-name="Group 1824" transform="translate(213.699 149.699)">
        <circle id="Ellipse_46-5" data-name="Ellipse 46" cx="93" cy="93" r="93" transform="translate(-0.488 -0.488)" fill="#f5f2ed"/>
        <g id="Group_484-2" data-name="Group 484" transform="translate(0 0)">
          <g id="Group_483-2" data-name="Group 483" clip-path="url(#clip-path)">
            <g id="Group_7026" data-name="Group 7026" transform="translate(42.309 31.648)">
              <g id="Group_5927-2" data-name="Group 5927" transform="translate(0 0)">
                <g id="Group_480-3" data-name="Group 480" transform="translate(0)">
                  <path id="Path_1103-3" data-name="Path 1103" d="M-1639.22,952.891a33.983,33.983,0,0,0-34.156-33.811,33.984,33.984,0,0,0-33.812,33.811v93.757a4.051,4.051,0,0,0,4.051,4.051h59.863a4.051,4.051,0,0,0,4.051-4.051h0Z" transform="translate(1707.188 -896.837)" fill="#fff"/>
                  <path id="Rectangle_455-3" data-name="Rectangle 455" d="M-1682.752,902.486h23.918c1.4,0,2.538,1.488,2.538,3.323h0v16.822c0,1.835-1.135,3.322-2.537,3.322h-23.918c-1.4,0-2.538-1.488-2.538-3.323V905.808C-1685.289,903.974-1684.154,902.486-1682.752,902.486Z" transform="translate(1704.777 -902.486)" fill="#fff"/>
                  <g id="Group_5925-2" data-name="Group 5925" transform="translate(21.245 2.469)" opacity="0.198">
                    <rect id="Rectangle_1259-2" data-name="Rectangle 1259" width="1.544" height="17.758" rx="0.772" fill="#a79d96"/>
                    <rect id="Rectangle_1260-2" data-name="Rectangle 1260" width="1.544" height="17.758" rx="0.772" transform="translate(24.32)" fill="#a79d96"/>
                    <rect id="Rectangle_1261-2" data-name="Rectangle 1261" width="1.544" height="17.758" rx="0.772" transform="translate(20.46)" fill="#a79d96"/>
                    <rect id="Rectangle_1262-2" data-name="Rectangle 1262" width="1.544" height="17.758" rx="0.772" transform="translate(16.214)" fill="#a79d96"/>
                    <rect id="Rectangle_1263-2" data-name="Rectangle 1263" width="1.544" height="17.758" rx="0.772" transform="translate(12.353)" fill="#a79d96"/>
                    <rect id="Rectangle_1264-2" data-name="Rectangle 1264" width="1.544" height="17.758" rx="0.772" transform="translate(8.107)" fill="#a79d96"/>
                    <rect id="Rectangle_1265-2" data-name="Rectangle 1265" width="1.544" height="17.758" rx="0.772" transform="translate(4.246)" fill="#a79d96"/>
                  </g>
                </g>
                <rect id="Rectangle_1266-2" data-name="Rectangle 1266" width="62.152" height="24.321" transform="translate(5.803 68.096)" fill="#034ea2"/>
                <rect id="Rectangle_1268-2" data-name="Rectangle 1268" width="62.152" height="44.781" transform="translate(5.803 94.733)" fill="#034ea2"/>
              </g>
            </g>
            <g id="Group_7027" data-name="Group 7027" transform="translate(93.487 51.2)">
              <g id="Group_5927-3" data-name="Group 5927" transform="translate(0 -0.002)">
                <g id="Group_480-4" data-name="Group 480" transform="translate(0)">
                  <path id="Path_1103-4" data-name="Path 1103" d="M-1647.857,948.6a29.665,29.665,0,0,0-29.816-29.515,29.666,29.666,0,0,0-29.516,29.515v81.844a3.536,3.536,0,0,0,3.536,3.536h52.256a3.536,3.536,0,0,0,3.536-3.536h0Z" transform="translate(1707.188 -899.663)" fill="#bbdde5"/>
                  <path id="Rectangle_455-4" data-name="Rectangle 455" d="M-1683.075,902.486h20.879c1.223,0,2.215,1.3,2.215,2.9h0v14.685c0,1.6-.991,2.9-2.215,2.9h-20.879c-1.223,0-2.216-1.3-2.216-2.9V905.386C-1685.29,903.785-1684.3,902.486-1683.075,902.486Z" transform="translate(1702.301 -902.486)" fill="#fff"/>
                  <g id="Group_5925-3" data-name="Group 5925" transform="translate(18.545 2.155)" opacity="0.198">
                    <rect id="Rectangle_1259-3" data-name="Rectangle 1259" width="1.348" height="15.502" rx="0.674" fill="#a79d96"/>
                    <rect id="Rectangle_1260-3" data-name="Rectangle 1260" width="1.348" height="15.502" rx="0.674" transform="translate(21.23)" fill="#a79d96"/>
                    <rect id="Rectangle_1261-3" data-name="Rectangle 1261" width="1.348" height="15.502" rx="0.674" transform="translate(17.86)" fill="#a79d96"/>
                    <rect id="Rectangle_1262-3" data-name="Rectangle 1262" width="1.348" height="15.502" rx="0.674" transform="translate(14.154)" fill="#a79d96"/>
                    <rect id="Rectangle_1263-3" data-name="Rectangle 1263" width="1.348" height="15.502" rx="0.674" transform="translate(10.784)" fill="#a79d96"/>
                    <rect id="Rectangle_1264-3" data-name="Rectangle 1264" width="1.348" height="15.502" rx="0.674" transform="translate(7.077)" fill="#a79d96"/>
                    <rect id="Rectangle_1265-3" data-name="Rectangle 1265" width="1.348" height="15.502" rx="0.674" transform="translate(3.707)" fill="#a79d96"/>
                  </g>
                </g>
                <path id="Path_6972" data-name="Path 6972" d="M0,0H41.963V7.713H0Z" transform="translate(5.066 59.443)" fill="#fff"/>
                <rect id="Rectangle_1268-3" data-name="Rectangle 1268" width="41.963" height="39.091" transform="translate(5.066 75.059)" fill="#fff"/>
              </g>
            </g>
          </g>
        </g>
      </g>
    </g>
    <g id="Group_7021" data-name="Group 7021" transform="translate(35.789 253.289)">
      <g id="Group_1824-3" data-name="Group 1824" transform="translate(213.211 149.211)">
        <circle id="Ellipse_46-6" data-name="Ellipse 46" cx="111.734" cy="111.734" r="111.734" transform="translate(0 0)" fill="#f5f2ed"/>
        <g id="Group_484-3" data-name="Group 484" transform="translate(0 0)">
          <g id="Group_483-3" data-name="Group 483" clip-path="url(#clip-path-3)">
            <g id="Group_7024" data-name="Group 7024" transform="translate(102.546 77.339)">
              <g id="Group_5144" data-name="Group 5144" transform="translate(0 0)" clip-path="url(#clip-path-4)">
                <rect id="Rectangle_775" data-name="Rectangle 775" width="38.96" height="32.126" transform="translate(0 113.589)" fill="#e7e7e7"/>
                <rect id="Rectangle_776" data-name="Rectangle 776" width="38.96" height="113.778" transform="translate(0 0)" fill="#e7e7e7"/>
                <g id="Group_5114" data-name="Group 5114">
                  <g id="Group_5113" data-name="Group 5113" clip-path="url(#clip-path-5)">
                    <line id="Line_74" data-name="Line 74" x1="39.702" transform="translate(0 113.771)" fill="none" stroke="#c0c2bd" stroke-miterlimit="10" stroke-width="1"/>
                  </g>
                </g>
                <rect id="Rectangle_778" data-name="Rectangle 778" width="71.825" height="32.126" transform="translate(38.013 113.589)" fill="#c3d1d4"/>
                <rect id="Rectangle_779" data-name="Rectangle 779" width="71.825" height="90.482" transform="translate(38.013 0)" fill="#c3d1d4"/>
                <g id="Group_5143" data-name="Group 5143">
                  <g id="Group_5142" data-name="Group 5142" clip-path="url(#clip-path-5)">
                    <g id="Group_5117" data-name="Group 5117" transform="translate(38.013 90.819)" style="isolation: isolate">
                      <g id="Group_5116" data-name="Group 5116">
                        <g id="Group_5115" data-name="Group 5115" clip-path="url(#clip-path-7)">
                          <rect id="Rectangle_780" data-name="Rectangle 780" width="71.825" height="22.959" transform="translate(0 0)" fill="#3175ae"/>
                        </g>
                      </g>
                    </g>
                    <g id="Group_5120" data-name="Group 5120" transform="translate(43.63 21.827)" style="isolation: isolate">
                      <g id="Group_5119" data-name="Group 5119">
                        <g id="Group_5118" data-name="Group 5118" clip-path="url(#clip-path-8)">
                          <path id="Path_4798" data-name="Path 4798" d="M44.013,84.322H95.792a4.218,4.218,0,0,0,4.406-4v-54.5a4.218,4.218,0,0,0-4.406-4H44.013a4.218,4.218,0,0,0-4.406,4v54.5a4.218,4.218,0,0,0,4.406,4" transform="translate(-39.607 -21.823)" fill="#444"/>
                        </g>
                      </g>
                    </g>
                    <g id="Group_5123" data-name="Group 5123" transform="translate(49.681 32.598)" opacity="0.2" style="isolation: isolate">
                      <g id="Group_5122" data-name="Group 5122">
                        <g id="Group_5121" data-name="Group 5121" clip-path="url(#clip-path-9)">
                          <path id="Path_4799" data-name="Path 4799" d="M49.507,79.051H91.386a4.218,4.218,0,0,0,4.406-4V36.594a4.218,4.218,0,0,0-4.406-4H49.507a4.218,4.218,0,0,0-4.406,4V75.05a4.218,4.218,0,0,0,4.406,4" transform="translate(-45.101 -32.593)" fill="#fff"/>
                        </g>
                      </g>
                    </g>
                    <line id="Line_75" data-name="Line 75" x1="39.702" transform="translate(0 15.297)" fill="none" stroke="#c0c2bd" stroke-miterlimit="10" stroke-width="1"/>
                    <line id="Line_76" data-name="Line 76" x1="71.762" transform="translate(38.038 15.297)" fill="none" stroke="#9f9f9f" stroke-miterlimit="10" stroke-width="1"/>
                    <g id="Group_5126" data-name="Group 5126" transform="translate(43.955 3.878)" style="isolation: isolate">
                      <g id="Group_5125" data-name="Group 5125">
                        <g id="Group_5124" data-name="Group 5124" clip-path="url(#clip-path-10)">
                          <path id="Path_4800" data-name="Path 4800" d="M100.359,10.974H41a1.055,1.055,0,0,1-1.1-1v-5.1a1.055,1.055,0,0,1,1.1-1h59.354a1.056,1.056,0,0,1,1.1,1v5.1a1.056,1.056,0,0,1-1.1,1" transform="translate(-39.903 -3.877)" fill="#3175ae"/>
                        </g>
                      </g>
                    </g>
                    <g id="Group_5129" data-name="Group 5129" transform="translate(59.969 4.967)" opacity="0.78" style="isolation: isolate">
                      <g id="Group_5128" data-name="Group 5128">
                        <g id="Group_5127" data-name="Group 5127" clip-path="url(#clip-path-11)">
                          <rect id="Rectangle_785" data-name="Rectangle 785" width="10.997" height="4.842" transform="translate(0)" fill="#fff"/>
                        </g>
                      </g>
                    </g>
                    <g id="Group_5132" data-name="Group 5132" transform="translate(73.431 4.918)" opacity="0.78" style="isolation: isolate">
                      <g id="Group_5131" data-name="Group 5131">
                        <g id="Group_5130" data-name="Group 5130" clip-path="url(#clip-path-12)">
                          <path id="Path_4801" data-name="Path 4801" d="M93.974,9.808H67.763a1.055,1.055,0,0,1-1.1-1V5.917a1.055,1.055,0,0,1,1.1-1H93.974a1.055,1.055,0,0,1,1.1,1v2.89a1.055,1.055,0,0,1-1.1,1" transform="translate(-66.661 -4.917)" fill="#fff"/>
                        </g>
                      </g>
                    </g>
                    <g id="Group_5135" data-name="Group 5135" transform="translate(46.925 4.967)" opacity="0.78" style="isolation: isolate">
                      <g id="Group_5134" data-name="Group 5134">
                        <g id="Group_5133" data-name="Group 5133" clip-path="url(#clip-path-11)">
                          <path id="Path_4802" data-name="Path 4802" d="M52.494,8.808H43.7V5.966h8.794Zm0-3.842H43.7a1.054,1.054,0,0,0-1.1,1V8.808a1.054,1.054,0,0,0,1.1,1h8.794a1.055,1.055,0,0,0,1.1-1V5.966a1.055,1.055,0,0,0-1.1-1" transform="translate(-42.599 -4.966)" fill="#fff"/>
                        </g>
                      </g>
                    </g>
                    <g id="Group_5138" data-name="Group 5138" transform="translate(76.029 6.26)" style="isolation: isolate">
                      <g id="Group_5137" data-name="Group 5137">
                        <g id="Group_5136" data-name="Group 5136" clip-path="url(#clip-path-14)">
                          <rect id="Rectangle_789" data-name="Rectangle 789" width="10.997" height="2.609" transform="translate(0 0.001)" fill="#819c35"/>
                        </g>
                      </g>
                    </g>
                    <g id="Group_5147" data-name="Group 5147" transform="translate(69.68 24.326)">
                      <g id="Group_5141" data-name="Group 5141" transform="translate(0.928 0)" style="isolation: isolate">
                        <g id="Group_5140" data-name="Group 5140">
                          <g id="Group_5139" data-name="Group 5139" clip-path="url(#clip-path-15)">
                            <path id="Path_4803" data-name="Path 4803" d="M70.918,25.953a2.574,2.574,0,0,1-.6,3.83,3.218,3.218,0,0,1-4.218-.548c-2.144-2.6-.727-2.925.6-3.831s2-2.133,4.218.549" transform="translate(-64.993 -24.322)" fill="#255e84"/>
                          </g>
                        </g>
                      </g>
                      <path id="Path_4804" data-name="Path 4804" d="M56.792,27.309s1.293-2.623,5.885-2.623h10.6" transform="translate(-56.792 -24.321)" fill="none" stroke="#3175ae" stroke-linecap="round" stroke-linejoin="round" stroke-width="2"/>
                    </g>
                  </g>
                </g>
              </g>
            </g>
            <g id="Group_7025" data-name="Group 7025" transform="translate(11.085 102.09)">
              <g id="Group_5185" data-name="Group 5185" transform="translate(0 0)">
                <g id="Group_5184" data-name="Group 5184" clip-path="url(#clip-path-16)">
                  <g id="Group_5168" data-name="Group 5168" transform="translate(0 0)">
                    <g id="Group_5167" data-name="Group 5167" clip-path="url(#clip-path-16)">
                      <g id="Group_5160" data-name="Group 5160" transform="translate(1.074)" style="isolation: isolate">
                        <g id="Group_5159" data-name="Group 5159">
                          <g id="Group_5158" data-name="Group 5158" clip-path="url(#clip-path-18)">
                            <path id="Path_4805" data-name="Path 4805" d="M112.255,23.868S88.274.735,61.255.292c0,0-58.083-3.022-60.3,10.377L8.265,26.933,110.139,28.7Z" transform="translate(-0.956 0)" fill="#fff"/>
                          </g>
                        </g>
                      </g>
                      <g id="Group_5163" data-name="Group 5163" transform="translate(1.074 1.974)" opacity="0.12" style="isolation: isolate">
                        <g id="Group_5162" data-name="Group 5162">
                          <g id="Group_5161" data-name="Group 5161" clip-path="url(#clip-path-19)">
                            <path id="Path_4806" data-name="Path 4806" d="M40.044,24.113S33.963-1.3,16.085,2.064C7.958,3.591,1.648,6.306.956,10.494L8.264,26.716l41.788.221Z" transform="translate(-0.956 -1.757)" fill="#3175ae"/>
                          </g>
                        </g>
                      </g>
                      <g id="Group_5166" data-name="Group 5166" transform="translate(1.074)" opacity="0.4" style="isolation: isolate">
                        <g id="Group_5165" data-name="Group 5165">
                          <g id="Group_5164" data-name="Group 5164" clip-path="url(#clip-path-18)">
                            <path id="Path_4807" data-name="Path 4807" d="M112.255,23.868S88.274.735,61.255.292c0,0-58.083-3.022-60.3,10.377L8.265,26.933,110.139,28.7Z" transform="translate(-0.956 0)" fill="#3175ae"/>
                          </g>
                        </g>
                      </g>
                    </g>
                  </g>
                  <rect id="Rectangle_803" data-name="Rectangle 803" width="73.259" height="82.019" transform="translate(39.085 39.359)" fill="#c0c2bd"/>
                  <rect id="Rectangle_804" data-name="Rectangle 804" width="39.738" height="82.019" transform="translate(0.187 39.359)" fill="#e7e7e7"/>
                  <line id="Line_77" data-name="Line 77" x1="72.42" transform="translate(39.831 50.74)" fill="none" stroke="#9f9f9f" stroke-miterlimit="10" stroke-width="1"/>
                  <g id="Group_5170" data-name="Group 5170" transform="translate(0 0)">
                    <g id="Group_5169" data-name="Group 5169" clip-path="url(#clip-path-16)">
                      <line id="Line_78" data-name="Line 78" x1="40.495" transform="translate(0 50.74)" fill="none" stroke="#c0c2bd" stroke-miterlimit="10" stroke-width="1"/>
                    </g>
                  </g>
                  <path id="Path_4808" data-name="Path 4808" d="M.166,38.188H55.032L39.92,23.028,1.053,9.483Z" transform="translate(0.02 1.172)" fill="#a9acaa"/>
                  <path id="Path_4810" data-name="Path 4810" d="M40.435,28.337l-4.886,6.545h72.432l3.31-4.182Z" transform="translate(4.392 4.509)" fill="#c0c2bd"/>
                  <g id="Group_5175" data-name="Group 5175" transform="translate(0 -15.754)">
                    <g id="Group_5174" data-name="Group 5174" clip-path="url(#clip-path-16)">
                      <g id="Group_5173" data-name="Group 5173" transform="translate(39.942 39.953)" style="isolation: isolate">
                        <g id="Group_5172" data-name="Group 5172">
                          <g id="Group_5171" data-name="Group 5171" clip-path="url(#clip-path-24)">
                            <path id="Path_4809" data-name="Path 4809" d="M38.86,32.5h72.431l-3.31-10.963H35.55Z" transform="translate(-35.549 -21.538)" fill="#3175ae"/>
                          </g>
                        </g>
                      </g>
                      <g id="Group_5192" data-name="Group 5192" transform="translate(55.571 42.247)" opacity="0.78" style="isolation: isolate">
                        <g id="Group_5177" data-name="Group 5177">
                          <g id="Group_5176" data-name="Group 5176" clip-path="url(#clip-path-25)">
                            <path id="Path_4811" data-name="Path 4811" d="M51.386,27.946h42.13L91.59,21.57H49.46Z" transform="translate(-49.46 -21.57)" fill="#fff"/>
                          </g>
                        </g>
                      </g>
                      <g id="Group_5193" data-name="Group 5193" transform="translate(80.043 43.837)" style="isolation: isolate">
                        <g id="Group_5180" data-name="Group 5180">
                          <g id="Group_5179" data-name="Group 5179" clip-path="url(#clip-path-26)">
                            <path id="Path_4812" data-name="Path 4812" d="M72.206,26.181H85.453l-.965-3.2H71.241Z" transform="translate(-71.241 -22.985)" fill="#819c35"/>
                          </g>
                        </g>
                      </g>
                    </g>
                  </g>
                </g>
              </g>
            </g>
          </g>
        </g>
      </g>
    </g>
  </g>
</svg>