<?xml version="1.0" encoding="UTF-8"?>
<!-- Generator: Adobe Illustrator 26.3.1, SVG Export Plug-In . SVG Version: 6.00 Build 0)  -->
<svg version="1.1" id="Lager_1" xmlns="http://www.w3.org/2000/svg" xmlns:xlink="http://www.w3.org/1999/xlink" x="0px" y="0px" viewBox="0 0 468.7 369" style="enable-background:new 0 0 468.7 369;" xml:space="preserve">
<style type="text/css">
	.st0{fill:#F5F2ED;}
	.st1{clip-path:url(#SVGID_00000046301826314999026380000007387740882432665524_);}
	.st2{fill:#A5A7AA;}
	.st3{fill:#2D1F29;}
	.st4{fill:#2A2B4E;}
	.st5{fill:#F18A71;}
	.st6{fill:#D6684B;}
	.st7{fill:#9B5221;}
	.st8{fill:#B6BABF;}
	.st9{fill:#40436F;}
	.st10{fill:#382632;}
	.st11{fill:#E4E8EF;}
	.st12{fill:#FFFFFF;}
	.st13{fill:#515E71;}
	.st14{fill:#0A2F4C;}
	.st15{fill:#FFFAD2;}
	.st16{fill:#D6CE95;}
	.st17{fill:#716558;}
	.st18{fill:#4F443A;}
	.st19{fill:#BBDDE5;}
	.st20{opacity:0.468;}
	.st21{fill:#D9DDE2;}
	.st22{fill:#939CBB;}
	.st23{fill:#737FA0;}
	.st24{fill:#63514E;}
	.st25{fill:#231720;}
	.st26{fill:#7F6560;}
	.st27{fill:#005563;}
	.st28{fill:#02979B;}
	.st29{clip-path:url(#SVGID_00000102517960803002050520000006903486937885729692_);}
	.st30{fill:#2D3743;}
	.st31{fill:#056F7A;}
</style>
<g id="Group_6557" transform="translate(-77.243 -215.719)">
	<g id="Group_5393" transform="translate(-11.064 -799)">
		<circle id="Ellipse_290" class="st0" cx="430" cy="1141.7" r="127"/>
		<g id="Group_5392">
			<g>
				<defs>
					<circle id="SVGID_1_" cx="430" cy="1141.7" r="127"/>
				</defs>
				<clipPath id="SVGID_00000005229165721785976200000016519593100563809428_">
					<use xlink:href="#SVGID_1_" style="overflow:visible;"/>
				</clipPath>
				<g id="Mask_Group_9" style="clip-path:url(#SVGID_00000005229165721785976200000016519593100563809428_);">
					<g id="Group_5390" transform="translate(-55.911 -0.392)">
						<g id="Group_5387" transform="translate(353.974 1026.23)">
							<g id="Group_179" transform="translate(23.681 143.441)">
								<g id="Group_178" transform="translate(28.604 100.751)">
									<path id="Path_535" class="st2" d="M7.2,0c-1,2.4-2.2,4.7-3.7,6.9l11,1.7c0,0,3.3-8.2,3.4-7.7S7.2,0,7.2,0z"/>
									<path id="Path_536" class="st3" d="M11.8,7.1C8.4,4.9,4.9,2.9,1.6,8.1C-1.9,13.6,1,18.3,3.3,20.5h13.5L11.8,7.1z"/>
									<path id="Path_537" class="st3" d="M3.3,20.5l0.8,1.4c0.2,0.4,0.7,0.7,1.2,0.7h12.5l-1.1-2.1H3.3z"/>
								</g>
								<path id="Path_538" class="st4" d="M20.9,0c14.9,0,43.6,7.8,48.9,8.8S83.1,19,74.2,35s-26.5,68.8-26.5,68.8l-12-3          c0,0,6-12.2,6-35.6c0-14.3,1.7-20.6,11.8-32.5L0,34.9L20.9,0z"/>
							</g>
							<g id="Group_185" transform="translate(0 0)">
								<g id="Group_181" transform="translate(12.722 18.218) rotate(-20)">
									<g id="Group_180" transform="translate(0 13.004)">
										<path id="Path_539" class="st5" d="M29.1,36.7c-1.5-0.8-2.8-1.7-4.1-2.7l-2.7,2.3c0,0-6.3-1.1-16.8-8.1L22.7,0l17.6,7            L29.1,36.7z"/>
										<path id="Path_540" class="st5" d="M29.1,36.7c-1.5-0.8-2.8-1.7-4.1-2.7L16.6,42c0,0,0.9-1.3-9.7-8.3L22.7,0l17.6,7            L29.1,36.7z"/>
										<path id="Path_541" class="st6" d="M21.3,20.9c-1.7-1.2-8.9,0.3-10.3,11.4C8.9,30.5,2.9,32.9,0,31L22.7,0l17.6,7            L29.1,36.7c-1.5-0.8-2.8-1.7-4.1-2.7C23,32.5,24.5,23.2,21.3,20.9z"/>
									</g>
									<path id="Path_542" class="st7" d="M48.8,26.7c7.5-5.8,4.9-13.6-2.2-16.4S37.6-2,30.2,0.4S17.3,1.5,16.1,11.1           c-1.2,9.7-6.2,14.7-4.6,16.8s6.5,2.3,10-2.2c4.5-5.8,9.1-3,9.2,4.1s6.8,9.2,8.5,7.1C40.8,35,48.8,26.7,48.8,26.7z"/>
									<path id="Path_543" class="st5" d="M48.5,26.7C46,43.4,33,52.5,28.4,49.3c-4.7-3.2,0.4-17.2-2.8-17.1           c-3.2,0.1-1.7-5.1,0.1-8.3c1.8-3.2,6.2-4.2,5.2,1.8c-1,6.1,1.1,7.5,2,7.3s4.7-3.4,8.2-4.2s2.8-7.3,4.8-6.3           C47.8,23.5,48.5,26.7,48.5,26.7z"/>
								</g>
								<path id="Path_544" class="st8" d="M68.2,246.4c-4,5-6.6,6.1-5.4,14.2l18.8-10.7L68.2,246.4z"/>
								<path id="Path_545" class="st9" d="M114.6,156.5c-8.5-5.9-55.5-5.2-61-7.5s-7.7-0.5-7.7-0.5l-1.3-5.1L1.5,153.7l1,5.6          c-0.5,24.2,17.7,20.9,26.3,20.9h65.7c-5,3.6-6.6,6-10.6,23.9s-15.7,42.1-15.7,42.1l13.3,3.4c0,0,33.5-60.1,37.2-66.7          S123.1,162.4,114.6,156.5z"/>
								<g id="Group_182" transform="translate(62.285 249.48)">
									<path id="Path_546" class="st10" d="M19.2,0.3c0,0,7.1,4,11,6.8s13.5,1.8,14.5,8.1H1.8c0,0-4.1-8.4,0-13.4           c0,0,5.4,4.1,9.5,2.3C15.4,2.3,13.8-1.1,19.2,0.3z"/>
									<path id="Path_547" class="st10" d="M1.8,15.2l0.7,1.3c0.2,0.5,0.7,0.8,1.3,0.8h39.5c0.8,0,1.4-0.6,1.4-1.4l0,0v-0.7           L1.8,15.2z"/>
								</g>
								<g id="Group_184" transform="translate(0 52.159)">
									<path id="Path_548" class="st11" d="M28.9,26.1c0.7-7.8,12.1-21.3,23-12.8c9.5,9.6,0.1,38.5,3.6,43.2c0,0-12.3,1.6,4.9,3           c0,0,2.9,4.4-4.9,12.2c-7.6,7.7-14.6,5.2-18,0S27.7,35.6,28.9,26.1z"/>
									<path id="Path_549" class="st12" d="M55.8,16c13.8,25.5-16.3,70.6-13.1,88.5c-7.5,4-11.2-6.2-29.9,22.2           c0,0-19.9-61-10.1-94.5S33.1,0,33.1,0C42.7,1.5,51.1,7.5,55.8,16z"/>
									<path id="Path_550" class="st11" d="M42.7,104.5c-2.9-10,0.1-23.2-1.7-33.3c-2.2-12.3-10.2-38.6-10.2-38.6           c3.6-7.4,21.1-19.3,15.2-27.5c4.1,2.8,7.5,6.6,9.9,11c9.8,17.7-11.1,66.1-9.7,85.6c0.1,1.2-0.7,2.3-1.9,2.6L42.7,104.5z"/>
									<g id="Group_183" transform="translate(30.063 10.368)">
										<path id="Path_551" class="st5" d="M65.6,82.5c4.9-3.6,29.5,11.1,14.4,13l-19.1-4.8L65.6,82.5z"/>
										<path id="Path_1907" class="st5" d="M66.5,83.5c0,0-20.7-13.7-23.8-23s-5.5-30.7-8.2-34.1c-0.9-1.1-17,5.4-17.6,5.7            l10.6,30.8c0,0,0.7,6,4.8,7.9s17.3,18.3,29.3,19.9S66.5,83.5,66.5,83.5z"/>
										<path id="Path_552" class="st12" d="M0.8,20.9c-3.5-8,5.4-22.8,16.7-20.7s17.6,27.3,18.1,27.3c0,0-17.8,8.7-17.7,8.9            S12.9,23.4,0.8,20.9z"/>
									</g>
								</g>
							</g>
						</g>
						<g id="Group_5388" transform="translate(291.971 1116.107)">
							<g id="Group_187" transform="translate(48.442 102.734)">
								<rect id="Rectangle_213" x="9.6" y="0" class="st13" width="62.1" height="11.7"/>
								<path id="Path_553" class="st13" d="M78.8,74.2h2.9L71.7,11.7h-8L78.8,74.2z"/>
								<path id="Path_554" class="st13" d="M0,74.2h2.9L18,11.7h-8L0,74.2z"/>
							</g>
							<g id="Group_188" transform="translate(18.255 102.734)">
								<rect id="Rectangle_214" x="9.6" y="0" class="st14" width="62.1" height="11.7"/>
								<path id="Path_555" class="st14" d="M78.8,74.2h2.9L71.7,11.7h-8L78.8,74.2z"/>
								<path id="Path_556" class="st14" d="M0,74.2h2.9L18,11.7h-8L0,74.2z"/>
							</g>
							<path id="Path_557" class="st15" d="M54.7,90v12.7h75.1"/>
							<path id="Path_558" class="st15" d="M31.3,97.7L90,95.2L66.1,12.8C64.4,5.2,57.4-0.2,49.6,0L26.3,0.7         C17.3,1,10.2,8.5,10.4,17.6c0,0.9,0.1,1.8,0.3,2.7L31.3,97.7z"/>
							<path id="Path_559" class="st16" d="M20.8,97.7l58.7-2.5L55.6,12.8C53.9,5.2,47-0.2,39.1,0L15.9,0.7C6.9,1-0.3,8.5,0,17.6         c0,0.9,0.1,1.8,0.3,2.7L20.8,97.7z"/>
							<path id="Path_560" class="st16" d="M19.5,102.7l110-0.1c1.4,0,2.5-1.1,2.5-2.5c0-0.2,0-0.4-0.1-0.6         c-1.4-5.6-6.4-9.6-12.2-9.6H19.5V102.7z"/>
						</g>
						<g id="Group_7017" transform="translate(0 6.423) rotate(-3)">
							<g id="Group_1573_00000023994229946847229430000000324973669468705425_" transform="translate(0 0)">
								<path id="Path_1831_00000124852469061961741400000013356007924359303300_" class="st17" d="M381.6,1115.3l106.8,1.4          c3.3,0,6.2-2.4,6.4-5.5l5.9-76.2c0.2-3.1-2.3-5.6-5.6-5.7l-106.9-1.4c-3.3,0-6.2,2.4-6.4,5.5l-5.9,76.2          C375.8,1112.7,378.3,1115.3,381.6,1115.3z"/>
								<path id="Path_1832_00000019667582746491736980000011197256576186570133_" class="st18" d="M378,1115.3l106.8,1.4          c3.3,0,6.2-2.4,6.4-5.5l5.9-76.2c0.2-3.1-2.3-5.6-5.6-5.7l-106.8-1.4c-3.3,0-6.2,2.4-6.4,5.5l-5.9,76.2          C372.2,1112.7,374.7,1115.2,378,1115.3z"/>
								<path id="Path_1833_00000052073439244834562660000013886791524345587359_" class="st19" d="M488.5,1114l-113.6-1.5l6.2-81.9          l113.6,1.5L488.5,1114z"/>
								<g id="Group_1525_00000148622221230125762200000004483640084644597900_" transform="translate(6.851 7.694)" class="st20">
									<path id="Path_1888_00000016778420326170119880000011635146540686573209_" class="st12" d="M452.6,1046.2l29,0.4l0.3-3           l-29-0.4L452.6,1046.2z"/>
									<path id="Path_1890_00000119091245080641858410000015727395953447792543_" class="st12" d="M374.9,1033.8l107.7,1.4           l0.9-7.5l-107.7-1.4L374.9,1033.8z"/>
									<path id="Path_1891_00000131331575231175678770000006240854884491454608_" class="st12" d="M452.1,1051.8l29,0.4l0.3-3           l-29-0.4L452.1,1051.8z"/>
									<path id="Path_1892_00000114054272303358842850000007675293087876895161_" class="st12" d="M372.1,1062.1l5.6,0.1l0.4-4.2           l-5.6-0.1L372.1,1062.1z"/>
									<path id="Path_1893_00000162335570989033640560000002493388142772201345_" class="st12" d="M380.3,1062.2l5.6,0.1l0.4-4.2           l-5.6-0.1L380.3,1062.2z"/>
									<path id="Path_1894_00000028308683198228749090000007456177858203205253_" class="st12" d="M451.5,1057.5l29,0.4l0.3-3           l-29-0.4L451.5,1057.5z"/>
									<path id="Path_1895_00000135654390515290492410000005491117402112468906_" class="st12" d="M450.9,1063.1l29,0.4l0.3-3           l-29-0.4L450.9,1063.1z"/>
									<path id="Path_1896_00000052801021547636036560000004801893331331439544_" class="st12" d="M392.6,1062.4l5.6,0.1l0.4-4.2           l-5.6-0.1L392.6,1062.4z"/>
								</g>
							</g>
						</g>
						<g id="Group_5389" transform="translate(518.851 1048.11)">
							<g id="Group_1370" transform="translate(0 0)">
								<g id="Group_279" transform="translate(19.948 136.878)">
									<g id="Group_277" transform="translate(45.679 20.401)">
										<path id="Path_718" class="st12" d="M7.3,53.8C7.6,61.5,7.8,67.9,7.3,70c-0.2,0.9-0.5,1.8-0.8,2.7c3.2-2.3,7.6-4,12.2,1.5            c-0.2-1.7-0.4-3.7-0.5-6.3c0-4.7,0.5-9.5,1.4-14.1L7.3,53.8z"/>
										<path id="Path_719" class="st3" d="M6.5,72.7c-1.7,4.8-4.5,7.1-5.3,8.5C0.3,83,0,87.7,0,87.7h19.5c2-6,0.2-6.1-0.8-13.5            C14.1,68.7,9.7,70.5,6.5,72.7z"/>
										<path id="Path_720" class="st21" d="M29.7,3.1L4.3,0c0,0,2.1,47.1,2.9,67.9h12.4C22.2,50,27.7,10,29.7,3.1z"/>
									</g>
									<g id="Group_278">
										<path id="Path_721" class="st12" d="M45.4,90.4c-2.6-5.1-4.6-10.6-6-16.2h-14c0.6,1,1.1,1.8,1.4,2.3            c3.7,6.6,8.7,14.7,6.4,20.1C37.7,93.2,42.1,90.5,45.4,90.4z"/>
										<path id="Path_722" class="st10" d="M47.1,93.2c-0.6-0.9-1.2-1.8-1.7-2.8c-3.3,0.1-7.7,2.8-12.2,6.2            c-1.6,4-8.5,5.8-9.8,6.4s-2.6,3.8-2.6,5.1h29C50.9,102.9,49.9,97.6,47.1,93.2z"/>
										<path id="Path_723" class="st21" d="M29.7,22.5L0.1,0C-2,22.2,25.8,82.2,31.8,94c1.5-4,6.6-3.5,14-5.1            C40.9,64.8,35.4,38,29.7,22.5z"/>
										<path id="Path_724" class="st21" d="M0.1,0c-1.4,15,9.7,44.9,16,59c7.4-1.2,21.9,6.8,26.5,14.5l-3.4-15.7            c-1.2-10.6-5-29.1-9.6-39.3L0.1,0z"/>
									</g>
								</g>
								<g id="Group_280" transform="translate(19.795 124.548)">
									<path id="Path_725" class="st22" d="M72.3,37.9c8.2,0,16.5-8.2,16.5-19.2c0-12.6-8.9-17.9-20.7-17.9L72.3,37.9z"/>
									<path id="Path_726" class="st23" d="M87.3,10.6c-3-6.8-10.3-9.9-19.2-9.9L70.5,22l15.1,0.5C87.3,17.7,88.8,14.7,87.3,10.6z           "/>
									<path id="Path_727" class="st11" d="M24.7,36.6c-13.1-5.1-22.4-18-24.2-20.4S1.9,2.5,15.1,0L24.7,36.6z"/>
									<path id="Path_728" class="st11" d="M15.1,0c-2.4,12.3-8.8,20-2.2,28.2s13.1,9.7,24,9.7s11.3-1,16-1s13.1,1,19.5,1           s15.2-5.7,13.9-15.8c-0.7-5.5-4.3-8.5-5.2-15.3S15.1,0,15.1,0z"/>
								</g>
								<g id="Group_281" transform="translate(45.093)">
									<path id="Path_729" class="st24" d="M4.3,43c0.9-0.4,2-0.1,2.6,0.7l10.6-6.2L6,26.3L4.3,43z"/>
									<path id="Path_730" class="st25" d="M1.5,17.1c-2.7-2.8-1.5-7,1.9-7.8S7.6,0,18.3,0S35,7.3,35,17.1s-5.5,13.9-5.5,18           s-15.1,5.3-18.3,0s-2.2-6.7-4.9-5.7S2,23.8,2,21.6C1.9,20.1,1.8,18.6,1.5,17.1z"/>
									<path id="Path_731" class="st26" d="M1.5,17.1c-2.3,6.3-1.6,23.7,1.8,25.8c2.8,1.7,3.4-7,4.5-9.7c0.2-0.5,0.3,0.2,0.7,0.2           c1.8,0,2.5-7,1.2-10.5s-3-0.4-3.6,3.5C5.7,28.5,3.6,27,3.5,25S3.2,18.1,1.5,17.1z"/>
								</g>
								<g id="Group_283" transform="translate(0 35.605)">
									<path id="Path_1762" class="st27" d="M64.7,34.1c-10.4,2-36.3,13.3-36.4,20.9c-0.7,8-6.6,9.8,1.7,12l9.5,18.4           c2.7,0.7,20-10.6,22.4-18.4C70.8,39.1,64.7,34.1,64.7,34.1z"/>
									<g id="Group_282" transform="translate(95.692 16.473)">
										<rect id="Rectangle_291" x="0" y="45.7" class="st27" width="15.7" height="8.5"/>
										<path id="Path_732" class="st28" d="M3.3,0C11,9,29.5,39.9,29.5,43.9s2,10.3-9.6,10.3H14c-2.5,0-7.1-2.3-10.7-11.5            S3.3,0,3.3,0z"/>
										<path id="Path_733" class="st27" d="M5,11.1l-2.6,0.2C1.6,21.9,1,36.9,3.3,42.7c3.1,8.1,7,10.8,9.6,11.4            C11.5,45.2,8.4,26.9,5,11.1z"/>
									</g>
									<path id="Path_734" class="st28" d="M50.3,8.8c0,0-0.9-2,6.3-5.8S78.1-3,79,8.8H50.3z"/>
									<path id="Path_735" class="st28" d="M27.1,15.9c3.1-4.9,22.6-8.4,40.6-8.4s30.6,6.9,31.3,9s8.3,48,1.8,92.4           c0,0-10.7,6.5-30.6,6.5s-35.8-8.4-37.7-14.8s0.3-36.2-0.9-47.3S27.1,15.9,27.1,15.9z"/>
									<path id="Path_736" class="st27" d="M32.5,100.7c0.5,2.3,4,5.6,9.3,8.6c0,0-6.2-4.3-7.1-7.4s-0.4-6.7,0-26.2           s-6.8-14.7-11.3-29.6c0,0,5.5,1.9,6.7,13S31.3,95.5,32.5,100.7z"/>
									<path id="Path_737" class="st28" d="M31.4,74.8L42,69.9c2.5-1.2,8.5-20.9,5.3-28.5C36,14.2,23.6,78.4,31.4,74.8z"/>
									<g id="Group_1563" transform="translate(0 23.471) rotate(-17)">
										<path id="Path_737-2" class="st26" d="M13.6,20C5.8,29.4,2.8,52.5,3.1,56.6c0.3,3.5,1.9,6,7,5.5l8.1-3.3            c-0.1,0.3,4.5-12.5,4.1-19.7C20.9,13.5,13.6,20,13.6,20z"/>
										<path id="Path_1912" class="st28" d="M29.7,0C19.6,4.9,8.3,23.4,8.3,28.5c0.2,2.5,1.8-2.6,8,3.5L23.5,45            c2.2-2.8,5.8-7.8,6.2-8.4C31,5.5,29.7,0,29.7,0z"/>
									</g>
								</g>
							</g>
							<g id="Group_1371" transform="translate(4.734 64.589)">
								<g id="Group_285" transform="translate(1.881 104.72)">
									<rect id="Rectangle_292" x="10.3" y="0" class="st13" width="63.2" height="12"/>
									<path id="Path_738" class="st13" d="M3,75.6H0L10.3,12h8.1L3,75.6z"/>
									<path id="Path_739" class="st13" d="M83.3,75.6h-3L65,12h8.1L83.3,75.6z"/>
								</g>
								<g id="Group_286" transform="translate(32.652 104.72)">
									<rect id="Rectangle_293" x="10.3" y="0" class="st14" width="63.2" height="12"/>
									<path id="Path_740" class="st14" d="M3,75.6H0L10.3,12h8.1L3,75.6z"/>
									<path id="Path_741" class="st14" d="M83.3,75.6h-3L65,12h8.1L83.3,75.6z"/>
								</g>
								<path id="Path_742" class="st15" d="M78.8,91.7v13H2.3"/>
								<path id="Path_743" class="st15" d="M102.7,99.6L42.9,97l24.4-83.9C69,5.3,76.1-0.2,84.1,0l23.7,0.7          c9.2,0.3,16.5,8,16.2,17.2c0,0.9-0.1,1.9-0.3,2.8L102.7,99.6z"/>
								<path id="Path_744" class="st16" d="M113.4,99.6L53.5,97l24.4-83.9C79.6,5.3,86.7-0.2,94.7,0l23.7,0.7          c9.2,0.3,16.5,8,16.2,17.2c0,0.9-0.1,1.9-0.3,2.8L113.4,99.6z"/>
								<path id="Path_745" class="st16" d="M114.7,104.7L2.6,104.6c-1.4,0-2.6-1.1-2.6-2.5c0-0.2,0-0.4,0.1-0.6          c1.4-5.7,6.6-9.8,12.5-9.8h102.2V104.7z"/>
							</g>
						</g>
					</g>
				</g>
			</g>
			<g id="Group_5391" transform="translate(508.033 1017.719)">
				<path id="Path_730-2" class="st25" d="M3.4,39.2C6.8,38.5,7.6,30,18.3,30S35,37.3,35,47.1s-5.5,13.9-5.5,18S0,40,3.4,39.2z"/>
			</g>
		</g>
		<path id="Path_4898" class="st7" d="M365.7,1052.5c5-8,0-14.4-7.7-14.6c-7.7-0.2-12.6-8.5-18.8-3.8c-6.2,4.7-11.8,5.4-9.6,14.9    s-0.9,15.9,1.4,17.4c2.3,1.5,6.9-0.1,8.6-5.5c2.2-7,7.5-5.9,10.1,0.7s9.6,6.3,10.4,3.8C361,1063,365.7,1052.5,365.7,1052.5z"/>
		<path id="Path_4899" class="st5" d="M365.5,1052.6c3.3,16.5-5.8,29.6-11.2,28.1c-5.5-1.5-5.5-16.3-8.5-15.1    c-3,1.2-3.4-4.2-2.7-7.9c0.6-3.6,4.4-6.1,5.6-0.1c1.1,6,3.6,6.6,4.4,6.2c0.7-0.4,3.2-4.8,6.2-6.8c3-2,0.1-7.9,2.3-7.6    C363.8,1049.8,365.5,1052.6,365.5,1052.6z"/>
	</g>
	<g id="Group_1823" transform="translate(77.244 275.855)">
		<g>
			<defs>
				<circle id="SVGID_00000091010308971533134830000006677313032950255249_" cx="144.1" cy="164.8" r="144.1"/>
			</defs>
			<clipPath id="SVGID_00000079453146643428564000000014335681895294973597_">
				<use xlink:href="#SVGID_00000091010308971533134830000006677313032950255249_" style="overflow:visible;"/>
			</clipPath>
			
				<g id="Mask_Group_1" transform="translate(0 20.748)" style="clip-path:url(#SVGID_00000079453146643428564000000014335681895294973597_);">
				<rect id="Rectangle_730" x="0" y="0" class="st0" width="288.1" height="288.1"/>
				<g id="Group_1816" transform="translate(119.134 82.786)">
					<g id="Group_1573" transform="translate(0 0)">
						<path id="Path_1831" class="st17" d="M10.6,102.1H128c3.7-0.1,6.8-2.9,7.2-6.6l7.9-89c0.3-3.3-2-6.2-5.3-6.5        c-0.3,0-0.5,0-0.8,0H19.6c-3.7,0.1-6.8,2.9-7.2,6.6l-7.9,89c-0.3,3.3,2,6.2,5.3,6.5C10.1,102.1,10.3,102.1,10.6,102.1z"/>
						<path id="Path_1832" class="st18" d="M6.1,102.1h117.4c3.7-0.1,6.8-2.9,7.2-6.6l7.9-89c0.3-3.3-2-6.2-5.3-6.5        c-0.3,0-0.5,0-0.8,0H15.1c-3.7,0.1-6.8,2.9-7.2,6.6L0,95.6c-0.3,3.3,2,6.2,5.3,6.5C5.5,102.1,5.8,102.1,6.1,102.1z"/>
						<path id="Path_1833" class="st19" d="M127.2,97.5H3.1l8.3-92.9h124.1L127.2,97.5z"/>
						<g id="Group_1525" transform="translate(9.166 10.294)" class="st20">
							<path id="Path_1888" class="st12" d="M81.3,31.8H118l0.5-5.1H81.7L81.3,31.8z"/>
							<path id="Path_1890" class="st12" d="M4.2,12.7h115.5L120.7,0H5.3L4.2,12.7z"/>
							<path id="Path_1891" class="st12" d="M80.5,41.3h36.7l0.4-5.1H80.9L80.5,41.3z"/>
							<path id="Path_1892" class="st12" d="M0,60.4h7l0.6-7h-7L0,60.4z"/>
							<path id="Path_1893" class="st12" d="M10.4,60.4h7l0.6-7h-7L10.4,60.4z"/>
							<path id="Path_1894" class="st12" d="M79.6,50.9h36.7l0.4-5.1H80.1L79.6,50.9z"/>
							<path id="Path_1895" class="st12" d="M78.8,60.4h36.7l0.4-5.1H79.2L78.8,60.4z"/>
							<path id="Path_1896" class="st12" d="M21.9,60.4h7l0.6-7h-7L21.9,60.4z"/>
						</g>
					</g>
				</g>
				<rect id="Rectangle_729" x="77.7" y="215.8" class="st30" width="197" height="17.4"/>
				<g id="Group_1817" transform="translate(119.134 204.98)">
					<path id="Path_1834" class="st18" d="M140,3.6v7.2H0V8.3C0,6.5,1.4,5,3.2,4.8L53.1,0h83.4C138.4,0,140,1.6,140,3.6       C140,3.6,140,3.6,140,3.6z"/>
					<path id="Path_1835" class="st17" d="M140,3.6v7.2H88.7V8.3c-0.1-1.7,1-3.2,2.7-3.6L133.8,0h3.3C138.8,0.2,140.1,1.8,140,3.6z"/>
				</g>
				<g id="Group_1814" transform="translate(-8.151 -20.748)">
					<g id="Group_179-2" transform="translate(48.019 271.296)">
						<g id="Group_178-2" transform="translate(58.003 204.299)">
							<path id="Path_535-2" class="st2" d="M14.5,0C12.5,4.9,10,9.6,7.1,14.1l22.2,3.5c0,0,6.7-16.7,6.9-15.7S14.5,0,14.5,0z"/>
							<path id="Path_536-2" class="st3" d="M24,14.5C17,9.9,9.9,5.8,3.3,16.4C-3.8,27.7,2,37.1,6.8,41.6H34L24,14.5z"/>
							<path id="Path_537-2" class="st3" d="M6.8,41.6l1.5,2.8c0.5,0.9,1.5,1.5,2.5,1.5h25.4L34,41.6H6.8z"/>
						</g>
						<path id="Path_538-2" class="st4" d="M42.4,0c30.2,0,88.4,15.8,99.2,17.9s26.9,20.6,8.9,53S96.8,210.4,96.8,210.4l-24.2-6.1        c0,0,12.1-24.8,12.2-72.1c0.1-28.9,3.5-41.7,24-65.9L0,70.7L42.4,0z"/>
					</g>
					<g id="Group_185-2">
						<g id="Group_181-2" transform="translate(57.244)">
							<g id="Group_180-2" transform="translate(0 26.37)">
								<path id="Path_539-2" class="st5" d="M59.1,74.4c-2.2-0.7-8.3-5.5-8.3-5.5l-5.4,4.7c0,0-12.7-2.2-34.2-16.4L46.1,0          l35.6,14.2L59.1,74.4z"/>
								<path id="Path_540-2" class="st5" d="M59.1,74.4c-2.2-0.7-8.3-5.5-8.3-5.5L33.7,85.2c0,0,1.8-2.6-19.6-16.8L46.1,0          l35.6,14.2L59.1,74.4z"/>
								<path id="Path_541-2" class="st6" d="M43.2,42.5c-3.3-2.3-18,0.7-20.8,23.1C18,61.8,5.9,66.7,0,62.8L46.1,0l35.6,14.2          L59.1,74.4c-2.2-0.7-8.3-5.5-8.3-5.5C46.6,65.9,49.8,47,43.2,42.5z"/>
							</g>
							<path id="Path_542-2" class="st7" d="M98.9,54.2c15.1-11.7,10-27.5-4.5-33.2S76.3-4,61.2,0.7S35,3,32.6,22.6         s-12.7,29.7-9.3,34.1s13.2,4.6,20.2-4.5c9-11.8,18.4-6.1,18.7,8.4S76,79.2,79.3,75S98.9,54.2,98.9,54.2z"/>
							<path id="Path_543-2" class="st5" d="M98.4,54.2C93.3,87.9,67,106.5,57.5,100s0.9-34.9-5.7-34.6S48.3,55,52.1,48.4         c3.7-6.4,12.6-8.6,10.6,3.7s2.3,15.2,4,14.9s9.4-6.9,16.6-8.6S89,43.6,93,45.6S98.4,54.2,98.4,54.2z"/>
						</g>
						<path id="Path_544-2" class="st8" d="M138.2,480c-8.2,10.1-13.4,12.4-11,28.7l38.1-21.7L138.2,480z"/>
						<path id="Path_545-2" class="st9" d="M232.4,297.8c-17.2-11.9-112.5-10.6-123.8-15.2S93,281.6,93,281.6l-2.7-10.3L3,292.1        l2.1,11.4c-0.9,49.1,35.8,42.5,53.3,42.5h133.2c-10.1,7.3-13.3,12.1-21.5,48.5S138.2,480,138.2,480l27,7        c0,0,67.9-121.9,75.4-135.2S249.6,309.8,232.4,297.8z"/>
						<g id="Group_182-2" transform="translate(126.299 486.319)">
							<path id="Path_546-2" class="st10" d="M39,0.7c0,0,14.5,8,22.3,13.8s27.4,3.7,29.3,16.4H3.7c0,0-8.3-17.1-0.1-27.2         c0,0,10.9,8.3,19.3,4.6S28.1-2.1,39,0.7z"/>
							<path id="Path_547-2" class="st10" d="M3.7,30.9l1.4,2.7c0.5,1,1.5,1.6,2.5,1.6h80.1c1.6,0,2.9-1.3,2.9-2.9v-1.4H3.7z"/>
						</g>
						<g id="Group_184-2" transform="translate(0 86.198)">
							<path id="Path_549-2" class="st28" d="M113.1,32.5C141,84.2,80.1,175.7,86.5,212c-15.3,8-22.8-12.6-60.6,45         c0,0-40.3-123.7-20.5-191.7S67.1,0,67.1,0S97.2,3.1,113.1,32.5z"/>
							<path id="Path_550-2" class="st31" d="M86.5,212c-5.9-20.4,0.1-47.1-3.5-67.6C78.7,119.3,62.3,66,62.3,66         c7.3-15.1,42.9-39.1,30.8-55.7c8.3,5.7,15.2,13.3,20,22.2c19.8,36-22.4,134.1-19.7,173.5c0.1,2.5-1.5,4.6-3.9,5.2L86.5,212z"/>
							<g id="Group_183-2" transform="translate(60.961 21.024)">
								<path id="Path_551-2" class="st5" d="M134.1,111.2c8.1-7.3,60,9.8,31.4,21h-40L134.1,111.2z"/>
								<path id="Path_1907-2" class="st5" d="M135,111.2c0,0-42.5-4.1-48.5-2S75.4,60.4,69.9,53.5c-1.8-2.2-34.6,10.9-35.7,11.7          l21.5,53.5c0,0,3.6,13.1,12,13.8s59.3,0,59.3,0L135,111.2z"/>
								<path id="Path_552-2" class="st28" d="M1.6,42.5c-7.1-16.2,11-46.3,33.9-42.1s35.7,55.3,36.8,55.3c0,0-36.1,17.6-35.9,18.1          S26.1,47.5,1.6,42.5z"/>
							</g>
						</g>
					</g>
				</g>
				<g id="Group_1815" transform="translate(-133.879 141.932)">
					<g id="Group_187-2" transform="translate(98.228 208.32)">
						<rect id="Rectangle_213-2" x="19.6" y="0" class="st13" width="125.8" height="23.8"/>
						<path id="Path_553-2" class="st13" d="M159.8,150.5h6L145.4,23.8h-16.2L159.8,150.5z"/>
						<path id="Path_554-2" class="st13" d="M0,150.5h6L36.6,23.8H20.4L0,150.5z"/>
					</g>
					<g id="Group_188-2" transform="translate(37.017 208.32)">
						<rect id="Rectangle_214-2" x="19.6" y="0" class="st14" width="125.8" height="23.8"/>
						<path id="Path_555-2" class="st14" d="M159.8,150.5h6L145.4,23.8h-16.2L159.8,150.5z"/>
						<path id="Path_556-2" class="st14" d="M0,150.5h6L36.6,23.8H20.4L0,150.5z"/>
					</g>
					<path id="Path_557-2" class="st15" d="M111,182.5v25.8h152.2"/>
					<path id="Path_558-2" class="st15" d="M63.4,198.1l119-5.1L134,26c-3.5-15.6-17.5-26.5-33.5-26L53.4,1.4       C35,2,20.6,17.3,21.2,35.7c0.1,1.9,0.3,3.7,0.6,5.5L63.4,198.1z"/>
					<path id="Path_559-2" class="st16" d="M42.2,198.1l119-5.1L112.8,26C109.4,10.5,95.3-0.5,79.4,0L32.3,1.4       C13.9,2-0.5,17.3,0,35.7c0.1,1.9,0.3,3.7,0.6,5.5L42.2,198.1z"/>
					<path id="Path_560-2" class="st16" d="M39.6,208.3l223.1-0.2c2.8,0,5.1-2.2,5.1-5c0-0.4,0-0.8-0.1-1.1       c-2.8-11.4-13.1-19.4-24.8-19.4H39.6V208.3z"/>
				</g>
			</g>
		</g>
		<path id="Path_2812" class="st7" d="M148,54.2c15.1-11.7,10-27.5-4.5-33.2S125.4-4,110.3,0.7S84.1,3,81.7,22.6S69,52.3,72.3,56.7    s13.2,4.6,20.2-4.5c9-11.8,18.4-6.1,18.7,8.4s13.9,18.6,17.2,14.5S148,54.2,148,54.2z"/>
		<path id="Path_2813" class="st5" d="M147.5,54.2c-5.1,33.8-31.5,52.3-40.9,45.8s0.9-34.9-5.7-34.6s-3.5-10.4,0.2-16.9    c3.7-6.4,12.6-8.6,10.6,3.7s2.3,15.2,4,14.9s9.4-6.9,16.6-8.6s5.7-14.9,9.7-12.9S147.5,54.2,147.5,54.2z"/>
	</g>
</g>
</svg>