<svg xmlns="http://www.w3.org/2000/svg" xmlns:xlink="http://www.w3.org/1999/xlink" width="268.2" height="268.2" viewBox="0 0 268.2 268.2">
  <defs>
    <clipPath id="clip-path">
      <path id="Path_6913" data-name="Path 6913" d="M166.361,0a134.1,134.1,0,1,1-134.1,134.1A134.1,134.1,0,0,1,166.361,0" transform="translate(217.74 183)" fill="#e0ded9"/>
    </clipPath>
    <clipPath id="clip-path-2">
      <rect id="Rectangle_1528" data-name="Rectangle 1528" width="279.544" height="342.434" fill="none"/>
    </clipPath>
    <clipPath id="clip-path-3">
      <path id="Path_5859" data-name="Path 5859" d="M87.126,63.746V305.324a134.1,134.1,0,1,0,0-241.578" fill="none"/>
    </clipPath>
    <clipPath id="clip-path-4">
      <rect id="Rectangle_1515" data-name="Rectangle 1515" width="26.653" height="15.424" transform="translate(197.314 112.501)" fill="none"/>
    </clipPath>
    <clipPath id="clip-path-5">
      <rect id="Rectangle_1514" data-name="Rectangle 1514" width="26.65" height="15.422" transform="translate(197.314 112.502)" fill="none"/>
    </clipPath>
    <clipPath id="clip-path-6">
      <path id="Path_5860" data-name="Path 5860" d="M126.735,161.591V146.682a18.2,18.2,0,0,1,18.189-18.2c7.9-.007,14-.029,21.311-.029,2.961,0,4.016,1.616,5.657,4.806,2.57,5-.187,6.038-2.343,6.954-11.086,4.716-24.78,12.275-36.645,23.94a3.538,3.538,0,0,1-2.511,1.045h-.025a3.634,3.634,0,0,1-3.632-3.607M170.3,113.857H145.147a32.276,32.276,0,0,0-32.276,32.276V193.48s-1.694,2.788-1.694,11.951v104.53a7.771,7.771,0,0,0,1.537,4.652,133.67,133.67,0,0,0,17.4,3.156h30.661a133.655,133.655,0,0,0,77.281-36.248V157.4a19.34,19.34,0,0,0-.668-5.037l-4.573-16.927a2.926,2.926,0,0,0-2.823-2.16H190.752a3.321,3.321,0,0,1-2.821-1.567l-7.685-12.334a11.717,11.717,0,0,0-9.94-5.519h0" fill="none"/>
    </clipPath>
    <clipPath id="clip-path-8">
      <rect id="Rectangle_1519" data-name="Rectangle 1519" width="37" height="172.695" transform="translate(191.007 133.045)" fill="none"/>
    </clipPath>
    <clipPath id="clip-path-9">
      <rect id="Rectangle_1518" data-name="Rectangle 1518" width="11.84" height="172.695" transform="translate(203.587 133.045)" fill="none"/>
    </clipPath>
    <clipPath id="clip-path-10">
      <path id="Path_5872" data-name="Path 5872" d="M11.344,184.535a134.157,134.157,0,0,0,193.419,120.3V64.235a134.155,134.155,0,0,0-193.419,120.3" fill="none"/>
    </clipPath>
    <clipPath id="clip-path-11">
      <rect id="Rectangle_1521" data-name="Rectangle 1521" width="28.363" height="16.414" transform="translate(117.257 99.878)" fill="none"/>
    </clipPath>
    <clipPath id="clip-path-12">
      <rect id="Rectangle_1520" data-name="Rectangle 1520" width="28.36" height="16.411" transform="translate(117.257 99.879)" fill="none"/>
    </clipPath>
    <clipPath id="clip-path-13">
      <path id="Path_5873" data-name="Path 5873" d="M42.15,152.117V136.252A19.368,19.368,0,0,1,61.5,116.884c8.406-.007,14.9-.031,22.678-.031,3.151,0,4.274,1.72,6.021,5.115,2.735,5.321-.2,6.425-2.493,7.4-11.8,5.018-26.371,13.063-39,25.476a3.766,3.766,0,0,1-2.672,1.112h-.026a3.866,3.866,0,0,1-3.865-3.839m19.592-50.8A34.347,34.347,0,0,0,27.4,135.669v50.384s-1.8,2.966-1.8,12.717v45.986A134.154,134.154,0,0,0,136.1,318.315h16.2a8.308,8.308,0,0,0,8.308-8.309V147.659a20.525,20.525,0,0,0-.711-5.361l-4.866-18.012a3.11,3.11,0,0,0-3-2.3H110.274a3.538,3.538,0,0,1-3-1.668l-8.178-13.124a12.466,12.466,0,0,0-10.58-5.874Z" fill="none"/>
    </clipPath>
    <clipPath id="clip-path-15">
      <rect id="Rectangle_1525" data-name="Rectangle 1525" width="12.599" height="183.774" transform="translate(123.933 121.74)" fill="none"/>
    </clipPath>
    <clipPath id="clip-path-16">
      <path id="Path_5876" data-name="Path 5876" d="M37.111,105.484q-3.539,4.84-6.649,10V253.581a134.4,134.4,0,0,0,78.367,59.994h46.478V105.484Z" fill="none"/>
    </clipPath>
    <clipPath id="clip-path-17">
      <rect id="Rectangle_1527" data-name="Rectangle 1527" width="124.845" height="208.092" transform="translate(30.462 105.484)" fill="none"/>
    </clipPath>
    <clipPath id="clip-path-18">
      <rect id="Rectangle_1526" data-name="Rectangle 1526" width="124.844" height="208.091" transform="translate(30.462 105.484)" fill="none"/>
    </clipPath>
  </defs>
  <g id="Mask_Group_27" data-name="Mask Group 27" transform="translate(-250.001 -183)" clip-path="url(#clip-path)">
    <g id="Group_6837" data-name="Group 6837">
      <g id="Group_514" data-name="Group 514" transform="translate(-2115.266 -7608.63)">
        <circle id="Ellipse_44" data-name="Ellipse 44" cx="134.1" cy="134.1" r="134.1" transform="translate(2365.266 7792.63)" fill="#e0ded9"/>
        <circle id="Ellipse_47-2" data-name="Ellipse 47-2" cx="134.1" cy="134.1" r="134.1" transform="translate(2365.266 7792.63)" fill="#e0ded9"/>
      </g>
      <g id="Group_6326" data-name="Group 6326" transform="translate(238 133)">
        <g id="Group_6325" data-name="Group 6325" clip-path="url(#clip-path-2)">
          <g id="Group_6295" data-name="Group 6295">
            <g id="Group_6294" data-name="Group 6294" clip-path="url(#clip-path-3)">
              <path id="Path_5849" data-name="Path 5849" d="M211.257,135.278C206.33,77.7,236.646,28.172,279.039,24.544" fill="none" stroke="#50a7be" stroke-miterlimit="10" stroke-width="10"/>
              <path id="Path_5850" data-name="Path 5850" d="M223.16,110.359H198.516a2.761,2.761,0,0,0-2.615,2.886v14.61a2.759,2.759,0,0,0,2.614,2.885h24.642a2.761,2.761,0,0,0,2.615-2.886V113.243a2.756,2.756,0,0,0-2.612-2.885" fill="#fff"/>
              <g id="Group_6293" data-name="Group 6293" opacity="0.198">
                <g id="Group_6292" data-name="Group 6292">
                  <g id="Group_6291" data-name="Group 6291" clip-path="url(#clip-path-4)">
                    <g id="Group_6290" data-name="Group 6290">
                      <g id="Group_6289" data-name="Group 6289" clip-path="url(#clip-path-5)">
                        <path id="Path_5851" data-name="Path 5851" d="M223.5,112.5h-.668a.428.428,0,0,0-.46.388v14.646a.428.428,0,0,0,.46.388h.671a.429.429,0,0,0,.46-.388V112.89a.428.428,0,0,0-.46-.388" fill="#a79d96"/>
                        <path id="Path_5852" data-name="Path 5852" d="M198.445,112.5h-.671a.429.429,0,0,0-.46.388v14.646a.429.429,0,0,0,.46.388h.671a.428.428,0,0,0,.46-.388V112.89a.428.428,0,0,0-.46-.388" fill="#a79d96"/>
                        <path id="Path_5853" data-name="Path 5853" d="M202.423,112.5h-.671a.429.429,0,0,0-.46.388v14.646a.429.429,0,0,0,.46.388h.671a.429.429,0,0,0,.46-.388V112.89a.429.429,0,0,0-.46-.388" fill="#a79d96"/>
                        <path id="Path_5854" data-name="Path 5854" d="M206.8,112.5h-.671a.429.429,0,0,0-.46.388v14.646a.429.429,0,0,0,.46.388h.671a.429.429,0,0,0,.46-.388V112.89a.429.429,0,0,0-.46-.388" fill="#a79d96"/>
                        <path id="Path_5855" data-name="Path 5855" d="M210.776,112.5H210.1a.429.429,0,0,0-.46.388v14.646a.429.429,0,0,0,.46.388h.671a.428.428,0,0,0,.46-.388V112.89a.428.428,0,0,0-.46-.388" fill="#a79d96"/>
                        <path id="Path_5856" data-name="Path 5856" d="M215.151,112.5h-.671a.429.429,0,0,0-.46.388v14.646a.429.429,0,0,0,.46.388h.671a.428.428,0,0,0,.46-.388V112.89a.428.428,0,0,0-.46-.388" fill="#a79d96"/>
                        <path id="Path_5857" data-name="Path 5857" d="M219.134,112.5h-.671a.429.429,0,0,0-.46.388v14.646a.429.429,0,0,0,.46.388h.671a.429.429,0,0,0,.46-.388V112.89a.429.429,0,0,0-.46-.388" fill="#a79d96"/>
                      </g>
                    </g>
                  </g>
                </g>
              </g>
              <rect id="Rectangle_1516" data-name="Rectangle 1516" width="32.432" height="8.177" transform="translate(195.02 125.436)" fill="#819c35"/>
              <path id="Path_5858" data-name="Path 5858" d="M112.869,193.479V146.133a32.275,32.275,0,0,1,32.276-32.276H170.3a11.714,11.714,0,0,1,9.942,5.52l7.685,12.334a3.326,3.326,0,0,0,2.822,1.567h39.237a2.924,2.924,0,0,1,2.822,2.161l4.573,16.927a19.29,19.29,0,0,1,.668,5.036v152.56a7.808,7.808,0,0,1-7.808,7.808H118.985a7.809,7.809,0,0,1-7.809-7.807h0V205.431c0-9.163,1.693-11.951,1.693-11.951m13.865-31.925a3.629,3.629,0,0,0,6.168,2.6c11.864-11.665,25.558-19.223,36.645-23.94,2.155-.917,4.913-1.957,2.343-6.954-1.641-3.19-2.7-4.806-5.657-4.806-7.31,0-13.412.022-21.311.029a18.2,18.2,0,0,0-18.188,18.2Z" fill="#e8e8e8"/>
            </g>
          </g>
          <g id="Group_6297" data-name="Group 6297">
            <g id="Group_6296" data-name="Group 6296" clip-path="url(#clip-path-6)">
              <rect id="Rectangle_1517" data-name="Rectangle 1517" width="181.042" height="124.941" transform="translate(87.126 215.493)" fill="#c7ceae"/>
            </g>
          </g>
          <g id="Group_6304" data-name="Group 6304">
            <g id="Group_6303" data-name="Group 6303" clip-path="url(#clip-path-3)">
              <g id="Group_6302" data-name="Group 6302" opacity="0.2">
                <g id="Group_6301" data-name="Group 6301">
                  <g id="Group_6300" data-name="Group 6300" clip-path="url(#clip-path-8)">
                    <g id="Group_6299" data-name="Group 6299">
                      <g id="Group_6298" data-name="Group 6298" clip-path="url(#clip-path-9)">
                        <line id="Line_171" data-name="Line 171" y2="172.695" transform="translate(209.507 133.045)" fill="none" stroke="#50a7be" stroke-miterlimit="10" stroke-width="37"/>
                      </g>
                    </g>
                  </g>
                </g>
              </g>
            </g>
          </g>
          <g id="Group_6311" data-name="Group 6311">
            <g id="Group_6310" data-name="Group 6310" clip-path="url(#clip-path-10)">
              <path id="Path_5862" data-name="Path 5862" d="M132.094,124.116c-5.243-61.273,27.018-113.977,72.13-117.838" fill="none" stroke="#c0ccce" stroke-miterlimit="10" stroke-width="10"/>
              <path id="Path_5863" data-name="Path 5863" d="M144.761,97.6H118.536a2.938,2.938,0,0,0-2.783,3.071v15.547a2.936,2.936,0,0,0,2.782,3.07h26.223a2.938,2.938,0,0,0,2.783-3.071V100.668a2.934,2.934,0,0,0-2.78-3.07" fill="#fff"/>
              <g id="Group_6309" data-name="Group 6309" opacity="0.198">
                <g id="Group_6308" data-name="Group 6308">
                  <g id="Group_6307" data-name="Group 6307" clip-path="url(#clip-path-11)">
                    <g id="Group_6306" data-name="Group 6306">
                      <g id="Group_6305" data-name="Group 6305" clip-path="url(#clip-path-12)">
                        <path id="Path_5864" data-name="Path 5864" d="M145.127,99.879h-.711a.454.454,0,0,0-.489.413v15.585a.454.454,0,0,0,.489.413h.714a.456.456,0,0,0,.49-.413V100.292a.455.455,0,0,0-.49-.413" fill="#a79d96"/>
                        <path id="Path_5865" data-name="Path 5865" d="M118.461,99.879h-.715a.457.457,0,0,0-.489.413v15.585a.456.456,0,0,0,.489.413h.715a.457.457,0,0,0,.49-.413V100.292a.457.457,0,0,0-.49-.413" fill="#a79d96"/>
                        <path id="Path_5866" data-name="Path 5866" d="M122.694,99.879h-.714a.458.458,0,0,0-.49.413v15.585a.457.457,0,0,0,.49.413h.714a.457.457,0,0,0,.49-.413V100.292a.458.458,0,0,0-.49-.413" fill="#a79d96"/>
                        <path id="Path_5867" data-name="Path 5867" d="M127.349,99.879h-.714a.458.458,0,0,0-.49.413v15.585a.457.457,0,0,0,.49.413h.714a.457.457,0,0,0,.49-.413V100.292a.458.458,0,0,0-.49-.413" fill="#a79d96"/>
                        <path id="Path_5868" data-name="Path 5868" d="M131.583,99.879h-.714a.458.458,0,0,0-.49.413v15.585a.457.457,0,0,0,.49.413h.714a.456.456,0,0,0,.49-.413V100.292a.456.456,0,0,0-.49-.413" fill="#a79d96"/>
                        <path id="Path_5869" data-name="Path 5869" d="M136.238,99.879h-.714a.458.458,0,0,0-.49.413v15.585a.457.457,0,0,0,.49.413h.714a.455.455,0,0,0,.49-.413V100.292a.455.455,0,0,0-.49-.413" fill="#a79d96"/>
                        <path id="Path_5870" data-name="Path 5870" d="M140.477,99.879h-.714a.458.458,0,0,0-.49.413v15.585a.457.457,0,0,0,.49.413h.714a.457.457,0,0,0,.49-.413V100.292a.458.458,0,0,0-.49-.413" fill="#a79d96"/>
                      </g>
                    </g>
                  </g>
                </g>
              </g>
              <rect id="Rectangle_1522" data-name="Rectangle 1522" width="34.513" height="8.702" transform="translate(114.816 113.643)" fill="#c9c9c9"/>
              <path id="Path_5871" data-name="Path 5871" d="M27.4,186.051V135.668a34.346,34.346,0,0,1,34.346-34.347H88.513a12.466,12.466,0,0,1,10.58,5.874l8.178,13.125a3.538,3.538,0,0,0,3,1.668h41.754a3.11,3.11,0,0,1,3,2.3L159.9,142.3a20.56,20.56,0,0,1,.711,5.36V310.007a8.31,8.31,0,0,1-8.309,8.309H33.9a8.309,8.309,0,0,1-8.31-8.308h0V198.77c0-9.751,1.8-12.718,1.8-12.718m14.754-33.973a3.862,3.862,0,0,0,6.564,2.761c12.625-12.413,27.2-20.456,39-25.475,2.293-.976,5.228-2.083,2.493-7.4-1.746-3.394-2.873-5.114-6.02-5.114-7.779,0-14.272.024-22.678.031a19.367,19.367,0,0,0-19.355,19.368Z" fill="#f4f4f4"/>
            </g>
          </g>
          <g id="Group_6313" data-name="Group 6313">
            <g id="Group_6312" data-name="Group 6312" clip-path="url(#clip-path-13)">
              <rect id="Rectangle_1523" data-name="Rectangle 1523" width="192.657" height="178.351" transform="translate(0 164.083)" fill="#bcd1dd"/>
            </g>
          </g>
          <g id="Group_6315" data-name="Group 6315">
            <g id="Group_6314" data-name="Group 6314" clip-path="url(#clip-path-10)">
              <rect id="Rectangle_1524" data-name="Rectangle 1524" width="12.6" height="183.774" transform="translate(123.932 121.74)" fill="#c0ccce"/>
            </g>
          </g>
          <g id="Group_6317" data-name="Group 6317">
            <g id="Group_6316" data-name="Group 6316" clip-path="url(#clip-path-15)">
              <line id="Line_172" data-name="Line 172" y2="183.774" transform="translate(130.232 121.74)" fill="#c0ccce"/>
            </g>
          </g>
          <g id="Group_6324" data-name="Group 6324">
            <g id="Group_6323" data-name="Group 6323" clip-path="url(#clip-path-16)">
              <g id="Group_6322" data-name="Group 6322" opacity="0.3">
                <g id="Group_6321" data-name="Group 6321">
                  <g id="Group_6320" data-name="Group 6320" clip-path="url(#clip-path-17)">
                    <g id="Group_6319" data-name="Group 6319">
                      <g id="Group_6318" data-name="Group 6318" clip-path="url(#clip-path-18)">
                        <path id="Path_5875" data-name="Path 5875" d="M41.932,152.426a3.861,3.861,0,0,0,6.564,2.761c12.625-12.413,27.2-20.456,38.995-25.474,2.294-.976,5.229-2.083,2.494-7.4-1.747-3.394-2.873-5.115-6.021-5.115-7.779,0-14.272.023-22.678.031A19.368,19.368,0,0,0,41.932,136.6ZM32.264,186.4V136.02c0-18.969,10.291-30.532,29.264-30.532H88.295c4.3,0,4.489.949,6.765,4.6l8.178,13.125a3.539,3.539,0,0,0,3,1.667l41.631.033a3.112,3.112,0,0,1,3,2.3l3.718,15.436a20.547,20.547,0,0,1,.712,5.359V306.538c0,4.589-3.725,7.038-8.309,7.038H38.772c-4.588,0-8.31-2.448-8.31-7.038V199.118c0-9.751,1.8-12.718,1.8-12.718" fill="#e5e5e5"/>
                      </g>
                    </g>
                  </g>
                </g>
              </g>
            </g>
          </g>
        </g>
      </g>
    </g>
  </g>
</svg>
