<svg xmlns="http://www.w3.org/2000/svg" xmlns:xlink="http://www.w3.org/1999/xlink" width="268.2" height="268.2" viewBox="0 0 268.2 268.2">
  <defs>
    <clipPath id="clip-path">
      <circle id="Ellipse_53" data-name="Ellipse 53" cx="134.1" cy="134.1" r="134.1" fill="none"/>
    </clipPath>
  </defs>
  <g id="Group_6138" data-name="Group 6138" transform="translate(-534 -1367)">
    <circle id="Ellipse_53-2" data-name="Ellipse 53" cx="134.1" cy="134.1" r="134.1" transform="translate(534 1367)" fill="#e0ded9"/>
    <g id="Group_509" data-name="Group 509" transform="translate(534 1367)">
      <g id="Group_508" data-name="Group 508" transform="translate(0 0)" clip-path="url(#clip-path)">
        <g id="Group_114" data-name="Group 114" transform="translate(108.414 34.243)">
          <path id="Path_356" data-name="Path 356" d="M1551.97-125.635h-24.284c-.507,45.541-15.958,62.874-33.042,74.513a5.857,5.857,0,0,0-2.537,4.848V43.593a9.852,9.852,0,0,0,9.858,9.844h.022l100.043-.363a9.843,9.843,0,0,0,9.8-9.843V-49.444c-18.05-11.682-35.04-28.41-35.578-76.195Z" transform="translate(-1492.108 163.184)" fill="#fff"/>
          <path id="Path_357" data-name="Path 357" d="M1561.817-147.706l-1.565-1.8a98.994,98.994,0,0,0-18.98-2.392,102.347,102.347,0,0,0-18.982,2.392l-2.582,2.97-2.723,3.127,3.319,38.73h5.973l-3.542-39.873,1.46-.265a108.485,108.485,0,0,1,17.078-1.772,119.916,119.916,0,0,1,17.138,1.876c.481.077.94.157,1.379.236h0l-3.522,39.794h5.972l3.32-38.729Z" transform="translate(-1481.411 151.894)" fill="#515e71"/>
          <path id="Path_358" data-name="Path 358" d="M1609.595-44.909c-.023-.082-.044-.156-.072-.236a7.366,7.366,0,0,0-3.336-4.183,4.532,4.532,0,0,0-1.6-.591,2.3,2.3,0,0,0-.329-.024v.024h-11.516V-65.273a6.731,6.731,0,0,0-5.04-5.337c-.072-.026-.145-.047-.217-.066h-15.716v4.78H1587.7v15.354a6.744,6.744,0,0,0,5.04,5.332,1.174,1.174,0,0,0,.207.067h11.916v33.688h4.776V-44.7A.829.829,0,0,0,1609.595-44.909Z" transform="translate(-1457.854 186.818)" fill="#515e71"/>
        </g>
        <g id="Group_98" data-name="Group 98" transform="translate(27.38 42.745)">
          <path id="Path_333" data-name="Path 333" d="M-6206.212,954.515l-.478.67-5.1,6.486,30.252,21.624,9.366-13.369,33.3-15.139h0a5.337,5.337,0,0,0,3.222-6.464c-.807-2.972-3.908-4.9-6.221-4.273-.049.013-19.1,7.154-19.1,7.154,1.685-2.191,26.577-37.072,26.577-37.072h0c1.039-1.454.414-3.68-1.393-4.973s-4.117-1.162-5.156.291h0l-21.132,28.2-.274-.2,22.147-31.73c1.039-1.454.415-3.681-1.394-4.974s-4.117-1.162-5.158.292l-22.912,31.182-.418-.3,18.828-27.255h0l0,0c1.04-1.454.419-3.679-1.385-4.968s-4.109-1.156-5.149.3v0l-.016-.012-19.8,26.558-.448-.322,13.463-20.009h0l0-.006a3.36,3.36,0,0,0-.942-4.652,3.362,3.362,0,0,0-4.708.614l0,.006h0l-14.3,19.409h0c-1.894,2.286-7.534,10.216-8.564,11.847C-6195.544,937.278-6206.212,954.515-6206.212,954.515Z" transform="translate(6231.986 -884.387)" fill="#bbdde5"/>
          <path id="Path_334" data-name="Path 334" d="M-6188.311,960.881v.9l.188,4.54a5.242,5.242,0,0,1-5.021,5.454c-.072,0-.145,0-.217,0h-27.481a7.646,7.646,0,0,1-7.646-7.645c0-.023,0-.046,0-.069l.1-11.117-20-34.641h0a5.839,5.839,0,0,1,1.245-7.8c2.6-2.133,6.592-1.873,8.252.154.035.043,12.443,18.51,12.443,18.51-.107-3.021-.071-49.875-.071-49.875h0c0-1.953,1.971-3.537,4.4-3.537s4.4,1.584,4.4,3.537h0l.871,38.518h.368l.475-42.305c0-1.954,1.97-3.539,4.4-3.539s4.4,1.584,4.4,3.539l.556,42.305h.562l.58-36.216h0v0c0-1.955,1.966-3.539,4.391-3.539s4.39,1.584,4.39,3.539v0h.023l.73,36.216h.6l.746-26.359h0v-.008a3.676,3.676,0,0,1,3.8-3.539,3.675,3.675,0,0,1,3.8,3.539v.008h0l.382,26.359h0c.229,3.238.207,13.879.086,15.983C-6186.84,938.764-6188.311,960.881-6188.311,960.881Z" transform="translate(6249.369 -871.972)" fill="#62c0d8"/>
        </g>
      </g>
    </g>
  </g>
</svg>
