<?xml version="1.0" encoding="utf-8"?>
<!-- Generator: Adobe Illustrator 26.3.1, SVG Export Plug-In . SVG Version: 6.00 Build 0)  -->
<svg version="1.1" id="Lager_1" xmlns="http://www.w3.org/2000/svg" xmlns:xlink="http://www.w3.org/1999/xlink" x="0px" y="0px"
	 viewBox="0 0 268.2 268.2" style="enable-background:new 0 0 268.2 268.2;" xml:space="preserve">
<style type="text/css">
	.st0{fill:#E0DED9;}
	.st1{clip-path:url(#SVGID_00000090988458982032012460000000656662599473930386_);}
	.st2{clip-path:url(#SVGID_00000100364752145670101310000008070854235285830784_);}
	.st3{fill:#E7E7E7;}
	.st4{clip-path:url(#SVGID_00000071549316975893546410000013212953153318789286_);}
	.st5{fill:none;stroke:#C0C2BD;stroke-miterlimit:10;}
	.st6{fill:#C3D1D4;}
	.st7{clip-path:url(#SVGID_00000067944765129197945410000006966882974407541181_);}
	.st8{clip-path:url(#SVGID_00000078767030711136031890000012181994626225539980_);}
	.st9{fill:#3175AE;}
	.st10{clip-path:url(#SVGID_00000106143291709355799510000004841005023912060597_);}
	.st11{fill:#444444;}
	.st12{opacity:0.2;}
	.st13{clip-path:url(#SVGID_00000031893585646479065920000017010494948388763036_);}
	.st14{fill:#FFFFFF;}
	.st15{fill:none;stroke:#9F9F9F;stroke-miterlimit:10;}
	.st16{clip-path:url(#SVGID_00000137098506778891512680000015579645452471885244_);}
	.st17{opacity:0.78;}
	.st18{clip-path:url(#SVGID_00000132801465609823286480000007970051372630821810_);}
	.st19{clip-path:url(#SVGID_00000049920647768770815190000010438363398783358619_);}
	.st20{clip-path:url(#SVGID_00000100370219336828024540000000796782041550292134_);}
	.st21{clip-path:url(#SVGID_00000025443745944883025710000017788311558371793834_);}
	.st22{fill:#819C35;}
	.st23{clip-path:url(#SVGID_00000181790017176148958920000017017673667788439471_);}
	.st24{fill:#255E84;}
	.st25{fill:none;stroke:#3175AE;stroke-width:2;stroke-linecap:round;stroke-linejoin:round;}
</style>
<g id="Group_6138" transform="translate(-534 -1367)">
	<circle id="Ellipse_53-2" class="st0" cx="668.1" cy="1501.1" r="134.1"/>
	<g id="Group_509" transform="translate(534 1367)">
		<g>
			<defs>
				<circle id="SVGID_1_" cx="134.1" cy="134.1" r="134.1"/>
			</defs>
			<clipPath id="SVGID_00000107548284926215028800000016237802452504988342_">
				<use xlink:href="#SVGID_1_"  style="overflow:visible;"/>
			</clipPath>
			<g style="clip-path:url(#SVGID_00000107548284926215028800000016237802452504988342_);">
				<defs>
					<rect id="SVGID_00000000916595478326045040000001659947382247986053_" x="51.5" y="74.4" width="155.9" height="206.9"/>
				</defs>
				<clipPath id="SVGID_00000044165871752140852890000012860290171192538250_">
					<use xlink:href="#SVGID_00000000916595478326045040000001659947382247986053_"  style="overflow:visible;"/>
				</clipPath>
				
					<g id="Group_5144" transform="translate(0 0)" style="clip-path:url(#SVGID_00000044165871752140852890000012860290171192538250_);">
					<rect id="Rectangle_775" x="51.5" y="235.7" class="st3" width="55.3" height="45.6"/>
					<rect id="Rectangle_776" x="51.5" y="74.4" class="st3" width="55.3" height="161.5"/>
					<g id="Group_5114">
						<g>
							<defs>
								<rect id="SVGID_00000024702160546506854020000010879978041490222743_" x="51.5" y="74.4" width="155.9" height="206.9"/>
							</defs>
							<clipPath id="SVGID_00000067231508583537016010000013745955188603380381_">
								<use xlink:href="#SVGID_00000024702160546506854020000010879978041490222743_"  style="overflow:visible;"/>
							</clipPath>
							<g id="Group_5113" style="clip-path:url(#SVGID_00000067231508583537016010000013745955188603380381_);">
								<line id="Line_74" class="st5" x1="107.9" y1="235.9" x2="51.5" y2="235.9"/>
							</g>
						</g>
					</g>
					<rect id="Rectangle_778" x="105.5" y="235.7" class="st6" width="102" height="45.6"/>
					<rect id="Rectangle_779" x="105.5" y="74.4" class="st6" width="102" height="128.4"/>
					<g id="Group_5143">
						<g>
							<defs>
								<rect id="SVGID_00000094587248190996826540000011909325889167178654_" x="51.5" y="74.4" width="155.9" height="206.9"/>
							</defs>
							<clipPath id="SVGID_00000047761409209330657430000012889352081944040118_">
								<use xlink:href="#SVGID_00000094587248190996826540000011909325889167178654_"  style="overflow:visible;"/>
							</clipPath>
							<g id="Group_5142" style="clip-path:url(#SVGID_00000047761409209330657430000012889352081944040118_);">
								<g id="Group_5117" transform="translate(38.013 90.819)">
									<g id="Group_5116">
										<g>
											<defs>
												<rect id="SVGID_00000183250915704645751040000000415379086110658748_" x="67.4" y="112.5" width="102" height="32.6"/>
											</defs>
											<clipPath id="SVGID_00000161628159056117628850000007987369518609921409_">
												<use xlink:href="#SVGID_00000183250915704645751040000000415379086110658748_"  style="overflow:visible;"/>
											</clipPath>
											<g id="Group_5115" style="clip-path:url(#SVGID_00000161628159056117628850000007987369518609921409_);">
												<rect id="Rectangle_780" x="67.4" y="112.5" class="st9" width="102" height="32.6"/>
											</g>
										</g>
									</g>
								</g>
								<g id="Group_5120" transform="translate(43.63 21.827)">
									<g id="Group_5119">
										<g>
											<defs>
												<rect id="SVGID_00000026128579525075286390000011726345003989546883_" x="69.8" y="83.6" width="86" height="88.7"/>
											</defs>
											<clipPath id="SVGID_00000030482919378794378670000013941892479031212469_">
												<use xlink:href="#SVGID_00000026128579525075286390000011726345003989546883_"  style="overflow:visible;"/>
											</clipPath>
											<g id="Group_5118" style="clip-path:url(#SVGID_00000030482919378794378670000013941892479031212469_);">
												<path id="Path_4798" class="st11" d="M76.1,172.3h73.5c3.3,0.2,6.1-2.4,6.3-5.7V89.3c-0.2-3.3-3-5.8-6.3-5.7H76.1
													c-3.3-0.2-6.1,2.4-6.3,5.7v77.4C70,169.9,72.8,172.5,76.1,172.3"/>
											</g>
										</g>
									</g>
								</g>
								<g id="Group_5123" transform="translate(49.681 32.598)" class="st12">
									<g id="Group_5122">
										<g>
											<defs>
												<rect id="SVGID_00000072976581356736468200000003994978255590386860_" x="72.3" y="88.1" width="72" height="66"/>
											</defs>
											<clipPath id="SVGID_00000088840940424781000180000018284988522127577995_">
												<use xlink:href="#SVGID_00000072976581356736468200000003994978255590386860_"  style="overflow:visible;"/>
											</clipPath>
											<g id="Group_5121" style="clip-path:url(#SVGID_00000088840940424781000180000018284988522127577995_);">
												<path id="Path_4799" class="st14" d="M78.6,154.1H138c3.3,0.2,6.1-2.4,6.3-5.7V93.8c-0.2-3.3-3-5.8-6.3-5.7H78.6
													c-3.3-0.2-6.1,2.4-6.3,5.7v54.6C72.5,151.7,75.3,154.2,78.6,154.1"/>
											</g>
										</g>
									</g>
								</g>
								<line id="Line_75" class="st5" x1="107.9" y1="96.1" x2="51.5" y2="96.1"/>
								<line id="Line_76" class="st15" x1="207.4" y1="96.1" x2="105.5" y2="96.1"/>
								<g id="Group_5126" transform="translate(43.955 3.878)">
									<g id="Group_5125">
										<g>
											<defs>
												<rect id="SVGID_00000137828090352431092990000007762241282193062282_" x="69.9" y="76.1" width="87.4" height="10.1"/>
											</defs>
											<clipPath id="SVGID_00000075844099995390772730000011320507938823993266_">
												<use xlink:href="#SVGID_00000137828090352431092990000007762241282193062282_"  style="overflow:visible;"/>
											</clipPath>
											<g id="Group_5124" style="clip-path:url(#SVGID_00000075844099995390772730000011320507938823993266_);">
												<path id="Path_4800" class="st9" d="M155.8,86.1H71.5c-0.8,0-1.5-0.6-1.6-1.4v-7.2c0-0.8,0.7-1.5,1.6-1.4h84.3
													c0.8,0,1.5,0.6,1.6,1.4v7.2C157.3,85.5,156.6,86.2,155.8,86.1"/>
											</g>
										</g>
									</g>
								</g>
								<g id="Group_5129" transform="translate(59.969 4.967)" class="st17">
									<g id="Group_5128">
										<g>
											<defs>
												<rect id="SVGID_00000057140731730916402100000013430302966034048130_" x="76.7" y="76.5" width="15.6" height="6.9"/>
											</defs>
											<clipPath id="SVGID_00000072977836501571528990000014605143537757439925_">
												<use xlink:href="#SVGID_00000057140731730916402100000013430302966034048130_"  style="overflow:visible;"/>
											</clipPath>
											<g id="Group_5127" style="clip-path:url(#SVGID_00000072977836501571528990000014605143537757439925_);">
												<rect id="Rectangle_785" x="76.7" y="76.5" class="st14" width="15.6" height="6.9"/>
											</g>
										</g>
									</g>
								</g>
								<g id="Group_5132" transform="translate(73.431 4.918)" class="st17">
									<g id="Group_5131">
										<g>
											<defs>
												<rect id="SVGID_00000134208545520221797280000002468409254797089180_" x="82.3" y="76.5" width="40.3" height="6.9"/>
											</defs>
											<clipPath id="SVGID_00000102540863506585555800000012888189227178607262_">
												<use xlink:href="#SVGID_00000134208545520221797280000002468409254797089180_"  style="overflow:visible;"/>
											</clipPath>
											<g id="Group_5130" style="clip-path:url(#SVGID_00000102540863506585555800000012888189227178607262_);">
												<path id="Path_4801" class="st14" d="M121.1,83.4H83.9c-0.8,0-1.5-0.6-1.6-1.4v-4.1c0-0.8,0.7-1.5,1.6-1.4h37.2
													c0.8,0,1.5,0.6,1.6,1.4V82C122.6,82.8,121.9,83.5,121.1,83.4"/>
											</g>
										</g>
									</g>
								</g>
								<g id="Group_5135" transform="translate(46.925 4.967)" class="st17">
									<g id="Group_5134">
										<g>
											<defs>
												<rect id="SVGID_00000152250902761643614980000001972745977821290400_" x="71.2" y="76.5" width="15.6" height="6.9"/>
											</defs>
											<clipPath id="SVGID_00000112608323640816014380000015029589309363015825_">
												<use xlink:href="#SVGID_00000152250902761643614980000001972745977821290400_"  style="overflow:visible;"/>
											</clipPath>
											<g id="Group_5133" style="clip-path:url(#SVGID_00000112608323640816014380000015029589309363015825_);">
												<path id="Path_4802" class="st14" d="M85.2,82H72.7v-4h12.5V82z M85.2,76.5H72.7c-0.8,0-1.5,0.6-1.6,1.4v4
													c0,0.8,0.7,1.5,1.6,1.4h12.5c0.8,0,1.5-0.6,1.6-1.4v-4C86.7,77.1,86.1,76.5,85.2,76.5"/>
											</g>
										</g>
									</g>
								</g>
								<g id="Group_5138" transform="translate(76.029 6.26)">
									<g id="Group_5137">
										<g>
											<defs>
												<rect id="SVGID_00000023250741156227176990000006827940860797056900_" x="83.4" y="77.1" width="15.6" height="3.7"/>
											</defs>
											<clipPath id="SVGID_00000163065540023608882040000017596621388833934472_">
												<use xlink:href="#SVGID_00000023250741156227176990000006827940860797056900_"  style="overflow:visible;"/>
											</clipPath>
											<g id="Group_5136" style="clip-path:url(#SVGID_00000163065540023608882040000017596621388833934472_);">
												<rect id="Rectangle_789" x="83.4" y="77.1" class="st22" width="15.6" height="3.7"/>
											</g>
										</g>
									</g>
								</g>
								<g id="Group_5147" transform="translate(69.68 24.326)">
									<g id="Group_5141" transform="translate(0.928 0)">
										<g id="Group_5140">
											<g>
												<defs>
													<rect id="SVGID_00000033361518224857668900000005213130830401486768_" x="81.1" y="84.6" width="9.3" height="8.5"/>
												</defs>
												<clipPath id="SVGID_00000112626206462969812700000013411024941571857567_">
													<use xlink:href="#SVGID_00000033361518224857668900000005213130830401486768_"  style="overflow:visible;"/>
												</clipPath>
												<g id="Group_5139" style="clip-path:url(#SVGID_00000112626206462969812700000013411024941571857567_);">
													<path id="Path_4803" class="st24" d="M89.5,87c1.3,1.5,1.1,3.9-0.5,5.1c-0.1,0.1-0.3,0.2-0.4,0.3c-1.9,1.3-4.5,1-6-0.8
														c-3-3.7-1-4.2,0.9-5.4C85.4,84.9,86.4,83.1,89.5,87"/>
												</g>
											</g>
										</g>
									</g>
									<path id="Path_4804" class="st25" d="M80.7,88.9c0,0,1.8-3.7,8.4-3.7h15"/>
								</g>
							</g>
						</g>
					</g>
				</g>
			</g>
		</g>
	</g>
</g>
</svg>
