<svg xmlns="http://www.w3.org/2000/svg" xmlns:xlink="http://www.w3.org/1999/xlink" width="268.2" height="268.2" viewBox="0 0 268.2 268.2">
  <defs>
    <clipPath id="clip-path">
      <path id="Path_6912" data-name="Path 6912" d="M166.361,0a134.1,134.1,0,1,1-134.1,134.1A134.1,134.1,0,0,1,166.361,0" transform="translate(217.74 183)" fill="#e0ded9"/>
    </clipPath>
    <clipPath id="clip-path-2">
      <rect id="Rectangle_1651" data-name="Rectangle 1651" width="300.461" height="287.663" fill="none"/>
    </clipPath>
    <clipPath id="clip-path-3">
      <path id="Path_6432" data-name="Path 6432" d="M32.261,134.1A134.1,134.1,0,1,0,166.361,0a134.1,134.1,0,0,0-134.1,134.1" fill="none"/>
    </clipPath>
    <clipPath id="clip-path-4">
      <path id="Path_6433" data-name="Path 6433" d="M100.834,17.073a134.118,134.118,0,1,0,182.418,182.8V68.329a134.726,134.726,0,0,0-51.363-51.256Z" fill="none"/>
    </clipPath>
    <clipPath id="clip-path-5">
      <path id="Path_6434" data-name="Path 6434" d="M100.834,17.073A134.144,134.144,0,0,0,203.967,262.856V17.073Z" fill="none"/>
    </clipPath>
    <clipPath id="clip-path-7">
      <path id="Path_6436" data-name="Path 6436" d="M100.834,17.073a134.118,134.118,0,1,0,182.418,182.8V68.328a134.731,134.731,0,0,0-51.363-51.255Z" fill="none"/>
    </clipPath>
    <clipPath id="clip-path-9">
      <path id="Path_6439" data-name="Path 6439" d="M89.395,24.273q-3.993,2.8-7.769,5.886v7.293h114.31V24.273Z" fill="none"/>
    </clipPath>
    <clipPath id="clip-path-11">
      <rect id="Rectangle_1635" data-name="Rectangle 1635" width="20.422" height="8.99" transform="translate(111.361 26.296)" fill="none"/>
    </clipPath>
    <clipPath id="clip-path-12">
      <rect id="Rectangle_1634" data-name="Rectangle 1634" width="20.421" height="8.991" transform="translate(111.361 26.296)" fill="none"/>
    </clipPath>
    <clipPath id="clip-path-13">
      <rect id="Rectangle_1637" data-name="Rectangle 1637" width="52.767" height="9.089" transform="translate(136.36 26.203)" fill="none"/>
    </clipPath>
    <clipPath id="clip-path-14">
      <rect id="Rectangle_1636" data-name="Rectangle 1636" width="52.766" height="9.083" transform="translate(136.361 26.205)" fill="none"/>
    </clipPath>
    <clipPath id="clip-path-15">
      <rect id="Rectangle_1639" data-name="Rectangle 1639" width="20.421" height="8.997" transform="translate(87.139 26.293)" fill="none"/>
    </clipPath>
    <clipPath id="clip-path-16">
      <rect id="Rectangle_1638" data-name="Rectangle 1638" width="20.421" height="8.99" transform="translate(87.139 26.296)" fill="none"/>
    </clipPath>
    <clipPath id="clip-path-18">
      <rect id="Rectangle_1642" data-name="Rectangle 1642" width="19.618" height="7.871" transform="translate(207.895 180.699)" fill="none"/>
    </clipPath>
  </defs>
  <g id="Mask_Group_26" data-name="Mask Group 26" transform="translate(-250.001 -183)" clip-path="url(#clip-path)">
    <g id="Group_6624" data-name="Group 6624" transform="translate(217.74 183)">
      <g id="Group_6623" data-name="Group 6623" clip-path="url(#clip-path-2)">
        <g id="Group_6583" data-name="Group 6583">
          <g id="Group_6582" data-name="Group 6582" clip-path="url(#clip-path-3)">
            <path id="Path_6430" data-name="Path 6430" d="M166.361,0a134.1,134.1,0,1,1-134.1,134.1A134.1,134.1,0,0,1,166.361,0" fill="#e0ded9"/>
            <path id="Path_6431" data-name="Path 6431" d="M166.361,0a134.1,134.1,0,1,1-134.1,134.1A134.1,134.1,0,0,1,166.361,0" fill="#e0ded9"/>
          </g>
        </g>
        <g id="Group_6585" data-name="Group 6585">
          <g id="Group_6584" data-name="Group 6584" clip-path="url(#clip-path-4)">
            <rect id="Rectangle_1628" data-name="Rectangle 1628" width="72.348" height="59.658" transform="translate(0 228.005)" fill="#e7e7e7"/>
            <rect id="Rectangle_1629" data-name="Rectangle 1629" width="72.348" height="211.284" transform="translate(0 17.072)" fill="#e7e7e7"/>
          </g>
        </g>
        <g id="Group_6587" data-name="Group 6587">
          <g id="Group_6586" data-name="Group 6586" clip-path="url(#clip-path-5)">
            <line id="Line_221" data-name="Line 221" x1="73.727" transform="translate(0 228.343)" fill="none" stroke="#c0c2bd" stroke-miterlimit="10" stroke-width="1"/>
          </g>
        </g>
        <g id="Group_6589" data-name="Group 6589">
          <g id="Group_6588" data-name="Group 6588" clip-path="url(#clip-path-4)">
            <rect id="Rectangle_1630" data-name="Rectangle 1630" width="133.378" height="59.658" transform="translate(70.589 228.005)" fill="#c3d1d4"/>
            <rect id="Rectangle_1631" data-name="Rectangle 1631" width="133.378" height="168.023" transform="translate(70.589 17.072)" fill="#c3d1d4"/>
            <rect id="Rectangle_1632" data-name="Rectangle 1632" width="133.378" height="42.633" transform="translate(70.589 185.723)" fill="#3175ae"/>
          </g>
        </g>
        <g id="Group_6591" data-name="Group 6591">
          <g id="Group_6590" data-name="Group 6590" clip-path="url(#clip-path-7)">
            <line id="Line_222" data-name="Line 222" x1="73.727" transform="translate(0 45.48)" fill="none" stroke="#c0c2bd" stroke-miterlimit="10" stroke-width="1"/>
          </g>
        </g>
        <g id="Group_6593" data-name="Group 6593">
          <g id="Group_6592" data-name="Group 6592" clip-path="url(#clip-path-4)">
            <line id="Line_223" data-name="Line 223" x1="133.262" transform="translate(70.636 45.48)" fill="none" stroke="#9f9f9f" stroke-miterlimit="10" stroke-width="1"/>
          </g>
        </g>
        <g id="Group_6595" data-name="Group 6595">
          <g id="Group_6594" data-name="Group 6594" clip-path="url(#clip-path-9)">
            <path id="Path_6438" data-name="Path 6438" d="M193.891,37.452H83.672a1.958,1.958,0,0,1-2.05-1.857V26.13a1.959,1.959,0,0,1,2.045-1.857H193.888a1.959,1.959,0,0,1,2.045,1.857v9.464a1.959,1.959,0,0,1-2.045,1.857" fill="#3175ae"/>
          </g>
        </g>
        <g id="Group_6612" data-name="Group 6612">
          <g id="Group_6611" data-name="Group 6611" clip-path="url(#clip-path-7)">
            <g id="Group_6600" data-name="Group 6600" opacity="0.78">
              <g id="Group_6599" data-name="Group 6599">
                <g id="Group_6598" data-name="Group 6598" clip-path="url(#clip-path-11)">
                  <g id="Group_6597" data-name="Group 6597">
                    <g id="Group_6596" data-name="Group 6596" clip-path="url(#clip-path-12)">
                      <rect id="Rectangle_1633" data-name="Rectangle 1633" width="20.421" height="8.991" transform="translate(111.361 26.296)" fill="#fff"/>
                    </g>
                  </g>
                </g>
              </g>
            </g>
            <g id="Group_6605" data-name="Group 6605" opacity="0.78">
              <g id="Group_6604" data-name="Group 6604">
                <g id="Group_6603" data-name="Group 6603" clip-path="url(#clip-path-13)">
                  <g id="Group_6602" data-name="Group 6602">
                    <g id="Group_6601" data-name="Group 6601" clip-path="url(#clip-path-14)">
                      <path id="Path_6440" data-name="Path 6440" d="M187.081,35.287H138.406a1.96,1.96,0,0,1-2.046-1.857V28.065a1.96,1.96,0,0,1,2.046-1.857H187.08a1.959,1.959,0,0,1,2.047,1.857v5.368a1.961,1.961,0,0,1-2.046,1.857" fill="#fff"/>
                    </g>
                  </g>
                </g>
              </g>
            </g>
            <g id="Group_6610" data-name="Group 6610" opacity="0.78">
              <g id="Group_6609" data-name="Group 6609">
                <g id="Group_6608" data-name="Group 6608" clip-path="url(#clip-path-15)">
                  <g id="Group_6607" data-name="Group 6607">
                    <g id="Group_6606" data-name="Group 6606" clip-path="url(#clip-path-16)">
                      <path id="Path_6441" data-name="Path 6441" d="M105.514,33.429H89.185V28.153h16.329Zm0-7.134H89.185a1.959,1.959,0,0,0-2.045,1.858V33.43a1.959,1.959,0,0,0,2.046,1.857h16.328a1.961,1.961,0,0,0,2.046-1.857V28.153a1.961,1.961,0,0,0-2.046-1.857" fill="#fff"/>
                    </g>
                  </g>
                </g>
              </g>
            </g>
          </g>
        </g>
        <g id="Group_6614" data-name="Group 6614">
          <g id="Group_6613" data-name="Group 6613" clip-path="url(#clip-path-4)">
            <rect id="Rectangle_1640" data-name="Rectangle 1640" width="20.423" height="4.844" transform="translate(141.186 28.7)" fill="#819c35"/>
            <rect id="Rectangle_1641" data-name="Rectangle 1641" width="115.416" height="125.331" transform="translate(79.4 51.506)" fill="#9ba4a5"/>
          </g>
        </g>
        <g id="Group_6616" data-name="Group 6616">
          <g id="Group_6615" data-name="Group 6615" clip-path="url(#clip-path-18)">
            <path id="Path_6444" data-name="Path 6444" d="M225.7,182.838c2.742,1.426,2.311,3.551-.962,4.746-.271.1-.555.189-.854.27-4.041,1.188-9.472.88-12.688-.718-6.442-3.4-2.179-3.831,1.818-5.018s6.023-2.8,12.688.719" fill="#255e84"/>
          </g>
        </g>
        <g id="Group_6618" data-name="Group 6618">
          <g id="Group_6617" data-name="Group 6617" clip-path="url(#clip-path-4)">
            <rect id="Rectangle_1643" data-name="Rectangle 1643" width="133.378" height="10.146" transform="translate(70.589 174.949)" fill="#bdc7c9"/>
            <rect id="Rectangle_1644" data-name="Rectangle 1644" width="133.378" height="10.146" transform="translate(149.873 174.949)" fill="#e7e7e7"/>
            <rect id="Rectangle_1645" data-name="Rectangle 1645" width="114.896" height="4.82" transform="translate(79.642 70.688)" fill="#e7e7e7"/>
          </g>
        </g>
        <g id="Group_6620" data-name="Group 6620">
          <g id="Group_6619" data-name="Group 6619" clip-path="url(#clip-path-7)">
            <path id="Path_6446" data-name="Path 6446" d="M148.551,142.826h97.076a7.386,7.386,0,0,1,7.116,5.4l7.662,27.423" fill="none" stroke="#e7e7e7" stroke-miterlimit="10" stroke-width="1"/>
            <path id="Path_6447" data-name="Path 6447" d="M98.6,175.175H91.144V133.286a3.726,3.726,0,1,1,7.451,0Z" fill="#c3d1d4"/>
            <path id="Path_6448" data-name="Path 6448" d="M112.7,175.175h-7.451V133.286a3.726,3.726,0,1,1,7.451,0Z" fill="#c3d1d4"/>
            <path id="Path_6449" data-name="Path 6449" d="M123.344,175.175h-7.451V133.286a3.726,3.726,0,1,1,7.451,0Z" fill="#c3d1d4"/>
            <path id="Path_6450" data-name="Path 6450" d="M78.915,142.826H151.5a7.386,7.386,0,0,1,7.116,5.4l7.662,27.423" fill="none" stroke="#e7e7e7" stroke-miterlimit="10" stroke-width="1"/>
            <line id="Line_224" data-name="Line 224" x2="174.733" transform="translate(79.658 155.117)" fill="none" stroke="#e7e7e7" stroke-miterlimit="10" stroke-width="1"/>
            <line id="Line_225" data-name="Line 225" x2="177.181" transform="translate(79.658 161.874)" fill="none" stroke="#e7e7e7" stroke-miterlimit="10" stroke-width="1"/>
            <path id="Path_6451" data-name="Path 6451" d="M79.243,65.22H179.375c4.236,0,6.73.382,7.87.935l3.673,4.749" fill="none" stroke="#e7e7e7" stroke-miterlimit="10" stroke-width="1"/>
          </g>
        </g>
        <g id="Group_6622" data-name="Group 6622">
          <g id="Group_6621" data-name="Group 6621" clip-path="url(#clip-path-2)">
            <path id="Path_6453" data-name="Path 6453" d="M112.7,175.367V86.759a3.458,3.458,0,1,1,6.916,0v88.608" fill="none" stroke="#e7e7e7" stroke-miterlimit="10" stroke-width="1"/>
            <path id="Path_6454" data-name="Path 6454" d="M214.822,175.367V86.759a3.458,3.458,0,1,1,6.916,0v88.608" fill="none" stroke="#e7e7e7" stroke-miterlimit="10" stroke-width="1"/>
            <line id="Line_226" data-name="Line 226" x2="108.12" transform="translate(113.161 97.343)" fill="none" stroke="#e7e7e7" stroke-miterlimit="10" stroke-width="1"/>
            <path id="Path_6455" data-name="Path 6455" d="M185.911,143.945s6.743-50.038-10.291-50.038-13.131,45.779-13.131,45.779" fill="none" stroke="#c3d1d4" stroke-miterlimit="10" stroke-width="3"/>
            <rect id="Rectangle_1646" data-name="Rectangle 1646" width="7.978" height="5.246" transform="matrix(0.161, -0.987, 0.987, 0.161, 182.615, 147.459)" fill="#e7e7e7"/>
            <rect id="Rectangle_1647" data-name="Rectangle 1647" width="5.246" height="7.978" transform="translate(159.742 139.132) rotate(-4.57)" fill="#e7e7e7"/>
            <path id="Path_6456" data-name="Path 6456" d="M132.391,143.945s-6.744-50.038,10.291-50.038,13.131,45.779,13.131,45.779" fill="none" stroke="#c3d1d4" stroke-miterlimit="10" stroke-width="3"/>
            <rect id="Rectangle_1648" data-name="Rectangle 1648" width="5.246" height="7.978" transform="matrix(0.987, -0.161, 0.161, 0.987, 129.223, 140.431)" fill="#e7e7e7"/>
            <rect id="Rectangle_1649" data-name="Rectangle 1649" width="7.978" height="5.246" transform="matrix(0.08, -0.997, 0.997, 0.08, 152.694, 146.667)" fill="#e7e7e7"/>
            <line id="Line_227" data-name="Line 227" x2="10.114" transform="translate(163.406 97.343)" fill="none" stroke="#e7e7e7" stroke-miterlimit="10" stroke-width="1"/>
            <line id="Line_228" data-name="Line 228" x2="11.904" transform="translate(130.778 97.343)" fill="none" stroke="#e7e7e7" stroke-miterlimit="10" stroke-width="1"/>
          </g>
        </g>
      </g>
    </g>
  </g>
</svg>
