<svg id="Group_6382" data-name="Group 6382" xmlns="http://www.w3.org/2000/svg" xmlns:xlink="http://www.w3.org/1999/xlink" width="268.2" height="268.201" viewBox="0 0 268.2 268.201">
  <defs>
    <clipPath id="clip-path">
      <rect id="Rectangle_1557" data-name="Rectangle 1557" width="268.2" height="268.201" fill="none"/>
    </clipPath>
    <clipPath id="clip-path-3">
      <path id="Path_5921" data-name="Path 5921" d="M89.837,26.064V260.723a134.292,134.292,0,0,0,137.855-30.585V38.062a134.914,134.914,0,0,0-14.135-12Z" fill="none"/>
    </clipPath>
    <clipPath id="clip-path-5">
      <rect id="Rectangle_1547" data-name="Rectangle 1547" width="89.895" height="10.295" transform="translate(113.817 181.151)" fill="none"/>
    </clipPath>
    <clipPath id="clip-path-6">
      <rect id="Rectangle_1546" data-name="Rectangle 1546" width="89.896" height="10.295" transform="translate(113.817 181.151)" fill="none"/>
    </clipPath>
    <clipPath id="clip-path-9">
      <rect id="Rectangle_1549" data-name="Rectangle 1549" width="136.28" height="11.177" transform="translate(90.625 26.064)" fill="none"/>
    </clipPath>
    <clipPath id="clip-path-11">
      <path id="Path_5941" data-name="Path 5941" d="M125.133,128.423l-12.265,33.609a5.516,5.516,0,0,0,5.179,7.4h81.436a5.513,5.513,0,0,0,5.179-7.4l-12.265-33.6a5.516,5.516,0,0,0-5.18-3.626l-56.9,0a5.512,5.512,0,0,0-5.179,3.625" fill="none"/>
    </clipPath>
    <clipPath id="clip-path-13">
      <path id="Path_5954" data-name="Path 5954" d="M10.4,116.494a46.34,46.34,0,1,0,46.34-46.34,46.339,46.339,0,0,0-46.34,46.34" fill="none"/>
    </clipPath>
  </defs>
  <g id="Group_6381" data-name="Group 6381" clip-path="url(#clip-path)">
    <g id="Group_6356" data-name="Group 6356">
      <g id="Group_6355" data-name="Group 6355" clip-path="url(#clip-path)">
        <path id="Path_5918" data-name="Path 5918" d="M134.1,0A134.1,134.1,0,1,1,0,134.1,134.1,134.1,0,0,1,134.1,0" fill="#e0ded9"/>
      </g>
    </g>
    <g id="Group_6358" data-name="Group 6358">
      <g id="Group_6357" data-name="Group 6357" clip-path="url(#clip-path-3)">
        <path id="Path_5919" data-name="Path 5919" d="M92.632,194.192,100.5,268.2H217.022l7.876-74.009Z" fill="#bfc1bc"/>
        <path id="Path_5920" data-name="Path 5920" d="M90.625,178.4l-.788,15.787H227.693L226.9,178.4Z" fill="#4374a8"/>
        <line id="Line_174" data-name="Line 174" x1="127.548" transform="translate(94.991 205.834)" fill="none" stroke="#9e9e9e" stroke-miterlimit="10" stroke-width="1"/>
      </g>
    </g>
    <g id="Group_6365" data-name="Group 6365">
      <g id="Group_6364" data-name="Group 6364" clip-path="url(#clip-path-3)">
        <g id="Group_6363" data-name="Group 6363" opacity="0.78">
          <g id="Group_6362" data-name="Group 6362">
            <g id="Group_6361" data-name="Group 6361" clip-path="url(#clip-path-5)">
              <g id="Group_6360" data-name="Group 6360">
                <g id="Group_6359" data-name="Group 6359" clip-path="url(#clip-path-6)">
                  <path id="Path_5922" data-name="Path 5922" d="M203.711,191.445H113.816l.514-10.3H203.2Z" fill="#fff"/>
                </g>
              </g>
            </g>
          </g>
        </g>
      </g>
    </g>
    <g id="Group_6367" data-name="Group 6367">
      <g id="Group_6366" data-name="Group 6366" clip-path="url(#clip-path-3)">
        <path id="Path_5924" data-name="Path 5924" d="M160.566,189.21H133.335l.286-5.824h26.654Z" fill="#859945"/>
        <path id="Path_5925" data-name="Path 5925" d="M204.065,115.825h-90.6l-22.84,62.58H226.9Z" fill="#a9aba9"/>
        <path id="Path_5926" data-name="Path 5926" d="M204.065,115.824h-90.6L90.625,37.241H226.9Z" fill="#4374a8"/>
      </g>
    </g>
    <g id="Group_6374" data-name="Group 6374">
      <g id="Group_6373" data-name="Group 6373" clip-path="url(#clip-path-3)">
        <path id="Path_5928" data-name="Path 5928" d="M187.216,124.8h-56.9a5.513,5.513,0,0,0-5.18,3.625l-12.265,33.61a5.515,5.515,0,0,0,5.179,7.4h81.436a5.514,5.514,0,0,0,5.18-7.4L192.4,128.425a5.512,5.512,0,0,0-5.179-3.624" fill="#909090"/>
        <path id="Path_5929" data-name="Path 5929" d="M178.879,147.287H137.034a4.2,4.2,0,0,0-3.738,1.788l-6.523,16.589c-.948,1.775.974,3.654,3.738,3.654H186.96c2.766,0,4.685-1.879,3.738-3.654l-8.076-16.589a4.205,4.205,0,0,0-3.738-1.788" fill="#9a9a99"/>
        <path id="Path_5930" data-name="Path 5930" d="M186.3,125.516H131.229a5.336,5.336,0,0,0-5.012,3.506l-11.872,32.526a5.335,5.335,0,0,0,5.014,7.165h78.814a5.337,5.337,0,0,0,5.013-7.165l-11.872-32.526A5.336,5.336,0,0,0,186.3,125.516Z" fill="none" stroke="#d0d0d0" stroke-miterlimit="10" stroke-width="1"/>
        <path id="Path_5931" data-name="Path 5931" d="M130.312,107.956h56.9c2.316,0,4.388-1.953,5.179-4.889l12.263-45.355c1.313-4.855-1.351-9.991-5.179-9.991h-81.43c-3.828,0-6.49,5.136-5.179,9.991l12.266,45.355c.793,2.936,2.861,4.889,5.179,4.889" fill="#bfc1bc"/>
        <path id="Path_5932" data-name="Path 5932" d="M131.229,106.987H186.3c2.241,0,4.243-1.891,5.012-4.732l11.872-43.9c1.27-4.7-1.308-9.669-5.014-9.669H119.358c-3.705,0-6.283,4.973-5.013,9.669l11.872,43.9C126.988,105.1,128.991,106.987,131.229,106.987Z" fill="none" stroke="#aeaeae" stroke-miterlimit="10" stroke-width="1"/>
        <path id="Path_5933" data-name="Path 5933" d="M187.944,26.064h-58.36a69.616,69.616,0,0,0-30.6,7.086l-8.36,4.091H226.9l-8.362-4.091a69.613,69.613,0,0,0-30.6-7.086" fill="#e6e6e6"/>
        <g id="Group_6372" data-name="Group 6372" opacity="0.35">
          <g id="Group_6371" data-name="Group 6371">
            <g id="Group_6370" data-name="Group 6370" clip-path="url(#clip-path-9)">
              <g id="Group_6369" data-name="Group 6369">
                <g id="Group_6368" data-name="Group 6368" clip-path="url(#clip-path-9)">
                  <path id="Path_5934" data-name="Path 5934" d="M187.944,26.064h-58.36a69.616,69.616,0,0,0-30.6,7.086l-8.36,4.091H226.9l-8.362-4.091a69.613,69.613,0,0,0-30.6-7.086" fill="#4374a8"/>
                </g>
              </g>
            </g>
          </g>
        </g>
        <path id="Path_5935" data-name="Path 5935" d="M124.913,66.942c0-21.044,67.7-21.043,67.7,0s-15.157,38.1-33.852,38.1-33.851-17.058-33.85-38.1" fill="#b5b6b2"/>
      </g>
    </g>
    <g id="Group_6376" data-name="Group 6376">
      <g id="Group_6375" data-name="Group 6375" clip-path="url(#clip-path-11)">
        <path id="Path_5937" data-name="Path 5937" d="M143.516,167.5l11.2-36.246-17.264,2.08A4.094,4.094,0,0,0,134.5,136.4L129.1,153.858c-.554,1.792-.179,3.6.9,4.341Z" fill="#d5d5d5"/>
        <rect id="Rectangle_1550" data-name="Rectangle 1550" width="41.475" height="1.369" transform="translate(142.858 169.636) rotate(-72.832)" fill="#b6b6b6"/>
        <path id="Path_5938" data-name="Path 5938" d="M133.78,181.87l12.058-39.032-18.6,2.24c-1.335.164-2.623,1.5-3.179,3.3l-5.806,18.79c-.6,1.929-.191,3.876.965,4.674Z" fill="#c8c8c8"/>
        <rect id="Rectangle_1551" data-name="Rectangle 1551" width="44.665" height="1.475" transform="translate(133.071 184.165) rotate(-72.832)" fill="#b6b6b6"/>
        <path id="Path_5939" data-name="Path 5939" d="M174.194,167.5,163,131.258l17.264,2.08a4.094,4.094,0,0,1,2.953,3.065l5.392,17.455c.553,1.792.178,3.6-.9,4.341Z" fill="#d5d5d5"/>
        <rect id="Rectangle_1552" data-name="Rectangle 1552" width="1.369" height="41.475" transform="translate(161.303 130.412) rotate(-17.164)" fill="#b6b6b6"/>
        <path id="Path_5940" data-name="Path 5940" d="M183.928,181.87,171.87,142.838l18.6,2.24c1.335.164,2.623,1.5,3.179,3.3l5.806,18.79c.6,1.929.191,3.876-.965,4.674Z" fill="#c8c8c8"/>
        <rect id="Rectangle_1553" data-name="Rectangle 1553" width="1.474" height="44.644" transform="translate(170.046 141.925) rotate(-17.169)" fill="#b6b6b6"/>
      </g>
    </g>
    <g id="Group_6378" data-name="Group 6378">
      <g id="Group_6377" data-name="Group 6377" clip-path="url(#clip-path)">
        <path id="Path_5942" data-name="Path 5942" d="M56.739,70.154a46.341,46.341,0,1,1-46.34,46.34,46.34,46.34,0,0,1,46.34-46.34" fill="#f2f2f2"/>
      </g>
    </g>
    <g id="Group_6380" data-name="Group 6380">
      <g id="Group_6379" data-name="Group 6379" clip-path="url(#clip-path-13)">
        <rect id="Rectangle_1555" data-name="Rectangle 1555" width="1.787" height="9.452" transform="translate(36.995 84.797)" fill="#ebc9ce"/>
        <rect id="Rectangle_1556" data-name="Rectangle 1556" width="2.414" height="9.452" transform="translate(38.782 84.797)" fill="#fff"/>
        <path id="Path_5943" data-name="Path 5943" d="M33.689,88.718a.459.459,0,0,0-.459.458V95.51a.459.459,0,0,0,.459.458h1.245v-7.25Z" fill="#ebc9ce"/>
        <path id="Path_5944" data-name="Path 5944" d="M44.5,88.718H34.934v7.251H44.5a.459.459,0,0,0,.459-.458V89.176a.459.459,0,0,0-.459-.458" fill="#fff"/>
        <path id="Path_5945" data-name="Path 5945" d="M56.6,116.374a17.5,17.5,0,0,0-17.59-17.415h0a17.5,17.5,0,0,0-17.415,17.415v48.291a2.086,2.086,0,0,0,2.086,2.086H54.511a2.086,2.086,0,0,0,2.086-2.086Z" fill="#fff"/>
        <path id="Path_5946" data-name="Path 5946" d="M32.934,91.353H45.253A1.307,1.307,0,0,1,46.56,92.66v6.615a1.305,1.305,0,0,1-1.306,1.307H32.934a1.307,1.307,0,0,1-1.307-1.307V92.66a1.307,1.307,0,0,1,1.307-1.307" fill="#cd352f"/>
        <path id="Path_5947" data-name="Path 5947" d="M60.514,82.531a16.573,16.573,0,0,0-3.181-2.5c-5.088-2.567-14.919-.416-16.722-.382a36.52,36.52,0,0,1-5.684-.8s-1.559-.069-1.559.9a.809.809,0,0,0,.706.9h0a.855.855,0,0,0,.16,0,1.393,1.393,0,0,1,1.318,1.352,1.988,1.988,0,0,0,1.527,1.63v1.313h4.544V83.665a9.722,9.722,0,0,1,8.388-3.739c5.211.382,5.218.168,9.592,3.411a1.66,1.66,0,0,0,.91-.806" fill="#cd352f"/>
        <path id="Path_5948" data-name="Path 5948" d="M92.666,88.028a35.745,35.745,0,0,0-6.364-.583,21.81,21.81,0,0,0-5.1,1c-2.787.892-4.208,1.8-7.246,2.068s-4.629.323-6.265.88-3.52.857-3.359,2.618a3.061,3.061,0,0,0,3.192,2.842,23.048,23.048,0,0,0,5.581-.812c.914-.293,2.475-.456,2.8-.057S76.7,97.1,76.7,97.1s4.717-2.047,5.592-2.461A63.361,63.361,0,0,0,89.157,90.5c1.387-1.116,3.509-2.468,3.509-2.468" fill="#d19e81"/>
        <path id="Path_5949" data-name="Path 5949" d="M114.8,98.243l-18.032.935s-9.982,5.947-14.539,8.076-6.922,3.557-9.308,3.65c0,0-9.787-1-12.179-3.019-2.453-2.068-6.632-6.876-7.221-8.3s-2.371-6.359-2.371-6.359-.34-.747,1.2-1.165c0,0,.435-1.171,2.12-.838s2.667,1.1,3.25,4.7l.95-4.064a2.144,2.144,0,0,1,2.115-.206c1.269.5,1.432,2.06,1.443,2.829A13.076,13.076,0,0,1,61.8,96.9a16.041,16.041,0,0,1,3.884,3.324,9.669,9.669,0,0,1,4.8-.225,8.022,8.022,0,0,1,5.2-2.435A46.514,46.514,0,0,1,81.684,94c2.134-.884,3.859-3.048,6.769-4.449s6.32-2.492,8.6-1.879,17.689-4.317,17.689-4.317Z" fill="#e5af90"/>
        <path id="Path_5950" data-name="Path 5950" d="M58.537,92.11c.075-.362.362-.578.637-.329l.009.009c.236.224-.18,1.985-.377,2.756a.642.642,0,0,1-.122.216.5.5,0,0,1-.675.209.377.377,0,0,1-.054-.034Z" fill="#d9bdb0"/>
        <path id="Path_5951" data-name="Path 5951" d="M52.164,92.117s.62,2.828.716,3.243.916,4.758.916,4.758l-.589-1.332-1.532-4.121-.522-1.44a.51.51,0,0,1,.012-.4,1.329,1.329,0,0,1,.482-.5,4,4,0,0,1,.517-.21" fill="#d19e81"/>
        <path id="Path_5952" data-name="Path 5952" d="M52.147,92.191l.695,2.772s.112.285.263-.29a18.182,18.182,0,0,0-.536-2.713.275.275,0,0,0-.379.085.289.289,0,0,0-.043.146" fill="#d9bdb0"/>
        <path id="Path_5953" data-name="Path 5953" d="M57.725,95.925s-.47,2.756-.47,3.2,6.194,6.387,6.194,6.387-4.981-3.641-6.194-4.79-1.149-.958-1.278-3.257,1.007-7.009,1.748-1.544" fill="#d19e81"/>
      </g>
    </g>
  </g>
</svg>
