<svg xmlns="http://www.w3.org/2000/svg" xmlns:xlink="http://www.w3.org/1999/xlink" width="276" height="272" viewBox="0 0 276 272">
  <defs>
    <clipPath id="clip-path">
      <rect id="Rectangle_2749" data-name="Rectangle 2749" width="276" height="272" transform="translate(246 186)" fill="none" stroke="#707070" stroke-width="1"/>
    </clipPath>
    <clipPath id="clip-path-2">
      <rect id="Rectangle_2411" data-name="Rectangle 2411" width="779.201" height="332.447" fill="none"/>
    </clipPath>
    <clipPath id="clip-path-3">
      <path id="Path_8029" data-name="Path 8029" d="M294,148.33A134.1,134.1,0,1,0,428.1,14.23,134.1,134.1,0,0,0,294,148.33" fill="none"/>
    </clipPath>
    <clipPath id="clip-path-6">
      <rect id="Rectangle_2399" data-name="Rectangle 2399" width="63.322" height="27.581" transform="translate(446.639 174.264)" fill="none"/>
    </clipPath>
    <clipPath id="clip-path-7">
      <rect id="Rectangle_2400" data-name="Rectangle 2400" width="3.638" height="7.781" transform="translate(446.495 175.08)" fill="none"/>
    </clipPath>
    <clipPath id="clip-path-8">
      <rect id="Rectangle_2401" data-name="Rectangle 2401" width="10.191" height="10.492" transform="translate(449.615 176.237)" fill="none"/>
    </clipPath>
  </defs>
  <g id="Mask_Group_39" data-name="Mask Group 39" transform="translate(-246 -186)" clip-path="url(#clip-path)">
    <g id="Group_7637" data-name="Group 7637" transform="translate(-44 173.215)">
      <g id="Group_7636" data-name="Group 7636" clip-path="url(#clip-path-2)">
        <g id="Group_7624" data-name="Group 7624">
          <g id="Group_7623" data-name="Group 7623" clip-path="url(#clip-path-3)">
            <path id="Path_8027" data-name="Path 8027" d="M428.1,14.23A134.1,134.1,0,1,1,294,148.33,134.1,134.1,0,0,1,428.1,14.23" fill="#dfddd8"/>
            <path id="Path_8028" data-name="Path 8028" d="M428.1,14.23A134.1,134.1,0,1,1,294,148.33,134.1,134.1,0,0,1,428.1,14.23" fill="#dfddd8"/>
            <g id="Group_7622" data-name="Group 7622" opacity="0.35">
              <g id="Group_7621" data-name="Group 7621">
                <g id="Group_7620" data-name="Group 7620" clip-path="url(#clip-path-2)">
                  <line id="Line_283" data-name="Line 283" y2="332.447" transform="translate(467.205)" fill="none" stroke="#fff" stroke-width="1"/>
                  <line id="Line_284" data-name="Line 284" y2="332.447" transform="translate(561.975)" fill="none" stroke="#fff" stroke-width="1"/>
                  <line id="Line_285" data-name="Line 285" y2="332.447" transform="translate(372.436)" fill="none" stroke="#fff" stroke-width="1"/>
                  <line id="Line_286" data-name="Line 286" y2="332.447" transform="translate(435.615)" fill="none" stroke="#fff" stroke-width="1"/>
                  <line id="Line_287" data-name="Line 287" y2="332.447" transform="translate(530.385)" fill="none" stroke="#fff" stroke-width="1"/>
                  <line id="Line_288" data-name="Line 288" y2="332.447" transform="translate(340.846)" fill="none" stroke="#fff" stroke-width="1"/>
                  <line id="Line_289" data-name="Line 289" y2="332.447" transform="translate(404.026)" fill="none" stroke="#fff" stroke-width="1"/>
                  <line id="Line_290" data-name="Line 290" y2="332.447" transform="translate(498.795)" fill="none" stroke="#fff" stroke-width="1"/>
                  <line id="Line_291" data-name="Line 291" y2="332.447" transform="translate(309.256)" fill="none" stroke="#fff" stroke-width="1"/>
                  <line id="Line_292" data-name="Line 292" x1="779.201" transform="translate(0 30.086)" fill="none" stroke="#fff" stroke-width="1"/>
                  <line id="Line_293" data-name="Line 293" x1="779.201" transform="translate(0 61.676)" fill="none" stroke="#fff" stroke-width="1"/>
                  <line id="Line_294" data-name="Line 294" x1="779.201" transform="translate(0 93.266)" fill="none" stroke="#fff" stroke-width="1"/>
                  <line id="Line_295" data-name="Line 295" x1="779.201" transform="translate(0 124.856)" fill="none" stroke="#fff" stroke-width="1"/>
                  <line id="Line_296" data-name="Line 296" x1="779.201" transform="translate(0 156.446)" fill="none" stroke="#fff" stroke-width="1"/>
                  <line id="Line_297" data-name="Line 297" x1="779.201" transform="translate(0 188.036)" fill="none" stroke="#fff" stroke-width="1"/>
                  <line id="Line_298" data-name="Line 298" x1="779.201" transform="translate(0 219.626)" fill="none" stroke="#fff" stroke-width="1"/>
                  <line id="Line_299" data-name="Line 299" x1="779.201" transform="translate(0 251.216)" fill="none" stroke="#fff" stroke-width="1"/>
                  <line id="Line_300" data-name="Line 300" x1="779.201" transform="translate(0 282.806)" fill="none" stroke="#fff" stroke-width="1"/>
                </g>
              </g>
            </g>
          </g>
        </g>
        <rect id="Rectangle_2387" data-name="Rectangle 2387" width="154.197" height="135.519" transform="translate(365.501 73.054)" fill="#fff"/>
        <rect id="Rectangle_2388" data-name="Rectangle 2388" width="29.92" height="135.519" transform="translate(335.581 73.054)" fill="#f3f3f3"/>
        <rect id="Rectangle_2389" data-name="Rectangle 2389" width="140.739" height="45.452" transform="translate(373.046 77.785)" fill="#e4e4e4"/>
        <rect id="Rectangle_2390" data-name="Rectangle 2390" width="140.739" height="37.055" transform="translate(373.046 121.011)" fill="#e4e4e4"/>
        <rect id="Rectangle_2391" data-name="Rectangle 2391" width="140.739" height="37.055" transform="translate(373.046 164.238)" fill="#e4e4e4"/>
        <rect id="Rectangle_2392" data-name="Rectangle 2392" width="26.019" height="47.817" transform="translate(487.766 77.785)" fill="#f3f3f3"/>
        <rect id="Rectangle_2393" data-name="Rectangle 2393" width="26.019" height="37.055" transform="translate(487.766 121.011)" fill="#f3f3f3"/>
        <rect id="Rectangle_2394" data-name="Rectangle 2394" width="26.019" height="37.055" transform="translate(487.766 164.238)" fill="#f3f3f3"/>
        <g id="Group_7635" data-name="Group 7635">
          <g id="Group_7634" data-name="Group 7634" clip-path="url(#clip-path-2)">
            <path id="Path_8030" data-name="Path 8030" d="M401.332,176.8H370.94l5.676,12.725a3.281,3.281,0,0,0,3.044,1.534h14.634a3.143,3.143,0,0,0,3.112-1.712Z" fill="#c8c8c8"/>
            <rect id="Rectangle_2395" data-name="Rectangle 2395" width="33.228" height="1.097" transform="translate(369.891 175.7)" fill="#b6b6b6"/>
            <path id="Path_8031" data-name="Path 8031" d="M401.037,181.366H370.645l5.676,12.725a3.281,3.281,0,0,0,3.044,1.534H394a3.143,3.143,0,0,0,3.112-1.712Z" fill="#c8c8c8"/>
            <rect id="Rectangle_2396" data-name="Rectangle 2396" width="33.228" height="1.097" transform="translate(369.595 180.269)" fill="#b6b6b6"/>
            <path id="Path_8032" data-name="Path 8032" d="M401.037,186.688H370.645l5.676,12.725a3.281,3.281,0,0,0,3.044,1.534H394a3.143,3.143,0,0,0,3.112-1.712Z" fill="#c8c8c8"/>
            <rect id="Rectangle_2397" data-name="Rectangle 2397" width="33.228" height="1.097" transform="translate(369.595 185.591)" fill="#b6b6b6"/>
            <rect id="Rectangle_2398" data-name="Rectangle 2398" width="6.209" height="116.198" transform="translate(366.837 83.617)" fill="#fff"/>
            <g id="Group_7627" data-name="Group 7627" opacity="0.7">
              <g id="Group_7626" data-name="Group 7626">
                <g id="Group_7625" data-name="Group 7625" clip-path="url(#clip-path-6)">
                  <path id="Path_8033" data-name="Path 8033" d="M450.449,174.264l19.409,7.795a15.2,15.2,0,0,0,5.668,1.1H497.39a16.579,16.579,0,0,1,4.386.591l5.562,1.527A2.274,2.274,0,0,1,509,187.286l.952,12.108a2.273,2.273,0,0,1-2.265,2.451H473.182a2.273,2.273,0,0,1-1.975-1.149l-3.094-5.442a8.869,8.869,0,0,0-4.351-3.824l-17.123-7Z" fill="#fff"/>
                </g>
              </g>
            </g>
            <path id="Path_8034" data-name="Path 8034" d="M451.58,173.571l-.956-.382-.594,1.488a21.286,21.286,0,0,0-3.432,8.587L446,184.752l.956.382c.788.315,2.461-2.018,3.737-5.211s1.671-6.037.883-6.352" fill="#2a6790"/>
            <path id="Path_8035" data-name="Path 8035" d="M446.887,178.4c-1.276,3.193-1.671,6.037-.883,6.352s2.462-2.018,3.738-5.211,1.671-6.037.883-6.352-2.462,2.018-3.738,5.211" fill="#3175ad"/>
            <g id="Group_7630" data-name="Group 7630" opacity="0.41">
              <g id="Group_7629" data-name="Group 7629">
                <g id="Group_7628" data-name="Group 7628" clip-path="url(#clip-path-7)">
                  <path id="Path_8036" data-name="Path 8036" d="M447.358,178.589c-.854,2.138-1.119,4.042-.591,4.253s1.648-1.351,2.5-3.489,1.12-4.042.592-4.253-1.649,1.351-2.5,3.489" fill="#ececec"/>
                </g>
              </g>
            </g>
            <path id="Path_8037" data-name="Path 8037" d="M446.639,184.774s.212,10.5,5.631,2.334" fill="none" stroke="#2a6790" stroke-miterlimit="10" stroke-width="2"/>
            <path id="Path_8038" data-name="Path 8038" d="M460.085,177.481c.654.562-.664,3.171-2.945,5.828s-4.66,4.355-5.314,3.794.664-3.171,2.945-5.828S459.431,176.919,460.085,177.481Z" fill="none" stroke="#2a6790" stroke-miterlimit="10" stroke-width="1"/>
            <g id="Group_7633" data-name="Group 7633" opacity="0.7">
              <g id="Group_7632" data-name="Group 7632">
                <g id="Group_7631" data-name="Group 7631" clip-path="url(#clip-path-8)">
                  <path id="Path_8039" data-name="Path 8039" d="M455.361,176.237l4.445,1.785-7.536,8.707-2.655-1.086Z" fill="#eee"/>
                </g>
              </g>
            </g>
            <line id="Line_301" data-name="Line 301" x2="34.113" transform="translate(473.175 197.022)" fill="none" stroke="#cbcbcb" stroke-miterlimit="10" stroke-width="1"/>
            <path id="Path_8040" data-name="Path 8040" d="M441.581,156.34l17.753-9.3-1.917-3.657-17.752,9.305a1.949,1.949,0,0,0-.822,2.632l.105.2a1.951,1.951,0,0,0,2.633.822" fill="#cbcbcb"/>
            <path id="Path_8041" data-name="Path 8041" d="M454.52,139.2a24.523,24.523,0,1,0,18.459-29.36A24.523,24.523,0,0,0,454.52,139.2" fill="#eee"/>
            <path id="Path_8042" data-name="Path 8042" d="M461.8,138.733a16.656,16.656,0,0,0,20.64,12.691,18.374,18.374,0,0,0,13.635-21.234,16.656,16.656,0,0,0-20.64-12.691A18.374,18.374,0,0,0,461.8,138.733" fill="#cbcbcb"/>
            <path id="Path_8043" data-name="Path 8043" d="M464.51,133.568a11.732,11.732,0,0,0,14.539,8.94,12.941,12.941,0,0,0,9.6-14.957,11.731,11.731,0,0,0-14.538-8.939,12.941,12.941,0,0,0-9.6,14.956" fill="#b9b9b9"/>
            <path id="Path_8044" data-name="Path 8044" d="M455.887,138.891a23.121,23.121,0,1,0,17.4-27.682A23.12,23.12,0,0,0,455.887,138.891Z" fill="none" stroke="#cbcbcb" stroke-miterlimit="10" stroke-width="1"/>
            <path id="Path_8045" data-name="Path 8045" d="M437.375,179.439H409.05l5.29,11.859a3.056,3.056,0,0,0,2.837,1.43h13.639a2.929,2.929,0,0,0,2.9-1.6Z" fill="#c8c8c8"/>
            <rect id="Rectangle_2402" data-name="Rectangle 2402" width="30.968" height="1.022" transform="translate(408.072 178.417)" fill="#b6b6b6"/>
            <path id="Path_8046" data-name="Path 8046" d="M437.1,183.7H408.775l5.29,11.859a3.056,3.056,0,0,0,2.837,1.43h13.639a2.929,2.929,0,0,0,2.9-1.6Z" fill="#c8c8c8"/>
            <rect id="Rectangle_2403" data-name="Rectangle 2403" width="30.968" height="1.022" transform="translate(407.797 182.676)" fill="#b6b6b6"/>
            <path id="Path_8047" data-name="Path 8047" d="M437.1,188.658H408.775l5.29,11.859a3.056,3.056,0,0,0,2.837,1.43h13.639a2.93,2.93,0,0,0,2.9-1.6Z" fill="#c8c8c8"/>
            <rect id="Rectangle_2404" data-name="Rectangle 2404" width="30.968" height="1.022" transform="translate(407.797 187.636)" fill="#b6b6b6"/>
            <path id="Path_8048" data-name="Path 8048" d="M407.767,133.2H377.375l5.676,12.725a3.281,3.281,0,0,0,3.044,1.534h14.634a3.143,3.143,0,0,0,3.112-1.712Z" fill="#c8c8c8"/>
            <rect id="Rectangle_2405" data-name="Rectangle 2405" width="33.228" height="1.097" transform="translate(376.326 132.106)" fill="#b6b6b6"/>
            <path id="Path_8049" data-name="Path 8049" d="M407.767,138.069H377.375l5.676,12.725a3.281,3.281,0,0,0,3.044,1.534h14.634a3.143,3.143,0,0,0,3.112-1.712Z" fill="#c8c8c8"/>
            <rect id="Rectangle_2406" data-name="Rectangle 2406" width="33.228" height="1.097" transform="translate(376.326 136.972)" fill="#b6b6b6"/>
            <path id="Path_8050" data-name="Path 8050" d="M407.767,143.308H377.375l5.676,12.725a3.281,3.281,0,0,0,3.044,1.534h14.634a3.141,3.141,0,0,0,3.112-1.712Z" fill="#c8c8c8"/>
            <rect id="Rectangle_2407" data-name="Rectangle 2407" width="33.228" height="1.097" transform="translate(376.326 142.211)" fill="#b6b6b6"/>
            <path id="Path_8051" data-name="Path 8051" d="M438.164,140.079H410.753l5.119,11.477a2.958,2.958,0,0,0,2.745,1.384h13.2a2.834,2.834,0,0,0,2.807-1.544Z" fill="#c8c8c8"/>
            <rect id="Rectangle_2408" data-name="Rectangle 2408" width="29.969" height="0.989" transform="translate(409.807 139.09)" fill="#b6b6b6"/>
            <path id="Path_8052" data-name="Path 8052" d="M438.164,144.467H410.753l5.119,11.477a2.958,2.958,0,0,0,2.745,1.384h13.2a2.834,2.834,0,0,0,2.807-1.544Z" fill="#c8c8c8"/>
            <rect id="Rectangle_2409" data-name="Rectangle 2409" width="29.969" height="0.989" transform="translate(409.807 143.478)" fill="#b6b6b6"/>
          </g>
        </g>
      </g>
    </g>
  </g>
</svg>
