<svg xmlns="http://www.w3.org/2000/svg" xmlns:xlink="http://www.w3.org/1999/xlink" width="268.201" height="268.513" viewBox="0 0 268.201 268.513">
  <defs>
    <clipPath id="clip-path">
      <rect id="Rectangle_1544" data-name="Rectangle 1544" width="268.2" height="268.201" fill="none"/>
    </clipPath>
    <clipPath id="clip-path-2">
      <path id="Path_5897" data-name="Path 5897" d="M73.689,14.346a134.143,134.143,0,0,0-13.852,8.077V245.777a134.207,134.207,0,0,0,144.526,2.564V19.859c-3.194-1.968-6.487-3.812-9.852-5.513Z" fill="none"/>
    </clipPath>
    <clipPath id="clip-path-3">
      <path id="Path_5899" data-name="Path 5899" d="M73.688,14.346a133.881,133.881,0,0,0-13.851,8.078V245.777a134.207,134.207,0,0,0,144.526,2.564V19.86c-3.194-1.97-6.487-3.813-9.851-5.514Z" fill="none"/>
    </clipPath>
    <clipPath id="clip-path-4">
      <rect id="Rectangle_1537" data-name="Rectangle 1537" width="94.246" height="10.793" transform="translate(84.977 176.938)" fill="none"/>
    </clipPath>
    <clipPath id="clip-path-8">
      <rect id="Rectangle_1539" data-name="Rectangle 1539" width="142.875" height="11.718" transform="translate(60.663 14.346)" fill="none"/>
    </clipPath>
    <clipPath id="clip-path-10">
      <path id="Path_5917" data-name="Path 5917" d="M96.841,121.658,83.983,156.9a5.779,5.779,0,0,0,5.429,7.762h85.377a5.779,5.779,0,0,0,5.43-7.762L167.36,121.662a5.78,5.78,0,0,0-5.43-3.8l-59.659,0a5.779,5.779,0,0,0-5.43,3.8" fill="none"/>
    </clipPath>
  </defs>
  <g id="Group_6836" data-name="Group 6836" transform="translate(-250 -183.688)">
    <g id="Group_514" data-name="Group 514" transform="translate(-2115.266 -7608.941)">
      <circle id="Ellipse_44" data-name="Ellipse 44" cx="134.1" cy="134.1" r="134.1" transform="translate(2365.266 7792.63)" fill="#e0ded9"/>
      <circle id="Ellipse_47-2" data-name="Ellipse 47-2" cx="134.1" cy="134.1" r="134.1" transform="translate(2365.266 7792.63)" fill="#e0ded9"/>
    </g>
    <g id="Group_6354" data-name="Group 6354" transform="translate(250.001 184)">
      <g id="Group_6353" data-name="Group 6353" clip-path="url(#clip-path)">
        <g id="Group_6334" data-name="Group 6334">
          <g id="Group_6333" data-name="Group 6333" clip-path="url(#clip-path-2)">
            <path id="Path_5895" data-name="Path 5895" d="M62.767,190.61,71.019,268.2H193.177l8.257-77.591Z" fill="#bfc1bc"/>
            <path id="Path_5896" data-name="Path 5896" d="M60.663,174.059l-.826,16.551H204.364l-.826-16.551Z" fill="#4374a8"/>
            <line id="Line_173" data-name="Line 173" x1="133.721" transform="translate(65.24 202.816)" fill="none" stroke="#9e9e9e" stroke-miterlimit="10" stroke-width="1"/>
          </g>
        </g>
        <g id="Group_6341" data-name="Group 6341">
          <g id="Group_6340" data-name="Group 6340" clip-path="url(#clip-path-3)">
            <g id="Group_6339" data-name="Group 6339" opacity="0.78">
              <g id="Group_6338" data-name="Group 6338">
                <g id="Group_6337" data-name="Group 6337" clip-path="url(#clip-path-4)">
                  <g id="Group_6336" data-name="Group 6336">
                    <g id="Group_6335" data-name="Group 6335" clip-path="url(#clip-path-4)">
                      <path id="Path_5898" data-name="Path 5898" d="M179.222,187.731H84.977l.538-10.793h93.169Z" fill="#fff"/>
                    </g>
                  </g>
                </g>
              </g>
            </g>
          </g>
        </g>
        <g id="Group_6343" data-name="Group 6343">
          <g id="Group_6342" data-name="Group 6342" clip-path="url(#clip-path-2)">
            <path id="Path_5900" data-name="Path 5900" d="M133.989,185.387H105.44l.3-6.106h27.944Z" fill="#859945"/>
            <path id="Path_5901" data-name="Path 5901" d="M179.593,108.451H84.608L60.663,174.06H203.538Z" fill="#a9aba9"/>
            <path id="Path_5902" data-name="Path 5902" d="M179.593,108.45H84.608L60.663,26.064H203.538Z" fill="#4374a8"/>
          </g>
        </g>
        <g id="Group_6350" data-name="Group 6350">
          <g id="Group_6349" data-name="Group 6349" clip-path="url(#clip-path-3)">
            <path id="Path_5904" data-name="Path 5904" d="M161.929,117.858H102.271a5.779,5.779,0,0,0-5.43,3.8L83.982,156.9a5.779,5.779,0,0,0,5.43,7.762h85.377a5.781,5.781,0,0,0,5.43-7.762L167.36,121.661a5.779,5.779,0,0,0-5.43-3.8" fill="#909090"/>
            <path id="Path_5905" data-name="Path 5905" d="M153.188,141.436h-43.87a4.407,4.407,0,0,0-3.919,1.875L98.56,160.7c-.993,1.861,1.021,3.831,3.919,3.831H161.66c2.9,0,4.912-1.97,3.919-3.831l-8.467-17.391a4.407,4.407,0,0,0-3.919-1.875" fill="#9a9a99"/>
            <path id="Path_5906" data-name="Path 5906" d="M160.97,118.611H103.232a5.6,5.6,0,0,0-5.255,3.676l-12.446,34.1a5.594,5.594,0,0,0,5.256,7.512h82.629a5.594,5.594,0,0,0,5.255-7.512l-12.446-34.1A5.6,5.6,0,0,0,160.97,118.611Z" fill="none" stroke="#d0d0d0" stroke-miterlimit="10" stroke-width="1"/>
            <path id="Path_5907" data-name="Path 5907" d="M102.271,100.2h59.658c2.428,0,4.6-2.048,5.43-5.126l12.856-47.55c1.376-5.089-1.416-10.474-5.43-10.474H89.415c-4.014,0-6.805,5.385-5.43,10.474l12.859,47.55c.832,3.078,3,5.126,5.43,5.126" fill="#bfc1bc"/>
            <path id="Path_5908" data-name="Path 5908" d="M103.232,99.185H160.97c2.35,0,4.449-1.982,5.255-4.961L178.671,48.2C180,43.28,177.3,38.067,173.415,38.067H90.786c-3.884,0-6.587,5.213-5.255,10.137l12.446,46.02C98.786,97.2,100.886,99.185,103.232,99.185Z" fill="none" stroke="#aeaeae" stroke-miterlimit="10" stroke-width="1"/>
            <path id="Path_5909" data-name="Path 5909" d="M162.692,14.346H101.508a72.978,72.978,0,0,0-32.08,7.429l-8.765,4.289H203.538l-8.766-4.289a72.978,72.978,0,0,0-32.08-7.429" fill="#e6e6e6"/>
            <g id="Group_6348" data-name="Group 6348" opacity="0.35">
              <g id="Group_6347" data-name="Group 6347">
                <g id="Group_6346" data-name="Group 6346" clip-path="url(#clip-path-8)">
                  <g id="Group_6345" data-name="Group 6345">
                    <g id="Group_6344" data-name="Group 6344" clip-path="url(#clip-path-8)">
                      <path id="Path_5910" data-name="Path 5910" d="M162.692,14.346H101.508a72.978,72.978,0,0,0-32.08,7.429l-8.765,4.289H203.538l-8.766-4.289a72.978,72.978,0,0,0-32.08-7.429" fill="#4374a8"/>
                    </g>
                  </g>
                </g>
              </g>
            </g>
            <path id="Path_5911" data-name="Path 5911" d="M96.611,57.2c0-22.062,70.979-22.061,70.978,0S151.7,97.149,132.1,97.148,96.61,79.264,96.611,57.2" fill="#b5b6b2"/>
          </g>
        </g>
        <g id="Group_6352" data-name="Group 6352">
          <g id="Group_6351" data-name="Group 6351" clip-path="url(#clip-path-10)">
            <path id="Path_5913" data-name="Path 5913" d="M116.114,162.631l11.739-38-18.1,2.181c-1.3.158-2.554,1.462-3.1,3.213L101,148.325c-.58,1.878-.187,3.773.94,4.551Z" fill="#d5d5d5"/>
            <rect id="Rectangle_1540" data-name="Rectangle 1540" width="43.482" height="1.435" transform="translate(115.424 164.866) rotate(-72.832)" fill="#b6b6b6"/>
            <path id="Path_5914" data-name="Path 5914" d="M105.907,177.692l12.642-40.921-19.5,2.349c-1.4.171-2.75,1.575-3.333,3.461l-6.087,19.7c-.625,2.022-.2,4.063,1.011,4.9Z" fill="#c8c8c8"/>
            <rect id="Rectangle_1541" data-name="Rectangle 1541" width="46.827" height="1.546" transform="translate(105.163 180.098) rotate(-72.832)" fill="#b6b6b6"/>
            <path id="Path_5915" data-name="Path 5915" d="M148.276,162.631l-11.739-38,18.1,2.181c1.3.158,2.554,1.462,3.1,3.213l5.653,18.3c.58,1.878.187,3.773-.94,4.551Z" fill="#d5d5d5"/>
            <rect id="Rectangle_1542" data-name="Rectangle 1542" width="1.435" height="43.482" transform="translate(134.754 123.746) rotate(-17.185)" fill="#b6b6b6"/>
            <path id="Path_5916" data-name="Path 5916" d="M158.481,177.692l-12.642-40.921,19.495,2.349c1.4.171,2.75,1.575,3.333,3.461l6.087,19.7c.625,2.022.2,4.063-1.011,4.9Z" fill="#c8c8c8"/>
            <rect id="Rectangle_1543" data-name="Rectangle 1543" width="1.545" height="46.805" transform="translate(143.928 135.814) rotate(-17.168)" fill="#b6b6b6"/>
          </g>
        </g>
      </g>
    </g>
  </g>
</svg>
