<svg xmlns="http://www.w3.org/2000/svg" xmlns:xlink="http://www.w3.org/1999/xlink" width="269" height="269" viewBox="0 0 269 269">
  <defs>
    <clipPath id="clip-path">
      <circle id="Ellipse_114" data-name="Ellipse 114" cx="134.5" cy="134.5" r="134.5" fill="none"/>
    </clipPath>
  </defs>
  <g id="Group_6832" data-name="Group 6832" transform="translate(-270 -141)">
    <g id="Group_6831" data-name="Group 6831">
      <g id="Group_514" data-name="Group 514" transform="translate(-5389.284 -7518)">
        <circle id="Ellipse_44" data-name="Ellipse 44" cx="134.5" cy="134.5" r="134.5" transform="translate(5659.284 7659)" fill="#e0ded9"/>
        <circle id="Ellipse_47-2" data-name="Ellipse 47-2" cx="134.5" cy="134.5" r="134.5" transform="translate(5659.284 7659)" fill="#e0ded9"/>
        <g id="Group_493" data-name="Group 493" transform="translate(5659.284 7659)">
          <g id="Group_1391" data-name="Group 1391">
            <g id="Group_1390" data-name="Group 1390" clip-path="url(#clip-path)">
              <g id="Group_1389" data-name="Group 1389" transform="translate(-22.567 32.716)">
                <g id="Group_1385" data-name="Group 1385" transform="translate(0 27.891)">
                  <g id="Group_1384" data-name="Group 1384">
                    <path id="Path_1576" data-name="Path 1576" d="M5597.976,7881.1s65.661-52.309,79.292-62.981c11.5-9,28.152-20.974,36.779-32.8a59.418,59.418,0,0,1,14.265-13.7c3.035-2.1,6.531-4.53,10.205-7.091,9.31-6.488,18.35-15.475,21.486-17.93s23.891-10.415,27.7-12.485,14.791-5.044,16.968-3.937,4.19,7.027-2.872,12.367-13.179,6.384-13.179,6.384-11.526,9.213-18.2,12.184c0,0-12.168,11.025-14.253,14.346s-15.44,11.713-15.3,18.6,10.644,4.659,16.558,3.276a81.21,81.21,0,0,1,17.23-2.246c4.762.02,9.989-.324,12.085,2.033s3.781,11.532-3.561,14.28-23.872,2.7-32.681,10.6-28.712,21.729-44.1,23.78-64.55,75.779-64.55,75.779Z" transform="translate(-5597.976 -7729.877)" fill="#bc7860"/>
                    <path id="Path_1577" data-name="Path 1577" d="M5831,7825.55l-11.269.5s-5.1-5.876-1.97-11.452c0,0,9-2.766,12.424-1.714s2.817,6.8,2.409,9.482S5831,7825.55,5831,7825.55Z" transform="translate(-5642.347 -7746.417)" fill="#d89c84"/>
                    <path id="Path_1578" data-name="Path 1578" d="M5854.091,7730.158a1.656,1.656,0,0,1-.715,1.856c-.842.587-6.827,2.3-9.516,3.051a1.225,1.225,0,0,1-1.538-.974l-.339-1.943S5850.112,7728.887,5854.091,7730.158Z" transform="translate(-5647.394 -7729.864)" fill="#d89c84"/>
                  </g>
                </g>
                <g id="Group_1388" data-name="Group 1388" transform="translate(36.597)">
                  <g id="Group_1387" data-name="Group 1387">
                    <path id="Path_1579" data-name="Path 1579" d="M5839.769,7759.829s-1.366-21.707-4.256-28.323-10.93-17.9-12.45-20.027-10-6.767-13.161-9.6-8.223-9.171-11.557-5.979c0,0-6.181,8.852,2.885,15.8,0,0,5.762,6.337,10.109,8.128a62.37,62.37,0,0,0,5.941,14.277,6.734,6.734,0,0,1,.917,3.151c.178,3.932.59,13.183.692,16.918l-2.324-17.258a9.869,9.869,0,0,0-1.242-3.626c-1.81-3.126-5.683-9.572-8.046-11.688-3.164-2.833-5.624-5.179-9.012-6.646s-14.583-8.144-17.823-8.267-6.479,5.245-3.936,9.089,6.23,8,15.744,10.11a24.325,24.325,0,0,0,6.663,10.385c4.812,4.1-6.3.176-6.3.176l-2.908-5.992s-5.859-9.669-10.382-8.519-4.792,8.535-.078,14.966,9.482,24.229,9.482,24.229l6.948,14.715,9.637,25.393s12.684-.053,12.873-.491S5839.769,7759.829,5839.769,7759.829Z" transform="translate(-5670.714 -7695.004)" fill="#cc8366"/>
                    <path id="Path_1580" data-name="Path 1580" d="M5805.88,7695.085a2.018,2.018,0,0,1,1.537,1.486c.4,1.332,5.38,3.489,6.1,4.227a.657.657,0,0,0,1.153-.149s-3.293-3.755-5.738-4.88S5805.88,7695.085,5805.88,7695.085Z" transform="translate(-5676.771 -7695)" fill="#d89c84"/>
                    <g id="Group_1386" data-name="Group 1386" transform="translate(93.739 27.891)">
                      <path id="Path_1581" data-name="Path 1581" d="M5761.668,7771.615c3.034-2.1,6.531-4.53,10.205-7.091,9.309-6.488,18.349-15.475,21.486-17.93s23.891-10.415,27.7-12.485,14.791-5.044,16.968-3.937,4.19,7.027-2.873,12.367-13.178,6.384-13.178,6.384-11.527,9.213-18.2,12.184c0,0-12.168,11.025-14.254,14.346s-15.44,11.713-15.3,18.6" transform="translate(-5761.668 -7729.877)" fill="#bc7860"/>
                      <path id="Path_1582" data-name="Path 1582" d="M5854.091,7730.158a1.656,1.656,0,0,1-.715,1.856c-.842.587-6.827,2.3-9.516,3.051a1.225,1.225,0,0,1-1.538-.974l-.339-1.943S5850.112,7728.887,5854.091,7730.158Z" transform="translate(-5777.73 -7729.864)" fill="#bc7860"/>
                    </g>
                    <path id="Path_1583" data-name="Path 1583" d="M5780.47,7709.73a3.882,3.882,0,0,1,3.72,1.116c1.75,1.733,4.57,3.265,6.9,2.807C5791.088,7713.653,5783.767,7709.03,5780.47,7709.73Z" transform="translate(-5671.689 -7697.924)" fill="#d89c84"/>
                    <path id="Path_1584" data-name="Path 1584" d="M5705.329,7956.6s70.538-76.336,78.365-94.409c6.6-15.252,14.988-37.022,25.522-49.921a67.6,67.6,0,0,0,10.98-19.641c1.441-3.946,3.107-8.493,4.868-13.273,4.465-12.113,11.757-24.649,13.558-28.808s4.592-29.293,5.774-34.085,1.3-17.731-.546-19.81-8.939-2.591-12.788,6.719-3.235,16.342-3.235,16.342-6.824,15.339-8.178,23.534c0,0-8.636,16.564-11.69,19.815s-8.453,20.365-16.071,22.188-8.191-10.375-8.37-17.282a92.292,92.292,0,0,0-2.483-19.613c-1.392-5.236-2.515-11.089-5.712-12.717s-13.781-.846-14.7,8.026,3.895,27.053-2.263,39.021-15.659,37.854-13.492,55.379-101.471,81.074-101.471,81.074Z" transform="translate(-5643.401 -7695.08)" fill="#db8f6d"/>
                    <path id="Path_1585" data-name="Path 1585" d="M5793.067,7748.993l2.69,12.549s7.936,3.923,13.171-1.127c0,0,.456-10.705-1.687-14.169s-8.3-1.145-11.13.076S5793.067,7748.993,5793.067,7748.993Z" transform="translate(-5674.208 -7704.883)" fill="#d89c84"/>
                    <path id="Path_1586" data-name="Path 1586" d="M5894.438,7696.965a1.883,1.883,0,0,0-1.838,1.32c-.4,1.1-.568,8.177-.622,11.354a1.394,1.394,0,0,0,1.515,1.411l2.237-.185S5896.982,7700.98,5894.438,7696.965Z" transform="translate(-5693.988 -7695.393)" fill="#d89c84"/>
                  </g>
                </g>
                <path id="Path_1587" data-name="Path 1587" d="M5811.072,7827.419c7.341-2.75,5.654-11.923,3.559-14.281s-7.322-2.013-12.084-2.033a81.11,81.11,0,0,0-17.23,2.247c-5.914,1.382-16.414,3.607-16.558-3.276l-34.465,51.719c15.384-2.052,35.287-15.883,44.1-23.78s25.339-7.847,32.681-10.6" transform="translate(-5625.858 -7718.012)" fill="#bc7860"/>
                <path id="Path_1588" data-name="Path 1588" d="M5831,7825.55l-11.269.5s-5.1-5.876-1.97-11.452c0,0,9-2.766,12.424-1.714s2.817,6.8,2.409,9.482" transform="translate(-5642.347 -7718.526)" fill="#d89c84"/>
              </g>
            </g>
          </g>
        </g>
      </g>
    </g>
  </g>
</svg>
