<svg xmlns="http://www.w3.org/2000/svg" xmlns:xlink="http://www.w3.org/1999/xlink" width="269" height="269" viewBox="0 0 269 269">
  <defs>
    <clipPath id="clip-path">
      <circle id="Ellipse_47" data-name="Ellipse 47" cx="134.5" cy="134.5" r="134.5" fill="none"/>
    </clipPath>
  </defs>
  <g id="Group_1825" data-name="Group 1825" transform="translate(-299 -257)">
    <circle id="Ellipse_44" data-name="Ellipse 44" cx="134.5" cy="134.5" r="134.5" transform="translate(299 257)" fill="#e0ded9"/>
    <circle id="Ellipse_47-2" data-name="Ellipse 47" cx="134.5" cy="134.5" r="134.5" transform="translate(299 257)" fill="#e0ded9"/>
    <g id="Group_493" data-name="Group 493" transform="translate(299 257)">
      <g id="Group_492" data-name="Group 492" transform="translate(0 0)" clip-path="url(#clip-path)">
        <g id="Group_491" data-name="Group 491" transform="translate(10.3 61.991)">
          <g id="Group_480" data-name="Group 480" transform="translate(0 0)">
            <g id="Group_479" data-name="Group 479">
              <g id="Group_478" data-name="Group 478">
                <path id="Path_1102" data-name="Path 1102" d="M-2928.9,1707.638l55.28-39.323s-1.6-14.546,5.529-26.9,11.193-34.162,10.389-38.2c0,0,.166-7.636-.972-10.078s-4.647-6.691-3.031-8.843,8.978-3.874,14.854,8.649,3.117,19.236,5.408,24.325,6.766,5.916,9.759,4.984,15.358-9.755,18.515-12.3,14.781-15.481,21.434-21.892,18.962-17.665,24.707-16.424,3.719,7.3,1.153,10.292-13.547,14.577-16.062,18.193-15.448,15.716-16.256,17.335-2.474,4.228.494,5.68,14.681-11.874,22.423-16.193,14.4-9.92,20.858-14.763,12.683-4.7,14.887-1.009-1.052,8.223-8.2,13.8-19.863,16.428-23.19,19.228-14.584,9.873-15.346,12.915.7,6.035,5.692,4.664,14.133-6.856,21.067-8.75,21.873-7.943,22.228-8.156,7.126-3.463,10.065,1.721-3.569,9.406-11.717,13.321-19.759,10.394-23.23,11.34-16.79,7.8-17.885,8.944-2.188,7.126,6.476,6.778,30.483-.827,32.238,1.836,1.752,5.089-2.265,7.815-27.924,3.493-30.961,3.536-15.149.842-19.934,2.417-15.421,11.554-23.479,16.181c-13,7.471-18.98,1.545-22.779,4.717-1.273,1.064-62.974,46.246-62.974,46.246Z" transform="translate(2928.9 -1571.541)" fill="#db8f6d"/>
                <path id="Path_1103" data-name="Path 1103" d="M-2861.928,1592.891s3.579-1.6,3.118-4.4-1.914-6.352-4.6-5.961-2.371,3.242-1.386,5.092S-2861.928,1592.891-2861.928,1592.891Z" transform="translate(2932.293 -1570.942)" fill="#d89c84"/>
                <path id="Path_1104" data-name="Path 1104" d="M-2776.17,1571.554s-5.193,3.007-5.891,4.717,3.3,6.958,4.219,7.054,5.532-3.326,6.411-5.732a5.114,5.114,0,0,0-.682-4.486S-2772.909,1571.431-2776.17,1571.554Z" transform="translate(2936.754 -1571.541)" fill="#d89c84"/>
                <path id="Path_1105" data-name="Path 1105" d="M-2754.752,1587.625a47.2,47.2,0,0,0-4.909,4.919c-1.525,2.364.944,4.659,2.112,6.378,2.023,2.986,5.466.035,8.1-2.432s1.038-5.943,1.038-5.943a3.674,3.674,0,0,0-1.855-1.979A8.085,8.085,0,0,0-2754.752,1587.625Z" transform="translate(2937.932 -1570.664)" fill="#d89c84"/>
                <path id="Path_1106" data-name="Path 1106" d="M-2740.454,1621.187s-5.072,2.449-5.824,3.4c-1.341,1.692,2.143,7.51,3.014,7.6,1.048.11,4.759-1.845,5.979-2.834a3.235,3.235,0,0,0,1.012-3.292,5.74,5.74,0,0,0-3.779-4.778C-2740.686,1621.114-2740.454,1621.187-2740.454,1621.187Z" transform="translate(2938.657 -1568.83)" fill="#d89c84"/>
                <path id="Path_1107" data-name="Path 1107" d="M-2750.449,1663.776a26.448,26.448,0,0,0-5.952.833c-1.995.713-2.64,4.49-1.928,5.679s5.62,1.3,5.62,1.3l1.428-.962a4.5,4.5,0,0,0,1.563-5.7A6.6,6.6,0,0,0-2750.449,1663.776Z" transform="translate(2938.014 -1566.502)" fill="#d89c84"/>
              </g>
              <path id="Path_1108" data-name="Path 1108" d="M-2794.524,1605.021s-13.162,5.807-13.644,14.173,9.827-.807,9.827-.807-4.78,4.145-6.252,2.679C-2808.476,1617.2-2794.524,1605.021-2794.524,1605.021Z" transform="translate(2935.36 -1569.712)" fill="#ce876b"/>
              <path id="Path_1109" data-name="Path 1109" d="M-2779.182,1622.322s-9.96,4.31-13.963,9.214-2.5,7.151-.46,8.674,7.377-1.684,7.377-1.684-5.157,2.037-6.65-.4a4.461,4.461,0,0,1,.482-5.416c.745-.793,12.464-9.831,12.464-9.831Z" transform="translate(2936.031 -1568.767)" fill="#ce876b"/>
              <path id="Path_1110" data-name="Path 1110" d="M-2781.247,1652.194s-6.556.7-8.776,5.26,7.747,5.12,7.747,5.12-6.391-.341-5.074-4.251S-2781.247,1652.194-2781.247,1652.194Z" transform="translate(2936.315 -1567.135)" fill="#ce876b"/>
              <path id="Path_1111" data-name="Path 1111" d="M-2861.2,1582.211s10.4,6.2,11.013,15.848-2.072,23.239,12.78,23.931c0,0-5.93,1.279-7.8-8.586s-.64-12.941-4.345-21.3C-2854.221,1581.574-2861.2,1582.211-2861.2,1582.211Z" transform="translate(2932.523 -1570.958)" fill="#ce876b"/>
              <path id="Path_1112" data-name="Path 1112" d="M-2798.38,1676.835s-8.38.782-14.3,5.624-11.087,7.722-18.3,6.448-17.962,2.685-25.265,16.379l11.614-7.551a11.086,11.086,0,0,1,5.327-.925c3.145.2,10.228.52,15.862-2.931S-2798.38,1676.835-2798.38,1676.835Z" transform="translate(2932.788 -1565.789)" fill="#ce876b"/>
            </g>
          </g>
        </g>
      </g>
    </g>
  </g>
</svg>
