<svg xmlns="http://www.w3.org/2000/svg" xmlns:xlink="http://www.w3.org/1999/xlink" width="924" height="324.893" viewBox="0 0 924 324.893">
  <defs>
    <clipPath id="clip-path">
      <rect id="Rectangle_947" data-name="Rectangle 947" width="33.776" height="52.436" fill="none"/>
    </clipPath>
    <clipPath id="clip-path-2">
      <rect id="Rectangle_949" data-name="Rectangle 949" width="144.696" height="169.729" fill="none"/>
    </clipPath>
    <clipPath id="clip-path-3">
      <rect id="Rectangle_1918" data-name="Rectangle 1918" width="127.18" height="93.61" fill="none"/>
    </clipPath>
    <clipPath id="clip-path-5">
      <rect id="Rectangle_1899" data-name="Rectangle 1899" width="17.834" height="7.577" fill="none"/>
    </clipPath>
    <clipPath id="clip-path-6">
      <rect id="Rectangle_1898" data-name="Rectangle 1898" width="17.832" height="7.573" fill="none"/>
    </clipPath>
    <clipPath id="clip-path-7">
      <rect id="Rectangle_1901" data-name="Rectangle 1901" width="16.539" height="9.129" fill="none"/>
    </clipPath>
    <clipPath id="clip-path-8">
      <rect id="Rectangle_1900" data-name="Rectangle 1900" width="16.539" height="9.126" fill="none"/>
    </clipPath>
    <clipPath id="clip-path-9">
      <rect id="Rectangle_1903" data-name="Rectangle 1903" width="16.539" height="9.125" fill="none"/>
    </clipPath>
    <clipPath id="clip-path-11">
      <rect id="Rectangle_1925" data-name="Rectangle 1925" width="18.977" height="22.377" fill="none"/>
    </clipPath>
    <clipPath id="clip-path-12">
      <rect id="Rectangle_2936" data-name="Rectangle 2936" width="125.025" height="250.988" fill="none"/>
    </clipPath>
  </defs>
  <g id="Group_8660" data-name="Group 8660" transform="translate(-178 -350.734)">
    <g id="Group_5082" data-name="Group 5082" transform="translate(441.432 393.629)" opacity="0.5">
      <rect id="Rectangle_459" data-name="Rectangle 459" width="44.447" height="143.687" transform="translate(0 0)" fill="#fff"/>
      <rect id="Rectangle_459-2" data-name="Rectangle 459" width="44.447" height="143.687" transform="translate(53.876 0)" fill="#fff"/>
    </g>
    <g id="Group_7002" data-name="Group 7002" transform="translate(644.432 393.629)" opacity="0.5">
      <rect id="Rectangle_459-3" data-name="Rectangle 459" width="44.447" height="143.687" transform="translate(0 0)" fill="#fff"/>
      <rect id="Rectangle_459-4" data-name="Rectangle 459" width="44.447" height="143.687" transform="translate(53.876 0)" fill="#fff"/>
    </g>
    <g id="Group_7001" data-name="Group 7001" transform="translate(260 513.161)">
      <path id="Path_1166" data-name="Path 1166" d="M683.955,379s1.386-8.1,6.12-6.306.98,9.734.98,9.734,3.82-6.654,7.466-3.88-3.631,11.525-3.631,11.525,5.386-4.953,7.019-.873-7.019,9.06-7.019,9.06h-21.87s-8.65-4.978-7.019-9.06,7.019.873,7.019.873-7.276-8.751-3.631-11.525,7.466,3.88,7.466,3.88-3.754-7.939.98-9.734S683.955,379,683.955,379" transform="translate(-665.795 -372.429)" fill="#1a8e70"/>
      <g id="Group_573" data-name="Group 573" transform="translate(2.966 23.586)">
        <rect id="Rectangle_484" data-name="Rectangle 484" width="31.392" height="26.253" fill="#fff"/>
        <rect id="Rectangle_485" data-name="Rectangle 485" width="6.168" height="26.253" transform="translate(25.224)" fill="#e1f4ff"/>
      </g>
    </g>
    <g id="Group_5488" data-name="Group 5488" transform="translate(294.93 -443.115)">
      <g id="Group_5472" data-name="Group 5472" transform="translate(384.677 906.823) rotate(-2)">
        <g id="Group_5471" data-name="Group 5471" clip-path="url(#clip-path)">
          <path id="Path_5022" data-name="Path 5022" d="M.687,24.027l13.663.458L14.661.461,1,0s.524,19.555-1,24.6" transform="translate(10.444 31.867)" fill="#ce9d7c"/>
        </g>
      </g>
      <g id="Group_5486" data-name="Group 5486" transform="translate(295.728 949.013)">
        <g id="Group_5479" data-name="Group 5479" transform="translate(15.855 28.088)">
          <g id="Group_5475" data-name="Group 5475" transform="translate(0 50.152)">
            <g id="Group_5473" data-name="Group 5473">
              <path id="Path_5023" data-name="Path 5023" d="M14.143,144.52,41.591,53.8H28.286L0,144.52Z" transform="translate(0 -53.8)" fill="#d1a973"/>
            </g>
            <g id="Group_5474" data-name="Group 5474" transform="translate(67.644)">
              <path id="Path_5024" data-name="Path 5024" d="M100.8,144.52,85.354,53.8H72.7l14.143,90.72Z" transform="translate(-72.7 -53.8)" fill="#936b4e"/>
            </g>
            <path id="Path_5025" data-name="Path 5025" d="M15.943,144.52,43.577,57.057H78.469L94.38,144.52h3.35L81.168,53.8H41.251L12.5,144.52Z" transform="translate(-0.869 -53.8)" fill="#e2b67c"/>
            <path id="Path_5026" data-name="Path 5026" d="M88.713,114.9H26l1.675-5.3H90.388Z" transform="translate(-1.808 -57.68)" fill="#d19f70"/>
            <rect id="Rectangle_948" data-name="Rectangle 948" width="62.713" height="5.211" transform="translate(88.207 51.92)" fill="#936b4e"/>
          </g>
          <path id="Path_5027" data-name="Path 5027" d="M161.15,77.593H97.042a8.817,8.817,0,0,1-8.653-10.421L98.437,12.089A14.858,14.858,0,0,1,113.046-.1h61.131a3.509,3.509,0,0,1,3.443,4.094L164.686,74.616A3.738,3.738,0,0,1,161.15,77.593Z" transform="translate(-6.136 0.1)" fill="#c3a350"/>
          <path id="Path_5028" data-name="Path 5028" d="M105.9,2.512h72.669A3.606,3.606,0,0,0,175.219,0H114.088A14.9,14.9,0,0,0,105.9,2.512Z" transform="translate(-7.365 0.093)" fill="#ac9048"/>
          <path id="Path_5029" data-name="Path 5029" d="M165.719,77.593h-2.977a8.816,8.816,0,0,1-8.653-10.421l10.049-55.083A14.858,14.858,0,0,1,178.746-.1h0a3.509,3.509,0,0,1,3.443,4.094L169.255,74.616A3.738,3.738,0,0,1,165.719,77.593Z" transform="translate(-10.705 0.1)" fill="#ac9048"/>
          <path id="Path_5030" data-name="Path 5030" d="M89.6,74.245c-1.117-2.047,41.5-6.513,66.062,0,4.559,1.21,4.559,12.1,2.419,12.468C148.868,88.575,89.6,74.245,89.6,74.245Z" transform="translate(-6.23 -4.833)" fill="#ac9048"/>
          <path id="Path_5031" data-name="Path 5031" d="M147.422,107.1H14.925A9.034,9.034,0,0,1,5.9,98.071v-12A12.469,12.469,0,0,1,18.368,73.6H147.422a9.133,9.133,0,0,1,9.118,9.118V98.164A9.1,9.1,0,0,1,147.422,107.1Z" transform="translate(-0.41 -5.025)" fill="#c3a350"/>
          <path id="Path_5032" data-name="Path 5032" d="M152.877,107.1H92.025A9.034,9.034,0,0,1,83,98.071v-12A12.469,12.469,0,0,1,95.468,73.6h57.223a9.034,9.034,0,0,1,9.025,9.025V98.164A8.8,8.8,0,0,1,152.877,107.1Z" transform="translate(-5.772 -5.025)" fill="#ac9048"/>
          <path id="Path_5033" data-name="Path 5033" d="M13,75.089c3.536,1.582,27.821,3.071,34.427,3.164,14.794.279,38.335-3.629,38.335-3.629L63.152,73.6H18.862A12.456,12.456,0,0,0,13,75.089Z" transform="translate(-0.904 -5.025)" fill="#ac9048"/>
          <g id="Group_5478" data-name="Group 5478" transform="translate(73.413 50.152)">
            <g id="Group_5476" data-name="Group 5476">
              <path id="Path_5034" data-name="Path 5034" d="M93.043,144.52,120.491,53.8H107.186L78.9,144.52Z" transform="translate(-78.9 -53.8)" fill="#d1a973"/>
            </g>
            <g id="Group_5477" data-name="Group 5477" transform="translate(67.644)">
              <path id="Path_5035" data-name="Path 5035" d="M179.7,144.52,164.254,53.8H151.6l14.143,90.72Z" transform="translate(-151.6 -53.8)" fill="#936b4e"/>
            </g>
            <path id="Path_5036" data-name="Path 5036" d="M94.843,144.52l27.635-87.463h34.892L173.28,144.52h3.35L160.068,53.8H120.151L91.4,144.52Z" transform="translate(-79.769 -53.8)" fill="#e2b67c"/>
          </g>
        </g>
        <g id="Group_5482" data-name="Group 5482" transform="translate(0 0)">
          <path id="Path_5037" data-name="Path 5037" d="M190.81,414.884l1.867-22.363,11.857,5.161-5.928,18.826Z" transform="translate(-123.281 -247.63)" fill="#ce9d7c"/>
          <path id="Path_5038" data-name="Path 5038" d="M55.55,416.785l5.785-17.871,11.476,2.58L62.283,420.608Z" transform="translate(-35.62 -255.447)" fill="#ce9d7c"/>
          <g id="Group_5481" data-name="Group 5481">
            <g id="Group_5480" data-name="Group 5480" clip-path="url(#clip-path-2)">
              <path id="Path_5039" data-name="Path 5039" d="M168.1,235.031H130.039s-12.315,48.195-13.2,55.2l-14.7-2.528,6.212-54.585h-12.9s.064,4.224-2.212,6.636-20.119,43.993-21.89,52.529l-14.8-5.938,19.1-62.915a19.5,19.5,0,0,1,18.723-14.2h36.545c6.449-.382,17.7-1.846,23.4,0s18.968,8.857,25.8,9.748c0,0,.884,16.055-12.014,16.055" transform="translate(-35.691 -133.577)" fill="#936b4e"/>
              <path id="Path_5040" data-name="Path 5040" d="M267,33.028c-2.086-15.482-1.9-17.584-11.57-24.083S242.531,0,242.531,0,228.009,11.25,228.95.669l-8.819,4.024c-3.334.749-9.716,6.81-12.6,8.66l-9.767,33.392c4.7,3.156,14.96,5.09,17.434-.071a32.29,32.29,0,0,0-.364-21.292s0,11.66,3.225,19.3a79.143,79.143,0,0,1,4.552,15.673l-18.968,9.595,3.888,7.352,14.51-1.656c6.449-.382,17.7-1.847,23.395,0s18.968,8.857,25.8,9.748c1.263-26.95-2.151-36.889-4.237-52.371" transform="translate(-126.813 0)" fill="#685c53"/>
              <path id="Path_5041" data-name="Path 5041" d="M203.979,114.615s-5.588,3.782-6.239,5.625c-.113.318.406,6.585.969,12.948.6,6.739,1.509,14.883,1.509,14.883s11.058,1.662,10.864-1.6c-.017-.286,4.091-26.3,4.091-26.3Z" transform="translate(-126.786 -73.494)" fill="#685c53"/>
              <path id="Path_5042" data-name="Path 5042" d="M201,194.982l-1.3.6a6.487,6.487,0,0,0-1.95,1.387l-2.939,3.046a4.192,4.192,0,0,0-.962,4.21l1.245,3.8a3.466,3.466,0,0,0,3.29,2.4h.4s1.328-6.021,6.1-8.092Z" transform="translate(-124.17 -125.027)" fill="#ce9d7c"/>
              <path id="Path_5043" data-name="Path 5043" d="M160.655,459.02l-25.931-.235a1.174,1.174,0,0,1-1.1-.8c-.5-1.477-1.1-4.653,2.15-6.247,4.127-2.026,13.445-5.287,14.261-5.571.039-.014.076-.029.114-.047l1.374-.653a1.169,1.169,0,0,1,1.089.044c1.646.955,6.771,3.841,10.138,4.76,1.081.3.729.82.519,2.283l-1.51,5.723a1.178,1.178,0,0,1-1.1.739" transform="translate(-83.83 -289.291)" fill="#3a221a"/>
              <path id="Path_5044" data-name="Path 5044" d="M27.428,451.6,1.5,451.37a1.174,1.174,0,0,1-1.1-.8c-.5-1.477-1.1-4.653,2.151-6.247,4.127-2.026,13.445-5.287,14.261-5.571.039-.014.076-.029.114-.047l1.374-.653a1.169,1.169,0,0,1,1.089.044c1.646.955,6.771,3.84,10.138,4.76,1.081.3.729.82.519,2.283l-1.51,5.723a1.178,1.178,0,0,1-1.1.739" transform="translate(2.788 -281.876)" fill="#3a221a"/>
            </g>
          </g>
        </g>
        <path id="Path_5045" data-name="Path 5045" d="M152.877,107.1H92.025A9.034,9.034,0,0,1,83,98.071v-12A12.469,12.469,0,0,1,95.468,73.6h57.223a9.034,9.034,0,0,1,9.025,9.025V98.164A8.8,8.8,0,0,1,152.877,107.1Z" transform="translate(10.083 23.063)" fill="#ac9048"/>
        <g id="Group_5485" data-name="Group 5485" transform="translate(89.268 78.067)">
          <g id="Group_5483" data-name="Group 5483">
            <path id="Path_5046" data-name="Path 5046" d="M93.043,144.52,120.491,53.8H107.186L78.9,144.52Z" transform="translate(-78.9 -53.8)" fill="#d1a973"/>
          </g>
          <g id="Group_5484" data-name="Group 5484" transform="translate(67.644)">
            <path id="Path_5047" data-name="Path 5047" d="M179.7,144.52,164.254,53.8H151.6l14.143,90.72Z" transform="translate(-151.6 -53.8)" fill="#936b4e"/>
          </g>
          <path id="Path_5048" data-name="Path 5048" d="M94.843,144.52l27.635-87.463h34.892L173.28,144.52h3.35L160.068,53.8H120.151L91.4,144.52Z" transform="translate(-79.769 -53.8)" fill="#e2b67c"/>
        </g>
      </g>
      <g id="Group_5487" data-name="Group 5487" transform="translate(382.141 909.725)">
        <path id="Path_5049" data-name="Path 5049" d="M.485,7.062a25.958,25.958,0,0,0,3.246,6.581c1.719,2.171,4.236,2.326,5.395-.384a15.118,15.118,0,0,0,.583-8.321A6.071,6.071,0,0,0,7.628.91a4.747,4.747,0,0,0-6.4.755,4.866,4.866,0,0,0-.746,5.4" transform="translate(2.649 14.968) rotate(-2)" fill="#c0c2bd"/>
        <path id="Path_5050" data-name="Path 5050" d="M.065,15.506a37.142,37.142,0,0,0,1.216,7.717c.7,2.553,1.646,7.338,4.527,8.405a5.841,5.841,0,0,0,2.644.242c3.927-.244,8.105-2.857,10.6-5.771,4.653-5.43,4.641-18.606-.021-23.714C14.778-2.274,1.249.125.34,7.558a45.366,45.366,0,0,0-.276,7.948" transform="translate(5.099 10.077) rotate(-2)" fill="#ce9d7c"/>
        <path id="Path_5051" data-name="Path 5051" d="M2.147,7.583a9.549,9.549,0,0,0,1.164.49,6.353,6.353,0,0,0,3.36-.161c1.608-.446,3.209-1.444,4.914-.868a7.8,7.8,0,0,0,3,.524,3.715,3.715,0,0,0,3.144-2.235,22.38,22.38,0,0,1,1.057-3.086A5.32,5.32,0,0,1,21.679,0c-.025,4.553-.192,11.123-2.488,13.8-2.5,2.914-8.815,5.58-12.739,5.827a5.891,5.891,0,0,1-2.643-.241C.928,18.321,1.122,11.478.427,8.924.267,8.339.128,7.752,0,7.159a3.715,3.715,0,0,1,2.147.424" transform="translate(6.451 24.337) rotate(-2)" fill="#c0c2bd"/>
        <path id="Path_5052" data-name="Path 5052" d="M5.031,15.653c.17.651.309,3.641.517,4.219s1.521-.342,1.521-.342C7.994,18.557,6.8,16.358,8.414,16c1.752-.385-.806,10.547-.767,11.742,1.342-1.426,6.059-8.78,7.051-13.874.735-3.77-.121-6.049-.992-7.509C9.473-.718,7.945-.272,4.019.277,2.226.528.855,4.572.2,6.343c-.7,1.9.586,3.345,1.886,4.562,1.624,1.524,2.146,1.762,2.946,4.748" transform="translate(18.979 5.746) rotate(-2)" fill="#c0c2bd"/>
        <path id="Path_5053" data-name="Path 5053" d="M3.6.5C5.43,2.09,4.732,7.152,1.419,9.034.5,8.149.345,5.6.15,4.357A4.86,4.86,0,0,1,.517.855,2.2,2.2,0,0,1,3.6.5" transform="translate(25.86 21.05) rotate(-2)" fill="#ce9d7c"/>
        <path id="Path_5054" data-name="Path 5054" d="M21.919,9.275c.025,2.219-4.664,7.319-7.009,7.093a17.638,17.638,0,0,0,.642-3.3,47.563,47.563,0,0,1-7.037,4.591c-.959.435-3.517,1.314-4.344.612-.539-.456-.184-1.395-.507-1.913-.6-.969-.551-.387-1.492-.932-5.156-3.006-.018-11.19,3.915-13.46C10.049-.325,16.1-.538,20.388.934a8.074,8.074,0,0,1,4.646,3.352c.759,1.4,1.564,6.232-.692,6.666Z" transform="translate(0 0.901) rotate(-2)" fill="#c0c2bd"/>
      </g>
    </g>
    <g id="Group_6866" data-name="Group 6866">
      <path id="Path_5728" data-name="Path 5728" d="M642.162,32.467v323.89h19.159V58.7h52.414V356.357h23.858V32.467Z" transform="translate(198.443 318.618)" fill="#b5c7d3"/>
      <path id="Path_5733" data-name="Path 5733" d="M670.3,356.357V57.712h48.432" transform="translate(198.443 318.618)" fill="none" stroke="#b5c7d3" stroke-miterlimit="10" stroke-width="1"/>
      <path id="Path_5734" data-name="Path 5734" d="M774.166,380.452V57.712H670.3" transform="translate(170.302 293.522)" fill="none" stroke="#b5c7d3" stroke-miterlimit="10" stroke-width="1"/>
      <g id="Group_6634" data-name="Group 6634" transform="translate(-3908.1 15331)">
        <ellipse id="Ellipse_514" data-name="Ellipse 514" cx="3.763" cy="9.921" rx="3.763" ry="9.921" transform="translate(4807.421 -14806)" fill="#fff"/>
        <line id="Line_229" data-name="Line 229" x1="9.921" transform="translate(4797.5 -14796.079)" fill="none" stroke="#fff" stroke-linecap="round" stroke-width="5"/>
      </g>
    </g>
    <g id="Group_6888" data-name="Group 6888" transform="translate(84.563)">
      <g id="Group_1527" data-name="Group 1527" transform="translate(892.255 522.963)">
        <path id="Path_1898" data-name="Path 1898" d="M5646.131,7091.267h-7.474a1.955,1.955,0,0,1-1.95-1.95h0a1.954,1.954,0,0,1,1.95-1.949h7.474a1.955,1.955,0,0,1,1.95,1.949h0A1.956,1.956,0,0,1,5646.131,7091.267Z" transform="translate(-5606 -7052.257)" fill="#d8dce5"/>
        <path id="Path_1899" data-name="Path 1899" d="M5566.648,6987.851H5534.8c-6.254,0-13.161,2.126-13.161,6.806s6.9,10.21,13.161,10.21h31.845c6.256,0,13.161-5.531,13.161-10.21S5572.9,6987.851,5566.648,6987.851Z" transform="translate(-5514.981 -6967.807)" fill="#fff"/>
        <path id="Rectangle_630" data-name="Rectangle 630" d="M2.294,0H69.2a2.294,2.294,0,0,1,2.294,2.294v0a3.761,3.761,0,0,1-3.761,3.761H3.761A3.761,3.761,0,0,1,0,2.294v0A2.294,2.294,0,0,1,2.294,0Z" transform="translate(0 20)" fill="#d8dfe0"/>
        <g id="Group_1526" data-name="Group 1526" transform="translate(25.778 39.01)">
          <rect id="Rectangle_631" data-name="Rectangle 631" width="4.208" height="11.101" transform="translate(8.516 3.246)" fill="#e4e8ef"/>
          <rect id="Rectangle_632" data-name="Rectangle 632" width="11.101" height="5.21" rx="2.605" transform="translate(0 14.828)" fill="#e4e8ef"/>
          <path id="Path_1900" data-name="Path 1900" d="M5628.557,7174.333v2.517a2.409,2.409,0,0,0,2.4,2.4h1.95a.5.5,0,0,0,.5-.5v-6.325a.5.5,0,0,0-.5-.5h-1.95A2.409,2.409,0,0,0,5628.557,7174.333Z" transform="translate(-5625.331 -7158.159)" fill="#d8dce5"/>
          <path id="Path_1901" data-name="Path 1901" d="M5645.24,7184.857h7.694l-.842-9.218h-6.011Z" transform="translate(-5638.527 -7161.092)" fill="#e4e8ef"/>
          <path id="Path_1902" data-name="Path 1902" d="M5645.24,7219.746h7.695l-.419,2.955a3.463,3.463,0,0,1-3.429,2.976h0a3.461,3.461,0,0,1-3.427-2.976Z" transform="translate(-5638.527 -7195.981)" fill="#e4e8ef"/>
          <path id="Path_1903" data-name="Path 1903" d="M5647.324,7120.869h4.943a1.192,1.192,0,0,0,1.188-1.188h0a1.193,1.193,0,0,0-1.188-1.189h-4.943a1.193,1.193,0,0,0-1.189,1.189h0A1.192,1.192,0,0,0,5647.324,7120.869Z" transform="translate(-5639.236 -7115.886)" fill="#d8dce5"/>
          <path id="Path_1904" data-name="Path 1904" d="M5647.324,7166.64h4.943a1.193,1.193,0,0,0,1.188-1.189h0a1.192,1.192,0,0,0-1.188-1.188h-4.943a1.192,1.192,0,0,0-1.189,1.188h0A1.192,1.192,0,0,0,5647.324,7166.64Z" transform="translate(-5639.236 -7152.092)" fill="#d8dce5"/>
          <rect id="Rectangle_633" data-name="Rectangle 633" width="9.351" height="2.378" rx="1.189" transform="translate(5.884 22.576)" fill="#d8dce5"/>
          <path id="Path_1905" data-name="Path 1905" d="M5654.349,7106.026l-.774,2.913h-5.13l-.775-2.913Z" transform="translate(-5640.449 -7106.026)" fill="#e4e8ef"/>
        </g>
        <path id="Path_1906" data-name="Path 1906" d="M12.294,0H70.773a2.294,2.294,0,0,1,2.294,2.294h0a3.761,3.761,0,0,1-3.761,3.761H13.761A3.761,3.761,0,0,1,10,2.294h0A2.294,2.294,0,0,1,12.294,0Z" transform="translate(-1.578 20)" fill="#e8ecec"/>
      </g>
      <g id="Group_1528" data-name="Group 1528" transform="translate(923.365 521.495)">
        <rect id="Rectangle_634" data-name="Rectangle 634" width="6.713" height="21.067" transform="translate(1.051 0)" fill="#c1c3c5"/>
        <rect id="Rectangle_635" data-name="Rectangle 635" width="15.962" height="3.458" transform="translate(0 3.487)" fill="#c1c3c5"/>
        <rect id="Rectangle_636" data-name="Rectangle 636" width="3.604" height="1.648" transform="translate(11.241 6.894)" fill="#d8dce5"/>
        <rect id="Rectangle_641" data-name="Rectangle 641" width="1.763" height="21.067" transform="translate(1.051 0)" fill="#adadad"/>
      </g>
      <g id="Group_1530" data-name="Group 1530" transform="translate(340.232 45.029)">
        <rect id="Rectangle_638" data-name="Rectangle 638" width="7" height="26" transform="translate(562 439)" fill="#e4e8ef"/>
        <rect id="Rectangle_637" data-name="Rectangle 637" width="13" height="26" transform="translate(565 439)" fill="#fff"/>
        <rect id="Rectangle_639" data-name="Rectangle 639" width="3" height="3" transform="translate(570 465)" fill="#af0d11"/>
        <rect id="Rectangle_640" data-name="Rectangle 640" width="1" height="3" transform="translate(569 465)" fill="#840c0f"/>
      </g>
      <g id="Group_1532" data-name="Group 1532" transform="translate(323.232 45.029)">
        <rect id="Rectangle_638-2" data-name="Rectangle 638" width="7" height="26" transform="translate(562 439)" fill="#e4e8ef"/>
        <rect id="Rectangle_637-2" data-name="Rectangle 637" width="13" height="26" transform="translate(565 439)" fill="#fff"/>
        <rect id="Rectangle_639-2" data-name="Rectangle 639" width="3" height="3" transform="translate(570 465)" fill="#003340"/>
        <rect id="Rectangle_640-2" data-name="Rectangle 640" width="1" height="3" transform="translate(569 465)"/>
      </g>
      <g id="Group_1531" data-name="Group 1531" transform="translate(372.745 23.182)">
        <rect id="Rectangle_638-3" data-name="Rectangle 638" width="13" height="36" transform="translate(562 439.348)" fill="#e4e8ef"/>
        <rect id="Rectangle_637-3" data-name="Rectangle 637" width="24" height="36" transform="translate(567 439.348)" fill="#fff"/>
        <rect id="Rectangle_642" data-name="Rectangle 642" width="20" height="7" rx="3.5" transform="translate(569 466.348)" fill="#d0d0d0"/>
      </g>
    </g>
    <g id="Group_6995" data-name="Group 6995" transform="translate(260 393.629)">
      <g id="Group_6994" data-name="Group 6994" clip-path="url(#clip-path-3)">
        <rect id="Rectangle_1875" data-name="Rectangle 1875" width="106.512" height="93.61" transform="translate(20.667)" fill="#fff"/>
        <rect id="Rectangle_1876" data-name="Rectangle 1876" width="20.667" height="93.61" fill="#f4f4f4"/>
        <rect id="Rectangle_1877" data-name="Rectangle 1877" width="97.216" height="25.596" transform="translate(25.879 3.268)" fill="#e5e5e5"/>
        <rect id="Rectangle_1878" data-name="Rectangle 1878" width="97.216" height="25.596" transform="translate(25.879 33.127)" fill="#e5e5e5"/>
        <rect id="Rectangle_1879" data-name="Rectangle 1879" width="97.216" height="25.596" transform="translate(25.879 62.986)" fill="#e5e5e5"/>
        <rect id="Rectangle_1880" data-name="Rectangle 1880" width="17.973" height="25.596" transform="translate(105.122 3.268)" fill="#f4f4f4"/>
        <rect id="Rectangle_1881" data-name="Rectangle 1881" width="17.973" height="25.596" transform="translate(105.122 33.127)" fill="#f4f4f4"/>
        <rect id="Rectangle_1882" data-name="Rectangle 1882" width="17.973" height="25.596" transform="translate(105.122 62.986)" fill="#f4f4f4"/>
        <rect id="Rectangle_1883" data-name="Rectangle 1883" width="35.537" height="8.578" transform="translate(85.185 19.955)" fill="#fff"/>
        <rect id="Rectangle_1884" data-name="Rectangle 1884" width="12.188" height="8.578" transform="translate(85.258 19.955)" fill="#c3d1d4"/>
        <rect id="Rectangle_1885" data-name="Rectangle 1885" width="35.537" height="1.185" transform="translate(85.185 27.347)" fill="#3175ae"/>
        <rect id="Rectangle_1886" data-name="Rectangle 1886" width="35.537" height="8.578" transform="translate(81.731 10.968)" fill="#fff"/>
        <rect id="Rectangle_1887" data-name="Rectangle 1887" width="12.188" height="8.578" transform="translate(81.804 10.968)" fill="#c3d1d4"/>
        <rect id="Rectangle_1888" data-name="Rectangle 1888" width="35.537" height="1.185" transform="translate(81.731 18.361)" fill="#3175ae"/>
        <rect id="Rectangle_1889" data-name="Rectangle 1889" width="35.537" height="8.578" transform="translate(56.719 19.955)" fill="#fff"/>
        <rect id="Rectangle_1890" data-name="Rectangle 1890" width="12.188" height="8.578" transform="translate(56.791 19.955)" fill="#c3d1d4"/>
        <rect id="Rectangle_1891" data-name="Rectangle 1891" width="35.537" height="1.185" transform="translate(56.719 27.347)" fill="#3175ae"/>
        <rect id="Rectangle_1892" data-name="Rectangle 1892" width="35.537" height="8.578" transform="translate(55.337 10.968)" fill="#fff"/>
        <rect id="Rectangle_1893" data-name="Rectangle 1893" width="12.188" height="8.578" transform="translate(55.41 10.968)" fill="#c3d1d4"/>
        <rect id="Rectangle_1894" data-name="Rectangle 1894" width="35.537" height="1.185" transform="translate(55.337 18.361)" fill="#3175ae"/>
        <rect id="Rectangle_1895" data-name="Rectangle 1895" width="35.537" height="8.578" transform="translate(27.561 19.955)" fill="#fff"/>
        <rect id="Rectangle_1896" data-name="Rectangle 1896" width="12.188" height="8.578" transform="translate(27.634 19.955)" fill="#c3d1d4"/>
        <rect id="Rectangle_1897" data-name="Rectangle 1897" width="35.537" height="1.185" transform="translate(27.561 27.347)" fill="#3175ae"/>
        <g id="Group_6993" data-name="Group 6993">
          <g id="Group_6992" data-name="Group 6992" clip-path="url(#clip-path-3)">
            <g id="Group_6981" data-name="Group 6981" transform="translate(98.917 48.613)" opacity="0.34">
              <g id="Group_6980" data-name="Group 6980">
                <g id="Group_6979" data-name="Group 6979" clip-path="url(#clip-path-5)">
                  <g id="Group_6978" data-name="Group 6978" transform="translate(0.001)">
                    <g id="Group_6977" data-name="Group 6977" clip-path="url(#clip-path-6)">
                      <path id="Path_7177" data-name="Path 7177" d="M160.344,77.955H143.892a.691.691,0,0,1-.691-.691V71.073a.691.691,0,0,1,.691-.691h16.452a.691.691,0,0,1,.691.691v6.192a.691.691,0,0,1-.691.691" transform="translate(-143.202 -70.379)" fill="#1ba80c"/>
                    </g>
                  </g>
                </g>
              </g>
            </g>
            <g id="Group_6986" data-name="Group 6986" transform="translate(97.351 47.061)" opacity="0.34">
              <g id="Group_6985" data-name="Group 6985">
                <g id="Group_6984" data-name="Group 6984" clip-path="url(#clip-path-7)">
                  <g id="Group_6983" data-name="Group 6983">
                    <g id="Group_6982" data-name="Group 6982" clip-path="url(#clip-path-8)">
                      <path id="Path_7178" data-name="Path 7178" d="M156.783,77.261H141.626a.691.691,0,0,1-.691-.691V68.827a.691.691,0,0,1,.691-.691h15.157a.691.691,0,0,1,.691.691V76.57a.691.691,0,0,1-.691.691" transform="translate(-140.935 -68.132)" fill="#1ba80c"/>
                    </g>
                  </g>
                </g>
              </g>
            </g>
            <g id="Group_6991" data-name="Group 6991" transform="translate(93.597 48.695)" opacity="0.34">
              <g id="Group_6990" data-name="Group 6990">
                <g id="Group_6989" data-name="Group 6989" clip-path="url(#clip-path-9)">
                  <g id="Group_6988" data-name="Group 6988">
                    <g id="Group_6987" data-name="Group 6987" clip-path="url(#clip-path-9)">
                      <path id="Path_7179" data-name="Path 7179" d="M151.348,79.621H136.191a.691.691,0,0,1-.691-.691V71.187a.691.691,0,0,1,.691-.691h15.157a.691.691,0,0,1,.691.691V78.93a.691.691,0,0,1-.691.691" transform="translate(-135.5 -70.496)" fill="#1ba80c"/>
                    </g>
                  </g>
                </g>
              </g>
            </g>
          </g>
        </g>
        <path id="Path_7180" data-name="Path 7180" d="M147.7,80.57H135.445V71.176l12.254,3.4Z" transform="translate(-41.886 -22.011)" fill="#2c6b96"/>
        <rect id="Rectangle_1905" data-name="Rectangle 1905" width="11.846" height="6.039" transform="translate(105.813 52.52)" fill="#3175ae"/>
        <rect id="Rectangle_1906" data-name="Rectangle 1906" width="8.986" height="0.817" transform="translate(107.291 54.757)" fill="#fff"/>
        <rect id="Rectangle_1907" data-name="Rectangle 1907" width="4.289" height="80.264" transform="translate(21.59 7.296)" fill="#fff"/>
        <path id="Path_7181" data-name="Path 7181" d="M125.89,77.748h-9.175L115.38,61.757h11.845Z" transform="translate(-35.681 -19.098)" fill="#3a789b"/>
        <path id="Path_7183" data-name="Path 7183" d="M111.017,77.5h-9.491l-1.382-16.543H112.4Z" transform="translate(-30.969 -18.851)" fill="#2c6b96"/>
        <path id="Path_7184" data-name="Path 7184" d="M64.215,122.224h-7.5l-1.092-13.071h9.682Z" transform="translate(7.004 -63.573)" fill="#b5a639"/>
        <path id="Path_7185" data-name="Path 7185" d="M50.641,121.313H41.976l-1.261-15.1H51.9Z" transform="translate(14.615 -62.663)" fill="#cec149"/>
        <path id="Path_7187" data-name="Path 7187" d="M52.178,77.5H42.687L41.306,60.959H53.56Z" transform="translate(-12.774 -18.851)" fill="#2c6b96"/>
        <rect id="Rectangle_1908" data-name="Rectangle 1908" width="8.986" height="19.811" transform="translate(105.157 68.76)" fill="#fff"/>
        <rect id="Rectangle_1909" data-name="Rectangle 1909" width="5.046" height="19.811" transform="translate(100.222 68.76)" fill="#c3d1d4"/>
        <rect id="Rectangle_1910" data-name="Rectangle 1910" width="8.986" height="8.272" transform="translate(88.272 80.299)" fill="#fff"/>
        <rect id="Rectangle_1911" data-name="Rectangle 1911" width="5.046" height="8.272" transform="translate(83.337 80.299)" fill="#c3d1d4"/>
        <rect id="Rectangle_1912" data-name="Rectangle 1912" width="15.755" height="5.208" transform="translate(64.143 83.362)" fill="#fff"/>
        <rect id="Rectangle_1913" data-name="Rectangle 1913" width="8.846" height="5.208" transform="translate(55.491 83.362)" fill="#c3d1d4"/>
        <rect id="Rectangle_1914" data-name="Rectangle 1914" width="8.986" height="8.272" transform="translate(89.653 72.283)" fill="#fff"/>
        <rect id="Rectangle_1915" data-name="Rectangle 1915" width="5.046" height="8.272" transform="translate(84.718 72.283)" fill="#c3d1d4"/>
        <rect id="Rectangle_1916" data-name="Rectangle 1916" width="8.986" height="8.272" transform="translate(65.703 75.142)" fill="#fff"/>
        <rect id="Rectangle_1917" data-name="Rectangle 1917" width="5.046" height="8.272" transform="translate(60.768 75.142)" fill="#c3d1d4"/>
      </g>
    </g>
    <g id="Group_6996" data-name="Group 6996" transform="translate(20)">
      <rect id="Rectangle_1919" data-name="Rectangle 1919" width="36" height="96" transform="translate(187 563)" fill="#936b4e"/>
      <rect id="Rectangle_1920" data-name="Rectangle 1920" width="134" height="96" transform="translate(223 563)" fill="#e2b67c"/>
      <rect id="Rectangle_1921" data-name="Rectangle 1921" width="128" height="28" transform="translate(226 628)" fill="#d1a973"/>
      <rect id="Rectangle_1922" data-name="Rectangle 1922" width="128" height="28" transform="translate(226 597)" fill="#d1a973"/>
      <rect id="Rectangle_1923" data-name="Rectangle 1923" width="128" height="27" transform="translate(226 567)" fill="#d1a973"/>
      <path id="Path_7188" data-name="Path 7188" d="M0,0H9L8,16H1Z" transform="translate(191 659)" fill="#936b4e"/>
      <path id="Path_7190" data-name="Path 7190" d="M0,0H9L8,16H1Z" transform="translate(225 659)" fill="#e2b67c"/>
      <path id="Path_7189" data-name="Path 7189" d="M0,0H9L8,16H1Z" transform="translate(319 659)" fill="#936b4e"/>
      <path id="Path_7191" data-name="Path 7191" d="M0,0H9L8,16H1Z" transform="translate(346 659)" fill="#e2b67c"/>
      <circle id="Ellipse_523" data-name="Ellipse 523" cx="4" cy="4" r="4" transform="translate(286 577)" fill="#e2b67c"/>
      <circle id="Ellipse_524" data-name="Ellipse 524" cx="4" cy="4" r="4" transform="translate(286 607)" fill="#e2b67c"/>
      <circle id="Ellipse_525" data-name="Ellipse 525" cx="4" cy="4" r="4" transform="translate(286 637)" fill="#e2b67c"/>
    </g>
    <g id="Group_7000" data-name="Group 7000" transform="translate(-6)">
      <path id="Path_7210" data-name="Path 7210" d="M6.689,0H8V19H0Z" transform="translate(318 544)" fill="#818080"/>
      <g id="Group_6999" data-name="Group 6999" transform="translate(2 5)">
        <g id="Rectangle_1924" data-name="Rectangle 1924" transform="translate(321 530)" fill="#efefef" stroke="#9b9b9b" stroke-width="2">
          <rect width="20" height="28" stroke="none"/>
          <rect x="1" y="1" width="18" height="26" fill="none"/>
        </g>
        <g id="Group_6998" data-name="Group 6998" transform="translate(308.883 537.657)">
          <g id="Group_6997" data-name="Group 6997" transform="translate(12.117 -4)" clip-path="url(#clip-path-11)">
            <path id="Path_7192" data-name="Path 7192" d="M67.827,30.007s-.135,2.376-1.2,3.21a2.26,2.26,0,0,0,.231,3.843c1.806,1.2,2.5,1.12,2.5,1.12l1.3-5.334Z" transform="translate(-60.674 -21.025)" fill="#131313"/>
            <path id="Path_7193" data-name="Path 7193" d="M49.14,63.561S46.96,69,46.351,71.082a24.716,24.716,0,0,0-2.265,3.706C43.006,76.96,41.4,80.3,41.4,80.3l.837.567s5.969-7.354,6.383-8.3c0,0,3.167-7.41,4.357-10.944Z" transform="translate(-41.403 -46.135)" fill="#c2c2c2"/>
            <path id="Path_7194" data-name="Path 7194" d="M34.613,149.162s1.329,1.008,1.234,1.409a5.543,5.543,0,0,1-.74,1.374s.274-.016.248.143c0,0-.331.749-.521.841a.932.932,0,0,1-.934-.019l-.191-.245s-.049.112-.261.038-.377-.537-.377-.537-.188.12-.285,0a1.339,1.339,0,0,1-.146-.465s-.1.021-.168-.169a1.045,1.045,0,0,1,.2-.74c.139-.2,1.451-1.125,1.942-1.627" transform="translate(-34.295 -115.675)" fill="#c2c2c2"/>
            <path id="Path_7195" data-name="Path 7195" d="M71.662,4.871a3.645,3.645,0,0,0-1.572,2.7l.218,1.666a14.312,14.312,0,0,1-.961-2.18c-.232-.83-.163-3.98,2.616-4.211Z" transform="translate(-63.533 0.553)" fill="#131313"/>
            <path id="Path_7201" data-name="Path 7201" d="M52.442,138.022l-1.114.668a1.9,1.9,0,0,1,2.228.669,25.333,25.333,0,0,0-5.57,5.347s6.714-2.919,7.733,1c0,0,6.741-.956,6.949-4.1a8.639,8.639,0,0,0-.532-4.337,97.208,97.208,0,0,0-9.694.754" transform="translate(-46.632 -106.227)" fill="#b5b5b5"/>
            <path id="Path_7202" data-name="Path 7202" d="M82.391,33.035c.395-.186.684-.363.69-.485,0,0,.226-2.3.361-3.632.041-.4,2.449-1.757,2.449-1.757s.081,4.036.705,5.425c0,0,.716.224,1.8.586v3.772H82.391Z" transform="translate(-73.962 -18.764)" fill="#a9a9a9"/>
            <path id="Path_7203" data-name="Path 7203" d="M103.092,53.54s.759.315,1.515.618a3.343,3.343,0,0,1,2.07,2.391,8.6,8.6,0,0,1-.581,5.547l-2.382-.452s-1.45-6.149-.621-8.1" transform="translate(-90.202 -39.718)" fill="#a9a9a9"/>
            <path id="Path_7204" data-name="Path 7204" d="M88.454,30.075c.022.479.059,1.168.128,1.889-.535,1.093-1.94,3.664-2.992,2.92a.145.145,0,0,0,.032-.074s.153-1.548.282-2.842l2.35-1.963Z" transform="translate(-76.502 -21.024)" fill="#919191"/>
            <path id="Path_7205" data-name="Path 7205" d="M73.735,53.886c.008-.168-1.076-.346-1.076-.346.248,4.778-2.948,4.257-2.948,4.257-2.221-.826-.621-4.194-.621-4.194a2.036,2.036,0,0,0-.843.358,64.933,64.933,0,0,0-3.314,6.254,2.488,2.488,0,0,0,.027,1.495,3.024,3.024,0,0,0,1.474,1.775,70.806,70.806,0,0,1-.247,7.13s-.731.784-.343.891c6.475,1.775,10.311-.059,10.311-.059a31.913,31.913,0,0,1-.964-4.4,19.3,19.3,0,0,1,.964-5.018s-2.817-.461-2.421-8.146" transform="translate(-60.025 -39.718)" fill="#fff"/>
            <path id="Path_7206" data-name="Path 7206" d="M75.007,16.487a.921.921,0,0,0,.674.029,5.368,5.368,0,0,0,2.762-2.927.784.784,0,0,0,.832-.636c.243-.734-.072-1.76-.842-1.076,0,0,.206-3.227-1.212-3.423s-4.13-.68-4.255,1.614a18.356,18.356,0,0,0,.346,3.784,6.485,6.485,0,0,0,1.7,2.635" transform="translate(-66.473 -3.761)" fill="#b8b8b8"/>
            <path id="Path_7207" data-name="Path 7207" d="M111.419,65.971s1.8,6.927,2.251,9.045a14.319,14.319,0,0,1,.251,3.865,14.87,14.87,0,0,1-.957,4.769l-1.743.5s.886-8.656-.162-10.258c0,0-1.329-4.881-2.252-8.494Z" transform="translate(-94.945 -49.141)" fill="#a9a9a9"/>
            <path id="Path_7208" data-name="Path 7208" d="M118.39,149.489a1.192,1.192,0,0,1,1.374.459,12.58,12.58,0,0,0,.5,1.429s.267.888.163,1.071a.651.651,0,0,1-.61.407l-.3-.092s-.031.126-.247.186-.561-.236-.561-.236-.086.206-.235.161a1.354,1.354,0,0,1-.384-.3s-.074.077-.234-.043a1.051,1.051,0,0,1-.257-.723c0-.242.668-1.626.788-2.318" transform="translate(-101.931 -115.887)" fill="#a9a9a9"/>
            <path id="Path_7209" data-name="Path 7209" d="M78.834,1.848s-.3,1.374.7,1.791,2.788,1.018,3,2.129-1.284,6.085,1.2,5.242l1.8.562a5.8,5.8,0,0,0,0-3.627c-.658-1.9-1.028-2.13-.7-3.334A3.788,3.788,0,0,0,82.31.352C80-.656,78.759.721,78.792,1.7" transform="translate(-71.102 2.811)" fill="#131313"/>
          </g>
        </g>
      </g>
    </g>
    <g id="Group_7617" data-name="Group 7617" transform="translate(5 14)">
      <g id="Rectangle_2366" data-name="Rectangle 2366" transform="translate(790 450)" fill="none" stroke="#b5c7d3" stroke-width="2">
        <rect width="24" height="68" rx="5" stroke="none"/>
        <rect x="1" y="1" width="22" height="66" rx="4" fill="none"/>
      </g>
      <rect id="Rectangle_2350" data-name="Rectangle 2350" width="26" height="15" transform="translate(793 459)" fill="#fff"/>
      <rect id="Rectangle_2358" data-name="Rectangle 2358" width="26" height="15" transform="translate(793 476)" fill="#fff"/>
      <rect id="Rectangle_2362" data-name="Rectangle 2362" width="26" height="15" transform="translate(793 493)" fill="#fff"/>
      <rect id="Rectangle_2351" data-name="Rectangle 2351" width="8" height="15" transform="translate(785 459)" fill="#e5e5e5"/>
      <rect id="Rectangle_2360" data-name="Rectangle 2360" width="8" height="15" transform="translate(785 476)" fill="#e5e5e5"/>
      <rect id="Rectangle_2361" data-name="Rectangle 2361" width="8" height="15" transform="translate(785 493)" fill="#e5e5e5"/>
      <rect id="Rectangle_2352" data-name="Rectangle 2352" width="18" height="5" rx="1" transform="translate(797 464)" fill="#656e71"/>
      <rect id="Rectangle_2367" data-name="Rectangle 2367" width="18" height="5" rx="1" transform="translate(797 481)" fill="#656e71"/>
      <rect id="Rectangle_2368" data-name="Rectangle 2368" width="18" height="5" rx="1" transform="translate(797 498)" fill="#656e71"/>
      <rect id="Rectangle_2353" data-name="Rectangle 2353" width="1" height="15" transform="translate(793 459)" fill="#76a1ac"/>
      <rect id="Rectangle_2372" data-name="Rectangle 2372" width="1" height="15" transform="translate(818 459)" fill="#76a1ac"/>
      <rect id="Rectangle_2369" data-name="Rectangle 2369" width="1" height="15" transform="translate(785 459)" fill="#76a1ac"/>
      <rect id="Rectangle_2356" data-name="Rectangle 2356" width="1" height="15" transform="translate(793 476)" fill="#ac8d54"/>
      <rect id="Rectangle_2373" data-name="Rectangle 2373" width="1" height="15" transform="translate(818 476)" fill="#ac8d54"/>
      <rect id="Rectangle_2370" data-name="Rectangle 2370" width="1" height="15" transform="translate(785 476)" fill="#ac8d54"/>
      <rect id="Rectangle_2363" data-name="Rectangle 2363" width="1" height="15" transform="translate(793 493)" fill="#ac7676"/>
      <rect id="Rectangle_2374" data-name="Rectangle 2374" width="1" height="15" transform="translate(818 493)" fill="#ac7676"/>
      <rect id="Rectangle_2371" data-name="Rectangle 2371" width="1" height="15" transform="translate(785 493)" fill="#ac7676"/>
    </g>
    <g id="Rectangle_2375" data-name="Rectangle 2375" transform="translate(282 395)" fill="#fff" stroke="#dedede" stroke-width="1">
      <rect width="33" height="91" stroke="none"/>
      <rect x="0.5" y="0.5" width="32" height="90" fill="none"/>
    </g>
    <g id="Rectangle_2377" data-name="Rectangle 2377" transform="translate(385 395)" fill="#f4f4f4" stroke="#dedede" stroke-width="1">
      <rect width="33" height="91" stroke="none"/>
      <rect x="0.5" y="0.5" width="32" height="90" fill="none"/>
    </g>
    <g id="Rectangle_2376" data-name="Rectangle 2376" transform="translate(310 395)" fill="#f4f4f4" stroke="#dedede" stroke-width="1">
      <rect width="5" height="91" stroke="none"/>
      <rect x="0.5" y="0.5" width="4" height="90" fill="none"/>
    </g>
    <g id="Group_7618" data-name="Group 7618">
      <g id="Ellipse_532" data-name="Ellipse 532" transform="translate(302 439)" fill="#fff" stroke="#dedede" stroke-width="1">
        <circle cx="2" cy="2" r="2" stroke="none"/>
        <circle cx="2" cy="2" r="1.5" fill="none"/>
      </g>
      <g id="Ellipse_533" data-name="Ellipse 533" transform="translate(300 438)" fill="#fff" stroke="#dedede" stroke-width="1">
        <ellipse cx="2" cy="3" rx="2" ry="3" stroke="none"/>
        <ellipse cx="2" cy="3" rx="1.5" ry="2.5" fill="none"/>
      </g>
    </g>
    <g id="Rectangle_2378" data-name="Rectangle 2378" transform="translate(414 395)" fill="#fff" stroke="#dedede" stroke-width="1">
      <rect width="4" height="91" stroke="none"/>
      <rect x="0.5" y="0.5" width="3" height="90" fill="none"/>
    </g>
    <rect id="Rectangle_2379" data-name="Rectangle 2379" width="3" height="5" transform="translate(384 405)" fill="#dedede" opacity="0.9"/>
    <rect id="Rectangle_2380" data-name="Rectangle 2380" width="3" height="5" transform="translate(384 465)" fill="#dedede" opacity="0.9"/>
    <g id="Group_8645" data-name="Group 8645" transform="translate(438.981 423.506)">
      <g id="Group_8644" data-name="Group 8644" clip-path="url(#clip-path-12)">
        <path id="Path_8741" data-name="Path 8741" d="M14.163,228.568c.7-3.2,5.97-4.23,6.633-7.437.8-3.848,2.641-6.346,4.615-9.745a3.286,3.286,0,0,0,.65-2.126,3.03,3.03,0,0,0-.733-1.327,22.885,22.885,0,0,0-2.086-2.228,7.251,7.251,0,0,0-3.553-2.066,3.247,3.247,0,0,0-3.288,1.32,2.856,2.856,0,0,0-.768,1.21c-2.369,5.712-7.356,9.9-10.591,15.165a1.816,1.816,0,0,0,.112,2.4,23.261,23.261,0,0,0,12.161,9.583" fill="#d9dde2"/>
        <path id="Path_8742" data-name="Path 8742" d="M81.167,126.872A17.374,17.374,0,0,0,69.844,115.14a1.881,1.881,0,0,0-1.9.461c-.615-.4-1.243-.78-1.888-1.13-3.392-1.838-7.651-2.962-11.032-1.106-2.919,1.6-2.054,4.959-3.053,8.138-2.594,8.259-3.634,16.97-6.577,25.112-3.078,8.516-10.443,16.141-14.913,24.016-5.816,10.249-17.39,30.488-21.227,41.63a2.192,2.192,0,0,0-.144,1.472,2.11,2.11,0,0,0,.781.857,34.668,34.668,0,0,0,11.446,5.593,2.641,2.641,0,0,0,1.277.128,2.76,2.76,0,0,0,1.274-.877c5.257-5.328,17.219-20.11,22.476-25.439,3.952-3.849,5.364-7.931,8.826-12.226C61.833,173.183,64.8,163.182,70,153.653c2.276-4.174,8.546-8.3,10.136-12.78s2.3-9.417,1.034-14" fill="#75959d"/>
        <path id="Path_8743" data-name="Path 8743" d="M23.309,217.891q1.4.227,2.773.591a17.688,17.688,0,0,1-4.784,5.2,2.5,2.5,0,0,1-.9.466,2.689,2.689,0,0,1-1.548-.288c-4.411-1.785-8.959-3.876-11.813-7.682-.917-1.222-.033-2.974.686-4.144a1.935,1.935,0,0,1,2.584-.9c.062.03.122.064.181.1,2.756,1.218,5.037,3.534,7.774,4.884a20.972,20.972,0,0,0,5.047,1.773" fill="#e4e8ef"/>
        <path id="Path_8744" data-name="Path 8744" d="M108.1,240.679c-1.793-1.752-4.8-6.572-5.922-8.813a24.224,24.224,0,0,1-1.4-4.11c-.65-2.217-1.485-4.379-2.319-6.53a.834.834,0,0,0-.28-.428.79.79,0,0,0-.644-.008,6.655,6.655,0,0,0-1.951.964,10.62,10.62,0,0,0-3.6,2.17,2.032,2.032,0,0,0-.532.671,1.913,1.913,0,0,0-.116.768,13.666,13.666,0,0,0,.572,3.234c.906,3.562,1.564,7.354.519,10.878a1.406,1.406,0,0,0-.091.685,1.324,1.324,0,0,0,.608.717c1.706,1.224,3.6,2.439,5.7,2.39a7.9,7.9,0,0,0,2.886-.729c2.067-.883,5,.955,6.562-.662.178-.185-.682-1.453-.706-1.708-.016-.217.869.656.717.511" fill="#b7b9bb"/>
        <path id="Path_8745" data-name="Path 8745" d="M74.216,110.719a15.5,15.5,0,0,1,4.26,4.475c5,7.429,6.477,16.585,8.559,25.3,2.529,10.587,6.116,20.921,8.159,31.613,2.673,13.975,8.661,44.336,8.642,58.564a54.812,54.812,0,0,1-12.768,5.141c-.931-3.45-6.077-14.858-7.8-17.989-10.191-18.564-7.369-49.16-18.75-67.02-3.653-5.732-7.613-10.845-10.248-17.111-1.358-3.227-3.649-6.677-3.76-10.178-.159-2.331-1.288-4.666-.351-6.807,1.377-2.828.23-4.84,3.14-6.033,5.923-2.428,15.256-3.621,20.917.045" fill="#86a8b1"/>
        <path id="Path_8746" data-name="Path 8746" d="M91.421,239.828c1.31-1.367,3.276-1.817,5.092-2.353a34.94,34.94,0,0,0,7.8-3.38.958.958,0,0,0,.412-.37.976.976,0,0,0,.049-.479l-.449-6.818a38.712,38.712,0,0,1-4.2,2.683,67.281,67.281,0,0,1-8.191,4.257c-1.007.412-2.436.529-2.273,1.832a19.877,19.877,0,0,0,1.765,4.628" fill="#d9dde2"/>
        <path id="Path_8747" data-name="Path 8747" d="M89.271,89.189c1.1-.566,3.513-1.022,4.657-.554,1.256.147,3.954,5.211,14.775,8.8a1.671,1.671,0,0,1,.943.743,1.579,1.579,0,0,1,.037.824,23.279,23.279,0,0,1-.56,2.756A3.952,3.952,0,0,1,107.885,104a3.881,3.881,0,0,1-2.6.508c-5.444-2.756-15.6-4.562-16.141-4.875a7.427,7.427,0,0,1-1.516-1.291,8.27,8.27,0,0,1-1.39-1.718,2.966,2.966,0,0,1-.363-2.133c.384-1.488,2.008-2.3,3.2-3.055,1.273-.8-1.184-1.594.2-2.25" fill="#63514e"/>
        <path id="Path_8748" data-name="Path 8748" d="M92.708,76.068s-.246,7.44.444,10.753a5.132,5.132,0,0,0,1.367,2.663l-5.4,10.09S70.976,92.81,85.279,77.99c.163-.168,7.429-1.922,7.429-1.922" fill="#63514e"/>
        <path id="Path_8749" data-name="Path 8749" d="M116.359,94.448l-6.975,7.177-6.169,2.136,7.62-7.3Z" fill="#666"/>
        <path id="Path_8750" data-name="Path 8750" d="M93.513,68.992c-.2,3.555-.667,8.178.186,11.635.6,2.163-.769,3.351-2.284,4.053-9.364,4.339-12.189-.954-12.906-7.62a29.642,29.642,0,0,1,2.975-17.309c1.187-2.172,4.11-9.218,6.126-7.4a16,16,0,0,1,4.568,5.8c1.435,3.409,1.535,7.2,1.335,10.841" fill="#d62255"/>
        <path id="Path_8751" data-name="Path 8751" d="M87.912,70.747c-.307-1.165-.933-2.215-1.2-3.407-.559-2.47.048-5,.112-7.5.107-4.137-.35,1.242,1.374-2.618A25.331,25.331,0,0,0,85.432,54.4c-2.016-1.814-4.939-4.769-6.127-2.6a29.642,29.642,0,0,0-2.974,17.309c.713,6.663-.657,11.061,1.963,17.233.224.659,7.146,1.183,13.155-1.681-1.476-1.817-3.016-11.953-3.537-13.914" fill="#8e0e32"/>
        <path id="Path_8752" data-name="Path 8752" d="M113.419,98.021a3.314,3.314,0,0,1,1.02.117,1.115,1.115,0,0,1,.731.674,1.241,1.241,0,0,1-.857,1.364,14.974,14.974,0,0,1-1.728.373,2.09,2.09,0,0,1,1.128,1.44,1.1,1.1,0,0,1-.171.936,1.3,1.3,0,0,1-.568.338,5.129,5.129,0,0,1-1.46.289,1.88,1.88,0,0,1,.589,1.454.551.551,0,0,1-.094.317.618.618,0,0,1-.324.179,9.314,9.314,0,0,1-1.725.353.851.851,0,0,1,.194,1.187.793.793,0,0,1-.058.072,1.444,1.444,0,0,1-1.135.293,9.441,9.441,0,0,1-1.927-.37,27.79,27.79,0,0,1-3.995-1.441,4.671,4.671,0,0,1-1.281-.763c-.134-.123-.263-.312-.18-.473a.439.439,0,0,1,.178-.161,4.036,4.036,0,0,1,3.132-.411c-.212-.346-.413-.827-.131-1.118a.932.932,0,0,1,.376-.2,12.739,12.739,0,0,1,3.764-.639,3.15,3.15,0,0,1-1.407-.721c-.114-.1-.23-.259-.154-.393a.34.34,0,0,1,.2-.135,8.083,8.083,0,0,1,3.04-.266,3.914,3.914,0,0,1-1.166-.5.539.539,0,0,1-.258-.28.467.467,0,0,1,.131-.4,2.154,2.154,0,0,1,1.206-.6,26.967,26.967,0,0,1,3.565-.512" fill="#7f6560"/>
        <path id="Path_8753" data-name="Path 8753" d="M66.611,40.382a17.937,17.937,0,0,0-6.341-.714,17.516,17.516,0,0,0-7.452,2.983,40.271,40.271,0,0,0-6.14,4.83A15.974,15.974,0,0,0,42.723,52.8c-.917,2.248,3.63,4.741,3.657,7.169.172,15.489,2.7,30.9,1.718,46.363-.36,5.657-2.058,26.646-2.063,32.316a1.217,1.217,0,0,0,.276.948c.353.307.9.124,1.328-.068,8.968-3.988,16.026,3.18,25.351,6.243,4.241,1.413,13.807,3.584,18.269,3.309-3.523-13.869-8.8-51.459-5.07-65.276,1.082-4,2.463-7.9,3.506-11.907a73.225,73.225,0,0,0,1.933-10.5c.658-6.013-4.66-9.957-9.1-13.29a45.91,45.91,0,0,0-15.917-7.722" fill="#b50f3e"/>
        <path id="Path_8754" data-name="Path 8754" d="M79.068,76.006c1.527-6.612,5.278-11.391,8.378-10.675S91.82,71.987,90.292,78.6,85.014,89.99,81.915,89.274s-4.374-6.656-2.847-13.268" fill="#b50f3e"/>
        <path id="Path_8755" data-name="Path 8755" d="M63.211,128.358c-4.078-.185-8.125-16.347-10.858-19.88-2.848-3.684-1.818-8.2-1.183-12.445.8-5.354,2.162-10.471,3.209-15.772,1.347-6.832-1.11-10.2-5.422-15.116a27.791,27.791,0,0,1-6.252-12.3c-.9,2.234,2.881,4.708,2.908,7.117.173,15.489,1.93,30.9.949,46.363-.359,5.657-.522,27.414-.527,33.084a1.217,1.217,0,0,0,.276.948c.353.307.9.124,1.328-.068,8.968-3.989,16.026,2.412,25.351,5.475,12.081,2.98,13.659,4.081,18.269,3.313C86,142.206,72.191,128.765,63.211,128.358" fill="#8e0e32"/>
        <path id="Path_8756" data-name="Path 8756" d="M83.679,50.453c-.108-1.814-.7-3.6-.567-5.411a1.461,1.461,0,0,0-.182-1.1,1.3,1.3,0,0,0-.452-.29l-7.817-3.6.476-1.337c-1.9,3.339-3.043,7.326-2.052,11.035a29.555,29.555,0,0,0,1.69,4.181Q76.1,57.1,77.1,60.384a35.093,35.093,0,0,1,1.627,6.357c1.1-1.143,1.42-2.8,1.853-4.324,1.131-3.992,3.345-7.825,3.1-11.964" fill="#d62255"/>
        <path id="Path_8757" data-name="Path 8757" d="M79.624,29.572a16.762,16.762,0,0,0,.615-4.2,1.579,1.579,0,0,0-.29-1.022c-.274-.307-2.425-7.488-4.7-7.764l.172.131c-3.717-.9-8.138.324-10.078,3.621-1.269,2.157-1.326,4.79-1.348,7.293l-.077,8.67a2.934,2.934,0,0,1-.154,1.1,2.471,2.471,0,0,1-.674.854,8.706,8.706,0,0,1-3.033,1.778l18.6,26.833q.6-7.633.452-15.3a2.415,2.415,0,0,0-.444-1.639c-.4-.429-1.047-.5-1.559-.793a2.775,2.775,0,0,1-1.261-2.2,8.191,8.191,0,0,1,.32-2.6Z" fill="#7f6560"/>
        <path id="Path_8758" data-name="Path 8758" d="M78.35,49.685a1.433,1.433,0,0,1,.321.249,2.408,2.408,0,0,1,.444,1.639q.148,7.654-.452,15.3l-11.99-17.3c5.5,2.813,9.288,1.785,11.677.112" fill="#fff"/>
        <path id="Path_8759" data-name="Path 8759" d="M38.883,90.043a1.356,1.356,0,0,0-.356-.8,1.386,1.386,0,0,0-1.019-.2c-1.387.1.464-.558.464-.558a10.534,10.534,0,0,0-5.7-.4A5.068,5.068,0,0,0,28.828,90.2a6.516,6.516,0,0,0-.589,3.4,223.029,223.029,0,0,0,2.436,30.736,11.45,11.45,0,0,1,.171,3.5,20.569,20.569,0,0,1-.612,2.235,24.685,24.685,0,0,0-.675,4.367c-.164,1.742.591,3.652.428,5.4a4.09,4.09,0,0,0,.484,2.97c.644.8,1.34.55,1.507-.46a3.513,3.513,0,0,0,.453,2.375,1.445,1.445,0,0,0,2.006.385h0a1.33,1.33,0,0,0,.127-.1,2.032,2.032,0,0,0,3.657,1.147,1.528,1.528,0,0,0,2.948.127,14.526,14.526,0,0,0,.07-2.075c.125-.757.66.017,1.473-.719.652-1.919-.62-5.919-.924-8.9a64.481,64.481,0,0,0-1.8-7.874c-2.758-11.961,1.269-24.626-1.1-36.659" fill="#7f6560"/>
        <path id="Path_8760" data-name="Path 8760" d="M34.9,65.794S28.4,84.639,28.179,88.634a45.914,45.914,0,0,0,1.675,14.02L38.33,92.9a19.375,19.375,0,0,0,5.322-11.63c.52-4.945-2.39-11.26-2.39-11.26Z" fill="#7f6560"/>
        <path id="Path_8761" data-name="Path 8761" d="M33.229,65.541c-1.317,4.416-.468,3.062-.872,4.253-.82,1.836-1.884,3.852-1.208,5.746a1.383,1.383,0,0,0-.661,2.669.94.94,0,0,0,.138,1.651c-1.117,1.031-2.321,2.72-1.482,3.988,2.363-.072,5.726-.049,8.091.07a7.378,7.378,0,0,1,2.637.473c.83.368,1.51,2.02,2.341,2.383.82.452,1.844-.732,2.454-1.442.781-1.261-.738-3.443.552-4.176a2.676,2.676,0,0,0,.652-.344c.27-.278.188-.727.147-1.113a7.721,7.721,0,0,1,1.246-4.257l.57-.764c2.4-4.384,5.532-4.909,7.386-9.551,1.419-3.772,2.477-7.8,2.04-11.8a13.368,13.368,0,0,0-3.067-7.284c-.668-.768-.806-2.252-1.927-2.208-1.087.042-3.737,1.69-4.522,2.365a47.785,47.785,0,0,0-10.75,13.334c-1.565,2.863-2.827,2.882-3.765,6.007" fill="#d62255"/>
        <path id="Path_8762" data-name="Path 8762" d="M17.8,226.136s1.526,6.027,1.959,9.648,6.05,8.476,3.045,12.273L.453,224.243s2.56-6.671,7.43-7.011c0,0,.551,5.126,3.708,6.458s4.186-1.256,6.213,2.446" fill="#2d1f29"/>
        <path id="Path_8763" data-name="Path 8763" d="M.452,224.245l-.389,1.088a1.077,1.077,0,0,0,.23,1.1L20.9,248.384a1.075,1.075,0,0,0,1.516.048l.4-.37Z" fill="#2d1f29"/>
        <path id="Path_8764" data-name="Path 8764" d="M105.611,238.017s5.439,3.012,8.373,5.176,10.319,1.391,11.031,6.18H92.351s-3.111-6.432-.026-10.217c0,0,4.114,3.107,7.247,1.717s1.951-3.911,6.039-2.856" fill="#382632"/>
        <path id="Path_8765" data-name="Path 8765" d="M92.353,249.374l.526,1.03a1.074,1.074,0,0,0,.956.584h30.114a1.075,1.075,0,0,0,1.076-1.074h0v-.538Z" fill="#382632"/>
        <path id="Path_8766" data-name="Path 8766" d="M89.344,14.955a3.382,3.382,0,0,0-1.6-3.915,12.427,12.427,0,0,1-2.1-.949c-1.313-1.032-1.317-3.445-2.925-3.9a6.668,6.668,0,0,0-2.328.2,8.531,8.531,0,0,1-3.677-1.063,10.377,10.377,0,0,0-5.8-.613A8.269,8.269,0,0,0,65.963,7.7,30.439,30.439,0,0,1,63.851,10.7c-1.467,1.493-3.768,1.972-5.14,3.553a4.66,4.66,0,0,0-.558,5.143c.873,1.6,2.655,2.59,3.415,4.25,1.225,2.672-.617,6.057.737,8.666a2.293,2.293,0,0,0,2.656,1.332c.807-.325,1.182-1.231,1.765-1.875a5.364,5.364,0,0,1,4.556-1.291,30.278,30.278,0,0,0,4.878.529,7.031,7.031,0,0,0,4.829-2.414c1.986-2.323,2.224-5.529,3.309-8.277a5.1,5.1,0,0,1,1.939-2.694c1.214-.768,2.614-1.168,3.107-2.668" fill="#382632"/>
        <path id="Path_8767" data-name="Path 8767" d="M77.707,37.162c-2.153-.519-1.34,13.187-1.34,13.187a39.232,39.232,0,0,0-9.213-6.942c-5.362-2.829-5.9-3.071-5.9-3.071s4.7-7.758,3.643-15.672c0,0,.338-3.368,4.406-.651Z" fill="#7f6560"/>
        <path id="Path_8768" data-name="Path 8768" d="M61.257,40.335s4.7-7.758,3.644-15.671c0,0,.337-3.368,4.406-.652l8.4,13.152c-1.1-.264-1.423,3.154-1.48,6.574-3.461-4.047-5.334-10.415-6.577-11.191-.962-.6-2.225,6.453-2.888,10.654-4.982-2.629-5.505-2.866-5.505-2.866" fill="#63514e"/>
        <path id="Path_8769" data-name="Path 8769" d="M86.28,18.08c.153,8.269-3.748,18.508-7.312,19.194s-8.154-7.9-8.289-9.373-.689,1.072-2.17.8-2.654-3.18-2.016-5.566c0,0,.979-.706,3.666,1.529s5.065,1.641,4.8-.081-.436-3.076,1.606-4.118,1.9-4.16,1.9-4.16,3.336,1.286,4.3-.652,3.471.07,3.515,2.427" fill="#7f6560"/>
        <path id="Path_8770" data-name="Path 8770" d="M56.047,12.687c2.327,2.678,6.186,1.473,9.4-1.32s4.571-6.118,2.243-8.8-7.458-3.7-10.673-.9-3.3,8.342-.97,11.02" fill="#382632"/>
        <path id="Path_8771" data-name="Path 8771" d="M62.414,38.122l5.654,6.664a1.245,1.245,0,0,1,.237.346,1.529,1.529,0,0,1,.081.464c.169,2.693-.093,5.445.38,8.078A26.845,26.845,0,0,0,65.1,47.929a1.44,1.44,0,0,0-.8-.592,1.388,1.388,0,0,0-1.01.55l-2.547,2.484a17.063,17.063,0,0,0-.812-5.828c-.369-1.132-1.25-2.8-.907-4.066.125-.445,3.476-2.255,3.386-2.355" fill="#d62255"/>
        <path id="Path_8772" data-name="Path 8772" d="M54.231,73.2s2.091,7.425,9.046,10.508a.884.884,0,0,1-.366,1.712c-5.34.318-12.7.589-12.264-.371.681-1.5,3.584-11.849,3.584-11.849" fill="#8e0e32"/>
      </g>
    </g>
    <rect id="Rectangle_2943" data-name="Rectangle 2943" width="924" height="324" transform="translate(178 351)" fill="none"/>
  </g>
</svg>
