<svg xmlns="http://www.w3.org/2000/svg" xmlns:xlink="http://www.w3.org/1999/xlink" width="269" height="269" viewBox="0 0 269 269">
  <defs>
    <clipPath id="clip-path">
      <circle id="Ellipse_121" data-name="Ellipse 121" cx="134.5" cy="134.5" r="134.5" transform="translate(0 0.001)" fill="none"/>
    </clipPath>
  </defs>
  <g id="Group_514" data-name="Group 514" transform="translate(-2365.266 -7792.631)">
    <circle id="Ellipse_44" data-name="Ellipse 44" cx="134.5" cy="134.5" r="134.5" transform="translate(2365.266 7792.631)" fill="#e0ded9"/>
    <circle id="Ellipse_47-2" data-name="Ellipse 47-2" cx="134.5" cy="134.5" r="134.5" transform="translate(2365.266 7792.631)" fill="#e0ded9"/>
    <g id="Group_493" data-name="Group 493" transform="translate(2365.266 7792.63)">
      <g id="Group_1408" data-name="Group 1408" transform="translate(0 0)">
        <g id="Group_1407" data-name="Group 1407" clip-path="url(#clip-path)">
          <g id="Group_1406" data-name="Group 1406" transform="translate(-30.58 30.393)">
            <path id="Path_1638" data-name="Path 1638" d="M2566.9,7829.578a9.032,9.032,0,0,0-7.388,4.09c-4.052,6.611-12.441,20.357-16.694,27.8-5.735,10.033,20.719-.522,20.719-.522S2582.634,7829.094,2566.9,7829.578Z" transform="translate(-2350.953 -7826.399)" fill="#c67f66"/>
            <path id="Path_1639" data-name="Path 1639" d="M2585.722,7858.649s7.284-5.072,10.737-1.62-4.542,14.518-9.084,17.41-31.511,16.134-31.511,16.134S2578.005,7861.462,2585.722,7858.649Z" transform="translate(-2352.228 -7828.814)" fill="#db8f6d"/>
            <path id="Path_1640" data-name="Path 1640" d="M2531.645,7877.422c-7.48,0-14.934,3.928-18.389,6.051,6.4,5.315,13.253,11.562,13.253,14,0,4.594,10.8,22.317,10.8,22.317l-.486,34.031-78.816,18.916s-80.743-.185-98.382,17.47c-17.611,17.612-27.982-51.872-28.038-52.01,0,0,70.169-19.156,77.844-26.831s9.715-32.725,21.984-38.347c16.8-7.672,33.537-29.955,47.561-43.981,7.58-7.578,10.229.536,10.229,11.256,0,11.754-14.573,27.868-20.97,34.252-6.37,6.4,1.887,6.607,5.621,2.874,4.246-4.248,25.4-11.95,33.724-11.95,8.688,0,18.237-8.327,30.617-13.185,12.56-4.928,20.873-15.073,29.061-6.9a13.652,13.652,0,0,1,2.317,4.746C2570.593,7859.517,2540.893,7877.422,2531.645,7877.422Z" transform="translate(-2331.586 -7826.077)" fill="#db8f6d"/>
            <path id="Path_1641" data-name="Path 1641" d="M2495.492,7830.64l-10.756,12.464a4.076,4.076,0,0,0-1.749-3.388c3.415-3.746,6.731-7.354,9.922-10.546a15.5,15.5,0,0,1,1.972-1.693Z" transform="translate(-2345.52 -7826.206)" fill="#d89c84"/>
            <g id="Group_1399" data-name="Group 1399" transform="translate(91.259 57.171)" opacity="0.73" style="mix-blend-mode: multiply;isolation: isolate">
              <path id="Path_1642" data-name="Path 1642" d="M2474.763,7889.043c1.809,9.2,1.707,20.234-1.632,29.766a30.413,30.413,0,0,1-5.042,8.971c-7.966,9.409-23.733,14.788-35.994,16.4,10.753-3.392,26.658-9.414,33.866-18.181C2473.593,7917.84,2474.991,7900.21,2474.763,7889.043Z" transform="translate(-2432.096 -7889.043)" fill="#fda16f"/>
            </g>
            <path id="Path_1643" data-name="Path 1643" d="M2549.95,7879.771c-7.48,0-14.934,3.929-18.389,6.051,0,0-5.328-3.5,7.647-6.7s30.977-14.38,36.529-19.931c2.179-2.178,8.215-5.649,11.894-7.578C2591.048,7860.489,2559.588,7879.771,2549.95,7879.771Z" transform="translate(-2349.891 -7828.427)" fill="#ce876b"/>
            <path id="Path_1644" data-name="Path 1644" d="M2534.721,7959.35l-75.485,18.11s-77.6,12.4-95.236,30.058c-7.271,7.272-13.836-7.641-19.041-20.284,18.611-9.366,62.147-26.872,70.281-26.872,0,0,1.97-11.783,18.028-27.841,16.03-16.029,32.729-55.152,51.392-55.152,18.7,0,35.322,12.42,40.692,47.673A164.08,164.08,0,0,0,2534.721,7959.35Z" transform="translate(-2332.817 -7830.797)" fill="#ce876b"/>
            <g id="Group_1400" data-name="Group 1400" transform="translate(113.042 6.649)">
              <path id="Path_1645" data-name="Path 1645" d="M2535.736,7926.077a14.587,14.587,0,0,0,3.786.372v.014c0,4.5,4.437,8.141,9.908,8.141s9.908-3.646,9.908-8.141c0-4.268-4.2-8.241-10.127-8.131a5.355,5.355,0,0,0-.9-1.664,15.365,15.365,0,0,0-11.921-28.212c-9.4-12.384-29.04-8.316-32.758,6.779a13.593,13.593,0,0,0-8.583,1.151,10.325,10.325,0,0,0-5.87-.41,14.556,14.556,0,0,0-23.056,7.143,8.953,8.953,0,0,0-5.094,10.032,9.85,9.85,0,1,0,10.322,14.756,10.092,10.092,0,0,0,10.315-8.321,11.692,11.692,0,0,0,3.607.191,13.63,13.63,0,0,0,24.331,11.988A20.782,20.782,0,0,0,2535.736,7926.077Z" transform="translate(-2456.087 -7837.794)" fill="#fff6f0"/>
              <path id="Path_1646" data-name="Path 1646" d="M2593.348,7863.792a11.256,11.256,0,1,0-16.679,12.053,11.588,11.588,0,0,0,14.123,11.535,8.542,8.542,0,1,0,14.073-8.984A10.315,10.315,0,0,0,2593.348,7863.792Z" transform="translate(-2466.552 -7835.688)" fill="#fff6f0"/>
              <path id="Path_1647" data-name="Path 1647" d="M2566.351,7891.409a11.256,11.256,0,1,0-2.848,20.38,11.589,11.589,0,0,0,18.1-2.205,8.543,8.543,0,1,0,3.257-16.376A10.315,10.315,0,0,0,2566.351,7891.409Z" transform="translate(-2464.819 -7838.281)" fill="#fff6f0"/>
              <circle id="Ellipse_117" data-name="Ellipse 117" cx="6.419" cy="6.419" r="6.419" transform="translate(36.299 28.416)" fill="#fff6f0"/>
              <path id="Path_1648" data-name="Path 1648" d="M2614.9,7894.779c-2.069,0-3.749,2.021-3.749,4.513s1.68,4.514,3.749,4.514,3.749-2.021,3.749-4.514S2616.966,7894.779,2614.9,7894.779Z" transform="translate(-2470.358 -7839.048)" fill="#fff6f0"/>
              <path id="Path_1649" data-name="Path 1649" d="M2532.4,7858.062c0,.009,0,.019,0,.029,0,2.908,2.411,5.024,4.616,3.647a6.838,6.838,0,1,0-1.4-7.723,2.549,2.549,0,0,0-1.377.4,2.466,2.466,0,1,0-1.84,3.647Z" transform="translate(-2462.855 -7834.931)" fill="#fff6f0"/>
              <circle id="Ellipse_118" data-name="Ellipse 118" cx="2.429" cy="2.429" r="2.429" transform="translate(75.963 7.46)" fill="#fff6f0"/>
              <path id="Path_1650" data-name="Path 1650" d="M2554.647,7838.358a2.479,2.479,0,1,0-2.478-2.48A2.479,2.479,0,0,0,2554.647,7838.358Z" transform="translate(-2464.93 -7833.4)" fill="#fff6f0"/>
              <path id="Path_1651" data-name="Path 1651" d="M2587.76,7972.688a3.825,3.825,0,1,0,3.824,3.825A3.825,3.825,0,0,0,2587.76,7972.688Z" transform="translate(-2467.854 -7846.219)" fill="#fff6f0"/>
              <path id="Path_1652" data-name="Path 1652" d="M2602.136,7963.517a2.384,2.384,0,1,0,2.383,2.385A2.383,2.383,0,0,0,2602.136,7963.517Z" transform="translate(-2469.309 -7845.375)" fill="#fff6f0"/>
            </g>
            <path id="Path_1653" data-name="Path 1653" d="M2585.963,7887.961s5.086-2.152,8.154.915-2.231,19.213-2.231,19.213l-19.364.807S2578.142,7892.142,2585.963,7887.961Z" transform="translate(-2353.761 -7831.706)" fill="#c67f66"/>
            <path id="Path_1654" data-name="Path 1654" d="M2615.629,7884.638c-.013.015-.013.029-.027.029-1.611,2.138-4.455,3.942-9.021,4.414-11.311,1.138-13.42,2.109-13.42,2.109s-11.658,8.424-21.458,6.8l-28.8,9.576,6.788-12.491,8.035-14.794s13.574-2.332,17.4-2.332,14-2.873,20.512-2.873c6.523,0,18.417-1.152,20.722,1.152C2617.724,7877.6,2618,7881.475,2615.629,7884.638Z" transform="translate(-2351.035 -7830.56)" fill="#db8f6d"/>
            <path id="Path_1655" data-name="Path 1655" d="M2615.6,7885.668c-1.611,2.138-4.455,3.942-9.021,4.414-11.311,1.138-13.42,2.109-13.42,2.109s-11.658,8.423-21.458,6.8l-28.8,9.576,6.788-12.49,20.4-2.761s14.488-1.361,17.708-4.582S2608.538,7890.526,2615.6,7885.668Z" transform="translate(-2351.035 -7831.562)" fill="#ce876b"/>
            <path id="Path_1656" data-name="Path 1656" d="M2588.173,7911.827c-12.92-.435-12.92,16.432-12.92,16.432-1.522.811-3.631,5.542-6.035,7.42l6-14.173-19.751-2.109s-4.8,8.63-5.945,8.63,6-11.659,9.065-19.712,5.509-12.888,5.509-12.888l-23.864,7.848-6.5,4.908c-1.355-1.354,1.628-2.964,5.851-11.19,5.342-10.4,9.41-18.988,9.41-18.988l-21.532,3.44-16.3,20.119s-2.877,6.137-2.877-3.47,3.646-19.926,5.946-27.98,0-23.012-9.971-19.56-16.875,29.149-16.875,34.9-5.37,17.642-5.37,20.328-12.656,31.065-15.341,39.888,3.419,27.688,2.3,51.009-20.948,59.84-20.948,59.84c2.686,7.287,62.509,24.717,62.509,12.443s19.8-65.38,24.3-77.039,18.517-14.805,21.968-18.257,24.268-24.526,24.269-24.527h0s6.785-15.322,9.285-21.937S2595.214,7912.063,2588.173,7911.827Z" transform="translate(-2342.303 -7828.283)" fill="#c67f66"/>
            <circle id="Ellipse_119" data-name="Ellipse 119" cx="5.293" cy="5.293" r="5.293" transform="translate(179.81 50.031)" fill="#fff6f0"/>
            <path id="Path_1657" data-name="Path 1657" d="M2583.437,7943.405a5.293,5.293,0,1,1-5.293-5.294A5.292,5.292,0,0,1,2583.437,7943.405Z" transform="translate(-2353.791 -7836.388)" fill="#fff6f0"/>
            <path id="Path_1658" data-name="Path 1658" d="M2528.55,7838.323a5.292,5.292,0,1,1-5.292-5.292A5.291,5.291,0,0,1,2528.55,7838.323Z" transform="translate(-2348.74 -7826.716)" fill="#fff6f0"/>
            <path id="Path_1659" data-name="Path 1659" d="M2526.251,7904.805a5.056,5.056,0,1,1-5.056-5.057A5.057,5.057,0,0,1,2526.251,7904.805Z" transform="translate(-2348.572 -7832.857)" fill="#fff6f0"/>
            <ellipse id="Ellipse_120" data-name="Ellipse 120" cx="7.465" cy="7.586" rx="7.465" ry="7.586" transform="translate(130.158 41.999)" fill="#fff6f0"/>
            <path id="Path_1660" data-name="Path 1660" d="M2477.6,7881.258a6.472,6.472,0,1,1-6.472-6.472A6.47,6.47,0,0,1,2477.6,7881.258Z" transform="translate(-2343.833 -7830.56)" fill="#fff6f0"/>
            <path id="Path_1661" data-name="Path 1661" d="M2604.346,7935.859a3.235,3.235,0,1,1-3.235-3.235A3.234,3.234,0,0,1,2604.346,7935.859Z" transform="translate(-2356.094 -7835.883)" fill="#fff6f0"/>
            <path id="Path_1662" data-name="Path 1662" d="M2620.948,7915.521c-1.15,5.066-5.177,11.4-15.918,10.438s-13.614.1-13.614.1-4.983,4.316-13.227,2.788a47.993,47.993,0,0,0-14.225-.68l-2.472,1.208a82,82,0,0,1,5.039-11.949c1.1-2.234,2.429-4.746,4-7.48,0-.013.181-.042,3.761-.2,12.06-.5,35.821-.846,37.263-.846C2613.468,7908.9,2622.1,7910.455,2620.948,7915.521Z" transform="translate(-2352.745 -7833.701)" fill="#db8f6d"/>
            <path id="Path_1663" data-name="Path 1663" d="M2620.948,7916.192c-1.15,5.067-5.177,11.4-15.918,10.438s-13.614.1-13.614.1-4.983,4.317-13.227,2.789a48.017,48.017,0,0,0-14.225-.681l-2.472,1.208a81.947,81.947,0,0,1,5.039-11.948c5.927.221,14.96.721,19.166,1.707l6.773,1.083s8.327,2.08,14.1.916S2617.173,7919.968,2620.948,7916.192Z" transform="translate(-2352.745 -7834.37)" fill="#ce876b"/>
            <path id="Path_1664" data-name="Path 1664" d="M2505.2,7856.141l-3.47,13.571s9.666.615,11.166,2.114l4.794-13.872S2508.7,7852.64,2505.2,7856.141Z" transform="translate(-2347.245 -7828.734)" fill="#d89c84"/>
            <path id="Path_1665" data-name="Path 1665" d="M2564.018,7833.088l-4.212,12.317,8.42,2.8,5.818-11.111S2567.533,7832.468,2564.018,7833.088Z" transform="translate(-2352.591 -7826.717)" fill="#d89c84"/>
            <g id="Group_1401" data-name="Group 1401" transform="translate(209.636 29.22)">
              <path id="Path_1666" data-name="Path 1666" d="M2563.179,7858.258a13.884,13.884,0,0,0,1.428,6.136,28.838,28.838,0,0,0,1.49,2.8c.285.455.576.912.853,1.387.3.461.6.922.871,1.433a15.762,15.762,0,0,1-1.385-.985c-.41-.383-.832-.768-1.21-1.192a11.885,11.885,0,0,1-1.88-2.869,9.562,9.562,0,0,1-.862-3.36A5.891,5.891,0,0,1,2563.179,7858.258Z" transform="translate(-2562.472 -7858.258)" fill="#c67f66"/>
            </g>
            <g id="Group_1402" data-name="Group 1402" transform="translate(234.242 49.998)">
              <path id="Path_1667" data-name="Path 1667" d="M2591.245,7881.143a3.62,3.62,0,0,0-.552,2.316,6.959,6.959,0,0,0,.666,2.209c.345.725.758,1.438,1.194,2.168s.912,1.453,1.306,2.291a8.779,8.779,0,0,1-3.757-3.877,5.179,5.179,0,0,1-.484-2.845A2.771,2.771,0,0,1,2591.245,7881.143Z" transform="translate(-2589.572 -7881.143)" fill="#c67f66"/>
            </g>
            <g id="Group_1403" data-name="Group 1403" transform="translate(214.294 52.505)">
              <path id="Path_1668" data-name="Path 1668" d="M2569.594,7883.905a17.638,17.638,0,0,0-.479,7.49,13.393,13.393,0,0,0,1.082,3.522,29.086,29.086,0,0,0,1.872,3.373,10.092,10.092,0,0,1-4.322-6.665,10.245,10.245,0,0,1,.133-4.093A9.011,9.011,0,0,1,2569.594,7883.905Z" transform="translate(-2567.603 -7883.905)" fill="#c67f66"/>
            </g>
            <g id="Group_1404" data-name="Group 1404" transform="translate(234.762 81.828)">
              <path id="Path_1669" data-name="Path 1669" d="M2592.156,7916.2a16.558,16.558,0,0,0-.611,5.057,5.379,5.379,0,0,0,.7,2.218,11.053,11.053,0,0,0,1.609,2.034,4.567,4.567,0,0,1-2.476-1.386,4.67,4.67,0,0,1-1.216-2.723,6.332,6.332,0,0,1,.435-2.871A6.079,6.079,0,0,1,2592.156,7916.2Z" transform="translate(-2590.145 -7916.198)" fill="#c67f66"/>
            </g>
            <g id="Group_1405" data-name="Group 1405" transform="translate(247.491 80.957)">
              <path id="Path_1670" data-name="Path 1670" d="M2604.925,7915.24c.3,1.7.451,3.256.745,4.789.14.764.337,1.5.551,2.248a22.96,22.96,0,0,0,.907,2.254,4.9,4.9,0,0,1-1.886-1.793,7.709,7.709,0,0,1-.934-2.45,9.236,9.236,0,0,1-.089-2.58A6.8,6.8,0,0,1,2604.925,7915.24Z" transform="translate(-2604.164 -7915.24)" fill="#c67f66"/>
            </g>
          </g>
        </g>
      </g>
    </g>
  </g>
</svg>
