<?xml version="1.0" encoding="utf-8"?>
<!-- Generator: Adobe Illustrator 26.3.1, SVG Export Plug-In . SVG Version: 6.00 Build 0)  -->
<svg version="1.1" id="Lager_1" xmlns="http://www.w3.org/2000/svg" xmlns:xlink="http://www.w3.org/1999/xlink" x="0px" y="0px"
	 viewBox="0 0 269 269" style="enable-background:new 0 0 269 269;" xml:space="preserve">
<style type="text/css">
	.st0{fill:#E0DED9;}
	.st1{clip-path:url(#SVGID_00000040556051530855766340000015840667058685289383_);}
	.st2{fill:#F3C8CF;}
	.st3{fill:#FFFFFF;}
	.st4{fill:#E01D23;}
	.st5{fill:#DB9D7D;}
	.st6{fill:#F0AE8C;}
	.st7{fill:#E0BDAF;}
	.st8{fill-rule:evenodd;clip-rule:evenodd;fill:#62C0D8;}
	.st9{enable-background:new    ;}
</style>
<g id="Group_5207" transform="translate(-214 -150)">
	<g id="Group_1824" transform="translate(214 150)">
		<circle id="Ellipse_46-2" class="st0" cx="134.5" cy="134.5" r="134.5"/>
		<g id="Group_484">
			<g>
				<defs>
					<circle id="SVGID_1_" cx="134.5" cy="134.5" r="134.5"/>
				</defs>
				<clipPath id="SVGID_00000063591021430925529800000009970268931741608844_">
					<use xlink:href="#SVGID_1_"  style="overflow:visible;"/>
				</clipPath>
				
					<g id="Group_483" transform="translate(0 0)" style="clip-path:url(#SVGID_00000063591021430925529800000009970268931741608844_);">
					<g id="Group_480" transform="translate(32.487 25.027)">
						<rect id="Rectangle_453" x="44.7" y="17.5" class="st2" width="5.2" height="27.4"/>
						<rect id="Rectangle_454" x="49.9" y="17.5" class="st3" width="7" height="27.4"/>
						<path id="Path_1101" class="st2" d="M35.1,28.9c-0.7,0-1.3,0.6-1.3,1.3v18.4c0,0.7,0.6,1.3,1.3,1.3h3.6v-21H35.1z"/>
						<path id="Path_1102" class="st3" d="M66.5,28.9H38.7v21h27.8c0.7,0,1.3-0.6,1.3-1.3V30.2C67.8,29.4,67.2,28.9,66.5,28.9z"/>
						<path id="Path_1103" class="st3" d="M101.6,109.1c-0.1-28.1-23-50.7-51.1-50.5c0,0,0,0,0,0C22.7,58.7,0.1,81.3,0,109.1v140.2
							c0,3.3,2.7,6.1,6.1,6.1l0,0h89.5c3.3,0,6.1-2.7,6.1-6.1l0,0l0,0L101.6,109.1z"/>
						<path id="Rectangle_455" class="st4" d="M32.9,36.5h35.8c2.1,0,3.8,1.7,3.8,3.8l0,0v19.2c0,2.1-1.7,3.8-3.8,3.8c0,0,0,0,0,0
							H32.9c-2.1,0-3.8-1.7-3.8-3.8V40.3C29.1,38.2,30.8,36.5,32.9,36.5z"/>
						<path id="Path_1104" class="st4" d="M113,10.9c-2.1-2.8-9.2-7.2-9.2-7.2C89-3.8,60.4,2.4,55.2,2.5S38.7,0.2,38.7,0.2
							S34.2,0,34.2,2.8c-0.2,1.3,0.8,2.5,2,2.6c0,0,0,0,0,0c0.2,0,0.3,0,0.5,0c2.1,0.1,3.8,1.8,3.8,3.9c0.4,2.3,2.1,4.2,4.4,4.7v3.8
							h13.2v-3.7C63.9,6.7,73.1,2.6,82.5,3.3c15.1,1.1,15.1,0.5,27.8,9.9C111.5,12.8,112.4,12,113,10.9z"/>
					</g>
					<g id="Group_485" transform="translate(118.185 38.315)">
						<g id="Group_484-2" transform="translate(0 0)">
							<g id="Group_483-2" transform="translate(0.014)">
								<path id="Path_1105" class="st5" d="M120.6,13.6c-6.1-1.1-12.3-1.7-18.5-1.7c-5,0.4-10,1.3-14.8,2.9c-8.1,2.6-12.2,5.2-21,6
									s-13.4,0.9-18.2,2.6s-10.2,2.5-9.7,7.6s4.2,8.1,9.3,8.2c5.5-0.1,10.9-0.9,16.2-2.4c2.7-0.8,7.2-1.3,8.1-0.2s2.3,3.3,2.3,3.3
									s13.7-5.9,16.2-7.1c2.5-1.2,15.9-8.8,19.9-12S120.6,13.6,120.6,13.6z"/>
								<path id="Path_1106" class="st6" d="M184.8,43.2l-52.3,2.7c0,0-29,17.3-42.2,23.4S70.2,79.7,63.3,80c0,0-28.4-2.9-35.3-8.8
									c-7.1-6-19.2-20-21-24.1S0.1,28.7,0.1,28.7s-1-2.2,3.5-3.4c0,0,1.3-3.4,6.2-2.4s7.7,3.2,9.4,13.6l2.8-11.8
									c1.8-1.3,4.1-1.5,6.1-0.6c3.7,1.5,4.2,6,4.2,8.2c-0.2,2.4-0.6,4.7-1.3,7c0,0,7.5,4.5,11.3,9.6c0,0,8.2-2.5,13.9-0.7
									c4-4.1,9.4-6.7,15.1-7.1c0,0,11.2-7.8,17.4-10.4s11.2-8.8,19.6-12.9s18.3-7.2,25-5.5S184.6,0,184.6,0L184.8,43.2z"/>
							</g>
							<path id="Path_1107" class="st7" d="M21.5,25.4c0.2-1.1,1.1-1.7,1.8-1l0,0c0.7,0.6-0.5,5.8-1.1,8c-0.1,0.2-0.2,0.4-0.4,0.6
								c-0.4,0.7-1.3,1-2,0.6c-0.1,0-0.1-0.1-0.2-0.1l0,0L21.5,25.4z"/>
							<path id="Path_1108" class="st5" d="M3,25.4c0,0,1.8,8.2,2.1,9.4s2.7,13.8,2.7,13.8l-1.7-3.9l-4.4-12l-1.5-4.2
								c-0.1-0.4-0.1-0.8,0-1.2c0.3-0.6,0.8-1.1,1.4-1.5C2,25.8,2.5,25.6,3,25.4z"/>
							<path id="Path_1109" class="st7" d="M3,25.6l2,8c0,0,0.3,0.8,0.8-0.8C6,31.9,4.2,25,4.2,25c-0.4-0.2-0.9-0.1-1.1,0.2
								C3,25.3,3,25.5,3,25.6z"/>
							<path id="Path_1110" class="st5" d="M19.2,36.5c0,0-1.4,8-1.4,9.3s18,18.5,18,18.5s-14.5-10.6-18-13.9s-3.3-2.8-3.7-9.5
								S17,20.6,19.2,36.5z"/>
						</g>
					</g>
				</g>
			</g>
		</g>
	</g>
	<path id="Path_2814" class="st8" d="M435,338.5l-37.2-71.8l-37,71.8c-7.4,25.1,16.6,44.9,37.1,44.9S443.5,363.8,435,338.5
		L435,338.5z"/>
	<g class="st9">
		<path class="st3" d="M391.3,337.7c0,0.8-0.5,1.2-1.4,1.2h-8.7c-0.4,0-0.7-0.1-0.9-0.4c-0.2-0.2-0.3-0.5-0.3-0.9
			c0-0.5,0.2-0.9,0.5-1.2l5.2-5.6c0.6-0.7,1.1-1.4,1.4-1.9c0.3-0.6,0.4-1.2,0.4-1.8c0-0.7-0.2-1.3-0.6-1.7c-0.4-0.4-1-0.6-1.8-0.6
			c-0.6,0-1.2,0.1-1.8,0.4c-0.6,0.2-1.2,0.6-1.8,1c-0.2,0.1-0.3,0.2-0.5,0.3c-0.2,0.1-0.3,0.1-0.5,0.1c-0.3,0-0.5-0.1-0.7-0.4
			s-0.3-0.5-0.3-0.9c0-0.2,0-0.4,0.1-0.6c0.1-0.2,0.2-0.3,0.4-0.5c0.7-0.5,1.5-1,2.4-1.3c0.9-0.3,1.8-0.5,2.7-0.5
			c1.6,0,2.8,0.4,3.8,1.2c0.9,0.8,1.4,1.9,1.4,3.2c0,0.9-0.2,1.8-0.6,2.6s-1.1,1.7-2,2.7l-4,4.2h6.1
			C390.8,336.5,391.3,336.9,391.3,337.7z"/>
		<path class="st3" d="M393.9,333.6c-0.2-0.2-0.3-0.5-0.3-0.8s0.1-0.6,0.3-0.8c0.2-0.2,0.6-0.3,1-0.3h4.7c0.4,0,0.8,0.1,1,0.3
			c0.2,0.2,0.3,0.5,0.3,0.8s-0.1,0.6-0.3,0.8c-0.2,0.2-0.6,0.3-1,0.3h-4.7C394.5,333.9,394.1,333.8,393.9,333.6z"/>
		<path class="st3" d="M415.4,333.7c0.2,0.2,0.3,0.5,0.3,0.9c0,0.8-0.5,1.2-1.4,1.2h-1.2v1.8c0,0.5-0.1,0.8-0.4,1.1s-0.6,0.4-1,0.4
			c-0.4,0-0.8-0.1-1-0.4s-0.4-0.6-0.4-1.1v-1.8h-6c-0.4,0-0.7-0.1-1-0.4c-0.2-0.2-0.3-0.5-0.3-0.9c0-0.4,0.1-0.7,0.4-1.1l7.1-10.2
			c0.2-0.2,0.3-0.4,0.6-0.5c0.2-0.1,0.5-0.2,0.7-0.2c0.4,0,0.7,0.1,1,0.4c0.3,0.3,0.4,0.6,0.4,1.1v9.4h1.2
			C414.8,333.4,415.1,333.5,415.4,333.7z M406,333.4h4.3v-6.2L406,333.4z"/>
	</g>
	<g class="st9">
		<path class="st3" d="M402,348.5c0.7,0.7,1,1.9,1,3.5v5.7c0,0.4-0.1,0.8-0.4,1c-0.3,0.2-0.6,0.4-1,0.4c-0.4,0-0.8-0.1-1-0.4
			c-0.3-0.2-0.4-0.6-0.4-1V352c0-0.8-0.2-1.4-0.4-1.8s-0.8-0.5-1.4-0.5c-0.8,0-1.3,0.3-1.8,0.8c-0.4,0.5-0.7,1.2-0.7,2.1v5.1
			c0,0.4-0.1,0.8-0.4,1c-0.3,0.2-0.6,0.4-1,0.4c-0.4,0-0.8-0.1-1-0.4c-0.3-0.2-0.4-0.6-0.4-1V352c0-0.8-0.1-1.4-0.4-1.8
			s-0.8-0.5-1.4-0.5c-0.8,0-1.3,0.3-1.8,0.8s-0.7,1.2-0.7,2.1v5.1c0,0.4-0.1,0.8-0.4,1c-0.3,0.2-0.6,0.4-1,0.4s-0.8-0.1-1-0.4
			c-0.3-0.2-0.4-0.6-0.4-1v-8.9c0-0.4,0.1-0.8,0.4-1c0.3-0.2,0.6-0.3,1-0.3c0.4,0,0.7,0.1,1,0.3c0.3,0.2,0.4,0.5,0.4,1v0.6
			c0.4-0.6,0.8-1.1,1.4-1.4c0.6-0.3,1.3-0.5,2-0.5c1.7,0,2.8,0.7,3.4,2.1c0.3-0.6,0.8-1.2,1.5-1.5c0.7-0.4,1.4-0.6,2.2-0.6
			C400.4,347.4,401.3,347.7,402,348.5z"/>
		<path class="st3" d="M406.3,358.7c-0.3-0.2-0.4-0.6-0.4-1v-13.7c0-0.4,0.1-0.8,0.4-1c0.3-0.2,0.6-0.3,1-0.3s0.8,0.1,1,0.3
			c0.3,0.2,0.4,0.6,0.4,1v13.7c0,0.4-0.1,0.8-0.4,1c-0.3,0.2-0.6,0.4-1,0.4S406.5,358.9,406.3,358.7z"/>
	</g>
</g>
</svg>
