<svg id="Group_7048" data-name="Group 7048" xmlns="http://www.w3.org/2000/svg" xmlns:xlink="http://www.w3.org/1999/xlink" width="201.216" height="213.968" viewBox="0 0 201.216 213.968">
  <defs>
    <clipPath id="clip-path">
      <circle id="Ellipse_489" data-name="Ellipse 489" cx="100.608" cy="100.608" r="100.608" transform="translate(0 0)" fill="#e0ded9"/>
    </clipPath>
  </defs>
  <path id="Path_5550" data-name="Path 5550" d="M100.429,0A100.428,100.428,0,1,1,0,100.428,100.429,100.429,0,0,1,100.429,0Z" transform="translate(0 12.776)" fill="#fff"/>
  <g id="Mask_Group_15" data-name="Mask Group 15" transform="translate(0 12.751)" clip-path="url(#clip-path)">
    <g id="Group_5915" data-name="Group 5915" transform="translate(23.278 -12.751)">
      <g id="Group_5912" data-name="Group 5912" transform="translate(10.723 0)">
        <path id="Path_586" data-name="Path 586" d="M488.839,361.974c-4.067-1.765-11.912-2.007-16.566-11.148-1.121-6.682-2.58-15.642-2.58-17.3l-8.413-.585v0l-.058,0-.077,0v0l-8.733.585c0,2.7-2.278,23.306-2.278,23.306L461.7,382.246C460.16,398.352,493.69,362.866,488.839,361.974Z" transform="translate(-411.522 -285.262)" fill="#ffddd2"/>
        <g id="Group_202" data-name="Group 202" transform="translate(31.98 48.262)">
          <path id="Path_587" data-name="Path 587" d="M452.726,333.32l10.87,2.142-2.061,56.147-17.719-26.558S452.726,336.016,452.726,333.32Z" transform="translate(-443.816 -333.32)" fill="#fcd1c3"/>
        </g>
        <g id="Group_206" data-name="Group 206" transform="translate(8.457 68.409)">
          <path id="Path_592" data-name="Path 592" d="M456.9,346.472c1.65,2.494,1.319,17.736,16.554,26.525,1.592,10.6,16.143,115.331,7.716,121.132s-24.5,3.042-28.417,3.409-10.533,4.115-15.231-1.04-2.16-50.7,3.912-70.8c2.168-7.171-.044-30.483-4.081-35.644,0,0-.832-28.259-7.367-35.114C442.017,350.363,456.9,346.472,456.9,346.472Z" transform="translate(-429.989 -346.472)" fill="#e4e8ef"/>
          <path id="Path_593" data-name="Path 593" d="M473.219,346.946c-2.745,1.9-10.654,22.572-15.489,26.08-1.6,10.6-1.6,124.37-1.6,124.37l33.977-4.159h13.234s-12.352-55.489-16.164-71.859c-3.035-13.05-.441-18.631.812-34.31a156.669,156.669,0,0,1,7.12-33.9C489.439,350,473.219,346.946,473.219,346.946Z" transform="translate(-416.748 -346.22)" fill="#fff"/>
        </g>
        <path id="Path_594" data-name="Path 594" d="M0,5.028C0,7.98.533,27.156.533,27.156s11.306,1.962,12.915.487S18.829,1.094,17.22.11,0,5.028,0,5.028Z" transform="translate(19.149 163.802) rotate(3)" fill="#fff"/>
        <path id="Path_595" data-name="Path 595" d="M489.885,358.813c7.909,29.438,8.5,41.47,9.816,53.325.584,5.268-.838,15.6-7.874,22.047-3.148,2.885-6.451-6.748-6.451-6.748s-2.091-14.424-2.675-17.935c-1.1-6.647-4.3-23.807-4.3-23.807Z" transform="translate(-396.488 -271.499)" fill="#ffddd2"/>
        <g id="Group_208" data-name="Group 208" transform="translate(78.622 75.36)">
          <path id="Path_596" data-name="Path 596" d="M484.447,351.009c3.511.581,5.55,5.507,7.307,13.124S502.6,403.108,502.6,403.108l-20.218,4.977s-7.62-25.489-5.862-33.7S484.447,351.009,484.447,351.009Z" transform="translate(-476.252 -351.009)" fill="#fff"/>
          <g id="Group_207" data-name="Group 207" transform="translate(0.263 15.323)">
            <path id="Path_597" data-name="Path 597" d="M490.494,400.712c-1.841-8.341-8.424-34.605-8.424-39.7a85.859,85.859,0,0,0-4.464,19.306c-.155,1.543-1.032,4.107-1.183,6.036,1.325,5.47,4.4,17,4.4,17Z" transform="translate(-476.424 -361.012)" fill="#e4e8ef"/>
          </g>
        </g>
        <path id="Path_600" data-name="Path 600" d="M469.965,408.514c1.763,8.2,0,25.2,3.52,28.711,1.172,1.169,13.185,5.578,16.112.875,2.932-4.684-.073-26.169-.073-26.169C481.62,413.1,469.965,408.514,469.965,408.514Z" transform="translate(-400.974 -245.064)" fill="#e4e8ef"/>
        <path id="Path_601" data-name="Path 601" d="M428.054,379.1c4.692,8.808,15.924,41.2,34.953,45.624,9.142,2.123,11.314-5.289,11.314-5.289l-9.063-2.376-3.065-8.765s-12.854-30.69-17.012-36.381S428.054,379.1,428.054,379.1Z" transform="translate(-423.266 -265.303)" fill="#fcd1c3"/>
        <path id="Path_602" data-name="Path 602" d="M438.177,351.354c-4.677.581-7.218.754-11.713,10.544-6.866,14.956,11.517,45.594,11.517,45.594,7.978-3.988,9.191-7.659,20.477-5.155,0,0-9.822-21.819-9.822-30.615S438.177,351.354,438.177,351.354Z" transform="translate(-424.929 -275.466)" fill="#fff"/>
        <path id="Path_603" data-name="Path 603" d="M451.063,396.216c2.333-2.25,41.232,1.71,42.135,10.126.925,8.634,17.609.6,17.609,3.661v3.064H480.169s-12.255-3.064-18.383-1.532-7.66,3.064-10.723,0-1.532-7.659,0-9.191S451.063,396.216,451.063,396.216Z" transform="translate(-411.969 -251.936)" fill="#fcd1c3"/>
        <path id="Path_604" data-name="Path 604" d="M496.9,404.5c0,3.807-4.8,6.893-10.723,6.893s-10.723-3.087-10.723-6.893" transform="translate(-398.057 -247.198)" fill="#eab6ac"/>
        <ellipse id="Ellipse_21" data-name="Ellipse 21" cx="5.362" cy="12.255" rx="5.362" ry="12.255" transform="matrix(0.094, -0.996, 0.996, 0.094, 72.141, 156.689)" fill="#fcd1c3"/>
        <g id="Group_5920" data-name="Group 5920" transform="translate(27.407 0)">
          <g id="Group_5916" data-name="Group 5916" transform="translate(13.343 3.663) rotate(14)">
            <g id="Group_204" data-name="Group 204" transform="translate(0 0)">
              <path id="Path_589" data-name="Path 589" d="M.367,28.7C2.12,42.58,13.113,54.409,19.66,54.409c7.3-.011,16.672-7.6,19.5-25.342C41.437,14.489,37.834,0,20.012,0,3.3,0-1.462,14.155.367,28.7Z" transform="translate(0)" fill="#ffddd2"/>
            </g>
          </g>
          <path id="Path_5548" data-name="Path 5548" d="M0,11.267C3.4,17.855,7.774,13.7,9.737,23.075c.731,3.343,2.483,10.542.231,15.726-2.937,6.789,5.907-12.954,5.907-12.954s5.052-16.4-6.609-24.072C3.061-2.291.809,1.733.772,2.951.724,3.848,0,11.267,0,11.267Z" transform="translate(38.507 11.052) rotate(14)" fill="#ce8f74"/>
          <path id="Path_5549" data-name="Path 5549" d="M34.57,15.753c-7.523,11.748-20.705,1-25.379,8.553C6.947,27.906,3.182,35.925,6.285,44,8.218,48.971,1.23,31.038,1.23,31.038s-5.849-18.066,7.961-27.4c6.088-4.131,19.38-5.754,26.082.646C35.926,4.9,34.57,15.753,34.57,15.753Z" transform="translate(10.855 0) rotate(14)" fill="#b7694e"/>
        </g>
      </g>
      <g id="Group_5913" data-name="Group 5913" transform="translate(0 157.572)">
        <g id="Group_216" data-name="Group 216">
          <g id="Group_214" data-name="Group 214" transform="translate(10.721 6.329)">
            <g id="Group_210" data-name="Group 210" transform="translate(62.602)">
              <path id="Path_5552" data-name="Path 5552" d="M0,0H7.683V56.64H0Z" transform="translate(4.35)" fill="#c3c3c3"/>
              <rect id="Rectangle_219" data-name="Rectangle 219" width="7.683" height="56.64" transform="translate(0)" fill="#d8d8d8"/>
            </g>
            <g id="Group_211" data-name="Group 211">
              <path id="Path_5553" data-name="Path 5553" d="M0,0H7.683V56.64H0Z" transform="translate(4.35)" fill="#c3c3c3"/>
              <path id="Path_5551" data-name="Path 5551" d="M0,0H7.683V56.64H0Z" fill="#d8d8d8"/>
            </g>
            <g id="Group_212" data-name="Group 212" transform="translate(181.807)">
              <rect id="Rectangle_222" data-name="Rectangle 222" width="7.683" height="56.64" transform="translate(4.35)" fill="#c3d1d4"/>
              <rect id="Rectangle_223" data-name="Rectangle 223" width="7.683" height="56.64" transform="translate(0)" fill="#e7e7e7"/>
            </g>
          </g>
          <g id="Group_215" data-name="Group 215">
            <rect id="Rectangle_226" data-name="Rectangle 226" width="88.312" height="10.844" fill="#b55a2b"/>
            <rect id="Rectangle_227" data-name="Rectangle 227" width="127.539" height="10.844" transform="translate(87.745)" fill="#d16c38"/>
          </g>
        </g>
      </g>
      <g id="Group_5914" data-name="Group 5914" transform="translate(58.911 102.911)">
        <g id="Group_219" data-name="Group 219">
          <g id="Group_218" data-name="Group 218">
            <rect id="Rectangle_228" data-name="Rectangle 228" width="71.121" height="4.423" transform="translate(0 50.238)" fill="#d8dfe0"/>
            <path id="Path_605" data-name="Path 605" d="M561.3,423.24H490.211l6.63-48.216a2.706,2.706,0,0,1,2.683-2.339h65.624a2.707,2.707,0,0,1,2.683,3.076Z" transform="translate(-446.954 -372.685)" fill="#becacc"/>
            <rect id="Rectangle_229" data-name="Rectangle 229" width="71.121" height="4.423" transform="translate(43.247 50.238)" fill="#5d7a7f" opacity="0.5" style="mix-blend-mode: multiply;isolation: isolate"/>
          </g>
        </g>
        <ellipse id="Ellipse_22" data-name="Ellipse 22" cx="7.208" cy="6.376" rx="7.208" ry="6.376" transform="matrix(0.728, -0.685, 0.685, 0.728, 74.718, 27.946)" fill="#5d7a7f" opacity="0.144" style="mix-blend-mode: multiply;isolation: isolate"/>
      </g>
    </g>
  </g>
  <g id="Group_5919" data-name="Group 5919" transform="translate(61.409 0)">
    <g id="Group_5916-2" data-name="Group 5916" transform="translate(13.343 3.663) rotate(14)">
      <g id="Group_204-2" data-name="Group 204" transform="translate(0 0)">
        <path id="Path_589-2" data-name="Path 589" d="M.367,28.7C2.12,42.58,13.113,54.409,19.66,54.409c7.3-.011,16.672-7.6,19.5-25.342C41.437,14.489,37.834,0,20.012,0,3.3,0-1.462,14.155.367,28.7Z" transform="translate(0)" fill="#ffddd2"/>
      </g>
    </g>
    <path id="Path_5548-2" data-name="Path 5548" d="M0,11.267C3.4,17.855,7.774,13.7,9.737,23.075c.731,3.343,2.483,10.542.231,15.726-2.937,6.789,5.907-12.954,5.907-12.954s5.052-16.4-6.609-24.072C3.061-2.291.809,1.733.772,2.951.724,3.848,0,11.267,0,11.267Z" transform="translate(38.507 11.052) rotate(14)" fill="#ce8f74"/>
    <path id="Path_5549-2" data-name="Path 5549" d="M34.57,15.753c-7.523,11.748-20.705,1-25.379,8.553C6.947,27.906,3.182,35.925,6.285,44,8.218,48.971,1.23,31.038,1.23,31.038s-5.849-18.066,7.961-27.4c6.088-4.131,19.38-5.754,26.082.646C35.926,4.9,34.57,15.753,34.57,15.753Z" transform="translate(10.855 0) rotate(14)" fill="#b7694e"/>
  </g>
</svg>
