<svg xmlns="http://www.w3.org/2000/svg" xmlns:xlink="http://www.w3.org/1999/xlink" width="281.5" height="246.575" viewBox="0 0 281.5 246.575">
  <defs>
    <clipPath id="clip-path">
      <rect id="Video" width="281.5" height="246.575" transform="translate(547.939 2379.054) rotate(180)" fill="#d0dfe3"/>
    </clipPath>
    <clipPath id="clip-path-2">
      <rect id="Rectangle_1850" data-name="Rectangle 1850" width="465.931" height="341.838" fill="none"/>
    </clipPath>
    <clipPath id="clip-path-4">
      <rect id="Rectangle_1822" data-name="Rectangle 1822" width="119.272" height="70.51" transform="matrix(0.26, -0.966, 0.966, 0.26, 0, 115.184)" fill="none"/>
    </clipPath>
    <clipPath id="clip-path-6">
      <rect id="Rectangle_1823" data-name="Rectangle 1823" width="85.118" height="150.054" fill="none"/>
    </clipPath>
    <clipPath id="clip-path-7">
      <rect id="Rectangle_1830" data-name="Rectangle 1830" width="83.705" height="264.014" fill="none"/>
    </clipPath>
    <clipPath id="clip-path-8">
      <rect id="Rectangle_1836" data-name="Rectangle 1836" width="82.286" height="264.015" fill="none"/>
    </clipPath>
    <clipPath id="clip-path-9">
      <rect id="Rectangle_1832" data-name="Rectangle 1832" width="17.186" height="24.82" fill="none"/>
    </clipPath>
    <clipPath id="clip-path-11">
      <rect id="Rectangle_1834" data-name="Rectangle 1834" width="2.529" height="15.412" fill="none"/>
    </clipPath>
    <clipPath id="clip-path-12">
      <rect id="Rectangle_1833" data-name="Rectangle 1833" width="2.528" height="15.41" fill="none"/>
    </clipPath>
    <clipPath id="clip-path-14">
      <rect id="Rectangle_1846" data-name="Rectangle 1846" width="465.931" height="268.228" fill="none"/>
    </clipPath>
    <clipPath id="clip-path-15">
      <rect id="Rectangle_1847" data-name="Rectangle 1847" width="155.568" height="136.911" fill="none"/>
    </clipPath>
  </defs>
  <g id="Mask_Group_34" data-name="Mask Group 34" transform="translate(-266.439 -2132.478)" clip-path="url(#clip-path)">
    <g id="Group_8234" data-name="Group 8234" transform="translate(126.059 2138.479)">
      <g id="Group_6922" data-name="Group 6922" clip-path="url(#clip-path-2)">
        <g id="Group_6890" data-name="Group 6890">
          <g id="Group_6889" data-name="Group 6889" clip-path="url(#clip-path-2)">
            <path id="Path_6992" data-name="Path 6992" d="M163.757,92.84c1.355,4.83,2.366,9.75,3.92,14.482,2.76,8.411,13.826,22.392,14.98,34.98l7.028-.21c-1.154-8.393-3.432-26.993-4.59-30.6-3.019-9.405-2.391-8.044-5.135-17.658-2.806-9.809,4.41-22.921-.5-31.947L159.9,80.181c2.059,3.163,2.82,8.975,3.853,12.65" transform="translate(67.04 25.947)" fill="#fca171"/>
            <path id="Path_6993" data-name="Path 6993" d="M182.185,138.946l-.047-.192a1.6,1.6,0,0,0,1.257.159,1.448,1.448,0,0,0,1.157-1.641l-.1-.4a1.548,1.548,0,0,0,1.448.3c.764-.148,1.276.549,1.16-.22l-.118-.473a1.329,1.329,0,0,0,1.148.1c.466-.219,1.328-.951,1.155-1.641a45.571,45.571,0,0,0-.512-4.578,23.643,23.643,0,0,0-1.519-5.26c-.639-2.224-1.733-5.711-3.216-7.489-2.894-1-5.535-1.456-7.269.031.255,5.522-3.169,7.03-3.189,9.219.018,1.3.566,2.756.531,4.2-.034,1.284-.727,5,.416,4.8,2.095.145,3.852-4.625,4.085-6.228l.031,7.8.582,1.99a1.57,1.57,0,0,0,3-.475" transform="translate(72.758 48.924)" fill="#62bfd7"/>
            <path id="Path_6994" data-name="Path 6994" d="M160.579,246.884c1.392-4.475-.439-11.441-.879-16.942-.314-3.914-1.2-14.214-1.1-17.382l-7.44,10.532a177.094,177.094,0,0,0,2.827,23.571Z" transform="translate(63.375 89.118)" fill="#fca171"/>
            <path id="Path_6995" data-name="Path 6995" d="M158.861,230.63c1.768-3.381,4.479,2.465,5.141,3.809.785,1.6,2.082,2.078,3.314,3.013,2.173,1.649,7.732,2.949,6.662,7.553-4.6.5-16.1.942-20.775.1-2.013-.362-1.467-5.582-.806-10.644.336-2.583,3.08,2.641,6.466-3.832" transform="translate(63.641 96.258)" fill="#fff"/>
            <path id="Path_6996" data-name="Path 6996" d="M127,218.458c-.1,3.168-1.679,8.657-2.431,12.515-.521,2.658.115,13.625-1.852,15.071-7.481,5.5-7.448-21.2-7.448-24.066Z" transform="translate(48.328 91.59)" fill="#fca171"/>
            <path id="Path_6997" data-name="Path 6997" d="M109.647,132.628c.163,29.254,3.886,118.366,5.177,143.573h15.971c-.058-8.392.629-21.232,1.722-36.1,3.74-50.922,12.206-125.562,11.61-126.141l-34.9-2.661c-.8,2.288.277,18.906.426,21.324" transform="translate(45.67 46.665)" fill="#008883"/>
            <path id="Path_6998" data-name="Path 6998" d="M133.559,139.793c7.931,38.374,22.641,108.881,25.689,135.255l13.909-1.692c-.406-5.329-.958-13.805-1.619-24.1-2.962-45.92-8.165-128.084-12.788-129.284l-30.266-5.915c-.167.234,1.916,10.43,5.081,25.738" transform="translate(53.864 47.817)" fill="#008883"/>
            <path id="Path_6999" data-name="Path 6999" d="M131.833,128.182c.047,1.895.16,3.791.316,5.688,7.931,38.375,22.641,108.88,25.689,135.255l13.909-1.692c-.406-5.329-.957-13.807-1.619-24.1-7.041-4.872-16.233-26.387-17.173-29.1-3.886-11.134-18.391-80.688-21.113-86.058" transform="translate(55.272 53.739)" fill="#008883"/>
            <path id="Path_7000" data-name="Path 7000" d="M194.8,87.384c-.071.091-.145.187-.216.29-4.383,6.063-11.9,27.685-17.363,47.393l-.009.031c-3.753,13.56-6.531,26.209-6.636,32.248A26.716,26.716,0,0,1,161,168.7a149.033,149.033,0,0,1-29.806-7.455c-3.264-1.2-6.476-2.543-9.63-4.011-.546-.254-1.093-.5-1.639-.755l-.15-.074-.162-.077q-.575-.275-1.145-.554-1.922-.943-3.8-1.973a57.521,57.521,0,0,1-5.776-3.6c3.567-12.076,22.152-37.856,25.8-46.495a98.649,98.649,0,0,0,7.755-31.4,139.223,139.223,0,0,0,.678-15.461c-.116-3.663-.918-7.36-1.23-10.985-.111-1.3-2.139,1.357-2.069.079.385-6.9,3.8-9.835,9.512-10.02,3.384-.106,12.788-.352,14.465-.825l24.783,9.288c1.13,1.487,8.24,1.429,7.637,19.059-.409,12.018.023,19.054-2.119,21.739a.645.645,0,0,1-.047.062c-.653.789,1.365,1.331.738,2.14" transform="translate(45.655 14.713)" fill="#fff"/>
            <path id="Path_7001" data-name="Path 7001" d="M160.038,19.026a1.8,1.8,0,0,0-.248-.319Z" transform="translate(66.993 7.843)" fill="#fca171"/>
            <path id="Path_7002" data-name="Path 7002" d="M160.552,14.491l-.179-.342a2.236,2.236,0,0,1,.179.342" transform="translate(67.237 5.932)" fill="#fca171"/>
            <path id="Path_7003" data-name="Path 7003" d="M169.422,47.61c-.368,1.939.911,3.747,3.388,5.81-3.49,5.651-11.638,18.2-11.638,18.2s-6.138-14.454-13.557-27.816c2.42-.609,5.213-.263,7.681-3.432a38.5,38.5,0,0,0,5.5-10.23c.031-.079.061-.163.089-.244,1.107-3.046,6.425-12.088,5.018-15.511l8.92,17.437,2.01,3.93c-2.785,3.885-6.574,7.45-7.406,11.854" transform="translate(61.889 6.034)" fill="#fca171"/>
            <path id="Path_7004" data-name="Path 7004" d="M166.513,42.955c-.061,1.659-.827,2.821-2.149,2.526-3.909-.864-9.81-7.633-9.816-12.925,2.061-2.653,1.819-2.945,3.335-7.065l14.029,1.682,2.01,3.931c-2.785,3.883-6.574,7.45-7.406,11.854" transform="translate(64.796 10.687)" fill="#dd7f50"/>
            <path id="Path_7005" data-name="Path 7005" d="M190.4,16.926A14.254,14.254,0,0,0,185.254,8.3l-2.021-1.5c-3.112-4.383-11.341-2.792-14.918-.1-4.252,3.2-11.167,12.881-13.168,17.937-4.046,10.229,2.445,24.96,11.683,27.3,5.217,1.318,17.121-9.979,17.507-15.649.79-11.556,7.22-10.253,6.064-19.354" transform="translate(64.532 1.705)" fill="#fca171"/>
            <path id="Path_7006" data-name="Path 7006" d="M186.339,16.553c-2.8,3.9-13.48-4.5-17.705-2.843-3.027,1.192-4.363,4.641-6.314,6.934-1.59,1.868-5.776,10.329-8.3,9.523l-.666-5.386c-.566-1.517.8-9.526,1.607-11.79a22.682,22.682,0,0,1,6.846-10.413A11.986,11.986,0,0,1,169.213,0c4.837-.035,17.084,5.453,17.752,12.556a5.921,5.921,0,0,1-.623,3.994" transform="translate(64.241 0)" fill="#838080"/>
            <path id="Path_7007" data-name="Path 7007" d="M190.961,19.327c.268-3.432-1.265-9.465-5.93-12.285a27.4,27.4,0,0,0-11.319-4.164l-5.031-.461c.8,1.767,9.383,5.094,10.47,7a14.709,14.709,0,0,1,1.768,5.964,22.285,22.285,0,0,0-.03,2.856,17.181,17.181,0,0,0,1.394,3.128c.959,2.462.074,3.833-1.039,5.959-.142.271-.329.542-.467.827,3.992-2.914,9.759-3.274,10.189-8.818" transform="translate(70.721 1.013)" fill="#838080"/>
            <path id="Path_7008" data-name="Path 7008" d="M186.339,15.79c-2.8,3.9-13.48-4.5-17.705-2.843-3.027,1.192-4.363,4.641-6.314,6.934-1.59,1.868-5.776,10.329-8.3,9.523l-.666-5.386c-.566-1.517.8-9.526,1.607-11.79a22.67,22.67,0,0,1,6.846-10.41,4.24,4.24,0,0,0-.754,3.731c.862,1.869,3.382-.352,4.64-.714a8.008,8.008,0,0,1,5.883.44c-2.384.176-6.106,1.428-6.337,4.259.8.219,1.7-.383,2.538-.548a7.754,7.754,0,0,1,2.966.038,16.164,16.164,0,0,1,5.536,2.443c3.144,2.059,6.215,4.227,10.055,4.323" transform="translate(64.241 0.763)" fill="#6d6c6c"/>
            <path id="Path_7009" data-name="Path 7009" d="M185,27.107c-.04.1-.1.2-.132.3-1.473,3.659-4.777,5.791-7.356,4.753s-3.481-4.831-2.034-8.477a2.1,2.1,0,0,0-1.108-1.459,1.76,1.76,0,0,0-1.513.1c-.159.06-.325.118-.5.167-.007.017-.016.034-.021.051-.05.1-.1.2-.135.29-1.472,3.66-5.173,5.633-8.24,4.4s-4.377-5.217-2.9-8.877c.037-.094.068-.2.1-.3a1.466,1.466,0,0,1,.593-.955,9.558,9.558,0,0,1,10.815,4.349.842.842,0,0,1,.04.2,2.47,2.47,0,0,1,2.062-.081,2.721,2.721,0,0,1,1.2,1.125.892.892,0,0,1,.281-.3,7,7,0,0,1,9.112,3.663,1.67,1.67,0,0,1-.257,1.056M171.89,21.681a8.914,8.914,0,0,0-9.807-3.943,1.452,1.452,0,0,0-.233.529c-.04.123-.078.246-.122.355-1.324,3.293-.2,6.854,2.5,7.941s5.978-.707,7.3-4c.043-.109.1-.224.159-.341a1.454,1.454,0,0,0,.2-.544m12.673,4.55A6.324,6.324,0,0,0,176.53,23a1.727,1.727,0,0,0-.247.555c-.026.067-.044.135-.068.2.01.077.016.155.018.233h-.106c-1.276,3.266-.545,6.619,1.651,7.5s5.1-1.064,6.421-4.357c.043-.109.1-.223.15-.338a1.75,1.75,0,0,0,.21-.571" transform="translate(67.272 7.016)" fill="#fff4f3"/>
          </g>
        </g>
        <g id="Group_6892" data-name="Group 6892" transform="translate(150.649 54.302)">
          <g id="Group_6891" data-name="Group 6891" transform="translate(0 0)" clip-path="url(#clip-path-4)">
            <path id="Path_7010" data-name="Path 7010" d="M197.4,82.664c-.653.791-1.321,1.582-1.95,2.394-.072.092-.145.187-.216.291-4.282,5.854-11.964,25.26-17.363,47.393l-.009.03c-2.773,11.375-4.42,25.118-7.288,34.194-3.506-.305-5.451-.089-8.929-.6a149.031,149.031,0,0,1-29.806-7.454c-3.264-1.2-6.475-2.545-9.63-4.011-.546-.255-1.093-.5-1.638-.755l-.152-.074-.16-.077c-.383-.183-.765-.369-1.147-.554q-1.92-.943-3.8-1.973a57.665,57.665,0,0,1-5.775-3.6c-.534-.379-1.059-.765-1.575-1.165-.2-.158-.4-.322-.606-.483,5.982-26.5,24.577-36.8,27.983-44.849a98.613,98.613,0,0,0,7.755-31.4,139.227,139.227,0,0,0,.68-15.461c-.116-3.663,5.73-10.248,5.417-13.869,5.49,23.387,3.946,44.8,45.562,42.2.862-.052,1.744-.119,2.641-.189" transform="translate(-105.636 -37.262)" fill="#f4f4f4"/>
          </g>
        </g>
        <g id="Group_6897" data-name="Group 6897">
          <g id="Group_6896" data-name="Group 6896" clip-path="url(#clip-path-2)">
            <path id="Path_7011" data-name="Path 7011" d="M147.346,53.422a151.819,151.819,0,0,1-5.907,17.191c-1.605,4-3.311,7.949-4.987,11.851-.549,1.274-2,4.891-3.948,8.771-3.865,7.7-11.812,18.611-15.033,11.473-4.16-9.218,1.881-25.9,4.252-33.155a122.317,122.317,0,0,1,15.145-30.778Z" transform="translate(48.653 16.257)" fill="#fca171"/>
            <path id="Path_7012" data-name="Path 7012" d="M131.459,57.509l.217.325a.756.756,0,0,0-.217-.325" transform="translate(55.115 24.111)" fill="#dd7f50"/>
            <path id="Path_7013" data-name="Path 7013" d="M147.421,41.9l1.773-6.228c-7.379-1.294-15.666,3.375-20.073,12.634a318.784,318.784,0,0,0-12.04,29.753c4.542,2.7,20.706,6.426,22.031,4.424,1.506-2.275,11.666-31.376,8.308-40.585" transform="translate(49.087 14.866)" fill="#fff"/>
            <path id="Path_7014" data-name="Path 7014" d="M178.608,52.823c-.786-4.77-8.027-8.971-12.5-10.522l.166,19.987" transform="translate(69.64 17.735)" fill="#fff"/>
            <g id="Group_6895" data-name="Group 6895" transform="translate(158.337 49.912)" opacity="0.8">
              <g id="Group_6894" data-name="Group 6894">
                <g id="Group_6893" data-name="Group 6893" clip-path="url(#clip-path-6)">
                  <path id="Path_7015" data-name="Path 7015" d="M162.062,35.168s-.525,28.115,9.59,31.207c12.922,3.95,17.319-21.188,17.319-21.188a29.81,29.81,0,0,1,7.711,4.144s-16.138,28.675-6.626,44.481c0,0-18.744,67.98-17.626,83.086s-59.306,5.036-59.306,5.036-4.58-16.537,1.957-40.843c3.635-13.514,16.743-37.484,21.541-43.083,13.428-15.666,20.821-49.454,14.887-62.215Z" transform="translate(-111.563 -35.168)" fill="#62bfd7" opacity="0.616"/>
                </g>
              </g>
            </g>
          </g>
        </g>
        <g id="Group_6899" data-name="Group 6899" transform="translate(365.68 77.544)">
          <g id="Group_6898" data-name="Group 6898" transform="translate(0)" clip-path="url(#clip-path-7)">
            <rect id="Rectangle_1825" data-name="Rectangle 1825" width="3.199" height="229.237" transform="translate(40.717 15.609)" fill="#b4cee4"/>
            <path id="Path_7016" data-name="Path 7016" d="M269.82,229.091h59.834a1.442,1.442,0,0,0,1.436-1.436v-3.69a1.442,1.442,0,0,0-1.436-1.436H269.82a1.442,1.442,0,0,0-1.436,1.436v3.69a1.442,1.442,0,0,0,1.436,1.436" transform="translate(-257.416 15.752)" fill="#9ab8ce"/>
            <rect id="Rectangle_1826" data-name="Rectangle 1826" width="6.706" height="11.915" transform="translate(66.972 240.475)" fill="#9ab8ce"/>
            <rect id="Rectangle_1827" data-name="Rectangle 1827" width="6.706" height="11.915" transform="translate(10.965 241.007)" fill="#9ab8ce"/>
            <path id="Path_7017" data-name="Path 7017" d="M309.933,233.5h4.814v9.63h-4.814a4.815,4.815,0,1,1,0-9.63" transform="translate(-242.015 20.352)" fill="#4a4846"/>
            <path id="Path_7018" data-name="Path 7018" d="M308.51,238.314a4.814,4.814,0,1,0,4.814-4.814,4.815,4.815,0,0,0-4.814,4.814" transform="translate(-240.593 20.352)" fill="#353331"/>
            <rect id="Rectangle_1828" data-name="Rectangle 1828" width="2.996" height="1.465" transform="translate(68.736 252.389)" fill="#353331"/>
            <path id="Path_7019" data-name="Path 7019" d="M270.471,233.875h4.814v9.63h-4.814a4.815,4.815,0,1,1,0-9.63" transform="translate(-258.56 20.51)" fill="#4a4846"/>
            <path id="Path_7020" data-name="Path 7020" d="M269.048,238.689a4.814,4.814,0,1,0,4.814-4.814,4.815,4.815,0,0,0-4.814,4.814" transform="translate(-257.138 20.51)" fill="#353331"/>
            <rect id="Rectangle_1829" data-name="Rectangle 1829" width="2.995" height="1.465" transform="translate(12.729 252.921)" fill="#9ab8ce"/>
            <path id="Path_7021" data-name="Path 7021" d="M315.937,59.024A4.168,4.168,0,0,1,320.1,63.14v3.975a2.151,2.151,0,0,0,2.142,2.142h.833a2.148,2.148,0,0,0,2.142-2.142V63.692h.017a.835.835,0,0,1,.816-.663h.653a.835.835,0,0,1,.816.663h.017v3.616a4.1,4.1,0,0,1-4.089,4.1h-1.594a4.1,4.1,0,0,1-4.093-4.093V63.2c0-1.152-1.121-2.085-3.264-2.085H287.145V59.025Z" transform="translate(-249.55 -52.798)" fill="#eff7ff"/>
            <path id="Path_7022" data-name="Path 7022" d="M277.509,59.024a4.168,4.168,0,0,0-4.165,4.116v3.975a2.151,2.151,0,0,1-2.142,2.142h-.833a2.151,2.151,0,0,1-2.142-2.142V63.692h-.017a.835.835,0,0,0-.816-.663h-.653a.835.835,0,0,0-.816.663h-.017v3.616A4.1,4.1,0,0,0,270,71.4h1.594a4.1,4.1,0,0,0,4.093-4.093V63.2c0-1.152,1.121-2.085,3.264-2.085H306.3V59.025Z" transform="translate(-258.454 -52.798)" fill="#eff7ff"/>
            <path id="Path_7023" data-name="Path 7023" d="M289.448,72.563h3.437a.628.628,0,0,0,.626-.626V55.263a.626.626,0,0,0-.626-.624h-3.437a.627.627,0,0,0-.622.624V71.937a.628.628,0,0,0,.626.626" transform="translate(-248.846 -54.636)" fill="#9ab8ce"/>
            <path id="Path_7024" data-name="Path 7024" d="M308.308,69.2V68.112a2.907,2.907,0,0,1,2.9-2.9h8.454a1.623,1.623,0,0,1,.275.016,2.908,2.908,0,0,1,2.624,2.887V69.2a3.591,3.591,0,0,1,3.134,3.548V95.234a3.584,3.584,0,0,1-3.575,3.575H308.749a3.586,3.586,0,0,1-3.575-3.578V72.745a3.586,3.586,0,0,1,3.134-3.548m10.551-1.7a1.457,1.457,0,0,0-1.31-.833h-4.227A1.452,1.452,0,0,0,311.877,68v.109a1.453,1.453,0,0,0,1.449,1.45h4.222A1.454,1.454,0,0,0,319,68.112a1.434,1.434,0,0,0-.133-.6V67.5" transform="translate(-300.916 -50.203)" fill="#dce4e9"/>
          </g>
        </g>
        <g id="Group_6911" data-name="Group 6911" transform="translate(364.261 77.544)">
          <g id="Group_6910" data-name="Group 6910" transform="translate(0)" clip-path="url(#clip-path-8)">
            <g id="Group_6904" data-name="Group 6904" transform="translate(7.346 21.553)" opacity="0.54">
              <g id="Group_6903" data-name="Group 6903">
                <g id="Group_6902" data-name="Group 6902" clip-path="url(#clip-path-9)">
                  <g id="Group_6901" data-name="Group 6901" transform="translate(0)">
                    <g id="Group_6900" data-name="Group 6900" clip-path="url(#clip-path-9)">
                      <path id="Path_7025" data-name="Path 7025" d="M323.535,72.816V91.648a3,3,0,0,1-2.993,2.995h-11.2a3,3,0,0,1-2.995-2.995V72.816a3,3,0,0,1,2.995-2.993h11.2a3,3,0,0,1,2.993,2.993" transform="translate(-306.349 -69.823)" fill="#fff"/>
                    </g>
                  </g>
                </g>
              </g>
            </g>
            <path id="Path_7026" data-name="Path 7026" d="M323.535,76.882V89.76a3,3,0,0,1-2.993,2.995h-11.2a3,3,0,0,1-2.995-2.995V74.506a11.951,11.951,0,0,1,8.034,1.419,13.335,13.335,0,0,0,9.151.952" transform="translate(-299.003 -46.382)" fill="#d6e8f0"/>
            <path id="Path_7027" data-name="Path 7027" d="M323.535,76.126v12.88A3,3,0,0,1,320.542,92h-11.2a3,3,0,0,1-2.995-2.995V78.448c4.246.762,13.161,1.753,17.186-2.322" transform="translate(-299.003 -45.628)" fill="#c7dce4"/>
            <g id="Group_6909" data-name="Group 6909" transform="translate(8.875 26.258)" opacity="0.61">
              <g id="Group_6908" data-name="Group 6908">
                <g id="Group_6907" data-name="Group 6907" clip-path="url(#clip-path-11)">
                  <g id="Group_6906" data-name="Group 6906" transform="translate(0.001 0.001)">
                    <g id="Group_6905" data-name="Group 6905" clip-path="url(#clip-path-12)">
                      <path id="Path_7028" data-name="Path 7028" d="M317,88.549h-.275a1.135,1.135,0,0,1-1.127-1.127V74.265a1.137,1.137,0,0,1,1.127-1.128H317a1.136,1.136,0,0,1,1.127,1.128V87.422A1.135,1.135,0,0,1,317,88.549" transform="translate(-315.6 -73.14)" fill="#fff"/>
                    </g>
                  </g>
                </g>
              </g>
            </g>
            <path id="Path_7029" data-name="Path 7029" d="M317.983,69.414a1.449,1.449,0,0,0-1.445-1.338h-2.33a2.153,2.153,0,0,1-1.885-1.435v-.016a2.049,2.049,0,0,1-.114-.687V62.511h-.017a.835.835,0,0,0-.816-.663h-.654a.835.835,0,0,0-.816.663h-.017v3.613a3.671,3.671,0,0,0,.033.514v.014a4.1,4.1,0,0,0,4.053,3.567h1.607a4.063,4.063,0,0,0,2.413-.789v-.014" transform="translate(-301.014 -51.614)" fill="#eff7ff"/>
            <rect id="Rectangle_1835" data-name="Rectangle 1835" width="0.975" height="85.96" transform="translate(15.451 48.604)" fill="#c7dce4"/>
          </g>
        </g>
        <g id="Group_6913" data-name="Group 6913">
          <g id="Group_6912" data-name="Group 6912" clip-path="url(#clip-path-2)">
            <path id="Path_7030" data-name="Path 7030" d="M122.675,230.321c-3.406-.341-4.042,2.5-4.647,3.846-.718,1.6-1.886,2.092-3,3.037-1.964,1.668-6.969,3.009-6.043,7.6,4.124.467,14.452.815,18.659-.062,1.811-.376.641-1.6-.961-5.609-.945-2.364-.8-8.493-4.007-8.814" transform="translate(45.645 96.552)" fill="#fff"/>
          </g>
        </g>
        <g id="Group_6915" data-name="Group 6915" transform="translate(0 73.332)">
          <g id="Group_6914" data-name="Group 6914" clip-path="url(#clip-path-14)">
            <path id="Path_7031" data-name="Path 7031" d="M348.19,130.011H235.2c-18.118,0-32.944,11.39-32.944,25.305v55.734a1.389,1.389,0,0,0,1.524,1.171H379.606a1.389,1.389,0,0,0,1.524-1.171V155.312c0-13.917-14.824-25.305-32.944-25.305m-9.77,12.773c0-1.937,2.064-3.524,4.586-3.524h2.782a5.649,5.649,0,0,1,.71.045c10.5.6,18.861,7.391,18.861,15.612V161.7c0,1.936-2.065,3.523-4.587,3.523H343c-2.522,0-4.586-1.587-4.586-3.523Zm-74.837-.068c0-1.9,2.024-3.457,4.5-3.457h47.23c2.474,0,4.5,1.561,4.5,3.457v7.7c0,1.9-2.025,3.456-4.5,3.456h-47.23c-2.474,0-4.5-1.554-4.5-3.456Zm-45.558,12.2c0-8.216,8.355-15.007,18.86-15.612a6.055,6.055,0,0,1,.717-.044h2.782c2.522,0,4.586,1.587,4.586,3.524v18.912c0,1.939-2.064,3.524-4.586,3.524H222.621c-2.523,0-4.587-1.585-4.587-3.524Z" transform="translate(84.797 -18.825)" fill="#d8cbc0"/>
            <path id="Path_7032" data-name="Path 7032" d="M344.5,130.011H231.509c-18.118,0-32.944,11.39-32.944,25.305v55.734a1.389,1.389,0,0,0,1.524,1.171H375.915a1.389,1.389,0,0,0,1.524-1.171V155.312c0-13.917-14.824-25.305-32.944-25.305m-9.77,12.773c0-1.937,2.064-3.524,4.586-3.524h2.782a5.651,5.651,0,0,1,.71.045c10.5.6,18.86,7.391,18.86,15.612V161.7c0,1.936-2.065,3.523-4.587,3.523H339.311c-2.523,0-4.586-1.587-4.586-3.523Zm-74.837-.068c0-1.9,2.024-3.457,4.5-3.457h47.229c2.474,0,4.5,1.561,4.5,3.457v7.7c0,1.9-2.025,3.456-4.5,3.456H264.389c-2.474,0-4.5-1.554-4.5-3.456Zm-45.558,12.2c0-8.216,8.355-15.007,18.861-15.612a6.246,6.246,0,0,1,.71-.044h2.782c2.522,0,4.586,1.587,4.586,3.524v18.912c0,1.939-2.064,3.524-4.586,3.524h-17.77c-2.523,0-4.587-1.585-4.587-3.524Z" transform="translate(83.25 -18.825)" fill="#b4b1ad"/>
            <path id="Path_7033" data-name="Path 7033" d="M350.956,157.753H216c-3.649,0-6.635,2.294-6.635,5.1v13.306c0,2.8,2.98,5.1,6.635,5.1h134.96c3.65,0,6.636-2.294,6.636-5.1V162.85c0-2.8-2.98-5.1-6.636-5.1" transform="translate(87.776 -7.193)" fill="#3e4c5e"/>
            <path id="Path_7034" data-name="Path 7034" d="M204.719,236.666h-5.282a5.044,5.044,0,0,1-5.028-5.028V198.71a5.044,5.044,0,0,1,5.028-5.028h5.282a5.044,5.044,0,0,1,5.028,5.028v32.927a5.044,5.044,0,0,1-5.028,5.028" transform="translate(81.507 7.871)" fill="#98938c"/>
            <path id="Path_7035" data-name="Path 7035" d="M26.336,222.789h8.374a.826.826,0,0,1,.825.825v5.718a7.611,7.611,0,1,1-10.027,7.218c0-.121,0-.24.009-.358s-.009-.238-.009-.358v-12.22a.828.828,0,0,1,.825-.825" transform="translate(10.694 20.074)" fill="#9f9c97"/>
            <path id="Path_7036" data-name="Path 7036" d="M23.334,236.069a10.988,10.988,0,0,1,7.048-10.257v-.728h3.937a10.985,10.985,0,0,1,0,21.97H30.381v-.728a10.986,10.986,0,0,1-7.048-10.257" transform="translate(9.783 21.036)" fill="#4a4846"/>
            <path id="Path_7037" data-name="Path 7037" d="M20.56,236.069a10.985,10.985,0,1,0,10.985-10.985A10.984,10.984,0,0,0,20.56,236.069" transform="translate(8.62 21.036)" fill="#353331"/>
            <path id="Path_7038" data-name="Path 7038" d="M23.479,222.789h8.374a.826.826,0,0,1,.825.825v5.718A7.611,7.611,0,1,1,22.65,236.55c0-.121,0-.24.009-.358s-.009-.238-.009-.358v-12.22a.826.826,0,0,1,.825-.825" transform="translate(9.496 20.074)" fill="#98938c"/>
            <rect id="Rectangle_1838" data-name="Rectangle 1838" width="14.088" height="3.393" transform="translate(32.15 241.072)" fill="#98938c"/>
            <rect id="Rectangle_1839" data-name="Rectangle 1839" width="4.06" height="3.393" transform="translate(42.179 241.072)" fill="#dedcdb"/>
            <path id="Path_7039" data-name="Path 7039" d="M296.876,227.955H25.765a3.13,3.13,0,0,1-3.122-3.122V217.6a3.13,3.13,0,0,1,3.122-3.122H296.876A3.13,3.13,0,0,1,300,217.6v7.228a3.13,3.13,0,0,1-3.122,3.122" transform="translate(9.493 16.591)" fill="#98938c"/>
            <path id="Path_7040" data-name="Path 7040" d="M211.939,222.789h8.374a.828.828,0,0,1,.825.825v5.718a7.612,7.612,0,1,1-10.028,7.218c0-.121,0-.24.009-.358s-.009-.238-.009-.358v-12.22a.828.828,0,0,1,.825-.825" transform="translate(88.509 20.074)" fill="#9f9c97"/>
            <path id="Path_7041" data-name="Path 7041" d="M208.938,236.069a10.99,10.99,0,0,1,7.047-10.257v-.728h3.938a10.985,10.985,0,0,1,0,21.97h-3.938v-.728a10.988,10.988,0,0,1-7.047-10.257" transform="translate(87.599 21.036)" fill="#4a4846"/>
            <path id="Path_7042" data-name="Path 7042" d="M206.163,236.069a10.985,10.985,0,1,0,10.985-10.985,10.984,10.984,0,0,0-10.985,10.985" transform="translate(86.435 21.036)" fill="#353331"/>
            <path id="Path_7043" data-name="Path 7043" d="M209.083,222.789h8.374a.827.827,0,0,1,.823.825v5.718a7.612,7.612,0,1,1-10.027,7.218c0-.121,0-.24.008-.358s-.008-.238-.008-.358v-12.22a.828.828,0,0,1,.825-.825" transform="translate(87.311 20.074)" fill="#98938c"/>
            <rect id="Rectangle_1840" data-name="Rectangle 1840" width="14.088" height="3.393" transform="translate(295.57 241.072)" fill="#98938c"/>
            <rect id="Rectangle_1841" data-name="Rectangle 1841" width="4.061" height="3.393" transform="translate(305.597 241.072)" fill="#bdb4a8"/>
            <path id="Path_7044" data-name="Path 7044" d="M44.079,236.673H38.8a5.044,5.044,0,0,1-5.034-5.028V198.717a5.042,5.042,0,0,1,5.028-5.028h5.282a5.044,5.044,0,0,1,5.028,5.028v32.927a5.044,5.044,0,0,1-5.028,5.028" transform="translate(14.155 7.874)" fill="#98938c"/>
            <path id="Path_7045" data-name="Path 7045" d="M413.09,176.356V192c0,.744-1.1,1.353-2.447,1.353H128.482c-1.345,0-2.447-.609-2.447-1.353V176.356c0-.744,1.1-1.353,2.447-1.353H410.643c1.345,0,2.447.609,2.447,1.353" transform="translate(52.841 0.04)" fill="#d8cbc0"/>
            <path id="Path_7046" data-name="Path 7046" d="M260.457,191.916l-2.264-1.683a1.371,1.371,0,0,1-.284-1.912L312,115.638a1.369,1.369,0,0,1,1.912-.285l2.271,1.686a1.37,1.37,0,0,1,.284,1.912l-54.086,72.683a1.37,1.37,0,0,1-1.912.282" transform="translate(108.018 -25.081)" fill="#d8cbc0"/>
            <path id="Path_7047" data-name="Path 7047" d="M396.847,171.166v6.245H129.726v-8.139H394.948a1.906,1.906,0,0,1,1.9,1.9" transform="translate(54.388 -2.364)" fill="#dff1f2"/>
            <path id="Path_7048" data-name="Path 7048" d="M164.95,187.93v8.883a6.53,6.53,0,0,1-6.516,6.516H14.613A6.53,6.53,0,0,1,8.1,196.813V187.93Z" transform="translate(3.395 5.459)" fill="#b4b1ad"/>
            <path id="Path_7049" data-name="Path 7049" d="M363.177,187.93v8.883a6.529,6.529,0,0,1-6.516,6.516H212.84a6.53,6.53,0,0,1-6.516-6.516V187.93Z" transform="translate(86.503 5.459)" fill="#b4b1ad"/>
            <path id="Path_7050" data-name="Path 7050" d="M401.874,187.93v8.883a6.529,6.529,0,0,1-6.516,6.516H114.025a6.53,6.53,0,0,0,6.516-6.516V187.93Z" transform="translate(47.806 5.459)" fill="#98938c"/>
            <path id="Path_7051" data-name="Path 7051" d="M315.276,162.3H129.727v9.888H315.618Z" transform="translate(54.389 -5.285)" fill="#d8cbc0"/>
            <path id="Path_7052" data-name="Path 7052" d="M316.349,156.539v12.216a2.438,2.438,0,0,1-2.494,2.357H125.715a2.436,2.436,0,0,1-2.494-2.357V156.539a2.432,2.432,0,0,1,2.494-2.356H313.856a2.436,2.436,0,0,1,2.494,2.356" transform="translate(51.661 -8.69)" fill="#c7ced8"/>
            <path id="Path_7053" data-name="Path 7053" d="M319.928,104.033l-86.548-.128a2.974,2.974,0,0,0-1.976.85l-1.252,1.682-29.6,39.776h7.961c-.527.227-.81.353-.81.353l-12.631,28.7h79.762l5.17-6.954,47.3-63.559a1.8,1.8,0,0,1,1.419-.722Z" transform="translate(81.786 -29.77)" fill="#a6b1c2"/>
            <path id="Path_7054" data-name="Path 7054" d="M248,159.885s-2.829-46.95,35.907-57.947c0,0,6.113,48.516-35.907,57.947" transform="translate(103.957 -30.593)" fill="#d5cd94"/>
            <path id="Path_7055" data-name="Path 7055" d="M262.428,159.9l-48.837-.034s-2.829-46.949,35.907-57.948l48.837.035c-38.737,11-35.907,57.947-35.907,57.947" transform="translate(89.53 -30.604)" fill="#fff8c8"/>
            <path id="Path_7056" data-name="Path 7056" d="M304.815,236.652h-5.282a5.044,5.044,0,0,1-5.028-5.028V198.7a5.044,5.044,0,0,1,5.028-5.028h5.282a5.043,5.043,0,0,1,5.03,5.028v32.927a5.043,5.043,0,0,1-5.03,5.028" transform="translate(123.473 7.865)" fill="#d2d0cc"/>
            <path id="Path_7057" data-name="Path 7057" d="M319.636,115.6,263.2,191.433a1.8,1.8,0,0,1-2.509.368l-7.347-5.467-4.4-3.276a1.8,1.8,0,0,1-.368-2.508l56.43-75.834a1.8,1.8,0,0,1,2.506-.369l11.749,8.744a1.8,1.8,0,0,1,.369,2.508" transform="translate(104.07 -29.731)" fill="#c7ced8"/>
            <path id="Path_7058" data-name="Path 7058" d="M182.565,177.916v13.54a1.388,1.388,0,0,1-1.524,1.171H5.22A1.388,1.388,0,0,1,3.7,191.456v-13.54a1.389,1.389,0,0,1,1.524-1.171h175.82a1.389,1.389,0,0,1,1.524,1.171" transform="translate(1.55 0.767)" fill="#98938c"/>
            <path id="Path_7059" data-name="Path 7059" d="M311.876,222.775h8.374a.828.828,0,0,1,.825.825v5.718a7.612,7.612,0,1,1-10.028,7.218c0-.121,0-.238.009-.358s-.009-.238-.009-.358V223.6a.828.828,0,0,1,.825-.825" transform="translate(130.408 20.068)" fill="#9f9c97"/>
            <path id="Path_7060" data-name="Path 7060" d="M308.875,236.056a10.99,10.99,0,0,1,7.047-10.257v-.728h3.937a10.985,10.985,0,1,1,.034,21.97h-3.971v-.728a10.988,10.988,0,0,1-7.047-10.257" transform="translate(129.498 21.031)" fill="#4a4846"/>
            <path id="Path_7061" data-name="Path 7061" d="M306.1,236.056a10.985,10.985,0,1,0,10.985-10.985A10.984,10.984,0,0,0,306.1,236.056" transform="translate(128.335 21.031)" fill="#353331"/>
            <path id="Path_7062" data-name="Path 7062" d="M309.02,222.775h8.374a.827.827,0,0,1,.823.825v5.718a7.612,7.612,0,1,1-10.027,7.218q0-.181.009-.358c0-.119-.009-.238-.009-.358V223.6a.826.826,0,0,1,.825-.825" transform="translate(129.211 20.068)" fill="#d2d0cc"/>
            <rect id="Rectangle_1842" data-name="Rectangle 1842" width="14.088" height="3.393" transform="translate(437.406 241.052)" fill="#d2d0cc"/>
            <rect id="Rectangle_1843" data-name="Rectangle 1843" width="4.06" height="3.393" transform="translate(447.435 241.052)" fill="#dedcdb"/>
            <path id="Path_7063" data-name="Path 7063" d="M126.443,222.885h8.374a.826.826,0,0,1,.825.825v5.718a7.611,7.611,0,1,1-10.027,7.218q0-.181.009-.358a2.514,2.514,0,0,0-.009-.358v-12.22a.826.826,0,0,1,.825-.825" transform="translate(52.665 20.114)" fill="#9f9c97"/>
            <path id="Path_7064" data-name="Path 7064" d="M123.442,236.166a10.986,10.986,0,0,1,7.048-10.257v-.728h3.937a10.985,10.985,0,0,1,0,21.97H130.49v-.728a10.986,10.986,0,0,1-7.048-10.257" transform="translate(51.754 21.077)" fill="#4a4846"/>
            <path id="Path_7065" data-name="Path 7065" d="M120.667,236.166a10.985,10.985,0,1,0,10.985-10.985,10.984,10.984,0,0,0-10.985,10.985" transform="translate(50.59 21.077)" fill="#353331"/>
            <path id="Path_7066" data-name="Path 7066" d="M123.587,222.885h8.374a.826.826,0,0,1,.825.825v5.718a7.611,7.611,0,1,1-10.027,7.218q0-.181.009-.358a2.518,2.518,0,0,0-.009-.358v-12.22a.826.826,0,0,1,.825-.825" transform="translate(51.467 20.114)" fill="#d2d0cc"/>
            <rect id="Rectangle_1844" data-name="Rectangle 1844" width="14.088" height="3.393" transform="translate(174.229 241.208)" fill="#d2d0cc"/>
            <rect id="Rectangle_1845" data-name="Rectangle 1845" width="4.061" height="3.393" transform="translate(184.256 241.208)" fill="#dedcdb"/>
            <path id="Path_7067" data-name="Path 7067" d="M396.972,227.941H125.861a3.13,3.13,0,0,1-3.122-3.122V217.59a3.13,3.13,0,0,1,3.122-3.122H396.972a3.13,3.13,0,0,1,3.122,3.122v7.228a3.13,3.13,0,0,1-3.122,3.122" transform="translate(51.459 16.586)" fill="#d2d0cc"/>
            <path id="Path_7068" data-name="Path 7068" d="M144.173,236.659H138.89a5.044,5.044,0,0,1-5.028-5.028V198.7a5.044,5.044,0,0,1,5.028-5.028h5.283A5.044,5.044,0,0,1,149.2,198.7V231.63a5.044,5.044,0,0,1-5.028,5.028" transform="translate(56.123 7.868)" fill="#d2d0cc"/>
          </g>
        </g>
        <g id="Group_6917" data-name="Group 6917" transform="translate(210.095 110.482)">
          <g id="Group_6916" data-name="Group 6916" clip-path="url(#clip-path-15)">
            <path id="Path_7069" data-name="Path 7069" d="M258.254,125.793s4.444,26.333-1.371,30.657l-12.176-12.128-1.347-11.673Z" transform="translate(-108.065 -57.743)" fill="#e39379"/>
            <path id="Path_7070" data-name="Path 7070" d="M291.366,142.488l-1.561.595-20.088,7.627-.021,10.124-.065,30.372s-1.032,18.361-6.757,19.051-85.656,0-85.656,0V187.917l17.727-37.207a.289.289,0,0,1,.016-.037c.637-1.277,17.477-34.986,26.578-48.353,10.521-8.049,18.236-11.627,22.748-13.2,1.178-.41,2.137-.686,2.871-.866a13.815,13.815,0,0,1,1.766-.346v-.085l17.5,1.309a24.484,24.484,0,0,1,5.19,2.874,27.975,27.975,0,0,1,2.454,2.008c13.154,12.071,16.463,37.485,17.3,48.476" transform="translate(-135.796 -73.661)" fill="#cae1f5"/>
            <path id="Path_7071" data-name="Path 7071" d="M249.09,138.28l-2.758-20.811-19.915,80.365h13.87s5.8,2.824,6.76-25.515Z" transform="translate(-115.169 -61.232)" fill="#bed4e7"/>
            <path id="Path_7072" data-name="Path 7072" d="M218.986,96.151l-19.222,32.468-7.816-8.337v-.009a198.808,198.808,0,0,1,23.409-21.445q1.871-1.429,3.622-2.677" transform="translate(-129.62 -70.17)" fill="#bed4e7"/>
            <path id="Path_7073" data-name="Path 7073" d="M199.7,115.652l-18.325,25.586,12.5,1.02L204.2,120.443Z" transform="translate(-134.053 -61.994)" fill="#e39379"/>
            <path id="Path_7074" data-name="Path 7074" d="M251.166,92a22.969,22.969,0,0,1-1.238,2.944c-4.144,8.192-12.335,12.384-18.3,9.367-4.943-2.5-6.8-9.183-4.921-16.066a13.338,13.338,0,0,1,1.766-.346v-.074l17.5,1.307a24.421,24.421,0,0,1,5.19,2.874" transform="translate(-115.348 -73.66)" fill="#d88c74"/>
            <path id="Path_7075" data-name="Path 7075" d="M245.243,95.027c-.142-.048-.23-.077-.277-.091a.115.115,0,0,0-.031,0l-5.131,9.255a3.821,3.821,0,0,1-6.872,0l-.348-.633c-.1-.194-.179-.4-.261-.606l-.061.028-4.41-7.962-.051-.084-.061.021V79.961l17.349-2.116.045,5.24Z" transform="translate(-114.613 -77.845)" fill="#d88c74"/>
            <path id="Path_7076" data-name="Path 7076" d="M254.384,139.44l-45.558-5.793,2.206,6.784s25.121,14.495,42.593,14.495,18.166-2.129,18.166-2.129,5.857-12.386-17.407-13.351" transform="translate(-122.544 -54.45)" fill="#e39379"/>
            <path id="Path_7078" data-name="Path 7078" d="M169.781,123.83c.786.751,2.122,1.246,2.445,2.171a2.914,2.914,0,0,1,.035,1.449,9.1,9.1,0,0,1-1.459,4.326,8.671,8.671,0,0,0-2.511-.921c-.416.238-5.46,3.188-6.519,3.97s-5.578,1.793-6.612,1.2c-.429-.241-.158-.722.416-1.267a18.916,18.916,0,0,1,3.149-2.189,23.266,23.266,0,0,0,2.768-1.866s-5.406,2.8-6.842,3.439a3.373,3.373,0,0,1-1.446.267c-1-.034-1.839-.48-1.744-1a2.468,2.468,0,0,1,.112-.365,1.141,1.141,0,0,1,.04-.416,3.547,3.547,0,0,1,1.042-1.418,3.363,3.363,0,0,1-1.354.684,2.137,2.137,0,0,1-1.661-.271c-.512-.4-.38-.969-.213-1.445q.911-2.61,1.822-5.216a18.567,18.567,0,0,1-2.924,1.81,2.726,2.726,0,0,1-1.5.368,1.362,1.362,0,0,1-1.3-1.231,2.5,2.5,0,0,1,.852-1.425q1.437-1.529,2.865-3.054a9.941,9.941,0,0,1,1.937-1.722,5.528,5.528,0,0,1,2.914-.85c1.939,0,3.686,1.049,5.624,1.286a9.408,9.408,0,0,1,2.306.348c.7.284,1.12.833,1.839,1.079a24.277,24.277,0,0,0,3.061.23,5.626,5.626,0,0,1,2.858,2.028" transform="translate(-149.083 -60.65)" fill="#e39379"/>
            <path id="Path_7079" data-name="Path 7079" d="M195.905,134.953c-1.259,0-31.472-11.75-31.472-11.75l-2.1,6.714,19.3,19.3Z" transform="translate(-142.036 -58.828)" fill="#e39379"/>
          </g>
        </g>
        <g id="Group_6919" data-name="Group 6919" transform="translate(0 73.332)">
          <g id="Group_6918" data-name="Group 6918" clip-path="url(#clip-path-14)">
            <path id="Path_7080" data-name="Path 7080" d="M254.908,73.993a6.08,6.08,0,1,1-8.477,1.436,6.079,6.079,0,0,1,8.477-1.436" transform="translate(102.847 -42.781)"/>
            <path id="Path_7081" data-name="Path 7081" d="M231.075,72.254l-.007,0Z" transform="translate(96.877 -43.04)"/>
            <path id="Path_7082" data-name="Path 7082" d="M219.518,80.282c.36-.921,1.622-.937,4.391-4.823.434-1.242.792-2.147.937-2.514,5.027-12.7,13.76-18.482,23.853-14.469S264.548,70.3,259.52,83.021a26.294,26.294,0,0,1-22.514,17.1c-2.374.248-13.043-1.389-14.63-3.5-2.13-2.833-1.8-7.968-.825-12.752-.9-.681-2.7-1.875-2.034-3.582" transform="translate(91.974 -49.342)" fill="#e39379"/>
            <path id="Path_7083" data-name="Path 7083" d="M263.432,77.274c.982-13.267-13.472-20.943-26.54-20.534a8.848,8.848,0,0,0-6.123,2.555c-7,1.592-3.7,5.122-1.307,7.252,2.438,2.154,6.722,6.377,3.947,10.616,1.128.236,2.819-.782,3.89-2.733a69.106,69.106,0,0,1,2.264,7.261c.006,1.189,3.384-2.364,4.249.368,1.188,3.72-2.861,7.868-2.861,7.868l1.812,8.639s19.3-2.721,20.669-21.292" transform="translate(94.984 -49.549)"/>
            <path id="Path_7084" data-name="Path 7084" d="M332.336,153.633v45.619s-.224,14.782-18.521,14.782H211.37s-15.882-.62-24.3-18.351c-2.367-4.983-7-9.628-12.444-13.727-13.909-10.483-33.086-17.411-33.086-17.411H22.643s50.34-30.19,83.364-30.828H301.392s30.94,1.249,30.94,19.922" transform="translate(9.493 -17.27)" fill="#fff8c8"/>
            <path id="Path_7085" data-name="Path 7085" d="M149.624,130.011H36.636c-18.118,0-32.944,11.39-32.944,25.305v55.734a1.388,1.388,0,0,0,1.524,1.172H181.044a1.388,1.388,0,0,0,1.524-1.172V155.312c0-13.917-14.824-25.305-32.944-25.305M46.406,161.689c0,1.939-2.064,3.524-4.586,3.524H24.048c-2.523,0-4.587-1.585-4.587-3.524V154.9c0-8.219,8.355-15.007,18.86-15.612a5.934,5.934,0,0,1,.71-.045h2.782c2.523,0,4.586,1.585,4.586,3.523Zm74.837-11.28c0,1.9-2.024,3.454-4.5,3.454H69.514c-2.474,0-4.5-1.561-4.5-3.454V142.7c0-1.9,2.025-3.454,4.5-3.454h47.23c2.474,0,4.5,1.56,4.5,3.454Zm45.558,11.28c0,1.939-2.065,3.524-4.587,3.524H144.44c-2.522,0-4.586-1.585-4.586-3.524V142.775c0-1.936,2.064-3.523,4.586-3.523h2.782a5.932,5.932,0,0,1,.71.044c10.5.6,18.861,7.391,18.861,15.612Z" transform="translate(1.548 -18.825)" fill="#b4b1ad"/>
            <path id="Path_7086" data-name="Path 7086" d="M145.932,130.011H32.944C14.824,130.011,0,141.4,0,155.312v55.738a1.389,1.389,0,0,0,1.524,1.171H177.352a1.389,1.389,0,0,0,1.524-1.171V155.312c0-13.917-14.824-25.305-32.944-25.305m-9.77,12.773c0-1.937,2.064-3.524,4.586-3.524h2.782a5.651,5.651,0,0,1,.71.045c10.5.6,18.86,7.391,18.86,15.612V161.7c0,1.936-2.065,3.523-4.587,3.523H140.748c-2.523,0-4.586-1.587-4.586-3.523Zm-74.837-.068c0-1.9,2.025-3.457,4.5-3.457h47.229c2.474,0,4.5,1.561,4.5,3.457v7.7c0,1.9-2.025,3.456-4.5,3.456H65.824c-2.474,0-4.5-1.554-4.5-3.456Zm-45.558,12.2c0-8.216,8.355-15.007,18.861-15.612a6.246,6.246,0,0,1,.71-.044h2.782c2.523,0,4.586,1.587,4.586,3.524v18.912c0,1.939-2.064,3.524-4.586,3.524H20.356c-2.523,0-4.587-1.585-4.587-3.524Z" transform="translate(0 -18.825)" fill="#d2d0cc"/>
            <path id="Path_7087" data-name="Path 7087" d="M152.391,157.754H17.431c-3.649,0-6.635,2.294-6.635,5.1v13.306c0,2.8,2.98,5.1,6.635,5.1h134.96c3.649,0,6.635-2.294,6.635-5.1V162.851c0-2.8-2.98-5.1-6.635-5.1" transform="translate(4.526 -7.192)" fill="#3e4c5e"/>
            <path id="Path_7088" data-name="Path 7088" d="M178.876,177.916v13.538a1.388,1.388,0,0,1-1.524,1.172H1.524A1.388,1.388,0,0,1,0,191.455V177.916a1.386,1.386,0,0,1,1.524-1.171H177.352a1.386,1.386,0,0,1,1.524,1.171" transform="translate(0 0.767)" fill="#b4b1ad"/>
            <path id="Path_7089" data-name="Path 7089" d="M254.384,139.44l-45.558-5.793,2.206,6.784s25.121,14.495,42.593,14.495,18.166-2.129,18.166-2.129,5.857-12.386-17.407-13.351" transform="translate(87.552 -17.299)" fill="#e39379"/>
            <path id="Path_7090" data-name="Path 7090" d="M215.91,136.108A8.931,8.931,0,0,0,213,133.556a120.437,120.437,0,0,0-12.02-3.551c-1,0-7.47.68-8.016,1.16a60.81,60.81,0,0,0-5.23,4.976c-.308.647-.715,1.724-.176,1.927a2.373,2.373,0,0,0,2.046-.3,4.2,4.2,0,0,0,1.054-.769s-1.239,2.269-.933,2.626a1.565,1.565,0,0,0,1.677.481,11.665,11.665,0,0,0,2.048-2.412,27.883,27.883,0,0,1,3.584-2.635,41.7,41.7,0,0,1,5.569-.579,47.7,47.7,0,0,0-5.077,1.659,37.411,37.411,0,0,0-5.012,3.967c-.606.717-1.406,1.4-1.331,1.908s1.537,1,2.528.251,4.954-3.624,5.848-3.833,2.669-.159,2.783.16-1.048,1.09-1.577,1.416-3.834,1.827-4.212,2.179-.893,1.322-.629,1.765,1.8.114,2.667-.266a50.977,50.977,0,0,1,5.986-2.233,19.334,19.334,0,0,1,4.328.472,4.153,4.153,0,0,0,2.922-.356s4.924-3,4.085-5.468" transform="translate(87.21 -15.988)" fill="#e39379"/>
          </g>
        </g>
        <g id="Group_6921" data-name="Group 6921">
          <g id="Group_6920" data-name="Group 6920" clip-path="url(#clip-path-2)">
            <path id="Path_7091" data-name="Path 7091" d="M148.258,113.608c-3.385-7.39-9.051-19.955-14.43-26.049L136.346,69.1c-4.784,4.387-20.576,17.108-19.3,20.667,4.544,12.688,24.357,37.193,36.613,47.075,1.815-1.365,4.543-3.186,6.26-4.472-4.684-6.236-8.709-11.818-11.659-18.758" transform="translate(49.041 28.969)" fill="#fca171"/>
            <path id="Path_7092" data-name="Path 7092" d="M159.664,132.23l-.119-.192a1.832,1.832,0,0,1-.871,1.16,1.653,1.653,0,0,1-2.267-.358l-.248-.4a1.776,1.776,0,0,1-.9,1.431,1.658,1.658,0,0,1-2.269-.355l-.294-.473a1.525,1.525,0,0,1-.835,1.02c-.551.207-1.838.332-2.267-.358,0,0-1.018-1.263-2.186-2.936a27.09,27.09,0,0,1-3.107-5.434c-1.318-2.295-1.353-5.982-3.03-7.87,1.177-3.024,2.82-5.511,5.664-6.609,2.092,2.037,7.372,2.339,9.7,4.657,1.056,1.055,1.812,2.658,3.026,3.778,1.08,1,4.679,3.382,3.611,4.166-1.548,1.835-3.4.576-4.9-.51l2.915,5.141,1.171,2.061a1.8,1.8,0,0,1-2.776,2.083" transform="translate(59.228 46.478)" fill="#62bfd7"/>
            <path id="Path_7093" data-name="Path 7093" d="M168.146,57.758a60.258,60.258,0,0,1-2.88,13.728c-.5,1.9-.5,11.949,2.379,14.826.139.141-1.262,4.651-.979,5.735,4.789,2.918,7.4.712,12.849.642.768-7.809.863-34.976-.456-42.969" transform="translate(69.183 20.845)" fill="#fff"/>
            <path id="Path_7094" data-name="Path 7094" d="M173.54,123.86c.02,1.3.566,2.756.531,4.2-.033,1.284-.727,5,.416,4.8,2.095.145,3.853-4.625,4.085-6.228" transform="translate(72.758 51.929)" fill="#62bfd7"/>
          </g>
        </g>
      </g>
    </g>
  </g>
</svg>
