<svg xmlns="http://www.w3.org/2000/svg" xmlns:xlink="http://www.w3.org/1999/xlink" width="574.811" height="338.801" viewBox="0 0 574.811 338.801">
  <defs>
    <clipPath id="clip-path">
      <rect id="Video" width="574.811" height="338.801" transform="translate(626.811 1260.801) rotate(180)" fill="#e0ded9"/>
    </clipPath>
    <clipPath id="clip-path-2">
      <rect id="Rectangle_2664" data-name="Rectangle 2664" width="47.922" height="74.399" fill="none"/>
    </clipPath>
    <clipPath id="clip-path-3">
      <rect id="Rectangle_2666" data-name="Rectangle 2666" width="205.301" height="246.093" fill="none"/>
    </clipPath>
    <clipPath id="clip-path-4">
      <rect id="Rectangle_1925" data-name="Rectangle 1925" width="27.918" height="32.921" fill="none"/>
    </clipPath>
    <clipPath id="clip-path-5">
      <rect id="Rectangle_2937" data-name="Rectangle 2937" width="184.139" height="369.66" fill="none"/>
    </clipPath>
  </defs>
  <g id="Mask_Group_30" data-name="Mask Group 30" transform="translate(-52 -922)" clip-path="url(#clip-path)">
    <g id="Group_8105" data-name="Group 8105" transform="translate(237.728 880.688)" opacity="0.5">
      <rect id="Rectangle_2660" data-name="Rectangle 2660" width="58.968" height="190.628" transform="translate(0 0)" fill="#fff"/>
      <rect id="Rectangle_2661" data-name="Rectangle 2661" width="58.968" height="190.628" transform="translate(71.477 0)" fill="#fff"/>
    </g>
    <g id="Group_8107" data-name="Group 8107" transform="translate(314.21 1014.331)">
      <path id="Path_8270" data-name="Path 8270" d="M686.558,379.937s1.585-9.264,7-7.211,1.12,11.129,1.12,11.129,4.368-7.608,8.536-4.436S699.06,392.6,699.06,392.6s6.159-5.663,8.025-1-8.025,10.359-8.025,10.359H674.054s-9.89-5.692-8.025-10.359,8.025,1,8.025,1-8.319-10.006-4.151-13.177,8.536,4.436,8.536,4.436-4.292-9.077,1.12-11.129,7,7.211,7,7.211" transform="translate(-665.795 -372.429)" fill="#1a8e70"/>
      <g id="Group_8106" data-name="Group 8106" transform="translate(3.391 26.967)">
        <rect id="Rectangle_2662" data-name="Rectangle 2662" width="35.892" height="30.016" fill="#fff"/>
        <rect id="Rectangle_2663" data-name="Rectangle 2663" width="7.052" height="30.016" transform="translate(28.84)" fill="#e1f4ff"/>
      </g>
    </g>
    <g id="Group_8125" data-name="Group 8125" transform="translate(339.406 983.119)">
      <g id="Group_8109" data-name="Group 8109" transform="translate(126.204 1.672) rotate(-2)">
        <g id="Group_8108" data-name="Group 8108" clip-path="url(#clip-path-2)">
          <path id="Path_8271" data-name="Path 8271" d="M.974,34.09l19.385.649L20.8.654,1.417,0S2.161,27.746,0,34.908" transform="translate(14.819 45.214)" fill="#ce9d7c"/>
        </g>
      </g>
      <g id="Group_8123" data-name="Group 8123" transform="translate(0 62.024)">
        <g id="Group_8116" data-name="Group 8116" transform="translate(22.496 39.362)">
          <g id="Group_8112" data-name="Group 8112" transform="translate(0 71.157)">
            <g id="Group_8110" data-name="Group 8110">
              <path id="Path_8272" data-name="Path 8272" d="M20.067,182.517,59.012,53.8H40.133L0,182.517Z" transform="translate(0 -53.8)" fill="#d1a973"/>
            </g>
            <g id="Group_8111" data-name="Group 8111" transform="translate(95.976)">
              <path id="Path_8273" data-name="Path 8273" d="M112.569,182.517,90.654,53.8H72.7L92.767,182.517Z" transform="translate(-72.7 -53.8)" fill="#936b4e"/>
            </g>
            <path id="Path_8274" data-name="Path 8274" d="M17.385,182.517l39.209-124.1H106.1l22.575,124.1h4.753L109.928,53.8H53.293L12.5,182.517Z" transform="translate(4.002 -53.8)" fill="#e2b67c"/>
            <path id="Path_8275" data-name="Path 8275" d="M114.979,117.125H26l2.376-7.525h88.979Z" transform="translate(8.324 -35.934)" fill="#d19f70"/>
            <rect id="Rectangle_2665" data-name="Rectangle 2665" width="88.979" height="7.393" transform="translate(125.152 73.666)" fill="#936b4e"/>
          </g>
          <path id="Path_8276" data-name="Path 8276" d="M191.69,110.134h-90.96A12.509,12.509,0,0,1,88.453,95.348l14.258-78.154A21.081,21.081,0,0,1,123.438-.1h86.735a4.978,4.978,0,0,1,4.885,5.809l-18.35,100.2A5.3,5.3,0,0,1,191.69,110.134Z" transform="translate(28.25 0.1)" fill="#c3a350"/>
          <path id="Path_8277" data-name="Path 8277" d="M105.9,3.564H209.005A5.116,5.116,0,0,0,204.253,0H117.518A21.146,21.146,0,0,0,105.9,3.564Z" transform="translate(33.906 0.132)" fill="#ac9048"/>
          <path id="Path_8278" data-name="Path 8278" d="M170.655,110.134h-4.225a12.509,12.509,0,0,1-12.278-14.786l14.258-78.154A21.082,21.082,0,0,1,189.138-.1h0a4.979,4.979,0,0,1,4.885,5.809l-18.35,100.2A5.3,5.3,0,0,1,170.655,110.134Z" transform="translate(49.285 0.1)" fill="#ac9048"/>
          <path id="Path_8279" data-name="Path 8279" d="M89.607,75.672c-1.584-2.9,58.879-9.241,93.732,0,6.469,1.716,6.469,17.162,3.433,17.69C173.7,96,89.607,75.672,89.607,75.672Z" transform="translate(28.68 22.813)" fill="#ac9048"/>
          <path id="Path_8280" data-name="Path 8280" d="M206.7,121.126H18.706A12.818,12.818,0,0,1,5.9,108.321V91.29A17.691,17.691,0,0,1,23.59,73.6H206.7a12.959,12.959,0,0,1,12.938,12.938v21.915A12.905,12.905,0,0,1,206.7,121.126Z" transform="translate(1.889 23.697)" fill="#c3a350"/>
          <path id="Path_8281" data-name="Path 8281" d="M182.145,121.126H95.806A12.818,12.818,0,0,1,83,108.321V91.29A17.691,17.691,0,0,1,100.69,73.6h81.19a12.818,12.818,0,0,1,12.806,12.806v22.047A12.482,12.482,0,0,1,182.145,121.126Z" transform="translate(26.574 23.697)" fill="#ac9048"/>
          <path id="Path_8282" data-name="Path 8282" d="M13,75.712c5.017,2.244,39.473,4.357,48.846,4.489,20.991.4,54.391-5.149,54.391-5.149L84.157,73.6H21.317A17.674,17.674,0,0,0,13,75.712Z" transform="translate(4.162 23.697)" fill="#ac9048"/>
          <g id="Group_8115" data-name="Group 8115" transform="translate(104.161 71.157)">
            <g id="Group_8113" data-name="Group 8113">
              <path id="Path_8283" data-name="Path 8283" d="M98.967,182.517,137.912,53.8H119.033L78.9,182.517Z" transform="translate(-78.9 -53.8)" fill="#d1a973"/>
            </g>
            <g id="Group_8114" data-name="Group 8114" transform="translate(95.976)">
              <path id="Path_8284" data-name="Path 8284" d="M191.469,182.517,169.554,53.8H151.6l20.067,128.717Z" transform="translate(-151.6 -53.8)" fill="#936b4e"/>
            </g>
            <path id="Path_8285" data-name="Path 8285" d="M96.285,182.517l39.209-124.1H185l22.575,124.1h4.753L188.828,53.8H132.193L91.4,182.517Z" transform="translate(-74.898 -53.8)" fill="#e2b67c"/>
          </g>
        </g>
        <g id="Group_8119" data-name="Group 8119">
          <path id="Path_8286" data-name="Path 8286" d="M190.81,424.25l2.649-31.729,16.824,7.323-8.412,26.712Z" transform="translate(-93.679 -192.709)" fill="#ce9d7c"/>
          <path id="Path_8287" data-name="Path 8287" d="M55.55,424.27l8.208-25.356,16.282,3.661L65.1,429.694Z" transform="translate(-27.272 -195.848)" fill="#ce9d7c"/>
          <g id="Group_8118" data-name="Group 8118">
            <g id="Group_8117" data-name="Group 8117" clip-path="url(#clip-path-3)">
              <path id="Path_8288" data-name="Path 8288" d="M215.14,246.22h-54S143.664,318.557,142.41,328.5l-20.857-.949,8.814-84.041h-18.3s.091,5.993-3.138,9.416-28.546,61.1-31.059,73.211L55.55,322.985l28.424-93.222a27.674,27.674,0,0,1,26.565-20.153h51.852c9.151-.542,25.12-2.62,33.194,0s26.912,12.567,36.6,13.831c0,0,1.255,22.78-17.046,22.78" transform="translate(-27.272 -102.273)" fill="#936b4e"/>
              <path id="Path_8289" data-name="Path 8289" d="M296,46.861c-2.96-21.966-2.691-24.949-16.416-34.17S261.279,0,261.279,0s-20.6,15.962-19.269.949L229.5,6.659c-4.731,1.063-13.786,9.662-17.871,12.287L197.768,66.325c6.662,4.478,21.226,7.221,24.736-.1a45.814,45.814,0,0,0-.516-30.21s0,16.543,4.575,27.39a112.291,112.291,0,0,1,6.459,22.238L206.109,99.255l5.517,10.432,20.588-2.35c9.15-.543,25.12-2.62,33.193,0s26.912,12.566,36.6,13.831c1.792-38.238-3.052-52.34-6.012-74.306" transform="translate(-97.095)" fill="#685c53"/>
              <path id="Path_8290" data-name="Path 8290" d="M206.6,114.615s-7.929,5.366-8.852,7.981c-.16.452.576,9.343,1.374,18.371.846,9.561,2.142,21.116,2.142,21.116s15.69,2.358,15.414-2.271c-.024-.406,5.805-37.317,5.805-37.317Z" transform="translate(-97.073 -56.271)" fill="#685c53"/>
              <path id="Path_8291" data-name="Path 8291" d="M204.085,194.982l-1.843.85a9.2,9.2,0,0,0-2.767,1.967l-4.17,4.321a5.947,5.947,0,0,0-1.365,5.974l1.766,5.4a4.918,4.918,0,0,0,4.668,3.4h.571s1.884-8.542,8.657-11.481Z" transform="translate(-95.071 -95.727)" fill="#ce9d7c"/>
              <path id="Path_8292" data-name="Path 8292" d="M172.143,464.743l-36.792-.333a1.665,1.665,0,0,1-1.564-1.131c-.705-2.1-1.555-6.6,3.051-8.863,5.855-2.875,19.077-7.5,20.234-7.9.056-.02.108-.042.162-.067l1.95-.926a1.658,1.658,0,0,1,1.545.063c2.335,1.355,9.607,5.449,14.384,6.754,1.534.419,1.034,1.164.736,3.239l-2.143,8.12a1.672,1.672,0,0,1-1.563,1.048" transform="translate(-65.408 -218.649)" fill="#3a221a"/>
              <path id="Path_8293" data-name="Path 8293" d="M38.916,457.327l-36.792-.332A1.665,1.665,0,0,1,.56,455.864c-.705-2.1-1.555-6.6,3.051-8.864,5.855-2.874,19.077-7.5,20.234-7.9.056-.02.108-.042.162-.067l1.95-.926a1.658,1.658,0,0,1,1.545.063c2.336,1.355,9.607,5.449,14.384,6.754,1.534.419,1.034,1.164.736,3.239l-2.142,8.12a1.672,1.672,0,0,1-1.563,1.048" transform="translate(0 -215.009)" fill="#3a221a"/>
            </g>
          </g>
        </g>
        <path id="Path_8294" data-name="Path 8294" d="M182.145,121.126H95.806A12.818,12.818,0,0,1,83,108.321V91.29A17.691,17.691,0,0,1,100.69,73.6h81.19a12.818,12.818,0,0,1,12.806,12.806v22.047A12.482,12.482,0,0,1,182.145,121.126Z" transform="translate(49.07 63.059)" fill="#ac9048"/>
        <g id="Group_8122" data-name="Group 8122" transform="translate(126.658 110.52)">
          <g id="Group_8120" data-name="Group 8120">
            <path id="Path_8295" data-name="Path 8295" d="M98.967,182.517,137.912,53.8H119.033L78.9,182.517Z" transform="translate(-78.9 -53.8)" fill="#d1a973"/>
          </g>
          <g id="Group_8121" data-name="Group 8121" transform="translate(95.976)">
            <path id="Path_8296" data-name="Path 8296" d="M191.469,182.517,169.554,53.8H151.6l20.067,128.717Z" transform="translate(-151.6 -53.8)" fill="#936b4e"/>
          </g>
          <path id="Path_8297" data-name="Path 8297" d="M96.285,182.517l39.209-124.1H185l22.575,124.1h4.753L188.828,53.8H132.193L91.4,182.517Z" transform="translate(-74.898 -53.8)" fill="#e2b67c"/>
        </g>
      </g>
      <g id="Group_8124" data-name="Group 8124" transform="translate(122.606 5.79)">
        <path id="Path_8298" data-name="Path 8298" d="M.688,10.02c1.22,3.073,2.474,6.646,4.606,9.338,2.439,3.081,6.011,3.3,7.655-.545,1.55-3.62,1.5-8.087.827-11.806-.368-2.032-1.05-4.332-2.953-5.715A6.735,6.735,0,0,0,1.746,2.362C-.323,4.759-.387,7.313.688,10.02" transform="translate(3.759 21.238) rotate(-2)" fill="#c0c2bd"/>
        <path id="Path_8299" data-name="Path 8299" d="M.092,22A52.7,52.7,0,0,0,1.818,32.949C2.8,36.572,4.153,43.362,8.241,44.875a8.288,8.288,0,0,0,3.752.344c5.571-.347,11.5-4.053,15.043-8.188,6.6-7.7,6.585-26.4-.03-33.646C20.968-3.227,1.772.177.483,10.723A64.367,64.367,0,0,0,.092,22" transform="translate(7.234 14.298) rotate(-2)" fill="#ce9d7c"/>
        <path id="Path_8300" data-name="Path 8300" d="M3.047,10.759a13.549,13.549,0,0,0,1.652.7,9.014,9.014,0,0,0,4.767-.229c2.282-.633,4.553-2.048,6.973-1.232a11.06,11.06,0,0,0,4.256.744,5.271,5.271,0,0,0,4.461-3.171c.6-1.364.711-3.144,1.5-4.379A7.548,7.548,0,0,1,30.759,0c-.035,6.461-.273,15.782-3.53,19.584C23.687,23.718,14.721,27.5,9.154,27.851a8.358,8.358,0,0,1-3.75-.342C1.316,25.994,1.592,16.285.606,12.662.379,11.832.182,11,0,10.158a5.271,5.271,0,0,1,3.047.6" transform="translate(9.154 34.53) rotate(-2)" fill="#c0c2bd"/>
        <path id="Path_8301" data-name="Path 8301" d="M7.139,22.21c.241.924.438,5.167.733,5.987s2.157-.485,2.157-.485c1.312-1.382-.385-4.5,1.909-5,2.486-.547-1.144,14.964-1.088,16.66,1.9-2.023,8.6-12.458,10-19.686,1.043-5.35-.171-8.583-1.408-10.654C13.44-1.018,11.273-.386,5.7.393,3.158.749,1.213,6.487.282,9c-1,2.691.832,4.746,2.676,6.473,2.3,2.162,3.045,2.5,4.18,6.736" transform="translate(26.928 8.153) rotate(-2)" fill="#c0c2bd"/>
        <path id="Path_8302" data-name="Path 8302" d="M5.1.713c2.6,2.252,1.614,9.435-3.088,12.1C.707,11.562.489,7.949.213,6.181c-.271-1.74-.445-3.412.52-4.968C1.03.734,3.184-.94,5.1.713" transform="translate(36.692 29.867) rotate(-2)" fill="#ce9d7c"/>
        <path id="Path_8303" data-name="Path 8303" d="M31.1,13.159c.035,3.148-6.618,10.385-9.944,10.064.63-1.5.594-3.207.911-4.685-2.827,2.047-6.844,5.1-9.985,6.514-1.361.617-4.99,1.864-6.164.868-.765-.647-.261-1.979-.72-2.714-.858-1.374-.782-.548-2.117-1.323-7.316-4.265-.026-15.877,5.555-19.1,5.623-3.247,14.2-3.55,20.291-1.461,2.585.888,5.279,2.337,6.591,4.756,1.077,1.988,2.219,8.843-.982,9.458Z" transform="translate(0 1.278) rotate(-2)" fill="#c0c2bd"/>
      </g>
    </g>
    <g id="Group_6996" data-name="Group 6996" transform="translate(64.113 1126.466)">
      <rect id="Rectangle_1919" data-name="Rectangle 1919" width="52.962" height="141.232" transform="translate(0 0)" fill="#936b4e"/>
      <rect id="Rectangle_1920" data-name="Rectangle 1920" width="197.136" height="141.232" transform="translate(52.962 0)" fill="#e2b67c"/>
      <rect id="Rectangle_1921" data-name="Rectangle 1921" width="188.309" height="41.193" transform="translate(57.375 95.626)" fill="#d1a973"/>
      <rect id="Rectangle_1922" data-name="Rectangle 1922" width="188.309" height="41.193" transform="translate(57.375 50.02)" fill="#d1a973"/>
      <rect id="Rectangle_1923" data-name="Rectangle 1923" width="188.309" height="39.721" transform="translate(57.375 5.885)" fill="#d1a973"/>
      <path id="Path_7188" data-name="Path 7188" d="M0,0H13.24L11.769,23.539H1.471Z" transform="translate(5.885 141.232)" fill="#936b4e"/>
      <path id="Path_7190" data-name="Path 7190" d="M0,0H13.24L11.769,23.539H1.471Z" transform="translate(55.904 141.232)" fill="#e2b67c"/>
      <path id="Path_7189" data-name="Path 7189" d="M0,0H13.24L11.769,23.539H1.471Z" transform="translate(194.193 141.232)" fill="#936b4e"/>
      <path id="Path_7191" data-name="Path 7191" d="M0,0H13.24L11.769,23.539H1.471Z" transform="translate(233.915 141.232)" fill="#e2b67c"/>
      <ellipse id="Ellipse_523" data-name="Ellipse 523" cx="5.885" cy="5.885" rx="5.885" ry="5.885" transform="translate(145.645 20.597)" fill="#e2b67c"/>
      <ellipse id="Ellipse_524" data-name="Ellipse 524" cx="5.885" cy="5.885" rx="5.885" ry="5.885" transform="translate(145.645 64.732)" fill="#e2b67c"/>
      <ellipse id="Ellipse_525" data-name="Ellipse 525" cx="5.885" cy="5.885" rx="5.885" ry="5.885" transform="translate(145.645 108.867)" fill="#e2b67c"/>
    </g>
    <g id="Group_7000" data-name="Group 7000" transform="translate(218.585 1085.274)">
      <path id="Path_7210" data-name="Path 7210" d="M9.841,0h1.929V27.952H0Z" transform="translate(0 13.24)" fill="#818080"/>
      <g id="Group_6999" data-name="Group 6999" transform="translate(7.356 0)">
        <g id="Rectangle_1924" data-name="Rectangle 1924" transform="translate(0)" fill="#efefef" stroke="#9b9b9b" stroke-width="2">
          <rect width="29.423" height="41.193" stroke="none"/>
          <rect x="1" y="1" width="27.423" height="39.193" fill="none"/>
        </g>
        <g id="Group_6998" data-name="Group 6998" transform="translate(0 5.38)">
          <g id="Group_6997" data-name="Group 6997" transform="translate(0 0)" clip-path="url(#clip-path-4)">
            <path id="Path_7192" data-name="Path 7192" d="M68.847,30.007s-.2,3.5-1.766,4.723a3.326,3.326,0,0,0,.34,5.654c2.657,1.771,3.679,1.648,3.679,1.648l1.906-7.847Z" transform="translate(-58.324 -16.793)" fill="#131313"/>
            <path id="Path_7193" data-name="Path 7193" d="M52.785,64.477s-3.207,8.005-4.1,11.064a36.361,36.361,0,0,0-3.332,5.453C43.761,84.189,41.4,89.1,41.4,89.1l1.232.834s8.782-10.819,9.39-12.216c0,0,4.659-10.9,6.41-16.1Z" transform="translate(-41.403 -38.84)" fill="#c2c2c2"/>
            <path id="Path_7194" data-name="Path 7194" d="M35.629,149.162s1.956,1.482,1.815,2.072a8.154,8.154,0,0,1-1.089,2.021s.4-.023.365.21c0,0-.487,1.1-.766,1.237a1.371,1.371,0,0,1-1.374-.028l-.281-.361s-.072.164-.383.056-.554-.79-.554-.79-.276.177-.419,0a1.97,1.97,0,0,1-.215-.683s-.153.03-.247-.248a1.537,1.537,0,0,1,.292-1.089c.2-.292,2.135-1.655,2.858-2.393" transform="translate(-35.162 -99.897)" fill="#c2c2c2"/>
            <path id="Path_7195" data-name="Path 7195" d="M72.792,5.827a5.363,5.363,0,0,0-2.313,3.967l.321,2.451a21.056,21.056,0,0,1-1.414-3.207c-.341-1.221-.24-5.855,3.848-6.2Z" transform="translate(-60.834 2.153)" fill="#131313"/>
            <path id="Path_7201" data-name="Path 7201" d="M54.541,138.377l-1.639.983a2.789,2.789,0,0,1,3.278.984,37.268,37.268,0,0,0-8.195,7.866s9.877-4.294,11.376,1.472c0,0,9.917-1.406,10.223-6.034a12.709,12.709,0,0,0-.782-6.381s-11.167.4-14.261,1.109" transform="translate(-45.994 -91.602)" fill="#b5b5b5"/>
            <path id="Path_7202" data-name="Path 7202" d="M82.391,35.8c.581-.274,1.006-.534,1.015-.714,0,0,.333-3.383.53-5.343.061-.59,3.6-2.585,3.6-2.585s.119,5.938,1.037,7.981c0,0,1.054.33,2.65.862v5.549H82.391Z" transform="translate(-69.99 -14.808)" fill="#a9a9a9"/>
            <path id="Path_7203" data-name="Path 7203" d="M103.213,53.54s1.116.464,2.228.909a4.918,4.918,0,0,1,3.045,3.517,12.645,12.645,0,0,1-.855,8.161l-3.5-.666s-2.134-9.046-.914-11.922" transform="translate(-84.249 -33.206)" fill="#a9a9a9"/>
            <path id="Path_7204" data-name="Path 7204" d="M89.8,30.108c.032.7.087,1.718.188,2.779-.787,1.608-2.855,5.391-4.4,4.3a.213.213,0,0,0,.047-.11s.225-2.277.414-4.18l3.457-2.887Z" transform="translate(-72.22 -16.792)" fill="#919191"/>
            <path id="Path_7205" data-name="Path 7205" d="M77.923,54.049c.012-.247-1.583-.51-1.583-.51C76.706,60.569,72,59.8,72,59.8c-3.268-1.214-.914-6.171-.914-6.171a3,3,0,0,0-1.24.527c-.954,1-4.876,9.2-4.876,9.2a3.66,3.66,0,0,0,.039,2.2,4.449,4.449,0,0,0,2.169,2.611,104.166,104.166,0,0,1-.363,10.489s-1.075,1.153-.5,1.311c9.526,2.612,15.17-.087,15.17-.087a46.948,46.948,0,0,1-1.417-6.467,28.389,28.389,0,0,1,1.417-7.382s-4.144-.678-3.561-11.984" transform="translate(-57.753 -33.206)" fill="#fff"/>
            <path id="Path_7206" data-name="Path 7206" d="M75.969,20.356a1.355,1.355,0,0,0,.992.043c.562-.138,3.488-2,4.064-4.307a1.153,1.153,0,0,0,1.224-.936c.358-1.08-.106-2.589-1.239-1.582,0,0,.3-4.748-1.784-5.036s-6.076-1-6.26,2.374a27,27,0,0,0,.508,5.567,9.54,9.54,0,0,0,2.495,3.877" transform="translate(-63.415 -1.635)" fill="#b8b8b8"/>
            <path id="Path_7207" data-name="Path 7207" d="M112.65,66.24s2.647,10.191,3.311,13.307c0,0,.4,1.076.369,5.686a21.876,21.876,0,0,1-1.408,7.016l-2.564.74s1.3-12.735-.238-15.092c0,0-1.956-7.18-3.314-12.5Z" transform="translate(-88.414 -41.479)" fill="#a9a9a9"/>
            <path id="Path_7208" data-name="Path 7208" d="M118.761,149.517a1.753,1.753,0,0,1,2.022.675,18.508,18.508,0,0,0,.736,2.1s.393,1.306.24,1.575a.957.957,0,0,1-.9.6l-.437-.136s-.045.186-.363.274-.826-.347-.826-.347-.127.3-.346.237a1.992,1.992,0,0,1-.565-.442s-.109.113-.344-.064a1.546,1.546,0,0,1-.379-1.063c0-.357.983-2.392,1.159-3.41" transform="translate(-94.548 -100.083)" fill="#a9a9a9"/>
            <path id="Path_7209" data-name="Path 7209" d="M78.854,2.72s-.438,2.021,1.027,2.634,4.1,1.5,4.417,3.133-1.889,8.952,1.768,7.712l2.65.826a8.539,8.539,0,0,0,0-5.336c-.968-2.793-1.513-3.133-1.037-4.9S87.407,2.016,83.969.518c-3.4-1.483-5.224.543-5.177,1.986" transform="translate(-67.479 4.136)" fill="#131313"/>
          </g>
        </g>
      </g>
    </g>
    <g id="Group_8647" data-name="Group 8647" transform="translate(50.811 922)">
      <g id="Group_8646" data-name="Group 8646" clip-path="url(#clip-path-5)">
        <path id="Path_8773" data-name="Path 8773" d="M18.665,240.384c1.031-4.713,8.793-6.23,9.769-10.953,1.178-5.667,3.89-9.346,6.8-14.353a4.84,4.84,0,0,0,.957-3.131,4.463,4.463,0,0,0-1.08-1.954,33.7,33.7,0,0,0-3.072-3.281,10.68,10.68,0,0,0-5.233-3.043,4.782,4.782,0,0,0-4.843,1.944,4.207,4.207,0,0,0-1.131,1.782C17.341,215.807,10,221.975,5.231,229.73a2.674,2.674,0,0,0,.165,3.535,34.26,34.26,0,0,0,17.911,14.114" transform="translate(2.195 96.255)" fill="#d9dde2"/>
        <path id="Path_8774" data-name="Path 8774" d="M115.268,133.708a25.589,25.589,0,0,0-16.677-17.279,2.77,2.77,0,0,0-2.8.679c-.906-.589-1.831-1.149-2.781-1.664-5-2.707-11.269-4.362-16.248-1.629-4.3,2.357-3.025,7.3-4.5,11.986-3.821,12.164-5.352,24.994-9.687,36.985-4.533,12.543-15.381,23.773-21.964,35.371C32.051,213.252,15,243.061,9.353,259.471a3.229,3.229,0,0,0-.212,2.168,3.107,3.107,0,0,0,1.15,1.262,51.06,51.06,0,0,0,16.858,8.237,3.89,3.89,0,0,0,1.881.189,4.065,4.065,0,0,0,1.876-1.292c7.743-7.847,25.36-29.618,33.1-37.467,5.821-5.669,7.9-11.681,13-18.007,9.784-12.646,14.155-27.375,21.808-41.41,3.352-6.148,12.587-12.224,14.928-18.823s3.387-13.87,1.523-20.621" transform="translate(4.276 53.151)" fill="#75959d"/>
        <path id="Path_8775" data-name="Path 8775" d="M31.188,221.177q2.061.334,4.084.87a26.052,26.052,0,0,1-7.046,7.659,3.675,3.675,0,0,1-1.326.686,3.961,3.961,0,0,1-2.28-.424c-6.5-2.629-13.195-5.709-17.4-11.314-1.351-1.8-.049-4.38,1.01-6.1a2.85,2.85,0,0,1,3.806-1.326c.091.044.18.094.267.147,4.059,1.794,7.419,5.2,11.45,7.193a30.889,30.889,0,0,0,7.433,2.611" transform="translate(3.142 99.737)" fill="#e4e8ef"/>
        <path id="Path_8776" data-name="Path 8776" d="M116.031,250.113c-2.641-2.58-7.07-9.679-8.722-12.98a35.677,35.677,0,0,1-2.062-6.053c-.957-3.265-2.187-6.449-3.415-9.618a1.229,1.229,0,0,0-.412-.63,1.163,1.163,0,0,0-.948-.012,9.8,9.8,0,0,0-2.873,1.42,15.642,15.642,0,0,0-5.307,3.2,2.993,2.993,0,0,0-.784.988,2.818,2.818,0,0,0-.171,1.131,20.127,20.127,0,0,0,.842,4.763c1.334,5.246,2.3,10.831.764,16.021a2.07,2.07,0,0,0-.134,1.009,1.95,1.95,0,0,0,.9,1.056c2.513,1.8,5.3,3.592,8.4,3.52a11.63,11.63,0,0,0,4.251-1.074c3.044-1.3,7.364,1.407,9.665-.975.262-.272-1-2.14-1.04-2.516-.024-.32,1.28.966,1.056.753" transform="translate(43.184 104.363)" fill="#b7b9bb"/>
        <path id="Path_8777" data-name="Path 8777" d="M85.765,111.82a22.835,22.835,0,0,1,6.274,6.591c7.364,10.942,9.539,24.427,12.606,37.262,3.725,15.593,9.008,30.813,12.017,46.56,3.937,20.583,12.756,65.3,12.728,86.254a80.729,80.729,0,0,1-18.8,7.572c-1.371-5.081-8.95-21.883-11.488-26.495-15.009-27.341-10.853-72.4-27.615-98.708-5.38-8.442-11.213-15.973-15.093-25.2-2-4.753-5.374-9.834-5.538-14.99-.234-3.433-1.9-6.872-.517-10.025,2.028-4.165.339-7.128,4.625-8.886,8.724-3.576,22.469-5.333,30.807.066" transform="translate(23.542 51.25)" fill="#86a8b1"/>
        <path id="Path_8778" data-name="Path 8778" d="M92.262,246.164c1.929-2.013,4.825-2.676,7.5-3.466a51.46,51.46,0,0,0,11.488-4.978,1.411,1.411,0,0,0,.607-.545,1.438,1.438,0,0,0,.072-.705l-.661-10.042a57.011,57.011,0,0,1-6.193,3.952,99.092,99.092,0,0,1-12.064,6.27c-1.483.607-3.588.779-3.348,2.7a29.275,29.275,0,0,0,2.6,6.816" transform="translate(42.385 107.06)" fill="#d9dde2"/>
        <path id="Path_8779" data-name="Path 8779" d="M90.906,89.543c1.619-.834,5.174-1.505,6.859-.816,1.85.216,5.824,7.675,21.761,12.962a2.461,2.461,0,0,1,1.389,1.094,2.326,2.326,0,0,1,.054,1.214,34.283,34.283,0,0,1-.825,4.059,5.821,5.821,0,0,1-1.823,3.3,5.715,5.715,0,0,1-3.829.748c-8.018-4.059-22.982-6.719-23.773-7.18a10.939,10.939,0,0,1-2.233-1.9,12.181,12.181,0,0,1-2.047-2.53,4.369,4.369,0,0,1-.535-3.142c.566-2.192,2.957-3.387,4.713-4.5,1.875-1.18-1.744-2.348.289-3.314" transform="translate(40.574 41.817)" fill="#63514e"/>
        <path id="Path_8780" data-name="Path 8780" d="M98.818,76.068s-.362,10.958.654,15.837a7.558,7.558,0,0,0,2.013,3.922l-7.947,14.861S66.811,100.726,87.876,78.9c.24-.247,10.942-2.831,10.942-2.831" transform="translate(37.724 35.966)" fill="#63514e"/>
        <path id="Path_8781" data-name="Path 8781" d="M122.574,94.448,112.3,105.018l-9.086,3.146,11.223-10.752Z" transform="translate(48.802 44.657)" fill="#666"/>
        <path id="Path_8782" data-name="Path 8782" d="M100.727,77c-.295,5.236-.982,12.045.274,17.136.885,3.186-1.133,4.935-3.364,5.969C83.845,106.5,79.684,98.7,78.628,88.883A43.657,43.657,0,0,1,83.01,63.39c1.748-3.2,6.053-13.576,9.022-10.9a23.572,23.572,0,0,1,6.728,8.542c2.113,5.021,2.261,10.6,1.966,15.967" transform="translate(37.001 24.612)" fill="#d62255"/>
        <path id="Path_8783" data-name="Path 8783" d="M93.507,80.067c-.452-1.716-1.374-3.262-1.767-5.018-.823-3.638.071-7.364.165-11.046.158-6.093-.515,1.829,2.024-3.856a37.308,37.308,0,0,0-4.074-4.156c-2.969-2.672-7.274-7.024-9.024-3.829a43.657,43.657,0,0,0-4.38,25.493c1.05,9.813-.968,16.291,2.891,25.381.33.971,10.525,1.742,19.375-2.476-2.174-2.676-4.442-17.6-5.209-20.493" transform="translate(35.971 24.131)" fill="#8e0e32"/>
        <path id="Path_8784" data-name="Path 8784" d="M119.03,98.022a4.88,4.88,0,0,1,1.5.172,1.641,1.641,0,0,1,1.077.993,1.828,1.828,0,0,1-1.262,2.009,22.051,22.051,0,0,1-2.545.549,3.078,3.078,0,0,1,1.661,2.121,1.619,1.619,0,0,1-.252,1.379,1.915,1.915,0,0,1-.837.5,7.554,7.554,0,0,1-2.15.426,2.769,2.769,0,0,1,.867,2.141.811.811,0,0,1-.138.467.91.91,0,0,1-.477.264,13.72,13.72,0,0,1-2.541.52,1.253,1.253,0,0,1,.286,1.748,1.166,1.166,0,0,1-.085.106,2.126,2.126,0,0,1-1.672.432,13.9,13.9,0,0,1-2.838-.545,40.929,40.929,0,0,1-5.884-2.122,6.879,6.879,0,0,1-1.887-1.124c-.2-.181-.387-.46-.265-.7a.647.647,0,0,1,.262-.237,5.944,5.944,0,0,1,4.613-.605c-.312-.51-.608-1.218-.193-1.647a1.372,1.372,0,0,1,.554-.295,18.763,18.763,0,0,1,5.544-.941,4.639,4.639,0,0,1-2.072-1.062c-.168-.147-.339-.381-.227-.579a.5.5,0,0,1,.295-.2,11.906,11.906,0,0,1,4.477-.392,5.764,5.764,0,0,1-1.717-.736.793.793,0,0,1-.38-.412.687.687,0,0,1,.193-.589,3.172,3.172,0,0,1,1.776-.884,39.719,39.719,0,0,1,5.251-.754" transform="translate(48.016 46.345)" fill="#7f6560"/>
        <path id="Path_8785" data-name="Path 8785" d="M77.963,40.738a26.419,26.419,0,0,0-9.339-1.052A25.8,25.8,0,0,0,57.649,44.08a59.312,59.312,0,0,0-9.043,7.114,23.526,23.526,0,0,0-5.825,7.83c-1.351,3.311,5.346,6.983,5.386,10.559.253,22.813,3.977,45.51,2.53,68.284-.53,8.332-3.031,39.245-3.038,47.6a1.792,1.792,0,0,0,.407,1.4c.52.452,1.326.183,1.956-.1,13.208-5.874,23.6,4.684,37.337,9.195,6.246,2.081,20.335,5.279,26.907,4.874-5.189-20.427-12.961-75.79-7.467-96.14,1.594-5.884,3.628-11.635,5.164-17.537a107.848,107.848,0,0,0,2.847-15.465c.969-8.856-6.863-14.665-13.4-19.574A67.617,67.617,0,0,0,77.963,40.738" transform="translate(20.143 18.737)" fill="#b50f3e"/>
        <path id="Path_8786" data-name="Path 8786" d="M79.373,81.087c2.249-9.738,7.774-16.777,12.339-15.722s6.442,9.8,4.192,19.541-7.774,16.777-12.338,15.722-6.442-9.8-4.193-19.541" transform="translate(37.08 30.856)" fill="#b50f3e"/>
        <path id="Path_8787" data-name="Path 8787" d="M72.972,164.062c-6.006-.272-11.967-24.076-15.992-29.28-4.195-5.426-2.678-12.077-1.742-18.329,1.178-7.885,3.184-15.422,4.726-23.229,1.984-10.062-1.635-15.023-7.986-22.263A40.931,40.931,0,0,1,42.77,52.845c-1.326,3.29,4.243,6.934,4.283,10.482.255,22.812,2.843,45.51,1.4,68.284-.529,8.332-.769,40.376-.776,48.727a1.792,1.792,0,0,0,.407,1.4c.52.452,1.326.183,1.956-.1,13.208-5.875,23.6,3.552,37.337,8.064,17.793,4.389,20.117,6.011,26.907,4.879-7.74-10.12-28.084-29.916-41.31-30.515" transform="translate(20.126 24.986)" fill="#8e0e32"/>
        <path id="Path_8788" data-name="Path 8788" d="M88.86,56c-.159-2.672-1.031-5.3-.835-7.969a2.152,2.152,0,0,0-.268-1.613,1.918,1.918,0,0,0-.666-.427l-11.513-5.3.7-1.969c-2.8,4.918-4.482,10.79-3.022,16.253a43.529,43.529,0,0,0,2.489,6.158q1.951,4.659,3.429,9.5a51.685,51.685,0,0,1,2.4,9.363c1.62-1.683,2.091-4.124,2.729-6.368C85.966,67.742,89.227,62.1,88.86,56" transform="translate(34.384 18.308)" fill="#d62255"/>
        <path id="Path_8789" data-name="Path 8789" d="M88.876,35.786a24.687,24.687,0,0,0,.906-6.186,2.326,2.326,0,0,0-.427-1.505c-.4-.452-3.572-11.028-6.922-11.435l.253.193c-5.474-1.326-11.986.477-14.843,5.333-1.869,3.177-1.953,7.055-1.985,10.741L65.744,45.7a4.322,4.322,0,0,1-.227,1.62,3.639,3.639,0,0,1-.993,1.258,12.822,12.822,0,0,1-4.467,2.619l27.394,39.52q.884-11.243.666-22.534a3.556,3.556,0,0,0-.654-2.414c-.589-.632-1.542-.736-2.3-1.168a4.087,4.087,0,0,1-1.857-3.24,12.064,12.064,0,0,1,.471-3.829Z" transform="translate(28.396 7.769)" fill="#7f6560"/>
        <path id="Path_8790" data-name="Path 8790" d="M83.871,49.738a2.11,2.11,0,0,1,.473.367A3.547,3.547,0,0,1,85,52.519q.219,11.274-.666,22.534L66.673,49.573c8.106,4.143,13.68,2.629,17.2.165" transform="translate(31.524 23.439)" fill="#fff"/>
        <path id="Path_8791" data-name="Path 8791" d="M43.93,91.07a2,2,0,0,0-.524-1.172,2.042,2.042,0,0,0-1.5-.289c-2.043.144.683-.822.683-.822a15.514,15.514,0,0,0-8.394-.6A7.465,7.465,0,0,0,29.121,91.3a9.6,9.6,0,0,0-.867,5,328.481,328.481,0,0,0,3.588,45.269,16.863,16.863,0,0,1,.252,5.153,30.3,30.3,0,0,1-.9,3.292,36.356,36.356,0,0,0-.994,6.432c-.242,2.566.87,5.379.63,7.947a6.024,6.024,0,0,0,.713,4.374c.948,1.183,1.974.81,2.22-.678a5.175,5.175,0,0,0,.667,3.5,2.129,2.129,0,0,0,2.954.567h0a1.958,1.958,0,0,0,.187-.143,2.993,2.993,0,0,0,5.386,1.689,2.25,2.25,0,0,0,4.342.187,21.393,21.393,0,0,0,.1-3.056c.184-1.115.972.025,2.169-1.059.96-2.826-.913-8.718-1.361-13.114a94.968,94.968,0,0,0-2.657-11.6c-4.062-17.616,1.869-36.27-1.623-53.992" transform="translate(13.338 41.547)" fill="#7f6560"/>
        <path id="Path_8792" data-name="Path 8792" d="M38.109,65.794S28.524,93.549,28.2,99.433a67.624,67.624,0,0,0,2.467,20.649l12.484-14.37a28.537,28.537,0,0,0,7.838-17.129C51.757,81.3,47.472,72,47.472,72Z" transform="translate(13.3 31.109)" fill="#7f6560"/>
        <path id="Path_8793" data-name="Path 8793" d="M35.293,75.8c-1.94,6.5-.689,4.51-1.284,6.264-1.208,2.7-2.775,5.673-1.779,8.463a2.037,2.037,0,0,0-.974,3.931,1.384,1.384,0,0,0,.2,2.432c-1.645,1.518-3.418,4.006-2.183,5.874,3.48-.106,8.433-.072,11.917.1a10.866,10.866,0,0,1,3.884.7c1.222.542,2.224,2.975,3.448,3.51,1.208.666,2.716-1.078,3.614-2.124,1.15-1.857-1.087-5.071.813-6.15a3.942,3.942,0,0,0,.96-.507c.4-.409.277-1.071.217-1.639a11.371,11.371,0,0,1,1.835-6.27l.84-1.125c3.535-6.457,8.148-7.23,10.878-14.067,2.09-5.555,3.648-11.488,3-17.379a19.688,19.688,0,0,0-4.517-10.728c-.984-1.131-1.187-3.317-2.838-3.252-1.6.062-5.5,2.489-6.66,3.483A70.379,70.379,0,0,0,40.838,66.957c-2.3,4.217-4.164,4.245-5.545,8.847" transform="translate(13.647 20.726)" fill="#d62255"/>
        <path id="Path_8794" data-name="Path 8794" d="M26.008,230.346s2.248,8.877,2.885,14.21,8.911,12.484,4.485,18.076L.453,227.558s3.77-9.825,10.943-10.326c0,0,.812,7.55,5.461,9.511s6.165-1.85,9.151,3.6" transform="translate(0.214 102.711)" fill="#2d1f29"/>
        <path id="Path_8795" data-name="Path 8795" d="M.666,224.245l-.573,1.6a1.586,1.586,0,0,0,.339,1.62L30.785,259.8a1.583,1.583,0,0,0,2.233.071l.589-.545Z" transform="translate(0 106.027)" fill="#2d1f29"/>
        <path id="Path_8796" data-name="Path 8796" d="M112.538,238.136s8.011,4.436,12.332,7.623,15.2,2.049,16.247,9.1H93.008s-4.582-9.473-.038-15.048c0,0,6.059,4.576,10.674,2.529s2.873-5.76,8.894-4.206" transform="translate(43.008 112.42)" fill="#382632"/>
        <path id="Path_8797" data-name="Path 8797" d="M92.353,249.374l.775,1.517a1.581,1.581,0,0,0,1.408.86h44.352a1.583,1.583,0,0,0,1.585-1.582h0v-.792Z" transform="translate(43.666 117.909)" fill="#382632"/>
        <path id="Path_8798" data-name="Path 8798" d="M104.341,19.876a4.981,4.981,0,0,0-2.357-5.766,18.3,18.3,0,0,1-3.093-1.4c-1.934-1.52-1.94-5.074-4.308-5.744a9.821,9.821,0,0,0-3.429.295A12.565,12.565,0,0,1,85.739,5.7a15.283,15.283,0,0,0-8.542-.9,12.179,12.179,0,0,0-7.292,4.39,44.832,44.832,0,0,1-3.111,4.426c-2.161,2.2-5.55,2.9-7.57,5.233a6.863,6.863,0,0,0-.822,7.575c1.286,2.357,3.91,3.815,5.03,6.259,1.8,3.935-.909,8.921,1.085,12.763A3.378,3.378,0,0,0,68.429,47.4c1.189-.479,1.741-1.813,2.6-2.762a7.9,7.9,0,0,1,6.71-1.9,44.594,44.594,0,0,0,7.184.779,10.355,10.355,0,0,0,7.112-3.555c2.925-3.421,3.276-8.143,4.874-12.191a7.512,7.512,0,0,1,2.856-3.968c1.788-1.131,3.85-1.72,4.576-3.929" transform="translate(27.246 2.15)" fill="#382632"/>
        <path id="Path_8799" data-name="Path 8799" d="M85.486,43.88C82.315,43.116,83.513,63.3,83.513,63.3A57.782,57.782,0,0,0,69.944,53.078c-7.9-4.167-8.69-4.523-8.69-4.523s6.922-11.426,5.365-23.082c0,0,.5-4.96,6.489-.959Z" transform="translate(28.962 10.853)" fill="#7f6560"/>
        <path id="Path_8800" data-name="Path 8800" d="M61.257,48.553s6.922-11.426,5.367-23.081c0,0,.5-4.96,6.489-.96L85.485,43.883c-1.613-.389-2.1,4.645-2.18,9.682-5.1-5.96-7.856-15.339-9.687-16.482-1.417-.884-3.277,9.5-4.254,15.691-7.338-3.872-8.108-4.221-8.108-4.221" transform="translate(28.963 10.853)" fill="#63514e"/>
        <path id="Path_8801" data-name="Path 8801" d="M95.72,19.6c.225,12.179-5.52,27.259-10.769,28.269S72.941,36.23,72.742,34.06s-1.015,1.579-3.2,1.178-3.909-4.684-2.969-8.2c0,0,1.442-1.04,5.4,2.252s7.46,2.417,7.07-.119-.642-4.53,2.365-6.065,2.8-6.127,2.8-6.127,4.913,1.894,6.333-.96,5.112.1,5.177,3.575" transform="translate(31.355 7.033)" fill="#7f6560"/>
        <path id="Path_8802" data-name="Path 8802" d="M56.81,18.686c3.427,3.944,9.111,2.169,13.844-1.944s6.732-9.011,3.3-12.961S62.974-1.669,58.239,2.455s-4.862,12.286-1.429,16.23" transform="translate(25.737 0)" fill="#382632"/>
        <path id="Path_8803" data-name="Path 8803" d="M64.052,38.122l8.327,9.815a1.834,1.834,0,0,1,.349.51,2.252,2.252,0,0,1,.119.683c.249,3.966-.137,8.02.56,11.9a39.537,39.537,0,0,0-5.393-8.461,2.12,2.12,0,0,0-1.178-.872,2.045,2.045,0,0,0-1.488.81L61.6,56.163a25.131,25.131,0,0,0-1.2-8.584c-.543-1.667-1.841-4.124-1.336-5.988.184-.655,5.12-3.321,4.987-3.468" transform="translate(27.873 18.025)" fill="#d62255"/>
        <path id="Path_8804" data-name="Path 8804" d="M55.934,73.2s3.08,10.936,13.323,15.476a1.3,1.3,0,0,1-.539,2.521c-7.865.468-18.7.867-18.063-.546,1-2.208,5.279-17.451,5.279-17.451" transform="translate(23.938 34.61)" fill="#8e0e32"/>
      </g>
    </g>
  </g>
</svg>
