<svg xmlns="http://www.w3.org/2000/svg" xmlns:xlink="http://www.w3.org/1999/xlink" width="581.729" height="297.36" viewBox="0 0 581.729 297.36">
  <defs>
    <clipPath id="clip-path">
      <rect id="Video" width="581.729" height="297.36" transform="translate(-1229.378 -10039.57)" fill="#b9cfd0"/>
    </clipPath>
    <clipPath id="clip-path-2">
      <rect id="Rectangle_1819" data-name="Rectangle 1819" width="105.053" height="256.87" fill="none"/>
    </clipPath>
    <clipPath id="clip-path-3">
      <rect id="Rectangle_1865" data-name="Rectangle 1865" width="94.655" height="338.485" fill="none"/>
    </clipPath>
    <clipPath id="clip-path-5">
      <rect id="Rectangle_1860" data-name="Rectangle 1860" width="68.616" height="70.933" fill="none"/>
    </clipPath>
    <clipPath id="clip-path-7">
      <rect id="Rectangle_1862" data-name="Rectangle 1862" width="9.014" height="35.575" fill="none"/>
    </clipPath>
    <clipPath id="clip-path-8">
      <rect id="Rectangle_1861" data-name="Rectangle 1861" width="9.012" height="35.571" fill="none"/>
    </clipPath>
    <clipPath id="clip-path-9">
      <rect id="Rectangle_1863" data-name="Rectangle 1863" width="77.869" height="215.5" fill="none"/>
    </clipPath>
    <clipPath id="clip-path-10">
      <rect id="Rectangle_1706" data-name="Rectangle 1706" width="489.056" height="281.541" fill="none"/>
    </clipPath>
    <clipPath id="clip-path-11">
      <rect id="Rectangle_1858" data-name="Rectangle 1858" width="56.761" height="54.54" fill="none"/>
    </clipPath>
  </defs>
  <g id="Mask_Group_36" data-name="Mask Group 36" transform="translate(1229.378 10039.57)" clip-path="url(#clip-path)">
    <g id="Group_8302" data-name="Group 8302" transform="translate(81 -78)">
      <g id="Group_8289" data-name="Group 8289" transform="translate(-1146.383 -10032.371)" opacity="0.5">
        <rect id="Rectangle_459" data-name="Rectangle 459" width="64.208" height="207.568" transform="translate(0 0)" fill="#fff"/>
        <rect id="Rectangle_459-2" data-name="Rectangle 459" width="64.208" height="207.568" transform="translate(77.829 0)" fill="#fff"/>
      </g>
      <g id="Group_8298" data-name="Group 8298" transform="translate(-898.641 -10021.1)">
        <path id="Path_6982" data-name="Path 6982" d="M149.9,5.036h-5.94l1.732,34.343h5.545Z" transform="translate(-115.543 -4.043)" fill="#8f8e8c"/>
        <path id="Path_6983" data-name="Path 6983" d="M149.753,415.7h-5.94l1.732-32.5h3.966Z" transform="translate(-115.427 -307.562)" fill="#8f8e8c"/>
        <g id="Group_6886" data-name="Group 6886" transform="translate(0 0)">
          <g id="Group_6885" data-name="Group 6885" clip-path="url(#clip-path-2)">
            <path id="Path_6984" data-name="Path 6984" d="M174.24,263.74H164.37V45.225a26.826,26.826,0,0,0-26.8-26.8H86.2V8.56h51.373A36.707,36.707,0,0,1,174.24,45.225Z" transform="translate(-69.187 -6.871)" fill="#d3d1cd"/>
            <path id="Path_6985" data-name="Path 6985" d="M77.331,13.29c0,2.74-1.63,4.961-3.64,4.961s-3.64-2.221-3.64-4.961,1.63-4.961,3.64-4.961,3.64,2.221,3.64,4.961" transform="translate(-56.225 -6.685)" fill="#2e353d"/>
            <path id="Path_6986" data-name="Path 6986" d="M43.807,524.406a.9.9,0,0,1,.8.5l16.779,34.837a5.917,5.917,0,0,1-5.331,8.484H9.877a5.917,5.917,0,0,1-5.331-8.484l16.779-34.837a.9.9,0,0,1,.8-.5Zm0-3.948H22.127a4.838,4.838,0,0,0-4.359,2.739L.989,558.033a9.865,9.865,0,0,0,8.887,14.145h46.18a9.865,9.865,0,0,0,8.887-14.145L48.166,523.2a4.838,4.838,0,0,0-4.359-2.739" transform="translate(0 -417.73)" fill="#e8e8e8"/>
            <rect id="Rectangle_1818" data-name="Rectangle 1818" width="5.94" height="42.224" transform="translate(30.052 33.476)" fill="#b9b8b6"/>
            <path id="Path_6987" data-name="Path 6987" d="M100.018,529.84H74.433L67.6,543.306h39.247Zm-8.707,5.982H83.14a1.751,1.751,0,1,1,0-3.5h8.17a1.751,1.751,0,1,1,0,3.5" transform="translate(-54.259 -425.26)" fill="#e8e8e8"/>
            <path id="Path_6988" data-name="Path 6988" d="M153.923,415.7h5.94l-1.732-32.5h-5.94Z" transform="translate(-122.151 -307.562)" fill="#b9b8b6"/>
            <path id="Path_6989" data-name="Path 6989" d="M154.067,5.036h5.94l-1.732,32.5h-5.94Z" transform="translate(-122.267 -4.043)" fill="#b9b8b6"/>
            <path id="Path_6990" data-name="Path 6990" d="M144.888,548.8h7.329a.992.992,0,0,0,.992-.992H143.9a.992.992,0,0,0,.992.992" transform="translate(-115.494 -439.685)" fill="#b9b8b6"/>
            <path id="Path_6991" data-name="Path 6991" d="M152.34,0h-7.329a.992.992,0,0,0-.992.992h9.313A.992.992,0,0,0,152.34,0" transform="translate(-115.592 -0.001)" fill="#b9b8b6"/>
          </g>
        </g>
      </g>
      <g id="Group_8299" data-name="Group 8299" transform="translate(-1163 -9964.276)">
        <g id="Group_6956" data-name="Group 6956" clip-path="url(#clip-path-3)">
          <path id="Path_7126" data-name="Path 7126" d="M53.438,68.93l2.95,29.5L65.3,128.748l-5.9,3.442L39.673,103.838,33.092,71.116Z" transform="translate(11.735 24.443)" fill="#7f6560"/>
          <g id="Group_6955" data-name="Group 6955">
            <g id="Group_6954" data-name="Group 6954" clip-path="url(#clip-path-3)">
              <path id="Path_7127" data-name="Path 7127" d="M51.105,248.569s-9.1-4.556-9.286-13.434H32.354a55.26,55.26,0,0,1,.149,5.7c-.163.983-1.118,4.733-1.118,4.733s16.305,14.417,19.72,3" transform="translate(11.129 83.381)" fill="#e0e2e2"/>
              <path id="Path_7128" data-name="Path 7128" d="M50.682,245.748l-1.937,2.709a89.915,89.915,0,0,0-17.427-6.582c-2.243-.493,0,10.837,0,10.837h5.81V250l7.746,2.709H59.589s1.3-8.136-8.909-6.971" transform="translate(10.752 85.765)" fill="#514450"/>
              <path id="Path_7129" data-name="Path 7129" d="M19.833,241.835H8.506v5.683H20.291Z" transform="translate(3.016 85.757)" fill="#02979b"/>
              <path id="Path_7130" data-name="Path 7130" d="M19.9,248.949V235.236H10.99s-3.657,11.178-2.417,13.443c1.355,2.486,11.326.271,11.326.271" transform="translate(2.949 83.417)" fill="#e0e2e2"/>
              <path id="Path_7131" data-name="Path 7131" d="M9,241.836v4.5a10.16,10.16,0,0,1,5.664-1.471,10.156,10.156,0,0,1,5.662,1.471v-4.5s4.213,9.44,0,10.892H9c-4.211-1.452,0-10.892,0-10.892" transform="translate(2.526 85.757)" fill="#514450"/>
              <path id="Path_7132" data-name="Path 7132" d="M4.177,127.686,9.652,274.693H24.576L35.852,145.708,38.09,274.693H56.106l13.1-147.007Z" transform="translate(1.481 45.278)" fill="#02979b"/>
              <path id="Path_7133" data-name="Path 7133" d="M69.206,127.686l-1.154,12.961L4.413,134l-.236-6.31Z" transform="translate(1.481 45.278)" fill="#02979b"/>
              <path id="Path_7134" data-name="Path 7134" d="M72.013,163.958H2.591c.358-39.825,10.845-55.983,8.1-83.012A71.032,71.032,0,0,0,3.153,56.63C-.434,49.36,27.105,38.92,27.105,38.92H40.143s15.117,6.655,16.835,9.7c4.171,3.16,5.116,19.578,9.244,34.4,1.315,4.724-1.961,2.8-2.884,5.065-3.733,9.179,6.529,53.745,8.676,75.87" transform="translate(0.919 13.801)" fill="#f1f2f2"/>
              <g id="Group_6945" data-name="Group 6945" transform="translate(4.317 106.827)" opacity="0.5">
                <g id="Group_6944" data-name="Group 6944">
                  <g id="Group_6943" data-name="Group 6943" clip-path="url(#clip-path-5)">
                    <g id="Group_6942" data-name="Group 6942" transform="translate(0)">
                      <g id="Group_6941" data-name="Group 6941" clip-path="url(#clip-path-5)">
                        <path id="Path_7135" data-name="Path 7135" d="M71.8,149.795H3.187c44.476-10.723,59.154-70.933,59.154-70.933-.528,14.948,7.586,51.55,9.462,70.933" transform="translate(-3.187 -78.862)" fill="#d1d3d4"/>
                      </g>
                    </g>
                  </g>
                </g>
              </g>
              <g id="Group_6950" data-name="Group 6950" transform="translate(9.989 88.939)" opacity="0.5">
                <g id="Group_6949" data-name="Group 6949">
                  <g id="Group_6948" data-name="Group 6948" clip-path="url(#clip-path-7)">
                    <g id="Group_6947" data-name="Group 6947" transform="translate(0)">
                      <g id="Group_6946" data-name="Group 6946" clip-path="url(#clip-path-8)">
                        <path id="Path_7136" data-name="Path 7136" d="M7.374,101.228A104.286,104.286,0,0,0,8.993,71.466q-.27-2.644-.824-5.418c4.029-.3,8.218-.387,8.218-.387,0,.389-3,28.551-9.012,35.571" transform="translate(-7.374 -65.656)" fill="#d1d3d4"/>
                      </g>
                    </g>
                  </g>
                </g>
              </g>
              <path id="Path_7137" data-name="Path 7137" d="M33.69,29.726V59.674l-12.9-17V29.726Z" transform="translate(7.372 10.541)" fill="#7f6560"/>
              <path id="Path_7138" data-name="Path 7138" d="M17.206,6.509a11.142,11.142,0,0,0-6.759,4.006A3.5,3.5,0,0,0,9.588,12.3a6.5,6.5,0,0,0,.554,2.368,15.314,15.314,0,0,1,.15,5.039,6.763,6.763,0,0,0,1.187,4.8c1.458,1.681,4.11,1.882,5.6,3.534.6.669,1.015,1.57,1.833,1.944,1.238.568,2.6-.36,3.733-1.115A17.731,17.731,0,0,1,27.1,26.732c1.825-.578,3.835-.908,5.238-2.208a8.076,8.076,0,0,0,1.97-3.494,25.4,25.4,0,0,0,1.237-6.651,8.063,8.063,0,0,0-.568-3.943A9.523,9.523,0,0,0,32.647,7.7a10.922,10.922,0,0,0-2.524-1.888c-2.113-1.017-3.464.542-5.569.614a52.8,52.8,0,0,0-7.349.089" transform="translate(3.4 1.938)" fill="#382632"/>
              <path id="Path_7139" data-name="Path 7139" d="M48.658,22.309a11.261,11.261,0,0,0-1.34-6.1c-1.979-3.1-6.429-4.027-6.429-4.027a22.68,22.68,0,0,0-10.006-.855,14.263,14.263,0,0,0-8.711,4.732A16.9,16.9,0,0,0,19.078,22.5a28.982,28.982,0,0,0,1.4,18.95,17.89,17.89,0,0,0,5.876,7.706,10.279,10.279,0,0,0,9.318,1.479,13.907,13.907,0,0,0,6.2-5.714A41.136,41.136,0,0,0,48.66,22.315" transform="translate(6.419 3.942)" fill="#7f6560"/>
              <path id="Path_7140" data-name="Path 7140" d="M23.089,29.916a7.044,7.044,0,0,1-4.275.244,5.273,5.273,0,0,1-2.264-1.9,17.5,17.5,0,0,1-2.8-9.049,17.937,17.937,0,0,1,.821-8.236A13.5,13.5,0,0,1,19.3,5.224a25.292,25.292,0,0,1,6.764-3.28A17.662,17.662,0,0,1,32.822.792,8.028,8.028,0,0,1,38.8,3.784a2.592,2.592,0,0,1,1.761-2.135,4.711,4.711,0,0,1,2.877.026A10.339,10.339,0,0,1,49.25,6.416a21.306,21.306,0,0,1,2.48,7.215c1.084,5.841.956,12.156-1.887,17.371-1.414-1.933-3.4-3.423-4.638-5.475a15.351,15.351,0,0,1-1.233-2.77c-.217-.6-1.546-4.751-1.546-4.751a40.694,40.694,0,0,1-3.136,4.887A29.359,29.359,0,0,1,29.234,28.13c-2.024.677-4.083,1.233-6.14,1.788" transform="translate(4.82 0.279)" fill="#382632"/>
              <path id="Path_7141" data-name="Path 7141" d="M21.432,22.318a11.934,11.934,0,0,0-1.219-2.461,4.473,4.473,0,0,0-1.467-1.528,2.023,2.023,0,0,0-2.032-.051,2.415,2.415,0,0,0-.813.992c-1.084,2.154-.658,4.752.049,7.06a3.619,3.619,0,0,0,1.663,2.448,2.437,2.437,0,0,0,2.78-.885,8.826,8.826,0,0,0,1.015-2.755,3.711,3.711,0,0,0,.026-2.82" transform="translate(5.405 6.393)" fill="#7f6560"/>
              <g id="Group_6953" data-name="Group 6953" transform="translate(-1.392 53.836)" opacity="0.8">
                <g id="Group_6952" data-name="Group 6952">
                  <g id="Group_6951" data-name="Group 6951" clip-path="url(#clip-path-9)">
                    <path id="Path_7142" data-name="Path 7142" d="M24.081,39.743s2,23.23,13.618,22.829,9.612-20.827,9.612-20.827l6.409,3.6s.8,38.451,9.344,43.79c3.7,32.305,14.954,132.786,12.55,156.017-35.338,6.342-68.5,11.021-73.161-6.142-1.984-74.508.534-105.284,8.01-138.393,0,0,20.56-6.008,12.55-29.639s-4.94-28.837-4.94-28.837Z" transform="translate(1.997 -39.743)" fill="#b3e1ed"/>
                  </g>
                </g>
              </g>
              <path id="Path_7143" data-name="Path 7143" d="M19.02,67.645,26.085,89.2l19.57,18.95-3.4,12.015S26.8,111.408,16.818,106.348C9.81,102.792,2.236,73.324,2.236,73.324Z" transform="translate(0.793 23.987)" fill="#7f6560"/>
              <path id="Path_7144" data-name="Path 7144" d="M22.766,76.361l-21.06,7.41C-1.2,68.007-.22,51.471,7.4,47.081,13.6,43.5,19.237,61.39,22.768,76.36" transform="translate(0.07 16.531)" fill="#f1f2f2"/>
            </g>
          </g>
        </g>
      </g>
      <g id="Group_8300" data-name="Group 8300" transform="translate(-1140.225 -9906.836)">
        <g id="Group_6685" data-name="Group 6685" transform="translate(0 0)">
          <g id="Group_6684" data-name="Group 6684" transform="translate(0 0)" clip-path="url(#clip-path-10)">
            <path id="Path_6553" data-name="Path 6553" d="M1387.128,171.4h-118.6c-19.018,0-34.578,11.953-34.578,26.561v58.5a1.457,1.457,0,0,0,1.6,1.229h184.553a1.457,1.457,0,0,0,1.6-1.229v-58.5c0-14.608-15.56-26.561-34.578-26.561m-10.256,13.4c0-2.033,2.166-3.7,4.814-3.7h2.919a6.212,6.212,0,0,1,.752.046c11.027.631,19.8,7.759,19.8,16.384v7.122c0,2.034-2.167,3.7-4.815,3.7h-18.653c-2.648,0-4.814-1.664-4.814-3.7Zm-78.552-.071c0-1.995,2.125-3.627,4.722-3.627h49.574c2.6,0,4.721,1.632,4.721,3.627v8.086c0,1.995-2.125,3.626-4.721,3.626h-49.574c-2.6,0-4.722-1.631-4.722-3.626Zm-47.816,12.8c0-8.626,8.77-15.753,19.8-16.384a6.219,6.219,0,0,1,.752-.046h2.919c2.648,0,4.814,1.665,4.814,3.7v19.855c0,2.034-2.166,3.7-4.814,3.7h-18.653c-2.649,0-4.815-1.664-4.815-3.7Z" transform="translate(-932.65 -54.697)" fill="#d9ccc1"/>
            <path id="Path_6554" data-name="Path 6554" d="M1364.607,171.4h-118.6c-19.018,0-34.578,11.953-34.578,26.561v58.5a1.457,1.457,0,0,0,1.6,1.229h184.553a1.457,1.457,0,0,0,1.6-1.229v-58.5c0-14.608-15.561-26.561-34.578-26.561m-10.256,13.4c0-2.033,2.166-3.7,4.814-3.7h2.919a6.215,6.215,0,0,1,.752.046c11.027.631,19.8,7.759,19.8,16.384v7.122c0,2.034-2.167,3.7-4.815,3.7h-18.653c-2.648,0-4.814-1.664-4.814-3.7Zm-78.552-.071c0-1.995,2.125-3.627,4.722-3.627h49.573c2.6,0,4.722,1.632,4.722,3.627v8.086c0,1.995-2.125,3.626-4.722,3.626h-49.573c-2.6,0-4.722-1.631-4.722-3.626Zm-47.816,12.8c0-8.626,8.769-15.753,19.8-16.384a6.222,6.222,0,0,1,.752-.046h2.919c2.648,0,4.814,1.665,4.814,3.7v19.855c0,2.034-2.166,3.7-4.814,3.7H1232.8c-2.648,0-4.815-1.664-4.815-3.7Z" transform="translate(-915.629 -54.697)" fill="#b5b2ae"/>
            <path id="Path_6555" data-name="Path 6555" d="M1425.921,340.684H1284.263c-3.831,0-6.965,2.408-6.965,5.35V360c0,2.943,3.134,5.35,6.965,5.35h141.659c3.831,0,6.965-2.407,6.965-5.35V346.034c0-2.942-3.134-5.35-6.965-5.35" transform="translate(-965.412 -182.649)" fill="#3e4c5e"/>
            <path id="Path_6556" data-name="Path 6556" d="M1196.891,604.993h-5.545a5.294,5.294,0,0,1-5.278-5.278V565.153a5.294,5.294,0,0,1,5.278-5.278h5.545a5.294,5.294,0,0,1,5.278,5.278v34.562a5.294,5.294,0,0,1-5.278,5.278" transform="translate(-896.458 -348.318)" fill="#99948d"/>
            <path id="Path_6557" data-name="Path 6557" d="M156.5,737.457h8.8a.868.868,0,0,1,.865.865v6a7.989,7.989,0,1,1-10.525,7.576c0-.126,0-.251.009-.375s-.009-.25-.009-.376V738.322a.868.868,0,0,1,.865-.865" transform="translate(-117.63 -482.539)" fill="#a09d98"/>
            <path id="Path_6558" data-name="Path 6558" d="M142.36,762.99a11.534,11.534,0,0,1,7.4-10.767v-.764h4.133a11.531,11.531,0,0,1,0,23.061h-4.133v-.764a11.534,11.534,0,0,1-7.4-10.767" transform="translate(-107.599 -493.123)" fill="#4a4846"/>
            <path id="Path_6559" data-name="Path 6559" d="M125.433,762.99a11.53,11.53,0,1,0,11.531-11.53,11.531,11.531,0,0,0-11.531,11.53" transform="translate(-94.805 -493.123)" fill="#353331"/>
            <path id="Path_6560" data-name="Path 6560" d="M139.072,737.457h8.8a.868.868,0,0,1,.865.865v6a7.989,7.989,0,1,1-10.525,7.576q0-.189.009-.375-.009-.187-.009-.376V738.322a.868.868,0,0,1,.865-.865" transform="translate(-104.46 -482.539)" fill="#99948d"/>
            <rect id="Rectangle_1698" data-name="Rectangle 1698" width="14.787" height="3.562" transform="translate(33.747 253.037)" fill="#99948d"/>
            <rect id="Rectangle_1699" data-name="Rectangle 1699" width="4.262" height="3.562" transform="translate(44.272 253.037)" fill="#dfdddc"/>
            <path id="Path_6561" data-name="Path 6561" d="M425.986,700.925H141.419a3.287,3.287,0,0,1-3.277-3.277v-7.587a3.287,3.287,0,0,1,3.277-3.277H425.986a3.287,3.287,0,0,1,3.277,3.277v7.587a3.286,3.286,0,0,1-3.277,3.277" transform="translate(-104.411 -444.24)" fill="#99948d"/>
            <path id="Path_6562" data-name="Path 6562" d="M1288.85,737.457h8.795a.868.868,0,0,1,.865.865v6a7.989,7.989,0,1,1-10.526,7.576c0-.126,0-.251.009-.375s-.009-.25-.009-.376V738.322a.868.868,0,0,1,.866-.865" transform="translate(-973.49 -482.539)" fill="#a09d98"/>
            <path id="Path_6563" data-name="Path 6563" d="M1274.713,762.99a11.534,11.534,0,0,1,7.4-10.767v-.764h4.134a11.531,11.531,0,0,1,0,23.061h-4.134v-.764a11.534,11.534,0,0,1-7.4-10.767" transform="translate(-963.458 -493.123)" fill="#4a4846"/>
            <path id="Path_6564" data-name="Path 6564" d="M1257.786,762.99a11.531,11.531,0,1,0,11.531-11.53,11.531,11.531,0,0,0-11.531,11.53" transform="translate(-950.665 -493.123)" fill="#353331"/>
            <path id="Path_6565" data-name="Path 6565" d="M1271.424,737.457h8.795a.867.867,0,0,1,.865.865v6a7.989,7.989,0,1,1-10.525,7.576c0-.126,0-.251.009-.375s-.009-.25-.009-.376V738.322a.868.868,0,0,1,.866-.865" transform="translate(-960.319 -482.539)" fill="#99948d"/>
            <rect id="Rectangle_1700" data-name="Rectangle 1700" width="14.787" height="3.562" transform="translate(310.24 253.037)" fill="#99948d"/>
            <rect id="Rectangle_1701" data-name="Rectangle 1701" width="4.262" height="3.562" transform="translate(320.765 253.037)" fill="#beb5a9"/>
            <path id="Path_6566" data-name="Path 6566" d="M216.827,605.036h-5.544A5.294,5.294,0,0,1,206,599.758V565.2a5.294,5.294,0,0,1,5.278-5.278h5.544A5.294,5.294,0,0,1,222.1,565.2v34.562a5.294,5.294,0,0,1-5.278,5.278" transform="translate(-155.703 -348.351)" fill="#99948d"/>
            <path id="Path_6567" data-name="Path 6567" d="M1070.23,447.338v16.42c0,.782-1.156,1.421-2.568,1.421H771.5c-1.412,0-2.568-.639-2.568-1.421v-16.42c0-.782,1.156-1.421,2.568-1.421h296.165c1.412,0,2.568.639,2.568,1.421" transform="translate(-581.175 -262.186)" fill="#d9ccc1"/>
            <path id="Path_6568" data-name="Path 6568" d="M1574.815,161.023l-2.376-1.768a1.438,1.438,0,0,1-.3-2.006l56.772-76.29a1.438,1.438,0,0,1,2.006-.294l2.376,1.768a1.438,1.438,0,0,1,.294,2.006l-56.771,76.291a1.438,1.438,0,0,1-2.007.294" transform="translate(-1188.051 14.095)" fill="#d9ccc1"/>
            <path id="Path_6569" data-name="Path 6569" d="M1071.83,412.921v6.55H791.451v-8.544h278.386a2,2,0,0,1,1.993,1.994" transform="translate(-598.198 -235.74)" fill="#e0f2f3"/>
            <path id="Path_6570" data-name="Path 6570" d="M214.04,524.8v9.324a6.859,6.859,0,0,1-6.839,6.839H56.24a6.859,6.859,0,0,1-6.839-6.839V524.8Z" transform="translate(-37.338 -321.809)" fill="#b5b2ae"/>
            <path id="Path_6571" data-name="Path 6571" d="M1423.4,524.8v9.324a6.859,6.859,0,0,1-6.839,6.839H1265.6a6.859,6.859,0,0,1-6.839-6.839V524.8Z" transform="translate(-951.403 -321.809)" fill="#b5b2ae"/>
            <path id="Path_6572" data-name="Path 6572" d="M997.79,524.8v9.324a6.859,6.859,0,0,1-6.839,6.839h-295.3a6.859,6.859,0,0,0,6.839-6.839V524.8Z" transform="translate(-525.792 -321.809)" fill="#99948d"/>
            <path id="Path_6573" data-name="Path 6573" d="M986.209,368.433H791.451v10.376H986.569Z" transform="translate(-598.197 -203.622)" fill="#d9ccc1"/>
            <path id="Path_6574" data-name="Path 6574" d="M954.472,321.369V334.19a2.557,2.557,0,0,1-2.618,2.474H754.376a2.556,2.556,0,0,1-2.617-2.474V321.369a2.555,2.555,0,0,1,2.617-2.474H951.854a2.557,2.557,0,0,1,2.618,2.474" transform="translate(-568.197 -166.18)" fill="#c8cfd9"/>
            <path id="Path_6575" data-name="Path 6575" d="M1321.412,12.274l-90.843-.136a1.889,1.889,0,0,0-.882.163h0a1.882,1.882,0,0,0-1.191.729l-1.314,1.766c-23.265,41.988-41.558,65.227-36.824,72.242h83.715l5.427-7.293,49.644-66.715a1.89,1.89,0,0,1,1.494-.756Z" transform="translate(-899.761 65.676)" fill="#a7b2c3"/>
            <path id="Path_6578" data-name="Path 6578" d="M1807.57,604.909h-5.545a5.294,5.294,0,0,1-5.278-5.278V565.069a5.294,5.294,0,0,1,5.278-5.278h5.545a5.294,5.294,0,0,1,5.279,5.278v34.562a5.3,5.3,0,0,1-5.279,5.278" transform="translate(-1358.025 -348.255)" fill="#d3d1cd"/>
            <path id="Path_6579" data-name="Path 6579" d="M1589.358,24.883l-59.233,79.6a1.888,1.888,0,0,1-2.634.386l-7.712-5.739-4.619-3.438a1.885,1.885,0,0,1-.385-2.633L1574,13.459a1.889,1.889,0,0,1,1.494-.757,1.867,1.867,0,0,1,1.141.369l12.331,9.177a1.888,1.888,0,0,1,.387,2.634" transform="translate(-1144.622 65.248)" fill="#c8cfd9"/>
            <path id="Path_6584" data-name="Path 6584" d="M210.275,457.759v14.212a1.457,1.457,0,0,1-1.6,1.229H24.122a1.457,1.457,0,0,1-1.6-1.229V457.759a1.457,1.457,0,0,1,1.6-1.229H208.674a1.457,1.457,0,0,1,1.6,1.229" transform="translate(-17.022 -270.208)" fill="#99948d"/>
            <path id="Path_6586" data-name="Path 6586" d="M1898.559,737.374h8.8a.868.868,0,0,1,.865.865v6a7.989,7.989,0,1,1-10.526,7.576q0-.189.009-.375c-.006-.125-.009-.25-.009-.376V738.239a.868.868,0,0,1,.865-.865" transform="translate(-1434.323 -482.477)" fill="#a09d98"/>
            <path id="Path_6587" data-name="Path 6587" d="M1884.422,762.907a11.535,11.535,0,0,1,7.4-10.767v-.764h4.133a11.531,11.531,0,1,1,0,23.061h-4.133v-.764a11.534,11.534,0,0,1-7.4-10.766" transform="translate(-1424.291 -493.06)" fill="#4a4846"/>
            <path id="Path_6588" data-name="Path 6588" d="M1867.495,762.907a11.531,11.531,0,1,0,11.531-11.531,11.531,11.531,0,0,0-11.531,11.531" transform="translate(-1411.497 -493.06)" fill="#353331"/>
            <path id="Path_6589" data-name="Path 6589" d="M1881.134,737.374h8.8a.867.867,0,0,1,.864.865v6a7.989,7.989,0,1,1-10.525,7.576q0-.189.009-.375c-.006-.125-.009-.25-.009-.376V738.239a.867.867,0,0,1,.865-.865" transform="translate(-1421.152 -482.477)" fill="#d3d1cd"/>
            <rect id="Rectangle_1702" data-name="Rectangle 1702" width="14.787" height="3.562" transform="translate(459.117 253.017)" fill="#d3d1cd"/>
            <rect id="Rectangle_1703" data-name="Rectangle 1703" width="4.262" height="3.562" transform="translate(469.642 253.017)" fill="#dfdddc"/>
            <path id="Path_6590" data-name="Path 6590" d="M767.245,738.044h8.8a.867.867,0,0,1,.865.865v6a7.989,7.989,0,1,1-10.525,7.576c0-.126,0-.251.009-.375s-.009-.25-.009-.376V738.909a.867.867,0,0,1,.865-.865" transform="translate(-579.248 -482.983)" fill="#a09d98"/>
            <path id="Path_6591" data-name="Path 6591" d="M753.109,763.577a11.534,11.534,0,0,1,7.4-10.767v-.764h4.133a11.53,11.53,0,0,1,0,23.061h-4.133v-.764a11.533,11.533,0,0,1-7.4-10.767" transform="translate(-569.218 -493.567)" fill="#4a4846"/>
            <path id="Path_6592" data-name="Path 6592" d="M736.182,763.577a11.531,11.531,0,1,0,11.531-11.53,11.531,11.531,0,0,0-11.531,11.53" transform="translate(-556.424 -493.567)" fill="#353331"/>
            <path id="Path_6593" data-name="Path 6593" d="M749.82,738.044h8.795a.867.867,0,0,1,.865.865v6a7.989,7.989,0,1,1-10.525,7.576c0-.126,0-.251.009-.375s-.009-.25-.009-.376V738.909a.867.867,0,0,1,.865-.865" transform="translate(-566.078 -482.983)" fill="#d3d1cd"/>
            <rect id="Rectangle_1704" data-name="Rectangle 1704" width="14.787" height="3.562" transform="translate(182.877 253.18)" fill="#d3d1cd"/>
            <rect id="Rectangle_1705" data-name="Rectangle 1705" width="4.262" height="3.562" transform="translate(193.402 253.18)" fill="#dfdddc"/>
            <path id="Path_6594" data-name="Path 6594" d="M1036.665,700.841H752.1a3.286,3.286,0,0,1-3.277-3.277v-7.587A3.286,3.286,0,0,1,752.1,686.7h284.567a3.286,3.286,0,0,1,3.277,3.277v7.587a3.286,3.286,0,0,1-3.277,3.277" transform="translate(-565.977 -444.177)" fill="#d3d1cd"/>
            <path id="Path_6595" data-name="Path 6595" d="M827.5,604.952H821.96a5.294,5.294,0,0,1-5.278-5.278V565.112a5.294,5.294,0,0,1,5.278-5.278H827.5a5.294,5.294,0,0,1,5.278,5.278v34.562a5.294,5.294,0,0,1-5.278,5.278" transform="translate(-617.268 -348.288)" fill="#d3d1cd"/>
            <path id="Path_6978" data-name="Path 6978" d="M4.3,73.956s34.741,7.667,68.56,0,87.091-9.559,87.091-8.761L161.9,81.679c19.644,7.956,35.981,35.153,0,34.358s-157.6,0-157.6,0c-1.076,0-1.945-.648-1.945-1.447V75.4c0-.8.869-1.446,1.943-1.446" transform="translate(15.662 67.676)" fill="#d6ce95"/>
            <path id="Path_6977" data-name="Path 6977" d="M172.42,85.055c5.079,1.26,8.2,4.876,12.01,13.176,15.43,33.6,31.938,58.266,13.575,69.02-19.686,11.527-65.7-24.037-80.231-42.058s-30.925-.886-34.287,0-5.887.552-6.149-1.435-.262-58.619-.262-58.619,20.315,7.223,26.333,7.973,12.808-9.338,24.371-.187,24.777,6.012,30.6,8.444" transform="translate(112.953 67.69)" fill="#fffad2"/>
            <g id="Group_6691" data-name="Group 6691" transform="translate(0 116.7)">
              <path id="Path_6581" data-name="Path 6581" d="M175.7,171.4H57.1c-19.018,0-34.578,11.953-34.578,26.561v58.5a1.457,1.457,0,0,0,1.6,1.23H208.676a1.457,1.457,0,0,0,1.6-1.23v-58.5c0-14.609-15.561-26.561-34.578-26.561M67.356,204.653c0,2.033-2.166,3.7-4.814,3.7H43.889c-2.648,0-4.815-1.664-4.815-3.7v-7.123c0-8.626,8.77-15.752,19.8-16.383a6.216,6.216,0,0,1,.752-.047h2.919c2.648,0,4.814,1.666,4.814,3.7Zm78.551-11.839c0,1.994-2.125,3.626-4.722,3.626H91.612c-2.6,0-4.722-1.632-4.722-3.626v-8.087c0-1.994,2.125-3.628,4.722-3.628h49.574c2.6,0,4.722,1.633,4.722,3.628Zm47.817,11.839c0,2.033-2.167,3.7-4.815,3.7H170.256c-2.648,0-4.813-1.664-4.813-3.7V184.8c0-2.032,2.166-3.7,4.813-3.7h2.919a6.217,6.217,0,0,1,.752.047c11.027.631,19.8,7.758,19.8,16.383Z" transform="translate(-17.023 -171.396)" fill="#b5b2ae"/>
              <path id="Path_6582" data-name="Path 6582" d="M153.176,171.4H34.578C15.561,171.4,0,183.349,0,197.957v58.5a1.457,1.457,0,0,0,1.6,1.229H186.154a1.457,1.457,0,0,0,1.6-1.229v-58.5c0-14.608-15.561-26.561-34.578-26.561M142.92,184.8c0-2.033,2.166-3.7,4.814-3.7h2.919a6.215,6.215,0,0,1,.752.046c11.027.631,19.8,7.759,19.8,16.384v7.122c0,2.034-2.167,3.7-4.815,3.7H147.734c-2.648,0-4.814-1.664-4.814-3.7Zm-78.552-.071c0-1.995,2.125-3.627,4.722-3.627h49.574c2.6,0,4.722,1.632,4.722,3.627v8.086c0,1.995-2.125,3.626-4.722,3.626H69.09c-2.6,0-4.722-1.631-4.722-3.626Zm-47.816,12.8c0-8.626,8.77-15.753,19.8-16.384a6.214,6.214,0,0,1,.752-.046H40.02c2.648,0,4.814,1.665,4.814,3.7v19.855c0,2.034-2.166,3.7-4.814,3.7H21.367c-2.648,0-4.815-1.664-4.815-3.7Z" transform="translate(0 -171.396)" fill="#d3d1cd"/>
              <path id="Path_6583" data-name="Path 6583" d="M214.489,340.684H72.831c-3.83,0-6.965,2.408-6.965,5.35V360c0,2.943,3.134,5.35,6.965,5.35H214.489c3.831,0,6.965-2.407,6.965-5.35V346.034c0-2.942-3.134-5.35-6.965-5.35" transform="translate(-49.783 -299.348)" fill="#3e4c5e"/>
              <path id="Path_6585" data-name="Path 6585" d="M187.754,457.759V471.97a1.457,1.457,0,0,1-1.6,1.23H1.6A1.457,1.457,0,0,1,0,471.97V457.759a1.457,1.457,0,0,1,1.6-1.23H186.154a1.457,1.457,0,0,1,1.6,1.23" transform="translate(0 -386.906)" fill="#b5b2ae"/>
            </g>
          </g>
        </g>
      </g>
      <g id="Group_8301" data-name="Group 8301" transform="translate(-1131.937 -9836.132)">
        <g id="Group_6939" data-name="Group 6939" transform="translate(0 0)" clip-path="url(#clip-path-11)">
          <path id="Path_7114" data-name="Path 7114" d="M36.357,23.913c-1.053-3.017-5.8-6.675-5.8-6.675-.637-1.25,1.251,2.618,0,3.255a2.544,2.544,0,0,0-1.11,3.42l3.128,6.14a2.5,2.5,0,0,0,3.391,1.007l.029-.015c1.251-.638,1.415-4.113.364-7.132" transform="translate(10.454 6.089)" fill="#50a7be"/>
          <path id="Path_7115" data-name="Path 7115" d="M38.915,28.132c.168.113,4.42-.463,4.42-.463L41.26,31.6l-3.282,2.316a13.517,13.517,0,0,1-.9-1.459,9.9,9.9,0,0,0-.554-1.146Z" transform="translate(13.091 9.916)" fill="#c8d5de"/>
          <path id="Path_7116" data-name="Path 7116" d="M49.5,27.678A12.2,12.2,0,0,1,42.65,29.4c-3.473-.393-6.255-4.219-6.255-4.219L22.44,18.63l-2.131,2.638.247.655-1.614,3.252,1.367,4.855,2.686,6.094L24.5,40.877V43.36L26.3,45.67s3.588,2.535,5.55,2.154c.649-.134,1.74.056,2.369-.154,1.352-.432,2.432-.231,3.092-.528l.035-.014s4.212-2.7,4.283-2.692c1.391.12,1.149.841,2.887-1.319.4-.494.8-1.02,1.206-1.562a21.715,21.715,0,0,0,3.77-6.89c1.186-4.89-.221-3.608-.221-3.608s-3.983,6.947-5.43,5S49.5,27.678,49.5,27.678" transform="translate(6.789 6.677)" fill="#fffdfd"/>
          <path id="Path_7117" data-name="Path 7117" d="M28.608,30.827s.853,8.3,1.1,9.558.657,3.036.657,3.036c1.005-.311,2.6-.288,3.487-.648l.035-.015s-2.611.01-2.235-.549Z" transform="translate(10.253 11.048)" fill="#d8e6ef"/>
          <path id="Path_7118" data-name="Path 7118" d="M37.914,38.516c1.391.12,1,2.629,1,2.629s.147.607,1.883-1.553L29.332,28.473l8.581,10.043Z" transform="translate(10.513 10.205)" fill="#d8e6ef"/>
          <path id="Path_7119" data-name="Path 7119" d="M45.271,28.679s-3.984,6.948-5.43,5l-9.725-8.413L41.725,39.179a21.777,21.777,0,0,0,3.767-6.891c1.186-4.89-.22-3.609-.22-3.609" transform="translate(10.794 9.054)" fill="#d8e6ef"/>
          <path id="Path_7120" data-name="Path 7120" d="M29.185,28.229l-9.729-5.822.158.437Z" transform="translate(6.973 8.03)" fill="#d8e6ef"/>
          <path id="Path_7121" data-name="Path 7121" d="M.394,8.953c2.77.789,27.7,16.329,28.262,19.23s13.1-4.95,10.2-6.909C35.98,19.333,12.465.471,12.443.454,10.331-2.273-2.379,8.161.394,8.953" transform="translate(0 0)" fill="#7f6560"/>
          <path id="Path_7122" data-name="Path 7122" d="M11.47,15.894C14.239,16.683,23.883,23.1,24.445,26A98.434,98.434,0,0,0,27.4,36.714a36.979,36.979,0,0,1,1.659,3.559A12.121,12.121,0,0,0,30.592,42.5c.384.259.829.482,1.233.114.179-.151.537-.694.441-.914l.023.023a9.492,9.492,0,0,1,1.9,2.828c.676,1.626,1.262,1.565,2.114,1.4.576-.141.524-1.022.508-1.22v0a.345.345,0,0,1-.005-.039s1.045,2.387,1.729,2.255a1.968,1.968,0,0,0,1.519-1.417,5.39,5.39,0,0,0-.372-2.361c.171.236.531.606.819.55.374-.073,1.345.094,1.642-2.035a4.914,4.914,0,0,0-.27-3.054s-1.073-3.867-.82-4.241c.482-.712.584-3.719.6-4.579.067-2.988-3.708-9.437-6.614-11.4C32.162,16.47,23.186,7.98,20.389,7.515S8.7,15.1,11.47,15.9" transform="translate(3.921 2.686)" fill="#62c0d8"/>
          <path id="Path_7123" data-name="Path 7123" d="M29.471,23.287c-.115-.076-.145.273-.121.871v0c.088,2.211.909,7.8.909,7.8s2.743,6,2.787,8.68a1.976,1.976,0,0,0,.413-.769,5.39,5.39,0,0,0-.372-2.361c.023.033-1.13-2.589-1.2-2.961s-1.546-4.214-1.546-4.214.239-4.324.141-4.836c-.027-.133-.072-.326-.133-.539a3.44,3.44,0,0,0-.878-1.674" transform="translate(10.516 8.342)" fill="#50a7be"/>
          <path id="Path_7124" data-name="Path 7124" d="M26.2,23.655c-.475.091,2.332,11.814,3.187,13.421.5.945,1.081,2.209,1.468,3.084.576-.141.523-1.022.507-1.218v0a11.556,11.556,0,0,1-.986-2.7,22.843,22.843,0,0,0-1.841-5.06,34.067,34.067,0,0,1-1.623-5.139c-.092-.467-.236-2.472-.712-2.38" transform="translate(9.372 8.477)" fill="#50a7be"/>
          <path id="Path_7125" data-name="Path 7125" d="M24.639,30.722c.155.8,1.88,3.353,2.37,5.439.179-.154.535-.7.44-.917l.024.023L25.481,31.34s-.194-4.787-.762-5.713-.272,4.1-.08,5.1" transform="translate(8.741 9.144)" fill="#50a7be"/>
        </g>
      </g>
    </g>
    <g id="Group_7004" data-name="Group 7004" transform="translate(-1220.53 -9843.409)">
      <g id="Group_7659" data-name="Group 7659" transform="translate(-2 0)">
        <path id="Path_7211" data-name="Path 7211" d="M21.007,77.237a10.5,10.5,0,1,1-10.5-10.5,10.5,10.5,0,0,1,10.5,10.5" transform="translate(0 52.373)" fill="#484849"/>
        <path id="Path_7212" data-name="Path 7212" d="M67.46,77.237a10.5,10.5,0,1,1-10.5-10.5,10.5,10.5,0,0,1,10.5,10.5" transform="translate(39.039 52.373)" fill="#484849"/>
        <path id="Path_7216" data-name="Path 7216" d="M70.242,3.788V125.683a3.8,3.8,0,0,1-7.6,0V3.788a3.8,3.8,0,0,1,7.6,0" transform="translate(36.257)" fill="#fff"/>
        <rect id="Rectangle_1926" data-name="Rectangle 1926" width="117.866" height="15.301" transform="translate(8.81 6.407)" fill="#cbcbcb"/>
        <path id="Path_7217" data-name="Path 7217" d="M124.466,6.406H3.559A3.2,3.2,0,0,1,3.559,0H124.466a3.2,3.2,0,0,1,0,6.406" transform="translate(2.861)" fill="#d7d5d5"/>
        <rect id="Rectangle_1927" data-name="Rectangle 1927" width="36.942" height="15.301" transform="translate(4.971 6.407)" fill="#e1e1e1"/>
        <path id="Path_7218" data-name="Path 7218" d="M37.058,6.406H3.559A3.2,3.2,0,0,1,3.559,0h33.5a3.2,3.2,0,0,1,0,6.406" transform="translate(2.861)" fill="#fff"/>
        <rect id="Rectangle_1928" data-name="Rectangle 1928" width="117.866" height="4.713" transform="translate(8.81 127.114)" fill="#cbcbcb"/>
        <path id="Path_7221" data-name="Path 7221" d="M80.65,77.237a10.5,10.5,0,1,1-10.5-10.5,10.5,10.5,0,0,1,10.5,10.5" transform="translate(49.39 52.373)" fill="#58595b"/>
        <path id="Path_7223" data-name="Path 7223" d="M73.751,75.129a5.711,5.711,0,1,1-5.711-5.711,5.712,5.712,0,0,1,5.711,5.711" transform="translate(51.498 54.481)" fill="#cbcbcb"/>
        <path id="Path_7222" data-name="Path 7222" d="M34.836,77.237a10.5,10.5,0,1,1-10.5-10.5,10.5,10.5,0,0,1,10.5,10.5" transform="translate(16.016 52.373)" fill="#58595b"/>
        <path id="Path_7224" data-name="Path 7224" d="M27.937,75.129a5.711,5.711,0,1,1-5.711-5.711,5.712,5.712,0,0,1,5.711,5.711" transform="translate(18.123 54.481)" fill="#cbcbcb"/>
      </g>
    </g>
  </g>
</svg>
