<svg xmlns="http://www.w3.org/2000/svg" xmlns:xlink="http://www.w3.org/1999/xlink" width="583" height="286.736" viewBox="0 0 583 286.736">
  <defs>
    <clipPath id="clip-path">
      <rect id="Video" width="583" height="286.736" transform="translate(640 921.894)" fill="#f5f2ed"/>
    </clipPath>
    <clipPath id="clip-path-2">
      <rect id="Rectangle_2712" data-name="Rectangle 2712" width="191.43" height="253.958" fill="none"/>
    </clipPath>
    <clipPath id="clip-path-5">
      <rect id="Rectangle_2700" data-name="Rectangle 2700" width="125.18" height="40.014" fill="none"/>
    </clipPath>
    <clipPath id="clip-path-6">
      <rect id="Rectangle_2701" data-name="Rectangle 2701" width="105.6" height="108.926" fill="none"/>
    </clipPath>
    <clipPath id="clip-path-7">
      <rect id="Rectangle_2702" data-name="Rectangle 2702" width="88.347" height="80.969" fill="none"/>
    </clipPath>
    <clipPath id="clip-path-8">
      <rect id="Rectangle_2703" data-name="Rectangle 2703" width="107.284" height="12.369" fill="none"/>
    </clipPath>
    <clipPath id="clip-path-9">
      <rect id="Rectangle_2705" data-name="Rectangle 2705" width="19.167" height="8.438" fill="none"/>
    </clipPath>
    <clipPath id="clip-path-10">
      <rect id="Rectangle_2706" data-name="Rectangle 2706" width="49.523" height="8.524" fill="none"/>
    </clipPath>
    <clipPath id="clip-path-12">
      <rect id="Rectangle_2709" data-name="Rectangle 2709" width="19.167" height="4.55" fill="none"/>
    </clipPath>
    <clipPath id="clip-path-13">
      <rect id="Rectangle_2710" data-name="Rectangle 2710" width="11.375" height="10.471" fill="none"/>
    </clipPath>
    <clipPath id="clip-path-14">
      <rect id="Rectangle_2725" data-name="Rectangle 2725" width="201.618" height="211.544" fill="none"/>
    </clipPath>
    <clipPath id="clip-path-16">
      <rect id="Rectangle_2713" data-name="Rectangle 2713" width="193.977" height="50.027" fill="none"/>
    </clipPath>
    <clipPath id="clip-path-17">
      <rect id="Rectangle_2714" data-name="Rectangle 2714" width="85.567" height="43.885" fill="none"/>
    </clipPath>
    <clipPath id="clip-path-22">
      <rect id="Rectangle_2721" data-name="Rectangle 2721" width="132.006" height="19.106" fill="none"/>
    </clipPath>
    <clipPath id="clip-path-23">
      <rect id="Rectangle_2722" data-name="Rectangle 2722" width="76.781" height="11.113" fill="none"/>
    </clipPath>
    <clipPath id="clip-path-24">
      <rect id="Rectangle_2723" data-name="Rectangle 2723" width="24.769" height="5.569" fill="none"/>
    </clipPath>
  </defs>
  <g id="Mask_Group_31" data-name="Mask Group 31" transform="translate(-640 -921.894)" clip-path="url(#clip-path)">
    <g id="Group_8232" data-name="Group 8232" transform="translate(1979.897 10761.595)">
      <g id="Group_8212" data-name="Group 8212" transform="translate(-1582.866 -9964.541)">
        <g id="Group_8126" data-name="Group 8126" transform="translate(0 0)" opacity="0.35">
          <line id="Line_421" data-name="Line 421" y2="456.383" transform="translate(641.379)" fill="none" stroke="#fff" stroke-width="1"/>
          <line id="Line_422" data-name="Line 422" y2="456.383" transform="translate(901.578)" fill="none" stroke="#fff" stroke-width="1"/>
          <line id="Line_423" data-name="Line 423" y2="456.383" transform="translate(381.179)" fill="none" stroke="#fff" stroke-width="1"/>
          <line id="Line_424" data-name="Line 424" y2="456.383" transform="translate(120.979)" fill="none" stroke="#fff" stroke-width="1"/>
          <line id="Line_425" data-name="Line 425" y2="456.383" transform="translate(771.479)" fill="none" stroke="#fff" stroke-width="1"/>
          <line id="Line_426" data-name="Line 426" y2="456.383" transform="translate(1031.678)" fill="none" stroke="#fff" stroke-width="1"/>
          <line id="Line_427" data-name="Line 427" y2="456.383" transform="translate(511.279)" fill="none" stroke="#fff" stroke-width="1"/>
          <line id="Line_428" data-name="Line 428" y2="456.383" transform="translate(251.079)" fill="none" stroke="#fff" stroke-width="1"/>
          <line id="Line_429" data-name="Line 429" y2="456.383" transform="translate(598.012)" fill="none" stroke="#fff" stroke-width="1"/>
          <line id="Line_430" data-name="Line 430" y2="456.383" transform="translate(858.212)" fill="none" stroke="#fff" stroke-width="1"/>
          <line id="Line_431" data-name="Line 431" y2="456.383" transform="translate(337.813)" fill="none" stroke="#fff" stroke-width="1"/>
          <line id="Line_432" data-name="Line 432" y2="456.383" transform="translate(77.613)" fill="none" stroke="#fff" stroke-width="1"/>
          <line id="Line_433" data-name="Line 433" y2="456.383" transform="translate(728.112)" fill="none" stroke="#fff" stroke-width="1"/>
          <line id="Line_434" data-name="Line 434" y2="456.383" transform="translate(988.312)" fill="none" stroke="#fff" stroke-width="1"/>
          <line id="Line_435" data-name="Line 435" y2="456.383" transform="translate(467.912)" fill="none" stroke="#fff" stroke-width="1"/>
          <line id="Line_436" data-name="Line 436" y2="456.383" transform="translate(207.713)" fill="none" stroke="#fff" stroke-width="1"/>
          <line id="Line_437" data-name="Line 437" y2="456.383" transform="translate(554.646)" fill="none" stroke="#fff" stroke-width="1"/>
          <line id="Line_438" data-name="Line 438" y2="456.383" transform="translate(814.845)" fill="none" stroke="#fff" stroke-width="1"/>
          <line id="Line_439" data-name="Line 439" y2="456.383" transform="translate(294.446)" fill="none" stroke="#fff" stroke-width="1"/>
          <line id="Line_440" data-name="Line 440" y2="456.383" transform="translate(34.246)" fill="none" stroke="#fff" stroke-width="1"/>
          <line id="Line_441" data-name="Line 441" y2="456.383" transform="translate(684.745)" fill="none" stroke="#fff" stroke-width="1"/>
          <line id="Line_442" data-name="Line 442" y2="456.383" transform="translate(944.945)" fill="none" stroke="#fff" stroke-width="1"/>
          <line id="Line_443" data-name="Line 443" y2="456.383" transform="translate(424.546)" fill="none" stroke="#fff" stroke-width="1"/>
          <line id="Line_444" data-name="Line 444" y2="456.383" transform="translate(164.346)" fill="none" stroke="#fff" stroke-width="1"/>
          <line id="Line_445" data-name="Line 445" x1="1069.686" transform="translate(0 41.302)" fill="none" stroke="#fff" stroke-width="1"/>
          <line id="Line_446" data-name="Line 446" x1="1069.686" transform="translate(0 84.668)" fill="none" stroke="#fff" stroke-width="1"/>
          <line id="Line_447" data-name="Line 447" x1="1069.686" transform="translate(0 128.035)" fill="none" stroke="#fff" stroke-width="1"/>
          <line id="Line_448" data-name="Line 448" x1="1069.686" transform="translate(0 171.402)" fill="none" stroke="#fff" stroke-width="1"/>
          <line id="Line_449" data-name="Line 449" x1="1069.686" transform="translate(0 214.768)" fill="none" stroke="#fff" stroke-width="1"/>
          <line id="Line_450" data-name="Line 450" x1="1069.686" transform="translate(0 258.135)" fill="none" stroke="#fff" stroke-width="1"/>
          <line id="Line_451" data-name="Line 451" x1="1069.686" transform="translate(0 301.502)" fill="none" stroke="#fff" stroke-width="1"/>
          <line id="Line_452" data-name="Line 452" x1="1069.686" transform="translate(0 344.868)" fill="none" stroke="#fff" stroke-width="1"/>
          <line id="Line_453" data-name="Line 453" x1="1069.686" transform="translate(0 388.235)" fill="none" stroke="#fff" stroke-width="1"/>
          <line id="Line_454" data-name="Line 454" x1="1069.686" transform="translate(0 431.602)" fill="none" stroke="#fff" stroke-width="1"/>
        </g>
        <g id="Group_8128" data-name="Group 8128" transform="translate(752.854 38.252)">
          <g id="Group_8127" data-name="Group 8127" transform="translate(0 0)">
            <rect id="Rectangle_2667" data-name="Rectangle 2667" width="86.733" height="159.011" transform="translate(35.106)" fill="#fff"/>
            <rect id="Rectangle_2668" data-name="Rectangle 2668" width="35.106" height="159.011" fill="#f4f4f4"/>
            <rect id="Rectangle_2669" data-name="Rectangle 2669" width="33.041" height="159.011" transform="translate(121.84)" fill="#f4f4f4"/>
            <rect id="Rectangle_2670" data-name="Rectangle 2670" width="88.798" height="159.011" transform="translate(125.97)" fill="#fff"/>
            <rect id="Rectangle_2671" data-name="Rectangle 2671" width="4.13" height="30.976" transform="translate(109.449 99.124)" fill="#f4f4f4"/>
          </g>
          <rect id="Rectangle_2672" data-name="Rectangle 2672" width="86.733" height="159.011" transform="translate(35.106 0)" fill="#fff"/>
          <rect id="Rectangle_2673" data-name="Rectangle 2673" width="35.106" height="159.011" transform="translate(0 0)" fill="#d9d9d9"/>
          <rect id="Rectangle_2674" data-name="Rectangle 2674" width="4.13" height="30.976" transform="translate(109.449 99.124)" fill="#f4f4f4"/>
          <rect id="Rectangle_2675" data-name="Rectangle 2675" width="4.13" height="30.976" transform="translate(134.159 99.124)" fill="#f4f4f4"/>
        </g>
        <g id="Group_8129" data-name="Group 8129" transform="translate(303.026 70.046)">
          <path id="Path_8304" data-name="Path 8304" d="M0,0H70.494V127.282H0Z" transform="translate(19.549 0)" fill="#c0c2bd"/>
          <rect id="Rectangle_2676" data-name="Rectangle 2676" width="19.549" height="127.281" transform="translate(0 0.001)" fill="#d9d9d9"/>
          <rect id="Rectangle_2677" data-name="Rectangle 2677" width="4.13" height="26.846" transform="translate(78.473 89.154)" fill="#9f9f9f"/>
        </g>
        <rect id="Rectangle_2678" data-name="Rectangle 2678" width="51.627" height="74.343" transform="translate(221.023 122.92)" fill="#fff"/>
        <rect id="Rectangle_2679" data-name="Rectangle 2679" width="16.521" height="30.976" transform="translate(493.613 341.819)" fill="#e8eff0"/>
        <g id="Group_8137" data-name="Group 8137" transform="translate(664.823 298.145)">
          <g id="Group_8136" data-name="Group 8136" transform="translate(0)">
            <g id="Group_8133" data-name="Group 8133" transform="translate(15.08 8.902)">
              <g id="Group_8130" data-name="Group 8130" transform="translate(0)">
                <rect id="Rectangle_2680" data-name="Rectangle 2680" width="10.807" height="148.695" transform="translate(6.118)" fill="#c3d1d4"/>
                <rect id="Rectangle_2681" data-name="Rectangle 2681" width="10.807" height="148.695" transform="translate(0)" fill="#e7e7e7"/>
              </g>
              <g id="Group_8131" data-name="Group 8131" transform="translate(255.715)">
                <rect id="Rectangle_2682" data-name="Rectangle 2682" width="10.807" height="148.695" transform="translate(6.118)" fill="#c3d1d4"/>
                <rect id="Rectangle_2683" data-name="Rectangle 2683" width="10.807" height="148.695" transform="translate(0)" fill="#e7e7e7"/>
              </g>
              <g id="Group_8132" data-name="Group 8132" transform="translate(167.664)">
                <rect id="Rectangle_2684" data-name="Rectangle 2684" width="10.807" height="148.695" transform="translate(6.118)" fill="#c3d1d4"/>
                <rect id="Rectangle_2685" data-name="Rectangle 2685" width="10.807" height="148.695" transform="translate(0)" fill="#e7e7e7"/>
              </g>
            </g>
            <g id="Group_8134" data-name="Group 8134" transform="translate(103.13 8.902)">
              <rect id="Rectangle_2686" data-name="Rectangle 2686" width="10.807" height="148.695" transform="translate(6.118)" fill="#c3d1d4"/>
              <rect id="Rectangle_2687" data-name="Rectangle 2687" width="10.807" height="148.695" transform="translate(0)" fill="#e7e7e7"/>
            </g>
            <g id="Group_8135" data-name="Group 8135">
              <rect id="Rectangle_2688" data-name="Rectangle 2688" width="124.212" height="15.253" fill="#9f9f9f"/>
              <rect id="Rectangle_2689" data-name="Rectangle 2689" width="179.385" height="15.253" transform="translate(123.414)" fill="#c0c2bd"/>
            </g>
          </g>
        </g>
        <g id="Group_8138" data-name="Group 8138" transform="translate(290.568 244.986)">
          <rect id="Rectangle_2690" data-name="Rectangle 2690" width="16.939" height="53.16" transform="translate(2.652 0)" fill="#c1c3c5"/>
          <rect id="Rectangle_2691" data-name="Rectangle 2691" width="40.279" height="8.727" transform="translate(0 8.8)" fill="#c1c3c5"/>
          <rect id="Rectangle_2692" data-name="Rectangle 2692" width="9.094" height="4.158" transform="translate(28.365 17.397)" fill="#d8dce5"/>
          <rect id="Rectangle_2693" data-name="Rectangle 2693" width="4.448" height="53.16" transform="translate(2.652 0)" fill="#adadad"/>
        </g>
        <g id="Group_8172" data-name="Group 8172" transform="translate(569.107 200.852)">
          <g id="Group_8171" data-name="Group 8171" clip-path="url(#clip-path-2)">
            <rect id="Rectangle_2694" data-name="Rectangle 2694" width="67.901" height="55.991" transform="translate(0 197.967)" fill="#e7e7e7"/>
            <rect id="Rectangle_2695" data-name="Rectangle 2695" width="67.901" height="198.296" transform="translate(0 0)" fill="#e7e7e7"/>
            <g id="Group_8140" data-name="Group 8140">
              <g id="Group_8139" data-name="Group 8139" clip-path="url(#clip-path-2)">
                <line id="Line_455" data-name="Line 455" x1="69.195" transform="translate(0 198.286)" fill="none" stroke="#c0c2bd" stroke-miterlimit="10" stroke-width="1"/>
              </g>
            </g>
            <rect id="Rectangle_2697" data-name="Rectangle 2697" width="125.18" height="55.991" transform="translate(66.25 197.967)" fill="#c3d1d4"/>
            <rect id="Rectangle_2698" data-name="Rectangle 2698" width="125.18" height="157.696" transform="translate(66.25 0)" fill="#c3d1d4"/>
            <g id="Group_8170" data-name="Group 8170">
              <g id="Group_8169" data-name="Group 8169" clip-path="url(#clip-path-2)">
                <g id="Group_8143" data-name="Group 8143" transform="translate(66.25 158.282)" style="isolation: isolate">
                  <g id="Group_8142" data-name="Group 8142">
                    <g id="Group_8141" data-name="Group 8141" clip-path="url(#clip-path-5)">
                      <rect id="Rectangle_2699" data-name="Rectangle 2699" width="125.18" height="40.013" transform="translate(0 0.001)" fill="#3175ae"/>
                    </g>
                  </g>
                </g>
                <g id="Group_8146" data-name="Group 8146" transform="translate(76.04 38.04)" style="isolation: isolate">
                  <g id="Group_8145" data-name="Group 8145">
                    <g id="Group_8144" data-name="Group 8144" clip-path="url(#clip-path-6)">
                      <path id="Path_8305" data-name="Path 8305" d="M47.286,130.749h90.242c4.241,0,7.679-3.122,7.679-6.973V28.8c0-3.851-3.438-6.973-7.679-6.973H47.286c-4.241,0-7.679,3.122-7.679,6.973v94.981c0,3.851,3.438,6.973,7.679,6.973" transform="translate(-39.608 -21.823)" fill="#444"/>
                    </g>
                  </g>
                </g>
                <g id="Group_8149" data-name="Group 8149" transform="translate(86.586 56.814)" opacity="0.2" style="isolation: isolate">
                  <g id="Group_8148" data-name="Group 8148">
                    <g id="Group_8147" data-name="Group 8147" clip-path="url(#clip-path-7)">
                      <path id="Path_8306" data-name="Path 8306" d="M52.78,113.561h72.989c4.241,0,7.679-3.12,7.679-6.973V39.565c0-3.851-3.438-6.972-7.679-6.972H52.78c-4.241,0-7.679,3.122-7.679,6.972v67.023c0,3.852,3.438,6.973,7.679,6.973" transform="translate(-45.1 -32.593)" fill="#fff"/>
                    </g>
                  </g>
                </g>
                <line id="Line_456" data-name="Line 456" x1="69.195" transform="translate(0 26.661)" fill="none" stroke="#c0c2bd" stroke-miterlimit="10" stroke-width="1"/>
                <line id="Line_457" data-name="Line 457" x1="125.07" transform="translate(66.295 26.661)" fill="none" stroke="#9f9f9f" stroke-miterlimit="10" stroke-width="1"/>
                <g id="Group_8152" data-name="Group 8152" transform="translate(76.608 6.758)" style="isolation: isolate">
                  <g id="Group_8151" data-name="Group 8151">
                    <g id="Group_8150" data-name="Group 8150" clip-path="url(#clip-path-8)">
                      <path id="Path_8307" data-name="Path 8307" d="M145.268,16.246H41.823A1.839,1.839,0,0,1,39.9,14.5V5.62a1.839,1.839,0,0,1,1.92-1.743H145.268a1.84,1.84,0,0,1,1.92,1.743V14.5a1.84,1.84,0,0,1-1.92,1.743" transform="translate(-39.903 -3.877)" fill="#3175ae"/>
                    </g>
                  </g>
                </g>
                <g id="Group_8155" data-name="Group 8155" transform="translate(104.516 8.656)" opacity="0.78" style="isolation: isolate">
                  <g id="Group_8154" data-name="Group 8154">
                    <g id="Group_8153" data-name="Group 8153" clip-path="url(#clip-path-9)">
                      <rect id="Rectangle_2704" data-name="Rectangle 2704" width="19.166" height="8.438" transform="translate(0)" fill="#fff"/>
                    </g>
                  </g>
                </g>
                <g id="Group_8158" data-name="Group 8158" transform="translate(127.979 8.571)" opacity="0.78" style="isolation: isolate">
                  <g id="Group_8157" data-name="Group 8157">
                    <g id="Group_8156" data-name="Group 8156" clip-path="url(#clip-path-10)">
                      <path id="Path_8308" data-name="Path 8308" d="M114.264,13.441H68.581a1.839,1.839,0,0,1-1.92-1.743V6.66a1.839,1.839,0,0,1,1.92-1.743h45.683a1.839,1.839,0,0,1,1.92,1.743V11.7a1.839,1.839,0,0,1-1.92,1.743" transform="translate(-66.661 -4.917)" fill="#fff"/>
                    </g>
                  </g>
                </g>
                <g id="Group_8161" data-name="Group 8161" transform="translate(81.783 8.656)" opacity="0.78" style="isolation: isolate">
                  <g id="Group_8160" data-name="Group 8160">
                    <g id="Group_8159" data-name="Group 8159" clip-path="url(#clip-path-9)">
                      <path id="Path_8309" data-name="Path 8309" d="M59.845,11.661H44.519V6.709H59.845Zm0-6.7H44.519A1.837,1.837,0,0,0,42.6,6.709v4.952a1.837,1.837,0,0,0,1.92,1.743H59.845a1.839,1.839,0,0,0,1.92-1.743V6.709a1.839,1.839,0,0,0-1.92-1.743" transform="translate(-42.598 -4.966)" fill="#fff"/>
                    </g>
                  </g>
                </g>
                <g id="Group_8164" data-name="Group 8164" transform="translate(132.507 10.91)" style="isolation: isolate">
                  <g id="Group_8163" data-name="Group 8163">
                    <g id="Group_8162" data-name="Group 8162" clip-path="url(#clip-path-12)">
                      <rect id="Rectangle_2708" data-name="Rectangle 2708" width="19.166" height="4.548" transform="translate(0.001 0.002)" fill="#819c35"/>
                    </g>
                  </g>
                </g>
                <g id="Group_8168" data-name="Group 8168" transform="translate(121.441 42.396)">
                  <g id="Group_8167" data-name="Group 8167" transform="translate(1.617 0)" style="isolation: isolate">
                    <g id="Group_8166" data-name="Group 8166">
                      <g id="Group_8165" data-name="Group 8165" clip-path="url(#clip-path-13)">
                        <path id="Path_8310" data-name="Path 8310" d="M75.319,27.166a4.486,4.486,0,0,1-1.054,6.675,5.609,5.609,0,0,1-7.351-.955c-3.736-4.529-1.267-5.1,1.054-6.676s3.492-3.718,7.351.957" transform="translate(-64.993 -24.322)" fill="#255e84"/>
                      </g>
                    </g>
                  </g>
                  <path id="Path_8311" data-name="Path 8311" d="M56.792,29.258s2.254-4.572,10.256-4.572H85.53" transform="translate(-56.792 -24.051)" fill="none" stroke="#3175ae" stroke-linecap="round" stroke-linejoin="round" stroke-width="2"/>
                </g>
              </g>
            </g>
          </g>
        </g>
        <g id="Group_8201" data-name="Group 8201" transform="translate(409.704 243.992)">
          <g id="Group_8200" data-name="Group 8200" transform="translate(0)">
            <g id="Group_8199" data-name="Group 8199" clip-path="url(#clip-path-14)">
              <g id="Group_8183" data-name="Group 8183" transform="translate(0 0)">
                <g id="Group_8182" data-name="Group 8182" clip-path="url(#clip-path-14)">
                  <g id="Group_8175" data-name="Group 8175" transform="translate(1.872)" style="isolation: isolate">
                    <g id="Group_8174" data-name="Group 8174">
                      <g id="Group_8173" data-name="Group 8173" clip-path="url(#clip-path-16)">
                        <path id="Path_8312" data-name="Path 8312" d="M194.933,41.6S153.138,1.281,106.047.509c0,0-101.23-5.267-105.091,18.086L13.694,46.939l177.552,3.088Z" transform="translate(-0.956 0)" fill="#fff"/>
                      </g>
                    </g>
                  </g>
                  <g id="Group_8178" data-name="Group 8178" transform="translate(1.872 3.441)" opacity="0.12" style="isolation: isolate">
                    <g id="Group_8177" data-name="Group 8177">
                      <g id="Group_8176" data-name="Group 8176" clip-path="url(#clip-path-17)">
                        <path id="Path_8313" data-name="Path 8313" d="M69.081,40.72S58.481-3.564,27.323,2.291C13.159,4.952,2.162,9.685.956,16.983L13.692,45.255l72.83.386Z" transform="translate(-0.956 -1.756)" fill="#3175ae"/>
                      </g>
                    </g>
                  </g>
                  <g id="Group_8181" data-name="Group 8181" transform="translate(1.872)" opacity="0.4" style="isolation: isolate">
                    <g id="Group_8180" data-name="Group 8180">
                      <g id="Group_8179" data-name="Group 8179" clip-path="url(#clip-path-16)">
                        <path id="Path_8314" data-name="Path 8314" d="M194.933,41.6S153.138,1.281,106.047.509c0,0-101.23-5.267-105.091,18.086L13.694,46.939l177.552,3.088Z" transform="translate(-0.956 0)" fill="#3175ae"/>
                      </g>
                    </g>
                  </g>
                </g>
              </g>
              <rect id="Rectangle_2717" data-name="Rectangle 2717" width="127.679" height="142.947" transform="translate(68.119 68.597)" fill="#c0c2bd"/>
              <rect id="Rectangle_2718" data-name="Rectangle 2718" width="69.257" height="142.947" transform="translate(0.325 68.597)" fill="#e7e7e7"/>
              <line id="Line_458" data-name="Line 458" x1="126.216" transform="translate(69.419 88.432)" fill="none" stroke="#9f9f9f" stroke-miterlimit="10" stroke-width="1"/>
              <g id="Group_8185" data-name="Group 8185" transform="translate(0 0)">
                <g id="Group_8184" data-name="Group 8184" clip-path="url(#clip-path-14)">
                  <line id="Line_459" data-name="Line 459" x1="70.577" transform="translate(0 88.432)" fill="none" stroke="#c0c2bd" stroke-miterlimit="10" stroke-width="1"/>
                </g>
              </g>
              <path id="Path_8315" data-name="Path 8315" d="M.166,59.511H95.789L69.452,33.089,1.713,9.483Z" transform="translate(0.159 9.086)" fill="#a9acaa"/>
              <path id="Path_8316" data-name="Path 8316" d="M44.065,28.337,35.549,39.743H161.786l5.769-7.288Z" transform="translate(34.062 28.908)" fill="#c0c2bd"/>
              <g id="Group_8198" data-name="Group 8198" transform="translate(0 -27.456)">
                <g id="Group_8197" data-name="Group 8197" clip-path="url(#clip-path-14)">
                  <g id="Group_8190" data-name="Group 8190" transform="translate(69.612 69.632)" style="isolation: isolate">
                    <g id="Group_8189" data-name="Group 8189">
                      <g id="Group_8188" data-name="Group 8188" clip-path="url(#clip-path-22)">
                        <path id="Path_8317" data-name="Path 8317" d="M41.319,40.644H167.554l-5.769-19.106H35.55Z" transform="translate(-35.549 -21.538)" fill="#3175ae"/>
                      </g>
                    </g>
                  </g>
                  <g id="Group_8193" data-name="Group 8193" transform="translate(96.852 73.629)" opacity="0.78" style="isolation: isolate">
                    <g id="Group_8192" data-name="Group 8192">
                      <g id="Group_8191" data-name="Group 8191" clip-path="url(#clip-path-23)">
                        <path id="Path_8318" data-name="Path 8318" d="M52.816,32.683h73.426L122.886,21.57H49.46Z" transform="translate(-49.461 -21.57)" fill="#fff"/>
                      </g>
                    </g>
                  </g>
                  <g id="Group_8196" data-name="Group 8196" transform="translate(139.502 76.4)" style="isolation: isolate">
                    <g id="Group_8195" data-name="Group 8195">
                      <g id="Group_8194" data-name="Group 8194" clip-path="url(#clip-path-24)">
                        <path id="Path_8319" data-name="Path 8319" d="M72.923,28.554H96.01l-1.682-5.569H71.241Z" transform="translate(-71.241 -22.985)" fill="#819c35"/>
                      </g>
                    </g>
                  </g>
                </g>
              </g>
            </g>
          </g>
        </g>
        <g id="Group_8211" data-name="Group 8211" transform="translate(163.108 298.145)">
          <g id="Group_8210" data-name="Group 8210" transform="translate(0)">
            <g id="Group_8206" data-name="Group 8206" transform="translate(15.08 8.902)">
              <g id="Group_8202" data-name="Group 8202" transform="translate(88.05)">
                <rect id="Rectangle_2726" data-name="Rectangle 2726" width="10.807" height="148.695" transform="translate(6.118)" fill="#c3d1d4"/>
                <rect id="Rectangle_2727" data-name="Rectangle 2727" width="10.807" height="148.695" transform="translate(0)" fill="#e7e7e7"/>
              </g>
              <g id="Group_8203" data-name="Group 8203" transform="translate(0)">
                <rect id="Rectangle_2728" data-name="Rectangle 2728" width="10.807" height="148.695" transform="translate(6.118)" fill="#c3d1d4"/>
                <rect id="Rectangle_2729" data-name="Rectangle 2729" width="10.807" height="148.695" transform="translate(0)" fill="#e7e7e7"/>
              </g>
              <g id="Group_8204" data-name="Group 8204" transform="translate(255.715)">
                <rect id="Rectangle_2730" data-name="Rectangle 2730" width="10.807" height="148.695" transform="translate(6.118)" fill="#c3d1d4"/>
                <rect id="Rectangle_2731" data-name="Rectangle 2731" width="10.807" height="148.695" transform="translate(0)" fill="#e7e7e7"/>
              </g>
              <g id="Group_8205" data-name="Group 8205" transform="translate(167.664)">
                <rect id="Rectangle_2732" data-name="Rectangle 2732" width="10.807" height="148.695" transform="translate(6.118)" fill="#c3d1d4"/>
                <rect id="Rectangle_2733" data-name="Rectangle 2733" width="10.807" height="148.695" transform="translate(0)" fill="#e7e7e7"/>
              </g>
            </g>
            <path id="Path_8320" data-name="Path 8320" d="M5642.49,7098.932h22.169a5.8,5.8,0,0,0,5.784-5.782h0a5.8,5.8,0,0,0-5.784-5.784H5642.49a5.8,5.8,0,0,0-5.784,5.784h0A5.8,5.8,0,0,0,5642.49,7098.932Z" transform="translate(-5496.269 -7056.18)" fill="#edeef0"/>
            <path id="Path_8321" data-name="Path 8321" d="M5552.084,6994.893h73.656c14.466,0,30.441-6.834,30.441,3.992s-15.971,23.614-30.441,23.614h-73.656c-14.471,0-30.442-12.792-30.442-23.614S5537.614,6994.893,5552.084,6994.893Z" transform="translate(-5430.261 -6984.903)" fill="#a9acaa"/>
            <g id="Group_8207" data-name="Group 8207" transform="translate(132.755 42.108)">
              <rect id="Rectangle_2734" data-name="Rectangle 2734" width="9.733" height="25.677" transform="translate(19.698 7.508)" fill="#f8f8f8"/>
              <rect id="Rectangle_2735" data-name="Rectangle 2735" width="25.677" height="12.05" rx="6.025" transform="translate(0 34.297)" fill="#f8f8f8"/>
              <path id="Path_8322" data-name="Path 8322" d="M5628.555,7177.485v5.821a5.574,5.574,0,0,0,5.557,5.558h4.511a1.155,1.155,0,0,0,1.152-1.154v-14.629a1.154,1.154,0,0,0-1.152-1.15h-4.511A5.573,5.573,0,0,0,5628.555,7177.485Z" transform="translate(-5621.092 -7140.076)" fill="#edeef0"/>
              <path id="Path_8323" data-name="Path 8323" d="M5645.239,7196.958h17.8l-1.947-21.319h-13.9Z" transform="translate(-5629.712 -7141.992)" fill="#f8f8f8"/>
              <path id="Path_8324" data-name="Path 8324" d="M5645.24,7219.745h17.8l-.972,6.835a8.005,8.005,0,0,1-7.928,6.884h0a8,8,0,0,1-7.927-6.884Z" transform="translate(-5629.713 -7164.777)" fill="#f8f8f8"/>
              <path id="Path_8325" data-name="Path 8325" d="M5648.886,7123.991h11.431a2.758,2.758,0,0,0,2.75-2.75h0a2.759,2.759,0,0,0-2.75-2.751h-11.431a2.759,2.759,0,0,0-2.751,2.751h0A2.758,2.758,0,0,0,5648.886,7123.991Z" transform="translate(-5630.176 -7112.464)" fill="#edeef0"/>
              <path id="Path_8326" data-name="Path 8326" d="M5648.886,7169.76h11.431a2.756,2.756,0,0,0,2.75-2.75h0a2.757,2.757,0,0,0-2.75-2.749h-11.431a2.757,2.757,0,0,0-2.751,2.749h0A2.757,2.757,0,0,0,5648.886,7169.76Z" transform="translate(-5630.176 -7136.111)" fill="#edeef0"/>
              <rect id="Rectangle_2736" data-name="Rectangle 2736" width="21.629" height="5.5" rx="2.75" transform="translate(13.611 52.219)" fill="#edeef0"/>
              <path id="Path_8327" data-name="Path 8327" d="M5663.117,7106.024l-1.791,6.736H5649.46l-1.791-6.736Z" transform="translate(-5630.968 -7106.024)" fill="#f8f8f8"/>
            </g>
            <g id="Group_8208" data-name="Group 8208" transform="translate(103.13 8.902)">
              <rect id="Rectangle_2737" data-name="Rectangle 2737" width="10.807" height="148.695" transform="translate(6.118)" fill="#c3d1d4"/>
              <rect id="Rectangle_2738" data-name="Rectangle 2738" width="10.807" height="148.695" transform="translate(0)" fill="#e7e7e7"/>
            </g>
            <g id="Group_8209" data-name="Group 8209">
              <rect id="Rectangle_2739" data-name="Rectangle 2739" width="124.212" height="15.253" fill="#9f9f9f"/>
              <rect id="Rectangle_2740" data-name="Rectangle 2740" width="179.385" height="15.253" transform="translate(123.414)" fill="#c0c2bd"/>
            </g>
          </g>
        </g>
      </g>
      <g id="Group_8229" data-name="Group 8229" transform="translate(-1284.935 -9839.699)">
        <g id="Group_8213" data-name="Group 8213" transform="translate(167.556 154.22) rotate(-164)">
          <path id="Path_8328" data-name="Path 8328" d="M10.528,7.323C6.444,5.649-.591,1.848.04.544s2.3.049,3.6.679,3.241,1.4,4.109,1.825S10.528,7.323,10.528,7.323Z" transform="translate(0 1.939)" fill="#63514e"/>
          <path id="Path_8329" data-name="Path 8329" d="M.761,1.267A7.354,7.354,0,0,0,1.927,3.961C.776,4.728-.06,5.463,0,6.031.184,7.6,6.413,9.591,8.53,10.624s8.332.484,9.664.185,3.386-5.251,3.386-5.251a50.857,50.857,0,0,1-6.01-3.044C13.461,1.156,8.745-.81,7.228.354A18.789,18.789,0,0,1,4.159,2.623,7.063,7.063,0,0,0,.761,1.267Z" transform="translate(5.49 0.095)" fill="#63514e"/>
          <path id="Path_8330" data-name="Path 8330" d="M8.207,0c3.206.934,8.343,2.116,14.887,3.526,10.168,2.2,13.2,1.971,17.02,4.386,7.6,4.8,42.264,44.2,42.264,44.2s-22.834-1.654-28.491-6.724S39.445,27.14,35.144,21.146,10.762,11.746,0,6.825Z" transform="translate(18.675 5.562)" fill="#7f6560"/>
          <path id="Path_8331" data-name="Path 8331" d="M12.982,9.174C11.589,8.853,5.242,8.062,4.047,7.5S-.915.315.206.044C1.248-.211,1.979.669,2.763,1.733s2.406,3.64,3.468,2.852,6.478-2.981,9.643-.859S18.63,7.449,18.63,7.449l-1.515,3.225Z" transform="translate(10.762 4.126)" fill="#7f6560"/>
          <path id="Path_8332" data-name="Path 8332" d="M1.989.08c.583.754,4.221,4.581,3.18,5.737S-.266,1.774.013.72,1.989.08,1.989.08Z" transform="translate(11.977 0)" fill="#7f6560"/>
          <path id="Path_8333" data-name="Path 8333" d="M2.362.33A18.947,18.947,0,0,1,6.011,5.723c.774,1.891-.57,2.637-3.185-.3S-.512,1.561.338.642C1.472-.59,2.362.33,2.362.33Z" transform="translate(9.155 0.2)" fill="#7f6560"/>
          <path id="Path_8334" data-name="Path 8334" d="M.071.878c.88,1.5,3.665,4.8,4.453,4.938s1.453-.181.715-1.383S3.09.472,1.785.109-.236.353.071.878Z" transform="translate(4.591 1.269)" fill="#7f6560"/>
        </g>
        <path id="Path_8335" data-name="Path 8335" d="M14.726,39.681c3.066-.815,9.1-8.169,10.057-16.892S26.8,6.3,26.8,6.3,19.9,4.659,16.7,4.053,6.865-.14,5.532,0-.439,20.015.034,26.922C.527,34.118,2.466,42.928,14.726,39.681Z" transform="translate(118.567 84.009) rotate(138)" fill="#014951"/>
        <g id="Group_8214" data-name="Group 8214" transform="translate(0 287.388)">
          <path id="Path_8336" data-name="Path 8336" d="M901.293,531.375s2.784,8.052,3.793,12.944,9.241,10.868,5.581,16.4l-33.282-29.913s2.719-9.4,9.328-10.433c0,0,1.346,6.934,5.812,8.386S898.094,526.556,901.293,531.375Z" transform="translate(-876.928 -520.373)" fill="#2d1f29"/>
          <path id="Path_8337" data-name="Path 8337" d="M877.523,527.652l-.407,1.531a1.471,1.471,0,0,0,.437,1.471l30.68,27.574a1.47,1.47,0,0,0,2.075-.11l.5-.552Z" transform="translate(-877.066 -517.219)" fill="#2d1f29"/>
        </g>
        <g id="Group_8215" data-name="Group 8215" transform="translate(72.788 313.556)">
          <path id="Path_8338" data-name="Path 8338" d="M947.919,538.975s7.451,4.128,11.473,7.092,14.139,1.9,15.113,8.468H929.757s-4.262-8.813-.036-14c0,0,5.637,4.258,9.928,2.352S942.319,537.53,947.919,538.975Z" transform="translate(-927.852 -538.631)" fill="#382632"/>
          <path id="Path_8339" data-name="Path 8339" d="M929.181,549.727l.721,1.41a1.468,1.468,0,0,0,1.308.8h41.25a1.469,1.469,0,0,0,1.469-1.469v-.741Z" transform="translate(-927.276 -533.824)" fill="#382632"/>
        </g>
        <g id="Group_8217" data-name="Group 8217" transform="translate(6.545 179.009)">
          <path id="Path_8340" data-name="Path 8340" d="M955.29,470.181c2.269,21.405-17.554,38.457-20.937,42.943-11.326,15-23.536,44.66-25.147,52.52-2.089,10.2-20.9-.225-27.574-11.128,0,0,10.356-5.54,10.219-14.009s16.143-43.344,25.32-52.248c0,0,21.291-26.981,22.315-42.22C940.023,438.022,955.29,470.181,955.29,470.181Z" transform="translate(-881.633 -444.755)" fill="#a3a2a2"/>
          <g id="Group_8216" data-name="Group 8216" transform="translate(13.634 41.261)">
            <path id="Path_8341" data-name="Path 8341" d="M904.649,553.258c1.612-7.86,13.823-37.515,25.147-52.52,2.065-2.739,10.238-10.169,15.789-20.4-.837-4.493-1.874-7.085-3.051-6.765-6.478,1.766-11.47,1.86-24.3,21.761a117.618,117.618,0,0,0-17.947,50.993s-3.946-1.482-2.98,1.054,2.381,7.268.224,5.065-6.873-4.175-6.339.725C891.517,556.2,902.559,563.459,904.649,553.258Z" transform="translate(-891.146 -473.544)" fill="#c4c4c4"/>
          </g>
        </g>
        <g id="Group_8219" data-name="Group 8219" transform="translate(49.656 128.05)">
          <g id="Group_8218" data-name="Group 8218">
            <path id="Path_8342" data-name="Path 8342" d="M918.842,412.743s-10.82,25.844-5.8,37.509c6.11,14.231,12.137,58.694,11.606,63.954-.533,5.29-1.436,49.133,7.7,92.423,10.784-6.673,12.361-7.28,29.133-10.384-2.19-12.214-14.684-66.966-10.707-75.816,1.483-3.315,2.109-12.967,1.333-17.273-.771-4.291,2.008-74.335,4.688-88.178C959.026,403.444,918.842,412.743,918.842,412.743Z" transform="translate(-911.712 -409.201)" fill="#a3a2a2"/>
          </g>
          <path id="Path_8343" data-name="Path 8343" d="M944.677,434.8c0,8.038-1.674,55.25-.642,60.258s-2.678,19.422-2.678,23.444,10.91,62.854,10.91,65.532c0,0-12.052-1.34-18.976,4.13a16.612,16.612,0,0,1-1.34-6.2s6.531-7.2,11.052-6.7c-4.857-.162-7.37-.5-8.037,0s6.7-4.517,8.037-5.858-10.97-40.585-6.449-57.164c0,0,2.932-12.992,2.905-19.2C939.233,446.171,944.677,434.8,944.677,434.8Z" transform="translate(-902.943 -398.108)" fill="#c4c4c4"/>
        </g>
        <g id="Group_8222" data-name="Group 8222" transform="translate(69.649 0)">
          <path id="Path_8344" data-name="Path 8344" d="M926.556,365.86c.652-.509,5.3-7.2,5.816-8.046a23.34,23.34,0,0,0,2.709-7.694,93.382,93.382,0,0,1-2.656-16.107s4.032-7.388,8.783-8c1.855-5.472,10.507-3.256,17.078-2.176,8.191,1.33,10.212,6.3,9.907,18.758-.024.785-1.7,3.494-1.7,3.676.47,4.34,1.592,7.75,1.34,8.539-.215.62-1.65,1.439-3.127,1.373-.566,1.845-.473,7.182-.965,8.525-1.26,3.463-2.471,3.943-3.564,3.96a15.055,15.055,0,0,1-6.1-1.579c-1.984,2.154-5.2,2.353-6.351,5.365-.607,1.6,3.474,6.968,3.474,6.968l-14.734-7.146S921.977,369.468,926.556,365.86Z" transform="translate(-925.661 -318.727)" fill="#7f6560"/>
          <g id="Group_8221" data-name="Group 8221" transform="translate(3.402)">
            <g id="Group_8220" data-name="Group 8220">
              <path id="Path_8345" data-name="Path 8345" d="M963.5,334.52c1.836-1.334,3.787-3.761,4.121-5.36.718-3.447-3.546-5.173-4.584-6.708a1.4,1.4,0,0,0-1.075-.618c-1.572-.109-2.165-2.988-16.852-1.6a13.431,13.431,0,0,0-8.725,4.083s-13.7,2.4-6,29.112c.364,1.261,2.2,3.61,1.945,4.781,0,0,6.352-.509,7.017-2.687,2.091-6.907,3.868-12.251,6.022-11.975,1.3.173,2.955,3.765,3.351,3.183,2.153-3.162-.285-5.115.349-7.6.176-.688.168-7.125,4.768-6.593C955.334,332.706,963.5,334.52,963.5,334.52Z" transform="translate(-928.035 -319.858)" fill="#3a221a"/>
            </g>
            <path id="Path_8346" data-name="Path 8346" d="M942.95,337.214c-.315-3.215-4.592-3.65-5.141-.867s.318,8.876,2.732,9.006C942.936,345.482,942.95,337.214,942.95,337.214Z" transform="translate(-923.871 -313.512)" fill="#7f6560"/>
          </g>
        </g>
        <g id="Group_8226" data-name="Group 8226" transform="translate(45.405 44.8)">
          <g id="Group_8224" data-name="Group 8224" transform="translate(0)">
            <g id="Group_8223" data-name="Group 8223">
              <path id="Path_8347" data-name="Path 8347" d="M959.243,368.116c-.927-1.331-2.6-3.232-2.6-3.232-1.038,3.1-19.042-7.393-21.17-13.768l-3.1,4.1s-13.4,15.951-14.479,33.655c-3.017,49.225-7.479,83.323-9.153,98.392,0,0,11.251,7.232,23.663,8.258s29.246-1.114,29.246-1.114-1.856-51.872,1.019-85.778c.531-6.271,2.141-10.175,1.339-16.415C963.155,385.487,961.1,370.782,959.243,368.116Z" transform="translate(-908.746 -351.116)" fill="#014951"/>
            </g>
          </g>
          <g id="Group_8225" data-name="Group 8225" transform="translate(28.353 6.364)">
            <path id="Path_8348" data-name="Path 8348" d="M948.212,362.562a32.326,32.326,0,0,1-15.69-7.006c-1.506,3.348-3.994,8.139-3.994,8.139s12.051,20.445,12.5,31.16a139.963,139.963,0,0,1-.446,20.986c-.443,5.355-4.463,16.965-4.463,29.02,0,8.245.669,47.312,1.341,49.021,8.267-.358,15.627-1.4,15.627-1.4s-.423-55.245,2.452-89.145c.53-6.273,2.141-10.177,1.339-16.414-1.86-14.606-5.452-19.75-8.663-24.367" transform="translate(-928.528 -355.556)" fill="#02979b"/>
          </g>
        </g>
        <g id="Group_8228" data-name="Group 8228" transform="translate(37.475 55.321)">
          <g id="Group_8227" data-name="Group 8227" transform="translate(12.376 26.641) rotate(7)">
            <path id="Path_8349" data-name="Path 8349" d="M25.254,11.336c-2.643,4.532-3.466,24.058-6.7,35.162,2.3,3.595,6.768,31.824,7.2,32.4,2.346,3.094,2.766,3.516,3.437,4.436,1.147,1.577.585,2.113.755,3.775.095.95,2.289,5.647,1.138,5.608s-2.756-4.992-3.071-5.856a39.6,39.6,0,0,0,1.933,5.3c.576,1.035,3.225,7.49,2.411,7.79-1.495.546-4.4-6.913-4.417-6.226-.009.437,4.28,7.685,3.3,7.821-2.1.312-4.228-6.54-5.488-6.9a21.068,21.068,0,0,1,1.773,3.328c.65,1.582,1.777,2.68,1.446,3.157-1.046,1.587-5.917-7.946-6.114-6.53-.077.575,4.374,4.74,3.036,4.893-.655.085-6.033-4.982-6.033-4.982a49.747,49.747,0,0,1-3.233-7.04A90.271,90.271,0,0,0,11.549,75.2C6.186,64.533,2.01,56.6.585,52.411-2.273,44.09,6.271,0,6.271,0S27.9,6.8,25.254,11.336Z" transform="translate(0 0)" fill="#7f6560"/>
          </g>
          <path id="Path_8350" data-name="Path 8350" d="M12.807.691C9.554,1.5,3.15,8.826,2.135,17.513S0,33.929,0,33.929s7.318,1.638,10.715,2.241S21.149,40.346,22.563,40.2,28.9,20.275,28.4,13.4C27.875,6.23,25.817-2.543,12.807.691Z" transform="translate(18.395 0) rotate(7)" fill="#02979b"/>
        </g>
      </g>
      <rect id="Rectangle_2741" data-name="Rectangle 2741" width="15.101" height="455.769" transform="translate(-1491.437 -9963.799)" fill="#bed2e8"/>
      <rect id="Rectangle_2742" data-name="Rectangle 2742" width="15.101" height="455.769" transform="translate(-1597.142 -9963.799)" fill="#bed2e8"/>
      <g id="Group_8231" data-name="Group 8231" transform="translate(-1622.395 -9963.167)">
        <g id="Group_8230" data-name="Group 8230" transform="translate(0 0)">
          <path id="Path_8351" data-name="Path 8351" d="M642.162,32.467v455.14h26.923V69.332h73.654V487.606h33.526V32.467Z" transform="translate(-642.162 -32.467)" fill="#9ab4d0"/>
          <path id="Path_8352" data-name="Path 8352" d="M670.3,477.376V57.712h68.058" transform="translate(-630.758 -22.237)" fill="none" stroke="#9ab4d0" stroke-miterlimit="10" stroke-width="1"/>
          <path id="Path_8353" data-name="Path 8353" d="M816.254,511.235V57.712H670.3" transform="translate(-670.303 -57.502)" fill="none" stroke="#9ab4d0" stroke-miterlimit="10" stroke-width="1"/>
        </g>
      </g>
    </g>
  </g>
</svg>
