<svg xmlns="http://www.w3.org/2000/svg" xmlns:xlink="http://www.w3.org/1999/xlink" width="169" height="169" viewBox="0 0 169 169">
  <defs>
    <clipPath id="clip-path">
      <rect id="Rectangle_1566" data-name="Rectangle 1566" width="89.224" height="67.679" fill="none"/>
    </clipPath>
    <clipPath id="clip-path-2">
      <rect id="Rectangle_1579" data-name="Rectangle 1579" width="60.551" height="46.397" fill="none"/>
    </clipPath>
    <clipPath id="clip-path-3">
      <rect id="Rectangle_1589" data-name="Rectangle 1589" width="55.443" height="44.487" fill="none"/>
    </clipPath>
    <clipPath id="clip-path-5">
      <rect id="Rectangle_1585" data-name="Rectangle 1585" width="52.43" height="41.283" fill="none"/>
    </clipPath>
  </defs>
  <g id="Group_8381" data-name="Group 8381" transform="translate(-703 -999.106)">
    <g id="Group_6629" data-name="Group 6629" transform="translate(0 40.106)">
      <g id="Group_6259" data-name="Group 6259" transform="translate(489.301 809.301)">
        <g id="Group_1824" data-name="Group 1824" transform="translate(214 150)">
          <circle id="Ellipse_46" data-name="Ellipse 46" cx="84.5" cy="84.5" r="84.5" transform="translate(-0.301 -0.301)" fill="#fff"/>
        </g>
      </g>
      <g id="Group_6625" data-name="Group 6625" transform="translate(719 1032.539)">
        <g id="Group_6404" data-name="Group 6404" clip-path="url(#clip-path)">
          <path id="Path_5991" data-name="Path 5991" d="M464.422,362.029l-25.66-13.449,2.644-5.045,25.66,13.449a1.372,1.372,0,0,1,.578,1.852l-1.37,2.615a1.372,1.372,0,0,1-1.852.578" transform="translate(-378.577 -296.413)" fill="#ccc"/>
          <path id="Path_5992" data-name="Path 5992" d="M66.826,41.361A33.832,33.832,0,1,1,41.36.855,33.832,33.832,0,0,1,66.826,41.361" transform="translate(0 -0.001)" fill="#efefef"/>
          <path id="Path_5993" data-name="Path 5993" d="M113.388,107.9c-2.669,12.924-15.417,20.763-28.475,17.508S63.432,109.035,66.1,96.11,81.518,75.347,94.576,78.6s21.48,16.37,18.812,29.295" transform="translate(-56.608 -67.185)" fill="#ccc"/>
          <path id="Path_5994" data-name="Path 5994" d="M175,111.8a16.186,16.186,0,0,1-20.058,12.333,17.855,17.855,0,0,1-13.251-20.635,16.186,16.186,0,0,1,20.058-12.333A17.855,17.855,0,0,1,175,111.8" transform="translate(-121.954 -78.209)" fill="#bababa"/>
          <circle id="Ellipse_492" data-name="Ellipse 492" cx="30.513" cy="30.513" r="30.513" transform="translate(-9.312 33.84) rotate(-45)" fill="none" stroke="#ccc" stroke-miterlimit="10" stroke-width="0.5"/>
        </g>
      </g>
      <g id="Group_6626" data-name="Group 6626" transform="translate(799.581 1037.39)">
        <g id="Group_6427" data-name="Group 6427" transform="translate(0 0)" clip-path="url(#clip-path-2)">
          <path id="Path_6044" data-name="Path 6044" d="M56.432,1.1H1.049L11.392,24.286c.743,1.66,3,2.8,5.547,2.8H43.607c2.739,0,5.1-1.3,5.671-3.12Z" transform="translate(0.863 0.901)" fill="#c9c9c9"/>
          <rect id="Rectangle_1576" data-name="Rectangle 1576" width="60.551" height="1.999" fill="#b7b7b7"/>
          <path id="Path_6045" data-name="Path 6045" d="M56.432,5.962H1.049L11.392,29.151c.743,1.66,3,2.8,5.547,2.8H43.607c2.739,0,5.1-1.3,5.671-3.12Z" transform="translate(0.863 4.902)" fill="#c9c9c9"/>
          <rect id="Rectangle_1577" data-name="Rectangle 1577" width="60.551" height="1.999" transform="translate(0 8.865)" fill="#b7b7b7"/>
          <path id="Path_6046" data-name="Path 6046" d="M56.432,11.2H1.049L11.392,34.391c.743,1.66,3,2.8,5.547,2.8H43.607c2.739,0,5.1-1.3,5.671-3.12Z" transform="translate(0.863 9.211)" fill="#c9c9c9"/>
          <rect id="Rectangle_1578" data-name="Rectangle 1578" width="60.551" height="1.999" transform="translate(0 18.414)" fill="#b7b7b7"/>
        </g>
      </g>
    </g>
    <g id="Group_7026" data-name="Group 7026" transform="translate(-1.712 613.588)">
      <g id="Group_6445" data-name="Group 6445" transform="translate(754.101 431.688) rotate(-50)">
        <g id="Group_6444" data-name="Group 6444" clip-path="url(#clip-path-3)">
          <g id="Group_6443" data-name="Group 6443">
            <g id="Group_6442" data-name="Group 6442" clip-path="url(#clip-path-3)">
              <g id="Group_6441" data-name="Group 6441" opacity="0.42">
                <g id="Group_6440" data-name="Group 6440">
                  <g id="Group_6439" data-name="Group 6439" clip-path="url(#clip-path-5)">
                    <path id="Path_6057" data-name="Path 6057" d="M50.531,15.533c-.06,7.621-2.991,14.053-8.651,18.3A20.61,20.61,0,0,0,26.215,0V0L26.07,0h-.036q-.567,0-1.126.031C11.179.7,0,11.889,0,25.751a26.51,26.51,0,0,0,.564,5.373c.1.4,2,.162,1.9-.343A22.2,22.2,0,0,1,1.9,25.752,22.777,22.777,0,0,1,8.362,9.972,20.645,20.645,0,0,0,26.033,41.283c.291,0,.58-.009.868-.022v.022h.141c14.238,0,25.286-11.532,25.387-25.751ZM26.659,3.88h0A9.856,9.856,0,1,1,16.8,13.735a9.869,9.869,0,0,1,9.856-9.856m-9.9,3.049A12.016,12.016,0,1,0,36.6,6.984a14.41,14.41,0,1,1-19.843-.056m9.256,32.214a18.489,18.489,0,0,1-11.57-32.9A16.536,16.536,0,1,0,42.23,11.8,18.449,18.449,0,0,1,30.481,38.6q-1.728.326-3.6.5v.02c-.288.013-.577.02-.868.02" transform="translate(0 0)" fill="#3175ae"/>
                  </g>
                </g>
              </g>
              <path id="Path_6058" data-name="Path 6058" d="M3.4.568,2.184,13.7a.45.45,0,0,1-.485.4L.406,13.979a.45.45,0,0,1-.4-.485L1.213.367A.407.407,0,0,1,1.658,0L3.051.123a.407.407,0,0,1,.343.444Z" transform="translate(50.227 4.704)" fill="#d7eff7"/>
              <rect id="Rectangle_1586" data-name="Rectangle 1586" width="6.019" height="6.019" transform="translate(48.9 11.926) rotate(-84.76)" fill="#d7eff7"/>
              <path id="Path_6059" data-name="Path 6059" d="M3.415,13.632.014.895A.451.451,0,0,1,.329.348L1.585.014A.45.45,0,0,1,2.132.33l3.4,12.737a.407.407,0,0,1-.291.5l-1.349.368a.407.407,0,0,1-.476-.3Z" transform="translate(0.715 30.548)" fill="#d7eff7"/>
              <rect id="Rectangle_1587" data-name="Rectangle 1587" width="6.018" height="6.018" transform="translate(0.447 37.859) rotate(-14.981)" fill="#d7eff7"/>
            </g>
          </g>
        </g>
      </g>
    </g>
  </g>
</svg>
