<svg xmlns="http://www.w3.org/2000/svg" xmlns:xlink="http://www.w3.org/1999/xlink" width="151" height="151" viewBox="0 0 151 151">
  <defs>
    <clipPath id="clip-path">
      <circle id="Ellipse_46" data-name="Ellipse 46" cx="75.5" cy="75.5" r="75.5" fill="none"/>
    </clipPath>
  </defs>
  <g id="Group_5395" data-name="Group 5395" transform="translate(-213.699 -149.699)">
    <g id="Group_1824" data-name="Group 1824" transform="translate(213.699 149.699)">
      <circle id="Ellipse_46-2" data-name="Ellipse 46" cx="75.5" cy="75.5" r="75.5" fill="#fff"/>
      <g id="Group_484" data-name="Group 484" transform="translate(0 0)">
        <g id="Group_483" data-name="Group 483" clip-path="url(#clip-path)">
          <g id="Group_480" data-name="Group 480" transform="translate(18.4 14.237)">
            <rect id="Rectangle_453" data-name="Rectangle 453" width="2.895" height="15.312" transform="translate(24.953 9.752)" fill="#f3c8cf"/>
            <path id="Rectangle_454" data-name="Rectangle 454" d="M0,0H3.91V15.312H0Z" transform="translate(27.848 9.752)" fill="#efefef"/>
            <path id="Path_1101" data-name="Path 1101" d="M-1681.052,896.737a.743.743,0,0,0-.743.742V907.74a.743.743,0,0,0,.743.743h2.017V896.737Z" transform="translate(1700.65 -880.634)" fill="#f3c8cf"/>
            <path id="Path_1102" data-name="Path 1102" d="M-1662.579,896.737h-15.5v11.746h15.5a.743.743,0,0,0,.743-.743V897.48A.743.743,0,0,0-1662.579,896.737Z" transform="translate(1699.693 -880.634)" fill="#efefef"/>
            <path id="Path_1103" data-name="Path 1103" d="M-1650.478,947.291a28.354,28.354,0,0,0-28.5-28.211,28.355,28.355,0,0,0-28.212,28.211v78.228a3.38,3.38,0,0,0,3.38,3.38h49.948a3.38,3.38,0,0,0,3.38-3.38h0Z" transform="translate(1707.188 -886.387)" fill="#efefef"/>
            <path id="Rectangle_455" data-name="Rectangle 455" d="M-1683.172,902.486h19.956a2.118,2.118,0,0,1,2.118,2.118h0v10.719a2.117,2.117,0,0,1-2.117,2.117h-19.956a2.118,2.118,0,0,1-2.118-2.118V904.6A2.117,2.117,0,0,1-1683.172,902.486Z" transform="translate(1701.549 -882.114)" fill="#e01d23"/>
            <path id="Path_1104" data-name="Path 1104" d="M-1637.526,881.131c-1.18-1.573-5.153-4.044-5.153-4.044-8.242-4.158-24.166-.674-27.088-.618s-9.211-1.292-9.211-1.292-2.525-.112-2.525,1.461a1.308,1.308,0,0,0,1.144,1.455,1.32,1.32,0,0,0,.26.005,2.256,2.256,0,0,1,2.135,2.19,3.221,3.221,0,0,0,2.474,2.64v2.127h7.361v-2.089a15.752,15.752,0,0,1,13.588-6.057c8.442.619,8.453.273,15.538,5.526A2.683,2.683,0,0,0-1637.526,881.131Z" transform="translate(1700.577 -875.05)" fill="#e01d23"/>
          </g>
          <g id="Group_485" data-name="Group 485" transform="translate(66.23 21.653)">
            <g id="Group_484-2" data-name="Group 484" transform="translate(0 0)">
              <g id="Group_483-2" data-name="Group 483" transform="translate(0.008)">
                <path id="Path_1105" data-name="Path 1105" d="M-1568.048,894.9a57.83,57.83,0,0,0-10.309-.944,35.338,35.338,0,0,0-8.268,1.612c-4.515,1.444-6.817,2.916-11.737,3.347s-7.5.523-10.149,1.426-5.7,1.389-5.441,4.243a4.957,4.957,0,0,0,5.17,4.6,37.3,37.3,0,0,0,9.042-1.316c1.48-.474,4.01-.738,4.539-.093s1.288,1.818,1.288,1.818,7.641-3.315,9.059-3.986a102.936,102.936,0,0,0,11.122-6.714C-1571.483,897.094-1568.048,894.9-1568.048,894.9Z" transform="translate(1635.347 -887.336)" fill="#db9d7d"/>
                <path id="Path_1106" data-name="Path 1106" d="M-1539.6,909.155l-29.21,1.515s-16.171,9.633-23.552,13.083-11.212,5.762-15.078,5.912c0,0-15.854-1.625-19.73-4.891-3.973-3.349-10.743-11.137-11.7-13.443s-3.84-10.3-3.84-10.3-.551-1.21,1.945-1.887c0,0,.705-1.9,3.434-1.357s4.32,1.772,5.265,7.615l1.538-6.583a3.475,3.475,0,0,1,3.427-.336c2.055.812,2.319,3.338,2.336,4.583a21.193,21.193,0,0,1-.7,3.923,25.963,25.963,0,0,1,6.291,5.383s4.555-1.4,7.77-.365a13,13,0,0,1,8.419-3.944s6.278-4.347,9.735-5.78,6.252-4.938,10.965-7.207,10.238-4.037,13.928-3.044,28.654-6.993,28.654-6.993Z" transform="translate(1642.761 -885.038)" fill="#f0ae8c"/>
              </g>
              <path id="Path_1107" data-name="Path 1107" d="M-1626.91,903.894c.122-.587.587-.936,1.031-.532l.015.014c.382.362-.291,3.215-.609,4.464a1.063,1.063,0,0,1-.2.35.81.81,0,0,1-1.094.339.8.8,0,0,1-.088-.054h0Z" transform="translate(1638.929 -889.711)" fill="#e0bdaf"/>
              <path id="Path_1108" data-name="Path 1108" d="M-1641.077,904.154s1,4.581,1.159,5.253,1.485,7.707,1.485,7.707l-.955-2.158-2.481-6.675-.847-2.332a.823.823,0,0,1,.02-.645,2.145,2.145,0,0,1,.781-.811A6.471,6.471,0,0,1-1641.077,904.154Z" transform="translate(1642.771 -889.96)" fill="#db9d7d"/>
              <path id="Path_1109" data-name="Path 1109" d="M-1640.526,904.161l1.125,4.491s.181.462.427-.469a29.453,29.453,0,0,0-.868-4.4.446.446,0,0,0-.615.138A.446.446,0,0,0-1640.526,904.161Z" transform="translate(1642.193 -889.848)" fill="#e0bdaf"/>
              <path id="Path_1110" data-name="Path 1110" d="M-1629.343,911.034s-.761,4.465-.761,5.189,10.035,10.345,10.035,10.345-8.07-5.9-10.035-7.758-1.862-1.552-2.069-5.276S-1630.544,902.182-1629.343,911.034Z" transform="translate(1640.046 -890.672)" fill="#db9d7d"/>
            </g>
          </g>
        </g>
      </g>
    </g>
  </g>
</svg>
