<svg xmlns="http://www.w3.org/2000/svg" width="70" height="70" viewBox="0 0 70 70">
  <g id="Group_117" data-name="Group 117" transform="translate(-605 -729)">
    <circle id="Ellipse_3" data-name="Ellipse 3" cx="35" cy="35" r="35" transform="translate(605 729)" fill="#fff"/>
    <g id="Group_24" data-name="Group 24" transform="translate(1550 3235)">
      <g id="Group_23" data-name="Group 23" transform="translate(-1014.349 -3552.92)">
        <path id="Path_55" data-name="Path 55" d="M104.516,1067.92a8.176,8.176,0,0,0-8.167,8.167v11.432a8.167,8.167,0,1,0,16.334,0v-11.432A8.176,8.176,0,0,0,104.516,1067.92Zm6.5,19.6a6.5,6.5,0,1,1-13,0v-11.432a6.5,6.5,0,0,1,13,0Z"/>
        <path id="Path_56" data-name="Path 56" d="M104.516,1073.444a.832.832,0,0,0-.833.833v3.834a.833.833,0,0,0,1.666,0v-3.834A.832.832,0,0,0,104.516,1073.444Z"/>
      </g>
    </g>
  </g>
</svg>