<svg id="Group_7062" data-name="Group 7062" xmlns="http://www.w3.org/2000/svg" xmlns:xlink="http://www.w3.org/1999/xlink" width="1280" height="755" viewBox="0 0 1280 755">
  <defs>
    <clipPath id="clip-path">
      <rect id="Rectangle_1951" data-name="Rectangle 1951" width="781" height="755" transform="translate(0.192 32.011)" fill="#fff" stroke="#707070" stroke-width="1"/>
    </clipPath>
    <clipPath id="clip-path-2">
      <rect id="Rectangle_1805" data-name="Rectangle 1805" width="775.498" height="787.317" fill="none"/>
    </clipPath>
    <clipPath id="clip-path-4">
      <rect id="Rectangle_1803" data-name="Rectangle 1803" width="123.667" height="89.484" fill="none"/>
    </clipPath>
  </defs>
  <rect id="Rectangle_107" data-name="Rectangle 107" width="1280" height="755" fill="#f4edc9"/>
  <g id="Group_6842" data-name="Group 6842" transform="translate(108.808 -32.011)" opacity="0.178">
    <g id="Mask_Group_24" data-name="Mask Group 24" clip-path="url(#clip-path)">
      <g id="Group_6841" data-name="Group 6841" clip-path="url(#clip-path-2)">
        <path id="Path_6941" data-name="Path 6941" d="M399.764,146.3l73.389-24.9,48.876,55.348L394.719,201.01Z" transform="translate(250.547 77.06)" fill="#ce876b"/>
        <g id="Group_6840" data-name="Group 6840">
          <g id="Group_6839" data-name="Group 6839" clip-path="url(#clip-path-2)">
            <path id="Path_6942" data-name="Path 6942" d="M545.71,150.648,280.222,136.457c-5.234-.281-9.655,2.826-9.876,6.94l-25.84,483.388c-.219,4.113,3.845,7.673,9.079,7.953C334.71,671.1,422.1,680.57,519.074,648.931c5.234.278,9.656-2.828,9.876-6.941L554.79,158.6c.219-4.113-3.845-7.674-9.079-7.953" transform="translate(155.194 86.604)" fill="#f5f5f5"/>
            <path id="Path_6943" data-name="Path 6943" d="M552.275,208.541c3.5-78.729-57.378-145.386-135.98-148.881h0c-78.041-3.469-144.327,56.657-148.6,134.787L248.22,587.654a17,17,0,0,0,16.119,17.829L514.99,617.9a17,17,0,0,0,17.8-16.148Z" transform="translate(157.544 37.778)" fill="#f5f5f5"/>
            <path id="Path_6944" data-name="Path 6944" d="M331.68.026,440.7,8.2c6.387.479,11.061,7.647,10.433,16.012l-5.749,76.673c-.628,8.367-6.31,14.754-12.7,14.275l-109.005-8.174c-6.39-.479-11.061-7.649-10.433-16.016L318.99,14.3c.62-8.362,6.3-14.755,12.691-14.276" transform="translate(198.794 0)" fill="#fff"/>
            <g id="Group_6838" data-name="Group 6838" transform="translate(520.151 11.159)" opacity="0.198">
              <g id="Group_6837" data-name="Group 6837">
                <g id="Group_6836" data-name="Group 6836" clip-path="url(#clip-path-4)">
                  <path id="Path_6945" data-name="Path 6945" d="M326.142,6.832l2.969.222a2.042,2.042,0,0,1,1.883,2.187L325.23,86.111a2.041,2.041,0,0,1-2.187,1.882l-2.97-.222a2.041,2.041,0,0,1-1.882-2.187l5.764-76.869a2.04,2.04,0,0,1,2.187-1.882" transform="translate(-318.184 -6.826)" fill="#a79d96"/>
                  <path id="Path_6946" data-name="Path 6946" d="M393.952,11.916l2.969.222a2.042,2.042,0,0,1,1.883,2.187L393.04,91.2a2.041,2.041,0,0,1-2.187,1.882l-2.97-.222A2.041,2.041,0,0,1,386,90.667L391.764,13.8a2.04,2.04,0,0,1,2.187-1.882" transform="translate(-275.142 -3.599)" fill="#a79d96"/>
                  <path id="Path_6947" data-name="Path 6947" d="M383.188,11.109l2.969.222a2.042,2.042,0,0,1,1.883,2.187l-5.764,76.869a2.041,2.041,0,0,1-2.187,1.882l-2.97-.222a2.041,2.041,0,0,1-1.882-2.187L381,12.991a2.04,2.04,0,0,1,2.187-1.882" transform="translate(-281.974 -4.111)" fill="#a79d96"/>
                  <path id="Path_6948" data-name="Path 6948" d="M371.349,10.221l2.967.222a2.043,2.043,0,0,1,1.885,2.187L370.437,89.5a2.043,2.043,0,0,1-2.189,1.882l-2.969-.222a2.039,2.039,0,0,1-1.882-2.187L369.161,12.1a2.039,2.039,0,0,1,2.187-1.882" transform="translate(-289.489 -4.675)" fill="#a79d96"/>
                  <path id="Path_6949" data-name="Path 6949" d="M360.585,9.414l2.969.222a2.042,2.042,0,0,1,1.883,2.187l-5.764,76.869a2.041,2.041,0,0,1-2.187,1.882l-2.97-.222a2.041,2.041,0,0,1-1.882-2.187L358.4,11.3a2.04,2.04,0,0,1,2.187-1.882" transform="translate(-296.321 -5.187)" fill="#a79d96"/>
                  <path id="Path_6950" data-name="Path 6950" d="M348.745,8.527l2.969.222a2.042,2.042,0,0,1,1.883,2.187l-5.764,76.869a2.041,2.041,0,0,1-2.187,1.882l-2.97-.222a2.041,2.041,0,0,1-1.882-2.187l5.764-76.869a2.04,2.04,0,0,1,2.187-1.882" transform="translate(-303.837 -5.75)" fill="#a79d96"/>
                  <path id="Path_6951" data-name="Path 6951" d="M337.981,7.719l2.969.222a2.042,2.042,0,0,1,1.883,2.187L337.069,87a2.041,2.041,0,0,1-2.187,1.882l-2.97-.222a2.041,2.041,0,0,1-1.882-2.187L335.793,9.6a2.04,2.04,0,0,1,2.187-1.882" transform="translate(-310.669 -6.263)" fill="#a79d96"/>
                </g>
              </g>
            </g>
            <path id="Path_6952" data-name="Path 6952" d="M476.3,557.747c-67.052,8.555-132.473,5.946-195.949-9.951a11.48,11.48,0,0,1-8.694-11.711L291.3,154.648A11.428,11.428,0,0,1,304.279,143.9a1062.4,1062.4,0,0,0,189.835,9.833,11.424,11.424,0,0,1,11.842,12.017L486.323,546.971A11.473,11.473,0,0,1,476.3,557.747" transform="translate(172.425 91.272)" fill="#034ea2"/>
            <path id="Path_6953" data-name="Path 6953" d="M506.975,185.486A47.12,47.12,0,0,0,510,143.706a37.685,37.685,0,0,0-18.641-19.844c-27.066-13.109-54.833,7.621-74.987,46.849-16.326,31.773,25.548,67.688,55.9,50.43,17.3-9.836,28.374-24.693,34.7-35.654" transform="translate(261.969 76.127)" fill="#db8f6d"/>
            <path id="Path_6954" data-name="Path 6954" d="M423.841,162.78c2.377-5.426,16.715-19.705,23.755-18.151,13.161,2.908,25.687,21.765,27.307,26.615,2.393,7.167-11.1,25.881-16.72,24.471s-36.718-27.508-34.341-32.935" transform="translate(268.95 91.729)" fill="#d89c84"/>
            <path id="Path_6955" data-name="Path 6955" d="M464.574,215.3c-2.182-42.376-47.055-39.169-87.417-32.164s-44.1,30.132-46.093,67.512c-1.345,25.159,9.3,76.675,16.411,107.673a49.342,49.342,0,0,1-13.166,45.858C302.262,436.354,131.586,593.249,0,673.736H335.635l64.211-73.511,17.595-329.134s49.587-8.18,47.133-55.794" transform="translate(0 113.582)" fill="#db8f6d"/>
            <path id="Path_6956" data-name="Path 6956" d="M238.981,554.234l64.211-73.511,6.068-113.515c-7.986,27.16-21.469,51.287-37.153,71.676-24.3,30.687-93.225,92.03-119.837,115.351Z" transform="translate(96.654 233.084)" fill="#ce876b"/>
            <path id="Path_6957" data-name="Path 6957" d="M272.616,239.155s-12.812,5.921-44.455-9.9c0,0,2.781,5.437,9.99,11.594a77.6,77.6,0,0,1,25.795,46.414l4.615,27.758Z" transform="translate(144.825 145.517)" fill="#ce876b"/>
            <path id="Path_6958" data-name="Path 6958" d="M289.474,192.545s-9.133,15.015-17.833,32.322-33.375.992-34.711-5.189,10.212-26.748,18.038-32.092c10.17-6.941,43.481-3.4,34.506,4.958" transform="translate(150.323 116.73)" fill="#d89c84"/>
            <path id="Path_6959" data-name="Path 6959" d="M453.526,232.258l-1.615,30.2s-31.8,37.246-44.709,53.865-13.161,48.338,13.526,61.785,45.217-27.393,55.9-38.361,21.02-39.548,25.428-52.972c5.743-17.482,2.442-54.681-48.531-54.52" transform="translate(253.068 147.425)" fill="#ce876b"/>
            <path id="Path_6960" data-name="Path 6960" d="M488.864,268.255c-21.863,3.829-28.18,28.482-45.327,37.563-14.768,8.744-29.429,8.393-43.733,4.4-3.68,16.312,1.432,35.866,20.918,45.685,26.687,13.448,50.445-21.53,58.81-37.743a460.406,460.406,0,0,0,21.584-50.78,41.178,41.178,0,0,0-12.252.879" transform="translate(253.071 169.637)" fill="#db8f6d"/>
            <path id="Path_6961" data-name="Path 6961" d="M454.518,181.655l-1.865,34.889s-36.731,43.02-51.642,62.215-15.2,55.835,15.623,71.367,52.229-31.641,64.568-44.31,24.281-45.681,29.373-61.185c6.634-20.194,2.822-63.16-56.057-62.975" transform="translate(248.301 115.305)" fill="#db8f6d"/>
            <path id="Path_6962" data-name="Path 6962" d="M454.515,181.655l-1.865,34.887s-36.731,43.022-51.642,62.217c-13.661,17.59-15.031,49.811,8.545,67.033a33,33,0,0,1-5.037-7.976c-7.418-17.059-4.782-35.244,7.469-46.252,26.919-30.192,56.378-79.754,100.942-63.955-.515-20.879-13.273-46.1-58.413-45.954" transform="translate(248.304 115.305)" fill="#ce876b"/>
            <path id="Path_6963" data-name="Path 6963" d="M421.7,302.312c11.218-2.11,24.8-14.713,25.316-24.271.227-4.288-7.982-23.982-14.894-25.831s-27.15,5.957-26.761,10.976,6.882,5.637,11.662,19.78c3.358,9.938,1.442,19.954,4.677,19.346" transform="translate(257.295 159.914)" fill="#d89c84"/>
            <path id="Path_6964" data-name="Path 6964" d="M427.476,334.775c8.63-1.7,19.094-11.77,19.5-19.393.183-3.422-6.1-19.113-11.411-20.577s-20.884,4.791-20.591,8.793,5.282,4.484,8.936,15.756c2.567,7.92,1.077,15.911,3.565,15.421" transform="translate(263.401 186.989)" fill="#d89c84"/>
            <path id="Path_6965" data-name="Path 6965" d="M457.269,204.616c-.387,7.044-158.6-1.654-158.213-8.7l.489-8.875a1.624,1.624,0,0,1,1.931-1.507,586.3,586.3,0,0,0,154.529,8.488,1.628,1.628,0,0,1,1.751,1.712Z" transform="translate(189.825 117.749)" fill="#fff"/>
            <path id="Path_6966" data-name="Path 6966" d="M456.269,217.992c-.387,7.044-158.6-1.654-158.213-8.7l.489-8.875a1.624,1.624,0,0,1,1.931-1.507A586.234,586.234,0,0,0,455.005,207.4a1.628,1.628,0,0,1,1.751,1.712Z" transform="translate(189.19 126.24)" fill="#fff"/>
            <path id="Path_6967" data-name="Path 6967" d="M456.269,232.793c-.387,7.044-158.6-1.654-158.213-8.7l.489-8.875a1.624,1.624,0,0,1,1.931-1.507A586.235,586.235,0,0,0,455.005,222.2a1.628,1.628,0,0,1,1.751,1.712Z" transform="translate(189.19 135.635)" fill="#fff"/>
            <path id="Path_6968" data-name="Path 6968" d="M449.46,375.209c-.387,7.044-158.6-1.654-158.212-8.7l.489-8.875a1.624,1.624,0,0,1,1.931-1.507A586.3,586.3,0,0,0,448.2,364.616a1.628,1.628,0,0,1,1.751,1.712Z" transform="translate(184.868 226.033)" fill="#fff"/>
          </g>
        </g>
      </g>
    </g>
  </g>
</svg>