<svg xmlns="http://www.w3.org/2000/svg" xmlns:xlink="http://www.w3.org/1999/xlink" width="1280" height="755" viewBox="0 0 1280 755">
  <defs>
    <clipPath id="clip-path">
      <rect id="Rectangle_1952" data-name="Rectangle 1952" width="1280" height="755" fill="#f4edc9"/>
    </clipPath>
    <clipPath id="clip-path-2">
      <rect id="Rectangle_1940" data-name="Rectangle 1940" width="124.572" height="139.402" fill="#c3a350"/>
    </clipPath>
    <clipPath id="clip-path-3">
      <rect id="Rectangle_1940-2" data-name="Rectangle 1940" width="183.82" height="205.704" fill="#c3a350"/>
    </clipPath>
    <clipPath id="clip-path-4">
      <rect id="Rectangle_1941" data-name="Rectangle 1941" width="54.928" height="40.493" fill="#685c53"/>
    </clipPath>
    <clipPath id="clip-path-5">
      <rect id="Rectangle_1941-2" data-name="Rectangle 1941" width="97.37" height="71.782" fill="#685c53"/>
    </clipPath>
    <clipPath id="clip-path-6">
      <rect id="Rectangle_1941-3" data-name="Rectangle 1941" width="104.765" height="77.232" fill="#685c53"/>
    </clipPath>
    <clipPath id="clip-path-7">
      <rect id="Rectangle_1942" data-name="Rectangle 1942" width="23.579" height="38.51" fill="#606060"/>
    </clipPath>
    <clipPath id="clip-path-8">
      <rect id="Rectangle_1944" data-name="Rectangle 1944" width="19.376" height="32.393" fill="#606060"/>
    </clipPath>
  </defs>
  <g id="Mask_Group_26" data-name="Mask Group 26" clip-path="url(#clip-path)">
    <g id="Group_7065" data-name="Group 7065">
      <g id="Group_7028" data-name="Group 7028" transform="translate(-18 642.889)" opacity="0.41">
        <g id="Group_7027" data-name="Group 7027" clip-path="url(#clip-path-2)">
          <path id="Path_7263" data-name="Path 7263" d="M38.067,12.289c5.172,2.826,8.788,2.123,12.515-1.781,1.269-1.329,4.858-.442,7.386-.568a41.3,41.3,0,0,1-1.819,6.3c-.711,1.554-2.433,2.644-3.145,4.2-2.184,4.762-.053,7.781,5.119,8.162,3.2.236,8.355-1.707,8.333,3.853-.02,5.256-4.834,4.412-8.559,4.71a8.705,8.705,0,0,0-5.226,2.2c-2.1,2.175-1.314,4.717.63,6.857,1.267,1.4,3.115,2.6,3.647,4.232.572,1.755-.092,3.911-.217,5.892-1.566-.215-3.127-.518-4.7-.624-4.952-.337-6.436-9.031-13.274-4.986-2.909,4.439,2.867,12.311-6.605,16.427l-3.5-16.675c-5.61-2.749-8.812,1.7-11.465,5.2-2.459,3.253-4.892,3.093-6.725.89-.962-1.155-.085-4.481.851-6.392.873-1.782,3.49-2.73,4.3-4.516a10.015,10.015,0,0,0,.507-6.555c-.375-1.221-2.766-2.129-4.415-2.589-2.948-.821-6.094-.962-9-1.882C1.587,34.3.89,32.6,0,31.51c1.263-1.02,2.392-2.574,3.822-2.935C6.094,28,8.666,28.6,10.924,28c1.993-.531,4.692-1.635,5.325-3.2.707-1.741-.179-4.467-1.092-6.428-.821-1.762-2.866-2.916-3.9-4.621-.808-1.328-.9-3.092-1.308-4.662,2.166-.055,4.339-.224,6.492-.086.536.035.9,1.356,1.528,1.586,2.879,1.053,5.846,2.618,8.731,2.519,1.086-.037,2.136-4.037,3-6.307.334-.88-.285-2.262.2-2.914C31.054,2.337,32.546.105,34.032,0c1.251-.086,3.459,2.248,3.859,3.857.652,2.62.176,5.522.176,8.429" transform="translate(0 0)" fill="#c3a350"/>
          <path id="Path_7264" data-name="Path 7264" d="M74.783,51.045c1.188-3.567,2.98-6.6,3.055-9.684.134-5.537,2.148-7.774,7.947-6.563,2.289,5.154-3.31,14.382,8.385,14.789l10.959-7.343c3.045,5.518.44,8.779-1.883,12.219-1.006,1.489-2.512,3.936-1.961,4.9a9.243,9.243,0,0,0,5.212,3.823c2.379.646,5.067.152,7.482.152,1.71,7.506,1.2,7.969-5.643,8.4-2.416.151-5.584.834-6.938,2.483-2.145,2.61-1.117,5.457,2.311,7.1a4.055,4.055,0,0,1,1.946,2.783,62.807,62.807,0,0,1-.053,7.386,32.131,32.131,0,0,1-5.6-2.278c-2.089-1.327-3.811-3.218-5.8-4.715-2.969-2.23-7.394.143-7.651,4.246-.235,3.718-.05,7.463-.05,11.169-6.962,1.51-8.171-2.3-8.442-6.812-.617-10.3-.569-10.326-9.019-4.97-1.246.79-2.228,2.464-3.495,2.656-2.423.367-4.964-.038-7.456-.123.741-2.143,1.112-4.528,2.32-6.364,1.312-1.993,3.967-3.181,5.031-5.24,2.126-4.109-.835-7.777-5.7-8.211-2.9-.259-6.152-.663-8.493-2.172-3.791-2.445-1.83-4.72,1.492-5.56,2.264-.573,4.751-.258,7.14-.343,5.615-.2,7.576-3.805,4.486-8.569-1.233-1.9-3.2-3.334-4.4-5.25-.965-1.536-1.281-3.482-1.886-5.245,2.432-.119,4.964-.7,7.257-.187,1.453.321,2.485,2.335,3.818,3.453,1.3,1.091,2.749,2.008,5.634,4.079" transform="translate(9.762 6.845)" fill="#c3a350"/>
          <path id="Path_7265" data-name="Path 7265" d="M53.7,98.653c-2.885,5.857-.1,9.334,2.962,13.154,1.139,1.419.39,4.352.5,6.6-1.679-.507-3.343-1.066-5.039-1.508-4.512-1.178-7.229-7.813-13.959-3.937a107.233,107.233,0,0,1-.128,10.754c-.128,1.3-1.622,3.292-2.7,3.436-1.107.147-3.145-1.329-3.572-2.524a32.065,32.065,0,0,1-1.4-8.01c-.4-4.678-3.119-6.5-7-4.286a24.626,24.626,0,0,0-5.555,4.189c-4.317,4.5-4.234,4.58-8.27-1.085,1.928-2.468,4.291-4.889,5.884-7.739a9.886,9.886,0,0,0,1.254-6.618c-.336-1.285-3.093-2.325-4.931-2.731-2.29-.507-4.97.319-7.066-.5-1.684-.657-2.748-2.9-4.087-4.442,1.436-1.109,2.725-2.624,4.349-3.212,1.6-.579,3.666.167,5.3-.364,2.372-.769,5.789-1.68,6.462-3.422.753-1.944-.5-5.285-1.914-7.28-1.534-2.159-4.268-3.465-6.416-5.217,3.862-4.872,6.441-5.561,9.775-1.956,1.894,2.047,4.442,3.49,6.717,5.222,4.3-1.642,6.162-4.708,5.511-9.388a3.808,3.808,0,0,1,.9-2.76,36.771,36.771,0,0,1,4.052-3.345c.96,1.648,2.924,3.445,2.7,4.915-.876,5.843,1.48,9.2,6.918,10.883,2.27-1.852,4.378-4.323,7.056-5.5,1.921-.845,4.6.041,6.945.153a38.8,38.8,0,0,1-2.193,6.007c-1.085,1.96-3.445,3.454-3.912,5.463-.8,3.442-.4,7,4.737,6.737,1.193-.06,2.39,0,3.585.016,2.915.043,5.788.107,5.649,4.255-.133,4.019-2.839,4.17-5.844,4.063-2.377-.084-4.759-.017-7.269-.017" transform="translate(0.117 12.245)" fill="#c3a350"/>
        </g>
      </g>
      <g id="Group_7029" data-name="Group 7029" transform="translate(1108.18 -35.25)" opacity="0.41">
        <g id="Group_7027-2" data-name="Group 7027" clip-path="url(#clip-path-3)">
          <path id="Path_7263-2" data-name="Path 7263" d="M56.173,18.134C63.8,22.3,69.14,21.266,74.64,15.506c1.873-1.961,7.168-.653,10.9-.838-.856,3.118-1.356,6.4-2.685,9.3-1.049,2.294-3.59,3.9-4.641,6.193-3.222,7.026-.078,11.481,7.554,12.044,4.717.348,12.329-2.518,12.3,5.686-.03,7.755-7.133,6.51-12.629,6.95a12.846,12.846,0,0,0-7.711,3.249c-3.095,3.21-1.938,6.961.93,10.118,1.869,2.059,4.6,3.834,5.382,6.245.844,2.589-.136,5.771-.32,8.694-2.312-.317-4.614-.764-6.936-.921-7.308-.5-9.5-13.326-19.587-7.357-4.292,6.551,4.23,18.167-9.747,24.24C45.618,90.39,43.975,82.552,42.288,74.5c-8.279-4.057-13,2.5-16.918,7.677-3.629,4.8-7.219,4.565-9.923,1.314-1.42-1.7-.126-6.613,1.256-9.432,1.288-2.63,5.15-4.029,6.346-6.664a14.778,14.778,0,0,0,.748-9.672c-.554-1.8-4.082-3.141-6.515-3.82C12.93,52.7,8.287,52.488,4,51.132,2.342,50.61,1.314,48.1,0,46.5c1.864-1.505,3.53-3.8,5.64-4.331,3.353-.844,7.149.042,10.48-.845,2.941-.783,6.924-2.412,7.858-4.719,1.043-2.57-.264-6.591-1.611-9.485-1.211-2.6-4.229-4.3-5.762-6.82-1.192-1.96-1.325-4.563-1.929-6.88,3.2-.081,6.4-.331,9.58-.127.791.051,1.33,2,2.255,2.34,4.248,1.555,8.627,3.863,12.884,3.718,1.6-.055,3.152-5.957,4.421-9.306.493-1.3-.421-3.337.3-4.3C45.823,3.448,48.025.155,50.218,0c1.846-.127,5.1,3.318,5.695,5.691.962,3.866.26,8.148.26,12.438" transform="translate(0 0.001)" fill="#c3a350"/>
          <path id="Path_7264-2" data-name="Path 7264" d="M86.962,58.925c1.753-5.263,4.4-9.745,4.508-14.29.2-8.171,3.169-11.471,11.727-9.685,3.378,7.6-4.885,21.223,12.373,21.822,4.356-2.92,10.125-6.784,16.172-10.836,4.494,8.142.649,12.955-2.778,18.03-1.484,2.2-3.707,5.808-2.893,7.226a13.639,13.639,0,0,0,7.691,5.642c3.511.953,7.477.225,11.041.225,2.524,11.076,1.777,11.759-8.326,12.392-3.565.223-8.24,1.231-10.238,3.664-3.166,3.852-1.648,8.052,3.41,10.472a5.983,5.983,0,0,1,2.872,4.107,92.685,92.685,0,0,1-.078,10.9c-2.773-1.088-5.79-1.793-8.259-3.362-3.083-1.958-5.624-4.749-8.565-6.958-4.381-3.291-10.91.21-11.29,6.266-.347,5.486-.074,11.013-.074,16.481C93.98,133.25,92.2,127.633,91.8,120.969c-.911-15.2-.84-15.238-13.308-7.334-1.839,1.165-3.288,3.636-5.157,3.919-3.576.541-7.325-.057-11-.182,1.093-3.162,1.641-6.682,3.424-9.391,1.937-2.941,5.854-4.694,7.424-7.732,3.137-6.063-1.233-11.476-8.413-12.116-4.28-.382-9.078-.978-12.532-3.2-5.594-3.608-2.7-6.965,2.2-8.2,3.341-.845,7.011-.38,10.535-.506,8.286-.292,11.179-5.615,6.62-12.645-1.82-2.807-4.722-4.92-6.5-7.746-1.424-2.267-1.891-5.138-2.784-7.739,3.588-.175,7.325-1.026,10.709-.276,2.143.474,3.666,3.445,5.635,5.1,1.921,1.609,4.057,2.962,8.314,6.018" transform="translate(37.794 26.499)" fill="#c3a350"/>
          <path id="Path_7265-2" data-name="Path 7265" d="M78.958,116.237c-4.257,8.643-.15,13.774,4.37,19.41,1.68,2.094.575,6.422.741,9.732-2.478-.748-4.933-1.572-7.435-2.225-6.659-1.738-10.668-11.529-20.6-5.81,0,4.862.348,10.41-.189,15.869-.189,1.915-2.393,4.858-3.981,5.07-1.634.218-4.641-1.961-5.27-3.725a47.315,47.315,0,0,1-2.071-11.819c-.585-6.9-4.6-9.6-10.334-6.324a36.338,36.338,0,0,0-8.2,6.181c-6.37,6.639-6.248,6.758-12.2-1.6,2.846-3.641,6.331-7.214,8.682-11.42,1.578-2.823,2.617-6.827,1.85-9.766-.5-1.9-4.565-3.431-7.276-4.031-3.38-.748-7.334.47-10.427-.736-2.485-.969-4.055-4.282-6.031-6.554,2.119-1.636,4.022-3.871,6.418-4.74,2.363-.854,5.41.246,7.824-.538,3.5-1.135,8.542-2.48,9.536-5.049,1.111-2.869-.732-7.8-2.824-10.742-2.264-3.185-6.3-5.113-9.467-7.7,5.7-7.189,9.5-8.206,14.424-2.886,2.794,3.021,6.554,5.15,9.911,7.706C42.752,82.12,45.5,77.6,44.542,70.69a5.62,5.62,0,0,1,1.323-4.073,54.261,54.261,0,0,1,5.979-4.936c1.417,2.432,4.315,5.083,3.99,7.253-1.293,8.622,2.184,13.572,10.208,16.059,3.35-2.732,6.461-6.379,10.411-8.119,2.835-1.247,6.793.06,10.249.226-1.045,2.973-1.731,6.146-3.236,8.864-1.6,2.892-5.083,5.1-5.773,8.061-1.18,5.079-.589,10.323,6.989,9.941,1.76-.088,3.526,0,5.29.023,4.3.064,8.54.157,8.335,6.278-.2,5.93-4.19,6.153-8.623,6-3.507-.124-7.023-.025-10.726-.025" transform="translate(0.452 47.405)" fill="#c3a350"/>
        </g>
      </g>
      <path id="Path_7266" data-name="Path 7266" d="M21.554,6.959c2.928,1.6,4.976,1.2,7.086-1.008.719-.753,2.75-.25,4.182-.322A23.386,23.386,0,0,1,31.792,9.2c-.4.88-1.378,1.5-1.781,2.376-1.236,2.7-.03,4.406,2.9,4.621,1.81.134,4.731-.966,4.718,2.182-.012,2.976-2.737,2.5-4.846,2.667a4.929,4.929,0,0,0-2.959,1.247c-1.188,1.232-.744,2.671.357,3.882.717.79,1.764,1.471,2.065,2.4.324.993-.052,2.214-.123,3.336-.887-.121-1.77-.293-2.661-.354-2.8-.191-3.644-5.113-7.516-2.823-1.647,2.514,1.623,6.971-3.74,9.3l-1.979-9.441c-3.177-1.557-4.989.96-6.492,2.946-1.392,1.842-2.77,1.751-3.808.5-.545-.654-.048-2.537.482-3.619.494-1.009,1.976-1.546,2.435-2.557a5.671,5.671,0,0,0,.287-3.711c-.212-.691-1.566-1.205-2.5-1.466-1.669-.465-3.451-.545-5.1-1.065C.9,19.42.5,18.457,0,17.842c.715-.577,1.354-1.458,2.164-1.662,1.287-.324,2.743.016,4.021-.324,1.129-.3,2.657-.926,3.015-1.811.4-.986-.1-2.529-.618-3.639-.465-1-1.623-1.651-2.211-2.617a9.91,9.91,0,0,1-.74-2.64c1.226-.031,2.457-.127,3.676-.049.3.02.51.768.865.9,1.63.6,3.31,1.482,4.944,1.426.615-.021,1.209-2.286,1.7-3.571.189-.5-.162-1.281.113-1.65.657-.88,1.5-2.144,2.343-2.2.708-.049,1.958,1.273,2.185,2.184a20.451,20.451,0,0,1,.1,4.773" transform="translate(220.943 118.408)" fill="#c3a350" opacity="0.41"/>
      <path id="Path_7267" data-name="Path 7267" d="M21.554,6.959c2.928,1.6,4.976,1.2,7.086-1.008.719-.753,2.75-.25,4.182-.322A23.386,23.386,0,0,1,31.792,9.2c-.4.88-1.378,1.5-1.781,2.376-1.236,2.7-.03,4.406,2.9,4.621,1.81.134,4.731-.966,4.718,2.182-.012,2.976-2.737,2.5-4.846,2.667a4.929,4.929,0,0,0-2.959,1.247c-1.188,1.232-.744,2.671.357,3.882.717.79,1.764,1.471,2.065,2.4.324.993-.052,2.214-.123,3.336-.887-.121-1.77-.293-2.661-.354-2.8-.191-3.644-5.113-7.516-2.823-1.647,2.514,1.623,6.971-3.74,9.3l-1.979-9.441c-3.177-1.557-4.989.96-6.492,2.946-1.392,1.842-2.77,1.751-3.808.5-.545-.654-.048-2.537.482-3.619.494-1.009,1.976-1.546,2.435-2.557a5.671,5.671,0,0,0,.287-3.711c-.212-.691-1.566-1.205-2.5-1.466-1.669-.465-3.451-.545-5.1-1.065C.9,19.42.5,18.457,0,17.842c.715-.577,1.354-1.458,2.164-1.662,1.287-.324,2.743.016,4.021-.324,1.129-.3,2.657-.926,3.015-1.811.4-.986-.1-2.529-.618-3.639-.465-1-1.623-1.651-2.211-2.617a9.91,9.91,0,0,1-.74-2.64c1.226-.031,2.457-.127,3.676-.049.3.02.51.768.865.9,1.63.6,3.31,1.482,4.944,1.426.615-.021,1.209-2.286,1.7-3.571.189-.5-.162-1.281.113-1.65.657-.88,1.5-2.144,2.343-2.2.708-.049,1.958,1.273,2.185,2.184a20.451,20.451,0,0,1,.1,4.773" transform="translate(1093.377 480.643)" fill="#c3a350" opacity="0.41"/>
      <path id="Path_7276" data-name="Path 7276" d="M10.637,3.435a2.526,2.526,0,0,0,3.5-.5c.355-.371,1.357-.124,2.064-.159A11.542,11.542,0,0,1,15.69,4.54c-.2.434-.68.739-.879,1.173-.61,1.331-.015,2.174,1.43,2.281.893.066,2.335-.477,2.329,1.077-.006,1.469-1.351,1.233-2.392,1.316a2.433,2.433,0,0,0-1.46.615c-.586.608-.367,1.318.176,1.916.354.39.87.726,1.019,1.183a4.741,4.741,0,0,1-.061,1.646c-.438-.06-.874-.145-1.314-.174-1.384-.094-1.8-2.524-3.709-1.393-.813,1.24.8,3.44-1.846,4.59l-.977-4.66c-1.568-.768-2.462.474-3.2,1.454-.687.909-1.367.864-1.879.249-.269-.323-.024-1.252.238-1.786.244-.5.975-.763,1.2-1.262a2.8,2.8,0,0,0,.142-1.832c-.1-.341-.773-.595-1.234-.723-.824-.229-1.7-.269-2.515-.526C.443,9.585.249,9.11,0,8.806c.353-.285.668-.719,1.068-.82.635-.16,1.354.008,1.985-.16.557-.148,1.311-.457,1.488-.894a2.611,2.611,0,0,0-.305-1.8c-.229-.492-.8-.815-1.091-1.291a4.891,4.891,0,0,1-.365-1.3c.605-.015,1.212-.063,1.814-.024.15.01.252.379.427.443a6.994,6.994,0,0,0,2.44.7c.3-.01.6-1.128.837-1.762.093-.246-.08-.632.056-.814C8.677.654,9.094.03,9.51,0c.35-.024.967.628,1.078,1.078a10.093,10.093,0,0,1,.049,2.355" transform="translate(628.377 203.903)" fill="#a79d96" opacity="0.41"/>
      <path id="Path_7277" data-name="Path 7277" d="M10.637,3.435a2.526,2.526,0,0,0,3.5-.5c.355-.371,1.357-.124,2.064-.159A11.542,11.542,0,0,1,15.69,4.54c-.2.434-.68.739-.879,1.173-.61,1.331-.015,2.174,1.43,2.281.893.066,2.335-.477,2.329,1.077-.006,1.469-1.351,1.233-2.392,1.316a2.433,2.433,0,0,0-1.46.615c-.586.608-.367,1.318.176,1.916.354.39.87.726,1.019,1.183a4.741,4.741,0,0,1-.061,1.646c-.438-.06-.874-.145-1.314-.174-1.384-.094-1.8-2.524-3.709-1.393-.813,1.24.8,3.44-1.846,4.59l-.977-4.66c-1.568-.768-2.462.474-3.2,1.454-.687.909-1.367.864-1.879.249-.269-.323-.024-1.252.238-1.786.244-.5.975-.763,1.2-1.262a2.8,2.8,0,0,0,.142-1.832c-.1-.341-.773-.595-1.234-.723-.824-.229-1.7-.269-2.515-.526C.443,9.585.249,9.11,0,8.806c.353-.285.668-.719,1.068-.82.635-.16,1.354.008,1.985-.16.557-.148,1.311-.457,1.488-.894a2.611,2.611,0,0,0-.305-1.8c-.229-.492-.8-.815-1.091-1.291a4.891,4.891,0,0,1-.365-1.3c.605-.015,1.212-.063,1.814-.024.15.01.252.379.427.443a6.994,6.994,0,0,0,2.44.7c.3-.01.6-1.128.837-1.762.093-.246-.08-.632.056-.814C8.677.654,9.094.03,9.51,0c.35-.024.967.628,1.078,1.078a10.093,10.093,0,0,1,.049,2.355" transform="translate(1048.377 128.038)" fill="#a79d96" opacity="0.41"/>
      <path id="Path_7278" data-name="Path 7278" d="M10.637,3.435a2.526,2.526,0,0,0,3.5-.5c.355-.371,1.357-.124,2.064-.159A11.542,11.542,0,0,1,15.69,4.54c-.2.434-.68.739-.879,1.173-.61,1.331-.015,2.174,1.43,2.281.893.066,2.335-.477,2.329,1.077-.006,1.469-1.351,1.233-2.392,1.316a2.433,2.433,0,0,0-1.46.615c-.586.608-.367,1.318.176,1.916.354.39.87.726,1.019,1.183a4.741,4.741,0,0,1-.061,1.646c-.438-.06-.874-.145-1.314-.174-1.384-.094-1.8-2.524-3.709-1.393-.813,1.24.8,3.44-1.846,4.59l-.977-4.66c-1.568-.768-2.462.474-3.2,1.454-.687.909-1.367.864-1.879.249-.269-.323-.024-1.252.238-1.786.244-.5.975-.763,1.2-1.262a2.8,2.8,0,0,0,.142-1.832c-.1-.341-.773-.595-1.234-.723-.824-.229-1.7-.269-2.515-.526C.443,9.585.249,9.11,0,8.806c.353-.285.668-.719,1.068-.82.635-.16,1.354.008,1.985-.16.557-.148,1.311-.457,1.488-.894a2.611,2.611,0,0,0-.305-1.8c-.229-.492-.8-.815-1.091-1.291a4.891,4.891,0,0,1-.365-1.3c.605-.015,1.212-.063,1.814-.024.15.01.252.379.427.443a6.994,6.994,0,0,0,2.44.7c.3-.01.6-1.128.837-1.762.093-.246-.08-.632.056-.814C8.677.654,9.094.03,9.51,0c.35-.024.967.628,1.078,1.078a10.093,10.093,0,0,1,.049,2.355" transform="translate(249.287 404.476)" fill="#a79d96" opacity="0.41"/>
      <path id="Path_7279" data-name="Path 7279" d="M10.637,3.435a2.526,2.526,0,0,0,3.5-.5c.355-.371,1.357-.124,2.064-.159A11.542,11.542,0,0,1,15.69,4.54c-.2.434-.68.739-.879,1.173-.61,1.331-.015,2.174,1.43,2.281.893.066,2.335-.477,2.329,1.077-.006,1.469-1.351,1.233-2.392,1.316a2.433,2.433,0,0,0-1.46.615c-.586.608-.367,1.318.176,1.916.354.39.87.726,1.019,1.183a4.741,4.741,0,0,1-.061,1.646c-.438-.06-.874-.145-1.314-.174-1.384-.094-1.8-2.524-3.709-1.393-.813,1.24.8,3.44-1.846,4.59l-.977-4.66c-1.568-.768-2.462.474-3.2,1.454-.687.909-1.367.864-1.879.249-.269-.323-.024-1.252.238-1.786.244-.5.975-.763,1.2-1.262a2.8,2.8,0,0,0,.142-1.832c-.1-.341-.773-.595-1.234-.723-.824-.229-1.7-.269-2.515-.526C.443,9.585.249,9.11,0,8.806c.353-.285.668-.719,1.068-.82.635-.16,1.354.008,1.985-.16.557-.148,1.311-.457,1.488-.894a2.611,2.611,0,0,0-.305-1.8c-.229-.492-.8-.815-1.091-1.291a4.891,4.891,0,0,1-.365-1.3c.605-.015,1.212-.063,1.814-.024.15.01.252.379.427.443a6.994,6.994,0,0,0,2.44.7c.3-.01.6-1.128.837-1.762.093-.246-.08-.632.056-.814C8.677.654,9.094.03,9.51,0c.35-.024.967.628,1.078,1.078a10.093,10.093,0,0,1,.049,2.355" transform="translate(97.287 34.999)" fill="#a79d96" opacity="0.41"/>
      <path id="Path_7280" data-name="Path 7280" d="M10.637,3.435a2.526,2.526,0,0,0,3.5-.5c.355-.371,1.357-.124,2.064-.159A11.542,11.542,0,0,1,15.69,4.54c-.2.434-.68.739-.879,1.173-.61,1.331-.015,2.174,1.43,2.281.893.066,2.335-.477,2.329,1.077-.006,1.469-1.351,1.233-2.392,1.316a2.433,2.433,0,0,0-1.46.615c-.586.608-.367,1.318.176,1.916.354.39.87.726,1.019,1.183a4.741,4.741,0,0,1-.061,1.646c-.438-.06-.874-.145-1.314-.174-1.384-.094-1.8-2.524-3.709-1.393-.813,1.24.8,3.44-1.846,4.59l-.977-4.66c-1.568-.768-2.462.474-3.2,1.454-.687.909-1.367.864-1.879.249-.269-.323-.024-1.252.238-1.786.244-.5.975-.763,1.2-1.262a2.8,2.8,0,0,0,.142-1.832c-.1-.341-.773-.595-1.234-.723-.824-.229-1.7-.269-2.515-.526C.443,9.585.249,9.11,0,8.806c.353-.285.668-.719,1.068-.82.635-.16,1.354.008,1.985-.16.557-.148,1.311-.457,1.488-.894a2.611,2.611,0,0,0-.305-1.8c-.229-.492-.8-.815-1.091-1.291a4.891,4.891,0,0,1-.365-1.3c.605-.015,1.212-.063,1.814-.024.15.01.252.379.427.443a6.994,6.994,0,0,0,2.44.7c.3-.01.6-1.128.837-1.762.093-.246-.08-.632.056-.814C8.677.654,9.094.03,9.51,0c.35-.024.967.628,1.078,1.078a10.093,10.093,0,0,1,.049,2.355" transform="translate(990.287 440.999)" fill="#a79d96" opacity="0.41"/>
      <path id="Path_7283" data-name="Path 7283" d="M9.173,2.962a2.178,2.178,0,0,0,3.016-.429c.306-.32,1.171-.107,1.78-.137a9.953,9.953,0,0,1-.438,1.519c-.171.375-.586.637-.758,1.011-.526,1.147-.013,1.875,1.233,1.967.77.057,2.013-.411,2.008.928,0,1.266-1.165,1.063-2.062,1.135a2.1,2.1,0,0,0-1.259.531c-.505.524-.317,1.137.152,1.652.305.336.751.626.879,1.02a4.088,4.088,0,0,1-.052,1.42c-.377-.052-.753-.125-1.133-.15-1.193-.081-1.551-2.176-3.2-1.2-.7,1.07.691,2.967-1.592,3.958l-.842-4.018c-1.352-.663-2.123.409-2.763,1.254-.593.784-1.179.745-1.62.215-.232-.278-.021-1.08.205-1.54.21-.429.841-.658,1.036-1.088a2.413,2.413,0,0,0,.122-1.579c-.09-.294-.667-.513-1.064-.624-.71-.2-1.469-.232-2.169-.453-.27-.085-.438-.5-.653-.757.3-.246.576-.62.921-.707.548-.138,1.167.007,1.711-.138.48-.128,1.131-.394,1.283-.771a2.252,2.252,0,0,0-.263-1.549c-.2-.425-.691-.7-.941-1.114A4.218,4.218,0,0,1,2.4,2.192c.522-.013,1.045-.054,1.564-.021.129.008.217.327.368.382a6.031,6.031,0,0,0,2.1.607c.262-.009.515-.973.722-1.52.081-.212-.069-.545.048-.7.28-.375.639-.912,1-.937.3-.021.833.542.93.929a8.7,8.7,0,0,1,.042,2.031" transform="translate(640 429.228)" fill="#eb9100" opacity="0.41"/>
      <path id="Path_7286" data-name="Path 7286" d="M11.37,3.672a2.7,2.7,0,0,0,3.738-.532c.379-.4,1.451-.132,2.206-.17a12.337,12.337,0,0,1-.543,1.883c-.212.464-.727.79-.939,1.254-.652,1.422-.016,2.324,1.529,2.438.955.071,2.5-.51,2.489,1.151-.006,1.57-1.444,1.318-2.556,1.407a2.6,2.6,0,0,0-1.561.658c-.626.65-.392,1.409.188,2.048.378.417.93.776,1.089,1.264a5.067,5.067,0,0,1-.065,1.76c-.468-.064-.934-.155-1.4-.187-1.479-.1-1.922-2.7-3.965-1.489-.869,1.326.856,3.677-1.973,4.907L8.56,15.082c-1.676-.821-2.632.507-3.425,1.554-.735.972-1.461.924-2.009.266-.287-.345-.025-1.339.254-1.909.261-.532,1.042-.816,1.284-1.349a2.991,2.991,0,0,0,.151-1.958c-.112-.365-.826-.636-1.319-.773-.881-.245-1.82-.287-2.689-.562C.474,10.245.266,9.737,0,9.413c.377-.3.715-.769,1.142-.877.679-.171,1.447.009,2.121-.171.6-.159,1.4-.488,1.591-.955a2.791,2.791,0,0,0-.326-1.92c-.245-.526-.856-.871-1.166-1.38a5.228,5.228,0,0,1-.391-1.393c.647-.016,1.3-.067,1.939-.026.16.01.269.4.456.474a7.476,7.476,0,0,0,2.608.752c.324-.011.638-1.206.895-1.884.1-.263-.085-.676.06-.87C9.275.7,9.721.032,10.165,0c.374-.026,1.033.672,1.153,1.152a10.788,10.788,0,0,1,.053,2.518" transform="translate(1176 189.728)" fill="#eb9100" opacity="0.41"/>
      <path id="Path_7287" data-name="Path 7287" d="M11.37,3.672a2.7,2.7,0,0,0,3.738-.532c.379-.4,1.451-.132,2.206-.17a12.337,12.337,0,0,1-.543,1.883c-.212.464-.727.79-.939,1.254-.652,1.422-.016,2.324,1.529,2.438.955.071,2.5-.51,2.489,1.151-.006,1.57-1.444,1.318-2.556,1.407a2.6,2.6,0,0,0-1.561.658c-.626.65-.392,1.409.188,2.048.378.417.93.776,1.089,1.264a5.067,5.067,0,0,1-.065,1.76c-.468-.064-.934-.155-1.4-.187-1.479-.1-1.922-2.7-3.965-1.489-.869,1.326.856,3.677-1.973,4.907L8.56,15.082c-1.676-.821-2.632.507-3.425,1.554-.735.972-1.461.924-2.009.266-.287-.345-.025-1.339.254-1.909.261-.532,1.042-.816,1.284-1.349a2.991,2.991,0,0,0,.151-1.958c-.112-.365-.826-.636-1.319-.773-.881-.245-1.82-.287-2.689-.562C.474,10.245.266,9.737,0,9.413c.377-.3.715-.769,1.142-.877.679-.171,1.447.009,2.121-.171.6-.159,1.4-.488,1.591-.955a2.791,2.791,0,0,0-.326-1.92c-.245-.526-.856-.871-1.166-1.38a5.228,5.228,0,0,1-.391-1.393c.647-.016,1.3-.067,1.939-.026.16.01.269.4.456.474a7.476,7.476,0,0,0,2.608.752c.324-.011.638-1.206.895-1.884.1-.263-.085-.676.06-.87C9.275.7,9.721.032,10.165,0c.374-.026,1.033.672,1.153,1.152a10.788,10.788,0,0,1,.053,2.518" transform="translate(180.527 160.422)" fill="#eb9100" opacity="0.41"/>
      <path id="Path_7285" data-name="Path 7285" d="M14.112,4.557c1.917,1.048,3.258.787,4.64-.66.471-.493,1.8-.164,2.738-.211a15.312,15.312,0,0,1-.674,2.337c-.263.576-.9.98-1.166,1.556-.81,1.765-.02,2.884,1.9,3.026,1.185.088,3.1-.633,3.089,1.428-.008,1.948-1.792,1.636-3.173,1.746a3.227,3.227,0,0,0-1.937.816c-.778.806-.487,1.749.234,2.542.47.517,1.155.963,1.352,1.569a6.289,6.289,0,0,1-.08,2.184c-.581-.08-1.159-.192-1.743-.231-1.836-.125-2.386-3.348-4.921-1.848-1.078,1.646,1.063,4.564-2.449,6.09l-1.3-6.182c-2.08-1.019-3.267.629-4.25,1.929-.912,1.206-1.814,1.147-2.493.33-.357-.428-.032-1.661.315-2.37C4.52,17.947,5.49,17.6,5.79,16.934a3.713,3.713,0,0,0,.188-2.43c-.139-.453-1.025-.789-1.637-.96-1.093-.3-2.259-.357-3.337-.7-.416-.131-.674-.762-1-1.165.468-.378.887-.954,1.417-1.088.842-.212,1.8.011,2.633-.212.739-.2,1.739-.606,1.974-1.185a3.464,3.464,0,0,0-.4-2.383C5.315,6.16,4.557,5.732,4.172,5.1a6.489,6.489,0,0,1-.485-1.728c.8-.02,1.608-.083,2.407-.032.2.013.334.5.567.588A9.279,9.279,0,0,0,9.9,4.861c.4-.014.792-1.5,1.111-2.338.124-.326-.106-.838.074-1.08.43-.576.983-1.4,1.534-1.441.464-.032,1.282.834,1.431,1.43a13.39,13.39,0,0,1,.065,3.125" transform="translate(806 564.758)" fill="#eb9100" opacity="0.41"/>
      <path id="Path_7284" data-name="Path 7284" d="M6.671,2.155a1.584,1.584,0,0,0,2.193-.312c.222-.233.851-.078,1.294-.1a7.238,7.238,0,0,1-.319,1.1c-.125.272-.426.463-.551.736-.383.834-.009,1.364.9,1.43.56.041,1.464-.3,1.46.675,0,.921-.847.773-1.5.825a1.526,1.526,0,0,0-.916.386c-.368.381-.23.827.11,1.2.222.244.546.455.639.742a2.973,2.973,0,0,1-.038,1.033c-.275-.038-.548-.091-.824-.109-.868-.059-1.128-1.583-2.326-.874-.51.778.5,2.158-1.158,2.879L5.022,8.849c-.983-.482-1.544.3-2.009.912-.431.57-.857.542-1.179.156-.169-.2-.015-.785.149-1.12.153-.312.612-.478.754-.791a1.755,1.755,0,0,0,.089-1.149c-.066-.214-.485-.373-.774-.454C1.536,6.259.984,6.235.475,6.073c-.2-.062-.319-.36-.475-.551.221-.179.419-.451.67-.514.4-.1.849.005,1.245-.1.349-.093.822-.286.933-.56a1.638,1.638,0,0,0-.191-1.126c-.144-.309-.5-.511-.684-.81a3.067,3.067,0,0,1-.229-.817c.38-.01.76-.039,1.138-.015.094.006.158.238.268.278a4.386,4.386,0,0,0,1.53.442c.19-.007.374-.707.525-1.105.059-.154-.05-.4.035-.511C5.442.41,5.7.019,5.964,0c.219-.015.606.394.676.676a6.33,6.33,0,0,1,.031,1.477" transform="translate(141.418 468.872)" fill="#eb9100" opacity="0.41"/>
      <path id="Path_7281" data-name="Path 7281" d="M10.637,3.435a2.526,2.526,0,0,0,3.5-.5c.355-.371,1.357-.124,2.064-.159A11.542,11.542,0,0,1,15.69,4.54c-.2.434-.68.739-.879,1.173-.61,1.331-.015,2.174,1.43,2.281.893.066,2.335-.477,2.329,1.077-.006,1.469-1.351,1.233-2.392,1.316a2.433,2.433,0,0,0-1.46.615c-.586.608-.367,1.318.176,1.916.354.39.87.726,1.019,1.183a4.741,4.741,0,0,1-.061,1.646c-.438-.06-.874-.145-1.314-.174-1.384-.094-1.8-2.524-3.709-1.393-.813,1.24.8,3.44-1.846,4.59l-.977-4.66c-1.568-.768-2.462.474-3.2,1.454-.687.909-1.367.864-1.879.249-.269-.323-.024-1.252.238-1.786.244-.5.975-.763,1.2-1.262a2.8,2.8,0,0,0,.142-1.832c-.1-.341-.773-.595-1.234-.723-.824-.229-1.7-.269-2.515-.526C.443,9.585.249,9.11,0,8.806c.353-.285.668-.719,1.068-.82.635-.16,1.354.008,1.985-.16.557-.148,1.311-.457,1.488-.894a2.611,2.611,0,0,0-.305-1.8c-.229-.492-.8-.815-1.091-1.291a4.891,4.891,0,0,1-.365-1.3c.605-.015,1.212-.063,1.814-.024.15.01.252.379.427.443a6.994,6.994,0,0,0,2.44.7c.3-.01.6-1.128.837-1.762.093-.246-.08-.632.056-.814C8.677.654,9.094.03,9.51,0c.35-.024.967.628,1.078,1.078a10.093,10.093,0,0,1,.049,2.355" transform="translate(952.287 679.6)" fill="#a79d96" opacity="0.41"/>
      <path id="Path_7282" data-name="Path 7282" d="M10.637,3.435a2.526,2.526,0,0,0,3.5-.5c.355-.371,1.357-.124,2.064-.159A11.542,11.542,0,0,1,15.69,4.54c-.2.434-.68.739-.879,1.173-.61,1.331-.015,2.174,1.43,2.281.893.066,2.335-.477,2.329,1.077-.006,1.469-1.351,1.233-2.392,1.316a2.433,2.433,0,0,0-1.46.615c-.586.608-.367,1.318.176,1.916.354.39.87.726,1.019,1.183a4.741,4.741,0,0,1-.061,1.646c-.438-.06-.874-.145-1.314-.174-1.384-.094-1.8-2.524-3.709-1.393-.813,1.24.8,3.44-1.846,4.59l-.977-4.66c-1.568-.768-2.462.474-3.2,1.454-.687.909-1.367.864-1.879.249-.269-.323-.024-1.252.238-1.786.244-.5.975-.763,1.2-1.262a2.8,2.8,0,0,0,.142-1.832c-.1-.341-.773-.595-1.234-.723-.824-.229-1.7-.269-2.515-.526C.443,9.585.249,9.11,0,8.806c.353-.285.668-.719,1.068-.82.635-.16,1.354.008,1.985-.16.557-.148,1.311-.457,1.488-.894a2.611,2.611,0,0,0-.305-1.8c-.229-.492-.8-.815-1.091-1.291a4.891,4.891,0,0,1-.365-1.3c.605-.015,1.212-.063,1.814-.024.15.01.252.379.427.443a6.994,6.994,0,0,0,2.44.7c.3-.01.6-1.128.837-1.762.093-.246-.08-.632.056-.814C8.677.654,9.094.03,9.51,0c.35-.024.967.628,1.078,1.078a10.093,10.093,0,0,1,.049,2.355" transform="translate(709.309 629.004)" fill="#a79d96" opacity="0.41"/>
      <path id="Path_7268" data-name="Path 7268" d="M21.554,6.959c2.928,1.6,4.976,1.2,7.086-1.008.719-.753,2.75-.25,4.182-.322A23.386,23.386,0,0,1,31.792,9.2c-.4.88-1.378,1.5-1.781,2.376-1.236,2.7-.03,4.406,2.9,4.621,1.81.134,4.731-.966,4.718,2.182-.012,2.976-2.737,2.5-4.846,2.667a4.929,4.929,0,0,0-2.959,1.247c-1.188,1.232-.744,2.671.357,3.882.717.79,1.764,1.471,2.065,2.4.324.993-.052,2.214-.123,3.336-.887-.121-1.77-.293-2.661-.354-2.8-.191-3.644-5.113-7.516-2.823-1.647,2.514,1.623,6.971-3.74,9.3l-1.979-9.441c-3.177-1.557-4.989.96-6.492,2.946-1.392,1.842-2.77,1.751-3.808.5-.545-.654-.048-2.537.482-3.619.494-1.009,1.976-1.546,2.435-2.557a5.671,5.671,0,0,0,.287-3.711c-.212-.691-1.566-1.205-2.5-1.466-1.669-.465-3.451-.545-5.1-1.065C.9,19.42.5,18.457,0,17.842c.715-.577,1.354-1.458,2.164-1.662,1.287-.324,2.743.016,4.021-.324,1.129-.3,2.657-.926,3.015-1.811.4-.986-.1-2.529-.618-3.639-.465-1-1.623-1.651-2.211-2.617a9.91,9.91,0,0,1-.74-2.64c1.226-.031,2.457-.127,3.676-.049.3.02.51.768.865.9,1.63.6,3.31,1.482,4.944,1.426.615-.021,1.209-2.286,1.7-3.571.189-.5-.162-1.281.113-1.65.657-.88,1.5-2.144,2.343-2.2.708-.049,1.958,1.273,2.185,2.184a20.451,20.451,0,0,1,.1,4.773" transform="translate(431 570.643)" fill="#c3a350" opacity="0.41"/>
      <g id="Group_7032" data-name="Group 7032" transform="translate(153.064 357.008)" opacity="0.41">
        <g id="Group_7031" data-name="Group 7031" transform="translate(0 0)" clip-path="url(#clip-path-4)">
          <path id="Path_7269" data-name="Path 7269" d="M75.04,51.216c.012.413.594,1.167.868,1.143a4.9,4.9,0,0,0,1.639-.818l-1.6-2.134c-.458.85-.924,1.336-.911,1.809" transform="translate(-46.988 -30.938)" fill="#685c53"/>
          <path id="Path_7270" data-name="Path 7270" d="M40.965,63.882c.138.673.861,1.227,1.322,1.834.647-.532,1.714-.989,1.824-1.615.113-.643-.709-1.449-1.122-2.185-1.705.175-2.229.964-2.024,1.966" transform="translate(-25.625 -38.77)" fill="#685c53"/>
          <path id="Path_7271" data-name="Path 7271" d="M82.924,32.818a5.649,5.649,0,0,0-1.7.987q-.043.386-.087.773l1.884,1.446a6.533,6.533,0,0,0,1.318-1.835c.277-1.012-.516-1.525-1.418-1.372" transform="translate(-50.807 -20.533)" fill="#685c53"/>
          <path id="Path_7272" data-name="Path 7272" d="M56.382,43.766c-1.116-.057-3.2,1.685-3.262,2.725-.077,1.324,1.322,2.429,3.09,2.44a2.553,2.553,0,0,0,2.665-2.353c-.015-1.045-1.538-2.764-2.493-2.812" transform="translate(-33.261 -27.404)" fill="#685c53"/>
          <path id="Path_7273" data-name="Path 7273" d="M95.927,43.462a11.284,11.284,0,0,0-2.233-.547l-.476.738a7.18,7.18,0,0,0,1.233,1.569,1.3,1.3,0,0,0,1.252-.29c.265-.389.361-1.409.224-1.47" transform="translate(-58.371 -26.872)" fill="#685c53"/>
          <path id="Path_7274" data-name="Path 7274" d="M53.431,11.008c-1.648.059-3.278.547-4.928.654a3.219,3.219,0,0,1-1.951-.8,10.605,10.605,0,0,1-1.888-2.1,1.412,1.412,0,0,1-.146-1.206,20.315,20.315,0,0,1,1.945-3.443C47.459,2.8,47.6,1.805,45.5.881,44.6,2.474,43.727,4.2,42.676,5.812a2.356,2.356,0,0,1-1.692.907,29.9,29.9,0,0,1-3.921-.449c0-1.391.009-2.8,0-4.217C37.043-.207,37-.238,34.541.263v6c-.292.183-.434.334-.6.367C28.487,7.718,29.524,7.755,28.026,2.8c-.072-.237-.074-.5-.169-.725-.31-.742-.668-1.722-1.648-1.141A2.211,2.211,0,0,0,25.4,2.827c.424,1.9,1.114,3.743,1.8,5.9-1.558.382-3.074.775-4.6,1.106a.937.937,0,0,1-.8-.291c-.907-1.374-1.732-2.8-2.644-4.174a2.746,2.746,0,0,0-1.207-1.113c-.327-.11-1.148.273-1.2.541a2.765,2.765,0,0,0,.36,1.617c.625,1.237,1.434,2.388,1.988,3.652.347.791.726,1.854-.757,2.121a2.2,2.2,0,0,0-.7.252c-2.2,1.271-3.277.964-4.814-1.249a7.871,7.871,0,0,0-1.946-2.1c-.435-.29-1.244-.021-1.884,0,.064.621-.069,1.37.233,1.836a28.778,28.778,0,0,0,2.129,2.441c.545.66,1.009,1.388,1.8,2.49-1.592.551-2.874,1.457-3.945,1.253-1.45-.276-2.74-1.4-4.094-2.168-.156-.089-.273-.346-.412-.35-.726-.02-1.455.017-2.182.034.3.758.386,1.81.942,2.218a50.089,50.089,0,0,0,4.68,2.8,23.021,23.021,0,0,1-1.933,3.89c-.333.444-1.444.46-2.184.411-.987-.066-1.973-.213-3.017-.372L0,24.758l.732,1.23L5.8,26.3a7.7,7.7,0,0,1,.46,1.327c.372,2.269.734,2.519-1.756,3.691-2.566,1.208-3.064,1.471-2.2,4.024a18.584,18.584,0,0,0,3.832-2.056c1.335-1.173,2.384-1.338,3.807-.274a16.757,16.757,0,0,0,2.9,1.37c-.072,1.3-.165,2.834-.238,4.37-.039.806-.194,1.659,1.065,1.736,1.2.074,1.5-.61,1.559-1.6.094-1.547.194-3.093.267-4.245,1.137-.791,1.994-1.468,2.928-2.015.97-.569,2.012-1.013,3.053-1.527a47.2,47.2,0,0,0,1.257,4.968c.23.633,1.082,1.039,1.651,1.548.276-.717.839-1.464.77-2.145-.172-1.693-.669-3.35-.964-5.034-.145-.83-.081-1.528,1.083-1.741a9.537,9.537,0,0,0,2.413-1.143c1.516-.778,2.141-.092,2.415,1.373a8.922,8.922,0,0,0,.787,2.66,4.5,4.5,0,0,0,1.756,1.684c.217.117.918-.667,1.417-1.053-.749-1.905-1.542-3.67-2.087-5.508-.118-.4.534-1.311,1.039-1.552,2.846-1.362,4.51-.7,6.2,2.189A7.01,7.01,0,0,0,40.8,29.247a4.583,4.583,0,0,0,1.643.486c.129-.681.585-1.548.324-2a24.882,24.882,0,0,0-2.454-3.081c-.246-.3-.436-.655-.652-.984a4.794,4.794,0,0,1,.836-.529c1.461-.554,2.935-1.077,4.534-1.657a36.335,36.335,0,0,0,3.46,2.831,2.979,2.979,0,0,0,2.239.243c1.106-.344,1.215-1.2.264-1.929-1.4-1.071-2.863-2.058-4.086-2.929.387-1.715.677-3.2,1.08-4.643a1.34,1.34,0,0,1,.9-.72c1.563-.323,3.161-.487,4.711-.861.5-.12.89-.7,1.33-1.075-.5-.488-1.015-1.4-1.5-1.386m-7.519,5.28c-.144,1.371-2.161,3.282-3.465,3.782-3.955,1.517-8.416,1.5-12.006,4.212-1.25.944-3.093,1.058-4.548,1.785-2.651,1.324-5.435,2.434-7.581,4.639-1.243,1.277-4.882,1.258-6.712.165-1.516-.905-2.49-3.737-2.233-5.882.35-2.914,2.4-4.767,4.406-6.282a51.223,51.223,0,0,1,12.71-6.826A38.153,38.153,0,0,1,37.874,9.126c.873.109,1.988.189,3.079.4a6.447,6.447,0,0,1,4.96,6.767" transform="translate(0 0)" fill="#685c53"/>
          <path id="Path_7275" data-name="Path 7275" d="M105.768,33.855a2.178,2.178,0,0,0-1.61,1.434c-.064.514.854,1.15,1.678,2.14.724-.98,1.552-1.638,1.447-2.068-.153-.626-.985-1.515-1.514-1.506" transform="translate(-65.219 -21.199)" fill="#685c53"/>
        </g>
      </g>
      <g id="Group_7034" data-name="Group 7034" transform="matrix(-0.998, 0.07, -0.07, -0.998, 673.678, 46.978)" opacity="0.41">
        <g id="Group_7031-2" data-name="Group 7031" transform="translate(0 0.001)" clip-path="url(#clip-path-5)">
          <path id="Path_7269-2" data-name="Path 7269" d="M0,2.027C.021,1.294,1.054-.043,1.539,0c1,.091,1.941.922,2.906,1.449L1.615,5.233C.8,3.725-.023,2.865,0,2.027" transform="translate(49.727 33.808)" fill="#685c53"/>
          <path id="Path_7270-2" data-name="Path 7270" d="M.075,3.251C.319,2.058,1.6,1.076,2.419,0,3.566.942,5.457,1.754,5.652,2.864,5.852,4,4.395,5.433,3.663,6.736.64,6.426-.29,5.028.075,3.251" transform="translate(27.118 24.015)" fill="#685c53"/>
          <path id="Path_7271-2" data-name="Path 7271" d="M3.164,5.684C2.092,5.5,1.152,4.544.154,3.934Q.077,3.249,0,2.564L3.341,0C4.15,1.076,5.347,2.046,5.678,3.253c.491,1.795-.915,2.7-2.514,2.431" transform="translate(53.769 44.32)" fill="#685c53"/>
          <path id="Path_7272-2" data-name="Path 7272" d="M5.787,9.157C3.808,9.258.113,6.17.005,4.326-.131,1.978,2.349.02,5.482,0c2.549-.017,4.755,1.932,4.725,4.172-.026,1.853-2.726,4.9-4.42,4.985" transform="translate(35.199 33.62)" fill="#685c53"/>
          <path id="Path_7273-2" data-name="Path 7273" d="M4.8,3.243a20,20,0,0,1-3.959.969L0,2.9A12.727,12.727,0,0,1,2.185.122,2.3,2.3,0,0,1,4.4.637c.47.69.64,2.5.4,2.606" transform="translate(61.774 39.132)" fill="#685c53"/>
          <path id="Path_7274-2" data-name="Path 7274" d="M94.719,52.272c-2.921-.1-5.81-.97-8.736-1.16a5.706,5.706,0,0,0-3.458,1.421,18.8,18.8,0,0,0-3.347,3.716,2.5,2.5,0,0,0-.258,2.137,36.013,36.013,0,0,0,3.449,6.1c1.763,2.336,2.013,4.1-1.711,5.736-1.585-2.824-3.141-5.883-5-8.742a4.177,4.177,0,0,0-3-1.607,53,53,0,0,0-6.952.8c0,2.467.017,4.971,0,7.475-.032,4.006-.115,4.062-4.467,3.173V60.682c-.518-.325-.77-.592-1.063-.65-9.669-1.929-7.83-1.995-10.487,6.794-.127.421-.132.885-.3,1.285-.549,1.316-1.184,3.052-2.922,2.023a3.92,3.92,0,0,1-1.431-3.359c.752-3.37,1.975-6.636,3.183-10.463-2.762-.677-5.449-1.374-8.159-1.96a1.662,1.662,0,0,0-1.414.516c-1.608,2.436-3.069,4.97-4.687,7.4a4.867,4.867,0,0,1-2.14,1.973c-.579.194-2.035-.484-2.127-.959a4.9,4.9,0,0,1,.638-2.866c1.107-2.193,2.541-4.233,3.523-6.474.614-1.4,1.286-3.286-1.343-3.76a3.9,3.9,0,0,1-1.24-.446c-3.9-2.254-5.81-1.71-8.535,2.214a13.953,13.953,0,0,1-3.449,3.716c-.771.515-2.2.037-3.341.006.113-1.1-.123-2.429.413-3.255a51.013,51.013,0,0,1,3.773-4.327c.967-1.17,1.788-2.461,3.185-4.415-2.823-.978-5.1-2.583-6.994-2.222-2.571.488-4.858,2.479-7.257,3.844-.277.157-.483.614-.73.62-1.288.036-2.579-.03-3.868-.06.533-1.343.684-3.209,1.671-3.931a88.789,88.789,0,0,1,8.3-4.96c-1.264-2.676-2.023-5.029-3.426-6.9-.591-.787-2.56-.816-3.871-.728-1.749.117-3.5.378-5.348.66L0,27.895l1.3-2.18,8.977-.555a13.65,13.65,0,0,0,.815-2.352c.659-4.023,1.3-4.465-3.113-6.543-4.549-2.141-5.431-2.608-3.894-7.134,2.333,1.205,4.93,2.008,6.793,3.646,2.366,2.08,4.227,2.371,6.749.486,1.356-1.013,3.107-1.5,5.139-2.428-.127-2.3-.292-5.024-.423-7.747C22.273,1.659,22,.148,24.229.01c2.131-.131,2.657,1.082,2.763,2.828.166,2.742.345,5.484.473,7.525,2.015,1.4,3.535,2.6,5.19,3.573,1.719,1.009,3.567,1.8,5.411,2.707A83.667,83.667,0,0,1,40.3,7.835c.408-1.122,1.918-1.842,2.926-2.745.489,1.271,1.488,2.594,1.365,3.8-.305,3-1.186,5.939-1.71,8.924-.258,1.471-.144,2.709,1.919,3.086,1.5.275,2.867,1.3,4.278,2.026,2.687,1.38,3.795.162,4.281-2.434a15.817,15.817,0,0,1,1.4-4.716,7.976,7.976,0,0,1,3.113-2.986c.384-.207,1.628,1.182,2.512,1.866-1.328,3.377-2.733,6.506-3.7,9.764-.209.7.946,2.323,1.842,2.752,5.046,2.415,7.995,1.245,10.995-3.881a12.427,12.427,0,0,1,2.816-3.358c.728-.588,1.925-.594,2.912-.861.229,1.207,1.037,2.744.574,3.554a44.109,44.109,0,0,1-4.35,5.463c-.437.54-.773,1.161-1.156,1.745a8.5,8.5,0,0,0,1.482.938c2.59.983,5.2,1.909,8.038,2.938A64.41,64.41,0,0,1,85.962,28.7a5.28,5.28,0,0,1,3.969-.431c1.961.609,2.154,2.131.468,3.42-2.482,1.9-5.076,3.649-7.244,5.192.685,3.04,1.2,5.664,1.915,8.231a2.375,2.375,0,0,0,1.593,1.276c2.771.573,5.6.864,8.35,1.526.887.213,1.577,1.247,2.358,1.905-.886.865-1.8,2.487-2.653,2.457M81.389,42.911c-.255-2.43-3.83-5.818-6.142-6.7-7.011-2.689-14.919-2.66-21.283-7.467-2.215-1.673-5.482-1.875-8.062-3.164-4.7-2.347-9.634-4.314-13.439-8.224-2.2-2.263-8.655-2.229-11.9-.292-2.688,1.6-4.414,6.624-3.958,10.427.62,5.166,4.261,8.451,7.81,11.137a90.806,90.806,0,0,0,22.531,12.1A67.634,67.634,0,0,0,67.14,55.608c1.547-.193,3.523-.335,5.458-.7a11.429,11.429,0,0,0,8.792-12" transform="translate(0 -0.002)" fill="#685c53"/>
          <path id="Path_7275-2" data-name="Path 7275" d="M2.86,6.335A3.861,3.861,0,0,1,.006,3.793C-.108,2.883,1.519,1.755,2.98,0,4.263,1.737,5.731,2.9,5.545,3.666,5.274,4.776,3.8,6.351,2.86,6.335" transform="translate(69.021 43.012)" fill="#685c53"/>
        </g>
      </g>
      <g id="Group_7033" data-name="Group 7033" transform="translate(1329.668 685.723) rotate(149)" opacity="0.41">
        <g id="Group_7031-3" data-name="Group 7031" transform="translate(0 0)" clip-path="url(#clip-path-6)">
          <path id="Path_7269-3" data-name="Path 7269" d="M75.04,52.856c.022.789,1.134,2.227,1.656,2.18,1.08-.1,2.088-.992,3.126-1.559l-3.045-4.07c-.873,1.622-1.763,2.548-1.738,3.45" transform="translate(-21.536 -14.18)" fill="#685c53"/>
          <path id="Path_7270-3" data-name="Path 7270" d="M41,65.666c.263,1.284,1.642,2.34,2.522,3.5C44.76,68.15,46.795,67.277,47,66.083c.215-1.226-1.353-2.764-2.14-4.167-3.253.334-4.252,1.838-3.86,3.75" transform="translate(-11.745 -17.77)" fill="#685c53"/>
          <path id="Path_7271-3" data-name="Path 7271" d="M84.543,32.842c-1.153.2-2.164,1.226-3.238,1.883q-.082.737-.165,1.474l3.594,2.759c.871-1.158,2.159-2.2,2.515-3.5.528-1.931-.985-2.909-2.705-2.616" transform="translate(-23.287 -9.411)" fill="#685c53"/>
          <path id="Path_7272-3" data-name="Path 7272" d="M59.344,43.767c-2.129-.108-6.105,3.214-6.221,5.2-.146,2.526,2.522,4.633,5.893,4.654,2.742.018,5.116-2.078,5.084-4.488-.028-1.994-2.933-5.271-4.756-5.364" transform="translate(-15.245 -12.56)" fill="#685c53"/>
          <path id="Path_7273-3" data-name="Path 7273" d="M98.385,43.957a21.523,21.523,0,0,0-4.259-1.042l-.908,1.407a13.7,13.7,0,0,0,2.351,2.992,2.476,2.476,0,0,0,2.388-.554c.506-.742.689-2.688.428-2.8" transform="translate(-26.754 -12.317)" fill="#685c53"/>
          <path id="Path_7274-3" data-name="Path 7274" d="M101.91,20.994c-3.143.112-6.252,1.043-9.4,1.248a6.139,6.139,0,0,1-3.72-1.529,20.228,20.228,0,0,1-3.6-4,2.693,2.693,0,0,1-.278-2.3,38.747,38.747,0,0,1,3.71-6.566c1.9-2.513,2.166-4.408-1.841-6.171-1.705,3.039-3.38,6.33-5.385,9.405a4.494,4.494,0,0,1-3.226,1.729,57.021,57.021,0,0,1-7.479-.856c0-2.654.018-5.348,0-8.043C70.653-.4,70.563-.455,65.88.5V11.945c-.558.349-.829.637-1.144.7-10.4,2.076-8.425,2.146-11.283-7.31-.137-.453-.142-.952-.322-1.383-.59-1.416-1.273-3.284-3.144-2.176a4.218,4.218,0,0,0-1.54,3.614c.809,3.626,2.125,7.139,3.425,11.258-2.972.729-5.863,1.478-8.778,2.109a1.788,1.788,0,0,1-1.522-.555c-1.73-2.621-3.3-5.347-5.043-7.961a5.237,5.237,0,0,0-2.3-2.123c-.623-.209-2.19.52-2.288,1.032a5.274,5.274,0,0,0,.687,3.084c1.191,2.359,2.734,4.554,3.791,6.965.661,1.508,1.384,3.536-1.445,4.046a4.2,4.2,0,0,0-1.334.48c-4.2,2.425-6.251,1.84-9.183-2.382a15.013,15.013,0,0,0-3.711-4c-.83-.554-2.372-.04-3.594-.006.122,1.184-.132,2.614.445,3.5a54.889,54.889,0,0,0,4.06,4.655c1.04,1.259,1.924,2.648,3.427,4.75-3.037,1.052-5.482,2.779-7.525,2.391-2.766-.525-5.227-2.667-7.808-4.135-.3-.169-.52-.66-.786-.667-1.385-.039-2.774.032-4.162.065.573,1.445.736,3.452,1.8,4.23a95.536,95.536,0,0,0,8.926,5.336c-1.36,2.879-2.177,5.41-3.686,7.42-.636.847-2.754.878-4.165.784-1.882-.125-3.764-.406-5.754-.71L0,47.221l1.4,2.345,9.658.6a14.687,14.687,0,0,1,.877,2.53c.709,4.328,1.4,4.8-3.35,7.039-4.895,2.3-5.844,2.806-4.19,7.675,2.51-1.3,5.3-2.16,7.309-3.922,2.546-2.237,4.548-2.551,7.262-.523,1.459,1.089,3.343,1.609,5.529,2.612-.137,2.478-.314,5.405-.455,8.335-.073,1.538-.369,3.164,2.031,3.311,2.293.14,2.859-1.164,2.973-3.042.179-2.95.371-5.9.509-8.1,2.168-1.509,3.8-2.8,5.584-3.844,1.85-1.085,3.838-1.933,5.822-2.913a90.016,90.016,0,0,0,2.4,9.476c.438,1.207,2.063,1.982,3.149,2.953.526-1.368,1.6-2.791,1.468-4.092-.329-3.229-1.276-6.39-1.84-9.6-.277-1.582-.155-2.915,2.065-3.32,1.614-.3,3.085-1.4,4.6-2.18,2.891-1.484,4.083-.175,4.606,2.619a17.018,17.018,0,0,0,1.5,5.074,8.582,8.582,0,0,0,3.349,3.213c.414.223,1.751-1.271,2.7-2.008-1.429-3.633-2.94-7-3.981-10.505-.225-.755,1.018-2.5,1.981-2.961,5.429-2.6,8.6-1.339,11.829,4.175a13.371,13.371,0,0,0,3.03,3.613c.783.632,2.071.64,3.134.927.247-1.3,1.116-2.953.617-3.824-1.229-2.148-3.1-3.925-4.681-5.877-.47-.581-.832-1.249-1.243-1.877a9.145,9.145,0,0,1,1.595-1.01c2.787-1.057,5.6-2.053,8.648-3.161a69.3,69.3,0,0,0,6.6,5.4,5.681,5.681,0,0,0,4.27.463c2.11-.655,2.317-2.292.5-3.68-2.67-2.042-5.462-3.926-7.794-5.586.737-3.271,1.291-6.094,2.061-8.856a2.556,2.556,0,0,1,1.714-1.373c2.982-.617,6.03-.93,8.984-1.641.955-.23,1.7-1.342,2.537-2.05-.953-.931-1.935-2.676-2.854-2.644M87.569,31.066c-.274,2.615-4.121,6.259-6.609,7.213-7.544,2.893-16.052,2.862-22.9,8.034-2.384,1.8-5.9,2.017-8.674,3.4-5.057,2.525-10.366,4.642-14.46,8.848-2.37,2.435-9.312,2.4-12.8.314-2.892-1.726-4.749-7.127-4.259-11.218.667-5.559,4.585-9.092,8.4-11.983A97.7,97.7,0,0,1,50.51,22.658C57.447,20,64.364,17.922,72.238,17.405c1.664.207,3.791.36,5.872.754,5.7,1.079,10.068,7.1,9.459,12.907" transform="translate(0 0)" fill="#685c53"/>
          <path id="Path_7275-3" data-name="Path 7275" d="M107.232,33.855a4.154,4.154,0,0,0-3.072,2.735c-.122.98,1.628,2.193,3.2,4.081,1.38-1.869,2.96-3.124,2.759-3.944-.292-1.194-1.879-2.889-2.888-2.872" transform="translate(-29.892 -9.716)" fill="#685c53"/>
        </g>
      </g>
      <g id="Group_7036" data-name="Group 7036" transform="translate(11.912 79.899)" opacity="0.41">
        <g id="Group_7035" data-name="Group 7035" transform="translate(0 0)" clip-path="url(#clip-path-7)">
          <path id="Path_7288" data-name="Path 7288" d="M15.915,20.39c4.409,1.775,4.846,3.174,4.079,7.688,3.1,1.514,4.208,4.17,3.25,7.8-.54,2.044-2.309,2.886-5.388,2.565-3.429-.358-3.429-.358-3.915-7.774-2.418-.392-3.36-1.96-3.389-4.36-.005-.454-.788-1.182-1.318-1.3a5.142,5.142,0,0,1-4.1-3.99c-.382-2.217-1.814-3.05-3.2-4.2-2.6-2.164-2.572-5.015.035-7.265A2.866,2.866,0,0,0,3.132,6.325C2.5,3.5,3.2.722,7.194.083c3.133-.5,6.129,1.3,6.464,4.4A5.017,5.017,0,0,1,12.213,8.1c-1.35,1.3-1.407,2.641-1.469,4.3-.076,2.046,1.419,2.241,2.547,3.189,1.156.971,1.592,2.8,2.624,4.8M5.52,15.532c1.857.365,2.546-.843,2.5-2.319C7.97,11.84,7.7,10.33,5.663,10.275c-1.9-.052-2.582,1.074-2.619,2.624-.036,1.522.359,2.961,2.477,2.633M8.166,2.161C6.3,3,5.329,4.413,6.092,6.293c.246.607,1.718.973,2.628.97a2.484,2.484,0,0,0,1.935-1.244c.717-2.174-.813-3.123-2.489-3.858m14.12,31.4c-1.587-1.139-2.448-2.234-3.4-2.319-1.234-.11-2.676.318-2.674,2.249,0,1.817,1.147,2.753,2.549,2.626,1.007-.092,1.91-1.325,3.525-2.555m-12.4-11.7c1.9.46,2.459-1.2,2.507-2.285a2.4,2.4,0,0,0-2.33-2.612c-1.974-.118-2.471,1.2-2.509,2.645-.035,1.35.551,2.524,2.332,2.252m5.488.672c-1.164,1.624-2.487,2.686-2.333,3.452.2.982,1.582,1.726,2.455,2.572.82-.923,2.093-1.756,2.3-2.8.141-.7-1.223-1.707-2.425-3.222" transform="translate(0.001 0)" fill="#606060"/>
        </g>
      </g>
      <g id="Group_7040" data-name="Group 7040" transform="translate(390.572 209.79)" opacity="0.41">
        <g id="Group_7039" data-name="Group 7039" transform="translate(0 0)" clip-path="url(#clip-path-8)">
          <path id="Path_7290" data-name="Path 7290" d="M13.092,21.3a6.085,6.085,0,0,1,6.284,5.622,5.763,5.763,0,0,1-4.915,5.441c-2.867.344-4.926-1.877-5.733-6.183-3.248.744-5.126-1.059-6.435-3.768-.166-.345-.518-.883-.4-1.04,1.837-2.428-.414-4.03-1.249-5.813-.78-1.665-.96-3.075.062-4.658S.969,7.8.318,6.307C-.779,3.8,1.118.358,3.759.064,8.9-.508,11.444,2.833,9.7,7.737a7.575,7.575,0,0,0-.141,2.785c.032.71.395,1.419.356,2.114-.119,2.158-.206,4.121,2.121,5.468.7.4.7,2.013,1.056,3.192m-1.1,3.688a21.944,21.944,0,0,0,1.014,4.265c.134.309,1.995.327,2.582-.133.727-.569,1.514-1.953,1.287-2.674-.589-1.874-2.266-2.187-4.883-1.458m-1.617-4.2c-.928-.822-1.962-2.388-2.757-2.275-.978.139-2.159,1.544-2.53,2.645-.574,1.7,1.052,2.083,2.292,2.2,1.368.129,2.568-.292,2.995-2.569M2.646,5.614c.517.457,1.482,1.953,2.34,1.893.923-.063,2.207-1.456,2.5-2.5.43-1.525-.882-2.25-2.348-2.259-1.39-.009-2.589.343-2.494,2.868m5.968,7.362c-1.65-.936-2.6-1.88-3.591-1.931-1.188-.061-2.806.616-2.329,2.22.31,1.043,1.567,2.447,2.459,2.492s1.853-1.407,3.461-2.781" transform="translate(0 0)" fill="#606060"/>
        </g>
      </g>
      <g id="Group_7042" data-name="Group 7042" transform="translate(1057.662 511.647)" opacity="0.41">
        <g id="Group_7039-2" data-name="Group 7039" transform="translate(0 0)" clip-path="url(#clip-path-8)">
          <path id="Path_7290-2" data-name="Path 7290" d="M13.092,21.3a6.085,6.085,0,0,1,6.284,5.622,5.763,5.763,0,0,1-4.915,5.441c-2.867.344-4.926-1.877-5.733-6.183-3.248.744-5.126-1.059-6.435-3.768-.166-.345-.518-.883-.4-1.04,1.837-2.428-.414-4.03-1.249-5.813-.78-1.665-.96-3.075.062-4.658S.969,7.8.318,6.307C-.779,3.8,1.118.358,3.759.064,8.9-.508,11.444,2.833,9.7,7.737a7.575,7.575,0,0,0-.141,2.785c.032.71.395,1.419.356,2.114-.119,2.158-.206,4.121,2.121,5.468.7.4.7,2.013,1.056,3.192m-1.1,3.688a21.944,21.944,0,0,0,1.014,4.265c.134.309,1.995.327,2.582-.133.727-.569,1.514-1.953,1.287-2.674-.589-1.874-2.266-2.187-4.883-1.458m-1.617-4.2c-.928-.822-1.962-2.388-2.757-2.275-.978.139-2.159,1.544-2.53,2.645-.574,1.7,1.052,2.083,2.292,2.2,1.368.129,2.568-.292,2.995-2.569M2.646,5.614c.517.457,1.482,1.953,2.34,1.893.923-.063,2.207-1.456,2.5-2.5.43-1.525-.882-2.25-2.348-2.259-1.39-.009-2.589.343-2.494,2.868m5.968,7.362c-1.65-.936-2.6-1.88-3.591-1.931-1.188-.061-2.806.616-2.329,2.22.31,1.043,1.567,2.447,2.459,2.492s1.853-1.407,3.461-2.781" transform="translate(0 0)" fill="#606060"/>
        </g>
      </g>
    </g>
  </g>
</svg>