<svg xmlns="http://www.w3.org/2000/svg" width="9.735" height="9.735" viewBox="0 0 9.735 9.735">
  <path id="Path_4813" data-name="Path 4813" d="M29.6,35.1a1.158,1.158,0,0,1,1.177,1.177,1.172,1.172,0,0,1-.339.848,1.122,1.122,0,0,1-.838.349H27.087v2.494a1.156,1.156,0,0,1-.329.838,1.182,1.182,0,0,1-2.025-.838V37.473H22.219a1.122,1.122,0,0,1-.838-.349,1.172,1.172,0,0,1-.339-.848A1.158,1.158,0,0,1,22.219,35.1h2.514V32.585a1.177,1.177,0,1,1,2.354,0V35.1Z" transform="translate(-21.042 -31.408)" fill="#fff"/>
</svg>
