<svg id="Group_5551" data-name="Group 5551" xmlns="http://www.w3.org/2000/svg" width="22.719" height="18.345" viewBox="0 0 22.719 18.345">
  <g id="Group_1499" data-name="Group 1499" transform="translate(0 0)">
    <path id="Path_1845" data-name="Path 1845" d="M22.292,50.5,20.23,48.434a1.447,1.447,0,0,0-2.053.007L8.29,58.716,4.548,54.973a1.464,1.464,0,0,0-2.061,0L.425,57.036a1.462,1.462,0,0,0,0,2.061l3.741,3.74L7.257,65.93a1.463,1.463,0,0,0,2.063,0l3.092-3.092L22.3,52.564a1.465,1.465,0,0,0,.418-1.027v-.015A1.462,1.462,0,0,0,22.292,50.5Z" transform="translate(0 -48.011)" fill="#62c0d8"/>
  </g>
</svg>
