<svg xmlns="http://www.w3.org/2000/svg" xmlns:xlink="http://www.w3.org/1999/xlink" width="268.201" height="268.202" viewBox="0 0 268.201 268.202">
  <defs>
    <clipPath id="clip-path">
      <path id="Path_5880" data-name="Path 5880" d="M0,134.1A134.1,134.1,0,1,0,134.1,0,134.1,134.1,0,0,0,0,134.1" fill="none"/>
    </clipPath>
    <clipPath id="clip-path-2">
      <path id="Path_5894" data-name="Path 5894" d="M53.15,69.91,90.27,260.874a134.281,134.281,0,0,0,165.423-70.147l-30-154.355Z" fill="none"/>
    </clipPath>
  </defs>
  <g id="Group_6835" data-name="Group 6835" transform="translate(-250 -184)">
    <g id="Group_514" data-name="Group 514" transform="translate(-2115.266 -7608.629)">
      <circle id="Ellipse_44" data-name="Ellipse 44" cx="134.1" cy="134.1" r="134.1" transform="translate(2365.266 7792.63)" fill="#e0ded9"/>
      <circle id="Ellipse_47-2" data-name="Ellipse 47-2" cx="134.1" cy="134.1" r="134.1" transform="translate(2365.266 7792.63)" fill="#e0ded9"/>
    </g>
    <g id="Group_6332" data-name="Group 6332" transform="translate(250 183.999)">
      <g id="Group_6329" data-name="Group 6329">
        <g id="Group_6328" data-name="Group 6328" clip-path="url(#clip-path)">
          <path id="Path_5877" data-name="Path 5877" d="M132.206,112.973l-11.975,2.855-2.352,16.152-16.272.412,2.354-24.054,17.916-11.891,9.589-.05Z" fill="#9e6452"/>
          <path id="Path_5878" data-name="Path 5878" d="M130.412,94.844l-.085,10.93-8.721-1.474-14.027,10.44-.059,17.292-13.63-2.776-5.521-17.319,29.472-25.9Z" fill="#b7755e"/>
          <path id="Path_5879" data-name="Path 5879" d="M95.162,116.192l9.057-17.539,12.527-6.171,11.277,7.464L125.382,79.8l-23.591.715L82.92,96.457Z" fill="#c98165"/>
        </g>
      </g>
      <g id="Group_6331" data-name="Group 6331">
        <g id="Group_6330" data-name="Group 6330" clip-path="url(#clip-path-2)">
          <path id="Path_5881" data-name="Path 5881" d="M116.658,130.434l13.3-8.951L128.281,104.4l15.056-30.7s35.642,13,38.672,21.284,10.7,50.722,21.155,79.13l65.258,82.068-60.368,40.57-47.641-91.274c-20.119-8.744-35.761-22.226-48.244-39.052Z" fill="#db8f6d"/>
          <path id="Path_5882" data-name="Path 5882" d="M116.658,130.434c-10.264,1.127-15.151-1.6-19.97-7.658-5.989-.938-18.881,7.585-19.833,13.7s34.921,29.334,39.328,32.828c7.361,5.834,14.907-25.151,14.907-25.151s-4.431-14.819-14.433-13.721" fill="#db8f6d"/>
          <path id="Path_5883" data-name="Path 5883" d="M165.406,98.395c-13.03-17.141-38.332-42.1-45.037-41.554-13.714,7.536-45.635,28.9-47.273,27.137-2.975,1.5.523,9.983,9.947,10.461,9.877.5,32.709-9.685,32.709-9.685s12.412,11.11,13.543,25.127Z" fill="#db8f6d"/>
          <path id="Path_5884" data-name="Path 5884" d="M115.752,84.756a30.163,30.163,0,0,0,.6-5.986c-.005-1.552-.183-2.511-.437-2.528-.526-.025-1.1,3.677-2.039,8.156-.075.368-.16.913-.235,1.268,1.155-.428,1.94-.845,2.108-.91" fill="#cc8366"/>
          <path id="Path_5885" data-name="Path 5885" d="M170,105.943c-.13.01-.3-.587-.516-1.663s-.516-2.631-1.049-4.473a19.811,19.811,0,0,0-1.086-2.9,14.882,14.882,0,0,0-1.859-2.95,36.878,36.878,0,0,0-6.122-5.492c-2.372-1.825-4.643-3.6-6.64-5.284s-3.742-3.279-5.16-4.656c-2.834-2.765-4.4-4.646-4.231-4.825.186-.192,2.073,1.359,5.1,3.849,1.518,1.241,3.325,2.715,5.364,4.308s4.31,3.307,6.7,5.145c1.191.923,2.352,1.848,3.433,2.816a21.446,21.446,0,0,1,2.9,3.093,15.138,15.138,0,0,1,1.918,3.378,18.212,18.212,0,0,1,.951,3.2,25.723,25.723,0,0,1,.5,4.713c0,1.114-.072,1.73-.2,1.74" fill="#cc8366"/>
          <rect id="Rectangle_1529" data-name="Rectangle 1529" width="3.554" height="171.841" transform="translate(74.975 89.498) rotate(-59.813)" fill="#3f3831"/>
          <rect id="Rectangle_1530" data-name="Rectangle 1530" width="3.554" height="171.841" transform="translate(73.188 92.57) rotate(-59.813)" fill="#3f3831"/>
          <rect id="Rectangle_1531" data-name="Rectangle 1531" width="3.554" height="171.841" transform="matrix(0.503, -0.865, 0.865, 0.503, 71.39, 95.662)" fill="#3f3831"/>
          <path id="Path_5886" data-name="Path 5886" d="M55.376,80.169h0a.917.917,0,0,0,.177,1.141L71.4,95.651l5.359-9.217-20.3-6.676a.916.916,0,0,0-1.078.414" fill="#f9dab4"/>
          <path id="Path_5887" data-name="Path 5887" d="M61.535,81.429l-5.08-1.671a.917.917,0,0,0-.9,1.551l3.965,3.59Z" fill="#3f3831"/>
          <path id="Path_5888" data-name="Path 5888" d="M91.884,108.865C84.25,97.042,75.248,96.376,73.247,98.743c-1.822,2.153-.348,6.419.264,8.832.75,2.957,1.365,5.558,1.885,7.965.725,3.362,1.262,14.293,1.459,20.937,7.011.752,14.037-3.876,21-4.43-.78-8.09-1.909-16.893-5.973-23.186" fill="#db8f6d"/>
          <path id="Path_5889" data-name="Path 5889" d="M80.221,106.656c-1.293-4.153-6.586-8.288-7.833-5.536-.163,2.15.688,4.756,1.118,6.457.751,2.958,1.365,5.558,1.884,7.966a10.04,10.04,0,0,0,1.423-.2c4.716-.967,5.111-3.214,3.4-8.689" fill="#d89c84"/>
          <path id="Path_5890" data-name="Path 5890" d="M93.841,125.154a11.093,11.093,0,0,0,3.029-.578c.331-.11.667-.241,1.006-.39-.393-.447-.789-.914-1.177-1.4a16.252,16.252,0,0,1-3.042,1.077c-1.539.384-2.569.477-2.588.75-.025.233,1.012.618,2.773.546" fill="#cc8366"/>
          <path id="Path_5891" data-name="Path 5891" d="M95.761,83.44a64.546,64.546,0,0,0-4.271-9.1c-9.586,5.858-17.6,10.5-18.4,9.644-2.976,1.5.522,9.984,9.947,10.462,4.026.2,10.2-1.368,16.113-3.3-1.126-2.569-2.345-5.1-3.395-7.7" fill="#db8f6d"/>
          <path id="Path_5892" data-name="Path 5892" d="M73.1,83.981c-1.381.944.554,1.506,7.236-1.1,8.474-3.3,6.954-6,6.954-6s-11.3,5.122-14.19,7.094" fill="#d89c84"/>
          <path id="Path_5893" data-name="Path 5893" d="M225.514,172.925c-1.176-.688-6.693,8.382-5.36,9.217s6.535-8.534,5.36-9.217" fill="#f9dab4"/>
        </g>
      </g>
    </g>
  </g>
</svg>
