<svg xmlns="http://www.w3.org/2000/svg" xmlns:xlink="http://www.w3.org/1999/xlink" width="925" height="334.001" viewBox="0 0 925 334.001">
  <defs>
    <clipPath id="clip-path">
      <rect id="Rectangle_793" data-name="Rectangle 793" width="139.445" height="184.993" fill="none"/>
    </clipPath>
    <clipPath id="clip-path-4">
      <rect id="Rectangle_781" data-name="Rectangle 781" width="91.186" height="29.148" fill="none"/>
    </clipPath>
    <clipPath id="clip-path-5">
      <rect id="Rectangle_782" data-name="Rectangle 782" width="76.924" height="79.346" fill="none"/>
    </clipPath>
    <clipPath id="clip-path-6">
      <rect id="Rectangle_783" data-name="Rectangle 783" width="64.356" height="58.981" fill="none"/>
    </clipPath>
    <clipPath id="clip-path-7">
      <rect id="Rectangle_784" data-name="Rectangle 784" width="78.15" height="9.01" fill="none"/>
    </clipPath>
    <clipPath id="clip-path-8">
      <rect id="Rectangle_786" data-name="Rectangle 786" width="13.962" height="6.147" fill="none"/>
    </clipPath>
    <clipPath id="clip-path-9">
      <rect id="Rectangle_787" data-name="Rectangle 787" width="36.074" height="6.209" fill="none"/>
    </clipPath>
    <clipPath id="clip-path-11">
      <rect id="Rectangle_790" data-name="Rectangle 790" width="13.962" height="3.314" fill="none"/>
    </clipPath>
    <clipPath id="clip-path-12">
      <rect id="Rectangle_791" data-name="Rectangle 791" width="8.286" height="7.628" fill="none"/>
    </clipPath>
    <clipPath id="clip-path-13">
      <rect id="Rectangle_811" data-name="Rectangle 811" width="146.866" height="154.097" fill="none"/>
    </clipPath>
    <clipPath id="clip-path-15">
      <rect id="Rectangle_799" data-name="Rectangle 799" width="141.3" height="36.442" fill="none"/>
    </clipPath>
    <clipPath id="clip-path-16">
      <rect id="Rectangle_800" data-name="Rectangle 800" width="62.331" height="31.967" fill="none"/>
    </clipPath>
    <clipPath id="clip-path-21">
      <rect id="Rectangle_806" data-name="Rectangle 806" width="96.158" height="13.918" fill="none"/>
    </clipPath>
    <clipPath id="clip-path-22">
      <rect id="Rectangle_808" data-name="Rectangle 808" width="55.93" height="8.095" fill="none"/>
    </clipPath>
    <clipPath id="clip-path-23">
      <rect id="Rectangle_809" data-name="Rectangle 809" width="18.043" height="4.057" fill="none"/>
    </clipPath>
  </defs>
  <g id="Group_7054" data-name="Group 7054" transform="translate(-178 -341)">
    <g id="Group_5084" data-name="Group 5084" transform="translate(250.399 342.459)" opacity="0.35">
      <line id="Line_38" data-name="Line 38" y2="332.447" transform="translate(467.205 0)" fill="none" stroke="#fff" stroke-width="1"/>
      <line id="Line_47" data-name="Line 47" y2="332.447" transform="translate(656.745 0)" fill="none" stroke="#fff" stroke-width="1"/>
      <line id="Line_53" data-name="Line 53" y2="332.447" transform="translate(277.666 0)" fill="none" stroke="#fff" stroke-width="1"/>
      <line id="Line_59" data-name="Line 59" y2="332.447" transform="translate(88.126 0)" fill="none" stroke="#fff" stroke-width="1"/>
      <line id="Line_42" data-name="Line 42" y2="332.447" transform="translate(561.975 0)" fill="none" stroke="#fff" stroke-width="1"/>
      <line id="Line_45" data-name="Line 45" y2="332.447" transform="translate(751.515 0)" fill="none" stroke="#fff" stroke-width="1"/>
      <line id="Line_51" data-name="Line 51" y2="332.447" transform="translate(372.436 0)" fill="none" stroke="#fff" stroke-width="1"/>
      <line id="Line_57" data-name="Line 57" y2="332.447" transform="translate(182.896 0)" fill="none" stroke="#fff" stroke-width="1"/>
      <line id="Line_39" data-name="Line 39" y2="332.447" transform="translate(435.615 0)" fill="none" stroke="#fff" stroke-width="1"/>
      <line id="Line_48" data-name="Line 48" y2="332.447" transform="translate(625.155 0)" fill="none" stroke="#fff" stroke-width="1"/>
      <line id="Line_54" data-name="Line 54" y2="332.447" transform="translate(246.076 0)" fill="none" stroke="#fff" stroke-width="1"/>
      <line id="Line_60" data-name="Line 60" y2="332.447" transform="translate(56.536 0)" fill="none" stroke="#fff" stroke-width="1"/>
      <line id="Line_43" data-name="Line 43" y2="332.447" transform="translate(530.385 0)" fill="none" stroke="#fff" stroke-width="1"/>
      <line id="Line_46" data-name="Line 46" y2="332.447" transform="translate(719.925 0)" fill="none" stroke="#fff" stroke-width="1"/>
      <line id="Line_52" data-name="Line 52" y2="332.447" transform="translate(340.846 0)" fill="none" stroke="#fff" stroke-width="1"/>
      <line id="Line_58" data-name="Line 58" y2="332.447" transform="translate(151.306 0)" fill="none" stroke="#fff" stroke-width="1"/>
      <line id="Line_40" data-name="Line 40" y2="332.447" transform="translate(404.026 0)" fill="none" stroke="#fff" stroke-width="1"/>
      <line id="Line_49" data-name="Line 49" y2="332.447" transform="translate(593.565 0)" fill="none" stroke="#fff" stroke-width="1"/>
      <line id="Line_55" data-name="Line 55" y2="332.447" transform="translate(214.486 0)" fill="none" stroke="#fff" stroke-width="1"/>
      <line id="Line_61" data-name="Line 61" y2="332.447" transform="translate(24.946 0)" fill="none" stroke="#fff" stroke-width="1"/>
      <line id="Line_41" data-name="Line 41" y2="332.447" transform="translate(498.795 0)" fill="none" stroke="#fff" stroke-width="1"/>
      <line id="Line_44" data-name="Line 44" y2="332.447" transform="translate(688.335 0)" fill="none" stroke="#fff" stroke-width="1"/>
      <line id="Line_50" data-name="Line 50" y2="332.447" transform="translate(309.256 0)" fill="none" stroke="#fff" stroke-width="1"/>
      <line id="Line_56" data-name="Line 56" y2="332.447" transform="translate(119.716 0)" fill="none" stroke="#fff" stroke-width="1"/>
      <line id="Line_62" data-name="Line 62" x1="779.201" transform="translate(0 30.086)" fill="none" stroke="#fff" stroke-width="1"/>
      <line id="Line_63" data-name="Line 63" x1="779.201" transform="translate(0 61.676)" fill="none" stroke="#fff" stroke-width="1"/>
      <line id="Line_64" data-name="Line 64" x1="779.201" transform="translate(0 93.266)" fill="none" stroke="#fff" stroke-width="1"/>
      <line id="Line_65" data-name="Line 65" x1="779.201" transform="translate(0 124.856)" fill="none" stroke="#fff" stroke-width="1"/>
      <line id="Line_66" data-name="Line 66" x1="779.201" transform="translate(0 156.446)" fill="none" stroke="#fff" stroke-width="1"/>
      <line id="Line_67" data-name="Line 67" x1="779.201" transform="translate(0 188.036)" fill="none" stroke="#fff" stroke-width="1"/>
      <line id="Line_68" data-name="Line 68" x1="779.201" transform="translate(0 219.626)" fill="none" stroke="#fff" stroke-width="1"/>
      <line id="Line_69" data-name="Line 69" x1="779.201" transform="translate(0 251.216)" fill="none" stroke="#fff" stroke-width="1"/>
      <line id="Line_70" data-name="Line 70" x1="779.201" transform="translate(0 282.806)" fill="none" stroke="#fff" stroke-width="1"/>
      <line id="Line_71" data-name="Line 71" x1="779.201" transform="translate(0 314.396)" fill="none" stroke="#fff" stroke-width="1"/>
    </g>
    <g id="Group_5146" data-name="Group 5146" transform="translate(798.808 370.323)">
      <g id="Group_5110" data-name="Group 5110" transform="translate(0 0)">
        <rect id="Rectangle_762" data-name="Rectangle 762" width="63.18" height="115.83" transform="translate(25.573)" fill="#fff"/>
        <rect id="Rectangle_763" data-name="Rectangle 763" width="25.573" height="115.83" fill="#f4f4f4"/>
        <rect id="Rectangle_765" data-name="Rectangle 765" width="24.069" height="115.83" transform="translate(88.753)" fill="#f4f4f4"/>
        <rect id="Rectangle_764" data-name="Rectangle 764" width="64.684" height="115.83" transform="translate(91.761)" fill="#fff"/>
        <rect id="Rectangle_766" data-name="Rectangle 766" width="3.009" height="22.564" transform="translate(79.727 72.206)" fill="#f4f4f4"/>
      </g>
      <rect id="Rectangle_768" data-name="Rectangle 768" width="63.18" height="115.83" transform="translate(25.573 0)" fill="#fff"/>
      <rect id="Rectangle_769" data-name="Rectangle 769" width="25.573" height="115.83" transform="translate(0 0)" fill="#d9d9d9"/>
      <rect id="Rectangle_770" data-name="Rectangle 770" width="3.009" height="22.564" transform="translate(79.727 72.206)" fill="#f4f4f4"/>
      <rect id="Rectangle_812" data-name="Rectangle 812" width="3.009" height="22.564" transform="translate(97.727 72.206)" fill="#f4f4f4"/>
    </g>
    <g id="Group_5148" data-name="Group 5148" transform="translate(471.136 393.483)">
      <path id="Path_4797" data-name="Path 4797" d="M0,0H51.351V92.717H0Z" transform="translate(14.24 0)" fill="#c0c2bd"/>
      <rect id="Rectangle_772" data-name="Rectangle 772" width="14.24" height="92.717" transform="translate(0 0)" fill="#d9d9d9"/>
      <rect id="Rectangle_773" data-name="Rectangle 773" width="3.009" height="19.556" transform="translate(57.163 64.944)" fill="#9f9f9f"/>
    </g>
    <rect id="Rectangle_794" data-name="Rectangle 794" width="37.607" height="54.154" transform="translate(411.401 431.999)" fill="#fff"/>
    <rect id="Rectangle_795" data-name="Rectangle 795" width="12.034" height="22.564" transform="translate(609.966 591.453)" fill="#e8eff0"/>
    <g id="Group_5083" data-name="Group 5083" transform="translate(734.682 559.64)">
      <g id="Group_307" data-name="Group 307" transform="translate(0)">
        <g id="Group_305" data-name="Group 305" transform="translate(10.985 6.485)">
          <g id="Group_302" data-name="Group 302" transform="translate(0)">
            <rect id="Rectangle_312" data-name="Rectangle 312" width="7.872" height="108.315" transform="translate(4.457)" fill="#c3d1d4"/>
            <rect id="Rectangle_313" data-name="Rectangle 313" width="7.872" height="108.315" transform="translate(0)" fill="#e7e7e7"/>
          </g>
          <g id="Group_303" data-name="Group 303" transform="translate(186.273)">
            <rect id="Rectangle_314" data-name="Rectangle 314" width="7.872" height="108.315" transform="translate(4.457)" fill="#c3d1d4"/>
            <rect id="Rectangle_315" data-name="Rectangle 315" width="7.872" height="108.315" transform="translate(0)" fill="#e7e7e7"/>
          </g>
          <g id="Group_304" data-name="Group 304" transform="translate(122.133)">
            <rect id="Rectangle_316" data-name="Rectangle 316" width="7.872" height="108.315" transform="translate(4.457)" fill="#c3d1d4"/>
            <rect id="Rectangle_317" data-name="Rectangle 317" width="7.872" height="108.315" transform="translate(0)" fill="#e7e7e7"/>
          </g>
        </g>
        <g id="Group_5086" data-name="Group 5086" transform="translate(75.124 6.484)">
          <rect id="Rectangle_310" data-name="Rectangle 310" width="7.872" height="108.315" transform="translate(4.457)" fill="#c3d1d4"/>
          <rect id="Rectangle_311" data-name="Rectangle 311" width="7.872" height="108.315" transform="translate(0)" fill="#e7e7e7"/>
        </g>
        <g id="Group_306" data-name="Group 306">
          <rect id="Rectangle_318" data-name="Rectangle 318" width="90.481" height="11.111" fill="#9f9f9f"/>
          <rect id="Rectangle_319" data-name="Rectangle 319" width="130.671" height="11.111" transform="translate(89.899)" fill="#c0c2bd"/>
        </g>
      </g>
    </g>
    <g id="Group_5090" data-name="Group 5090" transform="translate(462.061 520.916)">
      <rect id="Rectangle_634" data-name="Rectangle 634" width="12.339" height="38.723" transform="translate(1.932 0)" fill="#c1c3c5"/>
      <rect id="Rectangle_635" data-name="Rectangle 635" width="29.341" height="6.357" transform="translate(0 6.41)" fill="#c1c3c5"/>
      <rect id="Rectangle_636" data-name="Rectangle 636" width="6.624" height="3.028" transform="translate(20.662 12.673)" fill="#d8dce5"/>
      <rect id="Rectangle_641" data-name="Rectangle 641" width="3.24" height="38.723" transform="translate(1.932 0)" fill="#adadad"/>
    </g>
    <g id="Group_5145" data-name="Group 5145" transform="translate(664.959 488.768)">
      <g id="Group_5144" data-name="Group 5144" clip-path="url(#clip-path)">
        <rect id="Rectangle_775" data-name="Rectangle 775" width="49.462" height="40.786" transform="translate(0 144.207)" fill="#e7e7e7"/>
        <rect id="Rectangle_776" data-name="Rectangle 776" width="49.462" height="144.447" transform="translate(0 0)" fill="#e7e7e7"/>
        <g id="Group_5114" data-name="Group 5114">
          <g id="Group_5113" data-name="Group 5113" clip-path="url(#clip-path)">
            <line id="Line_74" data-name="Line 74" x1="50.404" transform="translate(0 144.439)" fill="none" stroke="#c0c2bd" stroke-miterlimit="10" stroke-width="1"/>
          </g>
        </g>
        <rect id="Rectangle_778" data-name="Rectangle 778" width="91.186" height="40.786" transform="translate(48.259 144.207)" fill="#c3d1d4"/>
        <rect id="Rectangle_779" data-name="Rectangle 779" width="91.186" height="114.872" transform="translate(48.259 0)" fill="#c3d1d4"/>
        <g id="Group_5143" data-name="Group 5143">
          <g id="Group_5142" data-name="Group 5142" clip-path="url(#clip-path)">
            <g id="Group_5117" data-name="Group 5117" transform="translate(48.259 115.299)" style="isolation: isolate">
              <g id="Group_5116" data-name="Group 5116">
                <g id="Group_5115" data-name="Group 5115" clip-path="url(#clip-path-4)">
                  <rect id="Rectangle_780" data-name="Rectangle 780" width="91.186" height="29.147" transform="translate(0 0.001)" fill="#3175ae"/>
                </g>
              </g>
            </g>
            <g id="Group_5120" data-name="Group 5120" transform="translate(55.39 27.71)" style="isolation: isolate">
              <g id="Group_5119" data-name="Group 5119">
                <g id="Group_5118" data-name="Group 5118" clip-path="url(#clip-path-5)">
                  <path id="Path_4798" data-name="Path 4798" d="M45.2,101.169h65.736a5.355,5.355,0,0,0,5.594-5.079V26.9a5.355,5.355,0,0,0-5.594-5.079H45.2A5.355,5.355,0,0,0,39.607,26.9V96.09a5.355,5.355,0,0,0,5.594,5.079" transform="translate(-39.607 -21.823)" fill="#444"/>
                </g>
              </g>
            </g>
            <g id="Group_5123" data-name="Group 5123" transform="translate(63.073 41.385)" opacity="0.2" style="isolation: isolate">
              <g id="Group_5122" data-name="Group 5122">
                <g id="Group_5121" data-name="Group 5121" clip-path="url(#clip-path-6)">
                  <path id="Path_4799" data-name="Path 4799" d="M50.695,91.573h53.168a5.355,5.355,0,0,0,5.594-5.079V37.672a5.355,5.355,0,0,0-5.594-5.079H50.695A5.355,5.355,0,0,0,45.1,37.672V86.494a5.355,5.355,0,0,0,5.594,5.079" transform="translate(-45.101 -32.593)" fill="#fff"/>
                </g>
              </g>
            </g>
            <line id="Line_75" data-name="Line 75" x1="50.404" transform="translate(0 19.421)" fill="none" stroke="#c0c2bd" stroke-miterlimit="10" stroke-width="1"/>
            <line id="Line_76" data-name="Line 76" x1="91.106" transform="translate(48.292 19.421)" fill="none" stroke="#9f9f9f" stroke-miterlimit="10" stroke-width="1"/>
            <g id="Group_5126" data-name="Group 5126" transform="translate(55.804 4.923)" style="isolation: isolate">
              <g id="Group_5125" data-name="Group 5125">
                <g id="Group_5124" data-name="Group 5124" clip-path="url(#clip-path-7)">
                  <path id="Path_4800" data-name="Path 4800" d="M116.655,12.887H41.3a1.339,1.339,0,0,1-1.4-1.27V5.147a1.339,1.339,0,0,1,1.4-1.27h75.353a1.34,1.34,0,0,1,1.4,1.27v6.471a1.34,1.34,0,0,1-1.4,1.27" transform="translate(-39.903 -3.877)" fill="#3175ae"/>
                </g>
              </g>
            </g>
            <g id="Group_5129" data-name="Group 5129" transform="translate(76.134 6.306)" opacity="0.78" style="isolation: isolate">
              <g id="Group_5128" data-name="Group 5128">
                <g id="Group_5127" data-name="Group 5127" clip-path="url(#clip-path-8)">
                  <rect id="Rectangle_785" data-name="Rectangle 785" width="13.961" height="6.147" transform="translate(0)" fill="#fff"/>
                </g>
              </g>
            </g>
            <g id="Group_5132" data-name="Group 5132" transform="translate(93.225 6.243)" opacity="0.78" style="isolation: isolate">
              <g id="Group_5131" data-name="Group 5131">
                <g id="Group_5130" data-name="Group 5130" clip-path="url(#clip-path-9)">
                  <path id="Path_4801" data-name="Path 4801" d="M101.337,11.126H68.059a1.339,1.339,0,0,1-1.4-1.27V6.187a1.339,1.339,0,0,1,1.4-1.27h33.277a1.339,1.339,0,0,1,1.4,1.27v3.67a1.339,1.339,0,0,1-1.4,1.27" transform="translate(-66.661 -4.917)" fill="#fff"/>
                </g>
              </g>
            </g>
            <g id="Group_5135" data-name="Group 5135" transform="translate(59.574 6.306)" opacity="0.78" style="isolation: isolate">
              <g id="Group_5134" data-name="Group 5134">
                <g id="Group_5133" data-name="Group 5133" clip-path="url(#clip-path-8)">
                  <path id="Path_4802" data-name="Path 4802" d="M55.162,9.843H44V6.236H55.162Zm0-4.877H44a1.338,1.338,0,0,0-1.4,1.27V9.843a1.338,1.338,0,0,0,1.4,1.27H55.162a1.339,1.339,0,0,0,1.4-1.27V6.236a1.339,1.339,0,0,0-1.4-1.27" transform="translate(-42.599 -4.966)" fill="#fff"/>
                </g>
              </g>
            </g>
            <g id="Group_5138" data-name="Group 5138" transform="translate(96.523 7.947)" style="isolation: isolate">
              <g id="Group_5137" data-name="Group 5137">
                <g id="Group_5136" data-name="Group 5136" clip-path="url(#clip-path-11)">
                  <rect id="Rectangle_789" data-name="Rectangle 789" width="13.961" height="3.313" transform="translate(0 0.001)" fill="#819c35"/>
                </g>
              </g>
            </g>
            <g id="Group_5147" data-name="Group 5147" transform="translate(88.462 30.883)">
              <g id="Group_5141" data-name="Group 5141" transform="translate(1.178 0)" style="isolation: isolate">
                <g id="Group_5140" data-name="Group 5140">
                  <g id="Group_5139" data-name="Group 5139" clip-path="url(#clip-path-12)">
                    <path id="Path_4803" data-name="Path 4803" d="M72.515,26.393a3.267,3.267,0,0,1-.768,4.862,4.086,4.086,0,0,1-5.355-.7c-2.721-3.3-.923-3.713.768-4.863s2.544-2.708,5.355.7" transform="translate(-64.993 -24.322)" fill="#255e84"/>
                  </g>
                </g>
              </g>
              <path id="Path_4804" data-name="Path 4804" d="M56.792,28.017s1.642-3.331,7.471-3.331H77.726" transform="translate(-56.792 -24.223)" fill="none" stroke="#3175ae" stroke-linecap="round" stroke-linejoin="round" stroke-width="2"/>
            </g>
          </g>
        </g>
      </g>
    </g>
    <g id="Group_5109" data-name="Group 5109" transform="translate(647.041 520.192)">
      <g id="Group_5185" data-name="Group 5185" transform="translate(-98.197)">
        <g id="Group_5184" data-name="Group 5184" clip-path="url(#clip-path-13)">
          <g id="Group_5168" data-name="Group 5168" transform="translate(0 0)">
            <g id="Group_5167" data-name="Group 5167" clip-path="url(#clip-path-13)">
              <g id="Group_5160" data-name="Group 5160" transform="translate(1.364)" style="isolation: isolate">
                <g id="Group_5159" data-name="Group 5159">
                  <g id="Group_5158" data-name="Group 5158" clip-path="url(#clip-path-15)">
                    <path id="Path_4805" data-name="Path 4805" d="M142.256,30.3S111.811.933,77.509.371c0,0-73.74-3.837-76.553,13.174l9.279,20.647L139.57,36.442Z" transform="translate(-0.956 0)" fill="#fff"/>
                  </g>
                </g>
              </g>
              <g id="Group_5163" data-name="Group 5163" transform="translate(1.364 2.506)" opacity="0.12" style="isolation: isolate">
                <g id="Group_5162" data-name="Group 5162">
                  <g id="Group_5161" data-name="Group 5161" clip-path="url(#clip-path-16)">
                    <path id="Path_4806" data-name="Path 4806" d="M50.581,30.139S42.86-2.119,20.163,2.146C9.845,4.085,1.835,7.532.956,12.849l9.277,20.595,53.053.281Z" transform="translate(-0.956 -1.757)" fill="#3175ae"/>
                  </g>
                </g>
              </g>
              <g id="Group_5166" data-name="Group 5166" transform="translate(1.364)" opacity="0.4" style="isolation: isolate">
                <g id="Group_5165" data-name="Group 5165">
                  <g id="Group_5164" data-name="Group 5164" clip-path="url(#clip-path-15)">
                    <path id="Path_4807" data-name="Path 4807" d="M142.256,30.3S111.811.933,77.509.371c0,0-73.74-3.837-76.553,13.174l9.279,20.647L139.57,36.442Z" transform="translate(-0.956 0)" fill="#3175ae"/>
                  </g>
                </g>
              </g>
            </g>
          </g>
          <rect id="Rectangle_803" data-name="Rectangle 803" width="93.006" height="104.128" transform="translate(49.621 49.969)" fill="#c0c2bd"/>
          <rect id="Rectangle_804" data-name="Rectangle 804" width="50.449" height="104.128" transform="translate(0.237 49.969)" fill="#e7e7e7"/>
          <line id="Line_77" data-name="Line 77" x1="91.941" transform="translate(50.567 64.417)" fill="none" stroke="#9f9f9f" stroke-miterlimit="10" stroke-width="1"/>
          <g id="Group_5170" data-name="Group 5170" transform="translate(0 0)">
            <g id="Group_5169" data-name="Group 5169" clip-path="url(#clip-path-13)">
              <line id="Line_78" data-name="Line 78" x1="51.411" transform="translate(0 64.417)" fill="none" stroke="#c0c2bd" stroke-miterlimit="10" stroke-width="1"/>
            </g>
          </g>
          <path id="Path_4808" data-name="Path 4808" d="M.166,45.925H69.822L50.636,26.678,1.292,9.483Z" transform="translate(0.071 4.044)" fill="#a9acaa"/>
          <path id="Path_4810" data-name="Path 4810" d="M41.752,28.337l-6.2,8.309h91.956l4.2-5.309Z" transform="translate(15.158 13.362)" fill="#c0c2bd"/>
          <g id="Group_5175" data-name="Group 5175" transform="translate(0 -20)">
            <g id="Group_5174" data-name="Group 5174" clip-path="url(#clip-path-13)">
              <g id="Group_5173" data-name="Group 5173" transform="translate(50.708 50.722)" style="isolation: isolate">
                <g id="Group_5172" data-name="Group 5172">
                  <g id="Group_5171" data-name="Group 5171" clip-path="url(#clip-path-21)">
                    <path id="Path_4809" data-name="Path 4809" d="M39.752,35.456h91.955l-4.2-13.917H35.55Z" transform="translate(-35.549 -21.538)" fill="#3175ae"/>
                  </g>
                </g>
              </g>
              <g id="Group_5192" data-name="Group 5192" transform="translate(70.551 53.634)" opacity="0.78" style="isolation: isolate">
                <g id="Group_5177" data-name="Group 5177">
                  <g id="Group_5176" data-name="Group 5176" clip-path="url(#clip-path-22)">
                    <path id="Path_4811" data-name="Path 4811" d="M51.9,29.665h53.486l-2.445-8.095H49.46Z" transform="translate(-49.46 -21.57)" fill="#fff"/>
                  </g>
                </g>
              </g>
              <g id="Group_5193" data-name="Group 5193" transform="translate(101.619 55.653)" style="isolation: isolate">
                <g id="Group_5180" data-name="Group 5180">
                  <g id="Group_5179" data-name="Group 5179" clip-path="url(#clip-path-23)">
                    <path id="Path_4812" data-name="Path 4812" d="M72.466,27.042H89.283l-1.225-4.057H71.241Z" transform="translate(-71.241 -22.985)" fill="#819c35"/>
                  </g>
                </g>
              </g>
            </g>
          </g>
        </g>
      </g>
    </g>
    <g id="Group_308" data-name="Group 308" transform="translate(369.214 559.64)">
      <g id="Group_307-2" data-name="Group 307" transform="translate(0)">
        <g id="Group_305-2" data-name="Group 305" transform="translate(10.985 6.485)">
          <g id="Group_301" data-name="Group 301" transform="translate(64.139)">
            <rect id="Rectangle_310-2" data-name="Rectangle 310" width="7.872" height="108.315" transform="translate(4.457)" fill="#c3d1d4"/>
            <rect id="Rectangle_311-2" data-name="Rectangle 311" width="7.872" height="108.315" transform="translate(0)" fill="#e7e7e7"/>
          </g>
          <g id="Group_302-2" data-name="Group 302" transform="translate(0)">
            <rect id="Rectangle_312-2" data-name="Rectangle 312" width="7.872" height="108.315" transform="translate(4.457)" fill="#c3d1d4"/>
            <rect id="Rectangle_313-2" data-name="Rectangle 313" width="7.872" height="108.315" transform="translate(0)" fill="#e7e7e7"/>
          </g>
          <g id="Group_303-2" data-name="Group 303" transform="translate(186.273)">
            <rect id="Rectangle_314-2" data-name="Rectangle 314" width="7.872" height="108.315" transform="translate(4.457)" fill="#c3d1d4"/>
            <rect id="Rectangle_315-2" data-name="Rectangle 315" width="7.872" height="108.315" transform="translate(0)" fill="#e7e7e7"/>
          </g>
          <g id="Group_304-2" data-name="Group 304" transform="translate(122.133)">
            <rect id="Rectangle_316-2" data-name="Rectangle 316" width="7.872" height="108.315" transform="translate(4.457)" fill="#c3d1d4"/>
            <rect id="Rectangle_317-2" data-name="Rectangle 317" width="7.872" height="108.315" transform="translate(0)" fill="#e7e7e7"/>
          </g>
        </g>
        <path id="Path_4795" data-name="Path 4795" d="M5640.92,7095.792h16.148a4.223,4.223,0,0,0,4.213-4.212h0a4.224,4.224,0,0,0-4.213-4.213H5640.92a4.225,4.225,0,0,0-4.214,4.213h0A4.224,4.224,0,0,0,5640.92,7095.792Z" transform="translate(-5534.407 -7064.649)" fill="#edeef0"/>
        <path id="Path_4796" data-name="Path 4796" d="M5543.817,6994.315h53.654c10.538,0,22.174-4.978,22.174,2.908s-11.634,17.2-22.174,17.2h-53.654c-10.541,0-22.175-9.318-22.175-17.2S5533.277,6994.315,5543.817,6994.315Z" transform="translate(-5455.077 -6987.038)" fill="#a9acaa"/>
        <g id="Group_5111" data-name="Group 5111" transform="translate(96.704 30.673)">
          <rect id="Rectangle_631" data-name="Rectangle 631" width="7.09" height="18.704" transform="translate(14.349 5.469)" fill="#f8f8f8"/>
          <rect id="Rectangle_632" data-name="Rectangle 632" width="18.704" height="8.778" rx="4.389" transform="translate(0 24.983)" fill="#f8f8f8"/>
          <path id="Path_1900" data-name="Path 1900" d="M5628.556,7175.978v4.24a4.061,4.061,0,0,0,4.048,4.049h3.286a.842.842,0,0,0,.839-.841V7172.77a.841.841,0,0,0-.839-.838H5632.6A4.06,4.06,0,0,0,5628.556,7175.978Z" transform="translate(-5623.12 -7148.727)" fill="#edeef0"/>
          <path id="Path_1901" data-name="Path 1901" d="M5645.239,7191.17H5658.2l-1.418-15.53h-10.127Z" transform="translate(-5633.929 -7151.129)" fill="#f8f8f8"/>
          <path id="Path_1902" data-name="Path 1902" d="M5645.24,7219.745h12.966l-.708,4.979a5.832,5.832,0,0,1-5.775,5.015h0a5.831,5.831,0,0,1-5.774-5.015Z" transform="translate(-5633.93 -7179.705)" fill="#f8f8f8"/>
          <path id="Path_1903" data-name="Path 1903" d="M5648.139,7122.5h8.327a2.009,2.009,0,0,0,2-2h0a2.01,2.01,0,0,0-2-2h-8.327a2.01,2.01,0,0,0-2,2h0A2.009,2.009,0,0,0,5648.139,7122.5Z" transform="translate(-5634.51 -7114.102)" fill="#edeef0"/>
          <path id="Path_1904" data-name="Path 1904" d="M5648.139,7168.267h8.327a2.008,2.008,0,0,0,2-2h0a2.008,2.008,0,0,0-2-2h-8.327a2.008,2.008,0,0,0-2,2h0A2.009,2.009,0,0,0,5648.139,7168.267Z" transform="translate(-5634.51 -7143.756)" fill="#edeef0"/>
          <rect id="Rectangle_633" data-name="Rectangle 633" width="15.755" height="4.006" rx="2.003" transform="translate(9.915 38.038)" fill="#edeef0"/>
          <path id="Path_1905" data-name="Path 1905" d="M5658.923,7106.024l-1.3,4.907h-8.644l-1.3-4.907Z" transform="translate(-5635.504 -7106.024)" fill="#f8f8f8"/>
        </g>
        <g id="Group_5112" data-name="Group 5112" transform="translate(75.124 6.484)">
          <rect id="Rectangle_310-3" data-name="Rectangle 310" width="7.872" height="108.315" transform="translate(4.457)" fill="#c3d1d4"/>
          <rect id="Rectangle_311-3" data-name="Rectangle 311" width="7.872" height="108.315" transform="translate(0)" fill="#e7e7e7"/>
        </g>
        <g id="Group_306-2" data-name="Group 306">
          <rect id="Rectangle_318-2" data-name="Rectangle 318" width="90.481" height="11.111" fill="#9f9f9f"/>
          <rect id="Rectangle_319-2" data-name="Rectangle 319" width="130.671" height="11.111" transform="translate(89.899)" fill="#c0c2bd"/>
        </g>
      </g>
    </g>
    <rect id="Rectangle_1950" data-name="Rectangle 1950" width="925" height="333" transform="translate(178 341)" fill="none"/>
    <g id="Group_5208" data-name="Group 5208" transform="translate(467.424 433.399)">
      <g id="Group_338" data-name="Group 338" transform="translate(122.054 112.34) rotate(-164)">
        <path id="Path_805" data-name="Path 805" d="M7.669,5.334C4.694,4.115-.43,1.346.029.4S1.7.432,2.648.891,5.009,1.912,5.642,2.22,7.669,5.334,7.669,5.334Z" transform="translate(0 1.412)" fill="#63514e"/>
        <path id="Path_806" data-name="Path 806" d="M.555.923A5.357,5.357,0,0,0,1.4,2.885C.565,3.444-.044,3.98,0,4.393.134,5.538,4.671,6.986,6.213,7.739s6.069.353,7.04.135,2.466-3.825,2.466-3.825a37.046,37.046,0,0,1-4.378-2.218C9.806.842,6.37-.59,5.265.258A13.686,13.686,0,0,1,3.03,1.91,5.145,5.145,0,0,0,.555.923Z" transform="translate(3.999 0.069)" fill="#63514e"/>
        <path id="Path_807" data-name="Path 807" d="M5.978,0c2.335.681,6.077,1.541,10.844,2.569C24.229,4.174,26.44,4,29.22,5.764c5.536,3.5,30.787,32.194,30.787,32.194s-16.633-1.2-20.754-4.9S28.733,19.77,25.6,15.4,7.84,8.556,0,4.972Z" transform="translate(13.603 4.052)" fill="#7f6560"/>
        <path id="Path_808" data-name="Path 808" d="M9.456,6.683c-1.015-.234-5.638-.81-6.508-1.222S-.667.23.15.032c.759-.186,1.291.455,1.862,1.23S3.765,3.914,4.539,3.34s4.719-2.172,7.025-.625,2.008,2.711,2.008,2.711l-1.1,2.349Z" transform="translate(7.84 3.006)" fill="#7f6560"/>
        <path id="Path_809" data-name="Path 809" d="M1.449.058C1.874.608,4.523,3.4,3.766,4.238S-.193,1.293.009.524,1.449.058,1.449.058Z" transform="translate(8.725 0)" fill="#7f6560"/>
        <path id="Path_810" data-name="Path 810" d="M1.721.24A13.8,13.8,0,0,1,4.379,4.169c.564,1.377-.415,1.921-2.32-.218S-.373,1.137.246.468C1.072-.43,1.721.24,1.721.24Z" transform="translate(6.669 0.146)" fill="#7f6560"/>
        <path id="Path_811" data-name="Path 811" d="M.051.639c.641,1.094,2.67,3.5,3.244,3.6s1.059-.132.521-1.007S2.251.344,1.3.08-.172.257.051.639Z" transform="translate(3.345 0.925)" fill="#7f6560"/>
      </g>
      <path id="Path_4814" data-name="Path 4814" d="M10.727,28.905c2.233-.593,6.629-5.951,7.326-12.3S19.519,4.592,19.519,4.592s-5.023-1.2-7.355-1.64S5-.1,4.03,0-.32,14.58.025,19.611C.384,24.853,1.8,31.27,10.727,28.905Z" transform="translate(86.369 61.195) rotate(138)" fill="#014951"/>
      <g id="Group_329" data-name="Group 329" transform="translate(0 209.344)">
        <path id="Path_794" data-name="Path 794" d="M894.8,528.387s2.028,5.865,2.763,9.429,6.732,7.917,4.065,11.947l-24.244-21.79s1.981-6.85,6.795-7.6c0,0,.98,5.051,4.234,6.109S892.47,524.877,894.8,528.387Z" transform="translate(-877.052 -520.373)" fill="#2d1f29"/>
        <path id="Path_795" data-name="Path 795" d="M877.4,527.652l-.3,1.115a1.072,1.072,0,0,0,.318,1.071l22.349,20.086a1.071,1.071,0,0,0,1.512-.08l.361-.4Z" transform="translate(-877.066 -520.052)" fill="#2d1f29"/>
      </g>
      <g id="Group_330" data-name="Group 330" transform="translate(53.022 228.406)">
        <path id="Path_796" data-name="Path 796" d="M942.469,538.881s5.428,3.007,8.358,5.166,10.3,1.388,11.009,6.168h-32.6s-3.1-6.42-.026-10.195c0,0,4.106,3.1,7.232,1.713S938.39,537.829,942.469,538.881Z" transform="translate(-927.852 -538.631)" fill="#382632"/>
        <path id="Path_797" data-name="Path 797" d="M929.181,549.727l.525,1.027a1.07,1.07,0,0,0,.953.583h30.048a1.07,1.07,0,0,0,1.07-1.07v-.54Z" transform="translate(-927.793 -538.142)" fill="#382632"/>
      </g>
      <g id="Group_332" data-name="Group 332" transform="translate(4.768 130.397)">
        <path id="Path_798" data-name="Path 798" d="M935.288,463.276c1.653,15.593-12.787,28.014-15.251,31.281-8.25,10.93-17.144,32.532-18.318,38.258-1.522,7.43-15.224-.164-20.086-8.106,0,0,7.544-4.035,7.444-10.2s11.759-31.574,18.444-38.059c0,0,15.509-19.654,16.255-30.755C924.167,439.85,935.288,463.276,935.288,463.276Z" transform="translate(-881.633 -444.755)" fill="#a3a2a2"/>
        <g id="Group_331" data-name="Group 331" transform="translate(9.932 30.056)">
          <path id="Path_799" data-name="Path 799" d="M900.982,531.611c1.174-5.726,10.069-27.328,18.318-38.258,1.5-2,7.458-7.407,11.5-14.863-.61-3.273-1.365-5.161-2.223-4.928-4.719,1.286-8.355,1.355-17.7,15.852A85.678,85.678,0,0,0,897.8,526.56s-2.874-1.08-2.171.767,1.734,5.294.163,3.69-5.006-3.041-4.618.528C891.416,533.753,899.46,539.042,900.982,531.611Z" transform="translate(-891.146 -473.544)" fill="#c4c4c4"/>
        </g>
      </g>
      <g id="Group_334" data-name="Group 334" transform="translate(36.171 93.276)">
        <g id="Group_333" data-name="Group 333">
          <path id="Path_800" data-name="Path 800" d="M916.906,411.781s-7.882,18.826-4.226,27.323c4.451,10.366,8.841,42.755,8.455,46.587-.388,3.853-1.046,35.79,5.609,67.324,7.855-4.861,9-5.3,21.221-7.564-1.6-8.9-10.7-48.78-7.8-55.227,1.08-2.415,1.536-9.445.971-12.583s1.463-54.149,3.415-64.232C946.177,405.007,916.906,411.781,916.906,411.781Z" transform="translate(-911.712 -409.201)" fill="#a3a2a2"/>
        </g>
        <path id="Path_801" data-name="Path 801" d="M941.222,434.8c0,5.855-1.219,40.246-.468,43.894s-1.95,14.148-1.95,17.077,7.947,45.785,7.947,47.736c0,0-8.779-.976-13.823,3.009a12.1,12.1,0,0,1-.976-4.515s4.757-5.242,8.05-4.879c-3.538-.118-5.368-.363-5.855,0s4.879-3.291,5.855-4.267-7.991-29.564-4.7-41.64c0,0,2.136-9.464,2.116-13.983C937.255,443.084,941.222,434.8,941.222,434.8Z" transform="translate(-910.821 -408.073)" fill="#c4c4c4"/>
      </g>
      <g id="Group_337" data-name="Group 337" transform="translate(50.735 0)">
        <path id="Path_802" data-name="Path 802" d="M926.313,354.077c.475-.371,3.861-5.247,4.237-5.861a17,17,0,0,0,1.973-5.6,68.014,68.014,0,0,1-1.935-11.733s2.937-5.382,6.4-5.827c1.351-3.986,7.654-2.372,12.441-1.585,5.967.969,7.439,4.592,7.216,13.664a17.053,17.053,0,0,1-1.241,2.678c.343,3.161,1.16,5.645.976,6.22a2.567,2.567,0,0,1-2.278,1c-.412,1.344-.344,5.232-.7,6.21-.918,2.522-1.8,2.872-2.6,2.885a10.967,10.967,0,0,1-4.443-1.151c-1.445,1.569-3.791,1.714-4.626,3.908-.443,1.168,2.531,5.076,2.531,5.076l-10.733-5.206S922.977,356.7,926.313,354.077Z" transform="translate(-925.661 -319.743)" fill="#7f6560"/>
        <g id="Group_336" data-name="Group 336" transform="translate(2.478)">
          <g id="Group_335" data-name="Group 335">
            <path id="Path_803" data-name="Path 803" d="M953.868,330.538a8.344,8.344,0,0,0,3-3.9c.523-2.511-2.583-3.768-3.339-4.886a1.016,1.016,0,0,0-.783-.45c-1.145-.079-1.577-2.177-12.276-1.164a9.784,9.784,0,0,0-6.356,2.975s-9.98,1.752-4.37,21.206c.265.919,1.6,2.63,1.417,3.483,0,0,4.627-.371,5.112-1.958,1.523-5.031,2.818-8.924,4.387-8.723.946.126,2.153,2.743,2.441,2.319,1.568-2.3-.207-3.726.254-5.537.128-.5.122-5.19,3.473-4.8C947.921,329.217,953.868,330.538,953.868,330.538Z" transform="translate(-928.035 -319.858)" fill="#3a221a"/>
          </g>
          <path id="Path_804" data-name="Path 804" d="M941.51,336.478c-.23-2.342-3.345-2.659-3.745-.632s.232,6.466,1.99,6.561S941.51,336.478,941.51,336.478Z" transform="translate(-927.612 -319.213)" fill="#7f6560"/>
        </g>
      </g>
      <g id="Group_342" data-name="Group 342" transform="translate(33.074 32.634)">
        <g id="Group_340" data-name="Group 340" transform="translate(0)">
          <g id="Group_339" data-name="Group 339">
            <path id="Path_812" data-name="Path 812" d="M945.53,363.5c-.676-.97-1.892-2.354-1.892-2.354-.756,2.261-13.871-5.385-15.421-10.029L925.96,354.1s-9.759,11.619-10.547,24.516c-2.2,35.857-5.448,60.7-6.667,71.673,0,0,8.2,5.268,17.237,6.016s21.3-.811,21.3-.811-1.352-37.786.742-62.484c.386-4.568,1.56-7.412.975-11.957C948.379,376.153,946.881,365.441,945.53,363.5Z" transform="translate(-908.746 -351.116)" fill="#014951"/>
          </g>
        </g>
        <g id="Group_341" data-name="Group 341" transform="translate(20.653 4.636)">
          <path id="Path_813" data-name="Path 813" d="M942.866,360.659a23.547,23.547,0,0,1-11.429-5.1c-1.1,2.439-2.91,5.929-2.91,5.929s8.778,14.893,9.1,22.7a101.942,101.942,0,0,1-.325,15.287c-.323,3.9-3.251,12.358-3.251,21.14,0,6.006.487,34.464.977,35.709,6.022-.261,11.383-1.017,11.383-1.017s-.308-40.242,1.786-64.937c.386-4.57,1.56-7.414.975-11.956-1.355-10.64-3.971-14.387-6.31-17.75" transform="translate(-928.528 -355.556)" fill="#02979b"/>
        </g>
      </g>
      <g id="Group_344" data-name="Group 344" transform="translate(39.639 42.373)">
        <g id="Group_343" data-name="Group 343" transform="translate(-1.325 12.331) rotate(7)">
          <path id="Path_814" data-name="Path 814" d="M933.43,378.844c-1.925,3.3-2.525,17.525-4.881,25.613,1.672,2.618,4.93,23.182,5.244,23.6,1.709,2.254,2.015,2.561,2.5,3.231.835,1.148.426,1.539.55,2.75.069.692,1.667,4.113.829,4.085s-2.008-3.636-2.237-4.266a28.841,28.841,0,0,0,1.408,3.86c.42.754,2.349,5.456,1.756,5.674-1.089.4-3.206-5.035-3.218-4.535-.006.318,3.118,5.6,2.4,5.7-1.53.228-3.08-4.764-4-5.025a15.347,15.347,0,0,1,1.291,2.424c.473,1.153,1.295,1.952,1.053,2.3-.762,1.156-4.31-5.788-4.454-4.757-.056.419,3.186,3.453,2.211,3.564-.477.062-4.394-3.629-4.394-3.629a36.243,36.243,0,0,1-2.355-5.128,65.755,65.755,0,0,0-3.7-8.937c-3.907-7.772-6.949-13.553-7.987-16.6-2.082-6.062,4.142-38.178,4.142-38.178S935.358,375.538,933.43,378.844Z" transform="translate(-916.409 -365.381)" fill="#7f6560"/>
        </g>
        <path id="Path_816" data-name="Path 816" d="M924.948,360.947c-2.37.591-7.035,5.926-7.774,12.254s-1.555,11.958-1.555,11.958,5.33,1.193,7.805,1.633,7.6,3.041,8.631,2.937,4.616-14.516,4.25-19.527C935.924,364.982,934.425,358.592,924.948,360.947Z" transform="translate(-863.808 -471.418) rotate(7)" fill="#02979b"/>
      </g>
    </g>
    <rect id="Rectangle_1814" data-name="Rectangle 1814" width="11" height="332" transform="translate(317 343)" fill="#bed2e8"/>
    <rect id="Rectangle_1816" data-name="Rectangle 1816" width="11" height="332" transform="translate(240 343)" fill="#bed2e8"/>
    <g id="Group_6880" data-name="Group 6880">
      <g id="Group_6867" data-name="Group 6867" transform="translate(-619 -7.626)">
        <path id="Path_5728" data-name="Path 5728" d="M642.162,32.467V364.008h19.612V59.321h53.652V364.008h24.422V32.467Z" transform="translate(198.443 318.618)" fill="#9ab4d0"/>
        <path id="Path_5733" data-name="Path 5733" d="M670.3,363.412V57.712H719.88" transform="translate(199.108 319.215)" fill="none" stroke="#9ab4d0" stroke-miterlimit="10" stroke-width="1"/>
        <path id="Path_5734" data-name="Path 5734" d="M776.62,388.076V57.712H670.3" transform="translate(170.302 293.526)" fill="none" stroke="#9ab4d0" stroke-miterlimit="10" stroke-width="1"/>
      </g>
    </g>
  </g>
</svg>
