<svg xmlns="http://www.w3.org/2000/svg" width="268.2" height="268.2" viewBox="0 0 268.2 268.2">
  <g id="Group_6833" data-name="Group 6833" transform="translate(-244 -166.973)">
    <circle id="Ellipse_53" data-name="Ellipse 53" cx="134.1" cy="134.1" r="134.1" transform="translate(244 166.973)" fill="#e0ded9"/>
    <g id="Group_114" data-name="Group 114" transform="translate(346.124 234.513)">
      <path id="Path_356" data-name="Path 356" d="M1538.844-125.636h-18.959c-.4,35.555-12.459,49.087-25.8,58.174a4.572,4.572,0,0,0-1.98,3.785V6.485a7.692,7.692,0,0,0,7.7,7.686h.017l78.106-.284a7.684,7.684,0,0,0,7.655-7.684V-66.152c-14.092-9.12-27.357-22.18-27.776-59.487Z" transform="translate(-1492.108 154.951)" fill="#fff"/>
      <path id="Path_357" data-name="Path 357" d="M1551.986-148.624l-1.221-1.4a77.288,77.288,0,0,0-14.818-1.868,79.9,79.9,0,0,0-14.82,1.868l-2.016,2.319-2.126,2.442,2.591,30.238h4.663l-2.765-31.13,1.14-.207a84.693,84.693,0,0,1,13.333-1.383,93.621,93.621,0,0,1,13.38,1.465c.375.06.734.123,1.076.184h0l-2.75,31.068h4.662l2.592-30.236Z" transform="translate(-1489.212 151.894)" fill="#515e71"/>
      <path id="Path_358" data-name="Path 358" d="M1601.3-50.559c-.018-.064-.035-.122-.056-.184a5.75,5.75,0,0,0-2.6-3.266,3.54,3.54,0,0,0-1.25-.461,1.8,1.8,0,0,0-.257-.019v.019h-8.991V-66.458a5.255,5.255,0,0,0-3.935-4.167c-.056-.02-.113-.037-.17-.051h-12.27v3.732h12.44v11.987a5.265,5.265,0,0,0,3.935,4.163.916.916,0,0,0,.162.052h9.3v26.3h3.729V-50.395A.649.649,0,0,0,1601.3-50.559Z" transform="translate(-1482.833 161.351)" fill="#515e71"/>
    </g>
    <g id="Group_98" data-name="Group 98" transform="translate(424.884 245.918)">
      <path id="Path_333" data-name="Path 333" d="M-6208.709,929.593l-.264.37-2.819,3.585,16.718,11.95,5.176-7.388,18.4-8.366h0a2.95,2.95,0,0,0,1.78-3.572,3.131,3.131,0,0,0-3.437-2.362c-.027.007-10.558,3.953-10.558,3.953.932-1.211,14.687-20.487,14.687-20.487h0a2.043,2.043,0,0,0-.77-2.748,2.042,2.042,0,0,0-2.849.161h0l-11.678,15.582-.151-.108,12.238-17.534a2.042,2.042,0,0,0-.771-2.749,2.043,2.043,0,0,0-2.85.161l-12.662,17.232-.231-.165,10.4-15.061h0v0a2.038,2.038,0,0,0-.766-2.745,2.039,2.039,0,0,0-2.845.165v0l-.008-.007-10.944,14.676-.247-.178,7.44-11.057h0v0a1.857,1.857,0,0,0-.521-2.571,1.857,1.857,0,0,0-2.6.339l0,0h0l-7.9,10.726h0c-1.046,1.263-4.163,5.646-4.732,6.547C-6202.813,920.068-6208.709,929.593-6208.709,929.593Z" transform="translate(6222.952 -890.84)" fill="#bbdde5"/>
      <path id="Path_334" data-name="Path 334" d="M-6215.627,921.1v.5l.1,2.509a2.9,2.9,0,0,1-2.775,3.014c-.04,0-.08,0-.12,0H-6233.6a4.225,4.225,0,0,1-4.225-4.225c0-.013,0-.025,0-.038l.054-6.143-11.052-19.143h0a3.227,3.227,0,0,1,.688-4.309c1.439-1.179,3.643-1.035,4.56.085.02.024,6.876,10.229,6.876,10.229-.059-1.67-.04-27.562-.04-27.562h0a2.233,2.233,0,0,1,2.432-1.955,2.234,2.234,0,0,1,2.433,1.955h0l.481,21.285h.2l.263-23.378a2.233,2.233,0,0,1,2.432-1.956,2.233,2.233,0,0,1,2.432,1.956l.308,23.378h.311l.32-20.013h0v0a2.23,2.23,0,0,1,2.427-1.956,2.229,2.229,0,0,1,2.426,1.956v0h.013l.4,20.013h.332l.412-14.566h0v0a2.032,2.032,0,0,1,2.1-1.956,2.031,2.031,0,0,1,2.1,1.956v0h0l.211,14.566h0c.127,1.789.114,7.669.047,8.832C-6214.814,908.882-6215.627,921.1-6215.627,921.1Z" transform="translate(6249.369 -871.972)" fill="#62c0d8"/>
    </g>
    <circle id="Ellipse_53-2" data-name="Ellipse 53" cx="134.1" cy="134.1" r="134.1" transform="translate(244 166.973)" fill="none"/>
    <g id="Group_113" data-name="Group 113" transform="translate(277.111 256.5)">
      <g id="Group_107" data-name="Group 107" transform="translate(3.355 9.835)">
        <path id="Path_349" data-name="Path 349" d="M-6982.369,310.157v44.6a11.452,11.452,0,0,0,6.024,9.749,47.476,47.476,0,0,0,19.72,4.253v-58.6Z" transform="translate(6982.369 -310.157)" fill="#d9eaed"/>
        <path id="Path_350" data-name="Path 350" d="M-6924.029,310.158v58.6a47.475,47.475,0,0,0,19.537-4.253,11.449,11.449,0,0,0,6.023-9.749v-44.6Z" transform="translate(6949.773 -310.158)" fill="#bbdde5"/>
      </g>
      <g id="Group_108" data-name="Group 108" transform="translate(5.001 7.377)" opacity="0.5">
        <path id="Path_351" data-name="Path 351" d="M-6935.446,304.588l4.633,4.025a33.044,33.044,0,0,1-11.694,12.813,24.166,24.166,0,0,1-8.016,3.11,22.464,22.464,0,0,1-8.379.016,26.381,26.381,0,0,1-14.389-8.346,36.712,36.712,0,0,1-5.347-7.564l4.633-4.03a29.89,29.89,0,0,0,4.348,6.151,21.236,21.236,0,0,0,11.574,6.723,18.74,18.74,0,0,0,13.164-2.509A26.8,26.8,0,0,0-6935.446,304.588Z" transform="translate(6978.637 -304.588)" fill="#060f1c"/>
      </g>
      <g id="Group_109" data-name="Group 109" transform="translate(3.262)">
        <path id="Path_352" data-name="Path 352" d="M-6956.926,287.87c-14.165,0-25.651,4.428-25.651,9.89,0,.054,0,.108,0,.162,0,.015,0,.029,0,.044a3.742,3.742,0,0,0,3.741,3.742h22V287.87Z" transform="translate(6982.577 -287.87)" fill="#0a2f4c"/>
        <path id="Path_353" data-name="Path 353" d="M-6900.047,297.923c0-.053,0-.108,0-.161,0-5.45-11.436-9.87-25.561-9.889v13.837h21.819a3.742,3.742,0,0,0,3.742-3.742h0C-6900.042,297.952-6900.047,297.938-6900.047,297.923Z" transform="translate(6950.745 -287.871)" fill="#0a2f4c"/>
      </g>
      <g id="Group_110" data-name="Group 110" transform="translate(0 9.064)">
        <rect id="Rectangle_171" data-name="Rectangle 171" width="2.807" height="2.94" transform="translate(2.235 1.341)" fill="#060f1c"/>
        <rect id="Rectangle_172" data-name="Rectangle 172" width="2.807" height="5.622" fill="#263248"/>
      </g>
      <g id="Group_111" data-name="Group 111" transform="translate(52.971 9.064)">
        <rect id="Rectangle_173" data-name="Rectangle 173" width="2.807" height="2.94" transform="translate(0 1.341)" fill="#060f1c"/>
        <rect id="Rectangle_174" data-name="Rectangle 174" width="2.807" height="5.622" transform="translate(2.235)" fill="#263248"/>
      </g>
      <g id="Group_112" data-name="Group 112" transform="translate(3.265 9.835)">
        <path id="Path_354" data-name="Path 354" d="M-6982.572,310.158v4.079h25.744v-4.079Z" transform="translate(6982.572 -310.158)" fill="#515e71"/>
        <path id="Path_355" data-name="Path 355" d="M-6898.679,310.158h-25.56v4.079h25.56Z" transform="translate(6949.98 -310.158)" fill="#515e71"/>
      </g>
    </g>
    <g id="Group_1459" data-name="Group 1459" transform="translate(-20.938 -110.637)">
      <g id="Group_1476" data-name="Group 1476" transform="translate(334.038 321.571)">
        <path id="Path_1836" data-name="Path 1836" d="M334.038,344.527h16.977" transform="translate(-334.038 -344.527)" fill="none" stroke="#515e71" stroke-linecap="round" stroke-width="2"/>
        <path id="Path_1837" data-name="Path 1837" d="M334.038,344.527h13.416" transform="translate(-330.477 -334.578)" fill="none" stroke="#515e71" stroke-linecap="round" stroke-width="2"/>
      </g>
      <g id="Group_1477" data-name="Group 1477" transform="translate(383.108 321.571)">
        <path id="Path_1836-2" data-name="Path 1836" d="M351.016,344.527H334.038" transform="translate(-334.038 -344.527)" fill="none" stroke="#515e71" stroke-linecap="round" stroke-width="2"/>
        <path id="Path_1837-2" data-name="Path 1837" d="M347.454,344.527H334.038" transform="translate(-334.038 -334.578)" fill="none" stroke="#515e71" stroke-linecap="round" stroke-width="2"/>
      </g>
      <g id="Group_1478" data-name="Group 1478" transform="translate(347.424 309.149)">
        <path id="Path_1796" data-name="Path 1796" d="M393.492,312.5c-2.126-2.639-9.634-3.348-9.634-3.348s-7.51.675-9.644,3.306c-2.833,3.492-10.088,11.182-10.093,13.984s1.265,21.756,19.667,21.756c18.588,0,19.74-18.866,19.745-21.668S396.282,315.966,393.492,312.5Z" transform="translate(-364.121 -309.149)" fill="#bbdde5"/>
        <path id="Path_1797" data-name="Path 1797" d="M394.575,317.088c-1.835-2.281-8.318-2.892-8.318-2.892s-6.485.583-8.328,2.854c-2.446,3.015-8.711,9.656-8.714,12.077s1.2,18.785,16.982,18.785,17.044-16.291,17.051-18.71S396.985,320.082,394.575,317.088Z" transform="translate(-366.524 -311.53)" fill="#d9eaed"/>
        <path id="Path_1798" data-name="Path 1798" d="M393.608,323.416s5.68.442,8.758,1.972c-.159-.193-.31-.375-.447-.544-1.834-2.281-8.316-2.892-8.316-2.892s-6.486.583-8.33,2.854c-.143.178-.3.368-.468.567C387.88,323.841,393.608,323.416,393.608,323.416Z" transform="translate(-373.878 -315.189)" fill="#62c0d8"/>
        <g id="Group_1441" data-name="Group 1441" transform="translate(8.104 18.188)">
          <path id="Path_1799" data-name="Path 1799" d="M393.563,345.549s-5.68-.442-8.758-1.97c.159.191.309.374.445.543,1.835,2.281,8.318,2.891,8.318,2.891s6.484-.582,8.329-2.854c.143-.178.3-.368.469-.567C399.289,345.124,393.563,345.549,393.563,345.549Z" transform="translate(-381.982 -343.579)" fill="#62c0d8"/>
          <path id="Path_1800" data-name="Path 1800" d="M393.563,364.175s-5.68-.443-8.758-1.971c.159.192.309.372.445.544,1.835,2.279,8.318,2.889,8.318,2.889s6.484-.582,8.329-2.853c.143-.178.3-.368.469-.567C399.289,363.75,393.563,364.175,393.563,364.175Z" transform="translate(-381.982 -352.365)" fill="#62c0d8"/>
          <path id="Path_1801" data-name="Path 1801" d="M391.034,354.861s-7.505-.442-11.573-1.969c.21.191.409.374.588.543,2.426,2.28,10.993,2.892,10.993,2.892s8.57-.584,11.006-2.856c.189-.175.4-.366.62-.566C398.6,354.437,391.034,354.861,391.034,354.861Z" transform="translate(-379.461 -347.972)" fill="#62c0d8"/>
        </g>
      </g>
    </g>
  </g>
</svg>
