<svg xmlns="http://www.w3.org/2000/svg" xmlns:xlink="http://www.w3.org/1999/xlink" width="101" height="101" viewBox="0 0 101 101">
  <defs>
    <clipPath id="clip-path">
      <rect id="Rectangle_1939" data-name="Rectangle 1939" width="65.085" height="70.109" fill="none"/>
    </clipPath>
    <clipPath id="clip-path-3">
      <rect id="Rectangle_1936" data-name="Rectangle 1936" width="23.983" height="33.639" fill="none"/>
    </clipPath>
    <clipPath id="clip-path-4">
      <rect id="Rectangle_1937" data-name="Rectangle 1937" width="10.567" height="20.212" fill="none"/>
    </clipPath>
  </defs>
  <g id="Group_8376" data-name="Group 8376" transform="translate(-608.5 -953.5)">
    <circle id="Ellipse_44" data-name="Ellipse 44" cx="50" cy="50" r="50" transform="translate(609 954)" fill="#e7e7e7" stroke="#707070" stroke-width="1"/>
    <g id="Group_8367" data-name="Group 8367" transform="translate(626.457 968.604)">
      <g id="Group_7023" data-name="Group 7023" clip-path="url(#clip-path)">
        <g id="Group_7022" data-name="Group 7022" transform="translate(0 0)">
          <g id="Group_7021" data-name="Group 7021" clip-path="url(#clip-path)">
            <path id="Path_7248" data-name="Path 7248" d="M36.953,30.6c-3.909-3.685-5.3-10.225-10.657-10.225S19.548,26.915,15.639,30.6c-3.964,3.737-4.378,12.748-2.574,17.958,1.9,5.5,7.362,10.069,13.231,10.069S37.622,54.06,39.523,48.559c1.807-5.21,1.39-14.221-2.574-17.958" transform="translate(-2.975 -4.909)" fill="#3175ae"/>
            <path id="Path_7249" data-name="Path 7249" d="M45.538,87.526A16.131,16.131,0,0,1,34.1,83.318c-2.691-2.634-4.056-6.229-4.056-10.685v-.228h1.587v.228c0,4.006,1.2,7.211,3.574,9.536a14.577,14.577,0,0,0,10.336,3.755q.295,0,.594-.009c.226-.007.452-.02.683-.038,7.291-.6,13.987-6.818,14.621-13.587l1.581.152c-.7,7.493-8.063,14.376-16.074,15.03-.256.02-.514.035-.764.042-.217.006-.433.01-.648.01" transform="translate(-7.423 -17.417)" fill="#3175ae"/>
            <path id="Path_7250" data-name="Path 7250" d="M61.793,80.95a14.682,14.682,0,0,1-4.668-.8,15.712,15.712,0,0,1-9.788-9.093,12.719,12.719,0,0,1,2.375-12.9l.323-.327a10.558,10.558,0,0,1,7.251-2.836,9.279,9.279,0,0,1,5.551,1.734c3.049,2.244,4.681,6.437,4.259,10.944l-1.581-.152c.29-3.094-.507-7.211-3.614-9.5a7.727,7.727,0,0,0-4.624-1.438,8.922,8.922,0,0,0-6.286,2.545A11.017,11.017,0,0,0,48.821,70.49a14.1,14.1,0,0,0,8.8,8.139,13.1,13.1,0,0,0,4.165.718,9.2,9.2,0,0,0,4.095-.9,10.817,10.817,0,0,0,5.779-7.823c.427-3.346.171-8.072-1.363-11.086a10.224,10.224,0,0,0-8.576-5.461,7.04,7.04,0,0,0-2.184.342L59.053,52.9a8.633,8.633,0,0,1,2.679-.417,10.555,10.555,0,0,1,4.7,1.168,12.106,12.106,0,0,1,5.285,5.162C73.4,62.132,73.7,67.239,73.24,70.833a12.328,12.328,0,0,1-6.658,9.058,10.767,10.767,0,0,1-4.79,1.057" transform="translate(-11.497 -12.645)" fill="#3175ae"/>
            <path id="Path_7251" data-name="Path 7251" d="M64.481,75.589c-.109,0-.218,0-.328,0a10.327,10.327,0,0,1-6.9-2.576,13.129,13.129,0,0,1-3.012-12.952,10.505,10.505,0,0,1,6.569-7.022l.488,1.523a8.893,8.893,0,0,0-5.536,5.96,11.481,11.481,0,0,0,2.586,11.336,8.747,8.747,0,0,0,5.836,2.131c.1,0,.2,0,.3,0a9.264,9.264,0,0,0,5.741-1.794l.178-.144L71.4,73.3l-.178.144a10.876,10.876,0,0,1-6.744,2.145" transform="translate(-13.261 -12.778)" fill="#3175ae"/>
            <path id="Path_7252" data-name="Path 7252" d="M76.525,77.862l-.657-.854a.618.618,0,0,1,.063-.824l4.229-4.019,2.083,2.7L77.333,78a.606.606,0,0,1-.807-.142" transform="translate(-18.712 -17.387)" fill="#256a99"/>
            <path id="Path_7253" data-name="Path 7253" d="M85.09,73.784,82.5,70.415a.261.261,0,0,0-.368-.047l-.828.648a.266.266,0,0,0-.047.37h0l2.594,3.369a.261.261,0,0,0,.367.048h0l.828-.649a.266.266,0,0,0,.047-.37h0" transform="translate(-20.06 -16.941)" fill="#3175ae"/>
            <path id="Path_7254" data-name="Path 7254" d="M35.072,52.4l.111,2.02L50.3,50.223l.36-4.785Z" transform="translate(-8.665 -10.948)" fill="#606060"/>
            <path id="Path_7255" data-name="Path 7255" d="M23.418,53.636l-.111,2.02L4.429,52.223l-.36-4.785Z" transform="translate(-1.005 -11.429)" fill="#606060"/>
            <path id="Path_7256" data-name="Path 7256" d="M26.793,1.571H35.92L46.384,8.977l1.559,9.875L45.048,39.5l3.339-2.468,1.781-19.3-3.784-11L38.369.9,27.906,0Z" transform="translate(-6.619 0)" fill="#606060"/>
            <path id="Path_7257" data-name="Path 7257" d="M22.623,1.571l-10.633,3.8L1.526,12.773l.7,9.875,4.4,18.37L3.287,38.55,0,21.525l1.525-11L9.54,4.693,21.51,0Z" transform="translate(0 0)" fill="#606060"/>
            <g id="Group_7017" data-name="Group 7017" transform="translate(11.332 17.777)" opacity="0.51">
              <g id="Group_7016" data-name="Group 7016">
                <g id="Group_7015" data-name="Group 7015" clip-path="url(#clip-path-3)">
                  <path id="Path_7258" data-name="Path 7258" d="M27.041,57.054c-4.629,0-9.388-3.664-11.068-8.523-1.648-4.759-1.143-12.572,1.976-15.513a25.647,25.647,0,0,0,3.787-4.9c1.888-2.914,3.156-4.7,5.305-4.7s3.416,1.786,5.308,4.7a25.647,25.647,0,0,0,3.787,4.9c3.12,2.941,3.625,10.754,1.976,15.513-1.682,4.858-6.441,8.523-11.068,8.523" transform="translate(-15.05 -23.42)" fill="#fff"/>
                </g>
              </g>
            </g>
            <g id="Group_7020" data-name="Group 7020" transform="translate(18.037 19.721)" opacity="0.31">
              <g id="Group_7019" data-name="Group 7019">
                <g id="Group_7018" data-name="Group 7018" clip-path="url(#clip-path-4)">
                  <path id="Path_7259" data-name="Path 7259" d="M32.169,46.193H26.31c-.667,0-1.593-.047-1.923-.451-.64-.784-.436-2.331-.22-3.968.022-.165.043-.332.065-.5a74.516,74.516,0,0,1,1.862-9.125c1.587-5.726,2.809-6.17,3.146-6.17s1.559.445,3.146,6.17a74.5,74.5,0,0,1,1.862,9.124q.032.249.065.5c.216,1.638.42,3.188-.221,3.968-.331.4-1.256.451-1.923.451" transform="translate(-23.955 -25.981)" fill="#fff"/>
                </g>
              </g>
            </g>
            <path id="Path_7260" data-name="Path 7260" d="M31.08,71.019H30.008a.611.611,0,0,1-.606-.556l-.556-5.831h3.4l-.556,5.831a.611.611,0,0,1-.606.556" transform="translate(-7.127 -15.572)" fill="#256a99"/>
            <path id="Path_7261" data-name="Path 7261" d="M31.867,62.1h-3.75A1.523,1.523,0,0,1,26.6,60.574V54.133h6.783v6.441A1.523,1.523,0,0,1,31.867,62.1Z" transform="translate(-6.572 -13.043)" fill="#3175ae"/>
            <path id="Path_7262" data-name="Path 7262" d="M26.106,52.109H33.2a.884.884,0,0,1,0,1.767H26.106a.884.884,0,0,1,0-1.767" transform="translate(-6.233 -12.555)" fill="#256a99"/>
          </g>
        </g>
      </g>
    </g>
  </g>
</svg>
