<svg xmlns="http://www.w3.org/2000/svg" xmlns:xlink="http://www.w3.org/1999/xlink" width="101" height="101" viewBox="0 0 101 101">
  <defs>
    <clipPath id="clip-path">
      <rect id="Rectangle_1579" data-name="Rectangle 1579" width="42.833" height="32.82" fill="none"/>
    </clipPath>
  </defs>
  <g id="Group_8372" data-name="Group 8372" transform="translate(-476.5 -838.5)">
    <circle id="Ellipse_47-2" data-name="Ellipse 47-2" cx="50" cy="50" r="50" transform="translate(477 839)" fill="#e7e7e7" stroke="#707070" stroke-width="1"/>
    <g id="Group_6427" data-name="Group 6427" transform="translate(505.584 872.867)" clip-path="url(#clip-path)">
      <path id="Path_6044" data-name="Path 6044" d="M40.226,1.1H1.049L8.366,17.5c.526,1.174,2.119,1.977,3.924,1.977H31.153c1.937,0,3.607-.92,4.012-2.207Z" transform="translate(0.303 0.317)" fill="#c9c9c9"/>
      <rect id="Rectangle_1576" data-name="Rectangle 1576" width="42.833" height="1.414" fill="#b7b7b7"/>
      <path id="Path_6045" data-name="Path 6045" d="M40.226,5.962H1.049l7.317,16.4c.526,1.174,2.119,1.977,3.924,1.977H31.153c1.937,0,3.607-.92,4.012-2.207Z" transform="translate(0.303 1.723)" fill="#c9c9c9"/>
      <rect id="Rectangle_1577" data-name="Rectangle 1577" width="42.833" height="1.414" transform="translate(0 6.271)" fill="#b7b7b7"/>
      <path id="Path_6046" data-name="Path 6046" d="M40.226,11.2H1.049l7.317,16.4c.526,1.174,2.119,1.977,3.924,1.977H31.153c1.937,0,3.607-.92,4.012-2.207Z" transform="translate(0.303 3.238)" fill="#c9c9c9"/>
      <rect id="Rectangle_1578" data-name="Rectangle 1578" width="42.833" height="1.414" transform="translate(0 13.026)" fill="#b7b7b7"/>
    </g>
  </g>
</svg>
